<?xml version="1.0" standalone="no"?>
 <!DOCTYPE svg PUBLIC "-//W3C//DTD SVG 1.1//EN" 
 "http://www.w3.org/Graphics/SVG/1.1/DTD/svg11.dtd"> 
<svg
  xmlns:svg="http://www.w3.org/2000/svg"
  xmlns="http://www.w3.org/2000/svg"
  xmlns:xlink="http://www.w3.org/1999/xlink"
  version="1.1"
  width="102.2350mm" height="79.7306mm" viewBox="0.0000 0.0000 102.2350 79.7306">
<title>SVG Image created as multimeter-B_Mask.svg date 2025/06/28 23:01:46 </title>
  <desc>Image generated by PCBNEW </desc>
<g style="fill:#000000; fill-opacity:1.0000;stroke:#000000; stroke-opacity:1.0000;
stroke-linecap:round; stroke-linejoin:round;"
 transform="translate(0 0) scale(1 1)">
<path style="fill:#000000; fill-opacity:1.0000; stroke:none;fill-rule:evenodd;"
d="M 55.9750,12.8500
57.4750,12.8500
57.4750,14.3500
55.9750,14.3500
Z" /> 
</g>
<g style="fill:#000000; fill-opacity:1.0000; stroke:none;">
<circle cx="56.7250" cy="16.1400" r="0.7500" /> 
</g>
<g style="fill:#000000; fill-opacity:1.0000; stroke:none;">
<circle cx="56.7250" cy="18.6800" r="0.7500" /> 
<path style="fill:#000000; fill-opacity:1.0000; stroke:none;fill-rule:evenodd;"
d="M 50.1200,27.7650
51.6200,27.7650
51.6200,29.2650
50.1200,29.2650
Z" /> 
</g>
<g style="fill:#000000; fill-opacity:1.0000; stroke:none;">
<circle cx="50.8700" cy="31.0550" r="0.7500" /> 
</g>
<g style="fill:#000000; fill-opacity:1.0000; stroke:none;">
<circle cx="50.8700" cy="33.5950" r="0.7500" /> 
<path style="fill:#000000; fill-opacity:1.0000; stroke:none;fill-rule:evenodd;"
d="M 49.9800,19.1000
51.4800,19.1000
51.4800,20.6000
49.9800,20.6000
Z" /> 
</g>
<g style="fill:#000000; fill-opacity:1.0000; stroke:none;">
<circle cx="50.7300" cy="22.3900" r="0.7500" /> 
</g>
<g style="fill:#000000; fill-opacity:1.0000; stroke:none;">
<circle cx="50.7300" cy="24.9300" r="0.7500" /> 
<path style="fill:#000000; fill-opacity:1.0000; stroke:none;fill-rule:evenodd;"
d="M 47.8700,55.9600
49.3700,55.9600
49.3700,57.4600
47.8700,57.4600
Z" /> 
</g>
<g style="fill:#000000; fill-opacity:1.0000; stroke:none;">
<circle cx="48.6200" cy="59.2500" r="0.7500" /> 
</g>
<g style="fill:#000000; fill-opacity:1.0000; stroke:none;">
<circle cx="48.6200" cy="61.7900" r="0.7500" /> 
<path style="fill:#000000; fill-opacity:1.0000; stroke:none;fill-rule:evenodd;"
d="M 42.6200,71.1000
44.1200,71.1000
44.1200,72.6000
42.6200,72.6000
Z" /> 
</g>
<g style="fill:#000000; fill-opacity:1.0000; stroke:none;">
<circle cx="43.3700" cy="74.3900" r="0.7500" /> 
</g>
<g style="fill:#000000; fill-opacity:1.0000; stroke:none;">
<circle cx="43.3700" cy="76.9300" r="0.7500" /> 
<path style="fill:#000000; fill-opacity:1.0000; stroke:none;fill-rule:evenodd;"
d="M 42.6200,62.4600
44.1200,62.4600
44.1200,63.9600
42.6200,63.9600
Z" /> 
</g>
<g style="fill:#000000; fill-opacity:1.0000; stroke:none;">
<circle cx="43.3700" cy="65.7500" r="0.7500" /> 
</g>
<g style="fill:#000000; fill-opacity:1.0000; stroke:none;">
<circle cx="43.3700" cy="68.2900" r="0.7500" /> 
<path style="fill:#000000; fill-opacity:1.0000; stroke:none;fill-rule:evenodd;"
d="M 70.1400,55.7300
71.6400,55.7300
71.6400,57.2300
70.1400,57.2300
Z" /> 
</g>
<g style="fill:#000000; fill-opacity:1.0000; stroke:none;">
<circle cx="70.8900" cy="59.0200" r="0.7500" /> 
</g>
<g style="fill:#000000; fill-opacity:1.0000; stroke:none;">
<circle cx="70.8900" cy="61.5600" r="0.7500" /> 
<path style="fill:#000000; fill-opacity:1.0000; stroke:none;fill-rule:evenodd;"
d="M 64.9750,71.6000
66.4750,71.6000
66.4750,73.1000
64.9750,73.1000
Z" /> 
</g>
<g style="fill:#000000; fill-opacity:1.0000; stroke:none;">
<circle cx="65.7250" cy="74.8900" r="0.7500" /> 
</g>
<g style="fill:#000000; fill-opacity:1.0000; stroke:none;">
<circle cx="65.7250" cy="77.4300" r="0.7500" /> 
<path style="fill:#000000; fill-opacity:1.0000; stroke:none;fill-rule:evenodd;"
d="M 65.0000,62.4600
66.5000,62.4600
66.5000,63.9600
65.0000,63.9600
Z" /> 
</g>
<g style="fill:#000000; fill-opacity:1.0000; stroke:none;">
<circle cx="65.7500" cy="65.7500" r="0.7500" /> 
</g>
<g style="fill:#000000; fill-opacity:1.0000; stroke:none;">
<circle cx="65.7500" cy="68.2900" r="0.7500" /> 
<path style="fill:#000000; fill-opacity:1.0000; stroke:none;fill-rule:evenodd;"
d="M 29.9750,20.3500
31.4750,20.3500
31.4750,21.8500
29.9750,21.8500
Z" /> 
</g>
<g style="fill:#000000; fill-opacity:1.0000; stroke:none;">
<circle cx="30.7250" cy="23.6400" r="0.7500" /> 
</g>
<g style="fill:#000000; fill-opacity:1.0000; stroke:none;">
<circle cx="30.7250" cy="26.1800" r="0.7500" /> 
<path style="fill:#000000; fill-opacity:1.0000; stroke:none;fill-rule:evenodd;"
d="M 24.7500,35.4600
26.2500,35.4600
26.2500,36.9600
24.7500,36.9600
Z" /> 
</g>
<g style="fill:#000000; fill-opacity:1.0000; stroke:none;">
<circle cx="25.5000" cy="38.7500" r="0.7500" /> 
</g>
<g style="fill:#000000; fill-opacity:1.0000; stroke:none;">
<circle cx="25.5000" cy="41.2900" r="0.7500" /> 
<path style="fill:#000000; fill-opacity:1.0000; stroke:none;fill-rule:evenodd;"
d="M 24.6750,26.9000
26.1750,26.9000
26.1750,28.4000
24.6750,28.4000
Z" /> 
</g>
<g style="fill:#000000; fill-opacity:1.0000; stroke:none;">
<circle cx="25.4250" cy="30.1900" r="0.7500" /> 
</g>
<g style="fill:#000000; fill-opacity:1.0000; stroke:none;">
<circle cx="25.4250" cy="32.7300" r="0.7500" /> 
<path style="fill:#000000; fill-opacity:1.0000; stroke:none;fill-rule:evenodd;"
d="M 25.3100,54.7300
26.8100,54.7300
26.8100,56.2300
25.3100,56.2300
Z" /> 
</g>
<g style="fill:#000000; fill-opacity:1.0000; stroke:none;">
<circle cx="26.0600" cy="58.0200" r="0.7500" /> 
</g>
<g style="fill:#000000; fill-opacity:1.0000; stroke:none;">
<circle cx="26.0600" cy="60.5600" r="0.7500" /> 
<path style="fill:#000000; fill-opacity:1.0000; stroke:none;fill-rule:evenodd;"
d="M 20.7250,70.6000
22.2250,70.6000
22.2250,72.1000
20.7250,72.1000
Z" /> 
</g>
<g style="fill:#000000; fill-opacity:1.0000; stroke:none;">
<circle cx="21.4750" cy="73.8900" r="0.7500" /> 
</g>
<g style="fill:#000000; fill-opacity:1.0000; stroke:none;">
<circle cx="21.4750" cy="76.4300" r="0.7500" /> 
<path style="fill:#000000; fill-opacity:1.0000; stroke:none;fill-rule:evenodd;"
d="M 20.5600,61.9800
22.0600,61.9800
22.0600,63.4800
20.5600,63.4800
Z" /> 
</g>
<g style="fill:#000000; fill-opacity:1.0000; stroke:none;">
<circle cx="21.3100" cy="65.2700" r="0.7500" /> 
</g>
<g style="fill:#000000; fill-opacity:1.0000; stroke:none;">
<circle cx="21.3100" cy="67.8100" r="0.7500" /> 
</g>
<g style="fill:#000000; fill-opacity:1.0000; stroke:none;">
<circle cx="76.5100" cy="45.5000" r="0.8000" /> 
</g>
<g style="fill:#000000; fill-opacity:1.0000; stroke:none;">
<circle cx="79.0500" cy="45.5000" r="0.8000" /> 
<path style="fill:#000000; fill-opacity:1.0000; stroke:none;fill-rule:evenodd;"
d="M 65.7175,18.0000
65.7175,16.0000
67.6225,16.0000
67.6225,18.0000
Z" /> 
</g>
<g style="fill:none; 
stroke:#000000; stroke-width:1.9050; stroke-opacity:1; 
stroke-linecap:round; stroke-linejoin:round;">
<path d="M69.2100 16.9525
L69.2100 17.0475
" />
<path d="M71.7500 16.9525
L71.7500 17.0475
" />
</g>
<g style="fill:#000000; fill-opacity:1.0000; stroke:none;">
<circle cx="15.1300" cy="52.2500" r="0.8000" /> 
</g>
<g style="fill:#000000; fill-opacity:1.0000; stroke:none;">
<circle cx="17.6700" cy="52.2500" r="0.8000" /> 
<circle cx="66.2100" cy="21.0550" r="0.8000" /> 
</g>
<g style="fill:#000000; fill-opacity:1.0000; stroke:none;">
<circle cx="66.2100" cy="23.5950" r="0.8000" /> 
<circle cx="34.8500" cy="70.5000" r="0.8000" /> 
</g>
<g style="fill:#000000; fill-opacity:1.0000; stroke:none;">
<circle cx="37.3900" cy="70.5000" r="0.8000" /> 
<path style="fill:#000000; fill-opacity:1.0000; stroke:none;fill-rule:evenodd;"
d="M 95.3600,23.3500
95.4557,23.3690
95.5368,23.4232
95.5910,23.5043
95.6100,23.6000
95.6100,25.9000
95.5910,25.9957
95.5368,26.0768
95.4557,26.1310
95.3600,26.1500
93.0600,26.1500
92.9643,26.1310
92.8832,26.0768
92.8290,25.9957
92.8100,25.9000
92.8100,23.6000
92.8290,23.5043
92.8832,23.4232
92.9643,23.3690
93.0600,23.3500
Z" /> 
<circle cx="94.2100" cy="29.7500" r="1.4000" /> 
</g>
<g style="fill:#000000; fill-opacity:1.0000; stroke:none;">
<circle cx="40.8800" cy="29.7500" r="0.8000" /> 
</g>
<g style="fill:#000000; fill-opacity:1.0000; stroke:none;">
<circle cx="43.4200" cy="29.7500" r="0.8000" /> 
<circle cx="56.6300" cy="57.7500" r="0.8000" /> 
</g>
<g style="fill:#000000; fill-opacity:1.0000; stroke:none;">
<circle cx="59.1700" cy="57.7500" r="0.8000" /> 
<path style="fill:#000000; fill-opacity:1.0000; stroke:none;fill-rule:evenodd;"
d="M 92.7500,43.0475
94.7500,43.0475
94.7500,44.9525
92.7500,44.9525
Z" /> 
</g>
<g style="fill:none; 
stroke:#000000; stroke-width:1.9050; stroke-opacity:1; 
stroke-linecap:round; stroke-linejoin:round;">
<path d="M93.7975 46.5400
L93.7025 46.5400
" />
<path d="M93.7975 49.0800
L93.7025 49.0800
" />
</g>
<g style="fill:#000000; fill-opacity:1.0000; stroke:none;">
<circle cx="18.7100" cy="19.7500" r="0.8000" /> 
</g>
<g style="fill:#000000; fill-opacity:1.0000; stroke:none;">
<circle cx="21.2500" cy="19.7500" r="0.8000" /> 
<circle cx="28.2500" cy="7.0000" r="0.8000" /> 
</g>
<g style="fill:#000000; fill-opacity:1.0000; stroke:none;">
<circle cx="25.7100" cy="7.0000" r="0.8000" /> 
<path style="fill:#000000; fill-opacity:1.0000; stroke:none;fill-rule:evenodd;"
d="M 78.1000,66.5675
78.1190,66.4718
78.1732,66.3907
78.2543,66.3365
78.3500,66.3175
80.6500,66.3175
80.7457,66.3365
80.8268,66.3907
80.8810,66.4718
80.9000,66.5675
80.9000,68.8675
80.8810,68.9632
80.8268,69.0443
80.7457,69.0985
80.6500,69.1175
78.3500,69.1175
78.2543,69.0985
78.1732,69.0443
78.1190,68.9632
78.1000,68.8675
Z" /> 
<circle cx="84.5000" cy="67.7175" r="1.4000" /> 
<path style="fill:#000000; fill-opacity:1.0000; stroke:none;fill-rule:evenodd;"
d="M 78.6375,17.3050
78.6375,15.3050
80.5425,15.3050
80.5425,17.3050
Z" /> 
</g>
<g style="fill:none; 
stroke:#000000; stroke-width:1.9050; stroke-opacity:1; 
stroke-linecap:round; stroke-linejoin:round;">
<path d="M82.1300 16.2575
L82.1300 16.3525
" />
<path d="M84.6700 16.2575
L84.6700 16.3525
" />
<path style="fill:#000000; fill-opacity:1.0000; stroke:none;fill-rule:evenodd;"
d="M 53.5000,8.6500
53.5000,5.8500
56.3000,5.8500
56.3000,8.6500
Z" /> 
</g>
<g style="fill:#000000; fill-opacity:1.0000; stroke:none;">
<circle cx="67.6000" cy="7.2500" r="1.4000" /> 
<circle cx="98.3150" cy="79.6850" r="1.6000" /> 
</g>
<g style="fill:#000000; fill-opacity:1.0000; stroke:none;">
<circle cx="98.0650" cy="3.6850" r="1.6000" /> 
</g>
<g style="fill:#000000; fill-opacity:1.0000; stroke:none;">
<circle cx="36.2500" cy="54.0000" r="0.8000" /> 
</g>
<g style="fill:#000000; fill-opacity:1.0000; stroke:none;">
<circle cx="38.7900" cy="54.0000" r="0.8000" /> 
<circle cx="17.3000" cy="37.5000" r="0.8000" /> 
</g>
<g style="fill:#000000; fill-opacity:1.0000; stroke:none;">
<circle cx="19.8400" cy="37.5000" r="0.8000" /> 
<circle cx="25.2100" cy="17.7500" r="0.8000" /> 
</g>
<g style="fill:#000000; fill-opacity:1.0000; stroke:none;">
<circle cx="27.7500" cy="17.7500" r="0.8000" /> 
<circle cx="42.5800" cy="52.2500" r="0.8000" /> 
</g>
<g style="fill:#000000; fill-opacity:1.0000; stroke:none;">
<circle cx="45.1200" cy="52.2500" r="0.8000" /> 
<circle cx="17.3000" cy="25.5000" r="0.8000" /> 
</g>
<g style="fill:#000000; fill-opacity:1.0000; stroke:none;">
<circle cx="19.8400" cy="25.5000" r="0.8000" /> 
<circle cx="56.6300" cy="64.2500" r="0.8000" /> 
</g>
<g style="fill:#000000; fill-opacity:1.0000; stroke:none;">
<circle cx="59.1700" cy="64.2500" r="0.8000" /> 
<circle cx="40.8800" cy="17.2500" r="0.8000" /> 
</g>
<g style="fill:#000000; fill-opacity:1.0000; stroke:none;">
<circle cx="43.4200" cy="17.2500" r="0.8000" /> 
<circle cx="17.4500" cy="31.5000" r="0.8000" /> 
</g>
<g style="fill:#000000; fill-opacity:1.0000; stroke:none;">
<circle cx="19.9900" cy="31.5000" r="0.8000" /> 
<circle cx="79.6700" cy="23.1050" r="0.8000" /> 
</g>
<g style="fill:#000000; fill-opacity:1.0000; stroke:none;">
<circle cx="79.6700" cy="25.6450" r="0.8000" /> 
<circle cx="58.7100" cy="52.2500" r="0.8000" /> 
</g>
<g style="fill:#000000; fill-opacity:1.0000; stroke:none;">
<circle cx="61.2500" cy="52.2500" r="0.8000" /> 
<circle cx="40.8800" cy="23.7500" r="0.8000" /> 
</g>
<g style="fill:#000000; fill-opacity:1.0000; stroke:none;">
<circle cx="43.4200" cy="23.7500" r="0.8000" /> 
<circle cx="12.9800" cy="69.9600" r="0.8000" /> 
</g>
<g style="fill:#000000; fill-opacity:1.0000; stroke:none;">
<circle cx="15.5200" cy="69.9600" r="0.8000" /> 
<circle cx="3.8150" cy="3.6850" r="1.6000" /> 
<path style="fill:#000000; fill-opacity:1.0000; stroke:none;fill-rule:evenodd;"
d="M 1.5800,34.5500
1.5800,32.9500
3.1800,32.9500
3.1800,34.5500
Z" /> 
</g>
<g style="fill:#000000; fill-opacity:1.0000; stroke:none;">
<circle cx="10.0000" cy="33.7500" r="0.8000" /> 
<circle cx="34.5000" cy="59.5000" r="0.8000" /> 
</g>
<g style="fill:#000000; fill-opacity:1.0000; stroke:none;">
<circle cx="37.0400" cy="59.5000" r="0.8000" /> 
<path style="fill:#000000; fill-opacity:1.0000; stroke:none;fill-rule:evenodd;"
d="M 18.3250,13.1500
18.3250,11.3500
20.1250,11.3500
20.1250,13.1500
Z" /> 
<circle cx="21.7650" cy="12.2500" r="0.9000" /> 
<path style="fill:#000000; fill-opacity:1.0000; stroke:none;fill-rule:evenodd;"
d="M 1.5800,41.8000
1.5800,40.2000
3.1800,40.2000
3.1800,41.8000
Z" /> 
</g>
<g style="fill:#000000; fill-opacity:1.0000; stroke:none;">
<circle cx="10.0000" cy="41.0000" r="0.8000" /> 
<path style="fill:#000000; fill-opacity:1.0000; stroke:none;fill-rule:evenodd;"
d="M 44.2750,32.7500
47.0750,32.7500
47.0750,35.5500
44.2750,35.5500
Z" /> 
<circle cx="45.6750" cy="46.8500" r="1.4000" /> 
<circle cx="67.7100" cy="33.2550" r="0.8000" /> 
</g>
<g style="fill:#000000; fill-opacity:1.0000; stroke:none;">
<circle cx="67.7100" cy="30.7150" r="0.8000" /> 
<circle cx="3.8150" cy="79.6850" r="1.6000" /> 
</g>
<g style="fill:#000000; fill-opacity:1.0000; stroke:none;">
<circle cx="47.9600" cy="10.7500" r="0.8000" /> 
</g>
<g style="fill:#000000; fill-opacity:1.0000; stroke:none;">
<circle cx="50.5000" cy="10.7500" r="0.8000" /> 
<path style="fill:#000000; fill-opacity:1.0000; stroke:none;fill-rule:evenodd;"
d="M 4.6000,23.6500
4.5043,23.6310
4.4232,23.5768
4.3690,23.4957
4.3500,23.4000
4.3500,21.1000
4.3690,21.0043
4.4232,20.9232
4.5043,20.8690
4.6000,20.8500
6.9000,20.8500
6.9957,20.8690
7.0768,20.9232
7.1310,21.0043
7.1500,21.1000
7.1500,23.4000
7.1310,23.4957
7.0768,23.5768
6.9957,23.6310
6.9000,23.6500
Z" /> 
<circle cx="5.7500" cy="17.2500" r="1.4000" /> 
</g>
<g style="fill:#000000; fill-opacity:1.0000; stroke:none;">
<circle cx="56.6300" cy="70.2500" r="0.8000" /> 
</g>
<g style="fill:#000000; fill-opacity:1.0000; stroke:none;">
<circle cx="59.1700" cy="70.2500" r="0.8000" /> 
<circle cx="89.6000" cy="43.5000" r="0.8000" /> 
</g>
<g style="fill:#000000; fill-opacity:1.0000; stroke:none;">
<circle cx="87.0600" cy="43.5000" r="0.8000" /> 
<circle cx="41.4600" cy="12.5000" r="0.8000" /> 
</g>
<g style="fill:#000000; fill-opacity:1.0000; stroke:none;">
<circle cx="44.0000" cy="12.5000" r="0.8000" /> 
<circle cx="34.5000" cy="64.5000" r="0.8000" /> 
</g>
<g style="fill:#000000; fill-opacity:1.0000; stroke:none;">
<circle cx="37.0400" cy="64.5000" r="0.8000" /> 
<circle cx="12.9800" cy="64.4600" r="0.8000" /> 
</g>
<g style="fill:#000000; fill-opacity:1.0000; stroke:none;">
<circle cx="15.5200" cy="64.4600" r="0.8000" /> 
<path style="fill:#000000; fill-opacity:1.0000; stroke:none;fill-rule:evenodd;"
d="M 25.3250,13.1500
25.3250,11.3500
27.1250,11.3500
27.1250,13.1500
Z" /> 
<circle cx="28.7650" cy="12.2500" r="0.9000" /> 
</g>
<g style="fill:#000000; fill-opacity:1.0000; stroke:none;">
<circle cx="21.1300" cy="50.2500" r="0.8000" /> 
</g>
<g style="fill:#000000; fill-opacity:1.0000; stroke:none;">
<circle cx="23.6700" cy="50.2500" r="0.8000" /> 
<path style="fill:#000000; fill-opacity:1.0000; stroke:none;fill-rule:evenodd;"
d="M 1.5800,48.5500
1.5800,46.9500
3.1800,46.9500
3.1800,48.5500
Z" /> 
<circle cx="10.0000" cy="47.7500" r="0.8000" /> 
<circle cx="19.7100" cy="7.0000" r="0.8000" /> 
</g>
<g style="fill:#000000; fill-opacity:1.0000; stroke:none;">
<circle cx="22.2500" cy="7.0000" r="0.8000" /> 
<circle cx="12.8300" cy="57.9600" r="0.8000" /> 
</g>
<g style="fill:#000000; fill-opacity:1.0000; stroke:none;">
<circle cx="15.3700" cy="57.9600" r="0.8000" /> 
<circle cx="64.9600" cy="51.5000" r="0.8000" /> 
</g>
<g style="fill:#000000; fill-opacity:1.0000; stroke:none;">
<circle cx="67.5000" cy="51.5000" r="0.8000" /> 
<path style="fill:#000000; fill-opacity:1.0000; stroke:none;fill-rule:evenodd;"
d="M 16.4000,11.1000
16.4000,12.9000
14.6000,12.9000
14.6000,11.1000
Z" /> 
<circle cx="12.9600" cy="12.0000" r="0.9000" /> 
</g>
<g style="fill:#000000; fill-opacity:1.0000; stroke:none;">
<circle cx="13.2100" cy="7.0000" r="0.8000" /> 
</g>
<g style="fill:#000000; fill-opacity:1.0000; stroke:none;">
<circle cx="15.7500" cy="7.0000" r="0.8000" /> 
</g> 
</svg>
