  0
SECTION
  2
HEADER
  9
$ANGBASE
  50
0.0
  9
$ANGDIR
  70
1
  9
$MEASUREMENT
  70
1
  0
ENDSEC
  0
SECTION
  2
TABLES
  0
TABLE
  2
LTYPE
  70
4
  0
LTYPE
  5
40F
  2
CONTINUOUS
  70
0
  3
Solid line
  72
65
  73
0
  40
0.0
  0
LTYPE
  5
410
  2
DASHDOT
 70
0
  3
Dash Dot ____ _ ____ _
 72
65
 73
4
 40
2.0
 49
1.25
 49
-0.25
 49
0.25
 49
-0.25
  0
LTYPE
  5
411
  2
DASHED
 70
0
  3
Dashed __ __ __ __ __
 72
65
 73
2
 40
0.75
 49
0.5
 49
-0.25
  0
LTYPE
  5
43B
  2
DOTTED
 70
0
  3
Dotted .  .  .  .
 72
65
 73
2
 40
0.2
 49
0.0
 49
-0.2
  0
ENDTAB
  0
TABLE
  2
STYLE
  70
4
  0
STYLE
  2
KICAD
  70
0
  40
0
  41
1
  42
1
  50
0
  71
0
  3
isocp.shx
  0
STYLE
  2
KICADB
  70
0
  40
0
  41
1
  42
1
  50
0
  71
0
  3
isocp.shx
  0
STYLE
  2
KICADI
  70
0
  40
0
  41
1
  42
1
  50
15
  71
0
  3
isocp.shx
  0
STYLE
  2
KICADBI
  70
0
  40
0
  41
1
  42
1
  50
15
  71
0
  3
isocp.shx
  0
ENDTAB
  0
TABLE
  2
LAYER
  70
1
  0
LAYER
  2
BLACK
  70
0
  62
7
  6
CONTINUOUS
  0
ENDTAB
  0
ENDSEC
  0
SECTION
  2
ENTITIES
0
LINE
8
BLACK
6
CONTINUOUS
10
-3.4749999999999996
20
76.1499999999999915
11
116.5249999999999915
21
76.1499999999999915
0
LINE
8
BLACK
6
CONTINUOUS
10
116.5249999999999915
20
76.1499999999999915
11
116.5249999999999915
21
-5.8549999999999995
0
LINE
8
BLACK
6
CONTINUOUS
10
116.5249999999999915
20
-5.8549999999999995
11
-3.4749999999999996
21
-5.8549999999999995
0
LINE
8
BLACK
6
CONTINUOUS
10
-3.4749999999999996
20
-5.8549999999999995
11
-3.4749999999999996
21
76.1499999999999915
0
LINE
8
BLACK
6
CONTINUOUS
10
-1.5699999999999998
20
74.25
11
1.6299999999999999
21
71.0499999999999972
0
LINE
8
BLACK
6
CONTINUOUS
10
1.6299999999999999
20
74.25
11
-1.5699999999999998
21
71.0499999999999972
0
LINE
8
BLACK
6
CONTINUOUS
10
-1.5699999999999998
20
-0.75
11
1.6299999999999999
21
-3.9499999999999997
0
LINE
8
BLACK
6
CONTINUOUS
10
1.6299999999999999
20
-0.75
11
-1.5699999999999998
21
-3.9499999999999997
0
LINE
8
BLACK
6
CONTINUOUS
10
111.4299999999999926
20
74.25
11
114.6299999999999955
21
71.0499999999999972
0
LINE
8
BLACK
6
CONTINUOUS
10
114.6299999999999955
20
74.25
11
111.4299999999999926
21
71.0499999999999972
0
LINE
8
BLACK
6
CONTINUOUS
10
111.4299999999999926
20
-0.75
11
114.6299999999999955
21
-3.9499999999999997
0
LINE
8
BLACK
6
CONTINUOUS
10
114.6299999999999955
20
-0.75
11
111.4299999999999926
21
-3.9499999999999997
0
LINE
8
BLACK
6
CONTINUOUS
10
-0.892231
20
-8.9948379999999997
11
-0.892231
21
-6.9948379999999997
0
LINE
8
BLACK
6
CONTINUOUS
10
-0.892231
20
-6.9948379999999997
11
-0.416041
21
-6.9948379999999997
0
LINE
8
BLACK
6
CONTINUOUS
10
-0.416041
20
-6.9948379999999997
11
-0.130326
21
-7.0900759999999998
0
LINE
8
BLACK
6
CONTINUOUS
10
-0.130326
20
-7.0900759999999998
11
0.060149
21
-7.2805519999999992
0
LINE
8
BLACK
6
CONTINUOUS
10
0.060149
20
-7.2805519999999992
11
0.155387
21
-7.4710279999999996
0
LINE
8
BLACK
6
CONTINUOUS
10
0.155387
20
-7.4710279999999996
11
0.250625
21
-7.8519799999999993
0
LINE
8
BLACK
6
CONTINUOUS
10
0.250625
20
-7.8519799999999993
11
0.250625
21
-8.137694999999999
0
LINE
8
BLACK
6
CONTINUOUS
10
0.250625
20
-8.137694999999999
11
0.155387
21
-8.5186469999999996
0
LINE
8
BLACK
6
CONTINUOUS
10
0.155387
20
-8.5186469999999996
11
0.060149
21
-8.7091229999999999
0
LINE
8
BLACK
6
CONTINUOUS
10
0.060149
20
-8.7091229999999999
11
-0.130326
21
-8.8995999999999995
0
LINE
8
BLACK
6
CONTINUOUS
10
-0.130326
20
-8.8995999999999995
11
-0.416041
21
-8.9948379999999997
0
LINE
8
BLACK
6
CONTINUOUS
10
-0.416041
20
-8.9948379999999997
11
-0.892231
21
-8.9948379999999997
0
LINE
8
BLACK
6
CONTINUOUS
10
1.1077679999999999
20
-8.9948379999999997
11
1.1077679999999999
21
-7.6615039999999999
0
LINE
8
BLACK
6
CONTINUOUS
10
1.1077679999999999
20
-8.0424569999999989
11
1.203006
21
-7.8519799999999993
0
LINE
8
BLACK
6
CONTINUOUS
10
1.203006
20
-7.8519799999999993
11
1.298244
21
-7.756742
0
LINE
8
BLACK
6
CONTINUOUS
10
1.298244
20
-7.756742
11
1.48872
21
-7.6615039999999999
0
LINE
8
BLACK
6
CONTINUOUS
10
1.48872
20
-7.6615039999999999
11
1.6791969999999998
21
-7.6615039999999999
0
LINE
8
BLACK
6
CONTINUOUS
10
2.345863
20
-8.9948379999999997
11
2.345863
21
-7.6615039999999999
0
LINE
8
BLACK
6
CONTINUOUS
10
2.345863
20
-6.9948379999999997
11
2.2506249999999999
21
-7.0900759999999998
0
LINE
8
BLACK
6
CONTINUOUS
10
2.2506249999999999
20
-7.0900759999999998
11
2.345863
21
-7.185314
0
LINE
8
BLACK
6
CONTINUOUS
10
2.345863
20
-7.185314
11
2.4411009999999997
21
-7.0900759999999998
0
LINE
8
BLACK
6
CONTINUOUS
10
2.4411009999999997
20
-7.0900759999999998
11
2.345863
21
-6.9948379999999997
0
LINE
8
BLACK
6
CONTINUOUS
10
2.345863
20
-6.9948379999999997
11
2.345863
21
-7.185314
0
LINE
8
BLACK
6
CONTINUOUS
10
3.583958
20
-8.9948379999999997
11
3.3934819999999997
21
-8.8995999999999995
0
LINE
8
BLACK
6
CONTINUOUS
10
3.3934819999999997
20
-8.8995999999999995
11
3.298244
21
-8.7091229999999999
0
LINE
8
BLACK
6
CONTINUOUS
10
3.298244
20
-8.7091229999999999
11
3.298244
21
-6.9948379999999997
0
LINE
8
BLACK
6
CONTINUOUS
10
4.6315770000000001
20
-8.9948379999999997
11
4.4411009999999997
21
-8.8995999999999995
0
LINE
8
BLACK
6
CONTINUOUS
10
4.4411009999999997
20
-8.8995999999999995
11
4.3458629999999996
21
-8.7091229999999999
0
LINE
8
BLACK
6
CONTINUOUS
10
4.3458629999999996
20
-8.7091229999999999
11
4.3458629999999996
21
-6.9948379999999997
0
LINE
8
BLACK
6
CONTINUOUS
10
6.9172919999999998
20
-8.9948379999999997
11
6.9172919999999998
21
-6.9948379999999997
0
LINE
8
BLACK
6
CONTINUOUS
10
6.9172919999999998
20
-6.9948379999999997
11
7.5839589999999992
21
-8.4234089999999995
0
LINE
8
BLACK
6
CONTINUOUS
10
7.5839589999999992
20
-8.4234089999999995
11
8.2506249999999994
21
-6.9948379999999997
0
LINE
8
BLACK
6
CONTINUOUS
10
8.2506249999999994
20
-6.9948379999999997
11
8.2506249999999994
21
-8.9948379999999997
0
LINE
8
BLACK
6
CONTINUOUS
10
10.0601489999999991
20
-8.9948379999999997
11
10.0601489999999991
21
-7.9472189999999996
0
LINE
8
BLACK
6
CONTINUOUS
10
10.0601489999999991
20
-7.9472189999999996
11
9.964910999999999
21
-7.756742
0
LINE
8
BLACK
6
CONTINUOUS
10
9.964910999999999
20
-7.756742
11
9.7744350000000004
21
-7.6615039999999999
0
LINE
8
BLACK
6
CONTINUOUS
10
9.7744350000000004
20
-7.6615039999999999
11
9.3934819999999988
21
-7.6615039999999999
0
LINE
8
BLACK
6
CONTINUOUS
10
9.3934819999999988
20
-7.6615039999999999
11
9.2030060000000002
21
-7.756742
0
LINE
8
BLACK
6
CONTINUOUS
10
10.0601489999999991
20
-8.8995999999999995
11
9.8696729999999988
21
-8.9948379999999997
0
LINE
8
BLACK
6
CONTINUOUS
10
9.8696729999999988
20
-8.9948379999999997
11
9.3934819999999988
21
-8.9948379999999997
0
LINE
8
BLACK
6
CONTINUOUS
10
9.3934819999999988
20
-8.9948379999999997
11
9.2030060000000002
21
-8.8995999999999995
0
LINE
8
BLACK
6
CONTINUOUS
10
9.2030060000000002
20
-8.8995999999999995
11
9.1077680000000001
21
-8.7091229999999999
0
LINE
8
BLACK
6
CONTINUOUS
10
9.1077680000000001
20
-8.7091229999999999
11
9.1077680000000001
21
-8.5186469999999996
0
LINE
8
BLACK
6
CONTINUOUS
10
9.1077680000000001
20
-8.5186469999999996
11
9.2030060000000002
21
-8.3281709999999993
0
LINE
8
BLACK
6
CONTINUOUS
10
9.2030060000000002
20
-8.3281709999999993
11
9.3934819999999988
21
-8.2329329999999992
0
LINE
8
BLACK
6
CONTINUOUS
10
9.3934819999999988
20
-8.2329329999999992
11
9.8696729999999988
21
-8.2329329999999992
0
LINE
8
BLACK
6
CONTINUOUS
10
9.8696729999999988
20
-8.2329329999999992
11
10.0601489999999991
21
-8.137694999999999
0
LINE
8
BLACK
6
CONTINUOUS
10
11.0125299999999999
20
-7.6615039999999999
11
11.0125299999999999
21
-9.661503999999999
0
LINE
8
BLACK
6
CONTINUOUS
10
11.0125299999999999
20
-7.756742
11
11.2030060000000002
21
-7.6615039999999999
0
LINE
8
BLACK
6
CONTINUOUS
10
11.2030060000000002
20
-7.6615039999999999
11
11.5839590000000001
21
-7.6615039999999999
0
LINE
8
BLACK
6
CONTINUOUS
10
11.5839590000000001
20
-7.6615039999999999
11
11.7744349999999987
21
-7.756742
0
LINE
8
BLACK
6
CONTINUOUS
10
11.7744349999999987
20
-7.756742
11
11.8696729999999988
21
-7.8519799999999993
0
LINE
8
BLACK
6
CONTINUOUS
10
11.8696729999999988
20
-7.8519799999999993
11
11.964910999999999
21
-8.0424569999999989
0
LINE
8
BLACK
6
CONTINUOUS
10
11.964910999999999
20
-8.0424569999999989
11
11.964910999999999
21
-8.6138849999999998
0
LINE
8
BLACK
6
CONTINUOUS
10
11.964910999999999
20
-8.6138849999999998
11
11.8696729999999988
21
-8.8043610000000001
0
LINE
8
BLACK
6
CONTINUOUS
10
11.8696729999999988
20
-8.8043610000000001
11
11.7744349999999987
21
-8.8995999999999995
0
LINE
8
BLACK
6
CONTINUOUS
10
11.7744349999999987
20
-8.8995999999999995
11
11.5839590000000001
21
-8.9948379999999997
0
LINE
8
BLACK
6
CONTINUOUS
10
11.5839590000000001
20
-8.9948379999999997
11
11.2030060000000002
21
-8.9948379999999997
0
LINE
8
BLACK
6
CONTINUOUS
10
11.2030060000000002
20
-8.9948379999999997
11
11.0125299999999999
21
-8.8995999999999995
0
LINE
8
BLACK
6
CONTINUOUS
10
12.8220539999999996
20
-8.8043610000000001
11
12.9172919999999998
21
-8.8995999999999995
0
LINE
8
BLACK
6
CONTINUOUS
10
12.9172919999999998
20
-8.8995999999999995
11
12.8220539999999996
21
-8.9948379999999997
0
LINE
8
BLACK
6
CONTINUOUS
10
12.8220539999999996
20
-8.9948379999999997
11
12.7268159999999995
21
-8.8995999999999995
0
LINE
8
BLACK
6
CONTINUOUS
10
12.7268159999999995
20
-8.8995999999999995
11
12.8220539999999996
21
-8.8043610000000001
0
LINE
8
BLACK
6
CONTINUOUS
10
12.8220539999999996
20
-8.8043610000000001
11
12.8220539999999996
21
-8.9948379999999997
0
LINE
8
BLACK
6
CONTINUOUS
10
12.8220539999999996
20
-7.756742
11
12.9172919999999998
21
-7.8519799999999993
0
LINE
8
BLACK
6
CONTINUOUS
10
12.9172919999999998
20
-7.8519799999999993
11
12.8220539999999996
21
-7.9472189999999996
0
LINE
8
BLACK
6
CONTINUOUS
10
12.8220539999999996
20
-7.9472189999999996
11
12.7268159999999995
21
-7.8519799999999993
0
LINE
8
BLACK
6
CONTINUOUS
10
12.7268159999999995
20
-7.8519799999999993
11
12.8220539999999996
21
-7.756742
0
LINE
8
BLACK
6
CONTINUOUS
10
12.8220539999999996
20
-7.756742
11
12.8220539999999996
21
-7.9472189999999996
0
LINE
8
BLACK
6
CONTINUOUS
10
-5.5
20
-11.2799999999999994
11
-3.5
21
-13.2799999999999994
0
LINE
8
BLACK
6
CONTINUOUS
10
-3.5
20
-11.2799999999999994
11
-5.5
21
-13.2799999999999994
0
LINE
8
BLACK
6
CONTINUOUS
10
-1.0827069999999999
20
-11.194837999999999
11
0.155387
21
-11.194837999999999
0
LINE
8
BLACK
6
CONTINUOUS
10
0.155387
20
-11.194837999999999
11
-0.5112789999999999
21
-11.9567420000000002
0
LINE
8
BLACK
6
CONTINUOUS
10
-0.5112789999999999
20
-11.9567420000000002
11
-0.225564
21
-11.9567420000000002
0
LINE
8
BLACK
6
CONTINUOUS
10
-0.225564
20
-11.9567420000000002
11
-0.035088
21
-12.0519799999999986
0
LINE
8
BLACK
6
CONTINUOUS
10
-0.035088
20
-12.0519799999999986
11
0.060149
21
-12.1472189999999998
0
LINE
8
BLACK
6
CONTINUOUS
10
0.060149
20
-12.1472189999999998
11
0.155387
21
-12.3376950000000001
0
LINE
8
BLACK
6
CONTINUOUS
10
0.155387
20
-12.3376950000000001
11
0.155387
21
-12.8138849999999991
0
LINE
8
BLACK
6
CONTINUOUS
10
0.155387
20
-12.8138849999999991
11
0.060149
21
-13.0043609999999994
0
LINE
8
BLACK
6
CONTINUOUS
10
0.060149
20
-13.0043609999999994
11
-0.035088
21
-13.0995999999999988
0
LINE
8
BLACK
6
CONTINUOUS
10
-0.035088
20
-13.0995999999999988
11
-0.225564
21
-13.194837999999999
0
LINE
8
BLACK
6
CONTINUOUS
10
-0.225564
20
-13.194837999999999
11
-0.796993
21
-13.194837999999999
0
LINE
8
BLACK
6
CONTINUOUS
10
-0.796993
20
-13.194837999999999
11
-0.9874689999999999
21
-13.0995999999999988
0
LINE
8
BLACK
6
CONTINUOUS
10
-0.9874689999999999
20
-13.0995999999999988
11
-1.0827069999999999
21
-13.0043609999999994
0
LINE
8
BLACK
6
CONTINUOUS
10
1.0125299999999999
20
-13.0043609999999994
11
1.1077679999999999
21
-13.0995999999999988
0
LINE
8
BLACK
6
CONTINUOUS
10
1.1077679999999999
20
-13.0995999999999988
11
1.0125299999999999
21
-13.194837999999999
0
LINE
8
BLACK
6
CONTINUOUS
10
1.0125299999999999
20
-13.194837999999999
11
0.917292
21
-13.0995999999999988
0
LINE
8
BLACK
6
CONTINUOUS
10
0.917292
20
-13.0995999999999988
11
1.0125299999999999
21
-13.0043609999999994
0
LINE
8
BLACK
6
CONTINUOUS
10
1.0125299999999999
20
-13.0043609999999994
11
1.0125299999999999
21
-13.194837999999999
0
LINE
8
BLACK
6
CONTINUOUS
10
1.8696729999999999
20
-11.3853139999999993
11
1.9649109999999999
21
-11.2900759999999991
0
LINE
8
BLACK
6
CONTINUOUS
10
1.9649109999999999
20
-11.2900759999999991
11
2.1553869999999997
21
-11.194837999999999
0
LINE
8
BLACK
6
CONTINUOUS
10
2.1553869999999997
20
-11.194837999999999
11
2.6315779999999998
21
-11.194837999999999
0
LINE
8
BLACK
6
CONTINUOUS
10
2.6315779999999998
20
-11.194837999999999
11
2.8220540000000001
21
-11.2900759999999991
0
LINE
8
BLACK
6
CONTINUOUS
10
2.8220540000000001
20
-11.2900759999999991
11
2.9172919999999998
21
-11.3853139999999993
0
LINE
8
BLACK
6
CONTINUOUS
10
2.9172919999999998
20
-11.3853139999999993
11
3.0125299999999999
21
-11.5757899999999996
0
LINE
8
BLACK
6
CONTINUOUS
10
3.0125299999999999
20
-11.5757899999999996
11
3.0125299999999999
21
-11.7662659999999999
0
LINE
8
BLACK
6
CONTINUOUS
10
3.0125299999999999
20
-11.7662659999999999
11
2.9172919999999998
21
-12.0519799999999986
0
LINE
8
BLACK
6
CONTINUOUS
10
2.9172919999999998
20
-12.0519799999999986
11
1.774435
21
-13.194837999999999
0
LINE
8
BLACK
6
CONTINUOUS
10
1.774435
20
-13.194837999999999
11
3.0125299999999999
21
-13.194837999999999
0
LINE
8
BLACK
6
CONTINUOUS
10
4.2506249999999994
20
-11.194837999999999
11
4.4411019999999999
21
-11.194837999999999
0
LINE
8
BLACK
6
CONTINUOUS
10
4.4411019999999999
20
-11.194837999999999
11
4.6315780000000002
21
-11.2900759999999991
0
LINE
8
BLACK
6
CONTINUOUS
10
4.6315780000000002
20
-11.2900759999999991
11
4.7268159999999995
21
-11.3853139999999993
0
LINE
8
BLACK
6
CONTINUOUS
10
4.7268159999999995
20
-11.3853139999999993
11
4.8220539999999996
21
-11.5757899999999996
0
LINE
8
BLACK
6
CONTINUOUS
10
4.8220539999999996
20
-11.5757899999999996
11
4.9172919999999998
21
-11.9567420000000002
0
LINE
8
BLACK
6
CONTINUOUS
10
4.9172919999999998
20
-11.9567420000000002
11
4.9172919999999998
21
-12.4329330000000002
0
LINE
8
BLACK
6
CONTINUOUS
10
4.9172919999999998
20
-12.4329330000000002
11
4.8220539999999996
21
-12.8138849999999991
0
LINE
8
BLACK
6
CONTINUOUS
10
4.8220539999999996
20
-12.8138849999999991
11
4.7268159999999995
21
-13.0043609999999994
0
LINE
8
BLACK
6
CONTINUOUS
10
4.7268159999999995
20
-13.0043609999999994
11
4.6315780000000002
21
-13.0995999999999988
0
LINE
8
BLACK
6
CONTINUOUS
10
4.6315780000000002
20
-13.0995999999999988
11
4.4411019999999999
21
-13.194837999999999
0
LINE
8
BLACK
6
CONTINUOUS
10
4.4411019999999999
20
-13.194837999999999
11
4.2506249999999994
21
-13.194837999999999
0
LINE
8
BLACK
6
CONTINUOUS
10
4.2506249999999994
20
-13.194837999999999
11
4.060149
21
-13.0995999999999988
0
LINE
8
BLACK
6
CONTINUOUS
10
4.060149
20
-13.0995999999999988
11
3.9649109999999999
21
-13.0043609999999994
0
LINE
8
BLACK
6
CONTINUOUS
10
3.9649109999999999
20
-13.0043609999999994
11
3.8696729999999997
21
-12.8138849999999991
0
LINE
8
BLACK
6
CONTINUOUS
10
3.8696729999999997
20
-12.8138849999999991
11
3.774435
21
-12.4329330000000002
0
LINE
8
BLACK
6
CONTINUOUS
10
3.774435
20
-12.4329330000000002
11
3.774435
21
-11.9567420000000002
0
LINE
8
BLACK
6
CONTINUOUS
10
3.774435
20
-11.9567420000000002
11
3.8696729999999997
21
-11.5757899999999996
0
LINE
8
BLACK
6
CONTINUOUS
10
3.8696729999999997
20
-11.5757899999999996
11
3.9649109999999999
21
-11.3853139999999993
0
LINE
8
BLACK
6
CONTINUOUS
10
3.9649109999999999
20
-11.3853139999999993
11
4.060149
21
-11.2900759999999991
0
LINE
8
BLACK
6
CONTINUOUS
10
4.060149
20
-11.2900759999999991
11
4.2506249999999994
21
-11.194837999999999
0
LINE
8
BLACK
6
CONTINUOUS
10
6.1553870000000002
20
-11.194837999999999
11
6.3458639999999997
21
-11.194837999999999
0
LINE
8
BLACK
6
CONTINUOUS
10
6.3458639999999997
20
-11.194837999999999
11
6.53634
21
-11.2900759999999991
0
LINE
8
BLACK
6
CONTINUOUS
10
6.53634
20
-11.2900759999999991
11
6.6315779999999993
21
-11.3853139999999993
0
LINE
8
BLACK
6
CONTINUOUS
10
6.6315779999999993
20
-11.3853139999999993
11
6.7268159999999995
21
-11.5757899999999996
0
LINE
8
BLACK
6
CONTINUOUS
10
6.7268159999999995
20
-11.5757899999999996
11
6.8220539999999996
21
-11.9567420000000002
0
LINE
8
BLACK
6
CONTINUOUS
10
6.8220539999999996
20
-11.9567420000000002
11
6.8220539999999996
21
-12.4329330000000002
0
LINE
8
BLACK
6
CONTINUOUS
10
6.8220539999999996
20
-12.4329330000000002
11
6.7268159999999995
21
-12.8138849999999991
0
LINE
8
BLACK
6
CONTINUOUS
10
6.7268159999999995
20
-12.8138849999999991
11
6.6315779999999993
21
-13.0043609999999994
0
LINE
8
BLACK
6
CONTINUOUS
10
6.6315779999999993
20
-13.0043609999999994
11
6.53634
21
-13.0995999999999988
0
LINE
8
BLACK
6
CONTINUOUS
10
6.53634
20
-13.0995999999999988
11
6.3458639999999997
21
-13.194837999999999
0
LINE
8
BLACK
6
CONTINUOUS
10
6.3458639999999997
20
-13.194837999999999
11
6.1553870000000002
21
-13.194837999999999
0
LINE
8
BLACK
6
CONTINUOUS
10
6.1553870000000002
20
-13.194837999999999
11
5.9649109999999999
21
-13.0995999999999988
0
LINE
8
BLACK
6
CONTINUOUS
10
5.9649109999999999
20
-13.0995999999999988
11
5.8696729999999997
21
-13.0043609999999994
0
LINE
8
BLACK
6
CONTINUOUS
10
5.8696729999999997
20
-13.0043609999999994
11
5.7744349999999995
21
-12.8138849999999991
0
LINE
8
BLACK
6
CONTINUOUS
10
5.7744349999999995
20
-12.8138849999999991
11
5.6791969999999994
21
-12.4329330000000002
0
LINE
8
BLACK
6
CONTINUOUS
10
5.6791969999999994
20
-12.4329330000000002
11
5.6791969999999994
21
-11.9567420000000002
0
LINE
8
BLACK
6
CONTINUOUS
10
5.6791969999999994
20
-11.9567420000000002
11
5.7744349999999995
21
-11.5757899999999996
0
LINE
8
BLACK
6
CONTINUOUS
10
5.7744349999999995
20
-11.5757899999999996
11
5.8696729999999997
21
-11.3853139999999993
0
LINE
8
BLACK
6
CONTINUOUS
10
5.8696729999999997
20
-11.3853139999999993
11
5.9649109999999999
21
-11.2900759999999991
0
LINE
8
BLACK
6
CONTINUOUS
10
5.9649109999999999
20
-11.2900759999999991
11
6.1553870000000002
21
-11.194837999999999
0
LINE
8
BLACK
6
CONTINUOUS
10
7.6791969999999994
20
-13.194837999999999
11
7.6791969999999994
21
-11.861504
0
LINE
8
BLACK
6
CONTINUOUS
10
7.6791969999999994
20
-12.0519799999999986
11
7.7744349999999995
21
-11.9567420000000002
0
LINE
8
BLACK
6
CONTINUOUS
10
7.7744349999999995
20
-11.9567420000000002
11
7.9649109999999999
21
-11.861504
0
LINE
8
BLACK
6
CONTINUOUS
10
7.9649109999999999
20
-11.861504
11
8.2506260000000005
21
-11.861504
0
LINE
8
BLACK
6
CONTINUOUS
10
8.2506260000000005
20
-11.861504
11
8.441101999999999
21
-11.9567420000000002
0
LINE
8
BLACK
6
CONTINUOUS
10
8.441101999999999
20
-11.9567420000000002
11
8.5363399999999992
21
-12.1472189999999998
0
LINE
8
BLACK
6
CONTINUOUS
10
8.5363399999999992
20
-12.1472189999999998
11
8.5363399999999992
21
-13.194837999999999
0
LINE
8
BLACK
6
CONTINUOUS
10
8.5363399999999992
20
-12.1472189999999998
11
8.6315779999999993
21
-11.9567420000000002
0
LINE
8
BLACK
6
CONTINUOUS
10
8.6315779999999993
20
-11.9567420000000002
11
8.8220539999999996
21
-11.861504
0
LINE
8
BLACK
6
CONTINUOUS
10
8.8220539999999996
20
-11.861504
11
9.1077680000000001
21
-11.861504
0
LINE
8
BLACK
6
CONTINUOUS
10
9.1077680000000001
20
-11.861504
11
9.2982449999999996
21
-11.9567420000000002
0
LINE
8
BLACK
6
CONTINUOUS
10
9.2982449999999996
20
-11.9567420000000002
11
9.3934829999999998
21
-12.1472189999999998
0
LINE
8
BLACK
6
CONTINUOUS
10
9.3934829999999998
20
-12.1472189999999998
11
9.3934829999999998
21
-13.194837999999999
0
LINE
8
BLACK
6
CONTINUOUS
10
10.3458639999999988
20
-13.194837999999999
11
10.3458639999999988
21
-11.861504
0
LINE
8
BLACK
6
CONTINUOUS
10
10.3458639999999988
20
-12.0519799999999986
11
10.441101999999999
21
-11.9567420000000002
0
LINE
8
BLACK
6
CONTINUOUS
10
10.441101999999999
20
-11.9567420000000002
11
10.6315779999999993
21
-11.861504
0
LINE
8
BLACK
6
CONTINUOUS
10
10.6315779999999993
20
-11.861504
11
10.917292999999999
21
-11.861504
0
LINE
8
BLACK
6
CONTINUOUS
10
10.917292999999999
20
-11.861504
11
11.1077689999999993
21
-11.9567420000000002
0
LINE
8
BLACK
6
CONTINUOUS
10
11.1077689999999993
20
-11.9567420000000002
11
11.2030069999999995
21
-12.1472189999999998
0
LINE
8
BLACK
6
CONTINUOUS
10
11.2030069999999995
20
-12.1472189999999998
11
11.2030069999999995
21
-13.194837999999999
0
LINE
8
BLACK
6
CONTINUOUS
10
11.2030069999999995
20
-12.1472189999999998
11
11.2982449999999996
21
-11.9567420000000002
0
LINE
8
BLACK
6
CONTINUOUS
10
11.2982449999999996
20
-11.9567420000000002
11
11.488721
21
-11.861504
0
LINE
8
BLACK
6
CONTINUOUS
10
11.488721
20
-11.861504
11
11.7744349999999987
21
-11.861504
0
LINE
8
BLACK
6
CONTINUOUS
10
11.7744349999999987
20
-11.861504
11
11.964912
21
-11.9567420000000002
0
LINE
8
BLACK
6
CONTINUOUS
10
11.964912
20
-11.9567420000000002
11
12.0601500000000001
21
-12.1472189999999998
0
LINE
8
BLACK
6
CONTINUOUS
10
12.0601500000000001
20
-12.1472189999999998
11
12.0601500000000001
21
-13.194837999999999
0
LINE
8
BLACK
6
CONTINUOUS
10
15.964912
20
-11.0995999999999988
11
14.2506269999999997
21
-13.6710279999999997
0
LINE
8
BLACK
6
CONTINUOUS
10
18.5363410000000002
20
-11.194837999999999
11
18.726817999999998
21
-11.194837999999999
0
LINE
8
BLACK
6
CONTINUOUS
10
18.726817999999998
20
-11.194837999999999
11
18.9172939999999983
21
-11.2900759999999991
0
LINE
8
BLACK
6
CONTINUOUS
10
18.9172939999999983
20
-11.2900759999999991
11
19.0125320000000002
21
-11.3853139999999993
0
LINE
8
BLACK
6
CONTINUOUS
10
19.0125320000000002
20
-11.3853139999999993
11
19.1077699999999986
21
-11.5757899999999996
0
LINE
8
BLACK
6
CONTINUOUS
10
19.1077699999999986
20
-11.5757899999999996
11
19.2030080000000005
21
-11.9567420000000002
0
LINE
8
BLACK
6
CONTINUOUS
10
19.2030080000000005
20
-11.9567420000000002
11
19.2030080000000005
21
-12.4329330000000002
0
LINE
8
BLACK
6
CONTINUOUS
10
19.2030080000000005
20
-12.4329330000000002
11
19.1077699999999986
21
-12.8138849999999991
0
LINE
8
BLACK
6
CONTINUOUS
10
19.1077699999999986
20
-12.8138849999999991
11
19.0125320000000002
21
-13.0043609999999994
0
LINE
8
BLACK
6
CONTINUOUS
10
19.0125320000000002
20
-13.0043609999999994
11
18.9172939999999983
21
-13.0995999999999988
0
LINE
8
BLACK
6
CONTINUOUS
10
18.9172939999999983
20
-13.0995999999999988
11
18.726817999999998
21
-13.194837999999999
0
LINE
8
BLACK
6
CONTINUOUS
10
18.726817999999998
20
-13.194837999999999
11
18.5363410000000002
21
-13.194837999999999
0
LINE
8
BLACK
6
CONTINUOUS
10
18.5363410000000002
20
-13.194837999999999
11
18.3458649999999999
21
-13.0995999999999988
0
LINE
8
BLACK
6
CONTINUOUS
10
18.3458649999999999
20
-13.0995999999999988
11
18.2506269999999979
21
-13.0043609999999994
0
LINE
8
BLACK
6
CONTINUOUS
10
18.2506269999999979
20
-13.0043609999999994
11
18.1553889999999996
21
-12.8138849999999991
0
LINE
8
BLACK
6
CONTINUOUS
10
18.1553889999999996
20
-12.8138849999999991
11
18.0601509999999976
21
-12.4329330000000002
0
LINE
8
BLACK
6
CONTINUOUS
10
18.0601509999999976
20
-12.4329330000000002
11
18.0601509999999976
21
-11.9567420000000002
0
LINE
8
BLACK
6
CONTINUOUS
10
18.0601509999999976
20
-11.9567420000000002
11
18.1553889999999996
21
-11.5757899999999996
0
LINE
8
BLACK
6
CONTINUOUS
10
18.1553889999999996
20
-11.5757899999999996
11
18.2506269999999979
21
-11.3853139999999993
0
LINE
8
BLACK
6
CONTINUOUS
10
18.2506269999999979
20
-11.3853139999999993
11
18.3458649999999999
21
-11.2900759999999991
0
LINE
8
BLACK
6
CONTINUOUS
10
18.3458649999999999
20
-11.2900759999999991
11
18.5363410000000002
21
-11.194837999999999
0
LINE
8
BLACK
6
CONTINUOUS
10
20.0601509999999976
20
-13.0043609999999994
11
20.1553889999999996
21
-13.0995999999999988
0
LINE
8
BLACK
6
CONTINUOUS
10
20.1553889999999996
20
-13.0995999999999988
11
20.0601509999999976
21
-13.194837999999999
0
LINE
8
BLACK
6
CONTINUOUS
10
20.0601509999999976
20
-13.194837999999999
11
19.9649129999999992
21
-13.0995999999999988
0
LINE
8
BLACK
6
CONTINUOUS
10
19.9649129999999992
20
-13.0995999999999988
11
20.0601509999999976
21
-13.0043609999999994
0
LINE
8
BLACK
6
CONTINUOUS
10
20.0601509999999976
20
-13.0043609999999994
11
20.0601509999999976
21
-13.194837999999999
0
LINE
8
BLACK
6
CONTINUOUS
10
22.0601509999999976
20
-13.194837999999999
11
20.9172939999999983
21
-13.194837999999999
0
LINE
8
BLACK
6
CONTINUOUS
10
21.4887219999999992
20
-13.194837999999999
11
21.4887219999999992
21
-11.194837999999999
0
LINE
8
BLACK
6
CONTINUOUS
10
21.4887219999999992
20
-11.194837999999999
11
21.2982459999999989
21
-11.4805519999999994
0
LINE
8
BLACK
6
CONTINUOUS
10
21.2982459999999989
20
-11.4805519999999994
11
21.1077699999999986
21
-11.6710279999999997
0
LINE
8
BLACK
6
CONTINUOUS
10
21.1077699999999986
20
-11.6710279999999997
11
20.9172939999999983
21
-11.7662659999999999
0
LINE
8
BLACK
6
CONTINUOUS
10
22.8220559999999999
20
-11.3853139999999993
11
22.9172939999999983
21
-11.2900759999999991
0
LINE
8
BLACK
6
CONTINUOUS
10
22.9172939999999983
20
-11.2900759999999991
11
23.1077699999999986
21
-11.194837999999999
0
LINE
8
BLACK
6
CONTINUOUS
10
23.1077699999999986
20
-11.194837999999999
11
23.5839609999999986
21
-11.194837999999999
0
LINE
8
BLACK
6
CONTINUOUS
10
23.5839609999999986
20
-11.194837999999999
11
23.7744369999999989
21
-11.2900759999999991
0
LINE
8
BLACK
6
CONTINUOUS
10
23.7744369999999989
20
-11.2900759999999991
11
23.8696749999999973
21
-11.3853139999999993
0
LINE
8
BLACK
6
CONTINUOUS
10
23.8696749999999973
20
-11.3853139999999993
11
23.9649129999999992
21
-11.5757899999999996
0
LINE
8
BLACK
6
CONTINUOUS
10
23.9649129999999992
20
-11.5757899999999996
11
23.9649129999999992
21
-11.7662659999999999
0
LINE
8
BLACK
6
CONTINUOUS
10
23.9649129999999992
20
-11.7662659999999999
11
23.8696749999999973
21
-12.0519799999999986
0
LINE
8
BLACK
6
CONTINUOUS
10
23.8696749999999973
20
-12.0519799999999986
11
22.726817999999998
21
-13.194837999999999
0
LINE
8
BLACK
6
CONTINUOUS
10
22.726817999999998
20
-13.194837999999999
11
23.9649129999999992
21
-13.194837999999999
0
LINE
8
BLACK
6
CONTINUOUS
10
25.6791990000000006
20
-11.194837999999999
11
25.2982459999999989
21
-11.194837999999999
0
LINE
8
BLACK
6
CONTINUOUS
10
25.2982459999999989
20
-11.194837999999999
11
25.1077699999999986
21
-11.2900759999999991
0
LINE
8
BLACK
6
CONTINUOUS
10
25.1077699999999986
20
-11.2900759999999991
11
25.0125320000000002
21
-11.3853139999999993
0
LINE
8
BLACK
6
CONTINUOUS
10
25.0125320000000002
20
-11.3853139999999993
11
24.8220559999999999
21
-11.6710279999999997
0
LINE
8
BLACK
6
CONTINUOUS
10
24.8220559999999999
20
-11.6710279999999997
11
24.726817999999998
21
-12.0519799999999986
0
LINE
8
BLACK
6
CONTINUOUS
10
24.726817999999998
20
-12.0519799999999986
11
24.726817999999998
21
-12.8138849999999991
0
LINE
8
BLACK
6
CONTINUOUS
10
24.726817999999998
20
-12.8138849999999991
11
24.8220559999999999
21
-13.0043609999999994
0
LINE
8
BLACK
6
CONTINUOUS
10
24.8220559999999999
20
-13.0043609999999994
11
24.9172939999999983
21
-13.0995999999999988
0
LINE
8
BLACK
6
CONTINUOUS
10
24.9172939999999983
20
-13.0995999999999988
11
25.1077699999999986
21
-13.194837999999999
0
LINE
8
BLACK
6
CONTINUOUS
10
25.1077699999999986
20
-13.194837999999999
11
25.4887230000000002
21
-13.194837999999999
0
LINE
8
BLACK
6
CONTINUOUS
10
25.4887230000000002
20
-13.194837999999999
11
25.6791990000000006
21
-13.0995999999999988
0
LINE
8
BLACK
6
CONTINUOUS
10
25.6791990000000006
20
-13.0995999999999988
11
25.7744369999999989
21
-13.0043609999999994
0
LINE
8
BLACK
6
CONTINUOUS
10
25.7744369999999989
20
-13.0043609999999994
11
25.8696749999999973
21
-12.8138849999999991
0
LINE
8
BLACK
6
CONTINUOUS
10
25.8696749999999973
20
-12.8138849999999991
11
25.8696749999999973
21
-12.3376950000000001
0
LINE
8
BLACK
6
CONTINUOUS
10
25.8696749999999973
20
-12.3376950000000001
11
25.7744369999999989
21
-12.1472189999999998
0
LINE
8
BLACK
6
CONTINUOUS
10
25.7744369999999989
20
-12.1472189999999998
11
25.6791990000000006
21
-12.0519799999999986
0
LINE
8
BLACK
6
CONTINUOUS
10
25.6791990000000006
20
-12.0519799999999986
11
25.4887230000000002
21
-11.9567420000000002
0
LINE
8
BLACK
6
CONTINUOUS
10
25.4887230000000002
20
-11.9567420000000002
11
25.1077699999999986
21
-11.9567420000000002
0
LINE
8
BLACK
6
CONTINUOUS
10
25.1077699999999986
20
-11.9567420000000002
11
24.9172939999999983
21
-12.0519799999999986
0
LINE
8
BLACK
6
CONTINUOUS
10
24.9172939999999983
20
-12.0519799999999986
11
24.8220559999999999
21
-12.1472189999999998
0
LINE
8
BLACK
6
CONTINUOUS
10
24.8220559999999999
20
-12.1472189999999998
11
24.726817999999998
21
-12.3376950000000001
0
LINE
8
BLACK
6
CONTINUOUS
10
27.1077699999999986
20
-11.194837999999999
11
27.2982469999999999
21
-11.194837999999999
0
LINE
8
BLACK
6
CONTINUOUS
10
27.2982469999999999
20
-11.194837999999999
11
27.4887230000000002
21
-11.2900759999999991
0
LINE
8
BLACK
6
CONTINUOUS
10
27.4887230000000002
20
-11.2900759999999991
11
27.5839609999999986
21
-11.3853139999999993
0
LINE
8
BLACK
6
CONTINUOUS
10
27.5839609999999986
20
-11.3853139999999993
11
27.679198999999997
21
-11.5757899999999996
0
LINE
8
BLACK
6
CONTINUOUS
10
27.679198999999997
20
-11.5757899999999996
11
27.7744369999999989
21
-11.9567420000000002
0
LINE
8
BLACK
6
CONTINUOUS
10
27.7744369999999989
20
-11.9567420000000002
11
27.7744369999999989
21
-12.4329330000000002
0
LINE
8
BLACK
6
CONTINUOUS
10
27.7744369999999989
20
-12.4329330000000002
11
27.679198999999997
21
-12.8138849999999991
0
LINE
8
BLACK
6
CONTINUOUS
10
27.679198999999997
20
-12.8138849999999991
11
27.5839609999999986
21
-13.0043609999999994
0
LINE
8
BLACK
6
CONTINUOUS
10
27.5839609999999986
20
-13.0043609999999994
11
27.4887230000000002
21
-13.0995999999999988
0
LINE
8
BLACK
6
CONTINUOUS
10
27.4887230000000002
20
-13.0995999999999988
11
27.2982469999999999
21
-13.194837999999999
0
LINE
8
BLACK
6
CONTINUOUS
10
27.2982469999999999
20
-13.194837999999999
11
27.1077699999999986
21
-13.194837999999999
0
LINE
8
BLACK
6
CONTINUOUS
10
27.1077699999999986
20
-13.194837999999999
11
26.9172939999999983
21
-13.0995999999999988
0
LINE
8
BLACK
6
CONTINUOUS
10
26.9172939999999983
20
-13.0995999999999988
11
26.8220559999999999
21
-13.0043609999999994
0
LINE
8
BLACK
6
CONTINUOUS
10
26.8220559999999999
20
-13.0043609999999994
11
26.726817999999998
21
-12.8138849999999991
0
LINE
8
BLACK
6
CONTINUOUS
10
26.726817999999998
20
-12.8138849999999991
11
26.6315799999999996
21
-12.4329330000000002
0
LINE
8
BLACK
6
CONTINUOUS
10
26.6315799999999996
20
-12.4329330000000002
11
26.6315799999999996
21
-11.9567420000000002
0
LINE
8
BLACK
6
CONTINUOUS
10
26.6315799999999996
20
-11.9567420000000002
11
26.726817999999998
21
-11.5757899999999996
0
LINE
8
BLACK
6
CONTINUOUS
10
26.726817999999998
20
-11.5757899999999996
11
26.8220559999999999
21
-11.3853139999999993
0
LINE
8
BLACK
6
CONTINUOUS
10
26.8220559999999999
20
-11.3853139999999993
11
26.9172939999999983
21
-11.2900759999999991
0
LINE
8
BLACK
6
CONTINUOUS
10
26.9172939999999983
20
-11.2900759999999991
11
27.1077699999999986
21
-11.194837999999999
0
LINE
8
BLACK
6
CONTINUOUS
10
28.5363419999999977
20
-11.194837999999999
11
28.5363419999999977
21
-11.5757899999999996
0
LINE
8
BLACK
6
CONTINUOUS
10
29.2982469999999999
20
-11.194837999999999
11
29.2982469999999999
21
-11.5757899999999996
0
LINE
8
BLACK
6
CONTINUOUS
10
32.2506289999999964
20
-13.9567420000000002
11
32.155389999999997
21
-13.861504
0
LINE
8
BLACK
6
CONTINUOUS
10
32.155389999999997
20
-13.861504
11
31.9649140000000003
21
-13.5757899999999996
0
LINE
8
BLACK
6
CONTINUOUS
10
31.9649140000000003
20
-13.5757899999999996
11
31.8696759999999983
21
-13.3853139999999993
0
LINE
8
BLACK
6
CONTINUOUS
10
31.8696759999999983
20
-13.3853139999999993
11
31.774438
21
-13.0995999999999988
0
LINE
8
BLACK
6
CONTINUOUS
10
31.774438
20
-13.0995999999999988
11
31.679199999999998
21
-12.6234089999999988
0
LINE
8
BLACK
6
CONTINUOUS
10
31.679199999999998
20
-12.6234089999999988
11
31.679199999999998
21
-12.2424569999999999
0
LINE
8
BLACK
6
CONTINUOUS
10
31.679199999999998
20
-12.2424569999999999
11
31.774438
21
-11.7662659999999999
0
LINE
8
BLACK
6
CONTINUOUS
10
31.774438
20
-11.7662659999999999
11
31.8696759999999983
21
-11.4805519999999994
0
LINE
8
BLACK
6
CONTINUOUS
10
31.8696759999999983
20
-11.4805519999999994
11
31.9649140000000003
21
-11.2900759999999991
0
LINE
8
BLACK
6
CONTINUOUS
10
31.9649140000000003
20
-11.2900759999999991
11
32.155389999999997
21
-11.0043609999999994
0
LINE
8
BLACK
6
CONTINUOUS
10
32.155389999999997
20
-11.0043609999999994
11
32.2506289999999964
21
-10.9091229999999992
0
LINE
8
BLACK
6
CONTINUOUS
10
33.8696759999999983
20
-11.861504
11
33.8696759999999983
21
-13.194837999999999
0
LINE
8
BLACK
6
CONTINUOUS
10
33.3934849999999983
20
-11.0995999999999988
11
32.9172949999999958
21
-12.5281709999999986
0
LINE
8
BLACK
6
CONTINUOUS
10
32.9172949999999958
20
-12.5281709999999986
11
34.155389999999997
21
-12.5281709999999986
0
LINE
8
BLACK
6
CONTINUOUS
10
36.4411050000000003
20
-13.194837999999999
11
36.4411050000000003
21
-11.194837999999999
0
LINE
8
BLACK
6
CONTINUOUS
10
37.298248000000001
20
-13.194837999999999
11
37.298248000000001
21
-12.1472189999999998
0
LINE
8
BLACK
6
CONTINUOUS
10
37.298248000000001
20
-12.1472189999999998
11
37.203009999999999
21
-11.9567420000000002
0
LINE
8
BLACK
6
CONTINUOUS
10
37.203009999999999
20
-11.9567420000000002
11
37.0125339999999952
21
-11.861504
0
LINE
8
BLACK
6
CONTINUOUS
10
37.0125339999999952
20
-11.861504
11
36.726818999999999
21
-11.861504
0
LINE
8
BLACK
6
CONTINUOUS
10
36.726818999999999
20
-11.861504
11
36.5363429999999951
21
-11.9567420000000002
0
LINE
8
BLACK
6
CONTINUOUS
10
36.5363429999999951
20
-11.9567420000000002
11
36.4411050000000003
21
-12.0519799999999986
0
LINE
8
BLACK
6
CONTINUOUS
10
38.5363429999999951
20
-13.194837999999999
11
38.3458669999999984
21
-13.0995999999999988
0
LINE
8
BLACK
6
CONTINUOUS
10
38.3458669999999984
20
-13.0995999999999988
11
38.2506289999999964
21
-13.0043609999999994
0
LINE
8
BLACK
6
CONTINUOUS
10
38.2506289999999964
20
-13.0043609999999994
11
38.1553910000000016
21
-12.8138849999999991
0
LINE
8
BLACK
6
CONTINUOUS
10
38.1553910000000016
20
-12.8138849999999991
11
38.1553910000000016
21
-12.2424569999999999
0
LINE
8
BLACK
6
CONTINUOUS
10
38.1553910000000016
20
-12.2424569999999999
11
38.2506289999999964
21
-12.0519799999999986
0
LINE
8
BLACK
6
CONTINUOUS
10
38.2506289999999964
20
-12.0519799999999986
11
38.3458669999999984
21
-11.9567420000000002
0
LINE
8
BLACK
6
CONTINUOUS
10
38.3458669999999984
20
-11.9567420000000002
11
38.5363429999999951
21
-11.861504
0
LINE
8
BLACK
6
CONTINUOUS
10
38.5363429999999951
20
-11.861504
11
38.8220579999999984
21
-11.861504
0
LINE
8
BLACK
6
CONTINUOUS
10
38.8220579999999984
20
-11.861504
11
39.0125339999999952
21
-11.9567420000000002
0
LINE
8
BLACK
6
CONTINUOUS
10
39.0125339999999952
20
-11.9567420000000002
11
39.1077719999999971
21
-12.0519799999999986
0
LINE
8
BLACK
6
CONTINUOUS
10
39.1077719999999971
20
-12.0519799999999986
11
39.203009999999999
21
-12.2424569999999999
0
LINE
8
BLACK
6
CONTINUOUS
10
39.203009999999999
20
-12.2424569999999999
11
39.203009999999999
21
-12.8138849999999991
0
LINE
8
BLACK
6
CONTINUOUS
10
39.203009999999999
20
-12.8138849999999991
11
39.1077719999999971
21
-13.0043609999999994
0
LINE
8
BLACK
6
CONTINUOUS
10
39.1077719999999971
20
-13.0043609999999994
11
39.0125339999999952
21
-13.0995999999999988
0
LINE
8
BLACK
6
CONTINUOUS
10
39.0125339999999952
20
-13.0995999999999988
11
38.8220579999999984
21
-13.194837999999999
0
LINE
8
BLACK
6
CONTINUOUS
10
38.8220579999999984
20
-13.194837999999999
11
38.5363429999999951
21
-13.194837999999999
0
LINE
8
BLACK
6
CONTINUOUS
10
40.3458669999999984
20
-13.194837999999999
11
40.1553910000000016
21
-13.0995999999999988
0
LINE
8
BLACK
6
CONTINUOUS
10
40.1553910000000016
20
-13.0995999999999988
11
40.0601529999999997
21
-12.9091229999999992
0
LINE
8
BLACK
6
CONTINUOUS
10
40.0601529999999997
20
-12.9091229999999992
11
40.0601529999999997
21
-11.194837999999999
0
LINE
8
BLACK
6
CONTINUOUS
10
41.8696769999999958
20
-13.0995999999999988
11
41.6792009999999991
21
-13.194837999999999
0
LINE
8
BLACK
6
CONTINUOUS
10
41.6792009999999991
20
-13.194837999999999
11
41.298248000000001
21
-13.194837999999999
0
LINE
8
BLACK
6
CONTINUOUS
10
41.298248000000001
20
-13.194837999999999
11
41.1077719999999971
21
-13.0995999999999988
0
LINE
8
BLACK
6
CONTINUOUS
10
41.1077719999999971
20
-13.0995999999999988
11
41.0125339999999952
21
-12.9091229999999992
0
LINE
8
BLACK
6
CONTINUOUS
10
41.0125339999999952
20
-12.9091229999999992
11
41.0125339999999952
21
-12.1472189999999998
0
LINE
8
BLACK
6
CONTINUOUS
10
41.0125339999999952
20
-12.1472189999999998
11
41.1077719999999971
21
-11.9567420000000002
0
LINE
8
BLACK
6
CONTINUOUS
10
41.1077719999999971
20
-11.9567420000000002
11
41.298248000000001
21
-11.861504
0
LINE
8
BLACK
6
CONTINUOUS
10
41.298248000000001
20
-11.861504
11
41.6792009999999991
21
-11.861504
0
LINE
8
BLACK
6
CONTINUOUS
10
41.6792009999999991
20
-11.861504
11
41.8696769999999958
21
-11.9567420000000002
0
LINE
8
BLACK
6
CONTINUOUS
10
41.8696769999999958
20
-11.9567420000000002
11
41.9649149999999977
21
-12.1472189999999998
0
LINE
8
BLACK
6
CONTINUOUS
10
41.9649149999999977
20
-12.1472189999999998
11
41.9649149999999977
21
-12.3376950000000001
0
LINE
8
BLACK
6
CONTINUOUS
10
41.9649149999999977
20
-12.3376950000000001
11
41.0125339999999952
21
-12.5281709999999986
0
LINE
8
BLACK
6
CONTINUOUS
10
42.7268199999999965
20
-13.0995999999999988
11
42.9172960000000003
21
-13.194837999999999
0
LINE
8
BLACK
6
CONTINUOUS
10
42.9172960000000003
20
-13.194837999999999
11
43.298248000000001
21
-13.194837999999999
0
LINE
8
BLACK
6
CONTINUOUS
10
43.298248000000001
20
-13.194837999999999
11
43.4887249999999952
21
-13.0995999999999988
0
LINE
8
BLACK
6
CONTINUOUS
10
43.4887249999999952
20
-13.0995999999999988
11
43.5839629999999971
21
-12.9091229999999992
0
LINE
8
BLACK
6
CONTINUOUS
10
43.5839629999999971
20
-12.9091229999999992
11
43.5839629999999971
21
-12.8138849999999991
0
LINE
8
BLACK
6
CONTINUOUS
10
43.5839629999999971
20
-12.8138849999999991
11
43.4887249999999952
21
-12.6234089999999988
0
LINE
8
BLACK
6
CONTINUOUS
10
43.4887249999999952
20
-12.6234089999999988
11
43.298248000000001
21
-12.5281709999999986
0
LINE
8
BLACK
6
CONTINUOUS
10
43.298248000000001
20
-12.5281709999999986
11
43.0125339999999952
21
-12.5281709999999986
0
LINE
8
BLACK
6
CONTINUOUS
10
43.0125339999999952
20
-12.5281709999999986
11
42.8220579999999984
21
-12.4329330000000002
0
LINE
8
BLACK
6
CONTINUOUS
10
42.8220579999999984
20
-12.4329330000000002
11
42.7268199999999965
21
-12.2424569999999999
0
LINE
8
BLACK
6
CONTINUOUS
10
42.7268199999999965
20
-12.2424569999999999
11
42.7268199999999965
21
-12.1472189999999998
0
LINE
8
BLACK
6
CONTINUOUS
10
42.7268199999999965
20
-12.1472189999999998
11
42.8220579999999984
21
-11.9567420000000002
0
LINE
8
BLACK
6
CONTINUOUS
10
42.8220579999999984
20
-11.9567420000000002
11
43.0125339999999952
21
-11.861504
0
LINE
8
BLACK
6
CONTINUOUS
10
43.0125339999999952
20
-11.861504
11
43.298248000000001
21
-11.861504
0
LINE
8
BLACK
6
CONTINUOUS
10
43.298248000000001
20
-11.861504
11
43.4887249999999952
21
-11.9567420000000002
0
LINE
8
BLACK
6
CONTINUOUS
10
44.250630000000001
20
-13.9567420000000002
11
44.3458679999999958
21
-13.861504
0
LINE
8
BLACK
6
CONTINUOUS
10
44.3458679999999958
20
-13.861504
11
44.5363439999999997
21
-13.5757899999999996
0
LINE
8
BLACK
6
CONTINUOUS
10
44.5363439999999997
20
-13.5757899999999996
11
44.6315819999999945
21
-13.3853139999999993
0
LINE
8
BLACK
6
CONTINUOUS
10
44.6315819999999945
20
-13.3853139999999993
11
44.7268199999999965
21
-13.0995999999999988
0
LINE
8
BLACK
6
CONTINUOUS
10
44.7268199999999965
20
-13.0995999999999988
11
44.8220579999999984
21
-12.6234089999999988
0
LINE
8
BLACK
6
CONTINUOUS
10
44.8220579999999984
20
-12.6234089999999988
11
44.8220579999999984
21
-12.2424569999999999
0
LINE
8
BLACK
6
CONTINUOUS
10
44.8220579999999984
20
-12.2424569999999999
11
44.7268199999999965
21
-11.7662659999999999
0
LINE
8
BLACK
6
CONTINUOUS
10
44.7268199999999965
20
-11.7662659999999999
11
44.6315819999999945
21
-11.4805519999999994
0
LINE
8
BLACK
6
CONTINUOUS
10
44.6315819999999945
20
-11.4805519999999994
11
44.5363439999999997
21
-11.2900759999999991
0
LINE
8
BLACK
6
CONTINUOUS
10
44.5363439999999997
20
-11.2900759999999991
11
44.3458679999999958
21
-11.0043609999999994
0
LINE
8
BLACK
6
CONTINUOUS
10
44.3458679999999958
20
-11.0043609999999994
11
44.250630000000001
21
-10.9091229999999992
0
LINE
8
BLACK
6
CONTINUOUS
10
47.8696780000000004
20
-13.9567420000000002
11
47.774439000000001
21
-13.861504
0
LINE
8
BLACK
6
CONTINUOUS
10
47.774439000000001
20
-13.861504
11
47.5839629999999971
21
-13.5757899999999996
0
LINE
8
BLACK
6
CONTINUOUS
10
47.5839629999999971
20
-13.5757899999999996
11
47.4887249999999952
21
-13.3853139999999993
0
LINE
8
BLACK
6
CONTINUOUS
10
47.4887249999999952
20
-13.3853139999999993
11
47.3934870000000004
21
-13.0995999999999988
0
LINE
8
BLACK
6
CONTINUOUS
10
47.3934870000000004
20
-13.0995999999999988
11
47.2982489999999984
21
-12.6234089999999988
0
LINE
8
BLACK
6
CONTINUOUS
10
47.2982489999999984
20
-12.6234089999999988
11
47.2982489999999984
21
-12.2424569999999999
0
LINE
8
BLACK
6
CONTINUOUS
10
47.2982489999999984
20
-12.2424569999999999
11
47.3934870000000004
21
-11.7662659999999999
0
LINE
8
BLACK
6
CONTINUOUS
10
47.3934870000000004
20
-11.7662659999999999
11
47.4887249999999952
21
-11.4805519999999994
0
LINE
8
BLACK
6
CONTINUOUS
10
47.4887249999999952
20
-11.4805519999999994
11
47.5839629999999971
21
-11.2900759999999991
0
LINE
8
BLACK
6
CONTINUOUS
10
47.5839629999999971
20
-11.2900759999999991
11
47.774439000000001
21
-11.0043609999999994
0
LINE
8
BLACK
6
CONTINUOUS
10
47.774439000000001
20
-11.0043609999999994
11
47.8696780000000004
21
-10.9091229999999992
0
LINE
8
BLACK
6
CONTINUOUS
10
48.6315819999999945
20
-11.861504
11
48.6315819999999945
21
-13.194837999999999
0
LINE
8
BLACK
6
CONTINUOUS
10
48.6315819999999945
20
-12.0519799999999986
11
48.7268199999999965
21
-11.9567420000000002
0
LINE
8
BLACK
6
CONTINUOUS
10
48.7268199999999965
20
-11.9567420000000002
11
48.9172960000000003
21
-11.861504
0
LINE
8
BLACK
6
CONTINUOUS
10
48.9172960000000003
20
-11.861504
11
49.2030109999999965
21
-11.861504
0
LINE
8
BLACK
6
CONTINUOUS
10
49.2030109999999965
20
-11.861504
11
49.3934870000000004
21
-11.9567420000000002
0
LINE
8
BLACK
6
CONTINUOUS
10
49.3934870000000004
20
-11.9567420000000002
11
49.4887249999999952
21
-12.1472189999999998
0
LINE
8
BLACK
6
CONTINUOUS
10
49.4887249999999952
20
-12.1472189999999998
11
49.4887249999999952
21
-13.194837999999999
0
LINE
8
BLACK
6
CONTINUOUS
10
50.7268199999999965
20
-13.194837999999999
11
50.5363439999999997
21
-13.0995999999999988
0
LINE
8
BLACK
6
CONTINUOUS
10
50.5363439999999997
20
-13.0995999999999988
11
50.4411059999999978
21
-13.0043609999999994
0
LINE
8
BLACK
6
CONTINUOUS
10
50.4411059999999978
20
-13.0043609999999994
11
50.3458679999999958
21
-12.8138849999999991
0
LINE
8
BLACK
6
CONTINUOUS
10
50.3458679999999958
20
-12.8138849999999991
11
50.3458679999999958
21
-12.2424569999999999
0
LINE
8
BLACK
6
CONTINUOUS
10
50.3458679999999958
20
-12.2424569999999999
11
50.4411059999999978
21
-12.0519799999999986
0
LINE
8
BLACK
6
CONTINUOUS
10
50.4411059999999978
20
-12.0519799999999986
11
50.5363439999999997
21
-11.9567420000000002
0
LINE
8
BLACK
6
CONTINUOUS
10
50.5363439999999997
20
-11.9567420000000002
11
50.7268199999999965
21
-11.861504
0
LINE
8
BLACK
6
CONTINUOUS
10
50.7268199999999965
20
-11.861504
11
51.0125349999999997
21
-11.861504
0
LINE
8
BLACK
6
CONTINUOUS
10
51.0125349999999997
20
-11.861504
11
51.2030109999999965
21
-11.9567420000000002
0
LINE
8
BLACK
6
CONTINUOUS
10
51.2030109999999965
20
-11.9567420000000002
11
51.2982489999999984
21
-12.0519799999999986
0
LINE
8
BLACK
6
CONTINUOUS
10
51.2982489999999984
20
-12.0519799999999986
11
51.3934870000000004
21
-12.2424569999999999
0
LINE
8
BLACK
6
CONTINUOUS
10
51.3934870000000004
20
-12.2424569999999999
11
51.3934870000000004
21
-12.8138849999999991
0
LINE
8
BLACK
6
CONTINUOUS
10
51.3934870000000004
20
-12.8138849999999991
11
51.2982489999999984
21
-13.0043609999999994
0
LINE
8
BLACK
6
CONTINUOUS
10
51.2982489999999984
20
-13.0043609999999994
11
51.2030109999999965
21
-13.0995999999999988
0
LINE
8
BLACK
6
CONTINUOUS
10
51.2030109999999965
20
-13.0995999999999988
11
51.0125349999999997
21
-13.194837999999999
0
LINE
8
BLACK
6
CONTINUOUS
10
51.0125349999999997
20
-13.194837999999999
11
50.7268199999999965
21
-13.194837999999999
0
LINE
8
BLACK
6
CONTINUOUS
10
51.9649159999999952
20
-11.861504
11
52.7268199999999965
21
-11.861504
0
LINE
8
BLACK
6
CONTINUOUS
10
52.250630000000001
20
-11.194837999999999
11
52.250630000000001
21
-12.9091229999999992
0
LINE
8
BLACK
6
CONTINUOUS
10
52.250630000000001
20
-12.9091229999999992
11
52.3458679999999958
21
-13.0995999999999988
0
LINE
8
BLACK
6
CONTINUOUS
10
52.3458679999999958
20
-13.0995999999999988
11
52.5363439999999997
21
-13.194837999999999
0
LINE
8
BLACK
6
CONTINUOUS
10
52.5363439999999997
20
-13.194837999999999
11
52.7268199999999965
21
-13.194837999999999
0
LINE
8
BLACK
6
CONTINUOUS
10
54.9172969999999978
20
-11.861504
11
54.9172969999999978
21
-13.861504
0
LINE
8
BLACK
6
CONTINUOUS
10
54.9172969999999978
20
-11.9567420000000002
11
55.1077729999999946
21
-11.861504
0
LINE
8
BLACK
6
CONTINUOUS
10
55.1077729999999946
20
-11.861504
11
55.4887259999999998
21
-11.861504
0
LINE
8
BLACK
6
CONTINUOUS
10
55.4887259999999998
20
-11.861504
11
55.6792019999999965
21
-11.9567420000000002
0
LINE
8
BLACK
6
CONTINUOUS
10
55.6792019999999965
20
-11.9567420000000002
11
55.7744399999999985
21
-12.0519799999999986
0
LINE
8
BLACK
6
CONTINUOUS
10
55.7744399999999985
20
-12.0519799999999986
11
55.8696780000000004
21
-12.2424569999999999
0
LINE
8
BLACK
6
CONTINUOUS
10
55.8696780000000004
20
-12.2424569999999999
11
55.8696780000000004
21
-12.8138849999999991
0
LINE
8
BLACK
6
CONTINUOUS
10
55.8696780000000004
20
-12.8138849999999991
11
55.7744399999999985
21
-13.0043609999999994
0
LINE
8
BLACK
6
CONTINUOUS
10
55.7744399999999985
20
-13.0043609999999994
11
55.6792019999999965
21
-13.0995999999999988
0
LINE
8
BLACK
6
CONTINUOUS
10
55.6792019999999965
20
-13.0995999999999988
11
55.4887259999999998
21
-13.194837999999999
0
LINE
8
BLACK
6
CONTINUOUS
10
55.4887259999999998
20
-13.194837999999999
11
55.1077729999999946
21
-13.194837999999999
0
LINE
8
BLACK
6
CONTINUOUS
10
55.1077729999999946
20
-13.194837999999999
11
54.9172969999999978
21
-13.0995999999999988
0
LINE
8
BLACK
6
CONTINUOUS
10
57.0125349999999997
20
-13.194837999999999
11
56.8220589999999959
21
-13.0995999999999988
0
LINE
8
BLACK
6
CONTINUOUS
10
56.8220589999999959
20
-13.0995999999999988
11
56.7268209999999939
21
-12.9091229999999992
0
LINE
8
BLACK
6
CONTINUOUS
10
56.7268209999999939
20
-12.9091229999999992
11
56.7268209999999939
21
-11.194837999999999
0
LINE
8
BLACK
6
CONTINUOUS
10
58.6315829999999991
20
-13.194837999999999
11
58.6315829999999991
21
-12.1472189999999998
0
LINE
8
BLACK
6
CONTINUOUS
10
58.6315829999999991
20
-12.1472189999999998
11
58.5363449999999972
21
-11.9567420000000002
0
LINE
8
BLACK
6
CONTINUOUS
10
58.5363449999999972
20
-11.9567420000000002
11
58.3458690000000004
21
-11.861504
0
LINE
8
BLACK
6
CONTINUOUS
10
58.3458690000000004
20
-11.861504
11
57.9649159999999952
21
-11.861504
0
LINE
8
BLACK
6
CONTINUOUS
10
57.9649159999999952
20
-11.861504
11
57.7744399999999985
21
-11.9567420000000002
0
LINE
8
BLACK
6
CONTINUOUS
10
58.6315829999999991
20
-13.0995999999999988
11
58.4411069999999953
21
-13.194837999999999
0
LINE
8
BLACK
6
CONTINUOUS
10
58.4411069999999953
20
-13.194837999999999
11
57.9649159999999952
21
-13.194837999999999
0
LINE
8
BLACK
6
CONTINUOUS
10
57.9649159999999952
20
-13.194837999999999
11
57.7744399999999985
21
-13.0995999999999988
0
LINE
8
BLACK
6
CONTINUOUS
10
57.7744399999999985
20
-13.0995999999999988
11
57.6792019999999965
21
-12.9091229999999992
0
LINE
8
BLACK
6
CONTINUOUS
10
57.6792019999999965
20
-12.9091229999999992
11
57.6792019999999965
21
-12.7186469999999989
0
LINE
8
BLACK
6
CONTINUOUS
10
57.6792019999999965
20
-12.7186469999999989
11
57.7744399999999985
21
-12.5281709999999986
0
LINE
8
BLACK
6
CONTINUOUS
10
57.7744399999999985
20
-12.5281709999999986
11
57.9649159999999952
21
-12.4329330000000002
0
LINE
8
BLACK
6
CONTINUOUS
10
57.9649159999999952
20
-12.4329330000000002
11
58.4411069999999953
21
-12.4329330000000002
0
LINE
8
BLACK
6
CONTINUOUS
10
58.4411069999999953
20
-12.4329330000000002
11
58.6315829999999991
21
-12.3376950000000001
0
LINE
8
BLACK
6
CONTINUOUS
10
59.2982499999999959
20
-11.861504
11
60.0601539999999972
21
-11.861504
0
LINE
8
BLACK
6
CONTINUOUS
10
59.5839639999999946
20
-11.194837999999999
11
59.5839639999999946
21
-12.9091229999999992
0
LINE
8
BLACK
6
CONTINUOUS
10
59.5839639999999946
20
-12.9091229999999992
11
59.6792019999999965
21
-13.0995999999999988
0
LINE
8
BLACK
6
CONTINUOUS
10
59.6792019999999965
20
-13.0995999999999988
11
59.8696780000000004
21
-13.194837999999999
0
LINE
8
BLACK
6
CONTINUOUS
10
59.8696780000000004
20
-13.194837999999999
11
60.0601539999999972
21
-13.194837999999999
0
LINE
8
BLACK
6
CONTINUOUS
10
61.4887259999999998
20
-13.0995999999999988
11
61.2982499999999959
21
-13.194837999999999
0
LINE
8
BLACK
6
CONTINUOUS
10
61.2982499999999959
20
-13.194837999999999
11
60.9172969999999978
21
-13.194837999999999
0
LINE
8
BLACK
6
CONTINUOUS
10
60.9172969999999978
20
-13.194837999999999
11
60.7268209999999939
21
-13.0995999999999988
0
LINE
8
BLACK
6
CONTINUOUS
10
60.7268209999999939
20
-13.0995999999999988
11
60.6315829999999991
21
-12.9091229999999992
0
LINE
8
BLACK
6
CONTINUOUS
10
60.6315829999999991
20
-12.9091229999999992
11
60.6315829999999991
21
-12.1472189999999998
0
LINE
8
BLACK
6
CONTINUOUS
10
60.6315829999999991
20
-12.1472189999999998
11
60.7268209999999939
21
-11.9567420000000002
0
LINE
8
BLACK
6
CONTINUOUS
10
60.7268209999999939
20
-11.9567420000000002
11
60.9172969999999978
21
-11.861504
0
LINE
8
BLACK
6
CONTINUOUS
10
60.9172969999999978
20
-11.861504
11
61.2982499999999959
21
-11.861504
0
LINE
8
BLACK
6
CONTINUOUS
10
61.2982499999999959
20
-11.861504
11
61.4887259999999998
21
-11.9567420000000002
0
LINE
8
BLACK
6
CONTINUOUS
10
61.4887259999999998
20
-11.9567420000000002
11
61.5839639999999946
21
-12.1472189999999998
0
LINE
8
BLACK
6
CONTINUOUS
10
61.5839639999999946
20
-12.1472189999999998
11
61.5839639999999946
21
-12.3376950000000001
0
LINE
8
BLACK
6
CONTINUOUS
10
61.5839639999999946
20
-12.3376950000000001
11
60.6315829999999991
21
-12.5281709999999986
0
LINE
8
BLACK
6
CONTINUOUS
10
63.2982499999999959
20
-13.194837999999999
11
63.2982499999999959
21
-11.194837999999999
0
LINE
8
BLACK
6
CONTINUOUS
10
63.2982499999999959
20
-13.0995999999999988
11
63.1077739999999991
21
-13.194837999999999
0
LINE
8
BLACK
6
CONTINUOUS
10
63.1077739999999991
20
-13.194837999999999
11
62.7268209999999939
21
-13.194837999999999
0
LINE
8
BLACK
6
CONTINUOUS
10
62.7268209999999939
20
-13.194837999999999
11
62.5363449999999972
21
-13.0995999999999988
0
LINE
8
BLACK
6
CONTINUOUS
10
62.5363449999999972
20
-13.0995999999999988
11
62.4411069999999953
21
-13.0043609999999994
0
LINE
8
BLACK
6
CONTINUOUS
10
62.4411069999999953
20
-13.0043609999999994
11
62.3458690000000004
21
-12.8138849999999991
0
LINE
8
BLACK
6
CONTINUOUS
10
62.3458690000000004
20
-12.8138849999999991
11
62.3458690000000004
21
-12.2424569999999999
0
LINE
8
BLACK
6
CONTINUOUS
10
62.3458690000000004
20
-12.2424569999999999
11
62.4411069999999953
21
-12.0519799999999986
0
LINE
8
BLACK
6
CONTINUOUS
10
62.4411069999999953
20
-12.0519799999999986
11
62.5363449999999972
21
-11.9567420000000002
0
LINE
8
BLACK
6
CONTINUOUS
10
62.5363449999999972
20
-11.9567420000000002
11
62.7268209999999939
21
-11.861504
0
LINE
8
BLACK
6
CONTINUOUS
10
62.7268209999999939
20
-11.861504
11
63.1077739999999991
21
-11.861504
0
LINE
8
BLACK
6
CONTINUOUS
10
63.1077739999999991
20
-11.861504
11
63.2982499999999959
21
-11.9567420000000002
0
LINE
8
BLACK
6
CONTINUOUS
10
64.0601549999999946
20
-13.9567420000000002
11
64.1553930000000037
21
-13.861504
0
LINE
8
BLACK
6
CONTINUOUS
10
64.1553930000000037
20
-13.861504
11
64.3458689999999933
21
-13.5757899999999996
0
LINE
8
BLACK
6
CONTINUOUS
10
64.3458689999999933
20
-13.5757899999999996
11
64.4411070000000024
21
-13.3853139999999993
0
LINE
8
BLACK
6
CONTINUOUS
10
64.4411070000000024
20
-13.3853139999999993
11
64.5363449999999972
21
-13.0995999999999988
0
LINE
8
BLACK
6
CONTINUOUS
10
64.5363449999999972
20
-13.0995999999999988
11
64.631582999999992
21
-12.6234089999999988
0
LINE
8
BLACK
6
CONTINUOUS
10
64.631582999999992
20
-12.6234089999999988
11
64.631582999999992
21
-12.2424569999999999
0
LINE
8
BLACK
6
CONTINUOUS
10
64.631582999999992
20
-12.2424569999999999
11
64.5363449999999972
21
-11.7662659999999999
0
LINE
8
BLACK
6
CONTINUOUS
10
64.5363449999999972
20
-11.7662659999999999
11
64.4411070000000024
21
-11.4805519999999994
0
LINE
8
BLACK
6
CONTINUOUS
10
64.4411070000000024
20
-11.4805519999999994
11
64.3458689999999933
21
-11.2900759999999991
0
LINE
8
BLACK
6
CONTINUOUS
10
64.3458689999999933
20
-11.2900759999999991
11
64.1553930000000037
21
-11.0043609999999994
0
LINE
8
BLACK
6
CONTINUOUS
10
64.1553930000000037
20
-11.0043609999999994
11
64.0601549999999946
21
-10.9091229999999992
  0
ENDSEC
  0
EOF
