<?xml version="1.0" standalone="no"?>
 <!DOCTYPE svg PUBLIC "-//W3C//DTD SVG 1.1//EN" 
 "http://www.w3.org/Graphics/SVG/1.1/DTD/svg11.dtd"> 
<svg
  xmlns:svg="http://www.w3.org/2000/svg"
  xmlns="http://www.w3.org/2000/svg"
  xmlns:xlink="http://www.w3.org/1999/xlink"
  version="1.1"
  width="102.2350mm" height="79.7306mm" viewBox="0.0000 0.0000 102.2350 79.7306">
<title>SVG Image created as multimeter-F_Cu.svg date 2025/06/28 23:01:46 </title>
  <desc>Image generated by PCBNEW </desc>
<g style="fill:#000000; fill-opacity:1.0000;stroke:#000000; stroke-opacity:1.0000;
stroke-linecap:round; stroke-linejoin:round;"
 transform="translate(0 0) scale(1 1)">
<path style="fill:#000000; fill-opacity:1.0000; stroke:none;fill-rule:evenodd;"
d="M 55.9750,12.8500
57.4750,12.8500
57.4750,14.3500
55.9750,14.3500
Z" /> 
</g>
<g style="fill:#000000; fill-opacity:1.0000; stroke:none;">
<circle cx="56.7250" cy="16.1400" r="0.7500" /> 
</g>
<g style="fill:#000000; fill-opacity:1.0000; stroke:none;">
<circle cx="56.7250" cy="18.6800" r="0.7500" /> 
<path style="fill:#000000; fill-opacity:1.0000; stroke:none;fill-rule:evenodd;"
d="M 50.1200,27.7650
51.6200,27.7650
51.6200,29.2650
50.1200,29.2650
Z" /> 
</g>
<g style="fill:#000000; fill-opacity:1.0000; stroke:none;">
<circle cx="50.8700" cy="31.0550" r="0.7500" /> 
</g>
<g style="fill:#000000; fill-opacity:1.0000; stroke:none;">
<circle cx="50.8700" cy="33.5950" r="0.7500" /> 
<path style="fill:#000000; fill-opacity:1.0000; stroke:none;fill-rule:evenodd;"
d="M 49.9800,19.1000
51.4800,19.1000
51.4800,20.6000
49.9800,20.6000
Z" /> 
</g>
<g style="fill:#000000; fill-opacity:1.0000; stroke:none;">
<circle cx="50.7300" cy="22.3900" r="0.7500" /> 
</g>
<g style="fill:#000000; fill-opacity:1.0000; stroke:none;">
<circle cx="50.7300" cy="24.9300" r="0.7500" /> 
<path style="fill:#000000; fill-opacity:1.0000; stroke:none;fill-rule:evenodd;"
d="M 47.8700,55.9600
49.3700,55.9600
49.3700,57.4600
47.8700,57.4600
Z" /> 
</g>
<g style="fill:#000000; fill-opacity:1.0000; stroke:none;">
<circle cx="48.6200" cy="59.2500" r="0.7500" /> 
</g>
<g style="fill:#000000; fill-opacity:1.0000; stroke:none;">
<circle cx="48.6200" cy="61.7900" r="0.7500" /> 
<path style="fill:#000000; fill-opacity:1.0000; stroke:none;fill-rule:evenodd;"
d="M 42.6200,71.1000
44.1200,71.1000
44.1200,72.6000
42.6200,72.6000
Z" /> 
</g>
<g style="fill:#000000; fill-opacity:1.0000; stroke:none;">
<circle cx="43.3700" cy="74.3900" r="0.7500" /> 
</g>
<g style="fill:#000000; fill-opacity:1.0000; stroke:none;">
<circle cx="43.3700" cy="76.9300" r="0.7500" /> 
<path style="fill:#000000; fill-opacity:1.0000; stroke:none;fill-rule:evenodd;"
d="M 42.6200,62.4600
44.1200,62.4600
44.1200,63.9600
42.6200,63.9600
Z" /> 
</g>
<g style="fill:#000000; fill-opacity:1.0000; stroke:none;">
<circle cx="43.3700" cy="65.7500" r="0.7500" /> 
</g>
<g style="fill:#000000; fill-opacity:1.0000; stroke:none;">
<circle cx="43.3700" cy="68.2900" r="0.7500" /> 
<path style="fill:#000000; fill-opacity:1.0000; stroke:none;fill-rule:evenodd;"
d="M 70.1400,55.7300
71.6400,55.7300
71.6400,57.2300
70.1400,57.2300
Z" /> 
</g>
<g style="fill:#000000; fill-opacity:1.0000; stroke:none;">
<circle cx="70.8900" cy="59.0200" r="0.7500" /> 
</g>
<g style="fill:#000000; fill-opacity:1.0000; stroke:none;">
<circle cx="70.8900" cy="61.5600" r="0.7500" /> 
<path style="fill:#000000; fill-opacity:1.0000; stroke:none;fill-rule:evenodd;"
d="M 64.9750,71.6000
66.4750,71.6000
66.4750,73.1000
64.9750,73.1000
Z" /> 
</g>
<g style="fill:#000000; fill-opacity:1.0000; stroke:none;">
<circle cx="65.7250" cy="74.8900" r="0.7500" /> 
</g>
<g style="fill:#000000; fill-opacity:1.0000; stroke:none;">
<circle cx="65.7250" cy="77.4300" r="0.7500" /> 
<path style="fill:#000000; fill-opacity:1.0000; stroke:none;fill-rule:evenodd;"
d="M 65.0000,62.4600
66.5000,62.4600
66.5000,63.9600
65.0000,63.9600
Z" /> 
</g>
<g style="fill:#000000; fill-opacity:1.0000; stroke:none;">
<circle cx="65.7500" cy="65.7500" r="0.7500" /> 
</g>
<g style="fill:#000000; fill-opacity:1.0000; stroke:none;">
<circle cx="65.7500" cy="68.2900" r="0.7500" /> 
<path style="fill:#000000; fill-opacity:1.0000; stroke:none;fill-rule:evenodd;"
d="M 29.9750,20.3500
31.4750,20.3500
31.4750,21.8500
29.9750,21.8500
Z" /> 
</g>
<g style="fill:#000000; fill-opacity:1.0000; stroke:none;">
<circle cx="30.7250" cy="23.6400" r="0.7500" /> 
</g>
<g style="fill:#000000; fill-opacity:1.0000; stroke:none;">
<circle cx="30.7250" cy="26.1800" r="0.7500" /> 
<path style="fill:#000000; fill-opacity:1.0000; stroke:none;fill-rule:evenodd;"
d="M 24.7500,35.4600
26.2500,35.4600
26.2500,36.9600
24.7500,36.9600
Z" /> 
</g>
<g style="fill:#000000; fill-opacity:1.0000; stroke:none;">
<circle cx="25.5000" cy="38.7500" r="0.7500" /> 
</g>
<g style="fill:#000000; fill-opacity:1.0000; stroke:none;">
<circle cx="25.5000" cy="41.2900" r="0.7500" /> 
<path style="fill:#000000; fill-opacity:1.0000; stroke:none;fill-rule:evenodd;"
d="M 24.6750,26.9000
26.1750,26.9000
26.1750,28.4000
24.6750,28.4000
Z" /> 
</g>
<g style="fill:#000000; fill-opacity:1.0000; stroke:none;">
<circle cx="25.4250" cy="30.1900" r="0.7500" /> 
</g>
<g style="fill:#000000; fill-opacity:1.0000; stroke:none;">
<circle cx="25.4250" cy="32.7300" r="0.7500" /> 
<path style="fill:#000000; fill-opacity:1.0000; stroke:none;fill-rule:evenodd;"
d="M 25.3100,54.7300
26.8100,54.7300
26.8100,56.2300
25.3100,56.2300
Z" /> 
</g>
<g style="fill:#000000; fill-opacity:1.0000; stroke:none;">
<circle cx="26.0600" cy="58.0200" r="0.7500" /> 
</g>
<g style="fill:#000000; fill-opacity:1.0000; stroke:none;">
<circle cx="26.0600" cy="60.5600" r="0.7500" /> 
<path style="fill:#000000; fill-opacity:1.0000; stroke:none;fill-rule:evenodd;"
d="M 20.7250,70.6000
22.2250,70.6000
22.2250,72.1000
20.7250,72.1000
Z" /> 
</g>
<g style="fill:#000000; fill-opacity:1.0000; stroke:none;">
<circle cx="21.4750" cy="73.8900" r="0.7500" /> 
</g>
<g style="fill:#000000; fill-opacity:1.0000; stroke:none;">
<circle cx="21.4750" cy="76.4300" r="0.7500" /> 
<path style="fill:#000000; fill-opacity:1.0000; stroke:none;fill-rule:evenodd;"
d="M 20.5600,61.9800
22.0600,61.9800
22.0600,63.4800
20.5600,63.4800
Z" /> 
</g>
<g style="fill:#000000; fill-opacity:1.0000; stroke:none;">
<circle cx="21.3100" cy="65.2700" r="0.7500" /> 
</g>
<g style="fill:#000000; fill-opacity:1.0000; stroke:none;">
<circle cx="21.3100" cy="67.8100" r="0.7500" /> 
</g>
<g style="fill:#000000; fill-opacity:1.0000; stroke:none;">
<circle cx="76.5100" cy="45.5000" r="0.8000" /> 
</g>
<g style="fill:#000000; fill-opacity:1.0000; stroke:none;">
<circle cx="79.0500" cy="45.5000" r="0.8000" /> 
<path style="fill:#000000; fill-opacity:1.0000; stroke:none;fill-rule:evenodd;"
d="M 65.7175,18.0000
65.7175,16.0000
67.6225,16.0000
67.6225,18.0000
Z" /> 
</g>
<g style="fill:none; 
stroke:#000000; stroke-width:1.9050; stroke-opacity:1; 
stroke-linecap:round; stroke-linejoin:round;">
<path d="M69.2100 16.9525
L69.2100 17.0475
" />
<path d="M71.7500 16.9525
L71.7500 17.0475
" />
</g>
<g style="fill:#000000; fill-opacity:1.0000; stroke:none;">
<circle cx="15.1300" cy="52.2500" r="0.8000" /> 
</g>
<g style="fill:#000000; fill-opacity:1.0000; stroke:none;">
<circle cx="17.6700" cy="52.2500" r="0.8000" /> 
<circle cx="66.2100" cy="21.0550" r="0.8000" /> 
</g>
<g style="fill:#000000; fill-opacity:1.0000; stroke:none;">
<circle cx="66.2100" cy="23.5950" r="0.8000" /> 
<circle cx="34.8500" cy="70.5000" r="0.8000" /> 
</g>
<g style="fill:#000000; fill-opacity:1.0000; stroke:none;">
<circle cx="37.3900" cy="70.5000" r="0.8000" /> 
<path style="fill:#000000; fill-opacity:1.0000; stroke:none;fill-rule:evenodd;"
d="M 95.3600,23.3500
95.4557,23.3690
95.5368,23.4232
95.5910,23.5043
95.6100,23.6000
95.6100,25.9000
95.5910,25.9957
95.5368,26.0768
95.4557,26.1310
95.3600,26.1500
93.0600,26.1500
92.9643,26.1310
92.8832,26.0768
92.8290,25.9957
92.8100,25.9000
92.8100,23.6000
92.8290,23.5043
92.8832,23.4232
92.9643,23.3690
93.0600,23.3500
Z" /> 
<circle cx="94.2100" cy="29.7500" r="1.4000" /> 
</g>
<g style="fill:#000000; fill-opacity:1.0000; stroke:none;">
<circle cx="40.8800" cy="29.7500" r="0.8000" /> 
</g>
<g style="fill:#000000; fill-opacity:1.0000; stroke:none;">
<circle cx="43.4200" cy="29.7500" r="0.8000" /> 
<circle cx="56.6300" cy="57.7500" r="0.8000" /> 
</g>
<g style="fill:#000000; fill-opacity:1.0000; stroke:none;">
<circle cx="59.1700" cy="57.7500" r="0.8000" /> 
<path style="fill:#000000; fill-opacity:1.0000; stroke:none;fill-rule:evenodd;"
d="M 92.7500,43.0475
94.7500,43.0475
94.7500,44.9525
92.7500,44.9525
Z" /> 
</g>
<g style="fill:none; 
stroke:#000000; stroke-width:1.9050; stroke-opacity:1; 
stroke-linecap:round; stroke-linejoin:round;">
<path d="M93.7975 46.5400
L93.7025 46.5400
" />
<path d="M93.7975 49.0800
L93.7025 49.0800
" />
</g>
<g style="fill:#000000; fill-opacity:1.0000; stroke:none;">
<circle cx="18.7100" cy="19.7500" r="0.8000" /> 
</g>
<g style="fill:#000000; fill-opacity:1.0000; stroke:none;">
<circle cx="21.2500" cy="19.7500" r="0.8000" /> 
<circle cx="28.2500" cy="7.0000" r="0.8000" /> 
</g>
<g style="fill:#000000; fill-opacity:1.0000; stroke:none;">
<circle cx="25.7100" cy="7.0000" r="0.8000" /> 
<path style="fill:#000000; fill-opacity:1.0000; stroke:none;fill-rule:evenodd;"
d="M 78.1000,66.5675
78.1190,66.4718
78.1732,66.3907
78.2543,66.3365
78.3500,66.3175
80.6500,66.3175
80.7457,66.3365
80.8268,66.3907
80.8810,66.4718
80.9000,66.5675
80.9000,68.8675
80.8810,68.9632
80.8268,69.0443
80.7457,69.0985
80.6500,69.1175
78.3500,69.1175
78.2543,69.0985
78.1732,69.0443
78.1190,68.9632
78.1000,68.8675
Z" /> 
<circle cx="84.5000" cy="67.7175" r="1.4000" /> 
<path style="fill:#000000; fill-opacity:1.0000; stroke:none;fill-rule:evenodd;"
d="M 78.6375,17.3050
78.6375,15.3050
80.5425,15.3050
80.5425,17.3050
Z" /> 
</g>
<g style="fill:none; 
stroke:#000000; stroke-width:1.9050; stroke-opacity:1; 
stroke-linecap:round; stroke-linejoin:round;">
<path d="M82.1300 16.2575
L82.1300 16.3525
" />
<path d="M84.6700 16.2575
L84.6700 16.3525
" />
<path style="fill:#000000; fill-opacity:1.0000; stroke:none;fill-rule:evenodd;"
d="M 53.5000,8.6500
53.5000,5.8500
56.3000,5.8500
56.3000,8.6500
Z" /> 
</g>
<g style="fill:#000000; fill-opacity:1.0000; stroke:none;">
<circle cx="67.6000" cy="7.2500" r="1.4000" /> 
<circle cx="36.2500" cy="54.0000" r="0.8000" /> 
</g>
<g style="fill:#000000; fill-opacity:1.0000; stroke:none;">
<circle cx="38.7900" cy="54.0000" r="0.8000" /> 
<circle cx="17.3000" cy="37.5000" r="0.8000" /> 
</g>
<g style="fill:#000000; fill-opacity:1.0000; stroke:none;">
<circle cx="19.8400" cy="37.5000" r="0.8000" /> 
<circle cx="25.2100" cy="17.7500" r="0.8000" /> 
</g>
<g style="fill:#000000; fill-opacity:1.0000; stroke:none;">
<circle cx="27.7500" cy="17.7500" r="0.8000" /> 
<circle cx="42.5800" cy="52.2500" r="0.8000" /> 
</g>
<g style="fill:#000000; fill-opacity:1.0000; stroke:none;">
<circle cx="45.1200" cy="52.2500" r="0.8000" /> 
<circle cx="17.3000" cy="25.5000" r="0.8000" /> 
</g>
<g style="fill:#000000; fill-opacity:1.0000; stroke:none;">
<circle cx="19.8400" cy="25.5000" r="0.8000" /> 
<circle cx="56.6300" cy="64.2500" r="0.8000" /> 
</g>
<g style="fill:#000000; fill-opacity:1.0000; stroke:none;">
<circle cx="59.1700" cy="64.2500" r="0.8000" /> 
<circle cx="40.8800" cy="17.2500" r="0.8000" /> 
</g>
<g style="fill:#000000; fill-opacity:1.0000; stroke:none;">
<circle cx="43.4200" cy="17.2500" r="0.8000" /> 
<circle cx="17.4500" cy="31.5000" r="0.8000" /> 
</g>
<g style="fill:#000000; fill-opacity:1.0000; stroke:none;">
<circle cx="19.9900" cy="31.5000" r="0.8000" /> 
<circle cx="79.6700" cy="23.1050" r="0.8000" /> 
</g>
<g style="fill:#000000; fill-opacity:1.0000; stroke:none;">
<circle cx="79.6700" cy="25.6450" r="0.8000" /> 
<circle cx="58.7100" cy="52.2500" r="0.8000" /> 
</g>
<g style="fill:#000000; fill-opacity:1.0000; stroke:none;">
<circle cx="61.2500" cy="52.2500" r="0.8000" /> 
<circle cx="40.8800" cy="23.7500" r="0.8000" /> 
</g>
<g style="fill:#000000; fill-opacity:1.0000; stroke:none;">
<circle cx="43.4200" cy="23.7500" r="0.8000" /> 
<circle cx="12.9800" cy="69.9600" r="0.8000" /> 
</g>
<g style="fill:#000000; fill-opacity:1.0000; stroke:none;">
<circle cx="15.5200" cy="69.9600" r="0.8000" /> 
<path style="fill:#000000; fill-opacity:1.0000; stroke:none;fill-rule:evenodd;"
d="M 1.5800,34.5500
1.5800,32.9500
3.1800,32.9500
3.1800,34.5500
Z" /> 
<circle cx="10.0000" cy="33.7500" r="0.8000" /> 
<circle cx="34.5000" cy="59.5000" r="0.8000" /> 
</g>
<g style="fill:#000000; fill-opacity:1.0000; stroke:none;">
<circle cx="37.0400" cy="59.5000" r="0.8000" /> 
<path style="fill:#000000; fill-opacity:1.0000; stroke:none;fill-rule:evenodd;"
d="M 18.3250,13.1500
18.3250,11.3500
20.1250,11.3500
20.1250,13.1500
Z" /> 
<circle cx="21.7650" cy="12.2500" r="0.9000" /> 
<path style="fill:#000000; fill-opacity:1.0000; stroke:none;fill-rule:evenodd;"
d="M 1.5800,41.8000
1.5800,40.2000
3.1800,40.2000
3.1800,41.8000
Z" /> 
</g>
<g style="fill:#000000; fill-opacity:1.0000; stroke:none;">
<circle cx="10.0000" cy="41.0000" r="0.8000" /> 
<path style="fill:#000000; fill-opacity:1.0000; stroke:none;fill-rule:evenodd;"
d="M 44.2750,32.7500
47.0750,32.7500
47.0750,35.5500
44.2750,35.5500
Z" /> 
<circle cx="45.6750" cy="46.8500" r="1.4000" /> 
<circle cx="67.7100" cy="33.2550" r="0.8000" /> 
</g>
<g style="fill:#000000; fill-opacity:1.0000; stroke:none;">
<circle cx="67.7100" cy="30.7150" r="0.8000" /> 
<circle cx="47.9600" cy="10.7500" r="0.8000" /> 
</g>
<g style="fill:#000000; fill-opacity:1.0000; stroke:none;">
<circle cx="50.5000" cy="10.7500" r="0.8000" /> 
<path style="fill:#000000; fill-opacity:1.0000; stroke:none;fill-rule:evenodd;"
d="M 4.6000,23.6500
4.5043,23.6310
4.4232,23.5768
4.3690,23.4957
4.3500,23.4000
4.3500,21.1000
4.3690,21.0043
4.4232,20.9232
4.5043,20.8690
4.6000,20.8500
6.9000,20.8500
6.9957,20.8690
7.0768,20.9232
7.1310,21.0043
7.1500,21.1000
7.1500,23.4000
7.1310,23.4957
7.0768,23.5768
6.9957,23.6310
6.9000,23.6500
Z" /> 
<circle cx="5.7500" cy="17.2500" r="1.4000" /> 
</g>
<g style="fill:#000000; fill-opacity:1.0000; stroke:none;">
<circle cx="56.6300" cy="70.2500" r="0.8000" /> 
</g>
<g style="fill:#000000; fill-opacity:1.0000; stroke:none;">
<circle cx="59.1700" cy="70.2500" r="0.8000" /> 
<circle cx="89.6000" cy="43.5000" r="0.8000" /> 
</g>
<g style="fill:#000000; fill-opacity:1.0000; stroke:none;">
<circle cx="87.0600" cy="43.5000" r="0.8000" /> 
<circle cx="41.4600" cy="12.5000" r="0.8000" /> 
</g>
<g style="fill:#000000; fill-opacity:1.0000; stroke:none;">
<circle cx="44.0000" cy="12.5000" r="0.8000" /> 
<circle cx="34.5000" cy="64.5000" r="0.8000" /> 
</g>
<g style="fill:#000000; fill-opacity:1.0000; stroke:none;">
<circle cx="37.0400" cy="64.5000" r="0.8000" /> 
<circle cx="12.9800" cy="64.4600" r="0.8000" /> 
</g>
<g style="fill:#000000; fill-opacity:1.0000; stroke:none;">
<circle cx="15.5200" cy="64.4600" r="0.8000" /> 
<path style="fill:#000000; fill-opacity:1.0000; stroke:none;fill-rule:evenodd;"
d="M 25.3250,13.1500
25.3250,11.3500
27.1250,11.3500
27.1250,13.1500
Z" /> 
<circle cx="28.7650" cy="12.2500" r="0.9000" /> 
</g>
<g style="fill:#000000; fill-opacity:1.0000; stroke:none;">
<circle cx="21.1300" cy="50.2500" r="0.8000" /> 
</g>
<g style="fill:#000000; fill-opacity:1.0000; stroke:none;">
<circle cx="23.6700" cy="50.2500" r="0.8000" /> 
<path style="fill:#000000; fill-opacity:1.0000; stroke:none;fill-rule:evenodd;"
d="M 1.5800,48.5500
1.5800,46.9500
3.1800,46.9500
3.1800,48.5500
Z" /> 
<circle cx="10.0000" cy="47.7500" r="0.8000" /> 
<circle cx="19.7100" cy="7.0000" r="0.8000" /> 
</g>
<g style="fill:#000000; fill-opacity:1.0000; stroke:none;">
<circle cx="22.2500" cy="7.0000" r="0.8000" /> 
<circle cx="12.8300" cy="57.9600" r="0.8000" /> 
</g>
<g style="fill:#000000; fill-opacity:1.0000; stroke:none;">
<circle cx="15.3700" cy="57.9600" r="0.8000" /> 
<circle cx="64.9600" cy="51.5000" r="0.8000" /> 
</g>
<g style="fill:#000000; fill-opacity:1.0000; stroke:none;">
<circle cx="67.5000" cy="51.5000" r="0.8000" /> 
<path style="fill:#000000; fill-opacity:1.0000; stroke:none;fill-rule:evenodd;"
d="M 16.4000,11.1000
16.4000,12.9000
14.6000,12.9000
14.6000,11.1000
Z" /> 
<circle cx="12.9600" cy="12.0000" r="0.9000" /> 
</g>
<g style="fill:#000000; fill-opacity:1.0000; stroke:none;">
<circle cx="13.2100" cy="7.0000" r="0.8000" /> 
</g>
<g style="fill:#000000; fill-opacity:1.0000; stroke:none;">
<circle cx="15.7500" cy="7.0000" r="0.8000" /> 
<circle cx="30.4250" cy="73.4000" r="1.2500" /> 
</g>
<g style="fill:#000000; fill-opacity:1.0000; stroke:none;">
<circle cx="54.5000" cy="48.7500" r="1.2500" /> 
</g>
<g style="fill:#000000; fill-opacity:1.0000; stroke:none;">
<circle cx="31.5000" cy="51.2500" r="1.2500" /> 
</g>
<g style="fill:#000000; fill-opacity:1.0000; stroke:none;">
<circle cx="15.5000" cy="16.7500" r="1.2500" /> 
</g>
<g style="fill:#000000; fill-opacity:1.0000; stroke:none;">
<circle cx="71.0000" cy="46.5000" r="1.2500" /> 
</g>
<g style="fill:#000000; fill-opacity:1.0000; stroke:none;">
<circle cx="74.7500" cy="39.5000" r="1.2500" /> 
</g>
<g style="fill:#000000; fill-opacity:1.0000; stroke:none;">
<circle cx="34.6750" cy="11.4000" r="1.2500" /> 
</g>
<g style="fill:none; 
stroke:#000000; stroke-width:1.0000; stroke-opacity:1; 
stroke-linecap:round; stroke-linejoin:round;">
<path d="M53.8750 10.7500
L56.7250 13.6000
" />
<path d="M50.5000 10.7500
L53.8750 10.7500
" />
<path d="M48.1850 16.1400
L56.7250 16.1400
" />
<path d="M48.1750 16.1500
L48.1850 16.1400
" />
<path d="M45.0250 59.2500
L48.6200 59.2500
" />
<path d="M44.9250 59.1500
L45.0250 59.2500
" />
<path d="M38.7900 54.0000
L43.9400 59.1500
" />
<path d="M43.9400 59.1500
L44.9250 59.1500
" />
<path d="M40.3250 65.7500
L43.3700 65.7500
" />
<path d="M40.1750 65.9000
L40.3250 65.7500
" />
<path d="M38.4400 65.9000
L40.1750 65.9000
" />
<path d="M37.0400 64.5000
L38.4400 65.9000
" />
<path d="M47.0000 46.8500
L48.2500 48.1000
" />
<path d="M45.6750 46.8500
L47.0000 46.8500
" />
<path d="M42.9250 34.1500
L45.6750 34.1500
" />
<path d="M40.8800 32.1050
L42.9250 34.1500
" />
<path d="M25.4250 79.4000
L30.4250 74.4000
" />
<path d="M16.4250 79.4000
L25.4250 79.4000
" />
<path d="M15.9250 78.9000
L16.4250 79.4000
" />
<path d="M30.4250 74.4000
L30.4250 73.4000
" />
<path d="M12.9800 75.9550
L15.9250 78.9000
" />
<path d="M12.9800 69.9600
L12.9800 75.9550
" />
<path d="M47.7700 31.0550
L50.8700 31.0550
" />
<path d="M47.6750 31.1500
L47.7700 31.0550
" />
<path d="M45.5250 29.7500
L46.9250 31.1500
" />
<path d="M43.4200 29.7500
L45.5250 29.7500
" />
<path d="M46.9250 31.1500
L47.6750 31.1500
" />
<path d="M47.4350 22.3900
L50.7300 22.3900
" />
<path d="M46.6750 22.4000
L47.4250 22.4000
" />
<path d="M45.5200 23.5550
L46.6750 22.4000
" />
<path d="M47.4250 22.4000
L47.4350 22.3900
" />
<path d="M43.6150 23.5550
L45.5200 23.5550
" />
<path d="M45.6950 17.2500
L48.2950 19.8500
" />
<path d="M48.2950 19.8500
L50.7300 19.8500
" />
<path d="M67.8050 59.0200
L70.8900 59.0200
" />
<path d="M67.6750 59.1500
L67.8050 59.0200
" />
<path d="M61.2500 53.7250
L66.6750 59.1500
" />
<path d="M61.2500 52.2500
L61.2500 53.7250
" />
<path d="M66.6750 59.1500
L67.6750 59.1500
" />
<path d="M62.8250 65.7500
L65.7500 65.7500
" />
<path d="M62.6750 65.9000
L62.8250 65.7500
" />
<path d="M60.8200 65.9000
L62.6750 65.9000
" />
<path d="M59.1700 64.2500
L60.8200 65.9000
" />
<path d="M65.7500 72.3250
L65.7250 72.3500
" />
<path d="M65.7500 68.2900
L65.7500 72.3250
" />
<path d="M61.4350 74.8900
L65.7250 74.8900
" />
<path d="M61.4250 74.9000
L61.4350 74.8900
" />
<path d="M60.4250 74.9000
L61.4250 74.9000
" />
<path d="M59.1700 73.6450
L60.4250 74.9000
" />
<path d="M59.1700 70.2500
L59.1700 73.6450
" />
<path d="M52.6750 72.6500
L55.0750 70.2500
" />
<path d="M52.6750 74.6500
L52.6750 72.6500
" />
<path d="M36.4250 79.4000
L47.9250 79.4000
" />
<path d="M47.9250 79.4000
L52.6750 74.6500
" />
<path d="M34.8500 77.8250
L36.4250 79.4000
" />
<path d="M34.8500 70.5000
L34.8500 77.8250
" />
<path d="M55.0750 70.2500
L56.6300 70.2500
" />
<path d="M39.6850 74.3900
L43.3700 74.3900
" />
<path d="M39.6750 74.4000
L39.6850 74.3900
" />
<path d="M37.3900 72.8650
L38.9250 74.4000
" />
<path d="M37.3900 70.5000
L37.3900 72.8650
" />
<path d="M38.9250 74.4000
L39.6750 74.4000
" />
<path d="M43.3700 68.2900
L43.3700 71.8500
" />
<path d="M16.9350 73.8900
L21.4750 73.8900
" />
<path d="M16.9250 73.9000
L16.9350 73.8900
" />
<path d="M15.5200 72.4950
L16.9250 73.9000
" />
<path d="M15.5200 69.9600
L15.5200 72.4950
" />
<path d="M21.3100 71.1850
L21.4750 71.3500
" />
<path d="M21.3100 67.8100
L21.3100 71.1850
" />
<path d="M18.2950 65.2700
L21.3100 65.2700
" />
<path d="M17.4850 64.4600
L18.2950 65.2700
" />
<path d="M15.5200 64.4600
L17.4850 64.4600
" />
<path d="M22.9250 38.9000
L23.0750 38.7500
" />
<path d="M23.0750 38.7500
L25.5000 38.7500
" />
<path d="M21.2400 38.9000
L22.9250 38.9000
" />
<path d="M19.8400 37.5000
L21.2400 38.9000
" />
<path d="M23.6350 30.1900
L25.4250 30.1900
" />
<path d="M22.3250 31.5000
L23.6350 30.1900
" />
<path d="M19.9900 31.5000
L22.3250 31.5000
" />
<path d="M25.4250 26.6500
L25.4250 27.6500
" />
<path d="M19.8400 25.5000
L24.2750 25.5000
" />
<path d="M24.2750 25.5000
L25.4250 26.6500
" />
<path d="M30.7250 19.4500
L30.7250 21.1000
" />
<path d="M29.0250 17.7500
L30.7250 19.4500
" />
<path d="M27.7500 17.7500
L29.0250 17.7500
" />
<path d="M26.9150 23.6400
L30.7250 23.6400
" />
<path d="M21.2500 19.7500
L24.9000 23.4000
" />
<path d="M24.9000 23.4000
L26.6750 23.4000
" />
<path d="M26.6750 23.4000
L26.9150 23.6400
" />
<path d="M17.6700 53.6450
L17.6700 52.2500
" />
<path d="M22.0450 58.0200
L17.6700 53.6450
" />
<path d="M26.0600 58.0200
L22.0450 58.0200
" />
<path d="M40.5000 9.2500
L37.2500 12.5000
" />
<path d="M54.5000 48.7500
L62.2100 48.7500
" />
<path d="M5.7500 22.2500
L5.7500 30.3800
" />
<path d="M45.2500 9.2500
L40.5000 9.2500
" />
<path d="M5.7500 30.3800
L2.3800 33.7500
" />
<path d="M15.5000 23.7000
L17.3000 25.5000
" />
<path d="M11.8800 30.3800
L5.7500 30.3800
" />
<path d="M54.5000 55.6200
L54.5000 48.7500
" />
<path d="M12.8300 51.6700
L14.7500 49.7500
" />
<path d="M13.2500 31.7500
L11.8800 30.3800
" />
<path d="M18.2500 50.2500
L21.1300 50.2500
" />
<path d="M41.5800 51.2500
L42.5800 52.2500
" />
<path d="M21.1300 50.2500
L21.1300 48.6300
" />
<path d="M46.7500 10.7500
L45.2500 9.2500
" />
<path d="M15.5000 16.7500
L15.5000 23.7000
" />
<path d="M34.5000 59.5000
L31.5000 56.5000
" />
<path d="M21.1300 48.6300
L13.2500 40.7500
" />
<path d="M31.5000 56.5000
L31.5000 51.2500
" />
<path d="M62.2100 48.7500
L64.9600 51.5000
" />
<path d="M12.8300 57.9600
L12.8300 51.6700
" />
<path d="M56.6300 57.7500
L54.5000 55.6200
" />
<path d="M14.7500 49.7500
L17.7500 49.7500
" />
<path d="M16.0000 16.2500
L15.5000 16.7500
" />
<path d="M13.2500 40.7500
L13.2500 31.7500
" />
<path d="M37.2500 15.2500
L39.2500 17.2500
" />
<path d="M37.2500 12.5000
L37.2500 15.2500
" />
<path d="M22.7500 17.7500
L21.2500 16.2500
" />
<path d="M31.5000 51.2500
L41.5800 51.2500
" />
<path d="M47.9600 10.7500
L46.7500 10.7500
" />
<path d="M25.2100 17.7500
L22.7500 17.7500
" />
<path d="M17.7500 49.7500
L18.2500 50.2500
" />
<path d="M39.2500 17.2500
L40.8800 17.2500
" />
<path d="M21.2500 16.2500
L16.0000 16.2500
" />
<path d="M24.9150 15.4000
L26.6750 15.4000
" />
<path d="M26.6750 15.4000
L27.7500 16.4750
" />
<path d="M27.7500 16.4750
L27.7500 17.7500
" />
<path d="M30.9250 20.9250
L30.9250 21.4000
" />
<path d="M21.7650 12.2500
L24.9150 15.4000
" />
<path d="M19.2250 7.4850
L19.7100 7.0000
" />
<path d="M19.2250 12.2500
L19.2250 7.4850
" />
<path d="M13.9250 27.9750
L17.4500 31.5000
" />
</g>
<g style="fill:none; 
stroke:#000000; stroke-width:0.5000; stroke-opacity:1; 
stroke-linecap:round; stroke-linejoin:round;">
<path d="M2.7500 41.0000
L2.3800 41.0000
" />
</g>
<g style="fill:none; 
stroke:#000000; stroke-width:1.0000; stroke-opacity:1; 
stroke-linecap:round; stroke-linejoin:round;">
<path d="M2.3800 42.6500
L3.1750 42.6500
" />
<path d="M12.9600 12.0000
L11.6750 13.2850
" />
<path d="M10.0000 35.8250
L10.0000 33.7500
" />
<path d="M11.6750 25.6500
L13.9250 27.9000
" />
<path d="M2.3800 42.6500
L2.3800 41.0000
" />
<path d="M2.3800 47.7500
L2.3800 42.6500
" />
<path d="M13.9250 27.9000
L13.9250 27.9750
" />
<path d="M11.6750 13.2850
L11.6750 25.6500
" />
<path d="M3.1750 42.6500
L10.0000 35.8250
" />
<path d="M13.2100 8.4350
L13.2100 7.0000
" />
<path d="M15.5000 10.7250
L13.2100 8.4350
" />
<path d="M15.5000 12.0000
L15.5000 10.7250
" />
<path d="M50.5000 8.9750
L50.5000 10.7500
" />
<path d="M28.7650 12.2500
L30.3250 12.2500
" />
<path d="M48.6750 7.1500
L50.5000 8.9750
" />
<path d="M35.4250 7.1500
L48.6750 7.1500
" />
<path d="M30.3250 12.2500
L35.4250 7.1500
" />
<path d="M26.2250 10.3500
L28.2500 8.3250
" />
<path d="M26.2250 12.2500
L26.2250 10.3500
" />
<path d="M28.2500 8.3250
L28.2500 7.0000
" />
<path d="M83.6750 23.1500
L83.6300 23.1050
" />
<path d="M89.6000 40.3250
L89.6000 43.5000
" />
<path d="M83.6300 23.1050
L79.6700 23.1050
" />
<path d="M89.6000 43.5000
L93.2500 43.5000
" />
<path d="M89.6000 40.3250
L85.9250 36.6500
" />
<path d="M84.6750 23.1500
L83.6750 23.1500
" />
<path d="M74.7500 39.5000
L83.0750 39.5000
" />
<path d="M67.5000 51.5000
L67.5000 50.0000
" />
<path d="M79.5900 16.3050
L79.5900 23.0250
" />
<path d="M67.5000 53.0900
L70.8900 56.4800
" />
</g>
<g style="fill:none; 
stroke:#000000; stroke-width:0.5000; stroke-opacity:1; 
stroke-linecap:round; stroke-linejoin:round;">
<path d="M70.8900 46.6100
L71.0000 46.5000
" />
</g>
<g style="fill:none; 
stroke:#000000; stroke-width:1.0000; stroke-opacity:1; 
stroke-linecap:round; stroke-linejoin:round;">
<path d="M83.0750 39.5000
L85.9250 36.6500
" />
<path d="M67.5000 51.5000
L67.5000 53.0900
" />
<path d="M79.5900 23.0250
L79.6700 23.1050
" />
<path d="M93.2500 43.5000
L93.7500 44.0000
" />
<path d="M67.5000 50.0000
L71.0000 46.5000
" />
<path d="M85.9250 36.6500
L85.9250 24.4000
" />
<path d="M85.9250 24.4000
L84.6750 23.1500
" />
<path d="M40.8800 29.7500
L39.2750 29.7500
" />
<path d="M34.6750 24.4000
L34.6750 11.4000
" />
<path d="M39.2750 29.7500
L36.6750 27.1500
" />
<path d="M36.6750 26.4000
L34.6750 24.4000
" />
</g>
<g style="fill:none; 
stroke:#000000; stroke-width:0.5000; stroke-opacity:1; 
stroke-linecap:round; stroke-linejoin:round;">
<path d="M54.9000 7.9000
L54.9000 7.2500
" />
</g>
<g style="fill:none; 
stroke:#000000; stroke-width:1.0000; stroke-opacity:1; 
stroke-linecap:round; stroke-linejoin:round;">
<path d="M36.6750 27.1500
L36.6750 26.4000
" />
<path d="M40.8800 29.7500
L40.8800 32.1050
" />
<path d="M66.2100 17.4600
L66.6700 17.0000
" />
<path d="M66.2100 21.0550
L62.5200 21.0550
" />
<path d="M66.2100 21.0550
L66.2100 17.4600
" />
<path d="M48.6200 55.7500
L45.1200 52.2500
" />
<path d="M56.4250 27.1500
L56.4250 40.1500
" />
<path d="M56.4250 40.1500
L56.2000 40.1500
" />
<path d="M62.5200 21.0550
L56.4250 27.1500
" />
<path d="M48.6200 56.7100
L48.6200 55.7500
" />
<path d="M56.2000 40.1500
L48.2500 48.1000
" />
<path d="M45.1200 51.2300
L48.2500 48.1000
" />
<path d="M45.1200 52.2500
L45.1200 51.2300
" />
<path d="M15.1300 57.7200
L15.3700 57.9600
" />
<path d="M28.8250 70.5000
L34.8500 70.5000
" />
<path d="M28.6750 70.6500
L28.8250 70.5000
" />
<path d="M25.1750 67.1500
L28.6750 70.6500
" />
<path d="M21.3100 62.7300
L24.0050 62.7300
" />
<path d="M25.1750 63.9000
L25.1750 67.1500
" />
<path d="M15.1300 52.2500
L15.1300 57.7200
" />
<path d="M15.3700 57.9600
L16.5400 57.9600
" />
<path d="M16.5400 57.9600
L21.3100 62.7300
" />
<path d="M24.0050 62.7300
L25.1750 63.9000
" />
<path d="M23.6700 53.0900
L26.0600 55.4800
" />
<path d="M17.3000 37.5000
L17.3000 39.5250
" />
<path d="M17.3000 39.5250
L23.6700 45.8950
" />
<path d="M23.6700 50.2500
L23.6700 53.0900
" />
<path d="M23.6700 45.8950
L23.6700 50.2500
" />
<path d="M18.7100 19.7500
L18.7100 21.1850
" />
<path d="M19.9250 22.4000
L19.8400 22.4850
" />
<path d="M18.7100 21.1850
L19.9250 22.4000
" />
<path d="M19.8400 22.4850
L19.8400 25.5000
" />
<path d="M25.5000 32.7500
L25.5000 36.2100
" />
<path d="M58.7100 52.2500
L58.7100 57.2900
" />
<path d="M60.2900 57.7500
L65.7500 63.2100
" />
<path d="M58.7100 57.2900
L59.1700 57.7500
" />
<path d="M59.1700 57.7500
L60.2900 57.7500
" />
<path d="M37.0400 56.7650
L37.0400 59.5000
" />
<path d="M36.2500 55.9750
L37.0400 56.7650
" />
<path d="M39.6600 59.5000
L43.3700 63.2100
" />
<path d="M36.2500 54.0000
L36.2500 55.9750
" />
<path d="M37.0400 59.5000
L39.6600 59.5000
" />
<path d="M50.8700 24.9650
L50.7300 24.8250
" />
<path d="M50.8700 28.5150
L50.8700 24.9650
" />
<path d="M43.4200 23.7500
L43.6150 23.5550
" />
<path d="M41.4600 13.6850
L43.4200 15.6450
" />
<path d="M43.4200 17.2500
L45.6950 17.2500
" />
<path d="M41.4600 12.5000
L41.4600 13.6850
" />
</g>
<g style="fill:none; 
stroke:#000000; stroke-width:0.5000; stroke-opacity:1; 
stroke-linecap:round; stroke-linejoin:round;">
<path d="M50.2850 22.2850
L50.7300 22.2850
" />
</g>
<g style="fill:none; 
stroke:#000000; stroke-width:1.0000; stroke-opacity:1; 
stroke-linecap:round; stroke-linejoin:round;">
<path d="M43.4200 15.6450
L43.4200 17.2500
" />
<path d="M69.2100 27.9600
L69.2500 28.0000
" />
<path d="M67.7100 29.5400
L67.7100 30.7150
" />
<path d="M69.2100 17.0000
L69.2100 27.9600
" />
<path d="M69.2500 28.0000
L67.7100 29.5400
" />
<path d="M79.0500 45.5000
L81.0000 45.5000
" />
<path d="M82.0400 46.5400
L93.7500 46.5400
" />
<path d="M81.0000 45.5000
L82.0400 46.5400
" />
<path d="M10.0000 42.7250
L12.1750 44.9000
" />
<path d="M9.9250 61.4050
L12.9800 64.4600
" />
<path d="M9.9250 50.9000
L9.9250 61.4050
" />
<path d="M10.0000 41.0000
L10.0000 42.7250
" />
<path d="M12.1750 44.9000
L12.1750 48.6500
" />
<path d="M12.1750 48.6500
L9.9250 50.9000
" />
<path d="M8.6700 65.6500
L12.9800 69.9600
" />
<path d="M7.1750 50.5750
L7.1750 64.4000
" />
<path d="M8.4250 65.6500
L8.6700 65.6500
" />
<path d="M10.0000 47.7500
L7.1750 50.5750
" />
<path d="M7.1750 64.4000
L8.4250 65.6500
" />
<path d="M75.5000 25.4650
L67.7100 33.2550
" />
<path d="M77.0000 12.7500
L75.5000 14.2500
" />
<path d="M80.5000 12.7500
L77.0000 12.7500
" />
<path d="M67.7100 38.2100
L67.7100 33.2550
" />
<path d="M75.0000 45.5000
L67.7100 38.2100
" />
<path d="M79.5000 57.2500
L76.5100 54.2600
" />
<path d="M76.5100 45.5000
L75.0000 45.5000
" />
<path d="M82.1300 14.3800
L80.5000 12.7500
" />
<path d="M82.1300 16.3050
L82.1300 14.3800
" />
<path d="M76.5100 54.2600
L76.5100 45.5000
" />
<path d="M79.5000 67.7175
L79.5000 57.2500
" />
<path d="M75.5000 14.2500
L75.5000 25.4650
" />
<path d="M88.3050 16.3050
L94.2100 22.2100
" />
<path d="M94.2100 22.2100
L94.2100 24.7500
" />
<path d="M74.0000 9.7500
L71.7500 12.0000
" />
<path d="M81.2500 9.7500
L74.0000 9.7500
" />
<path d="M71.7500 12.0000
L71.7500 17.0000
" />
<path d="M84.6700 13.1700
L81.2500 9.7500
" />
<path d="M84.6700 16.3050
L84.6700 13.1700
" />
<path d="M84.6700 16.3050
L88.3050 16.3050
" />
<path d="M47.6500 16.1500
L48.1750 16.1500
" />
<path d="M44.0000 12.5000
L47.6500 16.1500
" />
</g> 
</svg>
