M48
METRIC
T1C0.750
T2C0.800
T3C0.900
T4C1.000
T5C1.300
T6C1.400
%
G90
G05
T1
X77.68Y-86.57
X77.69Y-61.04
X77.78Y-72.47
X77.78Y-79.07
X77.89Y-53.24
X78.06Y-45.21
X78.95Y-85.3
X78.95Y-87.84
X78.96Y-59.77
X78.96Y-62.31
X79.05Y-71.2
X79.05Y-73.74
X79.05Y-77.8
X79.05Y-80.34
X79.16Y-51.97
X79.16Y-54.51
X79.33Y-43.94
X79.33Y-46.48
X105.35Y-49.6
X105.35Y-56.5
X105.42Y-42.37
X106.62Y-48.33
X106.62Y-50.87
X106.62Y-55.23
X106.62Y-57.77
X106.69Y-41.1
X106.69Y-43.64
X108.95Y-82.54
X108.95Y-88.6
X109.05Y-94.6
X110.22Y-81.27
X110.22Y-83.81
X110.22Y-87.33
X110.22Y-89.87
X110.32Y-93.33
X110.32Y-95.87
X133.02Y-54.37
X133.05Y-40.3
X133.05Y-47.3
X134.29Y-53.1
X134.29Y-55.64
X134.32Y-39.03
X134.32Y-41.57
X134.32Y-46.03
X134.32Y-48.57
T2
X46.455Y-77.87
X47.155Y-55.07
X47.26Y-43.57
X54.075Y-77.87
X54.775Y-55.07
X54.88Y-43.57
X61.38Y-70.07
X61.38Y-74.97
X61.4Y-85.27
X61.4Y-89.97
X61.48Y-62.97
X61.58Y-48.77
X61.58Y-53.57
X61.58Y-58.47
X61.58Y-80.07
X61.66Y-43.67
X64.92Y-97.59
X64.92Y-107.75
X71.54Y-70.07
X71.54Y-74.97
X71.56Y-85.27
X71.56Y-89.97
X71.64Y-62.97
X71.74Y-48.77
X71.74Y-53.57
X71.74Y-58.47
X71.74Y-80.07
X71.82Y-43.67
X75.02Y-97.59
X75.02Y-107.75
X79.58Y-97.57
X79.58Y-107.73
X88.24Y-54.77
X88.32Y-40.77
X88.34Y-45.57
X88.34Y-49.97
X88.34Y-59.27
X92.52Y-80.17
X92.52Y-88.77
X92.54Y-84.27
X92.54Y-93.17
X92.54Y-97.27
X98.4Y-54.77
X98.48Y-40.77
X98.5Y-45.57
X98.5Y-49.97
X98.5Y-59.27
X102.68Y-80.17
X102.68Y-88.77
X102.7Y-84.27
X102.7Y-93.17
X102.7Y-97.27
X116.72Y-38.37
X116.74Y-53.37
X116.74Y-57.77
X116.82Y-43.57
X116.84Y-48.47
X126.88Y-38.37
X126.9Y-53.37
X126.9Y-57.77
X126.98Y-43.57
X127.0Y-48.47
X128.64Y-93.23
X131.18Y-93.23
X133.72Y-93.23
X135.06Y-66.67
X135.16Y-71.87
X139.04Y-92.71
X141.58Y-92.71
X141.64Y-78.49
X141.64Y-88.65
X144.12Y-92.71
X145.22Y-66.67
X145.32Y-71.87
X148.94Y-82.59
X148.94Y-92.75
X151.84Y-66.83
X151.84Y-69.37
X151.84Y-71.91
X155.18Y-75.73
X155.18Y-85.89
T3
X58.18Y-107.47
X60.72Y-107.47
X69.92Y-105.0
X69.92Y-107.54
X83.08Y-107.97
X85.62Y-107.97
T4
X45.72Y-101.57
X49.02Y-104.37
X50.22Y-101.37
X52.92Y-61.27
X54.02Y-86.57
X54.12Y-102.07
X57.22Y-66.97
X57.22Y-94.47
X60.82Y-98.57
X76.22Y-40.17
X78.92Y-37.57
X81.82Y-83.27
X82.82Y-57.37
X82.92Y-72.37
X85.62Y-43.87
X85.92Y-98.87
X86.82Y-78.87
X86.82Y-91.87
X89.92Y-71.57
X107.82Y-34.27
X111.02Y-49.37
X111.82Y-44.47
X112.22Y-55.47
X112.32Y-40.97
X115.12Y-76.37
X115.42Y-91.27
X127.72Y-85.37
X138.12Y-36.07
X138.72Y-50.57
X147.32Y-53.37
X148.82Y-58.27
X149.92Y-77.67
X152.32Y-106.67
X153.12Y-59.07
X153.72Y-89.47
X154.22Y-100.47
X157.32Y-102.27
T5
X47.912Y-91.02
X47.912Y-96.02
X142.58Y-104.37
X147.58Y-104.37
X154.98Y-46.97
X154.98Y-51.97
T6
X95.77Y-65.27
X108.47Y-65.27
X114.47Y-65.07
X127.17Y-65.07
M30
