<?xml version="1.0" standalone="no"?>
 <!DOCTYPE svg PUBLIC "-//W3C//DTD SVG 1.1//EN" 
 "http://www.w3.org/Graphics/SVG/1.1/DTD/svg11.dtd"> 
<svg
  xmlns:svg="http://www.w3.org/2000/svg"
  xmlns="http://www.w3.org/2000/svg"
  xmlns:xlink="http://www.w3.org/1999/xlink"
  version="1.1"
  width="297.0022mm" height="210.0072mm" viewBox="0.0000 0.0000 297.0022 210.0072">
<title>SVG Image created as multimeter-NPTH-drl_map.svg date 2025/06/28 23:01:51 </title>
  <desc>Image generated by PCBNEW </desc>
<g style="fill:#000000; fill-opacity:1.0000;stroke:#000000; stroke-opacity:1.0000;
stroke-linecap:round; stroke-linejoin:round;"
 transform="translate(0 0) scale(1 1)">
<path style="fill:none; 
stroke:#000000; stroke-width:0.0690; stroke-opacity:1; 
stroke-linecap:round; stroke-linejoin:round;fill:none"
d="M 77.8634,5.0345
219.1388,5.0345
219.1388,120.9698
77.8634,120.9698
Z" /> 
</g>
<g style="fill:none; 
stroke:#000000; stroke-width:0.4417; stroke-opacity:1; 
stroke-linecap:round; stroke-linejoin:round;">
<path d="M81.1758 8.3469
L85.5924 12.7635
" />
<path d="M85.5924 8.3469
L81.1758 12.7635
" />
<path d="M81.1758 113.2408
L85.5924 117.6574
" />
<path d="M85.5924 113.2408
L81.1758 117.6574
" />
<path d="M211.2580 8.3469
L215.6746 12.7635
" />
<path d="M215.6746 8.3469
L211.2580 12.7635
" />
<path d="M211.6030 113.2408
L216.0196 117.6574
" />
<path d="M216.0196 113.2408
L211.6030 117.6574
" />
</g>
<g style="fill:none; 
stroke:#000000; stroke-width:0.2000; stroke-opacity:1; 
stroke-linecap:round; stroke-linejoin:round;">
<text x="79.8289" y="124.2043"
textLength="14.8667" font-size="2.6667" lengthAdjust="spacingAndGlyphs"
text-anchor="start" opacity="0" stroke-opacity="0">Drill Map:</text>
<g class="stroked-text"><desc>Drill Map:</desc>
<path d="M80.4366 124.1192
L80.4366 122.1192
" />
<path d="M80.4366 122.1192
L80.9128 122.1192
" />
<path d="M80.9128 122.1192
L81.1985 122.2144
" />
<path d="M81.1985 122.2144
L81.3890 122.4049
" />
<path d="M81.3890 122.4049
L81.4843 122.5953
" />
<path d="M81.4843 122.5953
L81.5795 122.9763
" />
<path d="M81.5795 122.9763
L81.5795 123.2620
" />
<path d="M81.5795 123.2620
L81.4843 123.6430
" />
<path d="M81.4843 123.6430
L81.3890 123.8334
" />
<path d="M81.3890 123.8334
L81.1985 124.0239
" />
<path d="M81.1985 124.0239
L80.9128 124.1192
" />
<path d="M80.9128 124.1192
L80.4366 124.1192
" />
<path d="M82.4366 124.1192
L82.4366 122.7858
" />
<path d="M82.4366 123.1668
L82.5319 122.9763
" />
<path d="M82.5319 122.9763
L82.6271 122.8811
" />
<path d="M82.6271 122.8811
L82.8176 122.7858
" />
<path d="M82.8176 122.7858
L83.0081 122.7858
" />
<path d="M83.6747 124.1192
L83.6747 122.7858
" />
<path d="M83.6747 122.1192
L83.5795 122.2144
" />
<path d="M83.5795 122.2144
L83.6747 122.3096
" />
<path d="M83.6747 122.3096
L83.7700 122.2144
" />
<path d="M83.7700 122.2144
L83.6747 122.1192
" />
<path d="M83.6747 122.1192
L83.6747 122.3096
" />
<path d="M84.9128 124.1192
L84.7223 124.0239
" />
<path d="M84.7223 124.0239
L84.6271 123.8334
" />
<path d="M84.6271 123.8334
L84.6271 122.1192
" />
<path d="M85.9604 124.1192
L85.7700 124.0239
" />
<path d="M85.7700 124.0239
L85.6747 123.8334
" />
<path d="M85.6747 123.8334
L85.6747 122.1192
" />
<path d="M88.2462 124.1192
L88.2462 122.1192
" />
<path d="M88.2462 122.1192
L88.9128 123.5477
" />
<path d="M88.9128 123.5477
L89.5795 122.1192
" />
<path d="M89.5795 122.1192
L89.5795 124.1192
" />
<path d="M91.3890 124.1192
L91.3890 123.0715
" />
<path d="M91.3890 123.0715
L91.2938 122.8811
" />
<path d="M91.2938 122.8811
L91.1033 122.7858
" />
<path d="M91.1033 122.7858
L90.7223 122.7858
" />
<path d="M90.7223 122.7858
L90.5319 122.8811
" />
<path d="M91.3890 124.0239
L91.1985 124.1192
" />
<path d="M91.1985 124.1192
L90.7223 124.1192
" />
<path d="M90.7223 124.1192
L90.5319 124.0239
" />
<path d="M90.5319 124.0239
L90.4366 123.8334
" />
<path d="M90.4366 123.8334
L90.4366 123.6430
" />
<path d="M90.4366 123.6430
L90.5319 123.4525
" />
<path d="M90.5319 123.4525
L90.7223 123.3573
" />
<path d="M90.7223 123.3573
L91.1985 123.3573
" />
<path d="M91.1985 123.3573
L91.3890 123.2620
" />
<path d="M92.3414 122.7858
L92.3414 124.7858
" />
<path d="M92.3414 122.8811
L92.5319 122.7858
" />
<path d="M92.5319 122.7858
L92.9128 122.7858
" />
<path d="M92.9128 122.7858
L93.1033 122.8811
" />
<path d="M93.1033 122.8811
L93.1985 122.9763
" />
<path d="M93.1985 122.9763
L93.2938 123.1668
" />
<path d="M93.2938 123.1668
L93.2938 123.7382
" />
<path d="M93.2938 123.7382
L93.1985 123.9287
" />
<path d="M93.1985 123.9287
L93.1033 124.0239
" />
<path d="M93.1033 124.0239
L92.9128 124.1192
" />
<path d="M92.9128 124.1192
L92.5319 124.1192
" />
<path d="M92.5319 124.1192
L92.3414 124.0239
" />
<path d="M94.1509 123.9287
L94.2462 124.0239
" />
<path d="M94.2462 124.0239
L94.1509 124.1192
" />
<path d="M94.1509 124.1192
L94.0557 124.0239
" />
<path d="M94.0557 124.0239
L94.1509 123.9287
" />
<path d="M94.1509 123.9287
L94.1509 124.1192
" />
<path d="M94.1509 122.8811
L94.2462 122.9763
" />
<path d="M94.2462 122.9763
L94.1509 123.0715
" />
<path d="M94.1509 123.0715
L94.0557 122.9763
" />
<path d="M94.0557 122.9763
L94.1509 122.8811
" />
<path d="M94.1509 122.8811
L94.1509 123.0715
" />
</g><path d="M75.8289 126.4043
L77.8289 128.4043
" />
<path d="M77.8289 126.4043
L75.8289 128.4043
" />
</g>
<g style="fill:none; 
stroke:#000000; stroke-width:0.2000; stroke-opacity:1; 
stroke-linecap:round; stroke-linejoin:round;">
<text x="79.8289" y="128.4043"
textLength="66.6762" font-size="2.6667" lengthAdjust="spacingAndGlyphs"
text-anchor="start" opacity="0" stroke-opacity="0">3.200mm / 0.1260" (4 holes) (not plated)</text>
<g class="stroked-text"><desc>3.200mm / 0.1260" (4 holes) (not plated)</desc>
<path d="M80.2462 126.3192
L81.4843 126.3192
" />
<path d="M81.4843 126.3192
L80.8176 127.0811
" />
<path d="M80.8176 127.0811
L81.1033 127.0811
" />
<path d="M81.1033 127.0811
L81.2938 127.1763
" />
<path d="M81.2938 127.1763
L81.3890 127.2715
" />
<path d="M81.3890 127.2715
L81.4843 127.4620
" />
<path d="M81.4843 127.4620
L81.4843 127.9382
" />
<path d="M81.4843 127.9382
L81.3890 128.1287
" />
<path d="M81.3890 128.1287
L81.2938 128.2239
" />
<path d="M81.2938 128.2239
L81.1033 128.3192
" />
<path d="M81.1033 128.3192
L80.5319 128.3192
" />
<path d="M80.5319 128.3192
L80.3414 128.2239
" />
<path d="M80.3414 128.2239
L80.2462 128.1287
" />
<path d="M82.3414 128.1287
L82.4366 128.2239
" />
<path d="M82.4366 128.2239
L82.3414 128.3192
" />
<path d="M82.3414 128.3192
L82.2462 128.2239
" />
<path d="M82.2462 128.2239
L82.3414 128.1287
" />
<path d="M82.3414 128.1287
L82.3414 128.3192
" />
<path d="M83.1985 126.5096
L83.2938 126.4144
" />
<path d="M83.2938 126.4144
L83.4843 126.3192
" />
<path d="M83.4843 126.3192
L83.9604 126.3192
" />
<path d="M83.9604 126.3192
L84.1509 126.4144
" />
<path d="M84.1509 126.4144
L84.2462 126.5096
" />
<path d="M84.2462 126.5096
L84.3414 126.7001
" />
<path d="M84.3414 126.7001
L84.3414 126.8906
" />
<path d="M84.3414 126.8906
L84.2462 127.1763
" />
<path d="M84.2462 127.1763
L83.1033 128.3192
" />
<path d="M83.1033 128.3192
L84.3414 128.3192
" />
<path d="M85.5795 126.3192
L85.7700 126.3192
" />
<path d="M85.7700 126.3192
L85.9604 126.4144
" />
<path d="M85.9604 126.4144
L86.0557 126.5096
" />
<path d="M86.0557 126.5096
L86.1509 126.7001
" />
<path d="M86.1509 126.7001
L86.2462 127.0811
" />
<path d="M86.2462 127.0811
L86.2462 127.5573
" />
<path d="M86.2462 127.5573
L86.1509 127.9382
" />
<path d="M86.1509 127.9382
L86.0557 128.1287
" />
<path d="M86.0557 128.1287
L85.9604 128.2239
" />
<path d="M85.9604 128.2239
L85.7700 128.3192
" />
<path d="M85.7700 128.3192
L85.5795 128.3192
" />
<path d="M85.5795 128.3192
L85.3890 128.2239
" />
<path d="M85.3890 128.2239
L85.2938 128.1287
" />
<path d="M85.2938 128.1287
L85.1985 127.9382
" />
<path d="M85.1985 127.9382
L85.1033 127.5573
" />
<path d="M85.1033 127.5573
L85.1033 127.0811
" />
<path d="M85.1033 127.0811
L85.1985 126.7001
" />
<path d="M85.1985 126.7001
L85.2938 126.5096
" />
<path d="M85.2938 126.5096
L85.3890 126.4144
" />
<path d="M85.3890 126.4144
L85.5795 126.3192
" />
<path d="M87.4843 126.3192
L87.6747 126.3192
" />
<path d="M87.6747 126.3192
L87.8652 126.4144
" />
<path d="M87.8652 126.4144
L87.9604 126.5096
" />
<path d="M87.9604 126.5096
L88.0557 126.7001
" />
<path d="M88.0557 126.7001
L88.1509 127.0811
" />
<path d="M88.1509 127.0811
L88.1509 127.5573
" />
<path d="M88.1509 127.5573
L88.0557 127.9382
" />
<path d="M88.0557 127.9382
L87.9604 128.1287
" />
<path d="M87.9604 128.1287
L87.8652 128.2239
" />
<path d="M87.8652 128.2239
L87.6747 128.3192
" />
<path d="M87.6747 128.3192
L87.4843 128.3192
" />
<path d="M87.4843 128.3192
L87.2938 128.2239
" />
<path d="M87.2938 128.2239
L87.1985 128.1287
" />
<path d="M87.1985 128.1287
L87.1033 127.9382
" />
<path d="M87.1033 127.9382
L87.0081 127.5573
" />
<path d="M87.0081 127.5573
L87.0081 127.0811
" />
<path d="M87.0081 127.0811
L87.1033 126.7001
" />
<path d="M87.1033 126.7001
L87.1985 126.5096
" />
<path d="M87.1985 126.5096
L87.2938 126.4144
" />
<path d="M87.2938 126.4144
L87.4843 126.3192
" />
<path d="M89.0081 128.3192
L89.0081 126.9858
" />
<path d="M89.0081 127.1763
L89.1033 127.0811
" />
<path d="M89.1033 127.0811
L89.2938 126.9858
" />
<path d="M89.2938 126.9858
L89.5795 126.9858
" />
<path d="M89.5795 126.9858
L89.7700 127.0811
" />
<path d="M89.7700 127.0811
L89.8652 127.2715
" />
<path d="M89.8652 127.2715
L89.8652 128.3192
" />
<path d="M89.8652 127.2715
L89.9604 127.0811
" />
<path d="M89.9604 127.0811
L90.1509 126.9858
" />
<path d="M90.1509 126.9858
L90.4366 126.9858
" />
<path d="M90.4366 126.9858
L90.6271 127.0811
" />
<path d="M90.6271 127.0811
L90.7223 127.2715
" />
<path d="M90.7223 127.2715
L90.7223 128.3192
" />
<path d="M91.6747 128.3192
L91.6747 126.9858
" />
<path d="M91.6747 127.1763
L91.7700 127.0811
" />
<path d="M91.7700 127.0811
L91.9604 126.9858
" />
<path d="M91.9604 126.9858
L92.2462 126.9858
" />
<path d="M92.2462 126.9858
L92.4366 127.0811
" />
<path d="M92.4366 127.0811
L92.5319 127.2715
" />
<path d="M92.5319 127.2715
L92.5319 128.3192
" />
<path d="M92.5319 127.2715
L92.6271 127.0811
" />
<path d="M92.6271 127.0811
L92.8176 126.9858
" />
<path d="M92.8176 126.9858
L93.1033 126.9858
" />
<path d="M93.1033 126.9858
L93.2938 127.0811
" />
<path d="M93.2938 127.0811
L93.3890 127.2715
" />
<path d="M93.3890 127.2715
L93.3890 128.3192
" />
<path d="M97.2938 126.2239
L95.5795 128.7953
" />
<path d="M99.8652 126.3192
L100.0557 126.3192
" />
<path d="M100.0557 126.3192
L100.2462 126.4144
" />
<path d="M100.2462 126.4144
L100.3414 126.5096
" />
<path d="M100.3414 126.5096
L100.4366 126.7001
" />
<path d="M100.4366 126.7001
L100.5319 127.0811
" />
<path d="M100.5319 127.0811
L100.5319 127.5573
" />
<path d="M100.5319 127.5573
L100.4366 127.9382
" />
<path d="M100.4366 127.9382
L100.3414 128.1287
" />
<path d="M100.3414 128.1287
L100.2462 128.2239
" />
<path d="M100.2462 128.2239
L100.0557 128.3192
" />
<path d="M100.0557 128.3192
L99.8652 128.3192
" />
<path d="M99.8652 128.3192
L99.6747 128.2239
" />
<path d="M99.6747 128.2239
L99.5795 128.1287
" />
<path d="M99.5795 128.1287
L99.4843 127.9382
" />
<path d="M99.4843 127.9382
L99.3890 127.5573
" />
<path d="M99.3890 127.5573
L99.3890 127.0811
" />
<path d="M99.3890 127.0811
L99.4843 126.7001
" />
<path d="M99.4843 126.7001
L99.5795 126.5096
" />
<path d="M99.5795 126.5096
L99.6747 126.4144
" />
<path d="M99.6747 126.4144
L99.8652 126.3192
" />
<path d="M101.3890 128.1287
L101.4843 128.2239
" />
<path d="M101.4843 128.2239
L101.3890 128.3192
" />
<path d="M101.3890 128.3192
L101.2938 128.2239
" />
<path d="M101.2938 128.2239
L101.3890 128.1287
" />
<path d="M101.3890 128.1287
L101.3890 128.3192
" />
<path d="M103.3890 128.3192
L102.2462 128.3192
" />
<path d="M102.8176 128.3192
L102.8176 126.3192
" />
<path d="M102.8176 126.3192
L102.6271 126.6049
" />
<path d="M102.6271 126.6049
L102.4366 126.7953
" />
<path d="M102.4366 126.7953
L102.2462 126.8906
" />
<path d="M104.1509 126.5096
L104.2462 126.4144
" />
<path d="M104.2462 126.4144
L104.4366 126.3192
" />
<path d="M104.4366 126.3192
L104.9128 126.3192
" />
<path d="M104.9128 126.3192
L105.1033 126.4144
" />
<path d="M105.1033 126.4144
L105.1985 126.5096
" />
<path d="M105.1985 126.5096
L105.2938 126.7001
" />
<path d="M105.2938 126.7001
L105.2938 126.8906
" />
<path d="M105.2938 126.8906
L105.1985 127.1763
" />
<path d="M105.1985 127.1763
L104.0557 128.3192
" />
<path d="M104.0557 128.3192
L105.2938 128.3192
" />
<path d="M107.0081 126.3192
L106.6271 126.3192
" />
<path d="M106.6271 126.3192
L106.4366 126.4144
" />
<path d="M106.4366 126.4144
L106.3414 126.5096
" />
<path d="M106.3414 126.5096
L106.1509 126.7953
" />
<path d="M106.1509 126.7953
L106.0557 127.1763
" />
<path d="M106.0557 127.1763
L106.0557 127.9382
" />
<path d="M106.0557 127.9382
L106.1509 128.1287
" />
<path d="M106.1509 128.1287
L106.2462 128.2239
" />
<path d="M106.2462 128.2239
L106.4366 128.3192
" />
<path d="M106.4366 128.3192
L106.8176 128.3192
" />
<path d="M106.8176 128.3192
L107.0081 128.2239
" />
<path d="M107.0081 128.2239
L107.1033 128.1287
" />
<path d="M107.1033 128.1287
L107.1985 127.9382
" />
<path d="M107.1985 127.9382
L107.1985 127.4620
" />
<path d="M107.1985 127.4620
L107.1033 127.2715
" />
<path d="M107.1033 127.2715
L107.0081 127.1763
" />
<path d="M107.0081 127.1763
L106.8176 127.0811
" />
<path d="M106.8176 127.0811
L106.4366 127.0811
" />
<path d="M106.4366 127.0811
L106.2462 127.1763
" />
<path d="M106.2462 127.1763
L106.1509 127.2715
" />
<path d="M106.1509 127.2715
L106.0557 127.4620
" />
<path d="M108.4366 126.3192
L108.6271 126.3192
" />
<path d="M108.6271 126.3192
L108.8176 126.4144
" />
<path d="M108.8176 126.4144
L108.9128 126.5096
" />
<path d="M108.9128 126.5096
L109.0081 126.7001
" />
<path d="M109.0081 126.7001
L109.1033 127.0811
" />
<path d="M109.1033 127.0811
L109.1033 127.5573
" />
<path d="M109.1033 127.5573
L109.0081 127.9382
" />
<path d="M109.0081 127.9382
L108.9128 128.1287
" />
<path d="M108.9128 128.1287
L108.8176 128.2239
" />
<path d="M108.8176 128.2239
L108.6271 128.3192
" />
<path d="M108.6271 128.3192
L108.4366 128.3192
" />
<path d="M108.4366 128.3192
L108.2462 128.2239
" />
<path d="M108.2462 128.2239
L108.1509 128.1287
" />
<path d="M108.1509 128.1287
L108.0557 127.9382
" />
<path d="M108.0557 127.9382
L107.9604 127.5573
" />
<path d="M107.9604 127.5573
L107.9604 127.0811
" />
<path d="M107.9604 127.0811
L108.0557 126.7001
" />
<path d="M108.0557 126.7001
L108.1509 126.5096
" />
<path d="M108.1509 126.5096
L108.2462 126.4144
" />
<path d="M108.2462 126.4144
L108.4366 126.3192
" />
<path d="M109.8652 126.3192
L109.8652 126.7001
" />
<path d="M110.6271 126.3192
L110.6271 126.7001
" />
<path d="M113.5795 129.0811
L113.4843 128.9858
" />
<path d="M113.4843 128.9858
L113.2938 128.7001
" />
<path d="M113.2938 128.7001
L113.1985 128.5096
" />
<path d="M113.1985 128.5096
L113.1033 128.2239
" />
<path d="M113.1033 128.2239
L113.0081 127.7477
" />
<path d="M113.0081 127.7477
L113.0081 127.3668
" />
<path d="M113.0081 127.3668
L113.1033 126.8906
" />
<path d="M113.1033 126.8906
L113.1985 126.6049
" />
<path d="M113.1985 126.6049
L113.2938 126.4144
" />
<path d="M113.2938 126.4144
L113.4843 126.1287
" />
<path d="M113.4843 126.1287
L113.5795 126.0334
" />
<path d="M115.1985 126.9858
L115.1985 128.3192
" />
<path d="M114.7224 126.2239
L114.2462 127.6525
" />
<path d="M114.2462 127.6525
L115.4843 127.6525
" />
<path d="M117.7700 128.3192
L117.7700 126.3192
" />
<path d="M118.6271 128.3192
L118.6271 127.2715
" />
<path d="M118.6271 127.2715
L118.5319 127.0811
" />
<path d="M118.5319 127.0811
L118.3414 126.9858
" />
<path d="M118.3414 126.9858
L118.0557 126.9858
" />
<path d="M118.0557 126.9858
L117.8652 127.0811
" />
<path d="M117.8652 127.0811
L117.7700 127.1763
" />
<path d="M119.8652 128.3192
L119.6747 128.2239
" />
<path d="M119.6747 128.2239
L119.5795 128.1287
" />
<path d="M119.5795 128.1287
L119.4843 127.9382
" />
<path d="M119.4843 127.9382
L119.4843 127.3668
" />
<path d="M119.4843 127.3668
L119.5795 127.1763
" />
<path d="M119.5795 127.1763
L119.6747 127.0811
" />
<path d="M119.6747 127.0811
L119.8652 126.9858
" />
<path d="M119.8652 126.9858
L120.1509 126.9858
" />
<path d="M120.1509 126.9858
L120.3414 127.0811
" />
<path d="M120.3414 127.0811
L120.4366 127.1763
" />
<path d="M120.4366 127.1763
L120.5319 127.3668
" />
<path d="M120.5319 127.3668
L120.5319 127.9382
" />
<path d="M120.5319 127.9382
L120.4366 128.1287
" />
<path d="M120.4366 128.1287
L120.3414 128.2239
" />
<path d="M120.3414 128.2239
L120.1509 128.3192
" />
<path d="M120.1509 128.3192
L119.8652 128.3192
" />
<path d="M121.6747 128.3192
L121.4843 128.2239
" />
<path d="M121.4843 128.2239
L121.3890 128.0334
" />
<path d="M121.3890 128.0334
L121.3890 126.3192
" />
<path d="M123.1985 128.2239
L123.0081 128.3192
" />
<path d="M123.0081 128.3192
L122.6271 128.3192
" />
<path d="M122.6271 128.3192
L122.4366 128.2239
" />
<path d="M122.4366 128.2239
L122.3414 128.0334
" />
<path d="M122.3414 128.0334
L122.3414 127.2715
" />
<path d="M122.3414 127.2715
L122.4366 127.0811
" />
<path d="M122.4366 127.0811
L122.6271 126.9858
" />
<path d="M122.6271 126.9858
L123.0081 126.9858
" />
<path d="M123.0081 126.9858
L123.1985 127.0811
" />
<path d="M123.1985 127.0811
L123.2938 127.2715
" />
<path d="M123.2938 127.2715
L123.2938 127.4620
" />
<path d="M123.2938 127.4620
L122.3414 127.6525
" />
<path d="M124.0557 128.2239
L124.2462 128.3192
" />
<path d="M124.2462 128.3192
L124.6271 128.3192
" />
<path d="M124.6271 128.3192
L124.8176 128.2239
" />
<path d="M124.8176 128.2239
L124.9128 128.0334
" />
<path d="M124.9128 128.0334
L124.9128 127.9382
" />
<path d="M124.9128 127.9382
L124.8176 127.7477
" />
<path d="M124.8176 127.7477
L124.6271 127.6525
" />
<path d="M124.6271 127.6525
L124.3414 127.6525
" />
<path d="M124.3414 127.6525
L124.1509 127.5573
" />
<path d="M124.1509 127.5573
L124.0557 127.3668
" />
<path d="M124.0557 127.3668
L124.0557 127.2715
" />
<path d="M124.0557 127.2715
L124.1509 127.0811
" />
<path d="M124.1509 127.0811
L124.3414 126.9858
" />
<path d="M124.3414 126.9858
L124.6271 126.9858
" />
<path d="M124.6271 126.9858
L124.8176 127.0811
" />
<path d="M125.5795 129.0811
L125.6747 128.9858
" />
<path d="M125.6747 128.9858
L125.8652 128.7001
" />
<path d="M125.8652 128.7001
L125.9604 128.5096
" />
<path d="M125.9604 128.5096
L126.0557 128.2239
" />
<path d="M126.0557 128.2239
L126.1509 127.7477
" />
<path d="M126.1509 127.7477
L126.1509 127.3668
" />
<path d="M126.1509 127.3668
L126.0557 126.8906
" />
<path d="M126.0557 126.8906
L125.9604 126.6049
" />
<path d="M125.9604 126.6049
L125.8652 126.4144
" />
<path d="M125.8652 126.4144
L125.6747 126.1287
" />
<path d="M125.6747 126.1287
L125.5795 126.0334
" />
<path d="M129.1985 129.0811
L129.1033 128.9858
" />
<path d="M129.1033 128.9858
L128.9128 128.7001
" />
<path d="M128.9128 128.7001
L128.8176 128.5096
" />
<path d="M128.8176 128.5096
L128.7224 128.2239
" />
<path d="M128.7224 128.2239
L128.6271 127.7477
" />
<path d="M128.6271 127.7477
L128.6271 127.3668
" />
<path d="M128.6271 127.3668
L128.7224 126.8906
" />
<path d="M128.7224 126.8906
L128.8176 126.6049
" />
<path d="M128.8176 126.6049
L128.9128 126.4144
" />
<path d="M128.9128 126.4144
L129.1033 126.1287
" />
<path d="M129.1033 126.1287
L129.1985 126.0334
" />
<path d="M129.9604 126.9858
L129.9604 128.3192
" />
<path d="M129.9604 127.1763
L130.0557 127.0811
" />
<path d="M130.0557 127.0811
L130.2462 126.9858
" />
<path d="M130.2462 126.9858
L130.5319 126.9858
" />
<path d="M130.5319 126.9858
L130.7224 127.0811
" />
<path d="M130.7224 127.0811
L130.8176 127.2715
" />
<path d="M130.8176 127.2715
L130.8176 128.3192
" />
<path d="M132.0557 128.3192
L131.8652 128.2239
" />
<path d="M131.8652 128.2239
L131.7700 128.1287
" />
<path d="M131.7700 128.1287
L131.6747 127.9382
" />
<path d="M131.6747 127.9382
L131.6747 127.3668
" />
<path d="M131.6747 127.3668
L131.7700 127.1763
" />
<path d="M131.7700 127.1763
L131.8652 127.0811
" />
<path d="M131.8652 127.0811
L132.0557 126.9858
" />
<path d="M132.0557 126.9858
L132.3414 126.9858
" />
<path d="M132.3414 126.9858
L132.5319 127.0811
" />
<path d="M132.5319 127.0811
L132.6271 127.1763
" />
<path d="M132.6271 127.1763
L132.7224 127.3668
" />
<path d="M132.7224 127.3668
L132.7224 127.9382
" />
<path d="M132.7224 127.9382
L132.6271 128.1287
" />
<path d="M132.6271 128.1287
L132.5319 128.2239
" />
<path d="M132.5319 128.2239
L132.3414 128.3192
" />
<path d="M132.3414 128.3192
L132.0557 128.3192
" />
<path d="M133.2938 126.9858
L134.0557 126.9858
" />
<path d="M133.5795 126.3192
L133.5795 128.0334
" />
<path d="M133.5795 128.0334
L133.6747 128.2239
" />
<path d="M133.6747 128.2239
L133.8652 128.3192
" />
<path d="M133.8652 128.3192
L134.0557 128.3192
" />
<path d="M136.2462 126.9858
L136.2462 128.9858
" />
<path d="M136.2462 127.0811
L136.4366 126.9858
" />
<path d="M136.4366 126.9858
L136.8176 126.9858
" />
<path d="M136.8176 126.9858
L137.0081 127.0811
" />
<path d="M137.0081 127.0811
L137.1033 127.1763
" />
<path d="M137.1033 127.1763
L137.1985 127.3668
" />
<path d="M137.1985 127.3668
L137.1985 127.9382
" />
<path d="M137.1985 127.9382
L137.1033 128.1287
" />
<path d="M137.1033 128.1287
L137.0081 128.2239
" />
<path d="M137.0081 128.2239
L136.8176 128.3192
" />
<path d="M136.8176 128.3192
L136.4366 128.3192
" />
<path d="M136.4366 128.3192
L136.2462 128.2239
" />
<path d="M138.3414 128.3192
L138.1509 128.2239
" />
<path d="M138.1509 128.2239
L138.0557 128.0334
" />
<path d="M138.0557 128.0334
L138.0557 126.3192
" />
<path d="M139.9604 128.3192
L139.9604 127.2715
" />
<path d="M139.9604 127.2715
L139.8652 127.0811
" />
<path d="M139.8652 127.0811
L139.6747 126.9858
" />
<path d="M139.6747 126.9858
L139.2938 126.9858
" />
<path d="M139.2938 126.9858
L139.1033 127.0811
" />
<path d="M139.9604 128.2239
L139.7700 128.3192
" />
<path d="M139.7700 128.3192
L139.2938 128.3192
" />
<path d="M139.2938 128.3192
L139.1033 128.2239
" />
<path d="M139.1033 128.2239
L139.0081 128.0334
" />
<path d="M139.0081 128.0334
L139.0081 127.8430
" />
<path d="M139.0081 127.8430
L139.1033 127.6525
" />
<path d="M139.1033 127.6525
L139.2938 127.5573
" />
<path d="M139.2938 127.5573
L139.7700 127.5573
" />
<path d="M139.7700 127.5573
L139.9604 127.4620
" />
<path d="M140.6271 126.9858
L141.3890 126.9858
" />
<path d="M140.9128 126.3192
L140.9128 128.0334
" />
<path d="M140.9128 128.0334
L141.0081 128.2239
" />
<path d="M141.0081 128.2239
L141.1985 128.3192
" />
<path d="M141.1985 128.3192
L141.3890 128.3192
" />
<path d="M142.8176 128.2239
L142.6271 128.3192
" />
<path d="M142.6271 128.3192
L142.2462 128.3192
" />
<path d="M142.2462 128.3192
L142.0557 128.2239
" />
<path d="M142.0557 128.2239
L141.9604 128.0334
" />
<path d="M141.9604 128.0334
L141.9604 127.2715
" />
<path d="M141.9604 127.2715
L142.0557 127.0811
" />
<path d="M142.0557 127.0811
L142.2462 126.9858
" />
<path d="M142.2462 126.9858
L142.6271 126.9858
" />
<path d="M142.6271 126.9858
L142.8176 127.0811
" />
<path d="M142.8176 127.0811
L142.9128 127.2715
" />
<path d="M142.9128 127.2715
L142.9128 127.4620
" />
<path d="M142.9128 127.4620
L141.9604 127.6525
" />
<path d="M144.6271 128.3192
L144.6271 126.3192
" />
<path d="M144.6271 128.2239
L144.4366 128.3192
" />
<path d="M144.4366 128.3192
L144.0557 128.3192
" />
<path d="M144.0557 128.3192
L143.8652 128.2239
" />
<path d="M143.8652 128.2239
L143.7700 128.1287
" />
<path d="M143.7700 128.1287
L143.6747 127.9382
" />
<path d="M143.6747 127.9382
L143.6747 127.3668
" />
<path d="M143.6747 127.3668
L143.7700 127.1763
" />
<path d="M143.7700 127.1763
L143.8652 127.0811
" />
<path d="M143.8652 127.0811
L144.0557 126.9858
" />
<path d="M144.0557 126.9858
L144.4366 126.9858
" />
<path d="M144.4366 126.9858
L144.6271 127.0811
" />
<path d="M145.3890 129.0811
L145.4843 128.9858
" />
<path d="M145.4843 128.9858
L145.6747 128.7001
" />
<path d="M145.6747 128.7001
L145.7700 128.5096
" />
<path d="M145.7700 128.5096
L145.8652 128.2239
" />
<path d="M145.8652 128.2239
L145.9604 127.7477
" />
<path d="M145.9604 127.7477
L145.9604 127.3668
" />
<path d="M145.9604 127.3668
L145.8652 126.8906
" />
<path d="M145.8652 126.8906
L145.7700 126.6049
" />
<path d="M145.7700 126.6049
L145.6747 126.4144
" />
<path d="M145.6747 126.4144
L145.4843 126.1287
" />
<path d="M145.4843 126.1287
L145.3890 126.0334
" />
</g></g> 
</svg>
