M48
; DRILL file {KiCad 8.0.8} date 2025-06-28T23:01:50-0400
; FORMAT={-:-/ absolute / metric / decimal}
; #@! TF.CreationDate,2025-06-28T23:01:50-04:00
; #@! TF.GenerationSoftware,Kicad,Pcbnew,8.0.8
; #@! TF.FileFunction,Plated,1,2,PTH
FMAT,2
METRIC
; #@! TA.AperFunction,Plated,PTH,ComponentDrill
T1C0.800
; #@! TA.AperFunction,Plated,PTH,ComponentDrill
T2C0.900
; #@! TA.AperFunction,Plated,PTH,ViaDrill
T3C1.000
; #@! TA.AperFunction,Plated,PTH,ComponentDrill
T4C1.100
; #@! TA.AperFunction,Plated,PTH,ComponentDrill
T5C1.300
; #@! TA.AperFunction,Plated,PTH,ComponentDrill
T6C1.400
; #@! TA.AperFunction,Plated,PTH,ViaDrill
T7C1.500
%
G90
G05
T1
X2.38Y-33.75
X2.38Y-41.0
X2.38Y-47.75
X10.0Y-33.75
X10.0Y-41.0
X10.0Y-47.75
X12.83Y-57.96
X12.98Y-64.46
X12.98Y-69.96
X13.21Y-7.0
X15.13Y-52.25
X15.37Y-57.96
X15.52Y-64.46
X15.52Y-69.96
X15.75Y-7.0
X17.3Y-25.5
X17.3Y-37.5
X17.45Y-31.5
X17.67Y-52.25
X18.71Y-19.75
X19.71Y-7.0
X19.84Y-25.5
X19.84Y-37.5
X19.99Y-31.5
X21.13Y-50.25
X21.25Y-19.75
X21.31Y-62.73
X21.31Y-65.27
X21.31Y-67.81
X21.475Y-71.35
X21.475Y-73.89
X21.475Y-76.43
X22.25Y-7.0
X23.67Y-50.25
X25.21Y-17.75
X25.425Y-27.65
X25.425Y-30.19
X25.425Y-32.73
X25.5Y-36.21
X25.5Y-38.75
X25.5Y-41.29
X25.71Y-7.0
X26.06Y-55.48
X26.06Y-58.02
X26.06Y-60.56
X27.75Y-17.75
X28.25Y-7.0
X30.725Y-21.1
X30.725Y-23.64
X30.725Y-26.18
X34.5Y-59.5
X34.5Y-64.5
X34.85Y-70.5
X36.25Y-54.0
X37.04Y-59.5
X37.04Y-64.5
X37.39Y-70.5
X38.79Y-54.0
X40.88Y-17.25
X40.88Y-23.75
X40.88Y-29.75
X41.46Y-12.5
X42.58Y-52.25
X43.37Y-63.21
X43.37Y-65.75
X43.37Y-68.29
X43.37Y-71.85
X43.37Y-74.39
X43.37Y-76.93
X43.42Y-17.25
X43.42Y-23.75
X43.42Y-29.75
X44.0Y-12.5
X45.12Y-52.25
X47.96Y-10.75
X48.62Y-56.71
X48.62Y-59.25
X48.62Y-61.79
X50.5Y-10.75
X50.73Y-19.85
X50.73Y-22.39
X50.73Y-24.93
X50.87Y-28.515
X50.87Y-31.055
X50.87Y-33.595
X56.63Y-57.75
X56.63Y-64.25
X56.63Y-70.25
X56.725Y-13.6
X56.725Y-16.14
X56.725Y-18.68
X58.71Y-52.25
X59.17Y-57.75
X59.17Y-64.25
X59.17Y-70.25
X61.25Y-52.25
X64.96Y-51.5
X65.725Y-72.35
X65.725Y-74.89
X65.725Y-77.43
X65.75Y-63.21
X65.75Y-65.75
X65.75Y-68.29
X66.21Y-21.055
X66.21Y-23.595
X67.5Y-51.5
X67.71Y-30.715
X67.71Y-33.255
X70.89Y-56.48
X70.89Y-59.02
X70.89Y-61.56
X76.51Y-45.5
X79.05Y-45.5
X79.67Y-23.105
X79.67Y-25.645
X87.06Y-43.5
X89.6Y-43.5
T2
X12.96Y-12.0
X15.5Y-12.0
X19.225Y-12.25
X21.765Y-12.25
X26.225Y-12.25
X28.765Y-12.25
T3
X30.425Y-73.4
T4
X66.67Y-17.0
X69.21Y-17.0
X71.75Y-17.0
X79.59Y-16.305
X82.13Y-16.305
X84.67Y-16.305
X93.75Y-44.0
X93.75Y-46.54
X93.75Y-49.08
T5
X5.75Y-17.25
X5.75Y-22.25
X79.5Y-67.718
X84.5Y-67.718
X94.21Y-24.75
X94.21Y-29.75
T6
X45.675Y-34.15
X45.675Y-46.85
X54.9Y-7.25
X67.6Y-7.25
T7
X15.5Y-16.75
X31.5Y-51.25
X34.675Y-11.4
X54.5Y-48.75
X71.0Y-46.5
X74.75Y-39.5
M30
