%TF.GenerationSoftware,KiCad,Pcbnew,8.0.8*%
%TF.CreationDate,2025-08-16T08:58:07-04:00*%
%TF.ProjectId,multimeter,6d756c74-696d-4657-9465-722e6b696361,rev?*%
%TF.SameCoordinates,Original*%
%TF.FileFunction,Plated,1,2,PTH,Mixed*%
%TF.FilePolarity,Positive*%
%FSLAX46Y46*%
G04 Gerber Fmt 4.6, Leading zero omitted, Abs format (unit mm)*
G04 Created by KiCad (PCBNEW 8.0.8) date 2025-08-16 08:58:07*
%MOMM*%
%LPD*%
G01*
G04 APERTURE LIST*
%TA.AperFunction,ComponentDrill*%
%ADD10C,0.750000*%
%TD*%
%TA.AperFunction,ComponentDrill*%
%ADD11C,0.800000*%
%TD*%
%TA.AperFunction,ComponentDrill*%
%ADD12C,0.900000*%
%TD*%
%TA.AperFunction,ViaDrill*%
%ADD13C,1.000000*%
%TD*%
G04 aperture for slot hole*
%TA.AperFunction,ComponentDrill*%
%ADD14C,1.000000*%
%TD*%
%TA.AperFunction,ComponentDrill*%
%ADD15C,1.000000*%
%TD*%
%TA.AperFunction,ComponentDrill*%
%ADD16C,1.100000*%
%TD*%
%TA.AperFunction,ComponentDrill*%
%ADD17C,1.300000*%
%TD*%
%TA.AperFunction,ComponentDrill*%
%ADD18C,1.320800*%
%TD*%
%TA.AperFunction,ComponentDrill*%
%ADD19C,1.400000*%
%TD*%
G04 aperture for slot hole*
%TA.AperFunction,ComponentDrill*%
%ADD20C,1.800000*%
%TD*%
G04 APERTURE END LIST*
D10*
%TO.C,Q23*%
X43310000Y26150000D03*
%TO.C,Q19*%
X43320000Y51680000D03*
%TO.C,Q22*%
X43410000Y40250000D03*
%TO.C,Q20*%
X43410000Y33650000D03*
%TO.C,Q17*%
X43520000Y59480000D03*
%TO.C,Q18*%
X43690000Y67510000D03*
%TO.C,Q23*%
X44580000Y27420000D03*
X44580000Y24880000D03*
%TO.C,Q19*%
X44590000Y52950000D03*
X44590000Y50410000D03*
%TO.C,Q22*%
X44680000Y41520000D03*
X44680000Y38980000D03*
%TO.C,Q20*%
X44680000Y34920000D03*
X44680000Y32380000D03*
%TO.C,Q17*%
X44790000Y60750000D03*
X44790000Y58210000D03*
%TO.C,Q18*%
X44960000Y68780000D03*
X44960000Y66240000D03*
%TO.C,Q24*%
X70980000Y63120000D03*
%TO.C,Q26*%
X70980000Y56220000D03*
%TO.C,Q25*%
X71050000Y70350000D03*
%TO.C,Q24*%
X72250000Y64390000D03*
X72250000Y61850000D03*
%TO.C,Q26*%
X72250000Y57490000D03*
X72250000Y54950000D03*
%TO.C,Q25*%
X72320000Y71620000D03*
X72320000Y69080000D03*
%TO.C,Q31*%
X74580000Y30180000D03*
%TO.C,Q30*%
X74580000Y24120000D03*
%TO.C,Q32*%
X74680000Y18120000D03*
%TO.C,Q31*%
X75850000Y31450000D03*
X75850000Y28910000D03*
%TO.C,Q30*%
X75850000Y25390000D03*
X75850000Y22850000D03*
%TO.C,Q32*%
X75950000Y19390000D03*
X75950000Y16850000D03*
%TO.C,Q29*%
X98650000Y58350000D03*
%TO.C,Q28*%
X98680000Y72420000D03*
%TO.C,Q27*%
X98680000Y65420000D03*
%TO.C,Q29*%
X99920000Y59620000D03*
X99920000Y57080000D03*
%TO.C,Q28*%
X99950000Y73690000D03*
X99950000Y71150000D03*
%TO.C,Q27*%
X99950000Y66690000D03*
X99950000Y64150000D03*
D11*
%TO.C,SW3*%
X12085000Y34850000D03*
X19705000Y34850000D03*
%TO.C,R11*%
X27010000Y42650000D03*
%TO.C,R10*%
X27010000Y37750000D03*
%TO.C,R3*%
X27030000Y27450000D03*
%TO.C,R13*%
X27030000Y22750000D03*
%TO.C,R9*%
X27110000Y49750000D03*
%TO.C,R1*%
X27210000Y63950000D03*
%TO.C,R7*%
X27210000Y59150000D03*
%TO.C,R4*%
X27210000Y54250000D03*
%TO.C,R12*%
X27210000Y32650000D03*
%TO.C,R8*%
X27290000Y69050000D03*
%TO.C,R15*%
X30550000Y15130000D03*
X30550000Y4970000D03*
%TO.C,R11*%
X37170000Y42650000D03*
%TO.C,R10*%
X37170000Y37750000D03*
%TO.C,R3*%
X37190000Y27450000D03*
%TO.C,R13*%
X37190000Y22750000D03*
%TO.C,R9*%
X37270000Y49750000D03*
%TO.C,R1*%
X37370000Y63950000D03*
%TO.C,R7*%
X37370000Y59150000D03*
%TO.C,R4*%
X37370000Y54250000D03*
%TO.C,R12*%
X37370000Y32650000D03*
%TO.C,R8*%
X37450000Y69050000D03*
%TO.C,R14*%
X40650000Y15130000D03*
X40650000Y4970000D03*
%TO.C,R28*%
X45210000Y15150000D03*
X45210000Y4990000D03*
%TO.C,R5*%
X53870000Y57950000D03*
%TO.C,R17*%
X53950000Y71950000D03*
%TO.C,R16*%
X53970000Y67150000D03*
%TO.C,R18*%
X53970000Y62750000D03*
%TO.C,R19*%
X53970000Y53450000D03*
%TO.C,R25*%
X58150000Y32550000D03*
%TO.C,R26*%
X58150000Y23950000D03*
%TO.C,R24*%
X58170000Y28450000D03*
%TO.C,R33*%
X58170000Y19550000D03*
%TO.C,R27*%
X58170000Y15450000D03*
%TO.C,R5*%
X64030000Y57950000D03*
%TO.C,R17*%
X64110000Y71950000D03*
%TO.C,R16*%
X64130000Y67150000D03*
%TO.C,R18*%
X64130000Y62750000D03*
%TO.C,R19*%
X64130000Y53450000D03*
%TO.C,R25*%
X68310000Y32550000D03*
%TO.C,R26*%
X68310000Y23950000D03*
%TO.C,R24*%
X68330000Y28450000D03*
%TO.C,R33*%
X68330000Y19550000D03*
%TO.C,R27*%
X68330000Y15450000D03*
%TO.C,R21*%
X82350000Y74350000D03*
%TO.C,R6*%
X82370000Y59350000D03*
%TO.C,R23*%
X82370000Y54950000D03*
%TO.C,R20*%
X82450000Y69150000D03*
%TO.C,R22*%
X82470000Y64250000D03*
%TO.C,R21*%
X92510000Y74350000D03*
%TO.C,R6*%
X92530000Y59350000D03*
%TO.C,R23*%
X92530000Y54950000D03*
%TO.C,R20*%
X92610000Y69150000D03*
%TO.C,R22*%
X92630000Y64250000D03*
%TO.C,R30*%
X94750000Y80020000D03*
%TO.C,R32*%
X100790000Y40850000D03*
%TO.C,R30*%
X104910000Y80020000D03*
%TO.C,R29*%
X107270000Y34230000D03*
X107270000Y24070000D03*
%TO.C,R32*%
X110950000Y40850000D03*
%TO.C,R31*%
X114570000Y30130000D03*
X114570000Y19970000D03*
%TO.C,R34*%
X114850000Y79920000D03*
%TO.C,R2*%
X120810000Y36990000D03*
X120810000Y26830000D03*
%TO.C,R34*%
X125010000Y79920000D03*
D12*
%TO.C,D4*%
X23810000Y5250000D03*
X26350000Y5250000D03*
%TO.C,D3*%
X35550000Y7720000D03*
X35550000Y5180000D03*
%TO.C,D5*%
X48860000Y5220000D03*
X51400000Y5220000D03*
%TO.C,D2*%
X109230000Y71790000D03*
X109230000Y69250000D03*
%TO.C,D1*%
X109330000Y78460000D03*
X109330000Y75920000D03*
%TD*%
D13*
X11350000Y11150000D03*
X14650000Y8350000D03*
X15850000Y11350000D03*
X18550000Y51450000D03*
X19650000Y26150000D03*
X19750000Y10650000D03*
X22850000Y45750000D03*
X22850000Y18250000D03*
X26450000Y14150000D03*
X41850000Y72550000D03*
X44550000Y75150000D03*
X47450000Y29450000D03*
X48450000Y55350000D03*
X48550000Y40350000D03*
X51250000Y68850000D03*
X51550000Y13850000D03*
X52450000Y33850000D03*
X52450000Y20850000D03*
X55550000Y41150000D03*
X73450000Y78450000D03*
X76650000Y63350000D03*
X77450000Y68250000D03*
X77850000Y57250000D03*
X77950000Y71750000D03*
X80750000Y36350000D03*
X81050000Y21450000D03*
X82630000Y51450000D03*
X92730000Y30220000D03*
X98730000Y34720000D03*
X103750000Y76650000D03*
X104350000Y62150000D03*
X105030000Y70920000D03*
X107030000Y53620000D03*
X110830000Y46820000D03*
X114630000Y64820000D03*
X116530000Y60720000D03*
X117580000Y52270000D03*
X117950000Y6050000D03*
X119350000Y23250000D03*
X119850000Y12250000D03*
X122950000Y10450000D03*
D14*
%TO.C,J5*%
X7680000Y22470000D02*
X7680000Y21870000D01*
X10980000Y17470000D02*
X10380000Y17470000D01*
X13680000Y22470000D02*
X13680000Y21870000D01*
D15*
%TO.C,SW4*%
X15530000Y73420000D03*
X18070000Y73420000D03*
X20610000Y73420000D03*
%TO.C,A_Calib.*%
X83530000Y16420000D03*
X87280000Y16420000D03*
X91030000Y16420000D03*
D16*
%TO.C,Q1*%
X92390000Y23325000D03*
X94930000Y23325000D03*
X97470000Y23325000D03*
%TO.C,Q33*%
X104670000Y20010000D03*
X107210000Y20010000D03*
X109750000Y20010000D03*
%TO.C,Q34*%
X117470000Y45890000D03*
X117470000Y43350000D03*
X117470000Y40810000D03*
D17*
%TO.C,J1*%
X105130000Y8420000D03*
X110130000Y8420000D03*
D18*
%TO.C,J2*%
X119890000Y65620000D03*
%TO.C,J4*%
X119890000Y57820000D03*
%TO.C,J2*%
X124970000Y65620000D03*
%TO.C,J4*%
X124970000Y57820000D03*
D19*
%TO.C,D6*%
X61400000Y47450000D03*
X74100000Y47450000D03*
%TO.C,D7*%
X80100000Y47650000D03*
X92800000Y47650000D03*
D20*
%TO.C,A_Calib.*%
X82080000Y8595000D02*
X82080000Y7595000D01*
X92480000Y8595000D02*
X92480000Y7595000D01*
M02*
