G04 #@! TF.GenerationSoftware,KiCad,Pcbnew,8.0.8*
G04 #@! TF.CreationDate,2025-08-20T08:10:51-04:00*
G04 #@! TF.ProjectId,multimeter,6d756c74-696d-4657-9465-722e6b696361,rev?*
G04 #@! TF.SameCoordinates,Original*
G04 #@! TF.FileFunction,Copper,L2,Bot*
G04 #@! TF.FilePolarity,Positive*
%FSLAX46Y46*%
G04 Gerber Fmt 4.6, Leading zero omitted, Abs format (unit mm)*
G04 Created by KiCad (PCBNEW 8.0.8) date 2025-08-20 08:10:51*
%MOMM*%
%LPD*%
G01*
G04 APERTURE LIST*
G04 Aperture macros list*
%AMRoundRect*
0 Rectangle with rounded corners*
0 $1 Rounding radius*
0 $2 $3 $4 $5 $6 $7 $8 $9 X,Y pos of 4 corners*
0 Add a 4 corners polygon primitive as box body*
4,1,4,$2,$3,$4,$5,$6,$7,$8,$9,$2,$3,0*
0 Add four circle primitives for the rounded corners*
1,1,$1+$1,$2,$3*
1,1,$1+$1,$4,$5*
1,1,$1+$1,$6,$7*
1,1,$1+$1,$8,$9*
0 Add four rect primitives between the rounded corners*
20,1,$1+$1,$2,$3,$4,$5,0*
20,1,$1+$1,$4,$5,$6,$7,0*
20,1,$1+$1,$6,$7,$8,$9,0*
20,1,$1+$1,$8,$9,$2,$3,0*%
G04 Aperture macros list end*
G04 #@! TA.AperFunction,ComponentPad*
%ADD10C,2.000000*%
G04 #@! TD*
G04 #@! TA.AperFunction,ComponentPad*
%ADD11R,2.000000X2.000000*%
G04 #@! TD*
G04 #@! TA.AperFunction,ComponentPad*
%ADD12O,1.600000X1.600000*%
G04 #@! TD*
G04 #@! TA.AperFunction,ComponentPad*
%ADD13C,1.600000*%
G04 #@! TD*
G04 #@! TA.AperFunction,ComponentPad*
%ADD14RoundRect,0.275000X0.625000X-0.275000X0.625000X0.275000X-0.625000X0.275000X-0.625000X-0.275000X0*%
G04 #@! TD*
G04 #@! TA.AperFunction,ComponentPad*
%ADD15R,1.800000X1.100000*%
G04 #@! TD*
G04 #@! TA.AperFunction,ComponentPad*
%ADD16O,1.905000X2.000000*%
G04 #@! TD*
G04 #@! TA.AperFunction,ComponentPad*
%ADD17R,1.905000X2.000000*%
G04 #@! TD*
G04 #@! TA.AperFunction,ComponentPad*
%ADD18C,1.800000*%
G04 #@! TD*
G04 #@! TA.AperFunction,ComponentPad*
%ADD19R,1.800000X1.800000*%
G04 #@! TD*
G04 #@! TA.AperFunction,ComponentPad*
%ADD20C,2.082800*%
G04 #@! TD*
G04 #@! TA.AperFunction,ComponentPad*
%ADD21C,2.800000*%
G04 #@! TD*
G04 #@! TA.AperFunction,ComponentPad*
%ADD22RoundRect,0.250001X-1.149999X-1.149999X1.149999X-1.149999X1.149999X1.149999X-1.149999X1.149999X0*%
G04 #@! TD*
G04 #@! TA.AperFunction,ComponentPad*
%ADD23O,2.800000X2.800000*%
G04 #@! TD*
G04 #@! TA.AperFunction,ComponentPad*
%ADD24R,2.800000X2.800000*%
G04 #@! TD*
G04 #@! TA.AperFunction,ComponentPad*
%ADD25R,2.800000X3.800000*%
G04 #@! TD*
G04 #@! TA.AperFunction,ComponentPad*
%ADD26O,2.000000X1.905000*%
G04 #@! TD*
G04 #@! TA.AperFunction,ComponentPad*
%ADD27R,2.000000X1.905000*%
G04 #@! TD*
G04 #@! TA.AperFunction,ComponentPad*
%ADD28R,1.600000X1.600000*%
G04 #@! TD*
G04 #@! TA.AperFunction,ComponentPad*
%ADD29R,2.600000X2.000000*%
G04 #@! TD*
G04 #@! TA.AperFunction,ComponentPad*
%ADD30R,2.000000X2.600000*%
G04 #@! TD*
G04 #@! TA.AperFunction,ViaPad*
%ADD31C,2.500000*%
G04 #@! TD*
G04 #@! TA.AperFunction,Conductor*
%ADD32C,1.500000*%
G04 #@! TD*
G04 #@! TA.AperFunction,Conductor*
%ADD33C,2.000000*%
G04 #@! TD*
G04 #@! TA.AperFunction,Conductor*
%ADD34C,3.500000*%
G04 #@! TD*
G04 APERTURE END LIST*
D10*
X50635000Y-40410000D03*
X53175000Y-40410000D03*
D11*
X55715000Y-40410000D03*
D12*
X135895000Y-72980000D03*
D13*
X146055000Y-72980000D03*
D12*
X99135000Y-55880000D03*
D13*
X88975000Y-55880000D03*
D14*
X111355000Y-88440000D03*
X109285000Y-89710000D03*
D15*
X111355000Y-90980000D03*
D16*
X132575000Y-90505000D03*
X130035000Y-90505000D03*
D17*
X127495000Y-90505000D03*
D18*
X70655000Y-106110000D03*
D19*
X70655000Y-108650000D03*
D12*
X72275000Y-76080000D03*
D13*
X62115000Y-76080000D03*
D14*
X111355000Y-82380000D03*
X109285000Y-83650000D03*
D15*
X111355000Y-84920000D03*
D14*
X107825000Y-42210000D03*
X105755000Y-43480000D03*
D15*
X107825000Y-44750000D03*
D12*
X127635000Y-54480000D03*
D13*
X117475000Y-54480000D03*
D12*
X129855000Y-33810000D03*
D13*
X140015000Y-33810000D03*
D20*
X160075000Y-48210000D03*
X154995000Y-48210000D03*
D21*
X145235000Y-105410000D03*
D22*
X140235000Y-105410000D03*
D12*
X155915000Y-87000000D03*
D13*
X155915000Y-76840000D03*
D14*
X135425000Y-54210000D03*
X133355000Y-55480000D03*
D15*
X135425000Y-56750000D03*
D14*
X80185000Y-78910000D03*
X78115000Y-80180000D03*
D15*
X80185000Y-81450000D03*
D14*
X135455000Y-40140000D03*
X133385000Y-41410000D03*
D15*
X135455000Y-42680000D03*
D12*
X103415000Y-81280000D03*
D13*
X93255000Y-81280000D03*
D12*
X75755000Y-98700000D03*
D13*
X75755000Y-108860000D03*
D18*
X86505000Y-108610000D03*
D19*
X83965000Y-108610000D03*
D23*
X96505000Y-66380000D03*
D24*
X109205000Y-66380000D03*
D16*
X139775000Y-93820000D03*
X142315000Y-93820000D03*
D17*
X144855000Y-93820000D03*
D25*
X117185000Y-105735000D03*
X127585000Y-105735000D03*
D10*
X118635000Y-97410000D03*
X122385000Y-97410000D03*
D11*
X126135000Y-97410000D03*
D12*
X99235000Y-46680000D03*
D13*
X89075000Y-46680000D03*
D14*
X107755000Y-56340000D03*
X105685000Y-57610000D03*
D15*
X107755000Y-58880000D03*
D12*
X99215000Y-41880000D03*
D13*
X89055000Y-41880000D03*
D14*
X80095000Y-60880000D03*
X78025000Y-62150000D03*
D15*
X80095000Y-63420000D03*
D12*
X72475000Y-81180000D03*
D13*
X62315000Y-81180000D03*
D20*
X160075000Y-56010000D03*
X154995000Y-56010000D03*
D23*
X127905000Y-66180000D03*
D24*
X115205000Y-66180000D03*
D12*
X103435000Y-94280000D03*
D13*
X93275000Y-94280000D03*
D12*
X72475000Y-59580000D03*
D13*
X62315000Y-59580000D03*
D12*
X99235000Y-60380000D03*
D13*
X89075000Y-60380000D03*
D12*
X127715000Y-44680000D03*
D13*
X117555000Y-44680000D03*
D26*
X152575000Y-67940000D03*
X152575000Y-70480000D03*
D27*
X152575000Y-73020000D03*
D12*
X149675000Y-83700000D03*
D13*
X149675000Y-93860000D03*
D12*
X72295000Y-86380000D03*
D13*
X62135000Y-86380000D03*
D12*
X127615000Y-39480000D03*
D13*
X117455000Y-39480000D03*
D12*
X103435000Y-85380000D03*
D13*
X93275000Y-85380000D03*
D14*
X80185000Y-72310000D03*
X78115000Y-73580000D03*
D15*
X80185000Y-74850000D03*
D18*
X144435000Y-37910000D03*
D19*
X144435000Y-35370000D03*
D14*
X135455000Y-47140000D03*
X133385000Y-48410000D03*
D15*
X135455000Y-49680000D03*
D12*
X103435000Y-98380000D03*
D13*
X93275000Y-98380000D03*
D12*
X160115000Y-33910000D03*
D13*
X149955000Y-33910000D03*
D12*
X142375000Y-89760000D03*
D13*
X142375000Y-79600000D03*
D12*
X54810000Y-78980000D03*
D28*
X47190000Y-78980000D03*
D18*
X144335000Y-44580000D03*
D19*
X144335000Y-42040000D03*
D12*
X80315000Y-98680000D03*
D13*
X80315000Y-108840000D03*
D12*
X127735000Y-49580000D03*
D13*
X117575000Y-49580000D03*
D18*
X58915000Y-108580000D03*
D19*
X61455000Y-108580000D03*
D12*
X127635000Y-58880000D03*
D13*
X117475000Y-58880000D03*
D14*
X80465000Y-45050000D03*
X78395000Y-46320000D03*
D15*
X80465000Y-47590000D03*
D29*
X45785000Y-96360000D03*
D30*
X42785000Y-91660000D03*
X48785000Y-91660000D03*
D12*
X99235000Y-51080000D03*
D13*
X89075000Y-51080000D03*
D14*
X80295000Y-53080000D03*
X78225000Y-54350000D03*
D15*
X80295000Y-55620000D03*
D12*
X72475000Y-49880000D03*
D13*
X62315000Y-49880000D03*
D12*
X72295000Y-91080000D03*
D13*
X62135000Y-91080000D03*
D14*
X111455000Y-94440000D03*
X109385000Y-95710000D03*
D15*
X111455000Y-96980000D03*
D12*
X72275000Y-71180000D03*
D13*
X62115000Y-71180000D03*
D12*
X72475000Y-54680000D03*
D13*
X62315000Y-54680000D03*
D12*
X65655000Y-98700000D03*
D13*
X65655000Y-108860000D03*
D12*
X72375000Y-64080000D03*
D13*
X62215000Y-64080000D03*
D12*
X72555000Y-44780000D03*
D13*
X62395000Y-44780000D03*
D12*
X103415000Y-89880000D03*
D13*
X93255000Y-89880000D03*
D14*
X107755000Y-49440000D03*
X105685000Y-50710000D03*
D15*
X107755000Y-51980000D03*
D14*
X80085000Y-86410000D03*
X78015000Y-87680000D03*
D15*
X80085000Y-88950000D03*
D31*
X87555000Y-92980000D03*
X90655000Y-72680000D03*
X112955000Y-56580000D03*
X57955000Y-68080000D03*
X57955000Y-95580000D03*
X115855000Y-77480000D03*
X154455000Y-90580000D03*
X116155000Y-92380000D03*
X46455000Y-102680000D03*
X83555000Y-58480000D03*
X49755000Y-105480000D03*
X111755000Y-50480000D03*
X151635000Y-53110000D03*
X153055000Y-107780000D03*
X76955000Y-41280000D03*
X86655000Y-99980000D03*
X83655000Y-73480000D03*
X149735000Y-49010000D03*
X139455000Y-51680000D03*
X61555000Y-99680000D03*
X112555000Y-45580000D03*
X50955000Y-102480000D03*
X82555000Y-84380000D03*
X152685000Y-61560000D03*
X138855000Y-37180000D03*
X154955000Y-101580000D03*
X158055000Y-103380000D03*
X54855000Y-103180000D03*
X87555000Y-79980000D03*
X53655000Y-62380000D03*
X54755000Y-87680000D03*
X142135000Y-60210000D03*
X127835000Y-83610000D03*
X117735000Y-62380000D03*
X140135000Y-42910000D03*
X79655000Y-38680000D03*
X86355000Y-44980000D03*
X108555000Y-35380000D03*
X113055000Y-42080000D03*
X133835000Y-79110000D03*
X145935000Y-67010000D03*
D32*
X90655000Y-72680000D02*
X85955000Y-67980000D01*
X87555000Y-61580000D02*
X87875000Y-61580000D01*
X59055000Y-84440000D02*
X62315000Y-81180000D01*
X93255000Y-89880000D02*
X90655000Y-89880000D01*
X57955000Y-95580000D02*
X57955000Y-95260000D01*
X58215000Y-68080000D02*
X62215000Y-64080000D01*
X48647500Y-92130000D02*
X48647500Y-80437500D01*
X48647500Y-92130000D02*
X54505000Y-92130000D01*
X48647500Y-80437500D02*
X47190000Y-78980000D01*
X59055000Y-88000000D02*
X59055000Y-84440000D01*
X84955000Y-76480000D02*
X84955000Y-90380000D01*
X86355000Y-62780000D02*
X85955000Y-63180000D01*
X62315000Y-54680000D02*
X58555000Y-58440000D01*
X85955000Y-67980000D02*
X85955000Y-63180000D01*
X88755000Y-72680000D02*
X84955000Y-76480000D01*
X117475000Y-58880000D02*
X115255000Y-58880000D01*
X87555000Y-92980000D02*
X87875000Y-92980000D01*
X87875000Y-61580000D02*
X89075000Y-60380000D01*
X62135000Y-91080000D02*
X59055000Y-88000000D01*
X89075000Y-51080000D02*
X86355000Y-53800000D01*
X58555000Y-58440000D02*
X58555000Y-67480000D01*
X86355000Y-53800000D02*
X86355000Y-62780000D01*
X57955000Y-95260000D02*
X62135000Y-91080000D01*
X112955000Y-54200000D02*
X117575000Y-49580000D01*
X112955000Y-56580000D02*
X112955000Y-54200000D01*
X57955000Y-68080000D02*
X58215000Y-68080000D01*
X85955000Y-63180000D02*
X87555000Y-61580000D01*
X90655000Y-89880000D02*
X87555000Y-92980000D01*
X87875000Y-92980000D02*
X93275000Y-98380000D01*
X90655000Y-72680000D02*
X88755000Y-72680000D01*
X84955000Y-90380000D02*
X87555000Y-92980000D01*
X54505000Y-92130000D02*
X57955000Y-95580000D01*
X115255000Y-58880000D02*
X112955000Y-56580000D01*
X58555000Y-67480000D02*
X57955000Y-68080000D01*
X135055000Y-40140000D02*
X135895000Y-40140000D01*
X151055000Y-105480000D02*
X154955000Y-101580000D01*
X111055000Y-94440000D02*
X114095000Y-94440000D01*
X79695000Y-60880000D02*
X81155000Y-60880000D01*
X85355000Y-98680000D02*
X86655000Y-99980000D01*
X150755000Y-105480000D02*
X153055000Y-107780000D01*
X151635000Y-51560000D02*
X155315000Y-47880000D01*
X155915000Y-87000000D02*
X155915000Y-89120000D01*
X107355000Y-56340000D02*
X108095000Y-56340000D01*
X155955000Y-105480000D02*
X158055000Y-103380000D01*
X80315000Y-98680000D02*
X85355000Y-98680000D01*
X82485000Y-72310000D02*
X83655000Y-73480000D01*
X147495000Y-105410000D02*
X145235000Y-105410000D01*
X75755000Y-98700000D02*
X75755000Y-97480000D01*
X79685000Y-86410000D02*
X80525000Y-86410000D01*
X152585000Y-61460000D02*
X152685000Y-61560000D01*
X80065000Y-44390000D02*
X76955000Y-41280000D01*
X62535000Y-98700000D02*
X61555000Y-99680000D01*
X48647500Y-104372500D02*
X48647500Y-100172500D01*
X77955000Y-95280000D02*
X82955000Y-95280000D01*
X48647500Y-100172500D02*
X48647500Y-99222500D01*
X107425000Y-42210000D02*
X109185000Y-42210000D01*
X86655000Y-98980000D02*
X86655000Y-99980000D01*
X135025000Y-54210000D02*
X136925000Y-54210000D01*
X136925000Y-54210000D02*
X139455000Y-51680000D01*
X82955000Y-95280000D02*
X86655000Y-98980000D01*
X152575000Y-61460000D02*
X152585000Y-61460000D01*
X114095000Y-94440000D02*
X116155000Y-92380000D01*
X75755000Y-97480000D02*
X77955000Y-95280000D01*
X111755000Y-52680000D02*
X111755000Y-50480000D01*
X108095000Y-56340000D02*
X111755000Y-52680000D01*
X110955000Y-82380000D02*
X115855000Y-77480000D01*
X80525000Y-86410000D02*
X82555000Y-84380000D01*
X48647500Y-100487500D02*
X46455000Y-102680000D01*
X150865000Y-47880000D02*
X149735000Y-49010000D01*
X81155000Y-60880000D02*
X83555000Y-58480000D01*
X148315000Y-105480000D02*
X151055000Y-105480000D01*
X135895000Y-40140000D02*
X138855000Y-37180000D01*
X48647500Y-99222500D02*
X45785000Y-96360000D01*
X147565000Y-105480000D02*
X147495000Y-105410000D01*
X48647500Y-104372500D02*
X49755000Y-105480000D01*
X109185000Y-42210000D02*
X112555000Y-45580000D01*
X79785000Y-72310000D02*
X82485000Y-72310000D01*
X148315000Y-105480000D02*
X147565000Y-105480000D01*
X148315000Y-105480000D02*
X150755000Y-105480000D01*
X155915000Y-89120000D02*
X154455000Y-90580000D01*
X65655000Y-98700000D02*
X62535000Y-98700000D01*
X148315000Y-105480000D02*
X155955000Y-105480000D01*
X80065000Y-45050000D02*
X80065000Y-44390000D01*
X151635000Y-53110000D02*
X151635000Y-51560000D01*
X48647500Y-100172500D02*
X50955000Y-102480000D01*
X152575000Y-67940000D02*
X152575000Y-61460000D01*
X155315000Y-47880000D02*
X150865000Y-47880000D01*
X72295000Y-104470000D02*
X70655000Y-106110000D01*
X77555000Y-91080000D02*
X79685000Y-88950000D01*
X72295000Y-91080000D02*
X72295000Y-104470000D01*
X72295000Y-91080000D02*
X77555000Y-91080000D01*
X70865000Y-108860000D02*
X70655000Y-108650000D01*
X75755000Y-108860000D02*
X70865000Y-108860000D01*
X54810000Y-87625000D02*
X54755000Y-87680000D01*
X53175000Y-38050000D02*
X53175000Y-40410000D01*
X87555000Y-79980000D02*
X87555000Y-83480000D01*
X54855000Y-104520000D02*
X58915000Y-108580000D01*
X60855000Y-76080000D02*
X47890000Y-63115000D01*
X47890000Y-42965000D02*
X46835000Y-41910000D01*
X87555000Y-83480000D02*
X89455000Y-85380000D01*
X54810000Y-78980000D02*
X59215000Y-78980000D01*
X47890000Y-56180000D02*
X47890000Y-42965000D01*
X89455000Y-85380000D02*
X93275000Y-85380000D01*
X46835000Y-36710000D02*
X47935000Y-35610000D01*
X47890000Y-56615000D02*
X53655000Y-62380000D01*
X54855000Y-103180000D02*
X54855000Y-104520000D01*
X47935000Y-35610000D02*
X50735000Y-35610000D01*
X54810000Y-78980000D02*
X54810000Y-87625000D01*
X62115000Y-76080000D02*
X60855000Y-76080000D01*
X59215000Y-78980000D02*
X62115000Y-76080000D01*
X50735000Y-35610000D02*
X53175000Y-38050000D01*
X47890000Y-56180000D02*
X47890000Y-56615000D01*
X46835000Y-41910000D02*
X46835000Y-36710000D01*
X47890000Y-63115000D02*
X47890000Y-56180000D01*
X65375000Y-108580000D02*
X65655000Y-108860000D01*
X61455000Y-108580000D02*
X65375000Y-108580000D01*
X103435000Y-98380000D02*
X104435000Y-99380000D01*
X104435000Y-99380000D02*
X108655000Y-99380000D01*
X108655000Y-99380000D02*
X111055000Y-96980000D01*
X103435000Y-101200000D02*
X96025000Y-108610000D01*
X96025000Y-108610000D02*
X86505000Y-108610000D01*
X103435000Y-98380000D02*
X103435000Y-101200000D01*
X83735000Y-108840000D02*
X83965000Y-108610000D01*
X80315000Y-108840000D02*
X83735000Y-108840000D01*
X125585000Y-83610000D02*
X123255000Y-81280000D01*
D33*
X127495000Y-83950000D02*
X127835000Y-83610000D01*
D32*
X105855000Y-60380000D02*
X107355000Y-58880000D01*
X99235000Y-60380000D02*
X105855000Y-60380000D01*
X123255000Y-65780000D02*
X119855000Y-62380000D01*
X123255000Y-81280000D02*
X123255000Y-65780000D01*
X127835000Y-83610000D02*
X125585000Y-83610000D01*
X152575000Y-73020000D02*
X146095000Y-73020000D01*
X142285000Y-60360000D02*
X142135000Y-60210000D01*
X119855000Y-62380000D02*
X114355000Y-62380000D01*
X110855000Y-58880000D02*
X107355000Y-58880000D01*
D33*
X127495000Y-90505000D02*
X127495000Y-83950000D01*
D32*
X153465000Y-73910000D02*
X152575000Y-73020000D01*
X146055000Y-72980000D02*
X142285000Y-69210000D01*
X96505000Y-63110000D02*
X99235000Y-60380000D01*
X96505000Y-66380000D02*
X96505000Y-63110000D01*
D33*
X140135000Y-42210000D02*
X144435000Y-37910000D01*
D32*
X155935000Y-76340000D02*
X155935000Y-74510000D01*
D33*
X140135000Y-42910000D02*
X140135000Y-42210000D01*
D32*
X155935000Y-74510000D02*
X155335000Y-73910000D01*
X142285000Y-69210000D02*
X142285000Y-60360000D01*
X155335000Y-73910000D02*
X153465000Y-73910000D01*
X146095000Y-73020000D02*
X146055000Y-72980000D01*
X155915000Y-76360000D02*
X155935000Y-76340000D01*
X155915000Y-76840000D02*
X155915000Y-76360000D01*
X152535000Y-72980000D02*
X152575000Y-73020000D01*
X114355000Y-62380000D02*
X110855000Y-58880000D01*
X109405000Y-66180000D02*
X109205000Y-66380000D01*
X108155000Y-66380000D02*
X109205000Y-66380000D01*
X115205000Y-66180000D02*
X109405000Y-66180000D01*
X93255000Y-81280000D02*
X108155000Y-66380000D01*
X127905000Y-66180000D02*
X135205000Y-66180000D01*
X145855000Y-76980000D02*
X145855000Y-86380000D01*
X139335000Y-70310000D02*
X139335000Y-70460000D01*
X149635000Y-93820000D02*
X149675000Y-93860000D01*
X135205000Y-66180000D02*
X139335000Y-70310000D01*
X144335000Y-53010000D02*
X144335000Y-44580000D01*
X140595000Y-56750000D02*
X144335000Y-53010000D01*
X139335000Y-70460000D02*
X145855000Y-76980000D01*
X135025000Y-56750000D02*
X140595000Y-56750000D01*
X127905000Y-59150000D02*
X127635000Y-58880000D01*
X127635000Y-58880000D02*
X132895000Y-58880000D01*
X145855000Y-86380000D02*
X144855000Y-87380000D01*
X144855000Y-93820000D02*
X149635000Y-93820000D01*
X132895000Y-58880000D02*
X135025000Y-56750000D01*
X144855000Y-87380000D02*
X144855000Y-93820000D01*
X127905000Y-66180000D02*
X127905000Y-59150000D01*
X92255000Y-38680000D02*
X113555000Y-38680000D01*
X72475000Y-54680000D02*
X74575000Y-56780000D01*
X67575000Y-59580000D02*
X72475000Y-54680000D01*
X62315000Y-59580000D02*
X67575000Y-59580000D01*
X78735000Y-56780000D02*
X79895000Y-55620000D01*
X113555000Y-38680000D02*
X114355000Y-39480000D01*
X89055000Y-41880000D02*
X92255000Y-38680000D01*
X82215000Y-55620000D02*
X83855000Y-53980000D01*
X83855000Y-43980000D02*
X85955000Y-41880000D01*
X79895000Y-55620000D02*
X82215000Y-55620000D01*
X74575000Y-56780000D02*
X78735000Y-56780000D01*
X114355000Y-39480000D02*
X117455000Y-39480000D01*
X85955000Y-41880000D02*
X89055000Y-41880000D01*
X83855000Y-53980000D02*
X83855000Y-43980000D01*
X79895000Y-47760000D02*
X80065000Y-47590000D01*
X79895000Y-53080000D02*
X79895000Y-47760000D01*
X72475000Y-49880000D02*
X74155000Y-49880000D01*
X74155000Y-49880000D02*
X78625000Y-54350000D01*
X72555000Y-44780000D02*
X77255000Y-44780000D01*
X77255000Y-44780000D02*
X78795000Y-46320000D01*
X79695000Y-64940000D02*
X79695000Y-63420000D01*
X74155000Y-64080000D02*
X76355000Y-66280000D01*
X62115000Y-71180000D02*
X65275000Y-71180000D01*
X72375000Y-64080000D02*
X74155000Y-64080000D01*
X65275000Y-71180000D02*
X72375000Y-64080000D01*
X76355000Y-66280000D02*
X78355000Y-66280000D01*
X78355000Y-66280000D02*
X79695000Y-64940000D01*
X74415000Y-76080000D02*
X78515000Y-80180000D01*
X72275000Y-76080000D02*
X74415000Y-76080000D01*
X78055000Y-83180000D02*
X79785000Y-81450000D01*
X72475000Y-81180000D02*
X74475000Y-83180000D01*
X74475000Y-83180000D02*
X78055000Y-83180000D01*
X67275000Y-86380000D02*
X72475000Y-81180000D01*
X62135000Y-86380000D02*
X67275000Y-86380000D01*
X79785000Y-78910000D02*
X79785000Y-74850000D01*
X76115000Y-71180000D02*
X78515000Y-73580000D01*
X72275000Y-71180000D02*
X76115000Y-71180000D01*
X107355000Y-44820000D02*
X107425000Y-44750000D01*
X107355000Y-49440000D02*
X107355000Y-44820000D01*
X102055000Y-46680000D02*
X106085000Y-50710000D01*
X99235000Y-46680000D02*
X102055000Y-46680000D01*
X94435000Y-55880000D02*
X99235000Y-51080000D01*
X106655000Y-53680000D02*
X107355000Y-52980000D01*
X88975000Y-55880000D02*
X94435000Y-55880000D01*
X107355000Y-52980000D02*
X107355000Y-51980000D01*
X103355000Y-53680000D02*
X106655000Y-53680000D01*
X99235000Y-51080000D02*
X100755000Y-51080000D01*
X100755000Y-51080000D02*
X103355000Y-53680000D01*
X104555000Y-41880000D02*
X106155000Y-43480000D01*
X99215000Y-41880000D02*
X104555000Y-41880000D01*
X127735000Y-49580000D02*
X129235000Y-51080000D01*
X117475000Y-54480000D02*
X122835000Y-54480000D01*
X129235000Y-51080000D02*
X133655000Y-51080000D01*
X122835000Y-54480000D02*
X127735000Y-49580000D01*
X133655000Y-51080000D02*
X135055000Y-49680000D01*
X135055000Y-47140000D02*
X135055000Y-42680000D01*
X130055000Y-44680000D02*
X133785000Y-48410000D01*
X127715000Y-44680000D02*
X130055000Y-44680000D01*
X127615000Y-39480000D02*
X131855000Y-39480000D01*
X131855000Y-39480000D02*
X133785000Y-41410000D01*
X110955000Y-88440000D02*
X110955000Y-84920000D01*
X105355000Y-85380000D02*
X109685000Y-89710000D01*
X103435000Y-85380000D02*
X105355000Y-85380000D01*
X105215000Y-91680000D02*
X110255000Y-91680000D01*
X93275000Y-94280000D02*
X99015000Y-94280000D01*
X103415000Y-89880000D02*
X105215000Y-91680000D01*
X110255000Y-91680000D02*
X110955000Y-90980000D01*
X99015000Y-94280000D02*
X103415000Y-89880000D01*
X103415000Y-81280000D02*
X107315000Y-81280000D01*
X107315000Y-81280000D02*
X109685000Y-83650000D01*
X142375000Y-89760000D02*
X142375000Y-93760000D01*
X142315000Y-89820000D02*
X142375000Y-89760000D01*
X142375000Y-93760000D02*
X142315000Y-93820000D01*
X72475000Y-59580000D02*
X75855000Y-59580000D01*
X75855000Y-59580000D02*
X78425000Y-62150000D01*
X55510000Y-56180000D02*
X56015000Y-56180000D01*
X79555000Y-38580000D02*
X79655000Y-38680000D01*
X71655000Y-38580000D02*
X79555000Y-38580000D01*
X62315000Y-49880000D02*
X65055000Y-49880000D01*
X62315000Y-49880000D02*
X61960000Y-50235000D01*
X50635000Y-45310000D02*
X50635000Y-40410000D01*
X56015000Y-56180000D02*
X62315000Y-49880000D01*
X68455000Y-41780000D02*
X71655000Y-38580000D01*
X68455000Y-46480000D02*
X68455000Y-41780000D01*
X55560000Y-50235000D02*
X50635000Y-45310000D01*
X89075000Y-46680000D02*
X87375000Y-44980000D01*
X87375000Y-44980000D02*
X86355000Y-44980000D01*
X65055000Y-49880000D02*
X68455000Y-46480000D01*
X61960000Y-50235000D02*
X55560000Y-50235000D01*
X114955000Y-42080000D02*
X117555000Y-44680000D01*
X62295000Y-44680000D02*
X62395000Y-44780000D01*
X62395000Y-40840000D02*
X67855000Y-35380000D01*
X60085000Y-44780000D02*
X55715000Y-40410000D01*
X62395000Y-44780000D02*
X62395000Y-40840000D01*
X62395000Y-44780000D02*
X60085000Y-44780000D01*
X67855000Y-35380000D02*
X108555000Y-35380000D01*
X113055000Y-42080000D02*
X114955000Y-42080000D01*
D33*
X133835000Y-79110000D02*
X133835000Y-81074824D01*
X152575000Y-70480000D02*
X149405000Y-70480000D01*
X142375000Y-79600000D02*
X140745000Y-79600000D01*
D34*
X160075000Y-66610000D02*
X157055000Y-69630000D01*
D33*
X156205000Y-70480000D02*
X152575000Y-70480000D01*
X130035000Y-84874824D02*
X130035000Y-90505000D01*
X133835000Y-81074824D02*
X130035000Y-84874824D01*
D34*
X160075000Y-56010000D02*
X160075000Y-66610000D01*
D33*
X157055000Y-69630000D02*
X156205000Y-70480000D01*
X142375000Y-79600000D02*
X134325000Y-79600000D01*
X149405000Y-70480000D02*
X145935000Y-67010000D01*
D34*
X160075000Y-56010000D02*
X154995000Y-56010000D01*
D33*
X134325000Y-79600000D02*
X133835000Y-79110000D01*
D32*
X72295000Y-86380000D02*
X77115000Y-86380000D01*
X77115000Y-86380000D02*
X78415000Y-87680000D01*
X104355000Y-55880000D02*
X106085000Y-57610000D01*
X99135000Y-55880000D02*
X104355000Y-55880000D01*
X127635000Y-54480000D02*
X132755000Y-54480000D01*
X132755000Y-54480000D02*
X133755000Y-55480000D01*
X108355000Y-94280000D02*
X109785000Y-95710000D01*
X103435000Y-94280000D02*
X108355000Y-94280000D01*
D33*
X132575000Y-90505000D02*
X132575000Y-93505000D01*
X125335000Y-94460000D02*
X122385000Y-97410000D01*
X131620000Y-94460000D02*
X125335000Y-94460000D01*
X132575000Y-93505000D02*
X131620000Y-94460000D01*
D32*
X144435000Y-35370000D02*
X141575000Y-35370000D01*
X141575000Y-35370000D02*
X140015000Y-33810000D01*
X144435000Y-35370000D02*
X144435000Y-35210000D01*
X149955000Y-40290000D02*
X148205000Y-42040000D01*
X148205000Y-42040000D02*
X144335000Y-42040000D01*
X149955000Y-33910000D02*
X149955000Y-40290000D01*
D33*
X140235000Y-101460000D02*
X140235000Y-105410000D01*
X136185000Y-97410000D02*
X140235000Y-101460000D01*
X126135000Y-97410000D02*
X136185000Y-97410000D01*
X136185000Y-97410000D02*
X139775000Y-93820000D01*
X139775000Y-104950000D02*
X140235000Y-105410000D01*
M02*
