%TF.GenerationSoftware,KiCad,Pcbnew,8.0.8*%
%TF.CreationDate,2025-06-27T16:28:31-04:00*%
%TF.ProjectId,multimeter,6d756c74-696d-4657-9465-722e6b696361,rev?*%
%TF.SameCoordinates,Original*%
%TF.FileFunction,Drillmap*%
%TF.FilePolarity,Positive*%
%FSLAX45Y45*%
G04 Gerber Fmt 4.5, Leading zero omitted, Abs format (unit mm)*
G04 Created by KiCad (PCBNEW 8.0.8) date 2025-06-27 16:28:31*
%MOMM*%
%LPD*%
G01*
G04 APERTURE LIST*
%ADD10C,0.050000*%
%ADD11C,0.200000*%
%ADD12C,0.320000*%
G04 APERTURE END LIST*
D10*
X-499884Y7297229D02*
X9736116Y7297229D01*
X9736116Y-1102771D01*
X-499884Y-1102771D01*
X-499884Y7297229D01*
D11*
D12*
X-259884Y7057229D02*
X60116Y6737229D01*
X60116Y7057229D02*
X-259884Y6737229D01*
X-259884Y-542771D02*
X60116Y-862771D01*
X60116Y-542771D02*
X-259884Y-862771D01*
X9165116Y7057229D02*
X9485116Y6737229D01*
X9485116Y7057229D02*
X9165116Y6737229D01*
X9190116Y-542771D02*
X9510116Y-862771D01*
X9510116Y-542771D02*
X9190116Y-862771D01*
D11*
X-241607Y-1416755D02*
X-241607Y-1216755D01*
X-241607Y-1216755D02*
X-193988Y-1216755D01*
X-193988Y-1216755D02*
X-165416Y-1226279D01*
X-165416Y-1226279D02*
X-146369Y-1245326D01*
X-146369Y-1245326D02*
X-136845Y-1264374D01*
X-136845Y-1264374D02*
X-127321Y-1302469D01*
X-127321Y-1302469D02*
X-127321Y-1331041D01*
X-127321Y-1331041D02*
X-136845Y-1369136D01*
X-136845Y-1369136D02*
X-146369Y-1388184D01*
X-146369Y-1388184D02*
X-165416Y-1407231D01*
X-165416Y-1407231D02*
X-193988Y-1416755D01*
X-193988Y-1416755D02*
X-241607Y-1416755D01*
X-41607Y-1416755D02*
X-41607Y-1283422D01*
X-41607Y-1321517D02*
X-32083Y-1302469D01*
X-32083Y-1302469D02*
X-22559Y-1292945D01*
X-22559Y-1292945D02*
X-3512Y-1283422D01*
X-3512Y-1283422D02*
X15536Y-1283422D01*
X82203Y-1416755D02*
X82203Y-1283422D01*
X82203Y-1216755D02*
X72679Y-1226279D01*
X72679Y-1226279D02*
X82203Y-1235803D01*
X82203Y-1235803D02*
X91726Y-1226279D01*
X91726Y-1226279D02*
X82203Y-1216755D01*
X82203Y-1216755D02*
X82203Y-1235803D01*
X206012Y-1416755D02*
X186964Y-1407231D01*
X186964Y-1407231D02*
X177441Y-1388184D01*
X177441Y-1388184D02*
X177441Y-1216755D01*
X310774Y-1416755D02*
X291726Y-1407231D01*
X291726Y-1407231D02*
X282203Y-1388184D01*
X282203Y-1388184D02*
X282203Y-1216755D01*
X539346Y-1416755D02*
X539346Y-1216755D01*
X539346Y-1216755D02*
X606012Y-1359612D01*
X606012Y-1359612D02*
X672679Y-1216755D01*
X672679Y-1216755D02*
X672679Y-1416755D01*
X853631Y-1416755D02*
X853631Y-1311993D01*
X853631Y-1311993D02*
X844107Y-1292945D01*
X844107Y-1292945D02*
X825060Y-1283422D01*
X825060Y-1283422D02*
X786964Y-1283422D01*
X786964Y-1283422D02*
X767917Y-1292945D01*
X853631Y-1407231D02*
X834584Y-1416755D01*
X834584Y-1416755D02*
X786964Y-1416755D01*
X786964Y-1416755D02*
X767917Y-1407231D01*
X767917Y-1407231D02*
X758393Y-1388184D01*
X758393Y-1388184D02*
X758393Y-1369136D01*
X758393Y-1369136D02*
X767917Y-1350088D01*
X767917Y-1350088D02*
X786964Y-1340565D01*
X786964Y-1340565D02*
X834584Y-1340565D01*
X834584Y-1340565D02*
X853631Y-1331041D01*
X948869Y-1283422D02*
X948869Y-1483422D01*
X948869Y-1292945D02*
X967917Y-1283422D01*
X967917Y-1283422D02*
X1006012Y-1283422D01*
X1006012Y-1283422D02*
X1025060Y-1292945D01*
X1025060Y-1292945D02*
X1034584Y-1302469D01*
X1034584Y-1302469D02*
X1044107Y-1321517D01*
X1044107Y-1321517D02*
X1044107Y-1378660D01*
X1044107Y-1378660D02*
X1034584Y-1397707D01*
X1034584Y-1397707D02*
X1025060Y-1407231D01*
X1025060Y-1407231D02*
X1006012Y-1416755D01*
X1006012Y-1416755D02*
X967917Y-1416755D01*
X967917Y-1416755D02*
X948869Y-1407231D01*
X1129822Y-1397707D02*
X1139346Y-1407231D01*
X1139346Y-1407231D02*
X1129822Y-1416755D01*
X1129822Y-1416755D02*
X1120298Y-1407231D01*
X1120298Y-1407231D02*
X1129822Y-1397707D01*
X1129822Y-1397707D02*
X1129822Y-1416755D01*
X1129822Y-1292945D02*
X1139346Y-1302469D01*
X1139346Y-1302469D02*
X1129822Y-1311993D01*
X1129822Y-1311993D02*
X1120298Y-1302469D01*
X1120298Y-1302469D02*
X1129822Y-1292945D01*
X1129822Y-1292945D02*
X1129822Y-1311993D01*
X-702384Y-1645271D02*
X-502384Y-1845271D01*
X-502384Y-1645271D02*
X-702384Y-1845271D01*
X-260654Y-1636755D02*
X-136845Y-1636755D01*
X-136845Y-1636755D02*
X-203512Y-1712945D01*
X-203512Y-1712945D02*
X-174940Y-1712945D01*
X-174940Y-1712945D02*
X-155893Y-1722469D01*
X-155893Y-1722469D02*
X-146369Y-1731993D01*
X-146369Y-1731993D02*
X-136845Y-1751041D01*
X-136845Y-1751041D02*
X-136845Y-1798660D01*
X-136845Y-1798660D02*
X-146369Y-1817707D01*
X-146369Y-1817707D02*
X-155893Y-1827231D01*
X-155893Y-1827231D02*
X-174940Y-1836755D01*
X-174940Y-1836755D02*
X-232083Y-1836755D01*
X-232083Y-1836755D02*
X-251131Y-1827231D01*
X-251131Y-1827231D02*
X-260654Y-1817707D01*
X-51131Y-1817707D02*
X-41607Y-1827231D01*
X-41607Y-1827231D02*
X-51131Y-1836755D01*
X-51131Y-1836755D02*
X-60654Y-1827231D01*
X-60654Y-1827231D02*
X-51131Y-1817707D01*
X-51131Y-1817707D02*
X-51131Y-1836755D01*
X34584Y-1655803D02*
X44107Y-1646279D01*
X44107Y-1646279D02*
X63155Y-1636755D01*
X63155Y-1636755D02*
X110774Y-1636755D01*
X110774Y-1636755D02*
X129822Y-1646279D01*
X129822Y-1646279D02*
X139346Y-1655803D01*
X139346Y-1655803D02*
X148869Y-1674850D01*
X148869Y-1674850D02*
X148869Y-1693898D01*
X148869Y-1693898D02*
X139346Y-1722469D01*
X139346Y-1722469D02*
X25060Y-1836755D01*
X25060Y-1836755D02*
X148869Y-1836755D01*
X272679Y-1636755D02*
X291727Y-1636755D01*
X291727Y-1636755D02*
X310774Y-1646279D01*
X310774Y-1646279D02*
X320298Y-1655803D01*
X320298Y-1655803D02*
X329822Y-1674850D01*
X329822Y-1674850D02*
X339346Y-1712945D01*
X339346Y-1712945D02*
X339346Y-1760564D01*
X339346Y-1760564D02*
X329822Y-1798660D01*
X329822Y-1798660D02*
X320298Y-1817707D01*
X320298Y-1817707D02*
X310774Y-1827231D01*
X310774Y-1827231D02*
X291727Y-1836755D01*
X291727Y-1836755D02*
X272679Y-1836755D01*
X272679Y-1836755D02*
X253631Y-1827231D01*
X253631Y-1827231D02*
X244107Y-1817707D01*
X244107Y-1817707D02*
X234584Y-1798660D01*
X234584Y-1798660D02*
X225060Y-1760564D01*
X225060Y-1760564D02*
X225060Y-1712945D01*
X225060Y-1712945D02*
X234584Y-1674850D01*
X234584Y-1674850D02*
X244107Y-1655803D01*
X244107Y-1655803D02*
X253631Y-1646279D01*
X253631Y-1646279D02*
X272679Y-1636755D01*
X463155Y-1636755D02*
X482203Y-1636755D01*
X482203Y-1636755D02*
X501250Y-1646279D01*
X501250Y-1646279D02*
X510774Y-1655803D01*
X510774Y-1655803D02*
X520298Y-1674850D01*
X520298Y-1674850D02*
X529822Y-1712945D01*
X529822Y-1712945D02*
X529822Y-1760564D01*
X529822Y-1760564D02*
X520298Y-1798660D01*
X520298Y-1798660D02*
X510774Y-1817707D01*
X510774Y-1817707D02*
X501250Y-1827231D01*
X501250Y-1827231D02*
X482203Y-1836755D01*
X482203Y-1836755D02*
X463155Y-1836755D01*
X463155Y-1836755D02*
X444107Y-1827231D01*
X444107Y-1827231D02*
X434584Y-1817707D01*
X434584Y-1817707D02*
X425060Y-1798660D01*
X425060Y-1798660D02*
X415536Y-1760564D01*
X415536Y-1760564D02*
X415536Y-1712945D01*
X415536Y-1712945D02*
X425060Y-1674850D01*
X425060Y-1674850D02*
X434584Y-1655803D01*
X434584Y-1655803D02*
X444107Y-1646279D01*
X444107Y-1646279D02*
X463155Y-1636755D01*
X615536Y-1836755D02*
X615536Y-1703422D01*
X615536Y-1722469D02*
X625060Y-1712945D01*
X625060Y-1712945D02*
X644107Y-1703422D01*
X644107Y-1703422D02*
X672679Y-1703422D01*
X672679Y-1703422D02*
X691727Y-1712945D01*
X691727Y-1712945D02*
X701250Y-1731993D01*
X701250Y-1731993D02*
X701250Y-1836755D01*
X701250Y-1731993D02*
X710774Y-1712945D01*
X710774Y-1712945D02*
X729822Y-1703422D01*
X729822Y-1703422D02*
X758393Y-1703422D01*
X758393Y-1703422D02*
X777441Y-1712945D01*
X777441Y-1712945D02*
X786965Y-1731993D01*
X786965Y-1731993D02*
X786965Y-1836755D01*
X882203Y-1836755D02*
X882203Y-1703422D01*
X882203Y-1722469D02*
X891726Y-1712945D01*
X891726Y-1712945D02*
X910774Y-1703422D01*
X910774Y-1703422D02*
X939346Y-1703422D01*
X939346Y-1703422D02*
X958393Y-1712945D01*
X958393Y-1712945D02*
X967917Y-1731993D01*
X967917Y-1731993D02*
X967917Y-1836755D01*
X967917Y-1731993D02*
X977441Y-1712945D01*
X977441Y-1712945D02*
X996488Y-1703422D01*
X996488Y-1703422D02*
X1025060Y-1703422D01*
X1025060Y-1703422D02*
X1044107Y-1712945D01*
X1044107Y-1712945D02*
X1053631Y-1731993D01*
X1053631Y-1731993D02*
X1053631Y-1836755D01*
X1444107Y-1627231D02*
X1272679Y-1884374D01*
X1701250Y-1636755D02*
X1720298Y-1636755D01*
X1720298Y-1636755D02*
X1739346Y-1646279D01*
X1739346Y-1646279D02*
X1748869Y-1655803D01*
X1748869Y-1655803D02*
X1758393Y-1674850D01*
X1758393Y-1674850D02*
X1767917Y-1712945D01*
X1767917Y-1712945D02*
X1767917Y-1760564D01*
X1767917Y-1760564D02*
X1758393Y-1798660D01*
X1758393Y-1798660D02*
X1748869Y-1817707D01*
X1748869Y-1817707D02*
X1739346Y-1827231D01*
X1739346Y-1827231D02*
X1720298Y-1836755D01*
X1720298Y-1836755D02*
X1701250Y-1836755D01*
X1701250Y-1836755D02*
X1682203Y-1827231D01*
X1682203Y-1827231D02*
X1672679Y-1817707D01*
X1672679Y-1817707D02*
X1663155Y-1798660D01*
X1663155Y-1798660D02*
X1653631Y-1760564D01*
X1653631Y-1760564D02*
X1653631Y-1712945D01*
X1653631Y-1712945D02*
X1663155Y-1674850D01*
X1663155Y-1674850D02*
X1672679Y-1655803D01*
X1672679Y-1655803D02*
X1682203Y-1646279D01*
X1682203Y-1646279D02*
X1701250Y-1636755D01*
X1853631Y-1817707D02*
X1863155Y-1827231D01*
X1863155Y-1827231D02*
X1853631Y-1836755D01*
X1853631Y-1836755D02*
X1844108Y-1827231D01*
X1844108Y-1827231D02*
X1853631Y-1817707D01*
X1853631Y-1817707D02*
X1853631Y-1836755D01*
X2053631Y-1836755D02*
X1939346Y-1836755D01*
X1996488Y-1836755D02*
X1996488Y-1636755D01*
X1996488Y-1636755D02*
X1977441Y-1665326D01*
X1977441Y-1665326D02*
X1958393Y-1684374D01*
X1958393Y-1684374D02*
X1939346Y-1693898D01*
X2129822Y-1655803D02*
X2139346Y-1646279D01*
X2139346Y-1646279D02*
X2158393Y-1636755D01*
X2158393Y-1636755D02*
X2206012Y-1636755D01*
X2206012Y-1636755D02*
X2225060Y-1646279D01*
X2225060Y-1646279D02*
X2234584Y-1655803D01*
X2234584Y-1655803D02*
X2244108Y-1674850D01*
X2244108Y-1674850D02*
X2244108Y-1693898D01*
X2244108Y-1693898D02*
X2234584Y-1722469D01*
X2234584Y-1722469D02*
X2120298Y-1836755D01*
X2120298Y-1836755D02*
X2244108Y-1836755D01*
X2415536Y-1636755D02*
X2377441Y-1636755D01*
X2377441Y-1636755D02*
X2358393Y-1646279D01*
X2358393Y-1646279D02*
X2348870Y-1655803D01*
X2348870Y-1655803D02*
X2329822Y-1684374D01*
X2329822Y-1684374D02*
X2320298Y-1722469D01*
X2320298Y-1722469D02*
X2320298Y-1798660D01*
X2320298Y-1798660D02*
X2329822Y-1817707D01*
X2329822Y-1817707D02*
X2339346Y-1827231D01*
X2339346Y-1827231D02*
X2358393Y-1836755D01*
X2358393Y-1836755D02*
X2396489Y-1836755D01*
X2396489Y-1836755D02*
X2415536Y-1827231D01*
X2415536Y-1827231D02*
X2425060Y-1817707D01*
X2425060Y-1817707D02*
X2434584Y-1798660D01*
X2434584Y-1798660D02*
X2434584Y-1751041D01*
X2434584Y-1751041D02*
X2425060Y-1731993D01*
X2425060Y-1731993D02*
X2415536Y-1722469D01*
X2415536Y-1722469D02*
X2396489Y-1712945D01*
X2396489Y-1712945D02*
X2358393Y-1712945D01*
X2358393Y-1712945D02*
X2339346Y-1722469D01*
X2339346Y-1722469D02*
X2329822Y-1731993D01*
X2329822Y-1731993D02*
X2320298Y-1751041D01*
X2558393Y-1636755D02*
X2577441Y-1636755D01*
X2577441Y-1636755D02*
X2596489Y-1646279D01*
X2596489Y-1646279D02*
X2606012Y-1655803D01*
X2606012Y-1655803D02*
X2615536Y-1674850D01*
X2615536Y-1674850D02*
X2625060Y-1712945D01*
X2625060Y-1712945D02*
X2625060Y-1760564D01*
X2625060Y-1760564D02*
X2615536Y-1798660D01*
X2615536Y-1798660D02*
X2606012Y-1817707D01*
X2606012Y-1817707D02*
X2596489Y-1827231D01*
X2596489Y-1827231D02*
X2577441Y-1836755D01*
X2577441Y-1836755D02*
X2558393Y-1836755D01*
X2558393Y-1836755D02*
X2539346Y-1827231D01*
X2539346Y-1827231D02*
X2529822Y-1817707D01*
X2529822Y-1817707D02*
X2520298Y-1798660D01*
X2520298Y-1798660D02*
X2510774Y-1760564D01*
X2510774Y-1760564D02*
X2510774Y-1712945D01*
X2510774Y-1712945D02*
X2520298Y-1674850D01*
X2520298Y-1674850D02*
X2529822Y-1655803D01*
X2529822Y-1655803D02*
X2539346Y-1646279D01*
X2539346Y-1646279D02*
X2558393Y-1636755D01*
X2701251Y-1636755D02*
X2701251Y-1674850D01*
X2777441Y-1636755D02*
X2777441Y-1674850D01*
X3072679Y-1912945D02*
X3063155Y-1903422D01*
X3063155Y-1903422D02*
X3044108Y-1874850D01*
X3044108Y-1874850D02*
X3034584Y-1855803D01*
X3034584Y-1855803D02*
X3025060Y-1827231D01*
X3025060Y-1827231D02*
X3015536Y-1779612D01*
X3015536Y-1779612D02*
X3015536Y-1741517D01*
X3015536Y-1741517D02*
X3025060Y-1693898D01*
X3025060Y-1693898D02*
X3034584Y-1665326D01*
X3034584Y-1665326D02*
X3044108Y-1646279D01*
X3044108Y-1646279D02*
X3063155Y-1617707D01*
X3063155Y-1617707D02*
X3072679Y-1608183D01*
X3234584Y-1703422D02*
X3234584Y-1836755D01*
X3186965Y-1627231D02*
X3139346Y-1770088D01*
X3139346Y-1770088D02*
X3263155Y-1770088D01*
X3491727Y-1836755D02*
X3491727Y-1636755D01*
X3577441Y-1836755D02*
X3577441Y-1731993D01*
X3577441Y-1731993D02*
X3567917Y-1712945D01*
X3567917Y-1712945D02*
X3548870Y-1703422D01*
X3548870Y-1703422D02*
X3520298Y-1703422D01*
X3520298Y-1703422D02*
X3501251Y-1712945D01*
X3501251Y-1712945D02*
X3491727Y-1722469D01*
X3701251Y-1836755D02*
X3682203Y-1827231D01*
X3682203Y-1827231D02*
X3672679Y-1817707D01*
X3672679Y-1817707D02*
X3663155Y-1798660D01*
X3663155Y-1798660D02*
X3663155Y-1741517D01*
X3663155Y-1741517D02*
X3672679Y-1722469D01*
X3672679Y-1722469D02*
X3682203Y-1712945D01*
X3682203Y-1712945D02*
X3701251Y-1703422D01*
X3701251Y-1703422D02*
X3729822Y-1703422D01*
X3729822Y-1703422D02*
X3748870Y-1712945D01*
X3748870Y-1712945D02*
X3758393Y-1722469D01*
X3758393Y-1722469D02*
X3767917Y-1741517D01*
X3767917Y-1741517D02*
X3767917Y-1798660D01*
X3767917Y-1798660D02*
X3758393Y-1817707D01*
X3758393Y-1817707D02*
X3748870Y-1827231D01*
X3748870Y-1827231D02*
X3729822Y-1836755D01*
X3729822Y-1836755D02*
X3701251Y-1836755D01*
X3882203Y-1836755D02*
X3863155Y-1827231D01*
X3863155Y-1827231D02*
X3853632Y-1808183D01*
X3853632Y-1808183D02*
X3853632Y-1636755D01*
X4034584Y-1827231D02*
X4015536Y-1836755D01*
X4015536Y-1836755D02*
X3977441Y-1836755D01*
X3977441Y-1836755D02*
X3958393Y-1827231D01*
X3958393Y-1827231D02*
X3948870Y-1808183D01*
X3948870Y-1808183D02*
X3948870Y-1731993D01*
X3948870Y-1731993D02*
X3958393Y-1712945D01*
X3958393Y-1712945D02*
X3977441Y-1703422D01*
X3977441Y-1703422D02*
X4015536Y-1703422D01*
X4015536Y-1703422D02*
X4034584Y-1712945D01*
X4034584Y-1712945D02*
X4044108Y-1731993D01*
X4044108Y-1731993D02*
X4044108Y-1751041D01*
X4044108Y-1751041D02*
X3948870Y-1770088D01*
X4120298Y-1827231D02*
X4139346Y-1836755D01*
X4139346Y-1836755D02*
X4177441Y-1836755D01*
X4177441Y-1836755D02*
X4196489Y-1827231D01*
X4196489Y-1827231D02*
X4206013Y-1808183D01*
X4206013Y-1808183D02*
X4206013Y-1798660D01*
X4206013Y-1798660D02*
X4196489Y-1779612D01*
X4196489Y-1779612D02*
X4177441Y-1770088D01*
X4177441Y-1770088D02*
X4148870Y-1770088D01*
X4148870Y-1770088D02*
X4129822Y-1760564D01*
X4129822Y-1760564D02*
X4120298Y-1741517D01*
X4120298Y-1741517D02*
X4120298Y-1731993D01*
X4120298Y-1731993D02*
X4129822Y-1712945D01*
X4129822Y-1712945D02*
X4148870Y-1703422D01*
X4148870Y-1703422D02*
X4177441Y-1703422D01*
X4177441Y-1703422D02*
X4196489Y-1712945D01*
X4272679Y-1912945D02*
X4282203Y-1903422D01*
X4282203Y-1903422D02*
X4301251Y-1874850D01*
X4301251Y-1874850D02*
X4310775Y-1855803D01*
X4310775Y-1855803D02*
X4320298Y-1827231D01*
X4320298Y-1827231D02*
X4329822Y-1779612D01*
X4329822Y-1779612D02*
X4329822Y-1741517D01*
X4329822Y-1741517D02*
X4320298Y-1693898D01*
X4320298Y-1693898D02*
X4310775Y-1665326D01*
X4310775Y-1665326D02*
X4301251Y-1646279D01*
X4301251Y-1646279D02*
X4282203Y-1617707D01*
X4282203Y-1617707D02*
X4272679Y-1608183D01*
X4634584Y-1912945D02*
X4625060Y-1903422D01*
X4625060Y-1903422D02*
X4606013Y-1874850D01*
X4606013Y-1874850D02*
X4596489Y-1855803D01*
X4596489Y-1855803D02*
X4586965Y-1827231D01*
X4586965Y-1827231D02*
X4577441Y-1779612D01*
X4577441Y-1779612D02*
X4577441Y-1741517D01*
X4577441Y-1741517D02*
X4586965Y-1693898D01*
X4586965Y-1693898D02*
X4596489Y-1665326D01*
X4596489Y-1665326D02*
X4606013Y-1646279D01*
X4606013Y-1646279D02*
X4625060Y-1617707D01*
X4625060Y-1617707D02*
X4634584Y-1608183D01*
X4710775Y-1703422D02*
X4710775Y-1836755D01*
X4710775Y-1722469D02*
X4720298Y-1712945D01*
X4720298Y-1712945D02*
X4739346Y-1703422D01*
X4739346Y-1703422D02*
X4767917Y-1703422D01*
X4767917Y-1703422D02*
X4786965Y-1712945D01*
X4786965Y-1712945D02*
X4796489Y-1731993D01*
X4796489Y-1731993D02*
X4796489Y-1836755D01*
X4920298Y-1836755D02*
X4901251Y-1827231D01*
X4901251Y-1827231D02*
X4891727Y-1817707D01*
X4891727Y-1817707D02*
X4882203Y-1798660D01*
X4882203Y-1798660D02*
X4882203Y-1741517D01*
X4882203Y-1741517D02*
X4891727Y-1722469D01*
X4891727Y-1722469D02*
X4901251Y-1712945D01*
X4901251Y-1712945D02*
X4920298Y-1703422D01*
X4920298Y-1703422D02*
X4948870Y-1703422D01*
X4948870Y-1703422D02*
X4967917Y-1712945D01*
X4967917Y-1712945D02*
X4977441Y-1722469D01*
X4977441Y-1722469D02*
X4986965Y-1741517D01*
X4986965Y-1741517D02*
X4986965Y-1798660D01*
X4986965Y-1798660D02*
X4977441Y-1817707D01*
X4977441Y-1817707D02*
X4967917Y-1827231D01*
X4967917Y-1827231D02*
X4948870Y-1836755D01*
X4948870Y-1836755D02*
X4920298Y-1836755D01*
X5044108Y-1703422D02*
X5120298Y-1703422D01*
X5072679Y-1636755D02*
X5072679Y-1808183D01*
X5072679Y-1808183D02*
X5082203Y-1827231D01*
X5082203Y-1827231D02*
X5101251Y-1836755D01*
X5101251Y-1836755D02*
X5120298Y-1836755D01*
X5339346Y-1703422D02*
X5339346Y-1903422D01*
X5339346Y-1712945D02*
X5358394Y-1703422D01*
X5358394Y-1703422D02*
X5396489Y-1703422D01*
X5396489Y-1703422D02*
X5415537Y-1712945D01*
X5415537Y-1712945D02*
X5425060Y-1722469D01*
X5425060Y-1722469D02*
X5434584Y-1741517D01*
X5434584Y-1741517D02*
X5434584Y-1798660D01*
X5434584Y-1798660D02*
X5425060Y-1817707D01*
X5425060Y-1817707D02*
X5415537Y-1827231D01*
X5415537Y-1827231D02*
X5396489Y-1836755D01*
X5396489Y-1836755D02*
X5358394Y-1836755D01*
X5358394Y-1836755D02*
X5339346Y-1827231D01*
X5548870Y-1836755D02*
X5529822Y-1827231D01*
X5529822Y-1827231D02*
X5520298Y-1808183D01*
X5520298Y-1808183D02*
X5520298Y-1636755D01*
X5710775Y-1836755D02*
X5710775Y-1731993D01*
X5710775Y-1731993D02*
X5701251Y-1712945D01*
X5701251Y-1712945D02*
X5682203Y-1703422D01*
X5682203Y-1703422D02*
X5644108Y-1703422D01*
X5644108Y-1703422D02*
X5625060Y-1712945D01*
X5710775Y-1827231D02*
X5691727Y-1836755D01*
X5691727Y-1836755D02*
X5644108Y-1836755D01*
X5644108Y-1836755D02*
X5625060Y-1827231D01*
X5625060Y-1827231D02*
X5615536Y-1808183D01*
X5615536Y-1808183D02*
X5615536Y-1789136D01*
X5615536Y-1789136D02*
X5625060Y-1770088D01*
X5625060Y-1770088D02*
X5644108Y-1760564D01*
X5644108Y-1760564D02*
X5691727Y-1760564D01*
X5691727Y-1760564D02*
X5710775Y-1751041D01*
X5777441Y-1703422D02*
X5853632Y-1703422D01*
X5806013Y-1636755D02*
X5806013Y-1808183D01*
X5806013Y-1808183D02*
X5815536Y-1827231D01*
X5815536Y-1827231D02*
X5834584Y-1836755D01*
X5834584Y-1836755D02*
X5853632Y-1836755D01*
X5996489Y-1827231D02*
X5977441Y-1836755D01*
X5977441Y-1836755D02*
X5939346Y-1836755D01*
X5939346Y-1836755D02*
X5920298Y-1827231D01*
X5920298Y-1827231D02*
X5910775Y-1808183D01*
X5910775Y-1808183D02*
X5910775Y-1731993D01*
X5910775Y-1731993D02*
X5920298Y-1712945D01*
X5920298Y-1712945D02*
X5939346Y-1703422D01*
X5939346Y-1703422D02*
X5977441Y-1703422D01*
X5977441Y-1703422D02*
X5996489Y-1712945D01*
X5996489Y-1712945D02*
X6006013Y-1731993D01*
X6006013Y-1731993D02*
X6006013Y-1751041D01*
X6006013Y-1751041D02*
X5910775Y-1770088D01*
X6177441Y-1836755D02*
X6177441Y-1636755D01*
X6177441Y-1827231D02*
X6158394Y-1836755D01*
X6158394Y-1836755D02*
X6120298Y-1836755D01*
X6120298Y-1836755D02*
X6101251Y-1827231D01*
X6101251Y-1827231D02*
X6091727Y-1817707D01*
X6091727Y-1817707D02*
X6082203Y-1798660D01*
X6082203Y-1798660D02*
X6082203Y-1741517D01*
X6082203Y-1741517D02*
X6091727Y-1722469D01*
X6091727Y-1722469D02*
X6101251Y-1712945D01*
X6101251Y-1712945D02*
X6120298Y-1703422D01*
X6120298Y-1703422D02*
X6158394Y-1703422D01*
X6158394Y-1703422D02*
X6177441Y-1712945D01*
X6253632Y-1912945D02*
X6263156Y-1903422D01*
X6263156Y-1903422D02*
X6282203Y-1874850D01*
X6282203Y-1874850D02*
X6291727Y-1855803D01*
X6291727Y-1855803D02*
X6301251Y-1827231D01*
X6301251Y-1827231D02*
X6310775Y-1779612D01*
X6310775Y-1779612D02*
X6310775Y-1741517D01*
X6310775Y-1741517D02*
X6301251Y-1693898D01*
X6301251Y-1693898D02*
X6291727Y-1665326D01*
X6291727Y-1665326D02*
X6282203Y-1646279D01*
X6282203Y-1646279D02*
X6263156Y-1617707D01*
X6263156Y-1617707D02*
X6253632Y-1608183D01*
M02*
