M48
METRIC
T1C0.750
T2C0.800
T3C0.900
T4C1.000
T5C1.000
T6C1.100
T7C1.300
T8C1.321
T9C1.400
T10C1.800
%
G90
G05
T1
X78.415Y-87.68
X78.425Y-62.15
X78.515Y-73.58
X78.515Y-80.18
X78.625Y-54.35
X78.795Y-46.32
X79.685Y-86.41
X79.685Y-88.95
X79.695Y-60.88
X79.695Y-63.42
X79.785Y-72.31
X79.785Y-74.85
X79.785Y-78.91
X79.785Y-81.45
X79.895Y-53.08
X79.895Y-55.62
X80.065Y-45.05
X80.065Y-47.59
X106.085Y-50.71
X106.085Y-57.61
X106.155Y-43.48
X107.355Y-49.44
X107.355Y-51.98
X107.355Y-56.34
X107.355Y-58.88
X107.425Y-42.21
X107.425Y-44.75
X109.685Y-83.65
X109.685Y-89.71
X109.785Y-95.71
X110.955Y-82.38
X110.955Y-84.92
X110.955Y-88.44
X110.955Y-90.98
X111.055Y-94.44
X111.055Y-96.98
X133.755Y-55.48
X133.785Y-41.41
X133.785Y-48.41
X135.025Y-54.21
X135.025Y-56.75
X135.055Y-40.14
X135.055Y-42.68
X135.055Y-47.14
X135.055Y-49.68
T2
X47.19Y-78.98
X54.81Y-78.98
X62.115Y-71.18
X62.115Y-76.08
X62.135Y-86.38
X62.135Y-91.08
X62.215Y-64.08
X62.315Y-49.88
X62.315Y-54.68
X62.315Y-59.58
X62.315Y-81.18
X62.395Y-44.78
X65.655Y-98.7
X65.655Y-108.86
X72.275Y-71.18
X72.275Y-76.08
X72.295Y-86.38
X72.295Y-91.08
X72.375Y-64.08
X72.475Y-49.88
X72.475Y-54.68
X72.475Y-59.58
X72.475Y-81.18
X72.555Y-44.78
X75.755Y-98.7
X75.755Y-108.86
X80.315Y-98.68
X80.315Y-108.84
X88.975Y-55.88
X89.055Y-41.88
X89.075Y-46.68
X89.075Y-51.08
X89.075Y-60.38
X93.255Y-81.28
X93.255Y-89.88
X93.275Y-85.38
X93.275Y-94.28
X93.275Y-98.38
X99.135Y-55.88
X99.215Y-41.88
X99.235Y-46.68
X99.235Y-51.08
X99.235Y-60.38
X103.415Y-81.28
X103.415Y-89.88
X103.435Y-85.38
X103.435Y-94.28
X103.435Y-98.38
X117.455Y-39.48
X117.475Y-54.48
X117.475Y-58.88
X117.555Y-44.68
X117.575Y-49.58
X127.615Y-39.48
X127.635Y-54.48
X127.635Y-58.88
X127.715Y-44.68
X127.735Y-49.58
X129.855Y-33.81
X135.895Y-72.98
X140.015Y-33.81
X142.375Y-79.6
X142.375Y-89.76
X146.055Y-72.98
X149.675Y-83.7
X149.675Y-93.86
X149.955Y-33.91
X155.915Y-76.84
X155.915Y-87.0
X160.115Y-33.91
T3
X58.915Y-108.58
X61.455Y-108.58
X70.655Y-106.11
X70.655Y-108.65
X83.965Y-108.61
X86.505Y-108.61
X144.335Y-42.04
X144.335Y-44.58
X144.435Y-35.37
X144.435Y-37.91
T4
X46.455Y-102.68
X49.755Y-105.48
X50.955Y-102.48
X53.655Y-62.38
X54.755Y-87.68
X54.855Y-103.18
X57.955Y-68.08
X57.955Y-95.58
X61.555Y-99.68
X76.955Y-41.28
X79.655Y-38.68
X82.555Y-84.38
X83.555Y-58.48
X83.655Y-73.48
X86.355Y-44.98
X86.655Y-99.98
X87.555Y-79.98
X87.555Y-92.98
X90.655Y-72.68
X108.555Y-35.38
X111.755Y-50.48
X112.555Y-45.58
X112.955Y-56.58
X113.055Y-42.08
X115.855Y-77.48
X116.155Y-92.38
X117.735Y-62.38
X127.835Y-83.61
X133.835Y-79.11
X138.855Y-37.18
X139.455Y-51.68
X140.135Y-42.91
X142.135Y-60.21
X145.935Y-67.01
X149.735Y-49.01
X151.635Y-53.11
X152.685Y-61.56
X153.055Y-107.78
X154.455Y-90.58
X154.955Y-101.58
X158.055Y-103.38
T5
X50.635Y-40.41
X53.175Y-40.41
X55.715Y-40.41
X118.635Y-97.41
X122.385Y-97.41
X126.135Y-97.41
T6
X127.495Y-90.505
X130.035Y-90.505
X132.575Y-90.505
X139.775Y-93.82
X142.315Y-93.82
X144.855Y-93.82
X152.575Y-67.94
X152.575Y-70.48
X152.575Y-73.02
T7
X140.235Y-105.41
X145.235Y-105.41
T8
X154.995Y-48.21
X154.995Y-56.01
X160.075Y-48.21
X160.075Y-56.01
T9
X96.505Y-66.38
X109.205Y-66.38
X115.205Y-66.18
X127.905Y-66.18
T5
X42.785Y-91.96G85X42.785Y-91.36
G05
X45.485Y-96.36G85X46.085Y-96.36
G05
X48.785Y-91.96G85X48.785Y-91.36
G05
T10
X117.185Y-106.235G85X117.185Y-105.235
G05
X127.585Y-106.235G85X127.585Y-105.235
G05
M30
