M48
; DRILL file {KiCad 8.0.8} date 2025-06-27T16:28:30-0400
; FORMAT={-:-/ absolute / metric / decimal}
; #@! TF.CreationDate,2025-06-27T16:28:30-04:00
; #@! TF.GenerationSoftware,Kicad,Pcbnew,8.0.8
; #@! TF.FileFunction,Plated,1,2,PTH
FMAT,2
METRIC
; #@! TA.AperFunction,Plated,PTH,ComponentDrill
T1C0.800
; #@! TA.AperFunction,Plated,PTH,ComponentDrill
T2C0.900
; #@! TA.AperFunction,Plated,PTH,ViaDrill
T3C1.000
; #@! TA.AperFunction,Plated,PTH,ComponentDrill
T4C1.100
; #@! TA.AperFunction,Plated,PTH,ComponentDrill
T5C1.300
; #@! TA.AperFunction,Plated,PTH,ComponentDrill
T6C1.400
; #@! TA.AperFunction,Plated,PTH,ViaDrill
T7C1.500
%
G90
G05
T1
X-2.434Y38.907
X-2.434Y31.657
X-2.434Y24.907
X5.186Y38.907
X5.186Y31.657
X5.186Y24.907
X8.016Y14.697
X8.166Y8.197
X8.166Y2.697
X8.396Y65.657
X10.316Y20.407
X10.556Y14.697
X10.706Y8.197
X10.706Y2.697
X10.936Y65.657
X12.486Y47.157
X12.486Y35.157
X12.636Y41.157
X12.856Y20.407
X13.896Y52.907
X14.896Y65.657
X15.026Y47.157
X15.026Y35.157
X15.176Y41.157
X16.316Y22.407
X16.436Y52.907
X16.496Y9.927
X16.496Y7.387
X16.496Y4.847
X16.661Y1.307
X16.661Y-1.233
X16.661Y-3.773
X17.436Y65.657
X18.856Y22.407
X20.396Y54.907
X20.611Y45.007
X20.611Y42.467
X20.611Y39.927
X20.686Y36.447
X20.686Y33.907
X20.686Y31.367
X20.896Y65.657
X21.246Y17.177
X21.246Y14.637
X21.246Y12.097
X22.936Y54.907
X23.436Y65.657
X25.911Y51.557
X25.911Y49.017
X25.911Y46.477
X29.686Y13.157
X29.686Y8.157
X30.036Y2.157
X31.436Y18.657
X32.226Y13.157
X32.226Y8.157
X32.576Y2.157
X33.976Y18.657
X36.066Y55.407
X36.066Y48.907
X36.066Y42.907
X36.646Y60.157
X37.766Y20.407
X38.556Y9.447
X38.556Y6.907
X38.556Y4.367
X38.556Y0.807
X38.556Y-1.733
X38.556Y-4.273
X38.606Y55.407
X38.606Y48.907
X38.606Y42.907
X39.186Y60.157
X40.306Y20.407
X43.146Y61.907
X43.806Y15.947
X43.806Y13.407
X43.806Y10.867
X45.686Y61.907
X45.916Y52.807
X45.916Y50.267
X45.916Y47.727
X46.056Y44.142
X46.056Y41.602
X46.056Y39.062
X51.816Y14.907
X51.816Y8.407
X51.816Y2.407
X51.911Y59.057
X51.911Y56.517
X51.911Y53.977
X53.896Y20.407
X54.356Y14.907
X54.356Y8.407
X54.356Y2.407
X56.436Y20.407
X60.146Y21.157
X60.911Y0.307
X60.911Y-2.233
X60.911Y-4.773
X60.936Y9.447
X60.936Y6.907
X60.936Y4.367
X61.396Y51.602
X61.396Y49.062
X62.686Y21.157
X62.896Y41.942
X62.896Y39.402
X66.076Y16.177
X66.076Y13.637
X66.076Y11.097
X71.696Y27.157
X74.236Y27.157
X74.856Y49.552
X74.856Y47.012
X82.246Y29.157
X84.786Y29.157
T2
X8.146Y60.657
X10.686Y60.657
X14.411Y60.407
X16.951Y60.407
X21.411Y60.407
X23.951Y60.407
T3
X25.611Y-0.743
T4
X61.856Y55.657
X64.396Y55.657
X66.936Y55.657
X74.776Y56.352
X77.316Y56.352
X79.856Y56.352
X88.936Y28.657
X88.936Y26.117
X88.936Y23.577
T5
X0.936Y55.407
X0.936Y50.407
X74.686Y4.94
X79.686Y4.94
X89.396Y47.907
X89.396Y42.907
T6
X40.861Y38.507
X40.861Y25.807
X50.086Y65.407
X62.786Y65.407
T7
X10.686Y55.907
X26.686Y21.407
X29.861Y61.257
X49.686Y23.907
X66.186Y26.157
X69.936Y33.157
M30
