G04 #@! TF.GenerationSoftware,KiCad,Pcbnew,8.0.8*
G04 #@! TF.CreationDate,2025-08-20T08:10:51-04:00*
G04 #@! TF.ProjectId,multimeter,6d756c74-696d-4657-9465-722e6b696361,rev?*
G04 #@! TF.SameCoordinates,Original*
G04 #@! TF.FileFunction,Legend,Bot*
G04 #@! TF.FilePolarity,Positive*
%FSLAX46Y46*%
G04 Gerber Fmt 4.6, Leading zero omitted, Abs format (unit mm)*
G04 Created by KiCad (PCBNEW 8.0.8) date 2025-08-20 08:10:51*
%MOMM*%
%LPD*%
G01*
G04 APERTURE LIST*
G04 Aperture macros list*
%AMRoundRect*
0 Rectangle with rounded corners*
0 $1 Rounding radius*
0 $2 $3 $4 $5 $6 $7 $8 $9 X,Y pos of 4 corners*
0 Add a 4 corners polygon primitive as box body*
4,1,4,$2,$3,$4,$5,$6,$7,$8,$9,$2,$3,0*
0 Add four circle primitives for the rounded corners*
1,1,$1+$1,$2,$3*
1,1,$1+$1,$4,$5*
1,1,$1+$1,$6,$7*
1,1,$1+$1,$8,$9*
0 Add four rect primitives between the rounded corners*
20,1,$1+$1,$2,$3,$4,$5,0*
20,1,$1+$1,$4,$5,$6,$7,0*
20,1,$1+$1,$6,$7,$8,$9,0*
20,1,$1+$1,$8,$9,$2,$3,0*%
G04 Aperture macros list end*
%ADD10C,3.200000*%
%ADD11C,2.000000*%
%ADD12R,2.000000X2.000000*%
%ADD13O,1.600000X1.600000*%
%ADD14C,1.600000*%
%ADD15RoundRect,0.275000X0.625000X-0.275000X0.625000X0.275000X-0.625000X0.275000X-0.625000X-0.275000X0*%
%ADD16R,1.800000X1.100000*%
%ADD17O,1.905000X2.000000*%
%ADD18R,1.905000X2.000000*%
%ADD19C,1.800000*%
%ADD20R,1.800000X1.800000*%
%ADD21C,2.082800*%
%ADD22C,2.800000*%
%ADD23RoundRect,0.250001X-1.149999X-1.149999X1.149999X-1.149999X1.149999X1.149999X-1.149999X1.149999X0*%
%ADD24O,2.800000X2.800000*%
%ADD25R,2.800000X2.800000*%
%ADD26R,2.800000X3.800000*%
%ADD27O,2.000000X1.905000*%
%ADD28R,2.000000X1.905000*%
%ADD29R,1.600000X1.600000*%
%ADD30R,2.600000X2.000000*%
%ADD31R,2.000000X2.600000*%
%ADD32C,2.500000*%
G04 APERTURE END LIST*
%LPC*%
D10*
X42435000Y-71760000D03*
X166360000Y-34610000D03*
D11*
X50635000Y-40410000D03*
X53175000Y-40410000D03*
D12*
X55715000Y-40410000D03*
D10*
X41735000Y-34610000D03*
D13*
X135895000Y-72980000D03*
D14*
X146055000Y-72980000D03*
D13*
X99135000Y-55880000D03*
D14*
X88975000Y-55880000D03*
D15*
X111355000Y-88440000D03*
X109285000Y-89710000D03*
D16*
X111355000Y-90980000D03*
D17*
X132575000Y-90505000D03*
X130035000Y-90505000D03*
D18*
X127495000Y-90505000D03*
D19*
X70655000Y-106110000D03*
D20*
X70655000Y-108650000D03*
D13*
X72275000Y-76080000D03*
D14*
X62115000Y-76080000D03*
D15*
X111355000Y-82380000D03*
X109285000Y-83650000D03*
D16*
X111355000Y-84920000D03*
D15*
X107825000Y-42210000D03*
X105755000Y-43480000D03*
D16*
X107825000Y-44750000D03*
D13*
X127635000Y-54480000D03*
D14*
X117475000Y-54480000D03*
D13*
X129855000Y-33810000D03*
D14*
X140015000Y-33810000D03*
D21*
X160075000Y-48210000D03*
X154995000Y-48210000D03*
D22*
X145235000Y-105410000D03*
D23*
X140235000Y-105410000D03*
D13*
X155915000Y-87000000D03*
D14*
X155915000Y-76840000D03*
D15*
X135425000Y-54210000D03*
X133355000Y-55480000D03*
D16*
X135425000Y-56750000D03*
D15*
X80185000Y-78910000D03*
X78115000Y-80180000D03*
D16*
X80185000Y-81450000D03*
D15*
X135455000Y-40140000D03*
X133385000Y-41410000D03*
D16*
X135455000Y-42680000D03*
D13*
X103415000Y-81280000D03*
D14*
X93255000Y-81280000D03*
D13*
X75755000Y-98700000D03*
D14*
X75755000Y-108860000D03*
D19*
X86505000Y-108610000D03*
D20*
X83965000Y-108610000D03*
D24*
X96505000Y-66380000D03*
D25*
X109205000Y-66380000D03*
D17*
X139775000Y-93820000D03*
X142315000Y-93820000D03*
D18*
X144855000Y-93820000D03*
D26*
X117185000Y-105735000D03*
X127585000Y-105735000D03*
D11*
X118635000Y-97410000D03*
X122385000Y-97410000D03*
D12*
X126135000Y-97410000D03*
D13*
X99235000Y-46680000D03*
D14*
X89075000Y-46680000D03*
D15*
X107755000Y-56340000D03*
X105685000Y-57610000D03*
D16*
X107755000Y-58880000D03*
D13*
X99215000Y-41880000D03*
D14*
X89055000Y-41880000D03*
D15*
X80095000Y-60880000D03*
X78025000Y-62150000D03*
D16*
X80095000Y-63420000D03*
D13*
X72475000Y-81180000D03*
D14*
X62315000Y-81180000D03*
D21*
X160075000Y-56010000D03*
X154995000Y-56010000D03*
D24*
X127905000Y-66180000D03*
D25*
X115205000Y-66180000D03*
D13*
X103435000Y-94280000D03*
D14*
X93275000Y-94280000D03*
D13*
X72475000Y-59580000D03*
D14*
X62315000Y-59580000D03*
D13*
X99235000Y-60380000D03*
D14*
X89075000Y-60380000D03*
D13*
X127715000Y-44680000D03*
D14*
X117555000Y-44680000D03*
D27*
X152575000Y-67940000D03*
X152575000Y-70480000D03*
D28*
X152575000Y-73020000D03*
D13*
X149675000Y-83700000D03*
D14*
X149675000Y-93860000D03*
D13*
X72295000Y-86380000D03*
D14*
X62135000Y-86380000D03*
D13*
X127615000Y-39480000D03*
D14*
X117455000Y-39480000D03*
D13*
X103435000Y-85380000D03*
D14*
X93275000Y-85380000D03*
D15*
X80185000Y-72310000D03*
X78115000Y-73580000D03*
D16*
X80185000Y-74850000D03*
D19*
X144435000Y-37910000D03*
D20*
X144435000Y-35370000D03*
D15*
X135455000Y-47140000D03*
X133385000Y-48410000D03*
D16*
X135455000Y-49680000D03*
D13*
X103435000Y-98380000D03*
D14*
X93275000Y-98380000D03*
D13*
X160115000Y-33910000D03*
D14*
X149955000Y-33910000D03*
D10*
X41735000Y-108860000D03*
D13*
X142375000Y-89760000D03*
D14*
X142375000Y-79600000D03*
D10*
X166435000Y-108860000D03*
D13*
X54810000Y-78980000D03*
D29*
X47190000Y-78980000D03*
D19*
X144335000Y-44580000D03*
D20*
X144335000Y-42040000D03*
D13*
X80315000Y-98680000D03*
D14*
X80315000Y-108840000D03*
D13*
X127735000Y-49580000D03*
D14*
X117575000Y-49580000D03*
D19*
X58915000Y-108580000D03*
D20*
X61455000Y-108580000D03*
D13*
X127635000Y-58880000D03*
D14*
X117475000Y-58880000D03*
D15*
X80465000Y-45050000D03*
X78395000Y-46320000D03*
D16*
X80465000Y-47590000D03*
D30*
X45785000Y-96360000D03*
D31*
X42785000Y-91660000D03*
X48785000Y-91660000D03*
D13*
X99235000Y-51080000D03*
D14*
X89075000Y-51080000D03*
D15*
X80295000Y-53080000D03*
X78225000Y-54350000D03*
D16*
X80295000Y-55620000D03*
D13*
X72475000Y-49880000D03*
D14*
X62315000Y-49880000D03*
D10*
X165510000Y-71710000D03*
D13*
X72295000Y-91080000D03*
D14*
X62135000Y-91080000D03*
D15*
X111455000Y-94440000D03*
X109385000Y-95710000D03*
D16*
X111455000Y-96980000D03*
D13*
X72275000Y-71180000D03*
D14*
X62115000Y-71180000D03*
D13*
X72475000Y-54680000D03*
D14*
X62315000Y-54680000D03*
D13*
X65655000Y-98700000D03*
D14*
X65655000Y-108860000D03*
D13*
X72375000Y-64080000D03*
D14*
X62215000Y-64080000D03*
D13*
X72555000Y-44780000D03*
D14*
X62395000Y-44780000D03*
D13*
X103415000Y-89880000D03*
D14*
X93255000Y-89880000D03*
D15*
X107755000Y-49440000D03*
X105685000Y-50710000D03*
D16*
X107755000Y-51980000D03*
D15*
X80085000Y-86410000D03*
X78015000Y-87680000D03*
D16*
X80085000Y-88950000D03*
D32*
X87555000Y-92980000D03*
X90655000Y-72680000D03*
X112955000Y-56580000D03*
X57955000Y-68080000D03*
X57955000Y-95580000D03*
X115855000Y-77480000D03*
X154455000Y-90580000D03*
X116155000Y-92380000D03*
X46455000Y-102680000D03*
X83555000Y-58480000D03*
X49755000Y-105480000D03*
X111755000Y-50480000D03*
X151635000Y-53110000D03*
X153055000Y-107780000D03*
X76955000Y-41280000D03*
X86655000Y-99980000D03*
X83655000Y-73480000D03*
X149735000Y-49010000D03*
X139455000Y-51680000D03*
X61555000Y-99680000D03*
X112555000Y-45580000D03*
X50955000Y-102480000D03*
X82555000Y-84380000D03*
X152685000Y-61560000D03*
X138855000Y-37180000D03*
X154955000Y-101580000D03*
X158055000Y-103380000D03*
X54855000Y-103180000D03*
X87555000Y-79980000D03*
X53655000Y-62380000D03*
X54755000Y-87680000D03*
X142135000Y-60210000D03*
X127835000Y-83610000D03*
X117735000Y-62380000D03*
X140135000Y-42910000D03*
X79655000Y-38680000D03*
X86355000Y-44980000D03*
X108555000Y-35380000D03*
X113055000Y-42080000D03*
X133835000Y-79110000D03*
X145935000Y-67010000D03*
%LPD*%
M02*
