G04 #@! TF.GenerationSoftware,KiCad,Pcbnew,8.0.8*
G04 #@! TF.CreationDate,2025-08-20T08:10:51-04:00*
G04 #@! TF.ProjectId,multimeter,6d756c74-696d-4657-9465-722e6b696361,rev?*
G04 #@! TF.SameCoordinates,Original*
G04 #@! TF.FileFunction,Legend,Top*
G04 #@! TF.FilePolarity,Positive*
%FSLAX46Y46*%
G04 Gerber Fmt 4.6, Leading zero omitted, Abs format (unit mm)*
G04 Created by KiCad (PCBNEW 8.0.8) date 2025-08-20 08:10:51*
%MOMM*%
%LPD*%
G01*
G04 APERTURE LIST*
G04 Aperture macros list*
%AMRoundRect*
0 Rectangle with rounded corners*
0 $1 Rounding radius*
0 $2 $3 $4 $5 $6 $7 $8 $9 X,Y pos of 4 corners*
0 Add a 4 corners polygon primitive as box body*
4,1,4,$2,$3,$4,$5,$6,$7,$8,$9,$2,$3,0*
0 Add four circle primitives for the rounded corners*
1,1,$1+$1,$2,$3*
1,1,$1+$1,$4,$5*
1,1,$1+$1,$6,$7*
1,1,$1+$1,$8,$9*
0 Add four rect primitives between the rounded corners*
20,1,$1+$1,$2,$3,$4,$5,0*
20,1,$1+$1,$4,$5,$6,$7,0*
20,1,$1+$1,$6,$7,$8,$9,0*
20,1,$1+$1,$8,$9,$2,$3,0*%
G04 Aperture macros list end*
%ADD10C,0.150000*%
%ADD11C,0.100000*%
%ADD12C,0.120000*%
%ADD13C,3.200000*%
%ADD14C,2.000000*%
%ADD15R,2.000000X2.000000*%
%ADD16O,1.600000X1.600000*%
%ADD17C,1.600000*%
%ADD18RoundRect,0.275000X0.625000X-0.275000X0.625000X0.275000X-0.625000X0.275000X-0.625000X-0.275000X0*%
%ADD19R,1.800000X1.100000*%
%ADD20O,1.905000X2.000000*%
%ADD21R,1.905000X2.000000*%
%ADD22C,1.800000*%
%ADD23R,1.800000X1.800000*%
%ADD24C,2.082800*%
%ADD25C,2.800000*%
%ADD26RoundRect,0.250001X-1.149999X-1.149999X1.149999X-1.149999X1.149999X1.149999X-1.149999X1.149999X0*%
%ADD27O,2.800000X2.800000*%
%ADD28R,2.800000X2.800000*%
%ADD29R,2.800000X3.800000*%
%ADD30O,2.000000X1.905000*%
%ADD31R,2.000000X1.905000*%
%ADD32R,1.600000X1.600000*%
%ADD33R,2.600000X2.000000*%
%ADD34R,2.000000X2.600000*%
%ADD35C,2.500000*%
G04 APERTURE END LIST*
D10*
X41623095Y-76714819D02*
X41623095Y-75714819D01*
X41623095Y-76191009D02*
X42194523Y-76191009D01*
X42194523Y-76714819D02*
X42194523Y-75714819D01*
X43099285Y-76048152D02*
X43099285Y-76714819D01*
X42861190Y-75667200D02*
X42623095Y-76381485D01*
X42623095Y-76381485D02*
X43242142Y-76381485D01*
X161798095Y-38514819D02*
X161798095Y-37514819D01*
X161798095Y-37991009D02*
X162369523Y-37991009D01*
X162369523Y-38514819D02*
X162369523Y-37514819D01*
X163369523Y-38514819D02*
X162798095Y-38514819D01*
X163083809Y-38514819D02*
X163083809Y-37514819D01*
X163083809Y-37514819D02*
X162988571Y-37657676D01*
X162988571Y-37657676D02*
X162893333Y-37752914D01*
X162893333Y-37752914D02*
X162798095Y-37800533D01*
X51781667Y-44347200D02*
X51924524Y-44394819D01*
X51924524Y-44394819D02*
X52162619Y-44394819D01*
X52162619Y-44394819D02*
X52257857Y-44347200D01*
X52257857Y-44347200D02*
X52305476Y-44299580D01*
X52305476Y-44299580D02*
X52353095Y-44204342D01*
X52353095Y-44204342D02*
X52353095Y-44109104D01*
X52353095Y-44109104D02*
X52305476Y-44013866D01*
X52305476Y-44013866D02*
X52257857Y-43966247D01*
X52257857Y-43966247D02*
X52162619Y-43918628D01*
X52162619Y-43918628D02*
X51972143Y-43871009D01*
X51972143Y-43871009D02*
X51876905Y-43823390D01*
X51876905Y-43823390D02*
X51829286Y-43775771D01*
X51829286Y-43775771D02*
X51781667Y-43680533D01*
X51781667Y-43680533D02*
X51781667Y-43585295D01*
X51781667Y-43585295D02*
X51829286Y-43490057D01*
X51829286Y-43490057D02*
X51876905Y-43442438D01*
X51876905Y-43442438D02*
X51972143Y-43394819D01*
X51972143Y-43394819D02*
X52210238Y-43394819D01*
X52210238Y-43394819D02*
X52353095Y-43442438D01*
X52686429Y-43394819D02*
X52924524Y-44394819D01*
X52924524Y-44394819D02*
X53115000Y-43680533D01*
X53115000Y-43680533D02*
X53305476Y-44394819D01*
X53305476Y-44394819D02*
X53543572Y-43394819D01*
X54353095Y-43728152D02*
X54353095Y-44394819D01*
X54115000Y-43347200D02*
X53876905Y-44061485D01*
X53876905Y-44061485D02*
X54495952Y-44061485D01*
X40923095Y-39564819D02*
X40923095Y-38564819D01*
X40923095Y-39041009D02*
X41494523Y-39041009D01*
X41494523Y-39564819D02*
X41494523Y-38564819D01*
X42399285Y-38898152D02*
X42399285Y-39564819D01*
X42161190Y-38517200D02*
X41923095Y-39231485D01*
X41923095Y-39231485D02*
X42542142Y-39231485D01*
X140332142Y-75804819D02*
X139998809Y-75328628D01*
X139760714Y-75804819D02*
X139760714Y-74804819D01*
X139760714Y-74804819D02*
X140141666Y-74804819D01*
X140141666Y-74804819D02*
X140236904Y-74852438D01*
X140236904Y-74852438D02*
X140284523Y-74900057D01*
X140284523Y-74900057D02*
X140332142Y-74995295D01*
X140332142Y-74995295D02*
X140332142Y-75138152D01*
X140332142Y-75138152D02*
X140284523Y-75233390D01*
X140284523Y-75233390D02*
X140236904Y-75281009D01*
X140236904Y-75281009D02*
X140141666Y-75328628D01*
X140141666Y-75328628D02*
X139760714Y-75328628D01*
X140665476Y-74804819D02*
X141284523Y-74804819D01*
X141284523Y-74804819D02*
X140951190Y-75185771D01*
X140951190Y-75185771D02*
X141094047Y-75185771D01*
X141094047Y-75185771D02*
X141189285Y-75233390D01*
X141189285Y-75233390D02*
X141236904Y-75281009D01*
X141236904Y-75281009D02*
X141284523Y-75376247D01*
X141284523Y-75376247D02*
X141284523Y-75614342D01*
X141284523Y-75614342D02*
X141236904Y-75709580D01*
X141236904Y-75709580D02*
X141189285Y-75757200D01*
X141189285Y-75757200D02*
X141094047Y-75804819D01*
X141094047Y-75804819D02*
X140808333Y-75804819D01*
X140808333Y-75804819D02*
X140713095Y-75757200D01*
X140713095Y-75757200D02*
X140665476Y-75709580D01*
X141665476Y-74900057D02*
X141713095Y-74852438D01*
X141713095Y-74852438D02*
X141808333Y-74804819D01*
X141808333Y-74804819D02*
X142046428Y-74804819D01*
X142046428Y-74804819D02*
X142141666Y-74852438D01*
X142141666Y-74852438D02*
X142189285Y-74900057D01*
X142189285Y-74900057D02*
X142236904Y-74995295D01*
X142236904Y-74995295D02*
X142236904Y-75090533D01*
X142236904Y-75090533D02*
X142189285Y-75233390D01*
X142189285Y-75233390D02*
X141617857Y-75804819D01*
X141617857Y-75804819D02*
X142236904Y-75804819D01*
X93888333Y-53964819D02*
X93555000Y-53488628D01*
X93316905Y-53964819D02*
X93316905Y-52964819D01*
X93316905Y-52964819D02*
X93697857Y-52964819D01*
X93697857Y-52964819D02*
X93793095Y-53012438D01*
X93793095Y-53012438D02*
X93840714Y-53060057D01*
X93840714Y-53060057D02*
X93888333Y-53155295D01*
X93888333Y-53155295D02*
X93888333Y-53298152D01*
X93888333Y-53298152D02*
X93840714Y-53393390D01*
X93840714Y-53393390D02*
X93793095Y-53441009D01*
X93793095Y-53441009D02*
X93697857Y-53488628D01*
X93697857Y-53488628D02*
X93316905Y-53488628D01*
X94793095Y-52964819D02*
X94316905Y-52964819D01*
X94316905Y-52964819D02*
X94269286Y-53441009D01*
X94269286Y-53441009D02*
X94316905Y-53393390D01*
X94316905Y-53393390D02*
X94412143Y-53345771D01*
X94412143Y-53345771D02*
X94650238Y-53345771D01*
X94650238Y-53345771D02*
X94745476Y-53393390D01*
X94745476Y-53393390D02*
X94793095Y-53441009D01*
X94793095Y-53441009D02*
X94840714Y-53536247D01*
X94840714Y-53536247D02*
X94840714Y-53774342D01*
X94840714Y-53774342D02*
X94793095Y-53869580D01*
X94793095Y-53869580D02*
X94745476Y-53917200D01*
X94745476Y-53917200D02*
X94650238Y-53964819D01*
X94650238Y-53964819D02*
X94412143Y-53964819D01*
X94412143Y-53964819D02*
X94316905Y-53917200D01*
X94316905Y-53917200D02*
X94269286Y-53869580D01*
X107105057Y-90281428D02*
X107057438Y-90376666D01*
X107057438Y-90376666D02*
X106962200Y-90471904D01*
X106962200Y-90471904D02*
X106819342Y-90614761D01*
X106819342Y-90614761D02*
X106771723Y-90709999D01*
X106771723Y-90709999D02*
X106771723Y-90805237D01*
X107009819Y-90757618D02*
X106962200Y-90852856D01*
X106962200Y-90852856D02*
X106866961Y-90948094D01*
X106866961Y-90948094D02*
X106676485Y-90995713D01*
X106676485Y-90995713D02*
X106343152Y-90995713D01*
X106343152Y-90995713D02*
X106152676Y-90948094D01*
X106152676Y-90948094D02*
X106057438Y-90852856D01*
X106057438Y-90852856D02*
X106009819Y-90757618D01*
X106009819Y-90757618D02*
X106009819Y-90567142D01*
X106009819Y-90567142D02*
X106057438Y-90471904D01*
X106057438Y-90471904D02*
X106152676Y-90376666D01*
X106152676Y-90376666D02*
X106343152Y-90329047D01*
X106343152Y-90329047D02*
X106676485Y-90329047D01*
X106676485Y-90329047D02*
X106866961Y-90376666D01*
X106866961Y-90376666D02*
X106962200Y-90471904D01*
X106962200Y-90471904D02*
X107009819Y-90567142D01*
X107009819Y-90567142D02*
X107009819Y-90757618D01*
X106009819Y-89995713D02*
X106009819Y-89376666D01*
X106009819Y-89376666D02*
X106390771Y-89709999D01*
X106390771Y-89709999D02*
X106390771Y-89567142D01*
X106390771Y-89567142D02*
X106438390Y-89471904D01*
X106438390Y-89471904D02*
X106486009Y-89424285D01*
X106486009Y-89424285D02*
X106581247Y-89376666D01*
X106581247Y-89376666D02*
X106819342Y-89376666D01*
X106819342Y-89376666D02*
X106914580Y-89424285D01*
X106914580Y-89424285D02*
X106962200Y-89471904D01*
X106962200Y-89471904D02*
X107009819Y-89567142D01*
X107009819Y-89567142D02*
X107009819Y-89852856D01*
X107009819Y-89852856D02*
X106962200Y-89948094D01*
X106962200Y-89948094D02*
X106914580Y-89995713D01*
X106009819Y-88757618D02*
X106009819Y-88662380D01*
X106009819Y-88662380D02*
X106057438Y-88567142D01*
X106057438Y-88567142D02*
X106105057Y-88519523D01*
X106105057Y-88519523D02*
X106200295Y-88471904D01*
X106200295Y-88471904D02*
X106390771Y-88424285D01*
X106390771Y-88424285D02*
X106628866Y-88424285D01*
X106628866Y-88424285D02*
X106819342Y-88471904D01*
X106819342Y-88471904D02*
X106914580Y-88519523D01*
X106914580Y-88519523D02*
X106962200Y-88567142D01*
X106962200Y-88567142D02*
X107009819Y-88662380D01*
X107009819Y-88662380D02*
X107009819Y-88757618D01*
X107009819Y-88757618D02*
X106962200Y-88852856D01*
X106962200Y-88852856D02*
X106914580Y-88900475D01*
X106914580Y-88900475D02*
X106819342Y-88948094D01*
X106819342Y-88948094D02*
X106628866Y-88995713D01*
X106628866Y-88995713D02*
X106390771Y-88995713D01*
X106390771Y-88995713D02*
X106200295Y-88948094D01*
X106200295Y-88948094D02*
X106105057Y-88900475D01*
X106105057Y-88900475D02*
X106057438Y-88852856D01*
X106057438Y-88852856D02*
X106009819Y-88757618D01*
X129939761Y-86785057D02*
X129844523Y-86737438D01*
X129844523Y-86737438D02*
X129749285Y-86642200D01*
X129749285Y-86642200D02*
X129606428Y-86499342D01*
X129606428Y-86499342D02*
X129511190Y-86451723D01*
X129511190Y-86451723D02*
X129415952Y-86451723D01*
X129463571Y-86689819D02*
X129368333Y-86642200D01*
X129368333Y-86642200D02*
X129273095Y-86546961D01*
X129273095Y-86546961D02*
X129225476Y-86356485D01*
X129225476Y-86356485D02*
X129225476Y-86023152D01*
X129225476Y-86023152D02*
X129273095Y-85832676D01*
X129273095Y-85832676D02*
X129368333Y-85737438D01*
X129368333Y-85737438D02*
X129463571Y-85689819D01*
X129463571Y-85689819D02*
X129654047Y-85689819D01*
X129654047Y-85689819D02*
X129749285Y-85737438D01*
X129749285Y-85737438D02*
X129844523Y-85832676D01*
X129844523Y-85832676D02*
X129892142Y-86023152D01*
X129892142Y-86023152D02*
X129892142Y-86356485D01*
X129892142Y-86356485D02*
X129844523Y-86546961D01*
X129844523Y-86546961D02*
X129749285Y-86642200D01*
X129749285Y-86642200D02*
X129654047Y-86689819D01*
X129654047Y-86689819D02*
X129463571Y-86689819D01*
X130844523Y-86689819D02*
X130273095Y-86689819D01*
X130558809Y-86689819D02*
X130558809Y-85689819D01*
X130558809Y-85689819D02*
X130463571Y-85832676D01*
X130463571Y-85832676D02*
X130368333Y-85927914D01*
X130368333Y-85927914D02*
X130273095Y-85975533D01*
X68849819Y-108118094D02*
X67849819Y-108118094D01*
X67849819Y-108118094D02*
X67849819Y-107879999D01*
X67849819Y-107879999D02*
X67897438Y-107737142D01*
X67897438Y-107737142D02*
X67992676Y-107641904D01*
X67992676Y-107641904D02*
X68087914Y-107594285D01*
X68087914Y-107594285D02*
X68278390Y-107546666D01*
X68278390Y-107546666D02*
X68421247Y-107546666D01*
X68421247Y-107546666D02*
X68611723Y-107594285D01*
X68611723Y-107594285D02*
X68706961Y-107641904D01*
X68706961Y-107641904D02*
X68802200Y-107737142D01*
X68802200Y-107737142D02*
X68849819Y-107879999D01*
X68849819Y-107879999D02*
X68849819Y-108118094D01*
X67849819Y-107213332D02*
X67849819Y-106594285D01*
X67849819Y-106594285D02*
X68230771Y-106927618D01*
X68230771Y-106927618D02*
X68230771Y-106784761D01*
X68230771Y-106784761D02*
X68278390Y-106689523D01*
X68278390Y-106689523D02*
X68326009Y-106641904D01*
X68326009Y-106641904D02*
X68421247Y-106594285D01*
X68421247Y-106594285D02*
X68659342Y-106594285D01*
X68659342Y-106594285D02*
X68754580Y-106641904D01*
X68754580Y-106641904D02*
X68802200Y-106689523D01*
X68802200Y-106689523D02*
X68849819Y-106784761D01*
X68849819Y-106784761D02*
X68849819Y-107070475D01*
X68849819Y-107070475D02*
X68802200Y-107165713D01*
X68802200Y-107165713D02*
X68754580Y-107213332D01*
X66552142Y-74164819D02*
X66218809Y-73688628D01*
X65980714Y-74164819D02*
X65980714Y-73164819D01*
X65980714Y-73164819D02*
X66361666Y-73164819D01*
X66361666Y-73164819D02*
X66456904Y-73212438D01*
X66456904Y-73212438D02*
X66504523Y-73260057D01*
X66504523Y-73260057D02*
X66552142Y-73355295D01*
X66552142Y-73355295D02*
X66552142Y-73498152D01*
X66552142Y-73498152D02*
X66504523Y-73593390D01*
X66504523Y-73593390D02*
X66456904Y-73641009D01*
X66456904Y-73641009D02*
X66361666Y-73688628D01*
X66361666Y-73688628D02*
X65980714Y-73688628D01*
X67504523Y-74164819D02*
X66933095Y-74164819D01*
X67218809Y-74164819D02*
X67218809Y-73164819D01*
X67218809Y-73164819D02*
X67123571Y-73307676D01*
X67123571Y-73307676D02*
X67028333Y-73402914D01*
X67028333Y-73402914D02*
X66933095Y-73450533D01*
X68123571Y-73164819D02*
X68218809Y-73164819D01*
X68218809Y-73164819D02*
X68314047Y-73212438D01*
X68314047Y-73212438D02*
X68361666Y-73260057D01*
X68361666Y-73260057D02*
X68409285Y-73355295D01*
X68409285Y-73355295D02*
X68456904Y-73545771D01*
X68456904Y-73545771D02*
X68456904Y-73783866D01*
X68456904Y-73783866D02*
X68409285Y-73974342D01*
X68409285Y-73974342D02*
X68361666Y-74069580D01*
X68361666Y-74069580D02*
X68314047Y-74117200D01*
X68314047Y-74117200D02*
X68218809Y-74164819D01*
X68218809Y-74164819D02*
X68123571Y-74164819D01*
X68123571Y-74164819D02*
X68028333Y-74117200D01*
X68028333Y-74117200D02*
X67980714Y-74069580D01*
X67980714Y-74069580D02*
X67933095Y-73974342D01*
X67933095Y-73974342D02*
X67885476Y-73783866D01*
X67885476Y-73783866D02*
X67885476Y-73545771D01*
X67885476Y-73545771D02*
X67933095Y-73355295D01*
X67933095Y-73355295D02*
X67980714Y-73260057D01*
X67980714Y-73260057D02*
X68028333Y-73212438D01*
X68028333Y-73212438D02*
X68123571Y-73164819D01*
X107105057Y-84221428D02*
X107057438Y-84316666D01*
X107057438Y-84316666D02*
X106962200Y-84411904D01*
X106962200Y-84411904D02*
X106819342Y-84554761D01*
X106819342Y-84554761D02*
X106771723Y-84649999D01*
X106771723Y-84649999D02*
X106771723Y-84745237D01*
X107009819Y-84697618D02*
X106962200Y-84792856D01*
X106962200Y-84792856D02*
X106866961Y-84888094D01*
X106866961Y-84888094D02*
X106676485Y-84935713D01*
X106676485Y-84935713D02*
X106343152Y-84935713D01*
X106343152Y-84935713D02*
X106152676Y-84888094D01*
X106152676Y-84888094D02*
X106057438Y-84792856D01*
X106057438Y-84792856D02*
X106009819Y-84697618D01*
X106009819Y-84697618D02*
X106009819Y-84507142D01*
X106009819Y-84507142D02*
X106057438Y-84411904D01*
X106057438Y-84411904D02*
X106152676Y-84316666D01*
X106152676Y-84316666D02*
X106343152Y-84269047D01*
X106343152Y-84269047D02*
X106676485Y-84269047D01*
X106676485Y-84269047D02*
X106866961Y-84316666D01*
X106866961Y-84316666D02*
X106962200Y-84411904D01*
X106962200Y-84411904D02*
X107009819Y-84507142D01*
X107009819Y-84507142D02*
X107009819Y-84697618D01*
X106009819Y-83935713D02*
X106009819Y-83316666D01*
X106009819Y-83316666D02*
X106390771Y-83649999D01*
X106390771Y-83649999D02*
X106390771Y-83507142D01*
X106390771Y-83507142D02*
X106438390Y-83411904D01*
X106438390Y-83411904D02*
X106486009Y-83364285D01*
X106486009Y-83364285D02*
X106581247Y-83316666D01*
X106581247Y-83316666D02*
X106819342Y-83316666D01*
X106819342Y-83316666D02*
X106914580Y-83364285D01*
X106914580Y-83364285D02*
X106962200Y-83411904D01*
X106962200Y-83411904D02*
X107009819Y-83507142D01*
X107009819Y-83507142D02*
X107009819Y-83792856D01*
X107009819Y-83792856D02*
X106962200Y-83888094D01*
X106962200Y-83888094D02*
X106914580Y-83935713D01*
X107009819Y-82364285D02*
X107009819Y-82935713D01*
X107009819Y-82649999D02*
X106009819Y-82649999D01*
X106009819Y-82649999D02*
X106152676Y-82745237D01*
X106152676Y-82745237D02*
X106247914Y-82840475D01*
X106247914Y-82840475D02*
X106295533Y-82935713D01*
X103575057Y-44051428D02*
X103527438Y-44146666D01*
X103527438Y-44146666D02*
X103432200Y-44241904D01*
X103432200Y-44241904D02*
X103289342Y-44384761D01*
X103289342Y-44384761D02*
X103241723Y-44479999D01*
X103241723Y-44479999D02*
X103241723Y-44575237D01*
X103479819Y-44527618D02*
X103432200Y-44622856D01*
X103432200Y-44622856D02*
X103336961Y-44718094D01*
X103336961Y-44718094D02*
X103146485Y-44765713D01*
X103146485Y-44765713D02*
X102813152Y-44765713D01*
X102813152Y-44765713D02*
X102622676Y-44718094D01*
X102622676Y-44718094D02*
X102527438Y-44622856D01*
X102527438Y-44622856D02*
X102479819Y-44527618D01*
X102479819Y-44527618D02*
X102479819Y-44337142D01*
X102479819Y-44337142D02*
X102527438Y-44241904D01*
X102527438Y-44241904D02*
X102622676Y-44146666D01*
X102622676Y-44146666D02*
X102813152Y-44099047D01*
X102813152Y-44099047D02*
X103146485Y-44099047D01*
X103146485Y-44099047D02*
X103336961Y-44146666D01*
X103336961Y-44146666D02*
X103432200Y-44241904D01*
X103432200Y-44241904D02*
X103479819Y-44337142D01*
X103479819Y-44337142D02*
X103479819Y-44527618D01*
X102575057Y-43718094D02*
X102527438Y-43670475D01*
X102527438Y-43670475D02*
X102479819Y-43575237D01*
X102479819Y-43575237D02*
X102479819Y-43337142D01*
X102479819Y-43337142D02*
X102527438Y-43241904D01*
X102527438Y-43241904D02*
X102575057Y-43194285D01*
X102575057Y-43194285D02*
X102670295Y-43146666D01*
X102670295Y-43146666D02*
X102765533Y-43146666D01*
X102765533Y-43146666D02*
X102908390Y-43194285D01*
X102908390Y-43194285D02*
X103479819Y-43765713D01*
X103479819Y-43765713D02*
X103479819Y-43146666D01*
X102479819Y-42241904D02*
X102479819Y-42718094D01*
X102479819Y-42718094D02*
X102956009Y-42765713D01*
X102956009Y-42765713D02*
X102908390Y-42718094D01*
X102908390Y-42718094D02*
X102860771Y-42622856D01*
X102860771Y-42622856D02*
X102860771Y-42384761D01*
X102860771Y-42384761D02*
X102908390Y-42289523D01*
X102908390Y-42289523D02*
X102956009Y-42241904D01*
X102956009Y-42241904D02*
X103051247Y-42194285D01*
X103051247Y-42194285D02*
X103289342Y-42194285D01*
X103289342Y-42194285D02*
X103384580Y-42241904D01*
X103384580Y-42241904D02*
X103432200Y-42289523D01*
X103432200Y-42289523D02*
X103479819Y-42384761D01*
X103479819Y-42384761D02*
X103479819Y-42622856D01*
X103479819Y-42622856D02*
X103432200Y-42718094D01*
X103432200Y-42718094D02*
X103384580Y-42765713D01*
X122388333Y-52564819D02*
X122055000Y-52088628D01*
X121816905Y-52564819D02*
X121816905Y-51564819D01*
X121816905Y-51564819D02*
X122197857Y-51564819D01*
X122197857Y-51564819D02*
X122293095Y-51612438D01*
X122293095Y-51612438D02*
X122340714Y-51660057D01*
X122340714Y-51660057D02*
X122388333Y-51755295D01*
X122388333Y-51755295D02*
X122388333Y-51898152D01*
X122388333Y-51898152D02*
X122340714Y-51993390D01*
X122340714Y-51993390D02*
X122293095Y-52041009D01*
X122293095Y-52041009D02*
X122197857Y-52088628D01*
X122197857Y-52088628D02*
X121816905Y-52088628D01*
X123245476Y-51564819D02*
X123055000Y-51564819D01*
X123055000Y-51564819D02*
X122959762Y-51612438D01*
X122959762Y-51612438D02*
X122912143Y-51660057D01*
X122912143Y-51660057D02*
X122816905Y-51802914D01*
X122816905Y-51802914D02*
X122769286Y-51993390D01*
X122769286Y-51993390D02*
X122769286Y-52374342D01*
X122769286Y-52374342D02*
X122816905Y-52469580D01*
X122816905Y-52469580D02*
X122864524Y-52517200D01*
X122864524Y-52517200D02*
X122959762Y-52564819D01*
X122959762Y-52564819D02*
X123150238Y-52564819D01*
X123150238Y-52564819D02*
X123245476Y-52517200D01*
X123245476Y-52517200D02*
X123293095Y-52469580D01*
X123293095Y-52469580D02*
X123340714Y-52374342D01*
X123340714Y-52374342D02*
X123340714Y-52136247D01*
X123340714Y-52136247D02*
X123293095Y-52041009D01*
X123293095Y-52041009D02*
X123245476Y-51993390D01*
X123245476Y-51993390D02*
X123150238Y-51945771D01*
X123150238Y-51945771D02*
X122959762Y-51945771D01*
X122959762Y-51945771D02*
X122864524Y-51993390D01*
X122864524Y-51993390D02*
X122816905Y-52041009D01*
X122816905Y-52041009D02*
X122769286Y-52136247D01*
X134292142Y-36634819D02*
X133958809Y-36158628D01*
X133720714Y-36634819D02*
X133720714Y-35634819D01*
X133720714Y-35634819D02*
X134101666Y-35634819D01*
X134101666Y-35634819D02*
X134196904Y-35682438D01*
X134196904Y-35682438D02*
X134244523Y-35730057D01*
X134244523Y-35730057D02*
X134292142Y-35825295D01*
X134292142Y-35825295D02*
X134292142Y-35968152D01*
X134292142Y-35968152D02*
X134244523Y-36063390D01*
X134244523Y-36063390D02*
X134196904Y-36111009D01*
X134196904Y-36111009D02*
X134101666Y-36158628D01*
X134101666Y-36158628D02*
X133720714Y-36158628D01*
X134625476Y-35634819D02*
X135244523Y-35634819D01*
X135244523Y-35634819D02*
X134911190Y-36015771D01*
X134911190Y-36015771D02*
X135054047Y-36015771D01*
X135054047Y-36015771D02*
X135149285Y-36063390D01*
X135149285Y-36063390D02*
X135196904Y-36111009D01*
X135196904Y-36111009D02*
X135244523Y-36206247D01*
X135244523Y-36206247D02*
X135244523Y-36444342D01*
X135244523Y-36444342D02*
X135196904Y-36539580D01*
X135196904Y-36539580D02*
X135149285Y-36587200D01*
X135149285Y-36587200D02*
X135054047Y-36634819D01*
X135054047Y-36634819D02*
X134768333Y-36634819D01*
X134768333Y-36634819D02*
X134673095Y-36587200D01*
X134673095Y-36587200D02*
X134625476Y-36539580D01*
X135863571Y-35634819D02*
X135958809Y-35634819D01*
X135958809Y-35634819D02*
X136054047Y-35682438D01*
X136054047Y-35682438D02*
X136101666Y-35730057D01*
X136101666Y-35730057D02*
X136149285Y-35825295D01*
X136149285Y-35825295D02*
X136196904Y-36015771D01*
X136196904Y-36015771D02*
X136196904Y-36253866D01*
X136196904Y-36253866D02*
X136149285Y-36444342D01*
X136149285Y-36444342D02*
X136101666Y-36539580D01*
X136101666Y-36539580D02*
X136054047Y-36587200D01*
X136054047Y-36587200D02*
X135958809Y-36634819D01*
X135958809Y-36634819D02*
X135863571Y-36634819D01*
X135863571Y-36634819D02*
X135768333Y-36587200D01*
X135768333Y-36587200D02*
X135720714Y-36539580D01*
X135720714Y-36539580D02*
X135673095Y-36444342D01*
X135673095Y-36444342D02*
X135625476Y-36253866D01*
X135625476Y-36253866D02*
X135625476Y-36015771D01*
X135625476Y-36015771D02*
X135673095Y-35825295D01*
X135673095Y-35825295D02*
X135720714Y-35730057D01*
X135720714Y-35730057D02*
X135768333Y-35682438D01*
X135768333Y-35682438D02*
X135863571Y-35634819D01*
X142151666Y-99744819D02*
X142151666Y-100459104D01*
X142151666Y-100459104D02*
X142104047Y-100601961D01*
X142104047Y-100601961D02*
X142008809Y-100697200D01*
X142008809Y-100697200D02*
X141865952Y-100744819D01*
X141865952Y-100744819D02*
X141770714Y-100744819D01*
X143151666Y-100744819D02*
X142580238Y-100744819D01*
X142865952Y-100744819D02*
X142865952Y-99744819D01*
X142865952Y-99744819D02*
X142770714Y-99887676D01*
X142770714Y-99887676D02*
X142675476Y-99982914D01*
X142675476Y-99982914D02*
X142580238Y-100030533D01*
X158739819Y-82086666D02*
X158263628Y-82419999D01*
X158739819Y-82658094D02*
X157739819Y-82658094D01*
X157739819Y-82658094D02*
X157739819Y-82277142D01*
X157739819Y-82277142D02*
X157787438Y-82181904D01*
X157787438Y-82181904D02*
X157835057Y-82134285D01*
X157835057Y-82134285D02*
X157930295Y-82086666D01*
X157930295Y-82086666D02*
X158073152Y-82086666D01*
X158073152Y-82086666D02*
X158168390Y-82134285D01*
X158168390Y-82134285D02*
X158216009Y-82181904D01*
X158216009Y-82181904D02*
X158263628Y-82277142D01*
X158263628Y-82277142D02*
X158263628Y-82658094D01*
X157835057Y-81705713D02*
X157787438Y-81658094D01*
X157787438Y-81658094D02*
X157739819Y-81562856D01*
X157739819Y-81562856D02*
X157739819Y-81324761D01*
X157739819Y-81324761D02*
X157787438Y-81229523D01*
X157787438Y-81229523D02*
X157835057Y-81181904D01*
X157835057Y-81181904D02*
X157930295Y-81134285D01*
X157930295Y-81134285D02*
X158025533Y-81134285D01*
X158025533Y-81134285D02*
X158168390Y-81181904D01*
X158168390Y-81181904D02*
X158739819Y-81753332D01*
X158739819Y-81753332D02*
X158739819Y-81134285D01*
X131175057Y-56051428D02*
X131127438Y-56146666D01*
X131127438Y-56146666D02*
X131032200Y-56241904D01*
X131032200Y-56241904D02*
X130889342Y-56384761D01*
X130889342Y-56384761D02*
X130841723Y-56479999D01*
X130841723Y-56479999D02*
X130841723Y-56575237D01*
X131079819Y-56527618D02*
X131032200Y-56622856D01*
X131032200Y-56622856D02*
X130936961Y-56718094D01*
X130936961Y-56718094D02*
X130746485Y-56765713D01*
X130746485Y-56765713D02*
X130413152Y-56765713D01*
X130413152Y-56765713D02*
X130222676Y-56718094D01*
X130222676Y-56718094D02*
X130127438Y-56622856D01*
X130127438Y-56622856D02*
X130079819Y-56527618D01*
X130079819Y-56527618D02*
X130079819Y-56337142D01*
X130079819Y-56337142D02*
X130127438Y-56241904D01*
X130127438Y-56241904D02*
X130222676Y-56146666D01*
X130222676Y-56146666D02*
X130413152Y-56099047D01*
X130413152Y-56099047D02*
X130746485Y-56099047D01*
X130746485Y-56099047D02*
X130936961Y-56146666D01*
X130936961Y-56146666D02*
X131032200Y-56241904D01*
X131032200Y-56241904D02*
X131079819Y-56337142D01*
X131079819Y-56337142D02*
X131079819Y-56527618D01*
X130175057Y-55718094D02*
X130127438Y-55670475D01*
X130127438Y-55670475D02*
X130079819Y-55575237D01*
X130079819Y-55575237D02*
X130079819Y-55337142D01*
X130079819Y-55337142D02*
X130127438Y-55241904D01*
X130127438Y-55241904D02*
X130175057Y-55194285D01*
X130175057Y-55194285D02*
X130270295Y-55146666D01*
X130270295Y-55146666D02*
X130365533Y-55146666D01*
X130365533Y-55146666D02*
X130508390Y-55194285D01*
X130508390Y-55194285D02*
X131079819Y-55765713D01*
X131079819Y-55765713D02*
X131079819Y-55146666D01*
X131079819Y-54670475D02*
X131079819Y-54479999D01*
X131079819Y-54479999D02*
X131032200Y-54384761D01*
X131032200Y-54384761D02*
X130984580Y-54337142D01*
X130984580Y-54337142D02*
X130841723Y-54241904D01*
X130841723Y-54241904D02*
X130651247Y-54194285D01*
X130651247Y-54194285D02*
X130270295Y-54194285D01*
X130270295Y-54194285D02*
X130175057Y-54241904D01*
X130175057Y-54241904D02*
X130127438Y-54289523D01*
X130127438Y-54289523D02*
X130079819Y-54384761D01*
X130079819Y-54384761D02*
X130079819Y-54575237D01*
X130079819Y-54575237D02*
X130127438Y-54670475D01*
X130127438Y-54670475D02*
X130175057Y-54718094D01*
X130175057Y-54718094D02*
X130270295Y-54765713D01*
X130270295Y-54765713D02*
X130508390Y-54765713D01*
X130508390Y-54765713D02*
X130603628Y-54718094D01*
X130603628Y-54718094D02*
X130651247Y-54670475D01*
X130651247Y-54670475D02*
X130698866Y-54575237D01*
X130698866Y-54575237D02*
X130698866Y-54384761D01*
X130698866Y-54384761D02*
X130651247Y-54289523D01*
X130651247Y-54289523D02*
X130603628Y-54241904D01*
X130603628Y-54241904D02*
X130508390Y-54194285D01*
X75935057Y-80751428D02*
X75887438Y-80846666D01*
X75887438Y-80846666D02*
X75792200Y-80941904D01*
X75792200Y-80941904D02*
X75649342Y-81084761D01*
X75649342Y-81084761D02*
X75601723Y-81179999D01*
X75601723Y-81179999D02*
X75601723Y-81275237D01*
X75839819Y-81227618D02*
X75792200Y-81322856D01*
X75792200Y-81322856D02*
X75696961Y-81418094D01*
X75696961Y-81418094D02*
X75506485Y-81465713D01*
X75506485Y-81465713D02*
X75173152Y-81465713D01*
X75173152Y-81465713D02*
X74982676Y-81418094D01*
X74982676Y-81418094D02*
X74887438Y-81322856D01*
X74887438Y-81322856D02*
X74839819Y-81227618D01*
X74839819Y-81227618D02*
X74839819Y-81037142D01*
X74839819Y-81037142D02*
X74887438Y-80941904D01*
X74887438Y-80941904D02*
X74982676Y-80846666D01*
X74982676Y-80846666D02*
X75173152Y-80799047D01*
X75173152Y-80799047D02*
X75506485Y-80799047D01*
X75506485Y-80799047D02*
X75696961Y-80846666D01*
X75696961Y-80846666D02*
X75792200Y-80941904D01*
X75792200Y-80941904D02*
X75839819Y-81037142D01*
X75839819Y-81037142D02*
X75839819Y-81227618D01*
X74935057Y-80418094D02*
X74887438Y-80370475D01*
X74887438Y-80370475D02*
X74839819Y-80275237D01*
X74839819Y-80275237D02*
X74839819Y-80037142D01*
X74839819Y-80037142D02*
X74887438Y-79941904D01*
X74887438Y-79941904D02*
X74935057Y-79894285D01*
X74935057Y-79894285D02*
X75030295Y-79846666D01*
X75030295Y-79846666D02*
X75125533Y-79846666D01*
X75125533Y-79846666D02*
X75268390Y-79894285D01*
X75268390Y-79894285D02*
X75839819Y-80465713D01*
X75839819Y-80465713D02*
X75839819Y-79846666D01*
X74839819Y-79227618D02*
X74839819Y-79132380D01*
X74839819Y-79132380D02*
X74887438Y-79037142D01*
X74887438Y-79037142D02*
X74935057Y-78989523D01*
X74935057Y-78989523D02*
X75030295Y-78941904D01*
X75030295Y-78941904D02*
X75220771Y-78894285D01*
X75220771Y-78894285D02*
X75458866Y-78894285D01*
X75458866Y-78894285D02*
X75649342Y-78941904D01*
X75649342Y-78941904D02*
X75744580Y-78989523D01*
X75744580Y-78989523D02*
X75792200Y-79037142D01*
X75792200Y-79037142D02*
X75839819Y-79132380D01*
X75839819Y-79132380D02*
X75839819Y-79227618D01*
X75839819Y-79227618D02*
X75792200Y-79322856D01*
X75792200Y-79322856D02*
X75744580Y-79370475D01*
X75744580Y-79370475D02*
X75649342Y-79418094D01*
X75649342Y-79418094D02*
X75458866Y-79465713D01*
X75458866Y-79465713D02*
X75220771Y-79465713D01*
X75220771Y-79465713D02*
X75030295Y-79418094D01*
X75030295Y-79418094D02*
X74935057Y-79370475D01*
X74935057Y-79370475D02*
X74887438Y-79322856D01*
X74887438Y-79322856D02*
X74839819Y-79227618D01*
X131205057Y-41981428D02*
X131157438Y-42076666D01*
X131157438Y-42076666D02*
X131062200Y-42171904D01*
X131062200Y-42171904D02*
X130919342Y-42314761D01*
X130919342Y-42314761D02*
X130871723Y-42409999D01*
X130871723Y-42409999D02*
X130871723Y-42505237D01*
X131109819Y-42457618D02*
X131062200Y-42552856D01*
X131062200Y-42552856D02*
X130966961Y-42648094D01*
X130966961Y-42648094D02*
X130776485Y-42695713D01*
X130776485Y-42695713D02*
X130443152Y-42695713D01*
X130443152Y-42695713D02*
X130252676Y-42648094D01*
X130252676Y-42648094D02*
X130157438Y-42552856D01*
X130157438Y-42552856D02*
X130109819Y-42457618D01*
X130109819Y-42457618D02*
X130109819Y-42267142D01*
X130109819Y-42267142D02*
X130157438Y-42171904D01*
X130157438Y-42171904D02*
X130252676Y-42076666D01*
X130252676Y-42076666D02*
X130443152Y-42029047D01*
X130443152Y-42029047D02*
X130776485Y-42029047D01*
X130776485Y-42029047D02*
X130966961Y-42076666D01*
X130966961Y-42076666D02*
X131062200Y-42171904D01*
X131062200Y-42171904D02*
X131109819Y-42267142D01*
X131109819Y-42267142D02*
X131109819Y-42457618D01*
X130205057Y-41648094D02*
X130157438Y-41600475D01*
X130157438Y-41600475D02*
X130109819Y-41505237D01*
X130109819Y-41505237D02*
X130109819Y-41267142D01*
X130109819Y-41267142D02*
X130157438Y-41171904D01*
X130157438Y-41171904D02*
X130205057Y-41124285D01*
X130205057Y-41124285D02*
X130300295Y-41076666D01*
X130300295Y-41076666D02*
X130395533Y-41076666D01*
X130395533Y-41076666D02*
X130538390Y-41124285D01*
X130538390Y-41124285D02*
X131109819Y-41695713D01*
X131109819Y-41695713D02*
X131109819Y-41076666D01*
X130538390Y-40505237D02*
X130490771Y-40600475D01*
X130490771Y-40600475D02*
X130443152Y-40648094D01*
X130443152Y-40648094D02*
X130347914Y-40695713D01*
X130347914Y-40695713D02*
X130300295Y-40695713D01*
X130300295Y-40695713D02*
X130205057Y-40648094D01*
X130205057Y-40648094D02*
X130157438Y-40600475D01*
X130157438Y-40600475D02*
X130109819Y-40505237D01*
X130109819Y-40505237D02*
X130109819Y-40314761D01*
X130109819Y-40314761D02*
X130157438Y-40219523D01*
X130157438Y-40219523D02*
X130205057Y-40171904D01*
X130205057Y-40171904D02*
X130300295Y-40124285D01*
X130300295Y-40124285D02*
X130347914Y-40124285D01*
X130347914Y-40124285D02*
X130443152Y-40171904D01*
X130443152Y-40171904D02*
X130490771Y-40219523D01*
X130490771Y-40219523D02*
X130538390Y-40314761D01*
X130538390Y-40314761D02*
X130538390Y-40505237D01*
X130538390Y-40505237D02*
X130586009Y-40600475D01*
X130586009Y-40600475D02*
X130633628Y-40648094D01*
X130633628Y-40648094D02*
X130728866Y-40695713D01*
X130728866Y-40695713D02*
X130919342Y-40695713D01*
X130919342Y-40695713D02*
X131014580Y-40648094D01*
X131014580Y-40648094D02*
X131062200Y-40600475D01*
X131062200Y-40600475D02*
X131109819Y-40505237D01*
X131109819Y-40505237D02*
X131109819Y-40314761D01*
X131109819Y-40314761D02*
X131062200Y-40219523D01*
X131062200Y-40219523D02*
X131014580Y-40171904D01*
X131014580Y-40171904D02*
X130919342Y-40124285D01*
X130919342Y-40124285D02*
X130728866Y-40124285D01*
X130728866Y-40124285D02*
X130633628Y-40171904D01*
X130633628Y-40171904D02*
X130586009Y-40219523D01*
X130586009Y-40219523D02*
X130538390Y-40314761D01*
X97692142Y-79364819D02*
X97358809Y-78888628D01*
X97120714Y-79364819D02*
X97120714Y-78364819D01*
X97120714Y-78364819D02*
X97501666Y-78364819D01*
X97501666Y-78364819D02*
X97596904Y-78412438D01*
X97596904Y-78412438D02*
X97644523Y-78460057D01*
X97644523Y-78460057D02*
X97692142Y-78555295D01*
X97692142Y-78555295D02*
X97692142Y-78698152D01*
X97692142Y-78698152D02*
X97644523Y-78793390D01*
X97644523Y-78793390D02*
X97596904Y-78841009D01*
X97596904Y-78841009D02*
X97501666Y-78888628D01*
X97501666Y-78888628D02*
X97120714Y-78888628D01*
X98073095Y-78460057D02*
X98120714Y-78412438D01*
X98120714Y-78412438D02*
X98215952Y-78364819D01*
X98215952Y-78364819D02*
X98454047Y-78364819D01*
X98454047Y-78364819D02*
X98549285Y-78412438D01*
X98549285Y-78412438D02*
X98596904Y-78460057D01*
X98596904Y-78460057D02*
X98644523Y-78555295D01*
X98644523Y-78555295D02*
X98644523Y-78650533D01*
X98644523Y-78650533D02*
X98596904Y-78793390D01*
X98596904Y-78793390D02*
X98025476Y-79364819D01*
X98025476Y-79364819D02*
X98644523Y-79364819D01*
X99549285Y-78364819D02*
X99073095Y-78364819D01*
X99073095Y-78364819D02*
X99025476Y-78841009D01*
X99025476Y-78841009D02*
X99073095Y-78793390D01*
X99073095Y-78793390D02*
X99168333Y-78745771D01*
X99168333Y-78745771D02*
X99406428Y-78745771D01*
X99406428Y-78745771D02*
X99501666Y-78793390D01*
X99501666Y-78793390D02*
X99549285Y-78841009D01*
X99549285Y-78841009D02*
X99596904Y-78936247D01*
X99596904Y-78936247D02*
X99596904Y-79174342D01*
X99596904Y-79174342D02*
X99549285Y-79269580D01*
X99549285Y-79269580D02*
X99501666Y-79317200D01*
X99501666Y-79317200D02*
X99406428Y-79364819D01*
X99406428Y-79364819D02*
X99168333Y-79364819D01*
X99168333Y-79364819D02*
X99073095Y-79317200D01*
X99073095Y-79317200D02*
X99025476Y-79269580D01*
X73839819Y-104422857D02*
X73363628Y-104756190D01*
X73839819Y-104994285D02*
X72839819Y-104994285D01*
X72839819Y-104994285D02*
X72839819Y-104613333D01*
X72839819Y-104613333D02*
X72887438Y-104518095D01*
X72887438Y-104518095D02*
X72935057Y-104470476D01*
X72935057Y-104470476D02*
X73030295Y-104422857D01*
X73030295Y-104422857D02*
X73173152Y-104422857D01*
X73173152Y-104422857D02*
X73268390Y-104470476D01*
X73268390Y-104470476D02*
X73316009Y-104518095D01*
X73316009Y-104518095D02*
X73363628Y-104613333D01*
X73363628Y-104613333D02*
X73363628Y-104994285D01*
X73839819Y-103470476D02*
X73839819Y-104041904D01*
X73839819Y-103756190D02*
X72839819Y-103756190D01*
X72839819Y-103756190D02*
X72982676Y-103851428D01*
X72982676Y-103851428D02*
X73077914Y-103946666D01*
X73077914Y-103946666D02*
X73125533Y-104041904D01*
X73173152Y-102613333D02*
X73839819Y-102613333D01*
X72792200Y-102851428D02*
X73506485Y-103089523D01*
X73506485Y-103089523D02*
X73506485Y-102470476D01*
X84496905Y-106804819D02*
X84496905Y-105804819D01*
X84496905Y-105804819D02*
X84735000Y-105804819D01*
X84735000Y-105804819D02*
X84877857Y-105852438D01*
X84877857Y-105852438D02*
X84973095Y-105947676D01*
X84973095Y-105947676D02*
X85020714Y-106042914D01*
X85020714Y-106042914D02*
X85068333Y-106233390D01*
X85068333Y-106233390D02*
X85068333Y-106376247D01*
X85068333Y-106376247D02*
X85020714Y-106566723D01*
X85020714Y-106566723D02*
X84973095Y-106661961D01*
X84973095Y-106661961D02*
X84877857Y-106757200D01*
X84877857Y-106757200D02*
X84735000Y-106804819D01*
X84735000Y-106804819D02*
X84496905Y-106804819D01*
X85973095Y-105804819D02*
X85496905Y-105804819D01*
X85496905Y-105804819D02*
X85449286Y-106281009D01*
X85449286Y-106281009D02*
X85496905Y-106233390D01*
X85496905Y-106233390D02*
X85592143Y-106185771D01*
X85592143Y-106185771D02*
X85830238Y-106185771D01*
X85830238Y-106185771D02*
X85925476Y-106233390D01*
X85925476Y-106233390D02*
X85973095Y-106281009D01*
X85973095Y-106281009D02*
X86020714Y-106376247D01*
X86020714Y-106376247D02*
X86020714Y-106614342D01*
X86020714Y-106614342D02*
X85973095Y-106709580D01*
X85973095Y-106709580D02*
X85925476Y-106757200D01*
X85925476Y-106757200D02*
X85830238Y-106804819D01*
X85830238Y-106804819D02*
X85592143Y-106804819D01*
X85592143Y-106804819D02*
X85496905Y-106757200D01*
X85496905Y-106757200D02*
X85449286Y-106709580D01*
X102116905Y-69804819D02*
X102116905Y-68804819D01*
X102116905Y-68804819D02*
X102355000Y-68804819D01*
X102355000Y-68804819D02*
X102497857Y-68852438D01*
X102497857Y-68852438D02*
X102593095Y-68947676D01*
X102593095Y-68947676D02*
X102640714Y-69042914D01*
X102640714Y-69042914D02*
X102688333Y-69233390D01*
X102688333Y-69233390D02*
X102688333Y-69376247D01*
X102688333Y-69376247D02*
X102640714Y-69566723D01*
X102640714Y-69566723D02*
X102593095Y-69661961D01*
X102593095Y-69661961D02*
X102497857Y-69757200D01*
X102497857Y-69757200D02*
X102355000Y-69804819D01*
X102355000Y-69804819D02*
X102116905Y-69804819D01*
X103545476Y-68804819D02*
X103355000Y-68804819D01*
X103355000Y-68804819D02*
X103259762Y-68852438D01*
X103259762Y-68852438D02*
X103212143Y-68900057D01*
X103212143Y-68900057D02*
X103116905Y-69042914D01*
X103116905Y-69042914D02*
X103069286Y-69233390D01*
X103069286Y-69233390D02*
X103069286Y-69614342D01*
X103069286Y-69614342D02*
X103116905Y-69709580D01*
X103116905Y-69709580D02*
X103164524Y-69757200D01*
X103164524Y-69757200D02*
X103259762Y-69804819D01*
X103259762Y-69804819D02*
X103450238Y-69804819D01*
X103450238Y-69804819D02*
X103545476Y-69757200D01*
X103545476Y-69757200D02*
X103593095Y-69709580D01*
X103593095Y-69709580D02*
X103640714Y-69614342D01*
X103640714Y-69614342D02*
X103640714Y-69376247D01*
X103640714Y-69376247D02*
X103593095Y-69281009D01*
X103593095Y-69281009D02*
X103545476Y-69233390D01*
X103545476Y-69233390D02*
X103450238Y-69185771D01*
X103450238Y-69185771D02*
X103259762Y-69185771D01*
X103259762Y-69185771D02*
X103164524Y-69233390D01*
X103164524Y-69233390D02*
X103116905Y-69281009D01*
X103116905Y-69281009D02*
X103069286Y-69376247D01*
X108943095Y-69234819D02*
X108943095Y-68234819D01*
X109514523Y-69234819D02*
X109085952Y-68663390D01*
X109514523Y-68234819D02*
X108943095Y-68806247D01*
X141743571Y-98640057D02*
X141648333Y-98592438D01*
X141648333Y-98592438D02*
X141553095Y-98497200D01*
X141553095Y-98497200D02*
X141410238Y-98354342D01*
X141410238Y-98354342D02*
X141315000Y-98306723D01*
X141315000Y-98306723D02*
X141219762Y-98306723D01*
X141267381Y-98544819D02*
X141172143Y-98497200D01*
X141172143Y-98497200D02*
X141076905Y-98401961D01*
X141076905Y-98401961D02*
X141029286Y-98211485D01*
X141029286Y-98211485D02*
X141029286Y-97878152D01*
X141029286Y-97878152D02*
X141076905Y-97687676D01*
X141076905Y-97687676D02*
X141172143Y-97592438D01*
X141172143Y-97592438D02*
X141267381Y-97544819D01*
X141267381Y-97544819D02*
X141457857Y-97544819D01*
X141457857Y-97544819D02*
X141553095Y-97592438D01*
X141553095Y-97592438D02*
X141648333Y-97687676D01*
X141648333Y-97687676D02*
X141695952Y-97878152D01*
X141695952Y-97878152D02*
X141695952Y-98211485D01*
X141695952Y-98211485D02*
X141648333Y-98401961D01*
X141648333Y-98401961D02*
X141553095Y-98497200D01*
X141553095Y-98497200D02*
X141457857Y-98544819D01*
X141457857Y-98544819D02*
X141267381Y-98544819D01*
X142029286Y-97544819D02*
X142648333Y-97544819D01*
X142648333Y-97544819D02*
X142315000Y-97925771D01*
X142315000Y-97925771D02*
X142457857Y-97925771D01*
X142457857Y-97925771D02*
X142553095Y-97973390D01*
X142553095Y-97973390D02*
X142600714Y-98021009D01*
X142600714Y-98021009D02*
X142648333Y-98116247D01*
X142648333Y-98116247D02*
X142648333Y-98354342D01*
X142648333Y-98354342D02*
X142600714Y-98449580D01*
X142600714Y-98449580D02*
X142553095Y-98497200D01*
X142553095Y-98497200D02*
X142457857Y-98544819D01*
X142457857Y-98544819D02*
X142172143Y-98544819D01*
X142172143Y-98544819D02*
X142076905Y-98497200D01*
X142076905Y-98497200D02*
X142029286Y-98449580D01*
X142981667Y-97544819D02*
X143600714Y-97544819D01*
X143600714Y-97544819D02*
X143267381Y-97925771D01*
X143267381Y-97925771D02*
X143410238Y-97925771D01*
X143410238Y-97925771D02*
X143505476Y-97973390D01*
X143505476Y-97973390D02*
X143553095Y-98021009D01*
X143553095Y-98021009D02*
X143600714Y-98116247D01*
X143600714Y-98116247D02*
X143600714Y-98354342D01*
X143600714Y-98354342D02*
X143553095Y-98449580D01*
X143553095Y-98449580D02*
X143505476Y-98497200D01*
X143505476Y-98497200D02*
X143410238Y-98544819D01*
X143410238Y-98544819D02*
X143124524Y-98544819D01*
X143124524Y-98544819D02*
X143029286Y-98497200D01*
X143029286Y-98497200D02*
X142981667Y-98449580D01*
X114354104Y-105521904D02*
X114354104Y-105045714D01*
X114639819Y-105617142D02*
X113639819Y-105283809D01*
X113639819Y-105283809D02*
X114639819Y-104950476D01*
X114735057Y-104855238D02*
X114735057Y-104093333D01*
X114544580Y-103283809D02*
X114592200Y-103331428D01*
X114592200Y-103331428D02*
X114639819Y-103474285D01*
X114639819Y-103474285D02*
X114639819Y-103569523D01*
X114639819Y-103569523D02*
X114592200Y-103712380D01*
X114592200Y-103712380D02*
X114496961Y-103807618D01*
X114496961Y-103807618D02*
X114401723Y-103855237D01*
X114401723Y-103855237D02*
X114211247Y-103902856D01*
X114211247Y-103902856D02*
X114068390Y-103902856D01*
X114068390Y-103902856D02*
X113877914Y-103855237D01*
X113877914Y-103855237D02*
X113782676Y-103807618D01*
X113782676Y-103807618D02*
X113687438Y-103712380D01*
X113687438Y-103712380D02*
X113639819Y-103569523D01*
X113639819Y-103569523D02*
X113639819Y-103474285D01*
X113639819Y-103474285D02*
X113687438Y-103331428D01*
X113687438Y-103331428D02*
X113735057Y-103283809D01*
X114639819Y-102426666D02*
X114116009Y-102426666D01*
X114116009Y-102426666D02*
X114020771Y-102474285D01*
X114020771Y-102474285D02*
X113973152Y-102569523D01*
X113973152Y-102569523D02*
X113973152Y-102759999D01*
X113973152Y-102759999D02*
X114020771Y-102855237D01*
X114592200Y-102426666D02*
X114639819Y-102521904D01*
X114639819Y-102521904D02*
X114639819Y-102759999D01*
X114639819Y-102759999D02*
X114592200Y-102855237D01*
X114592200Y-102855237D02*
X114496961Y-102902856D01*
X114496961Y-102902856D02*
X114401723Y-102902856D01*
X114401723Y-102902856D02*
X114306485Y-102855237D01*
X114306485Y-102855237D02*
X114258866Y-102759999D01*
X114258866Y-102759999D02*
X114258866Y-102521904D01*
X114258866Y-102521904D02*
X114211247Y-102426666D01*
X114639819Y-101807618D02*
X114592200Y-101902856D01*
X114592200Y-101902856D02*
X114496961Y-101950475D01*
X114496961Y-101950475D02*
X113639819Y-101950475D01*
X114639819Y-101426665D02*
X113973152Y-101426665D01*
X113639819Y-101426665D02*
X113687438Y-101474284D01*
X113687438Y-101474284D02*
X113735057Y-101426665D01*
X113735057Y-101426665D02*
X113687438Y-101379046D01*
X113687438Y-101379046D02*
X113639819Y-101426665D01*
X113639819Y-101426665D02*
X113735057Y-101426665D01*
X114639819Y-100950475D02*
X113639819Y-100950475D01*
X114020771Y-100950475D02*
X113973152Y-100855237D01*
X113973152Y-100855237D02*
X113973152Y-100664761D01*
X113973152Y-100664761D02*
X114020771Y-100569523D01*
X114020771Y-100569523D02*
X114068390Y-100521904D01*
X114068390Y-100521904D02*
X114163628Y-100474285D01*
X114163628Y-100474285D02*
X114449342Y-100474285D01*
X114449342Y-100474285D02*
X114544580Y-100521904D01*
X114544580Y-100521904D02*
X114592200Y-100569523D01*
X114592200Y-100569523D02*
X114639819Y-100664761D01*
X114639819Y-100664761D02*
X114639819Y-100855237D01*
X114639819Y-100855237D02*
X114592200Y-100950475D01*
X114544580Y-100045713D02*
X114592200Y-99998094D01*
X114592200Y-99998094D02*
X114639819Y-100045713D01*
X114639819Y-100045713D02*
X114592200Y-100093332D01*
X114592200Y-100093332D02*
X114544580Y-100045713D01*
X114544580Y-100045713D02*
X114639819Y-100045713D01*
X93512142Y-44764819D02*
X93178809Y-44288628D01*
X92940714Y-44764819D02*
X92940714Y-43764819D01*
X92940714Y-43764819D02*
X93321666Y-43764819D01*
X93321666Y-43764819D02*
X93416904Y-43812438D01*
X93416904Y-43812438D02*
X93464523Y-43860057D01*
X93464523Y-43860057D02*
X93512142Y-43955295D01*
X93512142Y-43955295D02*
X93512142Y-44098152D01*
X93512142Y-44098152D02*
X93464523Y-44193390D01*
X93464523Y-44193390D02*
X93416904Y-44241009D01*
X93416904Y-44241009D02*
X93321666Y-44288628D01*
X93321666Y-44288628D02*
X92940714Y-44288628D01*
X94464523Y-44764819D02*
X93893095Y-44764819D01*
X94178809Y-44764819D02*
X94178809Y-43764819D01*
X94178809Y-43764819D02*
X94083571Y-43907676D01*
X94083571Y-43907676D02*
X93988333Y-44002914D01*
X93988333Y-44002914D02*
X93893095Y-44050533D01*
X95321666Y-43764819D02*
X95131190Y-43764819D01*
X95131190Y-43764819D02*
X95035952Y-43812438D01*
X95035952Y-43812438D02*
X94988333Y-43860057D01*
X94988333Y-43860057D02*
X94893095Y-44002914D01*
X94893095Y-44002914D02*
X94845476Y-44193390D01*
X94845476Y-44193390D02*
X94845476Y-44574342D01*
X94845476Y-44574342D02*
X94893095Y-44669580D01*
X94893095Y-44669580D02*
X94940714Y-44717200D01*
X94940714Y-44717200D02*
X95035952Y-44764819D01*
X95035952Y-44764819D02*
X95226428Y-44764819D01*
X95226428Y-44764819D02*
X95321666Y-44717200D01*
X95321666Y-44717200D02*
X95369285Y-44669580D01*
X95369285Y-44669580D02*
X95416904Y-44574342D01*
X95416904Y-44574342D02*
X95416904Y-44336247D01*
X95416904Y-44336247D02*
X95369285Y-44241009D01*
X95369285Y-44241009D02*
X95321666Y-44193390D01*
X95321666Y-44193390D02*
X95226428Y-44145771D01*
X95226428Y-44145771D02*
X95035952Y-44145771D01*
X95035952Y-44145771D02*
X94940714Y-44193390D01*
X94940714Y-44193390D02*
X94893095Y-44241009D01*
X94893095Y-44241009D02*
X94845476Y-44336247D01*
X103505057Y-58181428D02*
X103457438Y-58276666D01*
X103457438Y-58276666D02*
X103362200Y-58371904D01*
X103362200Y-58371904D02*
X103219342Y-58514761D01*
X103219342Y-58514761D02*
X103171723Y-58609999D01*
X103171723Y-58609999D02*
X103171723Y-58705237D01*
X103409819Y-58657618D02*
X103362200Y-58752856D01*
X103362200Y-58752856D02*
X103266961Y-58848094D01*
X103266961Y-58848094D02*
X103076485Y-58895713D01*
X103076485Y-58895713D02*
X102743152Y-58895713D01*
X102743152Y-58895713D02*
X102552676Y-58848094D01*
X102552676Y-58848094D02*
X102457438Y-58752856D01*
X102457438Y-58752856D02*
X102409819Y-58657618D01*
X102409819Y-58657618D02*
X102409819Y-58467142D01*
X102409819Y-58467142D02*
X102457438Y-58371904D01*
X102457438Y-58371904D02*
X102552676Y-58276666D01*
X102552676Y-58276666D02*
X102743152Y-58229047D01*
X102743152Y-58229047D02*
X103076485Y-58229047D01*
X103076485Y-58229047D02*
X103266961Y-58276666D01*
X103266961Y-58276666D02*
X103362200Y-58371904D01*
X103362200Y-58371904D02*
X103409819Y-58467142D01*
X103409819Y-58467142D02*
X103409819Y-58657618D01*
X102505057Y-57848094D02*
X102457438Y-57800475D01*
X102457438Y-57800475D02*
X102409819Y-57705237D01*
X102409819Y-57705237D02*
X102409819Y-57467142D01*
X102409819Y-57467142D02*
X102457438Y-57371904D01*
X102457438Y-57371904D02*
X102505057Y-57324285D01*
X102505057Y-57324285D02*
X102600295Y-57276666D01*
X102600295Y-57276666D02*
X102695533Y-57276666D01*
X102695533Y-57276666D02*
X102838390Y-57324285D01*
X102838390Y-57324285D02*
X103409819Y-57895713D01*
X103409819Y-57895713D02*
X103409819Y-57276666D01*
X102409819Y-56419523D02*
X102409819Y-56609999D01*
X102409819Y-56609999D02*
X102457438Y-56705237D01*
X102457438Y-56705237D02*
X102505057Y-56752856D01*
X102505057Y-56752856D02*
X102647914Y-56848094D01*
X102647914Y-56848094D02*
X102838390Y-56895713D01*
X102838390Y-56895713D02*
X103219342Y-56895713D01*
X103219342Y-56895713D02*
X103314580Y-56848094D01*
X103314580Y-56848094D02*
X103362200Y-56800475D01*
X103362200Y-56800475D02*
X103409819Y-56705237D01*
X103409819Y-56705237D02*
X103409819Y-56514761D01*
X103409819Y-56514761D02*
X103362200Y-56419523D01*
X103362200Y-56419523D02*
X103314580Y-56371904D01*
X103314580Y-56371904D02*
X103219342Y-56324285D01*
X103219342Y-56324285D02*
X102981247Y-56324285D01*
X102981247Y-56324285D02*
X102886009Y-56371904D01*
X102886009Y-56371904D02*
X102838390Y-56419523D01*
X102838390Y-56419523D02*
X102790771Y-56514761D01*
X102790771Y-56514761D02*
X102790771Y-56705237D01*
X102790771Y-56705237D02*
X102838390Y-56800475D01*
X102838390Y-56800475D02*
X102886009Y-56848094D01*
X102886009Y-56848094D02*
X102981247Y-56895713D01*
X93492142Y-39964819D02*
X93158809Y-39488628D01*
X92920714Y-39964819D02*
X92920714Y-38964819D01*
X92920714Y-38964819D02*
X93301666Y-38964819D01*
X93301666Y-38964819D02*
X93396904Y-39012438D01*
X93396904Y-39012438D02*
X93444523Y-39060057D01*
X93444523Y-39060057D02*
X93492142Y-39155295D01*
X93492142Y-39155295D02*
X93492142Y-39298152D01*
X93492142Y-39298152D02*
X93444523Y-39393390D01*
X93444523Y-39393390D02*
X93396904Y-39441009D01*
X93396904Y-39441009D02*
X93301666Y-39488628D01*
X93301666Y-39488628D02*
X92920714Y-39488628D01*
X94444523Y-39964819D02*
X93873095Y-39964819D01*
X94158809Y-39964819D02*
X94158809Y-38964819D01*
X94158809Y-38964819D02*
X94063571Y-39107676D01*
X94063571Y-39107676D02*
X93968333Y-39202914D01*
X93968333Y-39202914D02*
X93873095Y-39250533D01*
X94777857Y-38964819D02*
X95444523Y-38964819D01*
X95444523Y-38964819D02*
X95015952Y-39964819D01*
X75845057Y-62721428D02*
X75797438Y-62816666D01*
X75797438Y-62816666D02*
X75702200Y-62911904D01*
X75702200Y-62911904D02*
X75559342Y-63054761D01*
X75559342Y-63054761D02*
X75511723Y-63149999D01*
X75511723Y-63149999D02*
X75511723Y-63245237D01*
X75749819Y-63197618D02*
X75702200Y-63292856D01*
X75702200Y-63292856D02*
X75606961Y-63388094D01*
X75606961Y-63388094D02*
X75416485Y-63435713D01*
X75416485Y-63435713D02*
X75083152Y-63435713D01*
X75083152Y-63435713D02*
X74892676Y-63388094D01*
X74892676Y-63388094D02*
X74797438Y-63292856D01*
X74797438Y-63292856D02*
X74749819Y-63197618D01*
X74749819Y-63197618D02*
X74749819Y-63007142D01*
X74749819Y-63007142D02*
X74797438Y-62911904D01*
X74797438Y-62911904D02*
X74892676Y-62816666D01*
X74892676Y-62816666D02*
X75083152Y-62769047D01*
X75083152Y-62769047D02*
X75416485Y-62769047D01*
X75416485Y-62769047D02*
X75606961Y-62816666D01*
X75606961Y-62816666D02*
X75702200Y-62911904D01*
X75702200Y-62911904D02*
X75749819Y-63007142D01*
X75749819Y-63007142D02*
X75749819Y-63197618D01*
X75749819Y-61816666D02*
X75749819Y-62388094D01*
X75749819Y-62102380D02*
X74749819Y-62102380D01*
X74749819Y-62102380D02*
X74892676Y-62197618D01*
X74892676Y-62197618D02*
X74987914Y-62292856D01*
X74987914Y-62292856D02*
X75035533Y-62388094D01*
X75749819Y-61340475D02*
X75749819Y-61149999D01*
X75749819Y-61149999D02*
X75702200Y-61054761D01*
X75702200Y-61054761D02*
X75654580Y-61007142D01*
X75654580Y-61007142D02*
X75511723Y-60911904D01*
X75511723Y-60911904D02*
X75321247Y-60864285D01*
X75321247Y-60864285D02*
X74940295Y-60864285D01*
X74940295Y-60864285D02*
X74845057Y-60911904D01*
X74845057Y-60911904D02*
X74797438Y-60959523D01*
X74797438Y-60959523D02*
X74749819Y-61054761D01*
X74749819Y-61054761D02*
X74749819Y-61245237D01*
X74749819Y-61245237D02*
X74797438Y-61340475D01*
X74797438Y-61340475D02*
X74845057Y-61388094D01*
X74845057Y-61388094D02*
X74940295Y-61435713D01*
X74940295Y-61435713D02*
X75178390Y-61435713D01*
X75178390Y-61435713D02*
X75273628Y-61388094D01*
X75273628Y-61388094D02*
X75321247Y-61340475D01*
X75321247Y-61340475D02*
X75368866Y-61245237D01*
X75368866Y-61245237D02*
X75368866Y-61054761D01*
X75368866Y-61054761D02*
X75321247Y-60959523D01*
X75321247Y-60959523D02*
X75273628Y-60911904D01*
X75273628Y-60911904D02*
X75178390Y-60864285D01*
X66752142Y-79264819D02*
X66418809Y-78788628D01*
X66180714Y-79264819D02*
X66180714Y-78264819D01*
X66180714Y-78264819D02*
X66561666Y-78264819D01*
X66561666Y-78264819D02*
X66656904Y-78312438D01*
X66656904Y-78312438D02*
X66704523Y-78360057D01*
X66704523Y-78360057D02*
X66752142Y-78455295D01*
X66752142Y-78455295D02*
X66752142Y-78598152D01*
X66752142Y-78598152D02*
X66704523Y-78693390D01*
X66704523Y-78693390D02*
X66656904Y-78741009D01*
X66656904Y-78741009D02*
X66561666Y-78788628D01*
X66561666Y-78788628D02*
X66180714Y-78788628D01*
X67704523Y-79264819D02*
X67133095Y-79264819D01*
X67418809Y-79264819D02*
X67418809Y-78264819D01*
X67418809Y-78264819D02*
X67323571Y-78407676D01*
X67323571Y-78407676D02*
X67228333Y-78502914D01*
X67228333Y-78502914D02*
X67133095Y-78550533D01*
X68085476Y-78360057D02*
X68133095Y-78312438D01*
X68133095Y-78312438D02*
X68228333Y-78264819D01*
X68228333Y-78264819D02*
X68466428Y-78264819D01*
X68466428Y-78264819D02*
X68561666Y-78312438D01*
X68561666Y-78312438D02*
X68609285Y-78360057D01*
X68609285Y-78360057D02*
X68656904Y-78455295D01*
X68656904Y-78455295D02*
X68656904Y-78550533D01*
X68656904Y-78550533D02*
X68609285Y-78693390D01*
X68609285Y-78693390D02*
X68037857Y-79264819D01*
X68037857Y-79264819D02*
X68656904Y-79264819D01*
X157201666Y-52334819D02*
X157201666Y-53049104D01*
X157201666Y-53049104D02*
X157154047Y-53191961D01*
X157154047Y-53191961D02*
X157058809Y-53287200D01*
X157058809Y-53287200D02*
X156915952Y-53334819D01*
X156915952Y-53334819D02*
X156820714Y-53334819D01*
X158106428Y-52668152D02*
X158106428Y-53334819D01*
X157868333Y-52287200D02*
X157630238Y-53001485D01*
X157630238Y-53001485D02*
X158249285Y-53001485D01*
X120816905Y-63664819D02*
X120816905Y-62664819D01*
X120816905Y-62664819D02*
X121055000Y-62664819D01*
X121055000Y-62664819D02*
X121197857Y-62712438D01*
X121197857Y-62712438D02*
X121293095Y-62807676D01*
X121293095Y-62807676D02*
X121340714Y-62902914D01*
X121340714Y-62902914D02*
X121388333Y-63093390D01*
X121388333Y-63093390D02*
X121388333Y-63236247D01*
X121388333Y-63236247D02*
X121340714Y-63426723D01*
X121340714Y-63426723D02*
X121293095Y-63521961D01*
X121293095Y-63521961D02*
X121197857Y-63617200D01*
X121197857Y-63617200D02*
X121055000Y-63664819D01*
X121055000Y-63664819D02*
X120816905Y-63664819D01*
X121721667Y-62664819D02*
X122388333Y-62664819D01*
X122388333Y-62664819D02*
X121959762Y-63664819D01*
X114943095Y-64234819D02*
X114943095Y-63234819D01*
X115514523Y-64234819D02*
X115085952Y-63663390D01*
X115514523Y-63234819D02*
X114943095Y-63806247D01*
X97712142Y-92364819D02*
X97378809Y-91888628D01*
X97140714Y-92364819D02*
X97140714Y-91364819D01*
X97140714Y-91364819D02*
X97521666Y-91364819D01*
X97521666Y-91364819D02*
X97616904Y-91412438D01*
X97616904Y-91412438D02*
X97664523Y-91460057D01*
X97664523Y-91460057D02*
X97712142Y-91555295D01*
X97712142Y-91555295D02*
X97712142Y-91698152D01*
X97712142Y-91698152D02*
X97664523Y-91793390D01*
X97664523Y-91793390D02*
X97616904Y-91841009D01*
X97616904Y-91841009D02*
X97521666Y-91888628D01*
X97521666Y-91888628D02*
X97140714Y-91888628D01*
X98045476Y-91364819D02*
X98664523Y-91364819D01*
X98664523Y-91364819D02*
X98331190Y-91745771D01*
X98331190Y-91745771D02*
X98474047Y-91745771D01*
X98474047Y-91745771D02*
X98569285Y-91793390D01*
X98569285Y-91793390D02*
X98616904Y-91841009D01*
X98616904Y-91841009D02*
X98664523Y-91936247D01*
X98664523Y-91936247D02*
X98664523Y-92174342D01*
X98664523Y-92174342D02*
X98616904Y-92269580D01*
X98616904Y-92269580D02*
X98569285Y-92317200D01*
X98569285Y-92317200D02*
X98474047Y-92364819D01*
X98474047Y-92364819D02*
X98188333Y-92364819D01*
X98188333Y-92364819D02*
X98093095Y-92317200D01*
X98093095Y-92317200D02*
X98045476Y-92269580D01*
X98997857Y-91364819D02*
X99616904Y-91364819D01*
X99616904Y-91364819D02*
X99283571Y-91745771D01*
X99283571Y-91745771D02*
X99426428Y-91745771D01*
X99426428Y-91745771D02*
X99521666Y-91793390D01*
X99521666Y-91793390D02*
X99569285Y-91841009D01*
X99569285Y-91841009D02*
X99616904Y-91936247D01*
X99616904Y-91936247D02*
X99616904Y-92174342D01*
X99616904Y-92174342D02*
X99569285Y-92269580D01*
X99569285Y-92269580D02*
X99521666Y-92317200D01*
X99521666Y-92317200D02*
X99426428Y-92364819D01*
X99426428Y-92364819D02*
X99140714Y-92364819D01*
X99140714Y-92364819D02*
X99045476Y-92317200D01*
X99045476Y-92317200D02*
X98997857Y-92269580D01*
X67228333Y-57664819D02*
X66895000Y-57188628D01*
X66656905Y-57664819D02*
X66656905Y-56664819D01*
X66656905Y-56664819D02*
X67037857Y-56664819D01*
X67037857Y-56664819D02*
X67133095Y-56712438D01*
X67133095Y-56712438D02*
X67180714Y-56760057D01*
X67180714Y-56760057D02*
X67228333Y-56855295D01*
X67228333Y-56855295D02*
X67228333Y-56998152D01*
X67228333Y-56998152D02*
X67180714Y-57093390D01*
X67180714Y-57093390D02*
X67133095Y-57141009D01*
X67133095Y-57141009D02*
X67037857Y-57188628D01*
X67037857Y-57188628D02*
X66656905Y-57188628D01*
X68085476Y-56998152D02*
X68085476Y-57664819D01*
X67847381Y-56617200D02*
X67609286Y-57331485D01*
X67609286Y-57331485D02*
X68228333Y-57331485D01*
X93512142Y-58464819D02*
X93178809Y-57988628D01*
X92940714Y-58464819D02*
X92940714Y-57464819D01*
X92940714Y-57464819D02*
X93321666Y-57464819D01*
X93321666Y-57464819D02*
X93416904Y-57512438D01*
X93416904Y-57512438D02*
X93464523Y-57560057D01*
X93464523Y-57560057D02*
X93512142Y-57655295D01*
X93512142Y-57655295D02*
X93512142Y-57798152D01*
X93512142Y-57798152D02*
X93464523Y-57893390D01*
X93464523Y-57893390D02*
X93416904Y-57941009D01*
X93416904Y-57941009D02*
X93321666Y-57988628D01*
X93321666Y-57988628D02*
X92940714Y-57988628D01*
X94464523Y-58464819D02*
X93893095Y-58464819D01*
X94178809Y-58464819D02*
X94178809Y-57464819D01*
X94178809Y-57464819D02*
X94083571Y-57607676D01*
X94083571Y-57607676D02*
X93988333Y-57702914D01*
X93988333Y-57702914D02*
X93893095Y-57750533D01*
X94940714Y-58464819D02*
X95131190Y-58464819D01*
X95131190Y-58464819D02*
X95226428Y-58417200D01*
X95226428Y-58417200D02*
X95274047Y-58369580D01*
X95274047Y-58369580D02*
X95369285Y-58226723D01*
X95369285Y-58226723D02*
X95416904Y-58036247D01*
X95416904Y-58036247D02*
X95416904Y-57655295D01*
X95416904Y-57655295D02*
X95369285Y-57560057D01*
X95369285Y-57560057D02*
X95321666Y-57512438D01*
X95321666Y-57512438D02*
X95226428Y-57464819D01*
X95226428Y-57464819D02*
X95035952Y-57464819D01*
X95035952Y-57464819D02*
X94940714Y-57512438D01*
X94940714Y-57512438D02*
X94893095Y-57560057D01*
X94893095Y-57560057D02*
X94845476Y-57655295D01*
X94845476Y-57655295D02*
X94845476Y-57893390D01*
X94845476Y-57893390D02*
X94893095Y-57988628D01*
X94893095Y-57988628D02*
X94940714Y-58036247D01*
X94940714Y-58036247D02*
X95035952Y-58083866D01*
X95035952Y-58083866D02*
X95226428Y-58083866D01*
X95226428Y-58083866D02*
X95321666Y-58036247D01*
X95321666Y-58036247D02*
X95369285Y-57988628D01*
X95369285Y-57988628D02*
X95416904Y-57893390D01*
X121992142Y-42764819D02*
X121658809Y-42288628D01*
X121420714Y-42764819D02*
X121420714Y-41764819D01*
X121420714Y-41764819D02*
X121801666Y-41764819D01*
X121801666Y-41764819D02*
X121896904Y-41812438D01*
X121896904Y-41812438D02*
X121944523Y-41860057D01*
X121944523Y-41860057D02*
X121992142Y-41955295D01*
X121992142Y-41955295D02*
X121992142Y-42098152D01*
X121992142Y-42098152D02*
X121944523Y-42193390D01*
X121944523Y-42193390D02*
X121896904Y-42241009D01*
X121896904Y-42241009D02*
X121801666Y-42288628D01*
X121801666Y-42288628D02*
X121420714Y-42288628D01*
X122373095Y-41860057D02*
X122420714Y-41812438D01*
X122420714Y-41812438D02*
X122515952Y-41764819D01*
X122515952Y-41764819D02*
X122754047Y-41764819D01*
X122754047Y-41764819D02*
X122849285Y-41812438D01*
X122849285Y-41812438D02*
X122896904Y-41860057D01*
X122896904Y-41860057D02*
X122944523Y-41955295D01*
X122944523Y-41955295D02*
X122944523Y-42050533D01*
X122944523Y-42050533D02*
X122896904Y-42193390D01*
X122896904Y-42193390D02*
X122325476Y-42764819D01*
X122325476Y-42764819D02*
X122944523Y-42764819D01*
X123563571Y-41764819D02*
X123658809Y-41764819D01*
X123658809Y-41764819D02*
X123754047Y-41812438D01*
X123754047Y-41812438D02*
X123801666Y-41860057D01*
X123801666Y-41860057D02*
X123849285Y-41955295D01*
X123849285Y-41955295D02*
X123896904Y-42145771D01*
X123896904Y-42145771D02*
X123896904Y-42383866D01*
X123896904Y-42383866D02*
X123849285Y-42574342D01*
X123849285Y-42574342D02*
X123801666Y-42669580D01*
X123801666Y-42669580D02*
X123754047Y-42717200D01*
X123754047Y-42717200D02*
X123658809Y-42764819D01*
X123658809Y-42764819D02*
X123563571Y-42764819D01*
X123563571Y-42764819D02*
X123468333Y-42717200D01*
X123468333Y-42717200D02*
X123420714Y-42669580D01*
X123420714Y-42669580D02*
X123373095Y-42574342D01*
X123373095Y-42574342D02*
X123325476Y-42383866D01*
X123325476Y-42383866D02*
X123325476Y-42145771D01*
X123325476Y-42145771D02*
X123373095Y-41955295D01*
X123373095Y-41955295D02*
X123420714Y-41860057D01*
X123420714Y-41860057D02*
X123468333Y-41812438D01*
X123468333Y-41812438D02*
X123563571Y-41764819D01*
X148855057Y-71051428D02*
X148807438Y-71146666D01*
X148807438Y-71146666D02*
X148712200Y-71241904D01*
X148712200Y-71241904D02*
X148569342Y-71384761D01*
X148569342Y-71384761D02*
X148521723Y-71479999D01*
X148521723Y-71479999D02*
X148521723Y-71575237D01*
X148759819Y-71527618D02*
X148712200Y-71622856D01*
X148712200Y-71622856D02*
X148616961Y-71718094D01*
X148616961Y-71718094D02*
X148426485Y-71765713D01*
X148426485Y-71765713D02*
X148093152Y-71765713D01*
X148093152Y-71765713D02*
X147902676Y-71718094D01*
X147902676Y-71718094D02*
X147807438Y-71622856D01*
X147807438Y-71622856D02*
X147759819Y-71527618D01*
X147759819Y-71527618D02*
X147759819Y-71337142D01*
X147759819Y-71337142D02*
X147807438Y-71241904D01*
X147807438Y-71241904D02*
X147902676Y-71146666D01*
X147902676Y-71146666D02*
X148093152Y-71099047D01*
X148093152Y-71099047D02*
X148426485Y-71099047D01*
X148426485Y-71099047D02*
X148616961Y-71146666D01*
X148616961Y-71146666D02*
X148712200Y-71241904D01*
X148712200Y-71241904D02*
X148759819Y-71337142D01*
X148759819Y-71337142D02*
X148759819Y-71527618D01*
X147759819Y-70765713D02*
X147759819Y-70146666D01*
X147759819Y-70146666D02*
X148140771Y-70479999D01*
X148140771Y-70479999D02*
X148140771Y-70337142D01*
X148140771Y-70337142D02*
X148188390Y-70241904D01*
X148188390Y-70241904D02*
X148236009Y-70194285D01*
X148236009Y-70194285D02*
X148331247Y-70146666D01*
X148331247Y-70146666D02*
X148569342Y-70146666D01*
X148569342Y-70146666D02*
X148664580Y-70194285D01*
X148664580Y-70194285D02*
X148712200Y-70241904D01*
X148712200Y-70241904D02*
X148759819Y-70337142D01*
X148759819Y-70337142D02*
X148759819Y-70622856D01*
X148759819Y-70622856D02*
X148712200Y-70718094D01*
X148712200Y-70718094D02*
X148664580Y-70765713D01*
X148093152Y-69289523D02*
X148759819Y-69289523D01*
X147712200Y-69527618D02*
X148426485Y-69765713D01*
X148426485Y-69765713D02*
X148426485Y-69146666D01*
X147759819Y-89422857D02*
X147283628Y-89756190D01*
X147759819Y-89994285D02*
X146759819Y-89994285D01*
X146759819Y-89994285D02*
X146759819Y-89613333D01*
X146759819Y-89613333D02*
X146807438Y-89518095D01*
X146807438Y-89518095D02*
X146855057Y-89470476D01*
X146855057Y-89470476D02*
X146950295Y-89422857D01*
X146950295Y-89422857D02*
X147093152Y-89422857D01*
X147093152Y-89422857D02*
X147188390Y-89470476D01*
X147188390Y-89470476D02*
X147236009Y-89518095D01*
X147236009Y-89518095D02*
X147283628Y-89613333D01*
X147283628Y-89613333D02*
X147283628Y-89994285D01*
X146759819Y-89089523D02*
X146759819Y-88470476D01*
X146759819Y-88470476D02*
X147140771Y-88803809D01*
X147140771Y-88803809D02*
X147140771Y-88660952D01*
X147140771Y-88660952D02*
X147188390Y-88565714D01*
X147188390Y-88565714D02*
X147236009Y-88518095D01*
X147236009Y-88518095D02*
X147331247Y-88470476D01*
X147331247Y-88470476D02*
X147569342Y-88470476D01*
X147569342Y-88470476D02*
X147664580Y-88518095D01*
X147664580Y-88518095D02*
X147712200Y-88565714D01*
X147712200Y-88565714D02*
X147759819Y-88660952D01*
X147759819Y-88660952D02*
X147759819Y-88946666D01*
X147759819Y-88946666D02*
X147712200Y-89041904D01*
X147712200Y-89041904D02*
X147664580Y-89089523D01*
X147759819Y-87518095D02*
X147759819Y-88089523D01*
X147759819Y-87803809D02*
X146759819Y-87803809D01*
X146759819Y-87803809D02*
X146902676Y-87899047D01*
X146902676Y-87899047D02*
X146997914Y-87994285D01*
X146997914Y-87994285D02*
X147045533Y-88089523D01*
X67048333Y-84464819D02*
X66715000Y-83988628D01*
X66476905Y-84464819D02*
X66476905Y-83464819D01*
X66476905Y-83464819D02*
X66857857Y-83464819D01*
X66857857Y-83464819D02*
X66953095Y-83512438D01*
X66953095Y-83512438D02*
X67000714Y-83560057D01*
X67000714Y-83560057D02*
X67048333Y-83655295D01*
X67048333Y-83655295D02*
X67048333Y-83798152D01*
X67048333Y-83798152D02*
X67000714Y-83893390D01*
X67000714Y-83893390D02*
X66953095Y-83941009D01*
X66953095Y-83941009D02*
X66857857Y-83988628D01*
X66857857Y-83988628D02*
X66476905Y-83988628D01*
X67381667Y-83464819D02*
X68000714Y-83464819D01*
X68000714Y-83464819D02*
X67667381Y-83845771D01*
X67667381Y-83845771D02*
X67810238Y-83845771D01*
X67810238Y-83845771D02*
X67905476Y-83893390D01*
X67905476Y-83893390D02*
X67953095Y-83941009D01*
X67953095Y-83941009D02*
X68000714Y-84036247D01*
X68000714Y-84036247D02*
X68000714Y-84274342D01*
X68000714Y-84274342D02*
X67953095Y-84369580D01*
X67953095Y-84369580D02*
X67905476Y-84417200D01*
X67905476Y-84417200D02*
X67810238Y-84464819D01*
X67810238Y-84464819D02*
X67524524Y-84464819D01*
X67524524Y-84464819D02*
X67429286Y-84417200D01*
X67429286Y-84417200D02*
X67381667Y-84369580D01*
X121892142Y-37564819D02*
X121558809Y-37088628D01*
X121320714Y-37564819D02*
X121320714Y-36564819D01*
X121320714Y-36564819D02*
X121701666Y-36564819D01*
X121701666Y-36564819D02*
X121796904Y-36612438D01*
X121796904Y-36612438D02*
X121844523Y-36660057D01*
X121844523Y-36660057D02*
X121892142Y-36755295D01*
X121892142Y-36755295D02*
X121892142Y-36898152D01*
X121892142Y-36898152D02*
X121844523Y-36993390D01*
X121844523Y-36993390D02*
X121796904Y-37041009D01*
X121796904Y-37041009D02*
X121701666Y-37088628D01*
X121701666Y-37088628D02*
X121320714Y-37088628D01*
X122273095Y-36660057D02*
X122320714Y-36612438D01*
X122320714Y-36612438D02*
X122415952Y-36564819D01*
X122415952Y-36564819D02*
X122654047Y-36564819D01*
X122654047Y-36564819D02*
X122749285Y-36612438D01*
X122749285Y-36612438D02*
X122796904Y-36660057D01*
X122796904Y-36660057D02*
X122844523Y-36755295D01*
X122844523Y-36755295D02*
X122844523Y-36850533D01*
X122844523Y-36850533D02*
X122796904Y-36993390D01*
X122796904Y-36993390D02*
X122225476Y-37564819D01*
X122225476Y-37564819D02*
X122844523Y-37564819D01*
X123796904Y-37564819D02*
X123225476Y-37564819D01*
X123511190Y-37564819D02*
X123511190Y-36564819D01*
X123511190Y-36564819D02*
X123415952Y-36707676D01*
X123415952Y-36707676D02*
X123320714Y-36802914D01*
X123320714Y-36802914D02*
X123225476Y-36850533D01*
X97712142Y-83464819D02*
X97378809Y-82988628D01*
X97140714Y-83464819D02*
X97140714Y-82464819D01*
X97140714Y-82464819D02*
X97521666Y-82464819D01*
X97521666Y-82464819D02*
X97616904Y-82512438D01*
X97616904Y-82512438D02*
X97664523Y-82560057D01*
X97664523Y-82560057D02*
X97712142Y-82655295D01*
X97712142Y-82655295D02*
X97712142Y-82798152D01*
X97712142Y-82798152D02*
X97664523Y-82893390D01*
X97664523Y-82893390D02*
X97616904Y-82941009D01*
X97616904Y-82941009D02*
X97521666Y-82988628D01*
X97521666Y-82988628D02*
X97140714Y-82988628D01*
X98093095Y-82560057D02*
X98140714Y-82512438D01*
X98140714Y-82512438D02*
X98235952Y-82464819D01*
X98235952Y-82464819D02*
X98474047Y-82464819D01*
X98474047Y-82464819D02*
X98569285Y-82512438D01*
X98569285Y-82512438D02*
X98616904Y-82560057D01*
X98616904Y-82560057D02*
X98664523Y-82655295D01*
X98664523Y-82655295D02*
X98664523Y-82750533D01*
X98664523Y-82750533D02*
X98616904Y-82893390D01*
X98616904Y-82893390D02*
X98045476Y-83464819D01*
X98045476Y-83464819D02*
X98664523Y-83464819D01*
X99521666Y-82798152D02*
X99521666Y-83464819D01*
X99283571Y-82417200D02*
X99045476Y-83131485D01*
X99045476Y-83131485D02*
X99664523Y-83131485D01*
X75935057Y-74151428D02*
X75887438Y-74246666D01*
X75887438Y-74246666D02*
X75792200Y-74341904D01*
X75792200Y-74341904D02*
X75649342Y-74484761D01*
X75649342Y-74484761D02*
X75601723Y-74579999D01*
X75601723Y-74579999D02*
X75601723Y-74675237D01*
X75839819Y-74627618D02*
X75792200Y-74722856D01*
X75792200Y-74722856D02*
X75696961Y-74818094D01*
X75696961Y-74818094D02*
X75506485Y-74865713D01*
X75506485Y-74865713D02*
X75173152Y-74865713D01*
X75173152Y-74865713D02*
X74982676Y-74818094D01*
X74982676Y-74818094D02*
X74887438Y-74722856D01*
X74887438Y-74722856D02*
X74839819Y-74627618D01*
X74839819Y-74627618D02*
X74839819Y-74437142D01*
X74839819Y-74437142D02*
X74887438Y-74341904D01*
X74887438Y-74341904D02*
X74982676Y-74246666D01*
X74982676Y-74246666D02*
X75173152Y-74199047D01*
X75173152Y-74199047D02*
X75506485Y-74199047D01*
X75506485Y-74199047D02*
X75696961Y-74246666D01*
X75696961Y-74246666D02*
X75792200Y-74341904D01*
X75792200Y-74341904D02*
X75839819Y-74437142D01*
X75839819Y-74437142D02*
X75839819Y-74627618D01*
X74935057Y-73818094D02*
X74887438Y-73770475D01*
X74887438Y-73770475D02*
X74839819Y-73675237D01*
X74839819Y-73675237D02*
X74839819Y-73437142D01*
X74839819Y-73437142D02*
X74887438Y-73341904D01*
X74887438Y-73341904D02*
X74935057Y-73294285D01*
X74935057Y-73294285D02*
X75030295Y-73246666D01*
X75030295Y-73246666D02*
X75125533Y-73246666D01*
X75125533Y-73246666D02*
X75268390Y-73294285D01*
X75268390Y-73294285D02*
X75839819Y-73865713D01*
X75839819Y-73865713D02*
X75839819Y-73246666D01*
X74935057Y-72865713D02*
X74887438Y-72818094D01*
X74887438Y-72818094D02*
X74839819Y-72722856D01*
X74839819Y-72722856D02*
X74839819Y-72484761D01*
X74839819Y-72484761D02*
X74887438Y-72389523D01*
X74887438Y-72389523D02*
X74935057Y-72341904D01*
X74935057Y-72341904D02*
X75030295Y-72294285D01*
X75030295Y-72294285D02*
X75125533Y-72294285D01*
X75125533Y-72294285D02*
X75268390Y-72341904D01*
X75268390Y-72341904D02*
X75839819Y-72913332D01*
X75839819Y-72913332D02*
X75839819Y-72294285D01*
X147149819Y-37378094D02*
X146149819Y-37378094D01*
X146149819Y-37378094D02*
X146149819Y-37139999D01*
X146149819Y-37139999D02*
X146197438Y-36997142D01*
X146197438Y-36997142D02*
X146292676Y-36901904D01*
X146292676Y-36901904D02*
X146387914Y-36854285D01*
X146387914Y-36854285D02*
X146578390Y-36806666D01*
X146578390Y-36806666D02*
X146721247Y-36806666D01*
X146721247Y-36806666D02*
X146911723Y-36854285D01*
X146911723Y-36854285D02*
X147006961Y-36901904D01*
X147006961Y-36901904D02*
X147102200Y-36997142D01*
X147102200Y-36997142D02*
X147149819Y-37139999D01*
X147149819Y-37139999D02*
X147149819Y-37378094D01*
X147149819Y-35854285D02*
X147149819Y-36425713D01*
X147149819Y-36139999D02*
X146149819Y-36139999D01*
X146149819Y-36139999D02*
X146292676Y-36235237D01*
X146292676Y-36235237D02*
X146387914Y-36330475D01*
X146387914Y-36330475D02*
X146435533Y-36425713D01*
X131205057Y-48981428D02*
X131157438Y-49076666D01*
X131157438Y-49076666D02*
X131062200Y-49171904D01*
X131062200Y-49171904D02*
X130919342Y-49314761D01*
X130919342Y-49314761D02*
X130871723Y-49409999D01*
X130871723Y-49409999D02*
X130871723Y-49505237D01*
X131109819Y-49457618D02*
X131062200Y-49552856D01*
X131062200Y-49552856D02*
X130966961Y-49648094D01*
X130966961Y-49648094D02*
X130776485Y-49695713D01*
X130776485Y-49695713D02*
X130443152Y-49695713D01*
X130443152Y-49695713D02*
X130252676Y-49648094D01*
X130252676Y-49648094D02*
X130157438Y-49552856D01*
X130157438Y-49552856D02*
X130109819Y-49457618D01*
X130109819Y-49457618D02*
X130109819Y-49267142D01*
X130109819Y-49267142D02*
X130157438Y-49171904D01*
X130157438Y-49171904D02*
X130252676Y-49076666D01*
X130252676Y-49076666D02*
X130443152Y-49029047D01*
X130443152Y-49029047D02*
X130776485Y-49029047D01*
X130776485Y-49029047D02*
X130966961Y-49076666D01*
X130966961Y-49076666D02*
X131062200Y-49171904D01*
X131062200Y-49171904D02*
X131109819Y-49267142D01*
X131109819Y-49267142D02*
X131109819Y-49457618D01*
X130205057Y-48648094D02*
X130157438Y-48600475D01*
X130157438Y-48600475D02*
X130109819Y-48505237D01*
X130109819Y-48505237D02*
X130109819Y-48267142D01*
X130109819Y-48267142D02*
X130157438Y-48171904D01*
X130157438Y-48171904D02*
X130205057Y-48124285D01*
X130205057Y-48124285D02*
X130300295Y-48076666D01*
X130300295Y-48076666D02*
X130395533Y-48076666D01*
X130395533Y-48076666D02*
X130538390Y-48124285D01*
X130538390Y-48124285D02*
X131109819Y-48695713D01*
X131109819Y-48695713D02*
X131109819Y-48076666D01*
X130109819Y-47743332D02*
X130109819Y-47076666D01*
X130109819Y-47076666D02*
X131109819Y-47505237D01*
X97712142Y-96464819D02*
X97378809Y-95988628D01*
X97140714Y-96464819D02*
X97140714Y-95464819D01*
X97140714Y-95464819D02*
X97521666Y-95464819D01*
X97521666Y-95464819D02*
X97616904Y-95512438D01*
X97616904Y-95512438D02*
X97664523Y-95560057D01*
X97664523Y-95560057D02*
X97712142Y-95655295D01*
X97712142Y-95655295D02*
X97712142Y-95798152D01*
X97712142Y-95798152D02*
X97664523Y-95893390D01*
X97664523Y-95893390D02*
X97616904Y-95941009D01*
X97616904Y-95941009D02*
X97521666Y-95988628D01*
X97521666Y-95988628D02*
X97140714Y-95988628D01*
X98093095Y-95560057D02*
X98140714Y-95512438D01*
X98140714Y-95512438D02*
X98235952Y-95464819D01*
X98235952Y-95464819D02*
X98474047Y-95464819D01*
X98474047Y-95464819D02*
X98569285Y-95512438D01*
X98569285Y-95512438D02*
X98616904Y-95560057D01*
X98616904Y-95560057D02*
X98664523Y-95655295D01*
X98664523Y-95655295D02*
X98664523Y-95750533D01*
X98664523Y-95750533D02*
X98616904Y-95893390D01*
X98616904Y-95893390D02*
X98045476Y-96464819D01*
X98045476Y-96464819D02*
X98664523Y-96464819D01*
X98997857Y-95464819D02*
X99664523Y-95464819D01*
X99664523Y-95464819D02*
X99235952Y-96464819D01*
X154442142Y-36614819D02*
X154108809Y-36138628D01*
X153870714Y-36614819D02*
X153870714Y-35614819D01*
X153870714Y-35614819D02*
X154251666Y-35614819D01*
X154251666Y-35614819D02*
X154346904Y-35662438D01*
X154346904Y-35662438D02*
X154394523Y-35710057D01*
X154394523Y-35710057D02*
X154442142Y-35805295D01*
X154442142Y-35805295D02*
X154442142Y-35948152D01*
X154442142Y-35948152D02*
X154394523Y-36043390D01*
X154394523Y-36043390D02*
X154346904Y-36091009D01*
X154346904Y-36091009D02*
X154251666Y-36138628D01*
X154251666Y-36138628D02*
X153870714Y-36138628D01*
X154775476Y-35614819D02*
X155394523Y-35614819D01*
X155394523Y-35614819D02*
X155061190Y-35995771D01*
X155061190Y-35995771D02*
X155204047Y-35995771D01*
X155204047Y-35995771D02*
X155299285Y-36043390D01*
X155299285Y-36043390D02*
X155346904Y-36091009D01*
X155346904Y-36091009D02*
X155394523Y-36186247D01*
X155394523Y-36186247D02*
X155394523Y-36424342D01*
X155394523Y-36424342D02*
X155346904Y-36519580D01*
X155346904Y-36519580D02*
X155299285Y-36567200D01*
X155299285Y-36567200D02*
X155204047Y-36614819D01*
X155204047Y-36614819D02*
X154918333Y-36614819D01*
X154918333Y-36614819D02*
X154823095Y-36567200D01*
X154823095Y-36567200D02*
X154775476Y-36519580D01*
X156251666Y-35948152D02*
X156251666Y-36614819D01*
X156013571Y-35567200D02*
X155775476Y-36281485D01*
X155775476Y-36281485D02*
X156394523Y-36281485D01*
X40973095Y-105114819D02*
X40973095Y-104114819D01*
X40973095Y-104591009D02*
X41544523Y-104591009D01*
X41544523Y-105114819D02*
X41544523Y-104114819D01*
X41925476Y-104114819D02*
X42544523Y-104114819D01*
X42544523Y-104114819D02*
X42211190Y-104495771D01*
X42211190Y-104495771D02*
X42354047Y-104495771D01*
X42354047Y-104495771D02*
X42449285Y-104543390D01*
X42449285Y-104543390D02*
X42496904Y-104591009D01*
X42496904Y-104591009D02*
X42544523Y-104686247D01*
X42544523Y-104686247D02*
X42544523Y-104924342D01*
X42544523Y-104924342D02*
X42496904Y-105019580D01*
X42496904Y-105019580D02*
X42449285Y-105067200D01*
X42449285Y-105067200D02*
X42354047Y-105114819D01*
X42354047Y-105114819D02*
X42068333Y-105114819D01*
X42068333Y-105114819D02*
X41973095Y-105067200D01*
X41973095Y-105067200D02*
X41925476Y-105019580D01*
X145199819Y-85322857D02*
X144723628Y-85656190D01*
X145199819Y-85894285D02*
X144199819Y-85894285D01*
X144199819Y-85894285D02*
X144199819Y-85513333D01*
X144199819Y-85513333D02*
X144247438Y-85418095D01*
X144247438Y-85418095D02*
X144295057Y-85370476D01*
X144295057Y-85370476D02*
X144390295Y-85322857D01*
X144390295Y-85322857D02*
X144533152Y-85322857D01*
X144533152Y-85322857D02*
X144628390Y-85370476D01*
X144628390Y-85370476D02*
X144676009Y-85418095D01*
X144676009Y-85418095D02*
X144723628Y-85513333D01*
X144723628Y-85513333D02*
X144723628Y-85894285D01*
X144295057Y-84941904D02*
X144247438Y-84894285D01*
X144247438Y-84894285D02*
X144199819Y-84799047D01*
X144199819Y-84799047D02*
X144199819Y-84560952D01*
X144199819Y-84560952D02*
X144247438Y-84465714D01*
X144247438Y-84465714D02*
X144295057Y-84418095D01*
X144295057Y-84418095D02*
X144390295Y-84370476D01*
X144390295Y-84370476D02*
X144485533Y-84370476D01*
X144485533Y-84370476D02*
X144628390Y-84418095D01*
X144628390Y-84418095D02*
X145199819Y-84989523D01*
X145199819Y-84989523D02*
X145199819Y-84370476D01*
X145199819Y-83894285D02*
X145199819Y-83703809D01*
X145199819Y-83703809D02*
X145152200Y-83608571D01*
X145152200Y-83608571D02*
X145104580Y-83560952D01*
X145104580Y-83560952D02*
X144961723Y-83465714D01*
X144961723Y-83465714D02*
X144771247Y-83418095D01*
X144771247Y-83418095D02*
X144390295Y-83418095D01*
X144390295Y-83418095D02*
X144295057Y-83465714D01*
X144295057Y-83465714D02*
X144247438Y-83513333D01*
X144247438Y-83513333D02*
X144199819Y-83608571D01*
X144199819Y-83608571D02*
X144199819Y-83799047D01*
X144199819Y-83799047D02*
X144247438Y-83894285D01*
X144247438Y-83894285D02*
X144295057Y-83941904D01*
X144295057Y-83941904D02*
X144390295Y-83989523D01*
X144390295Y-83989523D02*
X144628390Y-83989523D01*
X144628390Y-83989523D02*
X144723628Y-83941904D01*
X144723628Y-83941904D02*
X144771247Y-83894285D01*
X144771247Y-83894285D02*
X144818866Y-83799047D01*
X144818866Y-83799047D02*
X144818866Y-83608571D01*
X144818866Y-83608571D02*
X144771247Y-83513333D01*
X144771247Y-83513333D02*
X144723628Y-83465714D01*
X144723628Y-83465714D02*
X144628390Y-83418095D01*
X165673095Y-105114819D02*
X165673095Y-104114819D01*
X165673095Y-104591009D02*
X166244523Y-104591009D01*
X166244523Y-105114819D02*
X166244523Y-104114819D01*
X166673095Y-104210057D02*
X166720714Y-104162438D01*
X166720714Y-104162438D02*
X166815952Y-104114819D01*
X166815952Y-104114819D02*
X167054047Y-104114819D01*
X167054047Y-104114819D02*
X167149285Y-104162438D01*
X167149285Y-104162438D02*
X167196904Y-104210057D01*
X167196904Y-104210057D02*
X167244523Y-104305295D01*
X167244523Y-104305295D02*
X167244523Y-104400533D01*
X167244523Y-104400533D02*
X167196904Y-104543390D01*
X167196904Y-104543390D02*
X166625476Y-105114819D01*
X166625476Y-105114819D02*
X167244523Y-105114819D01*
X49666667Y-76277200D02*
X49809524Y-76324819D01*
X49809524Y-76324819D02*
X50047619Y-76324819D01*
X50047619Y-76324819D02*
X50142857Y-76277200D01*
X50142857Y-76277200D02*
X50190476Y-76229580D01*
X50190476Y-76229580D02*
X50238095Y-76134342D01*
X50238095Y-76134342D02*
X50238095Y-76039104D01*
X50238095Y-76039104D02*
X50190476Y-75943866D01*
X50190476Y-75943866D02*
X50142857Y-75896247D01*
X50142857Y-75896247D02*
X50047619Y-75848628D01*
X50047619Y-75848628D02*
X49857143Y-75801009D01*
X49857143Y-75801009D02*
X49761905Y-75753390D01*
X49761905Y-75753390D02*
X49714286Y-75705771D01*
X49714286Y-75705771D02*
X49666667Y-75610533D01*
X49666667Y-75610533D02*
X49666667Y-75515295D01*
X49666667Y-75515295D02*
X49714286Y-75420057D01*
X49714286Y-75420057D02*
X49761905Y-75372438D01*
X49761905Y-75372438D02*
X49857143Y-75324819D01*
X49857143Y-75324819D02*
X50095238Y-75324819D01*
X50095238Y-75324819D02*
X50238095Y-75372438D01*
X50571429Y-75324819D02*
X50809524Y-76324819D01*
X50809524Y-76324819D02*
X51000000Y-75610533D01*
X51000000Y-75610533D02*
X51190476Y-76324819D01*
X51190476Y-76324819D02*
X51428572Y-75324819D01*
X51714286Y-75324819D02*
X52333333Y-75324819D01*
X52333333Y-75324819D02*
X52000000Y-75705771D01*
X52000000Y-75705771D02*
X52142857Y-75705771D01*
X52142857Y-75705771D02*
X52238095Y-75753390D01*
X52238095Y-75753390D02*
X52285714Y-75801009D01*
X52285714Y-75801009D02*
X52333333Y-75896247D01*
X52333333Y-75896247D02*
X52333333Y-76134342D01*
X52333333Y-76134342D02*
X52285714Y-76229580D01*
X52285714Y-76229580D02*
X52238095Y-76277200D01*
X52238095Y-76277200D02*
X52142857Y-76324819D01*
X52142857Y-76324819D02*
X51857143Y-76324819D01*
X51857143Y-76324819D02*
X51761905Y-76277200D01*
X51761905Y-76277200D02*
X51714286Y-76229580D01*
X147049819Y-44048094D02*
X146049819Y-44048094D01*
X146049819Y-44048094D02*
X146049819Y-43809999D01*
X146049819Y-43809999D02*
X146097438Y-43667142D01*
X146097438Y-43667142D02*
X146192676Y-43571904D01*
X146192676Y-43571904D02*
X146287914Y-43524285D01*
X146287914Y-43524285D02*
X146478390Y-43476666D01*
X146478390Y-43476666D02*
X146621247Y-43476666D01*
X146621247Y-43476666D02*
X146811723Y-43524285D01*
X146811723Y-43524285D02*
X146906961Y-43571904D01*
X146906961Y-43571904D02*
X147002200Y-43667142D01*
X147002200Y-43667142D02*
X147049819Y-43809999D01*
X147049819Y-43809999D02*
X147049819Y-44048094D01*
X146145057Y-43095713D02*
X146097438Y-43048094D01*
X146097438Y-43048094D02*
X146049819Y-42952856D01*
X146049819Y-42952856D02*
X146049819Y-42714761D01*
X146049819Y-42714761D02*
X146097438Y-42619523D01*
X146097438Y-42619523D02*
X146145057Y-42571904D01*
X146145057Y-42571904D02*
X146240295Y-42524285D01*
X146240295Y-42524285D02*
X146335533Y-42524285D01*
X146335533Y-42524285D02*
X146478390Y-42571904D01*
X146478390Y-42571904D02*
X147049819Y-43143332D01*
X147049819Y-43143332D02*
X147049819Y-42524285D01*
X78399819Y-104402857D02*
X77923628Y-104736190D01*
X78399819Y-104974285D02*
X77399819Y-104974285D01*
X77399819Y-104974285D02*
X77399819Y-104593333D01*
X77399819Y-104593333D02*
X77447438Y-104498095D01*
X77447438Y-104498095D02*
X77495057Y-104450476D01*
X77495057Y-104450476D02*
X77590295Y-104402857D01*
X77590295Y-104402857D02*
X77733152Y-104402857D01*
X77733152Y-104402857D02*
X77828390Y-104450476D01*
X77828390Y-104450476D02*
X77876009Y-104498095D01*
X77876009Y-104498095D02*
X77923628Y-104593333D01*
X77923628Y-104593333D02*
X77923628Y-104974285D01*
X77495057Y-104021904D02*
X77447438Y-103974285D01*
X77447438Y-103974285D02*
X77399819Y-103879047D01*
X77399819Y-103879047D02*
X77399819Y-103640952D01*
X77399819Y-103640952D02*
X77447438Y-103545714D01*
X77447438Y-103545714D02*
X77495057Y-103498095D01*
X77495057Y-103498095D02*
X77590295Y-103450476D01*
X77590295Y-103450476D02*
X77685533Y-103450476D01*
X77685533Y-103450476D02*
X77828390Y-103498095D01*
X77828390Y-103498095D02*
X78399819Y-104069523D01*
X78399819Y-104069523D02*
X78399819Y-103450476D01*
X77828390Y-102879047D02*
X77780771Y-102974285D01*
X77780771Y-102974285D02*
X77733152Y-103021904D01*
X77733152Y-103021904D02*
X77637914Y-103069523D01*
X77637914Y-103069523D02*
X77590295Y-103069523D01*
X77590295Y-103069523D02*
X77495057Y-103021904D01*
X77495057Y-103021904D02*
X77447438Y-102974285D01*
X77447438Y-102974285D02*
X77399819Y-102879047D01*
X77399819Y-102879047D02*
X77399819Y-102688571D01*
X77399819Y-102688571D02*
X77447438Y-102593333D01*
X77447438Y-102593333D02*
X77495057Y-102545714D01*
X77495057Y-102545714D02*
X77590295Y-102498095D01*
X77590295Y-102498095D02*
X77637914Y-102498095D01*
X77637914Y-102498095D02*
X77733152Y-102545714D01*
X77733152Y-102545714D02*
X77780771Y-102593333D01*
X77780771Y-102593333D02*
X77828390Y-102688571D01*
X77828390Y-102688571D02*
X77828390Y-102879047D01*
X77828390Y-102879047D02*
X77876009Y-102974285D01*
X77876009Y-102974285D02*
X77923628Y-103021904D01*
X77923628Y-103021904D02*
X78018866Y-103069523D01*
X78018866Y-103069523D02*
X78209342Y-103069523D01*
X78209342Y-103069523D02*
X78304580Y-103021904D01*
X78304580Y-103021904D02*
X78352200Y-102974285D01*
X78352200Y-102974285D02*
X78399819Y-102879047D01*
X78399819Y-102879047D02*
X78399819Y-102688571D01*
X78399819Y-102688571D02*
X78352200Y-102593333D01*
X78352200Y-102593333D02*
X78304580Y-102545714D01*
X78304580Y-102545714D02*
X78209342Y-102498095D01*
X78209342Y-102498095D02*
X78018866Y-102498095D01*
X78018866Y-102498095D02*
X77923628Y-102545714D01*
X77923628Y-102545714D02*
X77876009Y-102593333D01*
X77876009Y-102593333D02*
X77828390Y-102688571D01*
X122012142Y-47664819D02*
X121678809Y-47188628D01*
X121440714Y-47664819D02*
X121440714Y-46664819D01*
X121440714Y-46664819D02*
X121821666Y-46664819D01*
X121821666Y-46664819D02*
X121916904Y-46712438D01*
X121916904Y-46712438D02*
X121964523Y-46760057D01*
X121964523Y-46760057D02*
X122012142Y-46855295D01*
X122012142Y-46855295D02*
X122012142Y-46998152D01*
X122012142Y-46998152D02*
X121964523Y-47093390D01*
X121964523Y-47093390D02*
X121916904Y-47141009D01*
X121916904Y-47141009D02*
X121821666Y-47188628D01*
X121821666Y-47188628D02*
X121440714Y-47188628D01*
X122393095Y-46760057D02*
X122440714Y-46712438D01*
X122440714Y-46712438D02*
X122535952Y-46664819D01*
X122535952Y-46664819D02*
X122774047Y-46664819D01*
X122774047Y-46664819D02*
X122869285Y-46712438D01*
X122869285Y-46712438D02*
X122916904Y-46760057D01*
X122916904Y-46760057D02*
X122964523Y-46855295D01*
X122964523Y-46855295D02*
X122964523Y-46950533D01*
X122964523Y-46950533D02*
X122916904Y-47093390D01*
X122916904Y-47093390D02*
X122345476Y-47664819D01*
X122345476Y-47664819D02*
X122964523Y-47664819D01*
X123345476Y-46760057D02*
X123393095Y-46712438D01*
X123393095Y-46712438D02*
X123488333Y-46664819D01*
X123488333Y-46664819D02*
X123726428Y-46664819D01*
X123726428Y-46664819D02*
X123821666Y-46712438D01*
X123821666Y-46712438D02*
X123869285Y-46760057D01*
X123869285Y-46760057D02*
X123916904Y-46855295D01*
X123916904Y-46855295D02*
X123916904Y-46950533D01*
X123916904Y-46950533D02*
X123869285Y-47093390D01*
X123869285Y-47093390D02*
X123297857Y-47664819D01*
X123297857Y-47664819D02*
X123916904Y-47664819D01*
X59446905Y-111294819D02*
X59446905Y-110294819D01*
X59446905Y-110294819D02*
X59685000Y-110294819D01*
X59685000Y-110294819D02*
X59827857Y-110342438D01*
X59827857Y-110342438D02*
X59923095Y-110437676D01*
X59923095Y-110437676D02*
X59970714Y-110532914D01*
X59970714Y-110532914D02*
X60018333Y-110723390D01*
X60018333Y-110723390D02*
X60018333Y-110866247D01*
X60018333Y-110866247D02*
X59970714Y-111056723D01*
X59970714Y-111056723D02*
X59923095Y-111151961D01*
X59923095Y-111151961D02*
X59827857Y-111247200D01*
X59827857Y-111247200D02*
X59685000Y-111294819D01*
X59685000Y-111294819D02*
X59446905Y-111294819D01*
X60875476Y-110628152D02*
X60875476Y-111294819D01*
X60637381Y-110247200D02*
X60399286Y-110961485D01*
X60399286Y-110961485D02*
X61018333Y-110961485D01*
X121972142Y-57174819D02*
X121638809Y-56698628D01*
X121400714Y-57174819D02*
X121400714Y-56174819D01*
X121400714Y-56174819D02*
X121781666Y-56174819D01*
X121781666Y-56174819D02*
X121876904Y-56222438D01*
X121876904Y-56222438D02*
X121924523Y-56270057D01*
X121924523Y-56270057D02*
X121972142Y-56365295D01*
X121972142Y-56365295D02*
X121972142Y-56508152D01*
X121972142Y-56508152D02*
X121924523Y-56603390D01*
X121924523Y-56603390D02*
X121876904Y-56651009D01*
X121876904Y-56651009D02*
X121781666Y-56698628D01*
X121781666Y-56698628D02*
X121400714Y-56698628D01*
X122353095Y-56270057D02*
X122400714Y-56222438D01*
X122400714Y-56222438D02*
X122495952Y-56174819D01*
X122495952Y-56174819D02*
X122734047Y-56174819D01*
X122734047Y-56174819D02*
X122829285Y-56222438D01*
X122829285Y-56222438D02*
X122876904Y-56270057D01*
X122876904Y-56270057D02*
X122924523Y-56365295D01*
X122924523Y-56365295D02*
X122924523Y-56460533D01*
X122924523Y-56460533D02*
X122876904Y-56603390D01*
X122876904Y-56603390D02*
X122305476Y-57174819D01*
X122305476Y-57174819D02*
X122924523Y-57174819D01*
X123257857Y-56174819D02*
X123876904Y-56174819D01*
X123876904Y-56174819D02*
X123543571Y-56555771D01*
X123543571Y-56555771D02*
X123686428Y-56555771D01*
X123686428Y-56555771D02*
X123781666Y-56603390D01*
X123781666Y-56603390D02*
X123829285Y-56651009D01*
X123829285Y-56651009D02*
X123876904Y-56746247D01*
X123876904Y-56746247D02*
X123876904Y-56984342D01*
X123876904Y-56984342D02*
X123829285Y-57079580D01*
X123829285Y-57079580D02*
X123781666Y-57127200D01*
X123781666Y-57127200D02*
X123686428Y-57174819D01*
X123686428Y-57174819D02*
X123400714Y-57174819D01*
X123400714Y-57174819D02*
X123305476Y-57127200D01*
X123305476Y-57127200D02*
X123257857Y-57079580D01*
X76215057Y-46891428D02*
X76167438Y-46986666D01*
X76167438Y-46986666D02*
X76072200Y-47081904D01*
X76072200Y-47081904D02*
X75929342Y-47224761D01*
X75929342Y-47224761D02*
X75881723Y-47319999D01*
X75881723Y-47319999D02*
X75881723Y-47415237D01*
X76119819Y-47367618D02*
X76072200Y-47462856D01*
X76072200Y-47462856D02*
X75976961Y-47558094D01*
X75976961Y-47558094D02*
X75786485Y-47605713D01*
X75786485Y-47605713D02*
X75453152Y-47605713D01*
X75453152Y-47605713D02*
X75262676Y-47558094D01*
X75262676Y-47558094D02*
X75167438Y-47462856D01*
X75167438Y-47462856D02*
X75119819Y-47367618D01*
X75119819Y-47367618D02*
X75119819Y-47177142D01*
X75119819Y-47177142D02*
X75167438Y-47081904D01*
X75167438Y-47081904D02*
X75262676Y-46986666D01*
X75262676Y-46986666D02*
X75453152Y-46939047D01*
X75453152Y-46939047D02*
X75786485Y-46939047D01*
X75786485Y-46939047D02*
X75976961Y-46986666D01*
X75976961Y-46986666D02*
X76072200Y-47081904D01*
X76072200Y-47081904D02*
X76119819Y-47177142D01*
X76119819Y-47177142D02*
X76119819Y-47367618D01*
X76119819Y-45986666D02*
X76119819Y-46558094D01*
X76119819Y-46272380D02*
X75119819Y-46272380D01*
X75119819Y-46272380D02*
X75262676Y-46367618D01*
X75262676Y-46367618D02*
X75357914Y-46462856D01*
X75357914Y-46462856D02*
X75405533Y-46558094D01*
X75548390Y-45415237D02*
X75500771Y-45510475D01*
X75500771Y-45510475D02*
X75453152Y-45558094D01*
X75453152Y-45558094D02*
X75357914Y-45605713D01*
X75357914Y-45605713D02*
X75310295Y-45605713D01*
X75310295Y-45605713D02*
X75215057Y-45558094D01*
X75215057Y-45558094D02*
X75167438Y-45510475D01*
X75167438Y-45510475D02*
X75119819Y-45415237D01*
X75119819Y-45415237D02*
X75119819Y-45224761D01*
X75119819Y-45224761D02*
X75167438Y-45129523D01*
X75167438Y-45129523D02*
X75215057Y-45081904D01*
X75215057Y-45081904D02*
X75310295Y-45034285D01*
X75310295Y-45034285D02*
X75357914Y-45034285D01*
X75357914Y-45034285D02*
X75453152Y-45081904D01*
X75453152Y-45081904D02*
X75500771Y-45129523D01*
X75500771Y-45129523D02*
X75548390Y-45224761D01*
X75548390Y-45224761D02*
X75548390Y-45415237D01*
X75548390Y-45415237D02*
X75596009Y-45510475D01*
X75596009Y-45510475D02*
X75643628Y-45558094D01*
X75643628Y-45558094D02*
X75738866Y-45605713D01*
X75738866Y-45605713D02*
X75929342Y-45605713D01*
X75929342Y-45605713D02*
X76024580Y-45558094D01*
X76024580Y-45558094D02*
X76072200Y-45510475D01*
X76072200Y-45510475D02*
X76119819Y-45415237D01*
X76119819Y-45415237D02*
X76119819Y-45224761D01*
X76119819Y-45224761D02*
X76072200Y-45129523D01*
X76072200Y-45129523D02*
X76024580Y-45081904D01*
X76024580Y-45081904D02*
X75929342Y-45034285D01*
X75929342Y-45034285D02*
X75738866Y-45034285D01*
X75738866Y-45034285D02*
X75643628Y-45081904D01*
X75643628Y-45081904D02*
X75596009Y-45129523D01*
X75596009Y-45129523D02*
X75548390Y-45224761D01*
X33139819Y-91993333D02*
X33854104Y-91993333D01*
X33854104Y-91993333D02*
X33996961Y-92040952D01*
X33996961Y-92040952D02*
X34092200Y-92136190D01*
X34092200Y-92136190D02*
X34139819Y-92279047D01*
X34139819Y-92279047D02*
X34139819Y-92374285D01*
X33139819Y-91040952D02*
X33139819Y-91517142D01*
X33139819Y-91517142D02*
X33616009Y-91564761D01*
X33616009Y-91564761D02*
X33568390Y-91517142D01*
X33568390Y-91517142D02*
X33520771Y-91421904D01*
X33520771Y-91421904D02*
X33520771Y-91183809D01*
X33520771Y-91183809D02*
X33568390Y-91088571D01*
X33568390Y-91088571D02*
X33616009Y-91040952D01*
X33616009Y-91040952D02*
X33711247Y-90993333D01*
X33711247Y-90993333D02*
X33949342Y-90993333D01*
X33949342Y-90993333D02*
X34044580Y-91040952D01*
X34044580Y-91040952D02*
X34092200Y-91088571D01*
X34092200Y-91088571D02*
X34139819Y-91183809D01*
X34139819Y-91183809D02*
X34139819Y-91421904D01*
X34139819Y-91421904D02*
X34092200Y-91517142D01*
X34092200Y-91517142D02*
X34044580Y-91564761D01*
X93512142Y-49164819D02*
X93178809Y-48688628D01*
X92940714Y-49164819D02*
X92940714Y-48164819D01*
X92940714Y-48164819D02*
X93321666Y-48164819D01*
X93321666Y-48164819D02*
X93416904Y-48212438D01*
X93416904Y-48212438D02*
X93464523Y-48260057D01*
X93464523Y-48260057D02*
X93512142Y-48355295D01*
X93512142Y-48355295D02*
X93512142Y-48498152D01*
X93512142Y-48498152D02*
X93464523Y-48593390D01*
X93464523Y-48593390D02*
X93416904Y-48641009D01*
X93416904Y-48641009D02*
X93321666Y-48688628D01*
X93321666Y-48688628D02*
X92940714Y-48688628D01*
X94464523Y-49164819D02*
X93893095Y-49164819D01*
X94178809Y-49164819D02*
X94178809Y-48164819D01*
X94178809Y-48164819D02*
X94083571Y-48307676D01*
X94083571Y-48307676D02*
X93988333Y-48402914D01*
X93988333Y-48402914D02*
X93893095Y-48450533D01*
X95035952Y-48593390D02*
X94940714Y-48545771D01*
X94940714Y-48545771D02*
X94893095Y-48498152D01*
X94893095Y-48498152D02*
X94845476Y-48402914D01*
X94845476Y-48402914D02*
X94845476Y-48355295D01*
X94845476Y-48355295D02*
X94893095Y-48260057D01*
X94893095Y-48260057D02*
X94940714Y-48212438D01*
X94940714Y-48212438D02*
X95035952Y-48164819D01*
X95035952Y-48164819D02*
X95226428Y-48164819D01*
X95226428Y-48164819D02*
X95321666Y-48212438D01*
X95321666Y-48212438D02*
X95369285Y-48260057D01*
X95369285Y-48260057D02*
X95416904Y-48355295D01*
X95416904Y-48355295D02*
X95416904Y-48402914D01*
X95416904Y-48402914D02*
X95369285Y-48498152D01*
X95369285Y-48498152D02*
X95321666Y-48545771D01*
X95321666Y-48545771D02*
X95226428Y-48593390D01*
X95226428Y-48593390D02*
X95035952Y-48593390D01*
X95035952Y-48593390D02*
X94940714Y-48641009D01*
X94940714Y-48641009D02*
X94893095Y-48688628D01*
X94893095Y-48688628D02*
X94845476Y-48783866D01*
X94845476Y-48783866D02*
X94845476Y-48974342D01*
X94845476Y-48974342D02*
X94893095Y-49069580D01*
X94893095Y-49069580D02*
X94940714Y-49117200D01*
X94940714Y-49117200D02*
X95035952Y-49164819D01*
X95035952Y-49164819D02*
X95226428Y-49164819D01*
X95226428Y-49164819D02*
X95321666Y-49117200D01*
X95321666Y-49117200D02*
X95369285Y-49069580D01*
X95369285Y-49069580D02*
X95416904Y-48974342D01*
X95416904Y-48974342D02*
X95416904Y-48783866D01*
X95416904Y-48783866D02*
X95369285Y-48688628D01*
X95369285Y-48688628D02*
X95321666Y-48641009D01*
X95321666Y-48641009D02*
X95226428Y-48593390D01*
X76045057Y-54921428D02*
X75997438Y-55016666D01*
X75997438Y-55016666D02*
X75902200Y-55111904D01*
X75902200Y-55111904D02*
X75759342Y-55254761D01*
X75759342Y-55254761D02*
X75711723Y-55349999D01*
X75711723Y-55349999D02*
X75711723Y-55445237D01*
X75949819Y-55397618D02*
X75902200Y-55492856D01*
X75902200Y-55492856D02*
X75806961Y-55588094D01*
X75806961Y-55588094D02*
X75616485Y-55635713D01*
X75616485Y-55635713D02*
X75283152Y-55635713D01*
X75283152Y-55635713D02*
X75092676Y-55588094D01*
X75092676Y-55588094D02*
X74997438Y-55492856D01*
X74997438Y-55492856D02*
X74949819Y-55397618D01*
X74949819Y-55397618D02*
X74949819Y-55207142D01*
X74949819Y-55207142D02*
X74997438Y-55111904D01*
X74997438Y-55111904D02*
X75092676Y-55016666D01*
X75092676Y-55016666D02*
X75283152Y-54969047D01*
X75283152Y-54969047D02*
X75616485Y-54969047D01*
X75616485Y-54969047D02*
X75806961Y-55016666D01*
X75806961Y-55016666D02*
X75902200Y-55111904D01*
X75902200Y-55111904D02*
X75949819Y-55207142D01*
X75949819Y-55207142D02*
X75949819Y-55397618D01*
X75949819Y-54016666D02*
X75949819Y-54588094D01*
X75949819Y-54302380D02*
X74949819Y-54302380D01*
X74949819Y-54302380D02*
X75092676Y-54397618D01*
X75092676Y-54397618D02*
X75187914Y-54492856D01*
X75187914Y-54492856D02*
X75235533Y-54588094D01*
X74949819Y-53683332D02*
X74949819Y-53016666D01*
X74949819Y-53016666D02*
X75949819Y-53445237D01*
X67228333Y-47964819D02*
X66895000Y-47488628D01*
X66656905Y-47964819D02*
X66656905Y-46964819D01*
X66656905Y-46964819D02*
X67037857Y-46964819D01*
X67037857Y-46964819D02*
X67133095Y-47012438D01*
X67133095Y-47012438D02*
X67180714Y-47060057D01*
X67180714Y-47060057D02*
X67228333Y-47155295D01*
X67228333Y-47155295D02*
X67228333Y-47298152D01*
X67228333Y-47298152D02*
X67180714Y-47393390D01*
X67180714Y-47393390D02*
X67133095Y-47441009D01*
X67133095Y-47441009D02*
X67037857Y-47488628D01*
X67037857Y-47488628D02*
X66656905Y-47488628D01*
X68180714Y-47964819D02*
X67609286Y-47964819D01*
X67895000Y-47964819D02*
X67895000Y-46964819D01*
X67895000Y-46964819D02*
X67799762Y-47107676D01*
X67799762Y-47107676D02*
X67704524Y-47202914D01*
X67704524Y-47202914D02*
X67609286Y-47250533D01*
X160948095Y-75614819D02*
X160948095Y-74614819D01*
X160948095Y-75091009D02*
X161519523Y-75091009D01*
X161519523Y-75614819D02*
X161519523Y-74614819D01*
X162519523Y-75614819D02*
X161948095Y-75614819D01*
X162233809Y-75614819D02*
X162233809Y-74614819D01*
X162233809Y-74614819D02*
X162138571Y-74757676D01*
X162138571Y-74757676D02*
X162043333Y-74852914D01*
X162043333Y-74852914D02*
X161948095Y-74900533D01*
X68572142Y-94434819D02*
X68238809Y-93958628D01*
X68000714Y-94434819D02*
X68000714Y-93434819D01*
X68000714Y-93434819D02*
X68381666Y-93434819D01*
X68381666Y-93434819D02*
X68476904Y-93482438D01*
X68476904Y-93482438D02*
X68524523Y-93530057D01*
X68524523Y-93530057D02*
X68572142Y-93625295D01*
X68572142Y-93625295D02*
X68572142Y-93768152D01*
X68572142Y-93768152D02*
X68524523Y-93863390D01*
X68524523Y-93863390D02*
X68476904Y-93911009D01*
X68476904Y-93911009D02*
X68381666Y-93958628D01*
X68381666Y-93958628D02*
X68000714Y-93958628D01*
X69524523Y-94434819D02*
X68953095Y-94434819D01*
X69238809Y-94434819D02*
X69238809Y-93434819D01*
X69238809Y-93434819D02*
X69143571Y-93577676D01*
X69143571Y-93577676D02*
X69048333Y-93672914D01*
X69048333Y-93672914D02*
X68953095Y-93720533D01*
X69857857Y-93434819D02*
X70476904Y-93434819D01*
X70476904Y-93434819D02*
X70143571Y-93815771D01*
X70143571Y-93815771D02*
X70286428Y-93815771D01*
X70286428Y-93815771D02*
X70381666Y-93863390D01*
X70381666Y-93863390D02*
X70429285Y-93911009D01*
X70429285Y-93911009D02*
X70476904Y-94006247D01*
X70476904Y-94006247D02*
X70476904Y-94244342D01*
X70476904Y-94244342D02*
X70429285Y-94339580D01*
X70429285Y-94339580D02*
X70381666Y-94387200D01*
X70381666Y-94387200D02*
X70286428Y-94434819D01*
X70286428Y-94434819D02*
X70000714Y-94434819D01*
X70000714Y-94434819D02*
X69905476Y-94387200D01*
X69905476Y-94387200D02*
X69857857Y-94339580D01*
X107205057Y-96281428D02*
X107157438Y-96376666D01*
X107157438Y-96376666D02*
X107062200Y-96471904D01*
X107062200Y-96471904D02*
X106919342Y-96614761D01*
X106919342Y-96614761D02*
X106871723Y-96709999D01*
X106871723Y-96709999D02*
X106871723Y-96805237D01*
X107109819Y-96757618D02*
X107062200Y-96852856D01*
X107062200Y-96852856D02*
X106966961Y-96948094D01*
X106966961Y-96948094D02*
X106776485Y-96995713D01*
X106776485Y-96995713D02*
X106443152Y-96995713D01*
X106443152Y-96995713D02*
X106252676Y-96948094D01*
X106252676Y-96948094D02*
X106157438Y-96852856D01*
X106157438Y-96852856D02*
X106109819Y-96757618D01*
X106109819Y-96757618D02*
X106109819Y-96567142D01*
X106109819Y-96567142D02*
X106157438Y-96471904D01*
X106157438Y-96471904D02*
X106252676Y-96376666D01*
X106252676Y-96376666D02*
X106443152Y-96329047D01*
X106443152Y-96329047D02*
X106776485Y-96329047D01*
X106776485Y-96329047D02*
X106966961Y-96376666D01*
X106966961Y-96376666D02*
X107062200Y-96471904D01*
X107062200Y-96471904D02*
X107109819Y-96567142D01*
X107109819Y-96567142D02*
X107109819Y-96757618D01*
X106109819Y-95995713D02*
X106109819Y-95376666D01*
X106109819Y-95376666D02*
X106490771Y-95709999D01*
X106490771Y-95709999D02*
X106490771Y-95567142D01*
X106490771Y-95567142D02*
X106538390Y-95471904D01*
X106538390Y-95471904D02*
X106586009Y-95424285D01*
X106586009Y-95424285D02*
X106681247Y-95376666D01*
X106681247Y-95376666D02*
X106919342Y-95376666D01*
X106919342Y-95376666D02*
X107014580Y-95424285D01*
X107014580Y-95424285D02*
X107062200Y-95471904D01*
X107062200Y-95471904D02*
X107109819Y-95567142D01*
X107109819Y-95567142D02*
X107109819Y-95852856D01*
X107109819Y-95852856D02*
X107062200Y-95948094D01*
X107062200Y-95948094D02*
X107014580Y-95995713D01*
X106205057Y-94995713D02*
X106157438Y-94948094D01*
X106157438Y-94948094D02*
X106109819Y-94852856D01*
X106109819Y-94852856D02*
X106109819Y-94614761D01*
X106109819Y-94614761D02*
X106157438Y-94519523D01*
X106157438Y-94519523D02*
X106205057Y-94471904D01*
X106205057Y-94471904D02*
X106300295Y-94424285D01*
X106300295Y-94424285D02*
X106395533Y-94424285D01*
X106395533Y-94424285D02*
X106538390Y-94471904D01*
X106538390Y-94471904D02*
X107109819Y-95043332D01*
X107109819Y-95043332D02*
X107109819Y-94424285D01*
X66552142Y-69264819D02*
X66218809Y-68788628D01*
X65980714Y-69264819D02*
X65980714Y-68264819D01*
X65980714Y-68264819D02*
X66361666Y-68264819D01*
X66361666Y-68264819D02*
X66456904Y-68312438D01*
X66456904Y-68312438D02*
X66504523Y-68360057D01*
X66504523Y-68360057D02*
X66552142Y-68455295D01*
X66552142Y-68455295D02*
X66552142Y-68598152D01*
X66552142Y-68598152D02*
X66504523Y-68693390D01*
X66504523Y-68693390D02*
X66456904Y-68741009D01*
X66456904Y-68741009D02*
X66361666Y-68788628D01*
X66361666Y-68788628D02*
X65980714Y-68788628D01*
X67504523Y-69264819D02*
X66933095Y-69264819D01*
X67218809Y-69264819D02*
X67218809Y-68264819D01*
X67218809Y-68264819D02*
X67123571Y-68407676D01*
X67123571Y-68407676D02*
X67028333Y-68502914D01*
X67028333Y-68502914D02*
X66933095Y-68550533D01*
X68456904Y-69264819D02*
X67885476Y-69264819D01*
X68171190Y-69264819D02*
X68171190Y-68264819D01*
X68171190Y-68264819D02*
X68075952Y-68407676D01*
X68075952Y-68407676D02*
X67980714Y-68502914D01*
X67980714Y-68502914D02*
X67885476Y-68550533D01*
X67228333Y-52764819D02*
X66895000Y-52288628D01*
X66656905Y-52764819D02*
X66656905Y-51764819D01*
X66656905Y-51764819D02*
X67037857Y-51764819D01*
X67037857Y-51764819D02*
X67133095Y-51812438D01*
X67133095Y-51812438D02*
X67180714Y-51860057D01*
X67180714Y-51860057D02*
X67228333Y-51955295D01*
X67228333Y-51955295D02*
X67228333Y-52098152D01*
X67228333Y-52098152D02*
X67180714Y-52193390D01*
X67180714Y-52193390D02*
X67133095Y-52241009D01*
X67133095Y-52241009D02*
X67037857Y-52288628D01*
X67037857Y-52288628D02*
X66656905Y-52288628D01*
X67561667Y-51764819D02*
X68228333Y-51764819D01*
X68228333Y-51764819D02*
X67799762Y-52764819D01*
X63739819Y-104422857D02*
X63263628Y-104756190D01*
X63739819Y-104994285D02*
X62739819Y-104994285D01*
X62739819Y-104994285D02*
X62739819Y-104613333D01*
X62739819Y-104613333D02*
X62787438Y-104518095D01*
X62787438Y-104518095D02*
X62835057Y-104470476D01*
X62835057Y-104470476D02*
X62930295Y-104422857D01*
X62930295Y-104422857D02*
X63073152Y-104422857D01*
X63073152Y-104422857D02*
X63168390Y-104470476D01*
X63168390Y-104470476D02*
X63216009Y-104518095D01*
X63216009Y-104518095D02*
X63263628Y-104613333D01*
X63263628Y-104613333D02*
X63263628Y-104994285D01*
X63739819Y-103470476D02*
X63739819Y-104041904D01*
X63739819Y-103756190D02*
X62739819Y-103756190D01*
X62739819Y-103756190D02*
X62882676Y-103851428D01*
X62882676Y-103851428D02*
X62977914Y-103946666D01*
X62977914Y-103946666D02*
X63025533Y-104041904D01*
X62739819Y-102565714D02*
X62739819Y-103041904D01*
X62739819Y-103041904D02*
X63216009Y-103089523D01*
X63216009Y-103089523D02*
X63168390Y-103041904D01*
X63168390Y-103041904D02*
X63120771Y-102946666D01*
X63120771Y-102946666D02*
X63120771Y-102708571D01*
X63120771Y-102708571D02*
X63168390Y-102613333D01*
X63168390Y-102613333D02*
X63216009Y-102565714D01*
X63216009Y-102565714D02*
X63311247Y-102518095D01*
X63311247Y-102518095D02*
X63549342Y-102518095D01*
X63549342Y-102518095D02*
X63644580Y-102565714D01*
X63644580Y-102565714D02*
X63692200Y-102613333D01*
X63692200Y-102613333D02*
X63739819Y-102708571D01*
X63739819Y-102708571D02*
X63739819Y-102946666D01*
X63739819Y-102946666D02*
X63692200Y-103041904D01*
X63692200Y-103041904D02*
X63644580Y-103089523D01*
X69248333Y-62274819D02*
X68915000Y-61798628D01*
X68676905Y-62274819D02*
X68676905Y-61274819D01*
X68676905Y-61274819D02*
X69057857Y-61274819D01*
X69057857Y-61274819D02*
X69153095Y-61322438D01*
X69153095Y-61322438D02*
X69200714Y-61370057D01*
X69200714Y-61370057D02*
X69248333Y-61465295D01*
X69248333Y-61465295D02*
X69248333Y-61608152D01*
X69248333Y-61608152D02*
X69200714Y-61703390D01*
X69200714Y-61703390D02*
X69153095Y-61751009D01*
X69153095Y-61751009D02*
X69057857Y-61798628D01*
X69057857Y-61798628D02*
X68676905Y-61798628D01*
X69724524Y-62274819D02*
X69915000Y-62274819D01*
X69915000Y-62274819D02*
X70010238Y-62227200D01*
X70010238Y-62227200D02*
X70057857Y-62179580D01*
X70057857Y-62179580D02*
X70153095Y-62036723D01*
X70153095Y-62036723D02*
X70200714Y-61846247D01*
X70200714Y-61846247D02*
X70200714Y-61465295D01*
X70200714Y-61465295D02*
X70153095Y-61370057D01*
X70153095Y-61370057D02*
X70105476Y-61322438D01*
X70105476Y-61322438D02*
X70010238Y-61274819D01*
X70010238Y-61274819D02*
X69819762Y-61274819D01*
X69819762Y-61274819D02*
X69724524Y-61322438D01*
X69724524Y-61322438D02*
X69676905Y-61370057D01*
X69676905Y-61370057D02*
X69629286Y-61465295D01*
X69629286Y-61465295D02*
X69629286Y-61703390D01*
X69629286Y-61703390D02*
X69676905Y-61798628D01*
X69676905Y-61798628D02*
X69724524Y-61846247D01*
X69724524Y-61846247D02*
X69819762Y-61893866D01*
X69819762Y-61893866D02*
X70010238Y-61893866D01*
X70010238Y-61893866D02*
X70105476Y-61846247D01*
X70105476Y-61846247D02*
X70153095Y-61798628D01*
X70153095Y-61798628D02*
X70200714Y-61703390D01*
X67308333Y-42864819D02*
X66975000Y-42388628D01*
X66736905Y-42864819D02*
X66736905Y-41864819D01*
X66736905Y-41864819D02*
X67117857Y-41864819D01*
X67117857Y-41864819D02*
X67213095Y-41912438D01*
X67213095Y-41912438D02*
X67260714Y-41960057D01*
X67260714Y-41960057D02*
X67308333Y-42055295D01*
X67308333Y-42055295D02*
X67308333Y-42198152D01*
X67308333Y-42198152D02*
X67260714Y-42293390D01*
X67260714Y-42293390D02*
X67213095Y-42341009D01*
X67213095Y-42341009D02*
X67117857Y-42388628D01*
X67117857Y-42388628D02*
X66736905Y-42388628D01*
X67879762Y-42293390D02*
X67784524Y-42245771D01*
X67784524Y-42245771D02*
X67736905Y-42198152D01*
X67736905Y-42198152D02*
X67689286Y-42102914D01*
X67689286Y-42102914D02*
X67689286Y-42055295D01*
X67689286Y-42055295D02*
X67736905Y-41960057D01*
X67736905Y-41960057D02*
X67784524Y-41912438D01*
X67784524Y-41912438D02*
X67879762Y-41864819D01*
X67879762Y-41864819D02*
X68070238Y-41864819D01*
X68070238Y-41864819D02*
X68165476Y-41912438D01*
X68165476Y-41912438D02*
X68213095Y-41960057D01*
X68213095Y-41960057D02*
X68260714Y-42055295D01*
X68260714Y-42055295D02*
X68260714Y-42102914D01*
X68260714Y-42102914D02*
X68213095Y-42198152D01*
X68213095Y-42198152D02*
X68165476Y-42245771D01*
X68165476Y-42245771D02*
X68070238Y-42293390D01*
X68070238Y-42293390D02*
X67879762Y-42293390D01*
X67879762Y-42293390D02*
X67784524Y-42341009D01*
X67784524Y-42341009D02*
X67736905Y-42388628D01*
X67736905Y-42388628D02*
X67689286Y-42483866D01*
X67689286Y-42483866D02*
X67689286Y-42674342D01*
X67689286Y-42674342D02*
X67736905Y-42769580D01*
X67736905Y-42769580D02*
X67784524Y-42817200D01*
X67784524Y-42817200D02*
X67879762Y-42864819D01*
X67879762Y-42864819D02*
X68070238Y-42864819D01*
X68070238Y-42864819D02*
X68165476Y-42817200D01*
X68165476Y-42817200D02*
X68213095Y-42769580D01*
X68213095Y-42769580D02*
X68260714Y-42674342D01*
X68260714Y-42674342D02*
X68260714Y-42483866D01*
X68260714Y-42483866D02*
X68213095Y-42388628D01*
X68213095Y-42388628D02*
X68165476Y-42341009D01*
X68165476Y-42341009D02*
X68070238Y-42293390D01*
X97692142Y-87964819D02*
X97358809Y-87488628D01*
X97120714Y-87964819D02*
X97120714Y-86964819D01*
X97120714Y-86964819D02*
X97501666Y-86964819D01*
X97501666Y-86964819D02*
X97596904Y-87012438D01*
X97596904Y-87012438D02*
X97644523Y-87060057D01*
X97644523Y-87060057D02*
X97692142Y-87155295D01*
X97692142Y-87155295D02*
X97692142Y-87298152D01*
X97692142Y-87298152D02*
X97644523Y-87393390D01*
X97644523Y-87393390D02*
X97596904Y-87441009D01*
X97596904Y-87441009D02*
X97501666Y-87488628D01*
X97501666Y-87488628D02*
X97120714Y-87488628D01*
X98073095Y-87060057D02*
X98120714Y-87012438D01*
X98120714Y-87012438D02*
X98215952Y-86964819D01*
X98215952Y-86964819D02*
X98454047Y-86964819D01*
X98454047Y-86964819D02*
X98549285Y-87012438D01*
X98549285Y-87012438D02*
X98596904Y-87060057D01*
X98596904Y-87060057D02*
X98644523Y-87155295D01*
X98644523Y-87155295D02*
X98644523Y-87250533D01*
X98644523Y-87250533D02*
X98596904Y-87393390D01*
X98596904Y-87393390D02*
X98025476Y-87964819D01*
X98025476Y-87964819D02*
X98644523Y-87964819D01*
X99501666Y-86964819D02*
X99311190Y-86964819D01*
X99311190Y-86964819D02*
X99215952Y-87012438D01*
X99215952Y-87012438D02*
X99168333Y-87060057D01*
X99168333Y-87060057D02*
X99073095Y-87202914D01*
X99073095Y-87202914D02*
X99025476Y-87393390D01*
X99025476Y-87393390D02*
X99025476Y-87774342D01*
X99025476Y-87774342D02*
X99073095Y-87869580D01*
X99073095Y-87869580D02*
X99120714Y-87917200D01*
X99120714Y-87917200D02*
X99215952Y-87964819D01*
X99215952Y-87964819D02*
X99406428Y-87964819D01*
X99406428Y-87964819D02*
X99501666Y-87917200D01*
X99501666Y-87917200D02*
X99549285Y-87869580D01*
X99549285Y-87869580D02*
X99596904Y-87774342D01*
X99596904Y-87774342D02*
X99596904Y-87536247D01*
X99596904Y-87536247D02*
X99549285Y-87441009D01*
X99549285Y-87441009D02*
X99501666Y-87393390D01*
X99501666Y-87393390D02*
X99406428Y-87345771D01*
X99406428Y-87345771D02*
X99215952Y-87345771D01*
X99215952Y-87345771D02*
X99120714Y-87393390D01*
X99120714Y-87393390D02*
X99073095Y-87441009D01*
X99073095Y-87441009D02*
X99025476Y-87536247D01*
X103505057Y-51281428D02*
X103457438Y-51376666D01*
X103457438Y-51376666D02*
X103362200Y-51471904D01*
X103362200Y-51471904D02*
X103219342Y-51614761D01*
X103219342Y-51614761D02*
X103171723Y-51709999D01*
X103171723Y-51709999D02*
X103171723Y-51805237D01*
X103409819Y-51757618D02*
X103362200Y-51852856D01*
X103362200Y-51852856D02*
X103266961Y-51948094D01*
X103266961Y-51948094D02*
X103076485Y-51995713D01*
X103076485Y-51995713D02*
X102743152Y-51995713D01*
X102743152Y-51995713D02*
X102552676Y-51948094D01*
X102552676Y-51948094D02*
X102457438Y-51852856D01*
X102457438Y-51852856D02*
X102409819Y-51757618D01*
X102409819Y-51757618D02*
X102409819Y-51567142D01*
X102409819Y-51567142D02*
X102457438Y-51471904D01*
X102457438Y-51471904D02*
X102552676Y-51376666D01*
X102552676Y-51376666D02*
X102743152Y-51329047D01*
X102743152Y-51329047D02*
X103076485Y-51329047D01*
X103076485Y-51329047D02*
X103266961Y-51376666D01*
X103266961Y-51376666D02*
X103362200Y-51471904D01*
X103362200Y-51471904D02*
X103409819Y-51567142D01*
X103409819Y-51567142D02*
X103409819Y-51757618D01*
X102505057Y-50948094D02*
X102457438Y-50900475D01*
X102457438Y-50900475D02*
X102409819Y-50805237D01*
X102409819Y-50805237D02*
X102409819Y-50567142D01*
X102409819Y-50567142D02*
X102457438Y-50471904D01*
X102457438Y-50471904D02*
X102505057Y-50424285D01*
X102505057Y-50424285D02*
X102600295Y-50376666D01*
X102600295Y-50376666D02*
X102695533Y-50376666D01*
X102695533Y-50376666D02*
X102838390Y-50424285D01*
X102838390Y-50424285D02*
X103409819Y-50995713D01*
X103409819Y-50995713D02*
X103409819Y-50376666D01*
X102743152Y-49519523D02*
X103409819Y-49519523D01*
X102362200Y-49757618D02*
X103076485Y-49995713D01*
X103076485Y-49995713D02*
X103076485Y-49376666D01*
X75835057Y-88251428D02*
X75787438Y-88346666D01*
X75787438Y-88346666D02*
X75692200Y-88441904D01*
X75692200Y-88441904D02*
X75549342Y-88584761D01*
X75549342Y-88584761D02*
X75501723Y-88679999D01*
X75501723Y-88679999D02*
X75501723Y-88775237D01*
X75739819Y-88727618D02*
X75692200Y-88822856D01*
X75692200Y-88822856D02*
X75596961Y-88918094D01*
X75596961Y-88918094D02*
X75406485Y-88965713D01*
X75406485Y-88965713D02*
X75073152Y-88965713D01*
X75073152Y-88965713D02*
X74882676Y-88918094D01*
X74882676Y-88918094D02*
X74787438Y-88822856D01*
X74787438Y-88822856D02*
X74739819Y-88727618D01*
X74739819Y-88727618D02*
X74739819Y-88537142D01*
X74739819Y-88537142D02*
X74787438Y-88441904D01*
X74787438Y-88441904D02*
X74882676Y-88346666D01*
X74882676Y-88346666D02*
X75073152Y-88299047D01*
X75073152Y-88299047D02*
X75406485Y-88299047D01*
X75406485Y-88299047D02*
X75596961Y-88346666D01*
X75596961Y-88346666D02*
X75692200Y-88441904D01*
X75692200Y-88441904D02*
X75739819Y-88537142D01*
X75739819Y-88537142D02*
X75739819Y-88727618D01*
X74835057Y-87918094D02*
X74787438Y-87870475D01*
X74787438Y-87870475D02*
X74739819Y-87775237D01*
X74739819Y-87775237D02*
X74739819Y-87537142D01*
X74739819Y-87537142D02*
X74787438Y-87441904D01*
X74787438Y-87441904D02*
X74835057Y-87394285D01*
X74835057Y-87394285D02*
X74930295Y-87346666D01*
X74930295Y-87346666D02*
X75025533Y-87346666D01*
X75025533Y-87346666D02*
X75168390Y-87394285D01*
X75168390Y-87394285D02*
X75739819Y-87965713D01*
X75739819Y-87965713D02*
X75739819Y-87346666D01*
X74739819Y-87013332D02*
X74739819Y-86394285D01*
X74739819Y-86394285D02*
X75120771Y-86727618D01*
X75120771Y-86727618D02*
X75120771Y-86584761D01*
X75120771Y-86584761D02*
X75168390Y-86489523D01*
X75168390Y-86489523D02*
X75216009Y-86441904D01*
X75216009Y-86441904D02*
X75311247Y-86394285D01*
X75311247Y-86394285D02*
X75549342Y-86394285D01*
X75549342Y-86394285D02*
X75644580Y-86441904D01*
X75644580Y-86441904D02*
X75692200Y-86489523D01*
X75692200Y-86489523D02*
X75739819Y-86584761D01*
X75739819Y-86584761D02*
X75739819Y-86870475D01*
X75739819Y-86870475D02*
X75692200Y-86965713D01*
X75692200Y-86965713D02*
X75644580Y-87013332D01*
D11*
X58025000Y-43010000D02*
X58025000Y-42510000D01*
X58025000Y-43010000D02*
X57675000Y-43010000D01*
X58025000Y-37810000D02*
X58025000Y-38310000D01*
X58025000Y-37810000D02*
X57675000Y-37810000D01*
X48325000Y-43010000D02*
X48675000Y-43010000D01*
X48325000Y-43010000D02*
X48325000Y-42510000D01*
X48325000Y-37810000D02*
X48675000Y-37810000D01*
X48325000Y-37810000D02*
X48325000Y-38310000D01*
D12*
X145015000Y-72980000D02*
X144245000Y-72980000D01*
X144245000Y-74350000D02*
X144245000Y-71610000D01*
X144245000Y-71610000D02*
X137705000Y-71610000D01*
X137705000Y-74350000D02*
X144245000Y-74350000D01*
X137705000Y-71610000D02*
X137705000Y-74350000D01*
X136935000Y-72980000D02*
X137705000Y-72980000D01*
X98095000Y-55880000D02*
X97325000Y-55880000D01*
X97325000Y-57250000D02*
X97325000Y-54510000D01*
X97325000Y-54510000D02*
X90785000Y-54510000D01*
X90785000Y-57250000D02*
X97325000Y-57250000D01*
X90785000Y-54510000D02*
X90785000Y-57250000D01*
X90015000Y-55880000D02*
X90785000Y-55880000D01*
X112796741Y-91521875D02*
G75*
G02*
X108505000Y-90530000I-1841741J1811875D01*
G01*
X108505000Y-88930000D02*
G75*
G02*
X112782684Y-87901555I2450000J-780000D01*
G01*
X112805000Y-91510000D02*
X112805000Y-87910000D01*
X135155000Y-87235000D02*
X135155000Y-91876000D01*
X131886000Y-87235000D02*
X131886000Y-88745000D01*
X128185000Y-87235000D02*
X128185000Y-88745000D01*
X124915000Y-91876000D02*
X135155000Y-91876000D01*
X124915000Y-88745000D02*
X135155000Y-88745000D01*
X124915000Y-87235000D02*
X135155000Y-87235000D01*
X124915000Y-87235000D02*
X124915000Y-91876000D01*
X71915000Y-109090000D02*
X71915000Y-105670000D01*
X71735000Y-109090000D02*
X71915000Y-109090000D01*
X71735000Y-108970000D02*
X71915000Y-108970000D01*
X71735000Y-108850000D02*
X71915000Y-108850000D01*
X71683000Y-105670000D02*
X71915000Y-105670000D01*
X69395000Y-109090000D02*
X69575000Y-109090000D01*
X69395000Y-109090000D02*
X69395000Y-105670000D01*
X69395000Y-108970000D02*
X69575000Y-108970000D01*
X69395000Y-108850000D02*
X69575000Y-108850000D01*
X69395000Y-105670000D02*
X69627000Y-105670000D01*
X71235000Y-76080000D02*
X70465000Y-76080000D01*
X70465000Y-77450000D02*
X70465000Y-74710000D01*
X70465000Y-74710000D02*
X63925000Y-74710000D01*
X63925000Y-77450000D02*
X70465000Y-77450000D01*
X63925000Y-74710000D02*
X63925000Y-77450000D01*
X63155000Y-76080000D02*
X63925000Y-76080000D01*
X112796741Y-85461875D02*
G75*
G02*
X108505000Y-84470000I-1841741J1811875D01*
G01*
X108505000Y-82870000D02*
G75*
G02*
X112782684Y-81841555I2450000J-780000D01*
G01*
X112805000Y-85450000D02*
X112805000Y-81850000D01*
X109266741Y-45291875D02*
G75*
G02*
X104975000Y-44300000I-1841741J1811875D01*
G01*
X104975000Y-42700000D02*
G75*
G02*
X109252684Y-41671555I2450000J-780000D01*
G01*
X109275000Y-45280000D02*
X109275000Y-41680000D01*
X126595000Y-54480000D02*
X125825000Y-54480000D01*
X125825000Y-55850000D02*
X125825000Y-53110000D01*
X125825000Y-53110000D02*
X119285000Y-53110000D01*
X119285000Y-55850000D02*
X125825000Y-55850000D01*
X119285000Y-53110000D02*
X119285000Y-55850000D01*
X118515000Y-54480000D02*
X119285000Y-54480000D01*
X138975000Y-33810000D02*
X138205000Y-33810000D01*
X138205000Y-35180000D02*
X138205000Y-32440000D01*
X138205000Y-32440000D02*
X131665000Y-32440000D01*
X131665000Y-35180000D02*
X138205000Y-35180000D01*
X131665000Y-32440000D02*
X131665000Y-35180000D01*
X130895000Y-33810000D02*
X131665000Y-33810000D01*
D11*
X160235000Y-50210000D02*
X160235000Y-49710000D01*
X160235000Y-50210000D02*
X159735000Y-50210000D01*
X160235000Y-46210000D02*
X160235000Y-46710000D01*
X160235000Y-46210000D02*
X159735000Y-46210000D01*
X154835000Y-50210000D02*
X155335000Y-50210000D01*
X154835000Y-50210000D02*
X154835000Y-49710000D01*
X154835000Y-46210000D02*
X155335000Y-46210000D01*
X154835000Y-46210000D02*
X154835000Y-46710000D01*
D12*
X140675000Y-109940000D02*
X139795000Y-109940000D01*
X140235000Y-109330000D01*
X140675000Y-109940000D01*
G36*
X140675000Y-109940000D02*
G01*
X139795000Y-109940000D01*
X140235000Y-109330000D01*
X140675000Y-109940000D01*
G37*
X147195000Y-105410000D02*
G75*
G02*
X143275000Y-105410000I-1960000J0D01*
G01*
X143275000Y-105410000D02*
G75*
G02*
X147195000Y-105410000I1960000J0D01*
G01*
X142115000Y-104856000D02*
G75*
G02*
X142114861Y-105964472I-1880000J-554000D01*
G01*
X140789000Y-107290000D02*
G75*
G02*
X139680528Y-107289861I-554000J1879990D01*
G01*
X139681000Y-103530000D02*
G75*
G02*
X140789472Y-103530139I554000J-1880000D01*
G01*
X138355000Y-105964000D02*
G75*
G02*
X138355139Y-104855528I1879990J554000D01*
G01*
X147855000Y-101290000D02*
X147855000Y-109330000D01*
X147047000Y-105910000D02*
X147855000Y-105910000D01*
X147047000Y-104910000D02*
X147855000Y-104910000D01*
X146722000Y-104163000D02*
X146679000Y-104206000D01*
X146482000Y-103924000D02*
X146439000Y-103967000D01*
X145778000Y-107210000D02*
X147855000Y-107210000D01*
X144030000Y-106853000D02*
X143987000Y-106896000D01*
X143791000Y-106614000D02*
X143748000Y-106657000D01*
X142115000Y-107210000D02*
X144692000Y-107210000D01*
X142115000Y-105910000D02*
X143423000Y-105910000D01*
X142115000Y-104910000D02*
X143423000Y-104910000D01*
X140535000Y-109330000D02*
X147855000Y-109330000D01*
X137115000Y-109330000D02*
X139935000Y-109330000D01*
X137115000Y-107210000D02*
X138355000Y-107210000D01*
X137115000Y-105910000D02*
X138355000Y-105910000D01*
X137115000Y-104910000D02*
X138355000Y-104910000D01*
X137115000Y-101290000D02*
X147855000Y-101290000D01*
X137115000Y-101290000D02*
X137115000Y-109330000D01*
X157285000Y-85190000D02*
X157285000Y-78650000D01*
X157285000Y-78650000D02*
X154545000Y-78650000D01*
X155915000Y-85960000D02*
X155915000Y-85190000D01*
X155915000Y-77880000D02*
X155915000Y-78650000D01*
X154545000Y-85190000D02*
X157285000Y-85190000D01*
X154545000Y-78650000D02*
X154545000Y-85190000D01*
X136866741Y-57291875D02*
G75*
G02*
X132575000Y-56300000I-1841741J1811875D01*
G01*
X132575000Y-54700000D02*
G75*
G02*
X136852684Y-53671555I2450000J-780000D01*
G01*
X136875000Y-57280000D02*
X136875000Y-53680000D01*
X81626741Y-81991875D02*
G75*
G02*
X77335000Y-81000000I-1841741J1811875D01*
G01*
X77335000Y-79400000D02*
G75*
G02*
X81612684Y-78371555I2450000J-780000D01*
G01*
X81635000Y-81980000D02*
X81635000Y-78380000D01*
X136896741Y-43221875D02*
G75*
G02*
X132605000Y-42230000I-1841741J1811875D01*
G01*
X132605000Y-40630000D02*
G75*
G02*
X136882684Y-39601555I2450000J-780000D01*
G01*
X136905000Y-43210000D02*
X136905000Y-39610000D01*
X102375000Y-81280000D02*
X101605000Y-81280000D01*
X101605000Y-82650000D02*
X101605000Y-79910000D01*
X101605000Y-79910000D02*
X95065000Y-79910000D01*
X95065000Y-82650000D02*
X101605000Y-82650000D01*
X95065000Y-79910000D02*
X95065000Y-82650000D01*
X94295000Y-81280000D02*
X95065000Y-81280000D01*
X77125000Y-107050000D02*
X77125000Y-100510000D01*
X77125000Y-100510000D02*
X74385000Y-100510000D01*
X75755000Y-107820000D02*
X75755000Y-107050000D01*
X75755000Y-99740000D02*
X75755000Y-100510000D01*
X74385000Y-107050000D02*
X77125000Y-107050000D01*
X74385000Y-100510000D02*
X74385000Y-107050000D01*
X86945000Y-109638000D02*
X86945000Y-109870000D01*
X86945000Y-107350000D02*
X86945000Y-107582000D01*
X83765000Y-109690000D02*
X83765000Y-109870000D01*
X83765000Y-107350000D02*
X83765000Y-107530000D01*
X83645000Y-109690000D02*
X83645000Y-109870000D01*
X83645000Y-107350000D02*
X83645000Y-107530000D01*
X83525000Y-109870000D02*
X86945000Y-109870000D01*
X83525000Y-109690000D02*
X83525000Y-109870000D01*
X83525000Y-107350000D02*
X86945000Y-107350000D01*
X83525000Y-107350000D02*
X83525000Y-107530000D01*
X107565000Y-66380000D02*
X107425000Y-66380000D01*
X107425000Y-68350000D02*
X107425000Y-64410000D01*
X107425000Y-64410000D02*
X98285000Y-64410000D01*
X106090000Y-68350000D02*
X106090000Y-64410000D01*
X105970000Y-68350000D02*
X105970000Y-64410000D01*
X105850000Y-68350000D02*
X105850000Y-64410000D01*
X98285000Y-68350000D02*
X107425000Y-68350000D01*
X98285000Y-64410000D02*
X98285000Y-68350000D01*
X98145000Y-66380000D02*
X98285000Y-66380000D01*
X147435000Y-97090000D02*
X147435000Y-92449000D01*
X147435000Y-97090000D02*
X137195000Y-97090000D01*
X147435000Y-95580000D02*
X137195000Y-95580000D01*
X147435000Y-92449000D02*
X137195000Y-92449000D01*
X144165000Y-97090000D02*
X144165000Y-95580000D01*
X140464000Y-97090000D02*
X140464000Y-95580000D01*
X137195000Y-97090000D02*
X137195000Y-92449000D01*
D11*
X129010000Y-112060000D02*
X129010000Y-111160000D01*
X129010000Y-96835000D02*
X129010000Y-96060000D01*
X129010000Y-96060000D02*
X128585000Y-95610000D01*
X128585000Y-95610000D02*
X127285000Y-95610000D01*
X127935000Y-112060000D02*
X129010000Y-112060000D01*
X116610000Y-112060000D02*
X115760000Y-112060000D01*
X115760000Y-112060000D02*
X115760000Y-111410000D01*
X115760000Y-96385000D02*
X115760000Y-95610000D01*
X115760000Y-95610000D02*
X116510000Y-95610000D01*
D12*
X98195000Y-46680000D02*
X97425000Y-46680000D01*
X97425000Y-48050000D02*
X97425000Y-45310000D01*
X97425000Y-45310000D02*
X90885000Y-45310000D01*
X90885000Y-48050000D02*
X97425000Y-48050000D01*
X90885000Y-45310000D02*
X90885000Y-48050000D01*
X90115000Y-46680000D02*
X90885000Y-46680000D01*
X109196741Y-59421875D02*
G75*
G02*
X104905000Y-58430000I-1841741J1811875D01*
G01*
X104905000Y-56830000D02*
G75*
G02*
X109182684Y-55801555I2450000J-780000D01*
G01*
X109205000Y-59410000D02*
X109205000Y-55810000D01*
X98175000Y-41880000D02*
X97405000Y-41880000D01*
X97405000Y-43250000D02*
X97405000Y-40510000D01*
X97405000Y-40510000D02*
X90865000Y-40510000D01*
X90865000Y-43250000D02*
X97405000Y-43250000D01*
X90865000Y-40510000D02*
X90865000Y-43250000D01*
X90095000Y-41880000D02*
X90865000Y-41880000D01*
X81536741Y-63961875D02*
G75*
G02*
X77245000Y-62970000I-1841741J1811875D01*
G01*
X77245000Y-61370000D02*
G75*
G02*
X81522684Y-60341555I2450000J-780000D01*
G01*
X81545000Y-63950000D02*
X81545000Y-60350000D01*
X71435000Y-81180000D02*
X70665000Y-81180000D01*
X70665000Y-82550000D02*
X70665000Y-79810000D01*
X70665000Y-79810000D02*
X64125000Y-79810000D01*
X64125000Y-82550000D02*
X70665000Y-82550000D01*
X64125000Y-79810000D02*
X64125000Y-82550000D01*
X63355000Y-81180000D02*
X64125000Y-81180000D01*
D11*
X160235000Y-58010000D02*
X160235000Y-57510000D01*
X160235000Y-58010000D02*
X159735000Y-58010000D01*
X160235000Y-54010000D02*
X160235000Y-54510000D01*
X160235000Y-54010000D02*
X159735000Y-54010000D01*
X154835000Y-58010000D02*
X155335000Y-58010000D01*
X154835000Y-58010000D02*
X154835000Y-57510000D01*
X154835000Y-54010000D02*
X155335000Y-54010000D01*
X154835000Y-54010000D02*
X154835000Y-54510000D01*
D12*
X126265000Y-66180000D02*
X126125000Y-66180000D01*
X126125000Y-68150000D02*
X126125000Y-64210000D01*
X126125000Y-64210000D02*
X116985000Y-64210000D01*
X118560000Y-64210000D02*
X118560000Y-68150000D01*
X118440000Y-64210000D02*
X118440000Y-68150000D01*
X118320000Y-64210000D02*
X118320000Y-68150000D01*
X116985000Y-68150000D02*
X126125000Y-68150000D01*
X116985000Y-64210000D02*
X116985000Y-68150000D01*
X116845000Y-66180000D02*
X116985000Y-66180000D01*
X102395000Y-94280000D02*
X101625000Y-94280000D01*
X101625000Y-95650000D02*
X101625000Y-92910000D01*
X101625000Y-92910000D02*
X95085000Y-92910000D01*
X95085000Y-95650000D02*
X101625000Y-95650000D01*
X95085000Y-92910000D02*
X95085000Y-95650000D01*
X94315000Y-94280000D02*
X95085000Y-94280000D01*
X71435000Y-59580000D02*
X70665000Y-59580000D01*
X70665000Y-60950000D02*
X70665000Y-58210000D01*
X70665000Y-58210000D02*
X64125000Y-58210000D01*
X64125000Y-60950000D02*
X70665000Y-60950000D01*
X64125000Y-58210000D02*
X64125000Y-60950000D01*
X63355000Y-59580000D02*
X64125000Y-59580000D01*
X98195000Y-60380000D02*
X97425000Y-60380000D01*
X97425000Y-61750000D02*
X97425000Y-59010000D01*
X97425000Y-59010000D02*
X90885000Y-59010000D01*
X90885000Y-61750000D02*
X97425000Y-61750000D01*
X90885000Y-59010000D02*
X90885000Y-61750000D01*
X90115000Y-60380000D02*
X90885000Y-60380000D01*
X126675000Y-44680000D02*
X125905000Y-44680000D01*
X125905000Y-46050000D02*
X125905000Y-43310000D01*
X125905000Y-43310000D02*
X119365000Y-43310000D01*
X119365000Y-46050000D02*
X125905000Y-46050000D01*
X119365000Y-43310000D02*
X119365000Y-46050000D01*
X118595000Y-44680000D02*
X119365000Y-44680000D01*
X153946000Y-75600000D02*
X153946000Y-65360000D01*
X150815000Y-75600000D02*
X150815000Y-65360000D01*
X149305000Y-75600000D02*
X153946000Y-75600000D01*
X149305000Y-75600000D02*
X149305000Y-65360000D01*
X149305000Y-72330000D02*
X150815000Y-72330000D01*
X149305000Y-68629000D02*
X150815000Y-68629000D01*
X149305000Y-65360000D02*
X153946000Y-65360000D01*
X151045000Y-92050000D02*
X151045000Y-85510000D01*
X151045000Y-85510000D02*
X148305000Y-85510000D01*
X149675000Y-92820000D02*
X149675000Y-92050000D01*
X149675000Y-84740000D02*
X149675000Y-85510000D01*
X148305000Y-92050000D02*
X151045000Y-92050000D01*
X148305000Y-85510000D02*
X148305000Y-92050000D01*
X71255000Y-86380000D02*
X70485000Y-86380000D01*
X70485000Y-87750000D02*
X70485000Y-85010000D01*
X70485000Y-85010000D02*
X63945000Y-85010000D01*
X63945000Y-87750000D02*
X70485000Y-87750000D01*
X63945000Y-85010000D02*
X63945000Y-87750000D01*
X63175000Y-86380000D02*
X63945000Y-86380000D01*
X126575000Y-39480000D02*
X125805000Y-39480000D01*
X125805000Y-40850000D02*
X125805000Y-38110000D01*
X125805000Y-38110000D02*
X119265000Y-38110000D01*
X119265000Y-40850000D02*
X125805000Y-40850000D01*
X119265000Y-38110000D02*
X119265000Y-40850000D01*
X118495000Y-39480000D02*
X119265000Y-39480000D01*
X102395000Y-85380000D02*
X101625000Y-85380000D01*
X101625000Y-86750000D02*
X101625000Y-84010000D01*
X101625000Y-84010000D02*
X95085000Y-84010000D01*
X95085000Y-86750000D02*
X101625000Y-86750000D01*
X95085000Y-84010000D02*
X95085000Y-86750000D01*
X94315000Y-85380000D02*
X95085000Y-85380000D01*
X81626741Y-75391875D02*
G75*
G02*
X77335000Y-74400000I-1841741J1811875D01*
G01*
X77335000Y-72800000D02*
G75*
G02*
X81612684Y-71771555I2450000J-780000D01*
G01*
X81635000Y-75380000D02*
X81635000Y-71780000D01*
X145695000Y-38350000D02*
X145463000Y-38350000D01*
X145695000Y-35170000D02*
X145515000Y-35170000D01*
X145695000Y-35050000D02*
X145515000Y-35050000D01*
X145695000Y-34930000D02*
X145695000Y-38350000D01*
X145695000Y-34930000D02*
X145515000Y-34930000D01*
X143407000Y-38350000D02*
X143175000Y-38350000D01*
X143355000Y-35170000D02*
X143175000Y-35170000D01*
X143355000Y-35050000D02*
X143175000Y-35050000D01*
X143355000Y-34930000D02*
X143175000Y-34930000D01*
X143175000Y-34930000D02*
X143175000Y-38350000D01*
X136896741Y-50221875D02*
G75*
G02*
X132605000Y-49230000I-1841741J1811875D01*
G01*
X132605000Y-47630000D02*
G75*
G02*
X136882684Y-46601555I2450000J-780000D01*
G01*
X136905000Y-50210000D02*
X136905000Y-46610000D01*
X102395000Y-98380000D02*
X101625000Y-98380000D01*
X101625000Y-99750000D02*
X101625000Y-97010000D01*
X101625000Y-97010000D02*
X95085000Y-97010000D01*
X95085000Y-99750000D02*
X101625000Y-99750000D01*
X95085000Y-97010000D02*
X95085000Y-99750000D01*
X94315000Y-98380000D02*
X95085000Y-98380000D01*
X159075000Y-33910000D02*
X158305000Y-33910000D01*
X158305000Y-35280000D02*
X158305000Y-32540000D01*
X158305000Y-32540000D02*
X151765000Y-32540000D01*
X151765000Y-35280000D02*
X158305000Y-35280000D01*
X151765000Y-32540000D02*
X151765000Y-35280000D01*
X150995000Y-33910000D02*
X151765000Y-33910000D01*
X143745000Y-87950000D02*
X143745000Y-81410000D01*
X143745000Y-81410000D02*
X141005000Y-81410000D01*
X142375000Y-88720000D02*
X142375000Y-87950000D01*
X142375000Y-80640000D02*
X142375000Y-81410000D01*
X141005000Y-87950000D02*
X143745000Y-87950000D01*
X141005000Y-81410000D02*
X141005000Y-87950000D01*
X56460000Y-76870000D02*
X56460000Y-81090000D01*
X45540000Y-81090000D02*
X56460000Y-81090000D01*
X45540000Y-78170000D02*
X45540000Y-79790000D01*
X45540000Y-76870000D02*
X56460000Y-76870000D01*
X45540000Y-76870000D02*
X45540000Y-81090000D01*
X45300000Y-76630000D02*
X46683000Y-76630000D01*
X45300000Y-76630000D02*
X45300000Y-78013000D01*
X43680000Y-79790000D02*
X45540000Y-79790000D01*
X43680000Y-78170000D02*
X45540000Y-78170000D01*
X43680000Y-78170000D02*
X43680000Y-79790000D01*
X145595000Y-45020000D02*
X145363000Y-45020000D01*
X145595000Y-41840000D02*
X145415000Y-41840000D01*
X145595000Y-41720000D02*
X145415000Y-41720000D01*
X145595000Y-41600000D02*
X145595000Y-45020000D01*
X145595000Y-41600000D02*
X145415000Y-41600000D01*
X143307000Y-45020000D02*
X143075000Y-45020000D01*
X143255000Y-41840000D02*
X143075000Y-41840000D01*
X143255000Y-41720000D02*
X143075000Y-41720000D01*
X143255000Y-41600000D02*
X143075000Y-41600000D01*
X143075000Y-41600000D02*
X143075000Y-45020000D01*
X81685000Y-107030000D02*
X81685000Y-100490000D01*
X81685000Y-100490000D02*
X78945000Y-100490000D01*
X80315000Y-107800000D02*
X80315000Y-107030000D01*
X80315000Y-99720000D02*
X80315000Y-100490000D01*
X78945000Y-107030000D02*
X81685000Y-107030000D01*
X78945000Y-100490000D02*
X78945000Y-107030000D01*
X126695000Y-49580000D02*
X125925000Y-49580000D01*
X125925000Y-50950000D02*
X125925000Y-48210000D01*
X125925000Y-48210000D02*
X119385000Y-48210000D01*
X119385000Y-50950000D02*
X125925000Y-50950000D01*
X119385000Y-48210000D02*
X119385000Y-50950000D01*
X118615000Y-49580000D02*
X119385000Y-49580000D01*
X61895000Y-109840000D02*
X61895000Y-109660000D01*
X61895000Y-109840000D02*
X58475000Y-109840000D01*
X61895000Y-107500000D02*
X61895000Y-107320000D01*
X61895000Y-107320000D02*
X58475000Y-107320000D01*
X61775000Y-109840000D02*
X61775000Y-109660000D01*
X61775000Y-107500000D02*
X61775000Y-107320000D01*
X61655000Y-109840000D02*
X61655000Y-109660000D01*
X61655000Y-107500000D02*
X61655000Y-107320000D01*
X58475000Y-109840000D02*
X58475000Y-109608000D01*
X58475000Y-107552000D02*
X58475000Y-107320000D01*
X126595000Y-58880000D02*
X125825000Y-58880000D01*
X125825000Y-60250000D02*
X125825000Y-57510000D01*
X125825000Y-57510000D02*
X119285000Y-57510000D01*
X119285000Y-60250000D02*
X125825000Y-60250000D01*
X119285000Y-57510000D02*
X119285000Y-60250000D01*
X118515000Y-58880000D02*
X119285000Y-58880000D01*
X81906741Y-48131875D02*
G75*
G02*
X77615000Y-47140000I-1841741J1811875D01*
G01*
X77615000Y-45540000D02*
G75*
G02*
X81892684Y-44511555I2450000J-780000D01*
G01*
X81915000Y-48120000D02*
X81915000Y-44520000D01*
D11*
X49585000Y-96260000D02*
X49585000Y-95760000D01*
X49585000Y-96260000D02*
X49085000Y-96260000D01*
X49585000Y-87060000D02*
X49585000Y-87560000D01*
X49585000Y-87060000D02*
X49085000Y-87060000D01*
X43985000Y-92860000D02*
X43985000Y-90460000D01*
X42285000Y-96260000D02*
X41285000Y-96260000D01*
X42285000Y-87060000D02*
X41285000Y-87060000D01*
X34985000Y-96260000D02*
X35485000Y-96260000D01*
X34985000Y-96260000D02*
X34985000Y-95760000D01*
X34985000Y-87060000D02*
X35485000Y-87060000D01*
X34985000Y-87060000D02*
X34985000Y-87560000D01*
D12*
X98195000Y-51080000D02*
X97425000Y-51080000D01*
X97425000Y-52450000D02*
X97425000Y-49710000D01*
X97425000Y-49710000D02*
X90885000Y-49710000D01*
X90885000Y-52450000D02*
X97425000Y-52450000D01*
X90885000Y-49710000D02*
X90885000Y-52450000D01*
X90115000Y-51080000D02*
X90885000Y-51080000D01*
X81736741Y-56161875D02*
G75*
G02*
X77445000Y-55170000I-1841741J1811875D01*
G01*
X77445000Y-53570000D02*
G75*
G02*
X81722684Y-52541555I2450000J-780000D01*
G01*
X81745000Y-56150000D02*
X81745000Y-52550000D01*
X71435000Y-49880000D02*
X70665000Y-49880000D01*
X70665000Y-51250000D02*
X70665000Y-48510000D01*
X70665000Y-48510000D02*
X64125000Y-48510000D01*
X64125000Y-51250000D02*
X70665000Y-51250000D01*
X64125000Y-48510000D02*
X64125000Y-51250000D01*
X63355000Y-49880000D02*
X64125000Y-49880000D01*
X71255000Y-91080000D02*
X70485000Y-91080000D01*
X70485000Y-92450000D02*
X70485000Y-89710000D01*
X70485000Y-89710000D02*
X63945000Y-89710000D01*
X63945000Y-92450000D02*
X70485000Y-92450000D01*
X63945000Y-89710000D02*
X63945000Y-92450000D01*
X63175000Y-91080000D02*
X63945000Y-91080000D01*
X112896741Y-97521875D02*
G75*
G02*
X108605000Y-96530000I-1841741J1811875D01*
G01*
X108605000Y-94930000D02*
G75*
G02*
X112882684Y-93901555I2450000J-780000D01*
G01*
X112905000Y-97510000D02*
X112905000Y-93910000D01*
X71235000Y-71180000D02*
X70465000Y-71180000D01*
X70465000Y-72550000D02*
X70465000Y-69810000D01*
X70465000Y-69810000D02*
X63925000Y-69810000D01*
X63925000Y-72550000D02*
X70465000Y-72550000D01*
X63925000Y-69810000D02*
X63925000Y-72550000D01*
X63155000Y-71180000D02*
X63925000Y-71180000D01*
X71435000Y-54680000D02*
X70665000Y-54680000D01*
X70665000Y-56050000D02*
X70665000Y-53310000D01*
X70665000Y-53310000D02*
X64125000Y-53310000D01*
X64125000Y-56050000D02*
X70665000Y-56050000D01*
X64125000Y-53310000D02*
X64125000Y-56050000D01*
X63355000Y-54680000D02*
X64125000Y-54680000D01*
X67025000Y-107050000D02*
X67025000Y-100510000D01*
X67025000Y-100510000D02*
X64285000Y-100510000D01*
X65655000Y-107820000D02*
X65655000Y-107050000D01*
X65655000Y-99740000D02*
X65655000Y-100510000D01*
X64285000Y-107050000D02*
X67025000Y-107050000D01*
X64285000Y-100510000D02*
X64285000Y-107050000D01*
X71335000Y-64080000D02*
X70565000Y-64080000D01*
X70565000Y-65450000D02*
X70565000Y-62710000D01*
X70565000Y-62710000D02*
X64025000Y-62710000D01*
X64025000Y-65450000D02*
X70565000Y-65450000D01*
X64025000Y-62710000D02*
X64025000Y-65450000D01*
X63255000Y-64080000D02*
X64025000Y-64080000D01*
X71515000Y-44780000D02*
X70745000Y-44780000D01*
X70745000Y-46150000D02*
X70745000Y-43410000D01*
X70745000Y-43410000D02*
X64205000Y-43410000D01*
X64205000Y-46150000D02*
X70745000Y-46150000D01*
X64205000Y-43410000D02*
X64205000Y-46150000D01*
X63435000Y-44780000D02*
X64205000Y-44780000D01*
X102375000Y-89880000D02*
X101605000Y-89880000D01*
X101605000Y-91250000D02*
X101605000Y-88510000D01*
X101605000Y-88510000D02*
X95065000Y-88510000D01*
X95065000Y-91250000D02*
X101605000Y-91250000D01*
X95065000Y-88510000D02*
X95065000Y-91250000D01*
X94295000Y-89880000D02*
X95065000Y-89880000D01*
X109196741Y-52521875D02*
G75*
G02*
X104905000Y-51530000I-1841741J1811875D01*
G01*
X104905000Y-49930000D02*
G75*
G02*
X109182684Y-48901555I2450000J-780000D01*
G01*
X109205000Y-52510000D02*
X109205000Y-48910000D01*
X81526741Y-89491875D02*
G75*
G02*
X77235000Y-88500000I-1841741J1811875D01*
G01*
X77235000Y-86900000D02*
G75*
G02*
X81512684Y-85871555I2450000J-780000D01*
G01*
X81535000Y-89480000D02*
X81535000Y-85880000D01*
%LPC*%
D13*
X42435000Y-71760000D03*
X166360000Y-34610000D03*
D14*
X50635000Y-40410000D03*
X53175000Y-40410000D03*
D15*
X55715000Y-40410000D03*
D13*
X41735000Y-34610000D03*
D16*
X135895000Y-72980000D03*
D17*
X146055000Y-72980000D03*
D16*
X99135000Y-55880000D03*
D17*
X88975000Y-55880000D03*
D18*
X111355000Y-88440000D03*
X109285000Y-89710000D03*
D19*
X111355000Y-90980000D03*
D20*
X132575000Y-90505000D03*
X130035000Y-90505000D03*
D21*
X127495000Y-90505000D03*
D22*
X70655000Y-106110000D03*
D23*
X70655000Y-108650000D03*
D16*
X72275000Y-76080000D03*
D17*
X62115000Y-76080000D03*
D18*
X111355000Y-82380000D03*
X109285000Y-83650000D03*
D19*
X111355000Y-84920000D03*
D18*
X107825000Y-42210000D03*
X105755000Y-43480000D03*
D19*
X107825000Y-44750000D03*
D16*
X127635000Y-54480000D03*
D17*
X117475000Y-54480000D03*
D16*
X129855000Y-33810000D03*
D17*
X140015000Y-33810000D03*
D24*
X160075000Y-48210000D03*
X154995000Y-48210000D03*
D25*
X145235000Y-105410000D03*
D26*
X140235000Y-105410000D03*
D16*
X155915000Y-87000000D03*
D17*
X155915000Y-76840000D03*
D18*
X135425000Y-54210000D03*
X133355000Y-55480000D03*
D19*
X135425000Y-56750000D03*
D18*
X80185000Y-78910000D03*
X78115000Y-80180000D03*
D19*
X80185000Y-81450000D03*
D18*
X135455000Y-40140000D03*
X133385000Y-41410000D03*
D19*
X135455000Y-42680000D03*
D16*
X103415000Y-81280000D03*
D17*
X93255000Y-81280000D03*
D16*
X75755000Y-98700000D03*
D17*
X75755000Y-108860000D03*
D22*
X86505000Y-108610000D03*
D23*
X83965000Y-108610000D03*
D27*
X96505000Y-66380000D03*
D28*
X109205000Y-66380000D03*
D20*
X139775000Y-93820000D03*
X142315000Y-93820000D03*
D21*
X144855000Y-93820000D03*
D29*
X117185000Y-105735000D03*
X127585000Y-105735000D03*
D14*
X118635000Y-97410000D03*
X122385000Y-97410000D03*
D15*
X126135000Y-97410000D03*
D16*
X99235000Y-46680000D03*
D17*
X89075000Y-46680000D03*
D18*
X107755000Y-56340000D03*
X105685000Y-57610000D03*
D19*
X107755000Y-58880000D03*
D16*
X99215000Y-41880000D03*
D17*
X89055000Y-41880000D03*
D18*
X80095000Y-60880000D03*
X78025000Y-62150000D03*
D19*
X80095000Y-63420000D03*
D16*
X72475000Y-81180000D03*
D17*
X62315000Y-81180000D03*
D24*
X160075000Y-56010000D03*
X154995000Y-56010000D03*
D27*
X127905000Y-66180000D03*
D28*
X115205000Y-66180000D03*
D16*
X103435000Y-94280000D03*
D17*
X93275000Y-94280000D03*
D16*
X72475000Y-59580000D03*
D17*
X62315000Y-59580000D03*
D16*
X99235000Y-60380000D03*
D17*
X89075000Y-60380000D03*
D16*
X127715000Y-44680000D03*
D17*
X117555000Y-44680000D03*
D30*
X152575000Y-67940000D03*
X152575000Y-70480000D03*
D31*
X152575000Y-73020000D03*
D16*
X149675000Y-83700000D03*
D17*
X149675000Y-93860000D03*
D16*
X72295000Y-86380000D03*
D17*
X62135000Y-86380000D03*
D16*
X127615000Y-39480000D03*
D17*
X117455000Y-39480000D03*
D16*
X103435000Y-85380000D03*
D17*
X93275000Y-85380000D03*
D18*
X80185000Y-72310000D03*
X78115000Y-73580000D03*
D19*
X80185000Y-74850000D03*
D22*
X144435000Y-37910000D03*
D23*
X144435000Y-35370000D03*
D18*
X135455000Y-47140000D03*
X133385000Y-48410000D03*
D19*
X135455000Y-49680000D03*
D16*
X103435000Y-98380000D03*
D17*
X93275000Y-98380000D03*
D16*
X160115000Y-33910000D03*
D17*
X149955000Y-33910000D03*
D13*
X41735000Y-108860000D03*
D16*
X142375000Y-89760000D03*
D17*
X142375000Y-79600000D03*
D13*
X166435000Y-108860000D03*
D16*
X54810000Y-78980000D03*
D32*
X47190000Y-78980000D03*
D22*
X144335000Y-44580000D03*
D23*
X144335000Y-42040000D03*
D16*
X80315000Y-98680000D03*
D17*
X80315000Y-108840000D03*
D16*
X127735000Y-49580000D03*
D17*
X117575000Y-49580000D03*
D22*
X58915000Y-108580000D03*
D23*
X61455000Y-108580000D03*
D16*
X127635000Y-58880000D03*
D17*
X117475000Y-58880000D03*
D18*
X80465000Y-45050000D03*
X78395000Y-46320000D03*
D19*
X80465000Y-47590000D03*
D33*
X45785000Y-96360000D03*
D34*
X42785000Y-91660000D03*
X48785000Y-91660000D03*
D16*
X99235000Y-51080000D03*
D17*
X89075000Y-51080000D03*
D18*
X80295000Y-53080000D03*
X78225000Y-54350000D03*
D19*
X80295000Y-55620000D03*
D16*
X72475000Y-49880000D03*
D17*
X62315000Y-49880000D03*
D13*
X165510000Y-71710000D03*
D16*
X72295000Y-91080000D03*
D17*
X62135000Y-91080000D03*
D18*
X111455000Y-94440000D03*
X109385000Y-95710000D03*
D19*
X111455000Y-96980000D03*
D16*
X72275000Y-71180000D03*
D17*
X62115000Y-71180000D03*
D16*
X72475000Y-54680000D03*
D17*
X62315000Y-54680000D03*
D16*
X65655000Y-98700000D03*
D17*
X65655000Y-108860000D03*
D16*
X72375000Y-64080000D03*
D17*
X62215000Y-64080000D03*
D16*
X72555000Y-44780000D03*
D17*
X62395000Y-44780000D03*
D16*
X103415000Y-89880000D03*
D17*
X93255000Y-89880000D03*
D18*
X107755000Y-49440000D03*
X105685000Y-50710000D03*
D19*
X107755000Y-51980000D03*
D18*
X80085000Y-86410000D03*
X78015000Y-87680000D03*
D19*
X80085000Y-88950000D03*
D35*
X87555000Y-92980000D03*
X90655000Y-72680000D03*
X112955000Y-56580000D03*
X57955000Y-68080000D03*
X57955000Y-95580000D03*
X115855000Y-77480000D03*
X154455000Y-90580000D03*
X116155000Y-92380000D03*
X46455000Y-102680000D03*
X83555000Y-58480000D03*
X49755000Y-105480000D03*
X111755000Y-50480000D03*
X151635000Y-53110000D03*
X153055000Y-107780000D03*
X76955000Y-41280000D03*
X86655000Y-99980000D03*
X83655000Y-73480000D03*
X149735000Y-49010000D03*
X139455000Y-51680000D03*
X61555000Y-99680000D03*
X112555000Y-45580000D03*
X50955000Y-102480000D03*
X82555000Y-84380000D03*
X152685000Y-61560000D03*
X138855000Y-37180000D03*
X154955000Y-101580000D03*
X158055000Y-103380000D03*
X54855000Y-103180000D03*
X87555000Y-79980000D03*
X53655000Y-62380000D03*
X54755000Y-87680000D03*
X142135000Y-60210000D03*
X127835000Y-83610000D03*
X117735000Y-62380000D03*
X140135000Y-42910000D03*
X79655000Y-38680000D03*
X86355000Y-44980000D03*
X108555000Y-35380000D03*
X113055000Y-42080000D03*
X133835000Y-79110000D03*
X145935000Y-67010000D03*
%LPD*%
M02*
