%TF.GenerationSoftware,KiCad,Pcbnew,8.0.8*%
%TF.CreationDate,2025-08-20T08:11:04-04:00*%
%TF.ProjectId,multimeter,6d756c74-696d-4657-9465-722e6b696361,rev?*%
%TF.SameCoordinates,Original*%
%TF.FileFunction,Drillmap*%
%TF.FilePolarity,Positive*%
%FSLAX45Y45*%
G04 Gerber Fmt 4.5, Leading zero omitted, Abs format (unit mm)*
G04 Created by KiCad (PCBNEW 8.0.8) date 2025-08-20 08:11:04*
%MOMM*%
%LPD*%
G01*
G04 APERTURE LIST*
%ADD10C,0.050000*%
%ADD11C,0.200000*%
%ADD12C,0.100000*%
%ADD13C,0.110000*%
%ADD14C,0.130000*%
%ADD15C,0.132080*%
%ADD16C,0.140000*%
%ADD17C,0.180000*%
G04 APERTURE END LIST*
D10*
X3824000Y-3107000D02*
X16994000Y-3107000D01*
X16994000Y-11237500D01*
X3824000Y-11237500D01*
X3824000Y-3107000D01*
D11*
D12*
X7804000Y-8730500D02*
X7879000Y-8805500D01*
X7879000Y-8730500D02*
X7804000Y-8805500D01*
X7805000Y-6177500D02*
X7880000Y-6252500D01*
X7880000Y-6177500D02*
X7805000Y-6252500D01*
X7814000Y-7320500D02*
X7889000Y-7395500D01*
X7889000Y-7320500D02*
X7814000Y-7395500D01*
X7814000Y-7980500D02*
X7889000Y-8055500D01*
X7889000Y-7980500D02*
X7814000Y-8055500D01*
X7825000Y-5397500D02*
X7900000Y-5472500D01*
X7900000Y-5397500D02*
X7825000Y-5472500D01*
X7842000Y-4594500D02*
X7917000Y-4669500D01*
X7917000Y-4594500D02*
X7842000Y-4669500D01*
X7931000Y-8603500D02*
X8006000Y-8678500D01*
X8006000Y-8603500D02*
X7931000Y-8678500D01*
X7931000Y-8857500D02*
X8006000Y-8932500D01*
X8006000Y-8857500D02*
X7931000Y-8932500D01*
X7932000Y-6050500D02*
X8007000Y-6125500D01*
X8007000Y-6050500D02*
X7932000Y-6125500D01*
X7932000Y-6304500D02*
X8007000Y-6379500D01*
X8007000Y-6304500D02*
X7932000Y-6379500D01*
X7941000Y-7193500D02*
X8016000Y-7268500D01*
X8016000Y-7193500D02*
X7941000Y-7268500D01*
X7941000Y-7447500D02*
X8016000Y-7522500D01*
X8016000Y-7447500D02*
X7941000Y-7522500D01*
X7941000Y-7853500D02*
X8016000Y-7928500D01*
X8016000Y-7853500D02*
X7941000Y-7928500D01*
X7941000Y-8107500D02*
X8016000Y-8182500D01*
X8016000Y-8107500D02*
X7941000Y-8182500D01*
X7952000Y-5270500D02*
X8027000Y-5345500D01*
X8027000Y-5270500D02*
X7952000Y-5345500D01*
X7952000Y-5524500D02*
X8027000Y-5599500D01*
X8027000Y-5524500D02*
X7952000Y-5599500D01*
X7969000Y-4467500D02*
X8044000Y-4542500D01*
X8044000Y-4467500D02*
X7969000Y-4542500D01*
X7969000Y-4721500D02*
X8044000Y-4796500D01*
X8044000Y-4721500D02*
X7969000Y-4796500D01*
X10571000Y-5033500D02*
X10646000Y-5108500D01*
X10646000Y-5033500D02*
X10571000Y-5108500D01*
X10571000Y-5723500D02*
X10646000Y-5798500D01*
X10646000Y-5723500D02*
X10571000Y-5798500D01*
X10578000Y-4310500D02*
X10653000Y-4385500D01*
X10653000Y-4310500D02*
X10578000Y-4385500D01*
X10698000Y-4906500D02*
X10773000Y-4981500D01*
X10773000Y-4906500D02*
X10698000Y-4981500D01*
X10698000Y-5160500D02*
X10773000Y-5235500D01*
X10773000Y-5160500D02*
X10698000Y-5235500D01*
X10698000Y-5596500D02*
X10773000Y-5671500D01*
X10773000Y-5596500D02*
X10698000Y-5671500D01*
X10698000Y-5850500D02*
X10773000Y-5925500D01*
X10773000Y-5850500D02*
X10698000Y-5925500D01*
X10705000Y-4183500D02*
X10780000Y-4258500D01*
X10780000Y-4183500D02*
X10705000Y-4258500D01*
X10705000Y-4437500D02*
X10780000Y-4512500D01*
X10780000Y-4437500D02*
X10705000Y-4512500D01*
X10931000Y-8327500D02*
X11006000Y-8402500D01*
X11006000Y-8327500D02*
X10931000Y-8402500D01*
X10931000Y-8933500D02*
X11006000Y-9008500D01*
X11006000Y-8933500D02*
X10931000Y-9008500D01*
X10941000Y-9533500D02*
X11016000Y-9608500D01*
X11016000Y-9533500D02*
X10941000Y-9608500D01*
X11058000Y-8200500D02*
X11133000Y-8275500D01*
X11133000Y-8200500D02*
X11058000Y-8275500D01*
X11058000Y-8454500D02*
X11133000Y-8529500D01*
X11133000Y-8454500D02*
X11058000Y-8529500D01*
X11058000Y-8806500D02*
X11133000Y-8881500D01*
X11133000Y-8806500D02*
X11058000Y-8881500D01*
X11058000Y-9060500D02*
X11133000Y-9135500D01*
X11133000Y-9060500D02*
X11058000Y-9135500D01*
X11068000Y-9406500D02*
X11143000Y-9481500D01*
X11143000Y-9406500D02*
X11068000Y-9481500D01*
X11068000Y-9660500D02*
X11143000Y-9735500D01*
X11143000Y-9660500D02*
X11068000Y-9735500D01*
X13338000Y-5510500D02*
X13413000Y-5585500D01*
X13413000Y-5510500D02*
X13338000Y-5585500D01*
X13341000Y-4103500D02*
X13416000Y-4178500D01*
X13416000Y-4103500D02*
X13341000Y-4178500D01*
X13341000Y-4803500D02*
X13416000Y-4878500D01*
X13416000Y-4803500D02*
X13341000Y-4878500D01*
X13465000Y-5383500D02*
X13540000Y-5458500D01*
X13540000Y-5383500D02*
X13465000Y-5458500D01*
X13465000Y-5637500D02*
X13540000Y-5712500D01*
X13540000Y-5637500D02*
X13465000Y-5712500D01*
X13468000Y-3976500D02*
X13543000Y-4051500D01*
X13543000Y-3976500D02*
X13468000Y-4051500D01*
X13468000Y-4230500D02*
X13543000Y-4305500D01*
X13543000Y-4230500D02*
X13468000Y-4305500D01*
X13468000Y-4676500D02*
X13543000Y-4751500D01*
X13543000Y-4676500D02*
X13468000Y-4751500D01*
X13468000Y-4930500D02*
X13543000Y-5005500D01*
X13543000Y-4930500D02*
X13468000Y-5005500D01*
X4759000Y-7898000D02*
G75*
G02*
X4679000Y-7898000I-40000J0D01*
G01*
X4679000Y-7898000D02*
G75*
G02*
X4759000Y-7898000I40000J0D01*
G01*
X5521000Y-7898000D02*
G75*
G02*
X5441000Y-7898000I-40000J0D01*
G01*
X5441000Y-7898000D02*
G75*
G02*
X5521000Y-7898000I40000J0D01*
G01*
X6251500Y-7118000D02*
G75*
G02*
X6171500Y-7118000I-40000J0D01*
G01*
X6171500Y-7118000D02*
G75*
G02*
X6251500Y-7118000I40000J0D01*
G01*
X6251500Y-7608000D02*
G75*
G02*
X6171500Y-7608000I-40000J0D01*
G01*
X6171500Y-7608000D02*
G75*
G02*
X6251500Y-7608000I40000J0D01*
G01*
X6253500Y-8638000D02*
G75*
G02*
X6173500Y-8638000I-40000J0D01*
G01*
X6173500Y-8638000D02*
G75*
G02*
X6253500Y-8638000I40000J0D01*
G01*
X6253500Y-9108000D02*
G75*
G02*
X6173500Y-9108000I-40000J0D01*
G01*
X6173500Y-9108000D02*
G75*
G02*
X6253500Y-9108000I40000J0D01*
G01*
X6261500Y-6408000D02*
G75*
G02*
X6181500Y-6408000I-40000J0D01*
G01*
X6181500Y-6408000D02*
G75*
G02*
X6261500Y-6408000I40000J0D01*
G01*
X6271500Y-4988000D02*
G75*
G02*
X6191500Y-4988000I-40000J0D01*
G01*
X6191500Y-4988000D02*
G75*
G02*
X6271500Y-4988000I40000J0D01*
G01*
X6271500Y-5468000D02*
G75*
G02*
X6191500Y-5468000I-40000J0D01*
G01*
X6191500Y-5468000D02*
G75*
G02*
X6271500Y-5468000I40000J0D01*
G01*
X6271500Y-5958000D02*
G75*
G02*
X6191500Y-5958000I-40000J0D01*
G01*
X6191500Y-5958000D02*
G75*
G02*
X6271500Y-5958000I40000J0D01*
G01*
X6271500Y-8118000D02*
G75*
G02*
X6191500Y-8118000I-40000J0D01*
G01*
X6191500Y-8118000D02*
G75*
G02*
X6271500Y-8118000I40000J0D01*
G01*
X6279500Y-4478000D02*
G75*
G02*
X6199500Y-4478000I-40000J0D01*
G01*
X6199500Y-4478000D02*
G75*
G02*
X6279500Y-4478000I40000J0D01*
G01*
X6605500Y-9870000D02*
G75*
G02*
X6525500Y-9870000I-40000J0D01*
G01*
X6525500Y-9870000D02*
G75*
G02*
X6605500Y-9870000I40000J0D01*
G01*
X6605500Y-10886000D02*
G75*
G02*
X6525500Y-10886000I-40000J0D01*
G01*
X6525500Y-10886000D02*
G75*
G02*
X6605500Y-10886000I40000J0D01*
G01*
X7267500Y-7118000D02*
G75*
G02*
X7187500Y-7118000I-40000J0D01*
G01*
X7187500Y-7118000D02*
G75*
G02*
X7267500Y-7118000I40000J0D01*
G01*
X7267500Y-7608000D02*
G75*
G02*
X7187500Y-7608000I-40000J0D01*
G01*
X7187500Y-7608000D02*
G75*
G02*
X7267500Y-7608000I40000J0D01*
G01*
X7269500Y-8638000D02*
G75*
G02*
X7189500Y-8638000I-40000J0D01*
G01*
X7189500Y-8638000D02*
G75*
G02*
X7269500Y-8638000I40000J0D01*
G01*
X7269500Y-9108000D02*
G75*
G02*
X7189500Y-9108000I-40000J0D01*
G01*
X7189500Y-9108000D02*
G75*
G02*
X7269500Y-9108000I40000J0D01*
G01*
X7277500Y-6408000D02*
G75*
G02*
X7197500Y-6408000I-40000J0D01*
G01*
X7197500Y-6408000D02*
G75*
G02*
X7277500Y-6408000I40000J0D01*
G01*
X7287500Y-4988000D02*
G75*
G02*
X7207500Y-4988000I-40000J0D01*
G01*
X7207500Y-4988000D02*
G75*
G02*
X7287500Y-4988000I40000J0D01*
G01*
X7287500Y-5468000D02*
G75*
G02*
X7207500Y-5468000I-40000J0D01*
G01*
X7207500Y-5468000D02*
G75*
G02*
X7287500Y-5468000I40000J0D01*
G01*
X7287500Y-5958000D02*
G75*
G02*
X7207500Y-5958000I-40000J0D01*
G01*
X7207500Y-5958000D02*
G75*
G02*
X7287500Y-5958000I40000J0D01*
G01*
X7287500Y-8118000D02*
G75*
G02*
X7207500Y-8118000I-40000J0D01*
G01*
X7207500Y-8118000D02*
G75*
G02*
X7287500Y-8118000I40000J0D01*
G01*
X7295500Y-4478000D02*
G75*
G02*
X7215500Y-4478000I-40000J0D01*
G01*
X7215500Y-4478000D02*
G75*
G02*
X7295500Y-4478000I40000J0D01*
G01*
X7615500Y-9870000D02*
G75*
G02*
X7535500Y-9870000I-40000J0D01*
G01*
X7535500Y-9870000D02*
G75*
G02*
X7615500Y-9870000I40000J0D01*
G01*
X7615500Y-10886000D02*
G75*
G02*
X7535500Y-10886000I-40000J0D01*
G01*
X7535500Y-10886000D02*
G75*
G02*
X7615500Y-10886000I40000J0D01*
G01*
X8071500Y-9868000D02*
G75*
G02*
X7991500Y-9868000I-40000J0D01*
G01*
X7991500Y-9868000D02*
G75*
G02*
X8071500Y-9868000I40000J0D01*
G01*
X8071500Y-10884000D02*
G75*
G02*
X7991500Y-10884000I-40000J0D01*
G01*
X7991500Y-10884000D02*
G75*
G02*
X8071500Y-10884000I40000J0D01*
G01*
X8937500Y-5588000D02*
G75*
G02*
X8857500Y-5588000I-40000J0D01*
G01*
X8857500Y-5588000D02*
G75*
G02*
X8937500Y-5588000I40000J0D01*
G01*
X8945500Y-4188000D02*
G75*
G02*
X8865500Y-4188000I-40000J0D01*
G01*
X8865500Y-4188000D02*
G75*
G02*
X8945500Y-4188000I40000J0D01*
G01*
X8947500Y-4668000D02*
G75*
G02*
X8867500Y-4668000I-40000J0D01*
G01*
X8867500Y-4668000D02*
G75*
G02*
X8947500Y-4668000I40000J0D01*
G01*
X8947500Y-5108000D02*
G75*
G02*
X8867500Y-5108000I-40000J0D01*
G01*
X8867500Y-5108000D02*
G75*
G02*
X8947500Y-5108000I40000J0D01*
G01*
X8947500Y-6038000D02*
G75*
G02*
X8867500Y-6038000I-40000J0D01*
G01*
X8867500Y-6038000D02*
G75*
G02*
X8947500Y-6038000I40000J0D01*
G01*
X9365500Y-8128000D02*
G75*
G02*
X9285500Y-8128000I-40000J0D01*
G01*
X9285500Y-8128000D02*
G75*
G02*
X9365500Y-8128000I40000J0D01*
G01*
X9365500Y-8988000D02*
G75*
G02*
X9285500Y-8988000I-40000J0D01*
G01*
X9285500Y-8988000D02*
G75*
G02*
X9365500Y-8988000I40000J0D01*
G01*
X9367500Y-8538000D02*
G75*
G02*
X9287500Y-8538000I-40000J0D01*
G01*
X9287500Y-8538000D02*
G75*
G02*
X9367500Y-8538000I40000J0D01*
G01*
X9367500Y-9428000D02*
G75*
G02*
X9287500Y-9428000I-40000J0D01*
G01*
X9287500Y-9428000D02*
G75*
G02*
X9367500Y-9428000I40000J0D01*
G01*
X9367500Y-9838000D02*
G75*
G02*
X9287500Y-9838000I-40000J0D01*
G01*
X9287500Y-9838000D02*
G75*
G02*
X9367500Y-9838000I40000J0D01*
G01*
X9953500Y-5588000D02*
G75*
G02*
X9873500Y-5588000I-40000J0D01*
G01*
X9873500Y-5588000D02*
G75*
G02*
X9953500Y-5588000I40000J0D01*
G01*
X9961500Y-4188000D02*
G75*
G02*
X9881500Y-4188000I-40000J0D01*
G01*
X9881500Y-4188000D02*
G75*
G02*
X9961500Y-4188000I40000J0D01*
G01*
X9963500Y-4668000D02*
G75*
G02*
X9883500Y-4668000I-40000J0D01*
G01*
X9883500Y-4668000D02*
G75*
G02*
X9963500Y-4668000I40000J0D01*
G01*
X9963500Y-5108000D02*
G75*
G02*
X9883500Y-5108000I-40000J0D01*
G01*
X9883500Y-5108000D02*
G75*
G02*
X9963500Y-5108000I40000J0D01*
G01*
X9963500Y-6038000D02*
G75*
G02*
X9883500Y-6038000I-40000J0D01*
G01*
X9883500Y-6038000D02*
G75*
G02*
X9963500Y-6038000I40000J0D01*
G01*
X10381500Y-8128000D02*
G75*
G02*
X10301500Y-8128000I-40000J0D01*
G01*
X10301500Y-8128000D02*
G75*
G02*
X10381500Y-8128000I40000J0D01*
G01*
X10381500Y-8988000D02*
G75*
G02*
X10301500Y-8988000I-40000J0D01*
G01*
X10301500Y-8988000D02*
G75*
G02*
X10381500Y-8988000I40000J0D01*
G01*
X10383500Y-8538000D02*
G75*
G02*
X10303500Y-8538000I-40000J0D01*
G01*
X10303500Y-8538000D02*
G75*
G02*
X10383500Y-8538000I40000J0D01*
G01*
X10383500Y-9428000D02*
G75*
G02*
X10303500Y-9428000I-40000J0D01*
G01*
X10303500Y-9428000D02*
G75*
G02*
X10383500Y-9428000I40000J0D01*
G01*
X10383500Y-9838000D02*
G75*
G02*
X10303500Y-9838000I-40000J0D01*
G01*
X10303500Y-9838000D02*
G75*
G02*
X10383500Y-9838000I40000J0D01*
G01*
X11785500Y-3948000D02*
G75*
G02*
X11705500Y-3948000I-40000J0D01*
G01*
X11705500Y-3948000D02*
G75*
G02*
X11785500Y-3948000I40000J0D01*
G01*
X11787500Y-5448000D02*
G75*
G02*
X11707500Y-5448000I-40000J0D01*
G01*
X11707500Y-5448000D02*
G75*
G02*
X11787500Y-5448000I40000J0D01*
G01*
X11787500Y-5888000D02*
G75*
G02*
X11707500Y-5888000I-40000J0D01*
G01*
X11707500Y-5888000D02*
G75*
G02*
X11787500Y-5888000I40000J0D01*
G01*
X11795500Y-4468000D02*
G75*
G02*
X11715500Y-4468000I-40000J0D01*
G01*
X11715500Y-4468000D02*
G75*
G02*
X11795500Y-4468000I40000J0D01*
G01*
X11797500Y-4958000D02*
G75*
G02*
X11717500Y-4958000I-40000J0D01*
G01*
X11717500Y-4958000D02*
G75*
G02*
X11797500Y-4958000I40000J0D01*
G01*
X12801500Y-3948000D02*
G75*
G02*
X12721500Y-3948000I-40000J0D01*
G01*
X12721500Y-3948000D02*
G75*
G02*
X12801500Y-3948000I40000J0D01*
G01*
X12803500Y-5448000D02*
G75*
G02*
X12723500Y-5448000I-40000J0D01*
G01*
X12723500Y-5448000D02*
G75*
G02*
X12803500Y-5448000I40000J0D01*
G01*
X12803500Y-5888000D02*
G75*
G02*
X12723500Y-5888000I-40000J0D01*
G01*
X12723500Y-5888000D02*
G75*
G02*
X12803500Y-5888000I40000J0D01*
G01*
X12811500Y-4468000D02*
G75*
G02*
X12731500Y-4468000I-40000J0D01*
G01*
X12731500Y-4468000D02*
G75*
G02*
X12811500Y-4468000I40000J0D01*
G01*
X12813500Y-4958000D02*
G75*
G02*
X12733500Y-4958000I-40000J0D01*
G01*
X12733500Y-4958000D02*
G75*
G02*
X12813500Y-4958000I40000J0D01*
G01*
X13025500Y-3381000D02*
G75*
G02*
X12945500Y-3381000I-40000J0D01*
G01*
X12945500Y-3381000D02*
G75*
G02*
X13025500Y-3381000I40000J0D01*
G01*
X13629500Y-7298000D02*
G75*
G02*
X13549500Y-7298000I-40000J0D01*
G01*
X13549500Y-7298000D02*
G75*
G02*
X13629500Y-7298000I40000J0D01*
G01*
X14041500Y-3381000D02*
G75*
G02*
X13961500Y-3381000I-40000J0D01*
G01*
X13961500Y-3381000D02*
G75*
G02*
X14041500Y-3381000I40000J0D01*
G01*
X14277500Y-7960000D02*
G75*
G02*
X14197500Y-7960000I-40000J0D01*
G01*
X14197500Y-7960000D02*
G75*
G02*
X14277500Y-7960000I40000J0D01*
G01*
X14277500Y-8976000D02*
G75*
G02*
X14197500Y-8976000I-40000J0D01*
G01*
X14197500Y-8976000D02*
G75*
G02*
X14277500Y-8976000I40000J0D01*
G01*
X14645500Y-7298000D02*
G75*
G02*
X14565500Y-7298000I-40000J0D01*
G01*
X14565500Y-7298000D02*
G75*
G02*
X14645500Y-7298000I40000J0D01*
G01*
X15007500Y-8370000D02*
G75*
G02*
X14927500Y-8370000I-40000J0D01*
G01*
X14927500Y-8370000D02*
G75*
G02*
X15007500Y-8370000I40000J0D01*
G01*
X15007500Y-9386000D02*
G75*
G02*
X14927500Y-9386000I-40000J0D01*
G01*
X14927500Y-9386000D02*
G75*
G02*
X15007500Y-9386000I40000J0D01*
G01*
X15035500Y-3391000D02*
G75*
G02*
X14955500Y-3391000I-40000J0D01*
G01*
X14955500Y-3391000D02*
G75*
G02*
X15035500Y-3391000I40000J0D01*
G01*
X15631500Y-7684000D02*
G75*
G02*
X15551500Y-7684000I-40000J0D01*
G01*
X15551500Y-7684000D02*
G75*
G02*
X15631500Y-7684000I40000J0D01*
G01*
X15631500Y-8700000D02*
G75*
G02*
X15551500Y-8700000I-40000J0D01*
G01*
X15551500Y-8700000D02*
G75*
G02*
X15631500Y-8700000I40000J0D01*
G01*
X16051500Y-3391000D02*
G75*
G02*
X15971500Y-3391000I-40000J0D01*
G01*
X15971500Y-3391000D02*
G75*
G02*
X16051500Y-3391000I40000J0D01*
G01*
X5891500Y-10813000D02*
X5891500Y-10903000D01*
X5846500Y-10858000D02*
X5936500Y-10858000D01*
X6145500Y-10813000D02*
X6145500Y-10903000D01*
X6100500Y-10858000D02*
X6190500Y-10858000D01*
X7065500Y-10566000D02*
X7065500Y-10656000D01*
X7020500Y-10611000D02*
X7110500Y-10611000D01*
X7065500Y-10820000D02*
X7065500Y-10910000D01*
X7020500Y-10865000D02*
X7110500Y-10865000D01*
X8396500Y-10816000D02*
X8396500Y-10906000D01*
X8351500Y-10861000D02*
X8441500Y-10861000D01*
X8650500Y-10816000D02*
X8650500Y-10906000D01*
X8605500Y-10861000D02*
X8695500Y-10861000D01*
X14433500Y-4159000D02*
X14433500Y-4249000D01*
X14388500Y-4204000D02*
X14478500Y-4204000D01*
X14433500Y-4413000D02*
X14433500Y-4503000D01*
X14388500Y-4458000D02*
X14478500Y-4458000D01*
X14443500Y-3492000D02*
X14443500Y-3582000D01*
X14398500Y-3537000D02*
X14488500Y-3537000D01*
X14443500Y-3746000D02*
X14443500Y-3836000D01*
X14398500Y-3791000D02*
X14488500Y-3791000D01*
X4680856Y-10303356D02*
X4680856Y-10232644D01*
X4610144Y-10232644D01*
X4610144Y-10303356D01*
X4680856Y-10303356D01*
X5010856Y-10583356D02*
X5010856Y-10512644D01*
X4940144Y-10512644D01*
X4940144Y-10583356D01*
X5010856Y-10583356D01*
X5130856Y-10283356D02*
X5130856Y-10212644D01*
X5060144Y-10212644D01*
X5060144Y-10283356D01*
X5130856Y-10283356D01*
X5400856Y-6273356D02*
X5400856Y-6202644D01*
X5330144Y-6202644D01*
X5330144Y-6273356D01*
X5400856Y-6273356D01*
X5510856Y-8803356D02*
X5510856Y-8732644D01*
X5440144Y-8732644D01*
X5440144Y-8803356D01*
X5510856Y-8803356D01*
X5520856Y-10353356D02*
X5520856Y-10282644D01*
X5450144Y-10282644D01*
X5450144Y-10353356D01*
X5520856Y-10353356D01*
X5830856Y-6843356D02*
X5830856Y-6772644D01*
X5760144Y-6772644D01*
X5760144Y-6843356D01*
X5830856Y-6843356D01*
X5830856Y-9593356D02*
X5830856Y-9522644D01*
X5760144Y-9522644D01*
X5760144Y-9593356D01*
X5830856Y-9593356D01*
X6190856Y-10003356D02*
X6190856Y-9932644D01*
X6120144Y-9932644D01*
X6120144Y-10003356D01*
X6190856Y-10003356D01*
X7730856Y-4163356D02*
X7730856Y-4092644D01*
X7660144Y-4092644D01*
X7660144Y-4163356D01*
X7730856Y-4163356D01*
X8000856Y-3903356D02*
X8000856Y-3832644D01*
X7930144Y-3832644D01*
X7930144Y-3903356D01*
X8000856Y-3903356D01*
X8290856Y-8473356D02*
X8290856Y-8402644D01*
X8220144Y-8402644D01*
X8220144Y-8473356D01*
X8290856Y-8473356D01*
X8390856Y-5883356D02*
X8390856Y-5812644D01*
X8320144Y-5812644D01*
X8320144Y-5883356D01*
X8390856Y-5883356D01*
X8400856Y-7383356D02*
X8400856Y-7312644D01*
X8330144Y-7312644D01*
X8330144Y-7383356D01*
X8400856Y-7383356D01*
X8670856Y-4533356D02*
X8670856Y-4462644D01*
X8600144Y-4462644D01*
X8600144Y-4533356D01*
X8670856Y-4533356D01*
X8700856Y-10033356D02*
X8700856Y-9962644D01*
X8630144Y-9962644D01*
X8630144Y-10033356D01*
X8700856Y-10033356D01*
X8790856Y-8033356D02*
X8790856Y-7962644D01*
X8720144Y-7962644D01*
X8720144Y-8033356D01*
X8790856Y-8033356D01*
X8790856Y-9333356D02*
X8790856Y-9262644D01*
X8720144Y-9262644D01*
X8720144Y-9333356D01*
X8790856Y-9333356D01*
X9100856Y-7303356D02*
X9100856Y-7232644D01*
X9030144Y-7232644D01*
X9030144Y-7303356D01*
X9100856Y-7303356D01*
X10890856Y-3573356D02*
X10890856Y-3502644D01*
X10820144Y-3502644D01*
X10820144Y-3573356D01*
X10890856Y-3573356D01*
X11210856Y-5083356D02*
X11210856Y-5012644D01*
X11140144Y-5012644D01*
X11140144Y-5083356D01*
X11210856Y-5083356D01*
X11290856Y-4593356D02*
X11290856Y-4522644D01*
X11220144Y-4522644D01*
X11220144Y-4593356D01*
X11290856Y-4593356D01*
X11330856Y-5693356D02*
X11330856Y-5622644D01*
X11260144Y-5622644D01*
X11260144Y-5693356D01*
X11330856Y-5693356D01*
X11340856Y-4243356D02*
X11340856Y-4172644D01*
X11270144Y-4172644D01*
X11270144Y-4243356D01*
X11340856Y-4243356D01*
X11620856Y-7783356D02*
X11620856Y-7712644D01*
X11550144Y-7712644D01*
X11550144Y-7783356D01*
X11620856Y-7783356D01*
X11650856Y-9273356D02*
X11650856Y-9202644D01*
X11580144Y-9202644D01*
X11580144Y-9273356D01*
X11650856Y-9273356D01*
X11808856Y-6273356D02*
X11808856Y-6202644D01*
X11738144Y-6202644D01*
X11738144Y-6273356D01*
X11808856Y-6273356D01*
X12818856Y-8396356D02*
X12818856Y-8325644D01*
X12748144Y-8325644D01*
X12748144Y-8396356D01*
X12818856Y-8396356D01*
X13418856Y-7946356D02*
X13418856Y-7875644D01*
X13348144Y-7875644D01*
X13348144Y-7946356D01*
X13418856Y-7946356D01*
X13920856Y-3753356D02*
X13920856Y-3682644D01*
X13850144Y-3682644D01*
X13850144Y-3753356D01*
X13920856Y-3753356D01*
X13980856Y-5203356D02*
X13980856Y-5132644D01*
X13910144Y-5132644D01*
X13910144Y-5203356D01*
X13980856Y-5203356D01*
X14048856Y-4326356D02*
X14048856Y-4255644D01*
X13978144Y-4255644D01*
X13978144Y-4326356D01*
X14048856Y-4326356D01*
X14248856Y-6056356D02*
X14248856Y-5985644D01*
X14178144Y-5985644D01*
X14178144Y-6056356D01*
X14248856Y-6056356D01*
X14628856Y-6736356D02*
X14628856Y-6665644D01*
X14558144Y-6665644D01*
X14558144Y-6736356D01*
X14628856Y-6736356D01*
X15008856Y-4936356D02*
X15008856Y-4865644D01*
X14938144Y-4865644D01*
X14938144Y-4936356D01*
X15008856Y-4936356D01*
X15198856Y-5346356D02*
X15198856Y-5275644D01*
X15128144Y-5275644D01*
X15128144Y-5346356D01*
X15198856Y-5346356D01*
X15303856Y-6191356D02*
X15303856Y-6120644D01*
X15233144Y-6120644D01*
X15233144Y-6191356D01*
X15303856Y-6191356D01*
X15340856Y-10813356D02*
X15340856Y-10742644D01*
X15270144Y-10742644D01*
X15270144Y-10813356D01*
X15340856Y-10813356D01*
X15480856Y-9093356D02*
X15480856Y-9022644D01*
X15410144Y-9022644D01*
X15410144Y-9093356D01*
X15480856Y-9093356D01*
X15530856Y-10193356D02*
X15530856Y-10122644D01*
X15460144Y-10122644D01*
X15460144Y-10193356D01*
X15530856Y-10193356D01*
X15840856Y-10373356D02*
X15840856Y-10302644D01*
X15770144Y-10302644D01*
X15770144Y-10373356D01*
X15840856Y-10373356D01*
X4278500Y-9216000D02*
X4328500Y-9166000D01*
X4278500Y-9116000D01*
X4228500Y-9166000D01*
X4278500Y-9216000D01*
X4328500Y-9196000D02*
X4328500Y-9136000D01*
X4228500Y-9136000D02*
G75*
G02*
X4328500Y-9136000I50000J0D01*
G01*
X4228500Y-9136000D02*
X4228500Y-9196000D01*
X4228500Y-9196000D02*
G75*
G03*
X4328500Y-9196000I50000J0D01*
G01*
X4578500Y-9686000D02*
X4628500Y-9636000D01*
X4578500Y-9586000D01*
X4528500Y-9636000D01*
X4578500Y-9686000D01*
X4548500Y-9686000D02*
X4608500Y-9686000D01*
X4608500Y-9586000D02*
G75*
G02*
X4608500Y-9686000I0J-50000D01*
G01*
X4608500Y-9586000D02*
X4548500Y-9586000D01*
X4548500Y-9586000D02*
G75*
G03*
X4548500Y-9686000I0J-50000D01*
G01*
X4878500Y-9216000D02*
X4928500Y-9166000D01*
X4878500Y-9116000D01*
X4828500Y-9166000D01*
X4878500Y-9216000D01*
X4928500Y-9196000D02*
X4928500Y-9136000D01*
X4828500Y-9136000D02*
G75*
G02*
X4928500Y-9136000I50000J0D01*
G01*
X4828500Y-9136000D02*
X4828500Y-9196000D01*
X4828500Y-9196000D02*
G75*
G03*
X4928500Y-9196000I50000J0D01*
G01*
X5063500Y-4091000D02*
X5113500Y-4041000D01*
X5063500Y-3991000D01*
X5013500Y-4041000D01*
X5063500Y-4091000D01*
X5317500Y-4091000D02*
X5367500Y-4041000D01*
X5317500Y-3991000D01*
X5267500Y-4041000D01*
X5317500Y-4091000D01*
X5571500Y-4091000D02*
X5621500Y-4041000D01*
X5571500Y-3991000D01*
X5521500Y-4041000D01*
X5571500Y-4091000D01*
X11863500Y-9791000D02*
X11913500Y-9741000D01*
X11863500Y-9691000D01*
X11813500Y-9741000D01*
X11863500Y-9791000D01*
X12238500Y-9791000D02*
X12288500Y-9741000D01*
X12238500Y-9691000D01*
X12188500Y-9741000D01*
X12238500Y-9791000D01*
X12613500Y-9791000D02*
X12663500Y-9741000D01*
X12613500Y-9691000D01*
X12563500Y-9741000D01*
X12613500Y-9791000D01*
D13*
X12694500Y-8995500D02*
X12804500Y-9105500D01*
X12804500Y-8995500D02*
X12694500Y-9105500D01*
X12804500Y-9050500D02*
G75*
G02*
X12694500Y-9050500I-55000J0D01*
G01*
X12694500Y-9050500D02*
G75*
G02*
X12804500Y-9050500I55000J0D01*
G01*
X12948500Y-8995500D02*
X13058500Y-9105500D01*
X13058500Y-8995500D02*
X12948500Y-9105500D01*
X13058500Y-9050500D02*
G75*
G02*
X12948500Y-9050500I-55000J0D01*
G01*
X12948500Y-9050500D02*
G75*
G02*
X13058500Y-9050500I55000J0D01*
G01*
X13202500Y-8995500D02*
X13312500Y-9105500D01*
X13312500Y-8995500D02*
X13202500Y-9105500D01*
X13312500Y-9050500D02*
G75*
G02*
X13202500Y-9050500I-55000J0D01*
G01*
X13202500Y-9050500D02*
G75*
G02*
X13312500Y-9050500I55000J0D01*
G01*
X13922500Y-9327000D02*
X14032500Y-9437000D01*
X14032500Y-9327000D02*
X13922500Y-9437000D01*
X14032500Y-9382000D02*
G75*
G02*
X13922500Y-9382000I-55000J0D01*
G01*
X13922500Y-9382000D02*
G75*
G02*
X14032500Y-9382000I55000J0D01*
G01*
X14176500Y-9327000D02*
X14286500Y-9437000D01*
X14286500Y-9327000D02*
X14176500Y-9437000D01*
X14286500Y-9382000D02*
G75*
G02*
X14176500Y-9382000I-55000J0D01*
G01*
X14176500Y-9382000D02*
G75*
G02*
X14286500Y-9382000I55000J0D01*
G01*
X14430500Y-9327000D02*
X14540500Y-9437000D01*
X14540500Y-9327000D02*
X14430500Y-9437000D01*
X14540500Y-9382000D02*
G75*
G02*
X14430500Y-9382000I-55000J0D01*
G01*
X14430500Y-9382000D02*
G75*
G02*
X14540500Y-9382000I55000J0D01*
G01*
X15202500Y-6739000D02*
X15312500Y-6849000D01*
X15312500Y-6739000D02*
X15202500Y-6849000D01*
X15312500Y-6794000D02*
G75*
G02*
X15202500Y-6794000I-55000J0D01*
G01*
X15202500Y-6794000D02*
G75*
G02*
X15312500Y-6794000I55000J0D01*
G01*
X15202500Y-6993000D02*
X15312500Y-7103000D01*
X15312500Y-6993000D02*
X15202500Y-7103000D01*
X15312500Y-7048000D02*
G75*
G02*
X15202500Y-7048000I-55000J0D01*
G01*
X15202500Y-7048000D02*
G75*
G02*
X15312500Y-7048000I55000J0D01*
G01*
X15202500Y-7247000D02*
X15312500Y-7357000D01*
X15312500Y-7247000D02*
X15202500Y-7357000D01*
X15312500Y-7302000D02*
G75*
G02*
X15202500Y-7302000I-55000J0D01*
G01*
X15202500Y-7302000D02*
G75*
G02*
X15312500Y-7302000I55000J0D01*
G01*
D14*
X13958500Y-10476000D02*
X14088500Y-10606000D01*
X14088500Y-10476000D02*
X13958500Y-10606000D01*
X14023500Y-10476000D02*
X14023500Y-10606000D01*
X13958500Y-10541000D02*
X14088500Y-10541000D01*
X14458500Y-10476000D02*
X14588500Y-10606000D01*
X14588500Y-10476000D02*
X14458500Y-10606000D01*
X14523500Y-10476000D02*
X14523500Y-10606000D01*
X14458500Y-10541000D02*
X14588500Y-10541000D01*
D15*
X15433460Y-4754960D02*
X15565540Y-4887040D01*
X15565540Y-4754960D02*
X15433460Y-4887040D01*
X15546198Y-4867698D02*
X15546198Y-4774302D01*
X15452802Y-4774302D01*
X15452802Y-4867698D01*
X15546198Y-4867698D01*
X15433460Y-5534960D02*
X15565540Y-5667040D01*
X15565540Y-5534960D02*
X15433460Y-5667040D01*
X15546198Y-5647698D02*
X15546198Y-5554302D01*
X15452802Y-5554302D01*
X15452802Y-5647698D01*
X15546198Y-5647698D01*
X15941460Y-4754960D02*
X16073540Y-4887040D01*
X16073540Y-4754960D02*
X15941460Y-4887040D01*
X16054198Y-4867698D02*
X16054198Y-4774302D01*
X15960802Y-4774302D01*
X15960802Y-4867698D01*
X16054198Y-4867698D01*
X15941460Y-5534960D02*
X16073540Y-5667040D01*
X16073540Y-5534960D02*
X15941460Y-5667040D01*
X16054198Y-5647698D02*
X16054198Y-5554302D01*
X15960802Y-5554302D01*
X15960802Y-5647698D01*
X16054198Y-5647698D01*
D16*
X9580500Y-6568000D02*
X9720500Y-6708000D01*
X9720500Y-6568000D02*
X9580500Y-6708000D01*
X9650500Y-6708000D02*
X9720500Y-6638000D01*
X9650500Y-6568000D01*
X9580500Y-6638000D01*
X9650500Y-6708000D01*
X10850500Y-6568000D02*
X10990500Y-6708000D01*
X10990500Y-6568000D02*
X10850500Y-6708000D01*
X10920500Y-6708000D02*
X10990500Y-6638000D01*
X10920500Y-6568000D01*
X10850500Y-6638000D01*
X10920500Y-6708000D01*
X11450500Y-6548000D02*
X11590500Y-6688000D01*
X11590500Y-6548000D02*
X11450500Y-6688000D01*
X11520500Y-6688000D02*
X11590500Y-6618000D01*
X11520500Y-6548000D01*
X11450500Y-6618000D01*
X11520500Y-6688000D01*
X12720500Y-6548000D02*
X12860500Y-6688000D01*
X12860500Y-6548000D02*
X12720500Y-6688000D01*
X12790500Y-6688000D02*
X12860500Y-6618000D01*
X12790500Y-6548000D01*
X12720500Y-6618000D01*
X12790500Y-6688000D01*
D17*
X11718500Y-10483500D02*
X11718500Y-10663500D01*
X11628500Y-10573500D02*
X11808500Y-10573500D01*
X11808500Y-10573500D02*
G75*
G02*
X11628500Y-10573500I-90000J0D01*
G01*
X11628500Y-10573500D02*
G75*
G02*
X11808500Y-10573500I90000J0D01*
G01*
D12*
X11808500Y-10623500D02*
X11808500Y-10523500D01*
X11628500Y-10523500D02*
G75*
G02*
X11808500Y-10523500I90000J0D01*
G01*
X11628500Y-10523500D02*
X11628500Y-10623500D01*
X11628500Y-10623500D02*
G75*
G03*
X11808500Y-10623500I90000J0D01*
G01*
D17*
X12758500Y-10483500D02*
X12758500Y-10663500D01*
X12668500Y-10573500D02*
X12848500Y-10573500D01*
X12848500Y-10573500D02*
G75*
G02*
X12668500Y-10573500I-90000J0D01*
G01*
X12668500Y-10573500D02*
G75*
G02*
X12848500Y-10573500I90000J0D01*
G01*
D12*
X12848500Y-10623500D02*
X12848500Y-10523500D01*
X12668500Y-10523500D02*
G75*
G02*
X12848500Y-10523500I90000J0D01*
G01*
X12668500Y-10523500D02*
X12668500Y-10623500D01*
X12668500Y-10623500D02*
G75*
G03*
X12848500Y-10623500I90000J0D01*
G01*
D11*
X4082277Y-11551484D02*
X4082277Y-11351484D01*
X4082277Y-11351484D02*
X4129896Y-11351484D01*
X4129896Y-11351484D02*
X4158467Y-11361008D01*
X4158467Y-11361008D02*
X4177515Y-11380055D01*
X4177515Y-11380055D02*
X4187039Y-11399103D01*
X4187039Y-11399103D02*
X4196563Y-11437198D01*
X4196563Y-11437198D02*
X4196563Y-11465769D01*
X4196563Y-11465769D02*
X4187039Y-11503865D01*
X4187039Y-11503865D02*
X4177515Y-11522912D01*
X4177515Y-11522912D02*
X4158467Y-11541960D01*
X4158467Y-11541960D02*
X4129896Y-11551484D01*
X4129896Y-11551484D02*
X4082277Y-11551484D01*
X4282277Y-11551484D02*
X4282277Y-11418150D01*
X4282277Y-11456246D02*
X4291801Y-11437198D01*
X4291801Y-11437198D02*
X4301324Y-11427674D01*
X4301324Y-11427674D02*
X4320372Y-11418150D01*
X4320372Y-11418150D02*
X4339420Y-11418150D01*
X4406086Y-11551484D02*
X4406086Y-11418150D01*
X4406086Y-11351484D02*
X4396563Y-11361008D01*
X4396563Y-11361008D02*
X4406086Y-11370531D01*
X4406086Y-11370531D02*
X4415610Y-11361008D01*
X4415610Y-11361008D02*
X4406086Y-11351484D01*
X4406086Y-11351484D02*
X4406086Y-11370531D01*
X4529896Y-11551484D02*
X4510848Y-11541960D01*
X4510848Y-11541960D02*
X4501324Y-11522912D01*
X4501324Y-11522912D02*
X4501324Y-11351484D01*
X4634658Y-11551484D02*
X4615610Y-11541960D01*
X4615610Y-11541960D02*
X4606086Y-11522912D01*
X4606086Y-11522912D02*
X4606086Y-11351484D01*
X4863229Y-11551484D02*
X4863229Y-11351484D01*
X4863229Y-11351484D02*
X4929896Y-11494341D01*
X4929896Y-11494341D02*
X4996563Y-11351484D01*
X4996563Y-11351484D02*
X4996563Y-11551484D01*
X5177515Y-11551484D02*
X5177515Y-11446722D01*
X5177515Y-11446722D02*
X5167991Y-11427674D01*
X5167991Y-11427674D02*
X5148944Y-11418150D01*
X5148944Y-11418150D02*
X5110848Y-11418150D01*
X5110848Y-11418150D02*
X5091801Y-11427674D01*
X5177515Y-11541960D02*
X5158467Y-11551484D01*
X5158467Y-11551484D02*
X5110848Y-11551484D01*
X5110848Y-11551484D02*
X5091801Y-11541960D01*
X5091801Y-11541960D02*
X5082277Y-11522912D01*
X5082277Y-11522912D02*
X5082277Y-11503865D01*
X5082277Y-11503865D02*
X5091801Y-11484817D01*
X5091801Y-11484817D02*
X5110848Y-11475293D01*
X5110848Y-11475293D02*
X5158467Y-11475293D01*
X5158467Y-11475293D02*
X5177515Y-11465769D01*
X5272753Y-11418150D02*
X5272753Y-11618150D01*
X5272753Y-11427674D02*
X5291801Y-11418150D01*
X5291801Y-11418150D02*
X5329896Y-11418150D01*
X5329896Y-11418150D02*
X5348944Y-11427674D01*
X5348944Y-11427674D02*
X5358467Y-11437198D01*
X5358467Y-11437198D02*
X5367991Y-11456246D01*
X5367991Y-11456246D02*
X5367991Y-11513388D01*
X5367991Y-11513388D02*
X5358467Y-11532436D01*
X5358467Y-11532436D02*
X5348944Y-11541960D01*
X5348944Y-11541960D02*
X5329896Y-11551484D01*
X5329896Y-11551484D02*
X5291801Y-11551484D01*
X5291801Y-11551484D02*
X5272753Y-11541960D01*
X5453705Y-11532436D02*
X5463229Y-11541960D01*
X5463229Y-11541960D02*
X5453705Y-11551484D01*
X5453705Y-11551484D02*
X5444182Y-11541960D01*
X5444182Y-11541960D02*
X5453705Y-11532436D01*
X5453705Y-11532436D02*
X5453705Y-11551484D01*
X5453705Y-11427674D02*
X5463229Y-11437198D01*
X5463229Y-11437198D02*
X5453705Y-11446722D01*
X5453705Y-11446722D02*
X5444182Y-11437198D01*
X5444182Y-11437198D02*
X5453705Y-11427674D01*
X5453705Y-11427674D02*
X5453705Y-11446722D01*
D12*
X3746500Y-11842500D02*
X3821500Y-11917500D01*
X3821500Y-11842500D02*
X3746500Y-11917500D01*
D11*
X4120372Y-11771484D02*
X4139420Y-11771484D01*
X4139420Y-11771484D02*
X4158467Y-11781008D01*
X4158467Y-11781008D02*
X4167991Y-11790531D01*
X4167991Y-11790531D02*
X4177515Y-11809579D01*
X4177515Y-11809579D02*
X4187039Y-11847674D01*
X4187039Y-11847674D02*
X4187039Y-11895293D01*
X4187039Y-11895293D02*
X4177515Y-11933388D01*
X4177515Y-11933388D02*
X4167991Y-11952436D01*
X4167991Y-11952436D02*
X4158467Y-11961960D01*
X4158467Y-11961960D02*
X4139420Y-11971484D01*
X4139420Y-11971484D02*
X4120372Y-11971484D01*
X4120372Y-11971484D02*
X4101324Y-11961960D01*
X4101324Y-11961960D02*
X4091801Y-11952436D01*
X4091801Y-11952436D02*
X4082277Y-11933388D01*
X4082277Y-11933388D02*
X4072753Y-11895293D01*
X4072753Y-11895293D02*
X4072753Y-11847674D01*
X4072753Y-11847674D02*
X4082277Y-11809579D01*
X4082277Y-11809579D02*
X4091801Y-11790531D01*
X4091801Y-11790531D02*
X4101324Y-11781008D01*
X4101324Y-11781008D02*
X4120372Y-11771484D01*
X4272753Y-11952436D02*
X4282277Y-11961960D01*
X4282277Y-11961960D02*
X4272753Y-11971484D01*
X4272753Y-11971484D02*
X4263229Y-11961960D01*
X4263229Y-11961960D02*
X4272753Y-11952436D01*
X4272753Y-11952436D02*
X4272753Y-11971484D01*
X4348944Y-11771484D02*
X4482277Y-11771484D01*
X4482277Y-11771484D02*
X4396563Y-11971484D01*
X4653705Y-11771484D02*
X4558467Y-11771484D01*
X4558467Y-11771484D02*
X4548944Y-11866722D01*
X4548944Y-11866722D02*
X4558467Y-11857198D01*
X4558467Y-11857198D02*
X4577515Y-11847674D01*
X4577515Y-11847674D02*
X4625134Y-11847674D01*
X4625134Y-11847674D02*
X4644182Y-11857198D01*
X4644182Y-11857198D02*
X4653705Y-11866722D01*
X4653705Y-11866722D02*
X4663229Y-11885769D01*
X4663229Y-11885769D02*
X4663229Y-11933388D01*
X4663229Y-11933388D02*
X4653705Y-11952436D01*
X4653705Y-11952436D02*
X4644182Y-11961960D01*
X4644182Y-11961960D02*
X4625134Y-11971484D01*
X4625134Y-11971484D02*
X4577515Y-11971484D01*
X4577515Y-11971484D02*
X4558467Y-11961960D01*
X4558467Y-11961960D02*
X4548944Y-11952436D01*
X4787039Y-11771484D02*
X4806086Y-11771484D01*
X4806086Y-11771484D02*
X4825134Y-11781008D01*
X4825134Y-11781008D02*
X4834658Y-11790531D01*
X4834658Y-11790531D02*
X4844182Y-11809579D01*
X4844182Y-11809579D02*
X4853705Y-11847674D01*
X4853705Y-11847674D02*
X4853705Y-11895293D01*
X4853705Y-11895293D02*
X4844182Y-11933388D01*
X4844182Y-11933388D02*
X4834658Y-11952436D01*
X4834658Y-11952436D02*
X4825134Y-11961960D01*
X4825134Y-11961960D02*
X4806086Y-11971484D01*
X4806086Y-11971484D02*
X4787039Y-11971484D01*
X4787039Y-11971484D02*
X4767991Y-11961960D01*
X4767991Y-11961960D02*
X4758467Y-11952436D01*
X4758467Y-11952436D02*
X4748944Y-11933388D01*
X4748944Y-11933388D02*
X4739420Y-11895293D01*
X4739420Y-11895293D02*
X4739420Y-11847674D01*
X4739420Y-11847674D02*
X4748944Y-11809579D01*
X4748944Y-11809579D02*
X4758467Y-11790531D01*
X4758467Y-11790531D02*
X4767991Y-11781008D01*
X4767991Y-11781008D02*
X4787039Y-11771484D01*
X4939420Y-11971484D02*
X4939420Y-11838150D01*
X4939420Y-11857198D02*
X4948944Y-11847674D01*
X4948944Y-11847674D02*
X4967991Y-11838150D01*
X4967991Y-11838150D02*
X4996563Y-11838150D01*
X4996563Y-11838150D02*
X5015610Y-11847674D01*
X5015610Y-11847674D02*
X5025134Y-11866722D01*
X5025134Y-11866722D02*
X5025134Y-11971484D01*
X5025134Y-11866722D02*
X5034658Y-11847674D01*
X5034658Y-11847674D02*
X5053705Y-11838150D01*
X5053705Y-11838150D02*
X5082277Y-11838150D01*
X5082277Y-11838150D02*
X5101325Y-11847674D01*
X5101325Y-11847674D02*
X5110848Y-11866722D01*
X5110848Y-11866722D02*
X5110848Y-11971484D01*
X5206086Y-11971484D02*
X5206086Y-11838150D01*
X5206086Y-11857198D02*
X5215610Y-11847674D01*
X5215610Y-11847674D02*
X5234658Y-11838150D01*
X5234658Y-11838150D02*
X5263229Y-11838150D01*
X5263229Y-11838150D02*
X5282277Y-11847674D01*
X5282277Y-11847674D02*
X5291801Y-11866722D01*
X5291801Y-11866722D02*
X5291801Y-11971484D01*
X5291801Y-11866722D02*
X5301325Y-11847674D01*
X5301325Y-11847674D02*
X5320372Y-11838150D01*
X5320372Y-11838150D02*
X5348944Y-11838150D01*
X5348944Y-11838150D02*
X5367991Y-11847674D01*
X5367991Y-11847674D02*
X5377515Y-11866722D01*
X5377515Y-11866722D02*
X5377515Y-11971484D01*
X5767991Y-11761960D02*
X5596563Y-12019103D01*
X6025134Y-11771484D02*
X6044182Y-11771484D01*
X6044182Y-11771484D02*
X6063229Y-11781008D01*
X6063229Y-11781008D02*
X6072753Y-11790531D01*
X6072753Y-11790531D02*
X6082277Y-11809579D01*
X6082277Y-11809579D02*
X6091801Y-11847674D01*
X6091801Y-11847674D02*
X6091801Y-11895293D01*
X6091801Y-11895293D02*
X6082277Y-11933388D01*
X6082277Y-11933388D02*
X6072753Y-11952436D01*
X6072753Y-11952436D02*
X6063229Y-11961960D01*
X6063229Y-11961960D02*
X6044182Y-11971484D01*
X6044182Y-11971484D02*
X6025134Y-11971484D01*
X6025134Y-11971484D02*
X6006086Y-11961960D01*
X6006086Y-11961960D02*
X5996563Y-11952436D01*
X5996563Y-11952436D02*
X5987039Y-11933388D01*
X5987039Y-11933388D02*
X5977515Y-11895293D01*
X5977515Y-11895293D02*
X5977515Y-11847674D01*
X5977515Y-11847674D02*
X5987039Y-11809579D01*
X5987039Y-11809579D02*
X5996563Y-11790531D01*
X5996563Y-11790531D02*
X6006086Y-11781008D01*
X6006086Y-11781008D02*
X6025134Y-11771484D01*
X6177515Y-11952436D02*
X6187039Y-11961960D01*
X6187039Y-11961960D02*
X6177515Y-11971484D01*
X6177515Y-11971484D02*
X6167991Y-11961960D01*
X6167991Y-11961960D02*
X6177515Y-11952436D01*
X6177515Y-11952436D02*
X6177515Y-11971484D01*
X6310848Y-11771484D02*
X6329896Y-11771484D01*
X6329896Y-11771484D02*
X6348944Y-11781008D01*
X6348944Y-11781008D02*
X6358467Y-11790531D01*
X6358467Y-11790531D02*
X6367991Y-11809579D01*
X6367991Y-11809579D02*
X6377515Y-11847674D01*
X6377515Y-11847674D02*
X6377515Y-11895293D01*
X6377515Y-11895293D02*
X6367991Y-11933388D01*
X6367991Y-11933388D02*
X6358467Y-11952436D01*
X6358467Y-11952436D02*
X6348944Y-11961960D01*
X6348944Y-11961960D02*
X6329896Y-11971484D01*
X6329896Y-11971484D02*
X6310848Y-11971484D01*
X6310848Y-11971484D02*
X6291801Y-11961960D01*
X6291801Y-11961960D02*
X6282277Y-11952436D01*
X6282277Y-11952436D02*
X6272753Y-11933388D01*
X6272753Y-11933388D02*
X6263229Y-11895293D01*
X6263229Y-11895293D02*
X6263229Y-11847674D01*
X6263229Y-11847674D02*
X6272753Y-11809579D01*
X6272753Y-11809579D02*
X6282277Y-11790531D01*
X6282277Y-11790531D02*
X6291801Y-11781008D01*
X6291801Y-11781008D02*
X6310848Y-11771484D01*
X6453706Y-11790531D02*
X6463229Y-11781008D01*
X6463229Y-11781008D02*
X6482277Y-11771484D01*
X6482277Y-11771484D02*
X6529896Y-11771484D01*
X6529896Y-11771484D02*
X6548944Y-11781008D01*
X6548944Y-11781008D02*
X6558467Y-11790531D01*
X6558467Y-11790531D02*
X6567991Y-11809579D01*
X6567991Y-11809579D02*
X6567991Y-11828627D01*
X6567991Y-11828627D02*
X6558467Y-11857198D01*
X6558467Y-11857198D02*
X6444182Y-11971484D01*
X6444182Y-11971484D02*
X6567991Y-11971484D01*
X6663229Y-11971484D02*
X6701325Y-11971484D01*
X6701325Y-11971484D02*
X6720372Y-11961960D01*
X6720372Y-11961960D02*
X6729896Y-11952436D01*
X6729896Y-11952436D02*
X6748944Y-11923865D01*
X6748944Y-11923865D02*
X6758467Y-11885769D01*
X6758467Y-11885769D02*
X6758467Y-11809579D01*
X6758467Y-11809579D02*
X6748944Y-11790531D01*
X6748944Y-11790531D02*
X6739420Y-11781008D01*
X6739420Y-11781008D02*
X6720372Y-11771484D01*
X6720372Y-11771484D02*
X6682277Y-11771484D01*
X6682277Y-11771484D02*
X6663229Y-11781008D01*
X6663229Y-11781008D02*
X6653706Y-11790531D01*
X6653706Y-11790531D02*
X6644182Y-11809579D01*
X6644182Y-11809579D02*
X6644182Y-11857198D01*
X6644182Y-11857198D02*
X6653706Y-11876246D01*
X6653706Y-11876246D02*
X6663229Y-11885769D01*
X6663229Y-11885769D02*
X6682277Y-11895293D01*
X6682277Y-11895293D02*
X6720372Y-11895293D01*
X6720372Y-11895293D02*
X6739420Y-11885769D01*
X6739420Y-11885769D02*
X6748944Y-11876246D01*
X6748944Y-11876246D02*
X6758467Y-11857198D01*
X6939420Y-11771484D02*
X6844182Y-11771484D01*
X6844182Y-11771484D02*
X6834658Y-11866722D01*
X6834658Y-11866722D02*
X6844182Y-11857198D01*
X6844182Y-11857198D02*
X6863229Y-11847674D01*
X6863229Y-11847674D02*
X6910848Y-11847674D01*
X6910848Y-11847674D02*
X6929896Y-11857198D01*
X6929896Y-11857198D02*
X6939420Y-11866722D01*
X6939420Y-11866722D02*
X6948944Y-11885769D01*
X6948944Y-11885769D02*
X6948944Y-11933388D01*
X6948944Y-11933388D02*
X6939420Y-11952436D01*
X6939420Y-11952436D02*
X6929896Y-11961960D01*
X6929896Y-11961960D02*
X6910848Y-11971484D01*
X6910848Y-11971484D02*
X6863229Y-11971484D01*
X6863229Y-11971484D02*
X6844182Y-11961960D01*
X6844182Y-11961960D02*
X6834658Y-11952436D01*
X7025134Y-11771484D02*
X7025134Y-11809579D01*
X7101325Y-11771484D02*
X7101325Y-11809579D01*
X7396563Y-12047674D02*
X7387039Y-12038150D01*
X7387039Y-12038150D02*
X7367991Y-12009579D01*
X7367991Y-12009579D02*
X7358468Y-11990531D01*
X7358468Y-11990531D02*
X7348944Y-11961960D01*
X7348944Y-11961960D02*
X7339420Y-11914341D01*
X7339420Y-11914341D02*
X7339420Y-11876246D01*
X7339420Y-11876246D02*
X7348944Y-11828627D01*
X7348944Y-11828627D02*
X7358468Y-11800055D01*
X7358468Y-11800055D02*
X7367991Y-11781008D01*
X7367991Y-11781008D02*
X7387039Y-11752436D01*
X7387039Y-11752436D02*
X7396563Y-11742912D01*
X7558468Y-11838150D02*
X7558468Y-11971484D01*
X7510848Y-11761960D02*
X7463229Y-11904817D01*
X7463229Y-11904817D02*
X7587039Y-11904817D01*
X7758468Y-11771484D02*
X7663229Y-11771484D01*
X7663229Y-11771484D02*
X7653706Y-11866722D01*
X7653706Y-11866722D02*
X7663229Y-11857198D01*
X7663229Y-11857198D02*
X7682277Y-11847674D01*
X7682277Y-11847674D02*
X7729896Y-11847674D01*
X7729896Y-11847674D02*
X7748944Y-11857198D01*
X7748944Y-11857198D02*
X7758468Y-11866722D01*
X7758468Y-11866722D02*
X7767991Y-11885769D01*
X7767991Y-11885769D02*
X7767991Y-11933388D01*
X7767991Y-11933388D02*
X7758468Y-11952436D01*
X7758468Y-11952436D02*
X7748944Y-11961960D01*
X7748944Y-11961960D02*
X7729896Y-11971484D01*
X7729896Y-11971484D02*
X7682277Y-11971484D01*
X7682277Y-11971484D02*
X7663229Y-11961960D01*
X7663229Y-11961960D02*
X7653706Y-11952436D01*
X8006087Y-11971484D02*
X8006087Y-11771484D01*
X8091801Y-11971484D02*
X8091801Y-11866722D01*
X8091801Y-11866722D02*
X8082277Y-11847674D01*
X8082277Y-11847674D02*
X8063230Y-11838150D01*
X8063230Y-11838150D02*
X8034658Y-11838150D01*
X8034658Y-11838150D02*
X8015610Y-11847674D01*
X8015610Y-11847674D02*
X8006087Y-11857198D01*
X8215610Y-11971484D02*
X8196563Y-11961960D01*
X8196563Y-11961960D02*
X8187039Y-11952436D01*
X8187039Y-11952436D02*
X8177515Y-11933388D01*
X8177515Y-11933388D02*
X8177515Y-11876246D01*
X8177515Y-11876246D02*
X8187039Y-11857198D01*
X8187039Y-11857198D02*
X8196563Y-11847674D01*
X8196563Y-11847674D02*
X8215610Y-11838150D01*
X8215610Y-11838150D02*
X8244182Y-11838150D01*
X8244182Y-11838150D02*
X8263230Y-11847674D01*
X8263230Y-11847674D02*
X8272753Y-11857198D01*
X8272753Y-11857198D02*
X8282277Y-11876246D01*
X8282277Y-11876246D02*
X8282277Y-11933388D01*
X8282277Y-11933388D02*
X8272753Y-11952436D01*
X8272753Y-11952436D02*
X8263230Y-11961960D01*
X8263230Y-11961960D02*
X8244182Y-11971484D01*
X8244182Y-11971484D02*
X8215610Y-11971484D01*
X8396563Y-11971484D02*
X8377515Y-11961960D01*
X8377515Y-11961960D02*
X8367991Y-11942912D01*
X8367991Y-11942912D02*
X8367991Y-11771484D01*
X8548944Y-11961960D02*
X8529896Y-11971484D01*
X8529896Y-11971484D02*
X8491801Y-11971484D01*
X8491801Y-11971484D02*
X8472753Y-11961960D01*
X8472753Y-11961960D02*
X8463230Y-11942912D01*
X8463230Y-11942912D02*
X8463230Y-11866722D01*
X8463230Y-11866722D02*
X8472753Y-11847674D01*
X8472753Y-11847674D02*
X8491801Y-11838150D01*
X8491801Y-11838150D02*
X8529896Y-11838150D01*
X8529896Y-11838150D02*
X8548944Y-11847674D01*
X8548944Y-11847674D02*
X8558468Y-11866722D01*
X8558468Y-11866722D02*
X8558468Y-11885769D01*
X8558468Y-11885769D02*
X8463230Y-11904817D01*
X8634658Y-11961960D02*
X8653706Y-11971484D01*
X8653706Y-11971484D02*
X8691801Y-11971484D01*
X8691801Y-11971484D02*
X8710849Y-11961960D01*
X8710849Y-11961960D02*
X8720373Y-11942912D01*
X8720373Y-11942912D02*
X8720373Y-11933388D01*
X8720373Y-11933388D02*
X8710849Y-11914341D01*
X8710849Y-11914341D02*
X8691801Y-11904817D01*
X8691801Y-11904817D02*
X8663230Y-11904817D01*
X8663230Y-11904817D02*
X8644182Y-11895293D01*
X8644182Y-11895293D02*
X8634658Y-11876246D01*
X8634658Y-11876246D02*
X8634658Y-11866722D01*
X8634658Y-11866722D02*
X8644182Y-11847674D01*
X8644182Y-11847674D02*
X8663230Y-11838150D01*
X8663230Y-11838150D02*
X8691801Y-11838150D01*
X8691801Y-11838150D02*
X8710849Y-11847674D01*
X8787039Y-12047674D02*
X8796563Y-12038150D01*
X8796563Y-12038150D02*
X8815611Y-12009579D01*
X8815611Y-12009579D02*
X8825134Y-11990531D01*
X8825134Y-11990531D02*
X8834658Y-11961960D01*
X8834658Y-11961960D02*
X8844182Y-11914341D01*
X8844182Y-11914341D02*
X8844182Y-11876246D01*
X8844182Y-11876246D02*
X8834658Y-11828627D01*
X8834658Y-11828627D02*
X8825134Y-11800055D01*
X8825134Y-11800055D02*
X8815611Y-11781008D01*
X8815611Y-11781008D02*
X8796563Y-11752436D01*
X8796563Y-11752436D02*
X8787039Y-11742912D01*
D12*
X3821500Y-12144000D02*
G75*
G02*
X3741500Y-12144000I-40000J0D01*
G01*
X3741500Y-12144000D02*
G75*
G02*
X3821500Y-12144000I40000J0D01*
G01*
D11*
X4120372Y-12035484D02*
X4139420Y-12035484D01*
X4139420Y-12035484D02*
X4158467Y-12045008D01*
X4158467Y-12045008D02*
X4167991Y-12054531D01*
X4167991Y-12054531D02*
X4177515Y-12073579D01*
X4177515Y-12073579D02*
X4187039Y-12111674D01*
X4187039Y-12111674D02*
X4187039Y-12159293D01*
X4187039Y-12159293D02*
X4177515Y-12197388D01*
X4177515Y-12197388D02*
X4167991Y-12216436D01*
X4167991Y-12216436D02*
X4158467Y-12225960D01*
X4158467Y-12225960D02*
X4139420Y-12235484D01*
X4139420Y-12235484D02*
X4120372Y-12235484D01*
X4120372Y-12235484D02*
X4101324Y-12225960D01*
X4101324Y-12225960D02*
X4091801Y-12216436D01*
X4091801Y-12216436D02*
X4082277Y-12197388D01*
X4082277Y-12197388D02*
X4072753Y-12159293D01*
X4072753Y-12159293D02*
X4072753Y-12111674D01*
X4072753Y-12111674D02*
X4082277Y-12073579D01*
X4082277Y-12073579D02*
X4091801Y-12054531D01*
X4091801Y-12054531D02*
X4101324Y-12045008D01*
X4101324Y-12045008D02*
X4120372Y-12035484D01*
X4272753Y-12216436D02*
X4282277Y-12225960D01*
X4282277Y-12225960D02*
X4272753Y-12235484D01*
X4272753Y-12235484D02*
X4263229Y-12225960D01*
X4263229Y-12225960D02*
X4272753Y-12216436D01*
X4272753Y-12216436D02*
X4272753Y-12235484D01*
X4396563Y-12121198D02*
X4377515Y-12111674D01*
X4377515Y-12111674D02*
X4367991Y-12102150D01*
X4367991Y-12102150D02*
X4358467Y-12083103D01*
X4358467Y-12083103D02*
X4358467Y-12073579D01*
X4358467Y-12073579D02*
X4367991Y-12054531D01*
X4367991Y-12054531D02*
X4377515Y-12045008D01*
X4377515Y-12045008D02*
X4396563Y-12035484D01*
X4396563Y-12035484D02*
X4434658Y-12035484D01*
X4434658Y-12035484D02*
X4453705Y-12045008D01*
X4453705Y-12045008D02*
X4463229Y-12054531D01*
X4463229Y-12054531D02*
X4472753Y-12073579D01*
X4472753Y-12073579D02*
X4472753Y-12083103D01*
X4472753Y-12083103D02*
X4463229Y-12102150D01*
X4463229Y-12102150D02*
X4453705Y-12111674D01*
X4453705Y-12111674D02*
X4434658Y-12121198D01*
X4434658Y-12121198D02*
X4396563Y-12121198D01*
X4396563Y-12121198D02*
X4377515Y-12130722D01*
X4377515Y-12130722D02*
X4367991Y-12140246D01*
X4367991Y-12140246D02*
X4358467Y-12159293D01*
X4358467Y-12159293D02*
X4358467Y-12197388D01*
X4358467Y-12197388D02*
X4367991Y-12216436D01*
X4367991Y-12216436D02*
X4377515Y-12225960D01*
X4377515Y-12225960D02*
X4396563Y-12235484D01*
X4396563Y-12235484D02*
X4434658Y-12235484D01*
X4434658Y-12235484D02*
X4453705Y-12225960D01*
X4453705Y-12225960D02*
X4463229Y-12216436D01*
X4463229Y-12216436D02*
X4472753Y-12197388D01*
X4472753Y-12197388D02*
X4472753Y-12159293D01*
X4472753Y-12159293D02*
X4463229Y-12140246D01*
X4463229Y-12140246D02*
X4453705Y-12130722D01*
X4453705Y-12130722D02*
X4434658Y-12121198D01*
X4596563Y-12035484D02*
X4615610Y-12035484D01*
X4615610Y-12035484D02*
X4634658Y-12045008D01*
X4634658Y-12045008D02*
X4644182Y-12054531D01*
X4644182Y-12054531D02*
X4653705Y-12073579D01*
X4653705Y-12073579D02*
X4663229Y-12111674D01*
X4663229Y-12111674D02*
X4663229Y-12159293D01*
X4663229Y-12159293D02*
X4653705Y-12197388D01*
X4653705Y-12197388D02*
X4644182Y-12216436D01*
X4644182Y-12216436D02*
X4634658Y-12225960D01*
X4634658Y-12225960D02*
X4615610Y-12235484D01*
X4615610Y-12235484D02*
X4596563Y-12235484D01*
X4596563Y-12235484D02*
X4577515Y-12225960D01*
X4577515Y-12225960D02*
X4567991Y-12216436D01*
X4567991Y-12216436D02*
X4558467Y-12197388D01*
X4558467Y-12197388D02*
X4548944Y-12159293D01*
X4548944Y-12159293D02*
X4548944Y-12111674D01*
X4548944Y-12111674D02*
X4558467Y-12073579D01*
X4558467Y-12073579D02*
X4567991Y-12054531D01*
X4567991Y-12054531D02*
X4577515Y-12045008D01*
X4577515Y-12045008D02*
X4596563Y-12035484D01*
X4787039Y-12035484D02*
X4806086Y-12035484D01*
X4806086Y-12035484D02*
X4825134Y-12045008D01*
X4825134Y-12045008D02*
X4834658Y-12054531D01*
X4834658Y-12054531D02*
X4844182Y-12073579D01*
X4844182Y-12073579D02*
X4853705Y-12111674D01*
X4853705Y-12111674D02*
X4853705Y-12159293D01*
X4853705Y-12159293D02*
X4844182Y-12197388D01*
X4844182Y-12197388D02*
X4834658Y-12216436D01*
X4834658Y-12216436D02*
X4825134Y-12225960D01*
X4825134Y-12225960D02*
X4806086Y-12235484D01*
X4806086Y-12235484D02*
X4787039Y-12235484D01*
X4787039Y-12235484D02*
X4767991Y-12225960D01*
X4767991Y-12225960D02*
X4758467Y-12216436D01*
X4758467Y-12216436D02*
X4748944Y-12197388D01*
X4748944Y-12197388D02*
X4739420Y-12159293D01*
X4739420Y-12159293D02*
X4739420Y-12111674D01*
X4739420Y-12111674D02*
X4748944Y-12073579D01*
X4748944Y-12073579D02*
X4758467Y-12054531D01*
X4758467Y-12054531D02*
X4767991Y-12045008D01*
X4767991Y-12045008D02*
X4787039Y-12035484D01*
X4939420Y-12235484D02*
X4939420Y-12102150D01*
X4939420Y-12121198D02*
X4948944Y-12111674D01*
X4948944Y-12111674D02*
X4967991Y-12102150D01*
X4967991Y-12102150D02*
X4996563Y-12102150D01*
X4996563Y-12102150D02*
X5015610Y-12111674D01*
X5015610Y-12111674D02*
X5025134Y-12130722D01*
X5025134Y-12130722D02*
X5025134Y-12235484D01*
X5025134Y-12130722D02*
X5034658Y-12111674D01*
X5034658Y-12111674D02*
X5053705Y-12102150D01*
X5053705Y-12102150D02*
X5082277Y-12102150D01*
X5082277Y-12102150D02*
X5101325Y-12111674D01*
X5101325Y-12111674D02*
X5110848Y-12130722D01*
X5110848Y-12130722D02*
X5110848Y-12235484D01*
X5206086Y-12235484D02*
X5206086Y-12102150D01*
X5206086Y-12121198D02*
X5215610Y-12111674D01*
X5215610Y-12111674D02*
X5234658Y-12102150D01*
X5234658Y-12102150D02*
X5263229Y-12102150D01*
X5263229Y-12102150D02*
X5282277Y-12111674D01*
X5282277Y-12111674D02*
X5291801Y-12130722D01*
X5291801Y-12130722D02*
X5291801Y-12235484D01*
X5291801Y-12130722D02*
X5301325Y-12111674D01*
X5301325Y-12111674D02*
X5320372Y-12102150D01*
X5320372Y-12102150D02*
X5348944Y-12102150D01*
X5348944Y-12102150D02*
X5367991Y-12111674D01*
X5367991Y-12111674D02*
X5377515Y-12130722D01*
X5377515Y-12130722D02*
X5377515Y-12235484D01*
X5767991Y-12025960D02*
X5596563Y-12283103D01*
X6025134Y-12035484D02*
X6044182Y-12035484D01*
X6044182Y-12035484D02*
X6063229Y-12045008D01*
X6063229Y-12045008D02*
X6072753Y-12054531D01*
X6072753Y-12054531D02*
X6082277Y-12073579D01*
X6082277Y-12073579D02*
X6091801Y-12111674D01*
X6091801Y-12111674D02*
X6091801Y-12159293D01*
X6091801Y-12159293D02*
X6082277Y-12197388D01*
X6082277Y-12197388D02*
X6072753Y-12216436D01*
X6072753Y-12216436D02*
X6063229Y-12225960D01*
X6063229Y-12225960D02*
X6044182Y-12235484D01*
X6044182Y-12235484D02*
X6025134Y-12235484D01*
X6025134Y-12235484D02*
X6006086Y-12225960D01*
X6006086Y-12225960D02*
X5996563Y-12216436D01*
X5996563Y-12216436D02*
X5987039Y-12197388D01*
X5987039Y-12197388D02*
X5977515Y-12159293D01*
X5977515Y-12159293D02*
X5977515Y-12111674D01*
X5977515Y-12111674D02*
X5987039Y-12073579D01*
X5987039Y-12073579D02*
X5996563Y-12054531D01*
X5996563Y-12054531D02*
X6006086Y-12045008D01*
X6006086Y-12045008D02*
X6025134Y-12035484D01*
X6177515Y-12216436D02*
X6187039Y-12225960D01*
X6187039Y-12225960D02*
X6177515Y-12235484D01*
X6177515Y-12235484D02*
X6167991Y-12225960D01*
X6167991Y-12225960D02*
X6177515Y-12216436D01*
X6177515Y-12216436D02*
X6177515Y-12235484D01*
X6310848Y-12035484D02*
X6329896Y-12035484D01*
X6329896Y-12035484D02*
X6348944Y-12045008D01*
X6348944Y-12045008D02*
X6358467Y-12054531D01*
X6358467Y-12054531D02*
X6367991Y-12073579D01*
X6367991Y-12073579D02*
X6377515Y-12111674D01*
X6377515Y-12111674D02*
X6377515Y-12159293D01*
X6377515Y-12159293D02*
X6367991Y-12197388D01*
X6367991Y-12197388D02*
X6358467Y-12216436D01*
X6358467Y-12216436D02*
X6348944Y-12225960D01*
X6348944Y-12225960D02*
X6329896Y-12235484D01*
X6329896Y-12235484D02*
X6310848Y-12235484D01*
X6310848Y-12235484D02*
X6291801Y-12225960D01*
X6291801Y-12225960D02*
X6282277Y-12216436D01*
X6282277Y-12216436D02*
X6272753Y-12197388D01*
X6272753Y-12197388D02*
X6263229Y-12159293D01*
X6263229Y-12159293D02*
X6263229Y-12111674D01*
X6263229Y-12111674D02*
X6272753Y-12073579D01*
X6272753Y-12073579D02*
X6282277Y-12054531D01*
X6282277Y-12054531D02*
X6291801Y-12045008D01*
X6291801Y-12045008D02*
X6310848Y-12035484D01*
X6444182Y-12035484D02*
X6567991Y-12035484D01*
X6567991Y-12035484D02*
X6501325Y-12111674D01*
X6501325Y-12111674D02*
X6529896Y-12111674D01*
X6529896Y-12111674D02*
X6548944Y-12121198D01*
X6548944Y-12121198D02*
X6558467Y-12130722D01*
X6558467Y-12130722D02*
X6567991Y-12149769D01*
X6567991Y-12149769D02*
X6567991Y-12197388D01*
X6567991Y-12197388D02*
X6558467Y-12216436D01*
X6558467Y-12216436D02*
X6548944Y-12225960D01*
X6548944Y-12225960D02*
X6529896Y-12235484D01*
X6529896Y-12235484D02*
X6472753Y-12235484D01*
X6472753Y-12235484D02*
X6453706Y-12225960D01*
X6453706Y-12225960D02*
X6444182Y-12216436D01*
X6758467Y-12235484D02*
X6644182Y-12235484D01*
X6701325Y-12235484D02*
X6701325Y-12035484D01*
X6701325Y-12035484D02*
X6682277Y-12064055D01*
X6682277Y-12064055D02*
X6663229Y-12083103D01*
X6663229Y-12083103D02*
X6644182Y-12092627D01*
X6939420Y-12035484D02*
X6844182Y-12035484D01*
X6844182Y-12035484D02*
X6834658Y-12130722D01*
X6834658Y-12130722D02*
X6844182Y-12121198D01*
X6844182Y-12121198D02*
X6863229Y-12111674D01*
X6863229Y-12111674D02*
X6910848Y-12111674D01*
X6910848Y-12111674D02*
X6929896Y-12121198D01*
X6929896Y-12121198D02*
X6939420Y-12130722D01*
X6939420Y-12130722D02*
X6948944Y-12149769D01*
X6948944Y-12149769D02*
X6948944Y-12197388D01*
X6948944Y-12197388D02*
X6939420Y-12216436D01*
X6939420Y-12216436D02*
X6929896Y-12225960D01*
X6929896Y-12225960D02*
X6910848Y-12235484D01*
X6910848Y-12235484D02*
X6863229Y-12235484D01*
X6863229Y-12235484D02*
X6844182Y-12225960D01*
X6844182Y-12225960D02*
X6834658Y-12216436D01*
X7025134Y-12035484D02*
X7025134Y-12073579D01*
X7101325Y-12035484D02*
X7101325Y-12073579D01*
X7396563Y-12311674D02*
X7387039Y-12302150D01*
X7387039Y-12302150D02*
X7367991Y-12273579D01*
X7367991Y-12273579D02*
X7358468Y-12254531D01*
X7358468Y-12254531D02*
X7348944Y-12225960D01*
X7348944Y-12225960D02*
X7339420Y-12178341D01*
X7339420Y-12178341D02*
X7339420Y-12140246D01*
X7339420Y-12140246D02*
X7348944Y-12092627D01*
X7348944Y-12092627D02*
X7358468Y-12064055D01*
X7358468Y-12064055D02*
X7367991Y-12045008D01*
X7367991Y-12045008D02*
X7387039Y-12016436D01*
X7387039Y-12016436D02*
X7396563Y-12006912D01*
X7453706Y-12035484D02*
X7587039Y-12035484D01*
X7587039Y-12035484D02*
X7501325Y-12235484D01*
X7701325Y-12035484D02*
X7720372Y-12035484D01*
X7720372Y-12035484D02*
X7739420Y-12045008D01*
X7739420Y-12045008D02*
X7748944Y-12054531D01*
X7748944Y-12054531D02*
X7758468Y-12073579D01*
X7758468Y-12073579D02*
X7767991Y-12111674D01*
X7767991Y-12111674D02*
X7767991Y-12159293D01*
X7767991Y-12159293D02*
X7758468Y-12197388D01*
X7758468Y-12197388D02*
X7748944Y-12216436D01*
X7748944Y-12216436D02*
X7739420Y-12225960D01*
X7739420Y-12225960D02*
X7720372Y-12235484D01*
X7720372Y-12235484D02*
X7701325Y-12235484D01*
X7701325Y-12235484D02*
X7682277Y-12225960D01*
X7682277Y-12225960D02*
X7672753Y-12216436D01*
X7672753Y-12216436D02*
X7663229Y-12197388D01*
X7663229Y-12197388D02*
X7653706Y-12159293D01*
X7653706Y-12159293D02*
X7653706Y-12111674D01*
X7653706Y-12111674D02*
X7663229Y-12073579D01*
X7663229Y-12073579D02*
X7672753Y-12054531D01*
X7672753Y-12054531D02*
X7682277Y-12045008D01*
X7682277Y-12045008D02*
X7701325Y-12035484D01*
X8006087Y-12235484D02*
X8006087Y-12035484D01*
X8091801Y-12235484D02*
X8091801Y-12130722D01*
X8091801Y-12130722D02*
X8082277Y-12111674D01*
X8082277Y-12111674D02*
X8063230Y-12102150D01*
X8063230Y-12102150D02*
X8034658Y-12102150D01*
X8034658Y-12102150D02*
X8015610Y-12111674D01*
X8015610Y-12111674D02*
X8006087Y-12121198D01*
X8215610Y-12235484D02*
X8196563Y-12225960D01*
X8196563Y-12225960D02*
X8187039Y-12216436D01*
X8187039Y-12216436D02*
X8177515Y-12197388D01*
X8177515Y-12197388D02*
X8177515Y-12140246D01*
X8177515Y-12140246D02*
X8187039Y-12121198D01*
X8187039Y-12121198D02*
X8196563Y-12111674D01*
X8196563Y-12111674D02*
X8215610Y-12102150D01*
X8215610Y-12102150D02*
X8244182Y-12102150D01*
X8244182Y-12102150D02*
X8263230Y-12111674D01*
X8263230Y-12111674D02*
X8272753Y-12121198D01*
X8272753Y-12121198D02*
X8282277Y-12140246D01*
X8282277Y-12140246D02*
X8282277Y-12197388D01*
X8282277Y-12197388D02*
X8272753Y-12216436D01*
X8272753Y-12216436D02*
X8263230Y-12225960D01*
X8263230Y-12225960D02*
X8244182Y-12235484D01*
X8244182Y-12235484D02*
X8215610Y-12235484D01*
X8396563Y-12235484D02*
X8377515Y-12225960D01*
X8377515Y-12225960D02*
X8367991Y-12206912D01*
X8367991Y-12206912D02*
X8367991Y-12035484D01*
X8548944Y-12225960D02*
X8529896Y-12235484D01*
X8529896Y-12235484D02*
X8491801Y-12235484D01*
X8491801Y-12235484D02*
X8472753Y-12225960D01*
X8472753Y-12225960D02*
X8463230Y-12206912D01*
X8463230Y-12206912D02*
X8463230Y-12130722D01*
X8463230Y-12130722D02*
X8472753Y-12111674D01*
X8472753Y-12111674D02*
X8491801Y-12102150D01*
X8491801Y-12102150D02*
X8529896Y-12102150D01*
X8529896Y-12102150D02*
X8548944Y-12111674D01*
X8548944Y-12111674D02*
X8558468Y-12130722D01*
X8558468Y-12130722D02*
X8558468Y-12149769D01*
X8558468Y-12149769D02*
X8463230Y-12168817D01*
X8634658Y-12225960D02*
X8653706Y-12235484D01*
X8653706Y-12235484D02*
X8691801Y-12235484D01*
X8691801Y-12235484D02*
X8710849Y-12225960D01*
X8710849Y-12225960D02*
X8720373Y-12206912D01*
X8720373Y-12206912D02*
X8720373Y-12197388D01*
X8720373Y-12197388D02*
X8710849Y-12178341D01*
X8710849Y-12178341D02*
X8691801Y-12168817D01*
X8691801Y-12168817D02*
X8663230Y-12168817D01*
X8663230Y-12168817D02*
X8644182Y-12159293D01*
X8644182Y-12159293D02*
X8634658Y-12140246D01*
X8634658Y-12140246D02*
X8634658Y-12130722D01*
X8634658Y-12130722D02*
X8644182Y-12111674D01*
X8644182Y-12111674D02*
X8663230Y-12102150D01*
X8663230Y-12102150D02*
X8691801Y-12102150D01*
X8691801Y-12102150D02*
X8710849Y-12111674D01*
X8787039Y-12311674D02*
X8796563Y-12302150D01*
X8796563Y-12302150D02*
X8815611Y-12273579D01*
X8815611Y-12273579D02*
X8825134Y-12254531D01*
X8825134Y-12254531D02*
X8834658Y-12225960D01*
X8834658Y-12225960D02*
X8844182Y-12178341D01*
X8844182Y-12178341D02*
X8844182Y-12140246D01*
X8844182Y-12140246D02*
X8834658Y-12092627D01*
X8834658Y-12092627D02*
X8825134Y-12064055D01*
X8825134Y-12064055D02*
X8815611Y-12045008D01*
X8815611Y-12045008D02*
X8796563Y-12016436D01*
X8796563Y-12016436D02*
X8787039Y-12006912D01*
D12*
X3776500Y-12363000D02*
X3776500Y-12453000D01*
X3731500Y-12408000D02*
X3821500Y-12408000D01*
D11*
X4120372Y-12299484D02*
X4139420Y-12299484D01*
X4139420Y-12299484D02*
X4158467Y-12309008D01*
X4158467Y-12309008D02*
X4167991Y-12318531D01*
X4167991Y-12318531D02*
X4177515Y-12337579D01*
X4177515Y-12337579D02*
X4187039Y-12375674D01*
X4187039Y-12375674D02*
X4187039Y-12423293D01*
X4187039Y-12423293D02*
X4177515Y-12461388D01*
X4177515Y-12461388D02*
X4167991Y-12480436D01*
X4167991Y-12480436D02*
X4158467Y-12489960D01*
X4158467Y-12489960D02*
X4139420Y-12499484D01*
X4139420Y-12499484D02*
X4120372Y-12499484D01*
X4120372Y-12499484D02*
X4101324Y-12489960D01*
X4101324Y-12489960D02*
X4091801Y-12480436D01*
X4091801Y-12480436D02*
X4082277Y-12461388D01*
X4082277Y-12461388D02*
X4072753Y-12423293D01*
X4072753Y-12423293D02*
X4072753Y-12375674D01*
X4072753Y-12375674D02*
X4082277Y-12337579D01*
X4082277Y-12337579D02*
X4091801Y-12318531D01*
X4091801Y-12318531D02*
X4101324Y-12309008D01*
X4101324Y-12309008D02*
X4120372Y-12299484D01*
X4272753Y-12480436D02*
X4282277Y-12489960D01*
X4282277Y-12489960D02*
X4272753Y-12499484D01*
X4272753Y-12499484D02*
X4263229Y-12489960D01*
X4263229Y-12489960D02*
X4272753Y-12480436D01*
X4272753Y-12480436D02*
X4272753Y-12499484D01*
X4377515Y-12499484D02*
X4415610Y-12499484D01*
X4415610Y-12499484D02*
X4434658Y-12489960D01*
X4434658Y-12489960D02*
X4444182Y-12480436D01*
X4444182Y-12480436D02*
X4463229Y-12451865D01*
X4463229Y-12451865D02*
X4472753Y-12413769D01*
X4472753Y-12413769D02*
X4472753Y-12337579D01*
X4472753Y-12337579D02*
X4463229Y-12318531D01*
X4463229Y-12318531D02*
X4453705Y-12309008D01*
X4453705Y-12309008D02*
X4434658Y-12299484D01*
X4434658Y-12299484D02*
X4396563Y-12299484D01*
X4396563Y-12299484D02*
X4377515Y-12309008D01*
X4377515Y-12309008D02*
X4367991Y-12318531D01*
X4367991Y-12318531D02*
X4358467Y-12337579D01*
X4358467Y-12337579D02*
X4358467Y-12385198D01*
X4358467Y-12385198D02*
X4367991Y-12404246D01*
X4367991Y-12404246D02*
X4377515Y-12413769D01*
X4377515Y-12413769D02*
X4396563Y-12423293D01*
X4396563Y-12423293D02*
X4434658Y-12423293D01*
X4434658Y-12423293D02*
X4453705Y-12413769D01*
X4453705Y-12413769D02*
X4463229Y-12404246D01*
X4463229Y-12404246D02*
X4472753Y-12385198D01*
X4596563Y-12299484D02*
X4615610Y-12299484D01*
X4615610Y-12299484D02*
X4634658Y-12309008D01*
X4634658Y-12309008D02*
X4644182Y-12318531D01*
X4644182Y-12318531D02*
X4653705Y-12337579D01*
X4653705Y-12337579D02*
X4663229Y-12375674D01*
X4663229Y-12375674D02*
X4663229Y-12423293D01*
X4663229Y-12423293D02*
X4653705Y-12461388D01*
X4653705Y-12461388D02*
X4644182Y-12480436D01*
X4644182Y-12480436D02*
X4634658Y-12489960D01*
X4634658Y-12489960D02*
X4615610Y-12499484D01*
X4615610Y-12499484D02*
X4596563Y-12499484D01*
X4596563Y-12499484D02*
X4577515Y-12489960D01*
X4577515Y-12489960D02*
X4567991Y-12480436D01*
X4567991Y-12480436D02*
X4558467Y-12461388D01*
X4558467Y-12461388D02*
X4548944Y-12423293D01*
X4548944Y-12423293D02*
X4548944Y-12375674D01*
X4548944Y-12375674D02*
X4558467Y-12337579D01*
X4558467Y-12337579D02*
X4567991Y-12318531D01*
X4567991Y-12318531D02*
X4577515Y-12309008D01*
X4577515Y-12309008D02*
X4596563Y-12299484D01*
X4787039Y-12299484D02*
X4806086Y-12299484D01*
X4806086Y-12299484D02*
X4825134Y-12309008D01*
X4825134Y-12309008D02*
X4834658Y-12318531D01*
X4834658Y-12318531D02*
X4844182Y-12337579D01*
X4844182Y-12337579D02*
X4853705Y-12375674D01*
X4853705Y-12375674D02*
X4853705Y-12423293D01*
X4853705Y-12423293D02*
X4844182Y-12461388D01*
X4844182Y-12461388D02*
X4834658Y-12480436D01*
X4834658Y-12480436D02*
X4825134Y-12489960D01*
X4825134Y-12489960D02*
X4806086Y-12499484D01*
X4806086Y-12499484D02*
X4787039Y-12499484D01*
X4787039Y-12499484D02*
X4767991Y-12489960D01*
X4767991Y-12489960D02*
X4758467Y-12480436D01*
X4758467Y-12480436D02*
X4748944Y-12461388D01*
X4748944Y-12461388D02*
X4739420Y-12423293D01*
X4739420Y-12423293D02*
X4739420Y-12375674D01*
X4739420Y-12375674D02*
X4748944Y-12337579D01*
X4748944Y-12337579D02*
X4758467Y-12318531D01*
X4758467Y-12318531D02*
X4767991Y-12309008D01*
X4767991Y-12309008D02*
X4787039Y-12299484D01*
X4939420Y-12499484D02*
X4939420Y-12366150D01*
X4939420Y-12385198D02*
X4948944Y-12375674D01*
X4948944Y-12375674D02*
X4967991Y-12366150D01*
X4967991Y-12366150D02*
X4996563Y-12366150D01*
X4996563Y-12366150D02*
X5015610Y-12375674D01*
X5015610Y-12375674D02*
X5025134Y-12394722D01*
X5025134Y-12394722D02*
X5025134Y-12499484D01*
X5025134Y-12394722D02*
X5034658Y-12375674D01*
X5034658Y-12375674D02*
X5053705Y-12366150D01*
X5053705Y-12366150D02*
X5082277Y-12366150D01*
X5082277Y-12366150D02*
X5101325Y-12375674D01*
X5101325Y-12375674D02*
X5110848Y-12394722D01*
X5110848Y-12394722D02*
X5110848Y-12499484D01*
X5206086Y-12499484D02*
X5206086Y-12366150D01*
X5206086Y-12385198D02*
X5215610Y-12375674D01*
X5215610Y-12375674D02*
X5234658Y-12366150D01*
X5234658Y-12366150D02*
X5263229Y-12366150D01*
X5263229Y-12366150D02*
X5282277Y-12375674D01*
X5282277Y-12375674D02*
X5291801Y-12394722D01*
X5291801Y-12394722D02*
X5291801Y-12499484D01*
X5291801Y-12394722D02*
X5301325Y-12375674D01*
X5301325Y-12375674D02*
X5320372Y-12366150D01*
X5320372Y-12366150D02*
X5348944Y-12366150D01*
X5348944Y-12366150D02*
X5367991Y-12375674D01*
X5367991Y-12375674D02*
X5377515Y-12394722D01*
X5377515Y-12394722D02*
X5377515Y-12499484D01*
X5767991Y-12289960D02*
X5596563Y-12547103D01*
X6025134Y-12299484D02*
X6044182Y-12299484D01*
X6044182Y-12299484D02*
X6063229Y-12309008D01*
X6063229Y-12309008D02*
X6072753Y-12318531D01*
X6072753Y-12318531D02*
X6082277Y-12337579D01*
X6082277Y-12337579D02*
X6091801Y-12375674D01*
X6091801Y-12375674D02*
X6091801Y-12423293D01*
X6091801Y-12423293D02*
X6082277Y-12461388D01*
X6082277Y-12461388D02*
X6072753Y-12480436D01*
X6072753Y-12480436D02*
X6063229Y-12489960D01*
X6063229Y-12489960D02*
X6044182Y-12499484D01*
X6044182Y-12499484D02*
X6025134Y-12499484D01*
X6025134Y-12499484D02*
X6006086Y-12489960D01*
X6006086Y-12489960D02*
X5996563Y-12480436D01*
X5996563Y-12480436D02*
X5987039Y-12461388D01*
X5987039Y-12461388D02*
X5977515Y-12423293D01*
X5977515Y-12423293D02*
X5977515Y-12375674D01*
X5977515Y-12375674D02*
X5987039Y-12337579D01*
X5987039Y-12337579D02*
X5996563Y-12318531D01*
X5996563Y-12318531D02*
X6006086Y-12309008D01*
X6006086Y-12309008D02*
X6025134Y-12299484D01*
X6177515Y-12480436D02*
X6187039Y-12489960D01*
X6187039Y-12489960D02*
X6177515Y-12499484D01*
X6177515Y-12499484D02*
X6167991Y-12489960D01*
X6167991Y-12489960D02*
X6177515Y-12480436D01*
X6177515Y-12480436D02*
X6177515Y-12499484D01*
X6310848Y-12299484D02*
X6329896Y-12299484D01*
X6329896Y-12299484D02*
X6348944Y-12309008D01*
X6348944Y-12309008D02*
X6358467Y-12318531D01*
X6358467Y-12318531D02*
X6367991Y-12337579D01*
X6367991Y-12337579D02*
X6377515Y-12375674D01*
X6377515Y-12375674D02*
X6377515Y-12423293D01*
X6377515Y-12423293D02*
X6367991Y-12461388D01*
X6367991Y-12461388D02*
X6358467Y-12480436D01*
X6358467Y-12480436D02*
X6348944Y-12489960D01*
X6348944Y-12489960D02*
X6329896Y-12499484D01*
X6329896Y-12499484D02*
X6310848Y-12499484D01*
X6310848Y-12499484D02*
X6291801Y-12489960D01*
X6291801Y-12489960D02*
X6282277Y-12480436D01*
X6282277Y-12480436D02*
X6272753Y-12461388D01*
X6272753Y-12461388D02*
X6263229Y-12423293D01*
X6263229Y-12423293D02*
X6263229Y-12375674D01*
X6263229Y-12375674D02*
X6272753Y-12337579D01*
X6272753Y-12337579D02*
X6282277Y-12318531D01*
X6282277Y-12318531D02*
X6291801Y-12309008D01*
X6291801Y-12309008D02*
X6310848Y-12299484D01*
X6444182Y-12299484D02*
X6567991Y-12299484D01*
X6567991Y-12299484D02*
X6501325Y-12375674D01*
X6501325Y-12375674D02*
X6529896Y-12375674D01*
X6529896Y-12375674D02*
X6548944Y-12385198D01*
X6548944Y-12385198D02*
X6558467Y-12394722D01*
X6558467Y-12394722D02*
X6567991Y-12413769D01*
X6567991Y-12413769D02*
X6567991Y-12461388D01*
X6567991Y-12461388D02*
X6558467Y-12480436D01*
X6558467Y-12480436D02*
X6548944Y-12489960D01*
X6548944Y-12489960D02*
X6529896Y-12499484D01*
X6529896Y-12499484D02*
X6472753Y-12499484D01*
X6472753Y-12499484D02*
X6453706Y-12489960D01*
X6453706Y-12489960D02*
X6444182Y-12480436D01*
X6748944Y-12299484D02*
X6653706Y-12299484D01*
X6653706Y-12299484D02*
X6644182Y-12394722D01*
X6644182Y-12394722D02*
X6653706Y-12385198D01*
X6653706Y-12385198D02*
X6672753Y-12375674D01*
X6672753Y-12375674D02*
X6720372Y-12375674D01*
X6720372Y-12375674D02*
X6739420Y-12385198D01*
X6739420Y-12385198D02*
X6748944Y-12394722D01*
X6748944Y-12394722D02*
X6758467Y-12413769D01*
X6758467Y-12413769D02*
X6758467Y-12461388D01*
X6758467Y-12461388D02*
X6748944Y-12480436D01*
X6748944Y-12480436D02*
X6739420Y-12489960D01*
X6739420Y-12489960D02*
X6720372Y-12499484D01*
X6720372Y-12499484D02*
X6672753Y-12499484D01*
X6672753Y-12499484D02*
X6653706Y-12489960D01*
X6653706Y-12489960D02*
X6644182Y-12480436D01*
X6929896Y-12366150D02*
X6929896Y-12499484D01*
X6882277Y-12289960D02*
X6834658Y-12432817D01*
X6834658Y-12432817D02*
X6958467Y-12432817D01*
X7025134Y-12299484D02*
X7025134Y-12337579D01*
X7101325Y-12299484D02*
X7101325Y-12337579D01*
X7396563Y-12575674D02*
X7387039Y-12566150D01*
X7387039Y-12566150D02*
X7367991Y-12537579D01*
X7367991Y-12537579D02*
X7358468Y-12518531D01*
X7358468Y-12518531D02*
X7348944Y-12489960D01*
X7348944Y-12489960D02*
X7339420Y-12442341D01*
X7339420Y-12442341D02*
X7339420Y-12404246D01*
X7339420Y-12404246D02*
X7348944Y-12356627D01*
X7348944Y-12356627D02*
X7358468Y-12328055D01*
X7358468Y-12328055D02*
X7367991Y-12309008D01*
X7367991Y-12309008D02*
X7387039Y-12280436D01*
X7387039Y-12280436D02*
X7396563Y-12270912D01*
X7577515Y-12499484D02*
X7463229Y-12499484D01*
X7520372Y-12499484D02*
X7520372Y-12299484D01*
X7520372Y-12299484D02*
X7501325Y-12328055D01*
X7501325Y-12328055D02*
X7482277Y-12347103D01*
X7482277Y-12347103D02*
X7463229Y-12356627D01*
X7701325Y-12299484D02*
X7720372Y-12299484D01*
X7720372Y-12299484D02*
X7739420Y-12309008D01*
X7739420Y-12309008D02*
X7748944Y-12318531D01*
X7748944Y-12318531D02*
X7758468Y-12337579D01*
X7758468Y-12337579D02*
X7767991Y-12375674D01*
X7767991Y-12375674D02*
X7767991Y-12423293D01*
X7767991Y-12423293D02*
X7758468Y-12461388D01*
X7758468Y-12461388D02*
X7748944Y-12480436D01*
X7748944Y-12480436D02*
X7739420Y-12489960D01*
X7739420Y-12489960D02*
X7720372Y-12499484D01*
X7720372Y-12499484D02*
X7701325Y-12499484D01*
X7701325Y-12499484D02*
X7682277Y-12489960D01*
X7682277Y-12489960D02*
X7672753Y-12480436D01*
X7672753Y-12480436D02*
X7663229Y-12461388D01*
X7663229Y-12461388D02*
X7653706Y-12423293D01*
X7653706Y-12423293D02*
X7653706Y-12375674D01*
X7653706Y-12375674D02*
X7663229Y-12337579D01*
X7663229Y-12337579D02*
X7672753Y-12318531D01*
X7672753Y-12318531D02*
X7682277Y-12309008D01*
X7682277Y-12309008D02*
X7701325Y-12299484D01*
X8006087Y-12499484D02*
X8006087Y-12299484D01*
X8091801Y-12499484D02*
X8091801Y-12394722D01*
X8091801Y-12394722D02*
X8082277Y-12375674D01*
X8082277Y-12375674D02*
X8063230Y-12366150D01*
X8063230Y-12366150D02*
X8034658Y-12366150D01*
X8034658Y-12366150D02*
X8015610Y-12375674D01*
X8015610Y-12375674D02*
X8006087Y-12385198D01*
X8215610Y-12499484D02*
X8196563Y-12489960D01*
X8196563Y-12489960D02*
X8187039Y-12480436D01*
X8187039Y-12480436D02*
X8177515Y-12461388D01*
X8177515Y-12461388D02*
X8177515Y-12404246D01*
X8177515Y-12404246D02*
X8187039Y-12385198D01*
X8187039Y-12385198D02*
X8196563Y-12375674D01*
X8196563Y-12375674D02*
X8215610Y-12366150D01*
X8215610Y-12366150D02*
X8244182Y-12366150D01*
X8244182Y-12366150D02*
X8263230Y-12375674D01*
X8263230Y-12375674D02*
X8272753Y-12385198D01*
X8272753Y-12385198D02*
X8282277Y-12404246D01*
X8282277Y-12404246D02*
X8282277Y-12461388D01*
X8282277Y-12461388D02*
X8272753Y-12480436D01*
X8272753Y-12480436D02*
X8263230Y-12489960D01*
X8263230Y-12489960D02*
X8244182Y-12499484D01*
X8244182Y-12499484D02*
X8215610Y-12499484D01*
X8396563Y-12499484D02*
X8377515Y-12489960D01*
X8377515Y-12489960D02*
X8367991Y-12470912D01*
X8367991Y-12470912D02*
X8367991Y-12299484D01*
X8548944Y-12489960D02*
X8529896Y-12499484D01*
X8529896Y-12499484D02*
X8491801Y-12499484D01*
X8491801Y-12499484D02*
X8472753Y-12489960D01*
X8472753Y-12489960D02*
X8463230Y-12470912D01*
X8463230Y-12470912D02*
X8463230Y-12394722D01*
X8463230Y-12394722D02*
X8472753Y-12375674D01*
X8472753Y-12375674D02*
X8491801Y-12366150D01*
X8491801Y-12366150D02*
X8529896Y-12366150D01*
X8529896Y-12366150D02*
X8548944Y-12375674D01*
X8548944Y-12375674D02*
X8558468Y-12394722D01*
X8558468Y-12394722D02*
X8558468Y-12413769D01*
X8558468Y-12413769D02*
X8463230Y-12432817D01*
X8634658Y-12489960D02*
X8653706Y-12499484D01*
X8653706Y-12499484D02*
X8691801Y-12499484D01*
X8691801Y-12499484D02*
X8710849Y-12489960D01*
X8710849Y-12489960D02*
X8720373Y-12470912D01*
X8720373Y-12470912D02*
X8720373Y-12461388D01*
X8720373Y-12461388D02*
X8710849Y-12442341D01*
X8710849Y-12442341D02*
X8691801Y-12432817D01*
X8691801Y-12432817D02*
X8663230Y-12432817D01*
X8663230Y-12432817D02*
X8644182Y-12423293D01*
X8644182Y-12423293D02*
X8634658Y-12404246D01*
X8634658Y-12404246D02*
X8634658Y-12394722D01*
X8634658Y-12394722D02*
X8644182Y-12375674D01*
X8644182Y-12375674D02*
X8663230Y-12366150D01*
X8663230Y-12366150D02*
X8691801Y-12366150D01*
X8691801Y-12366150D02*
X8710849Y-12375674D01*
X8787039Y-12575674D02*
X8796563Y-12566150D01*
X8796563Y-12566150D02*
X8815611Y-12537579D01*
X8815611Y-12537579D02*
X8825134Y-12518531D01*
X8825134Y-12518531D02*
X8834658Y-12489960D01*
X8834658Y-12489960D02*
X8844182Y-12442341D01*
X8844182Y-12442341D02*
X8844182Y-12404246D01*
X8844182Y-12404246D02*
X8834658Y-12356627D01*
X8834658Y-12356627D02*
X8825134Y-12328055D01*
X8825134Y-12328055D02*
X8815611Y-12309008D01*
X8815611Y-12309008D02*
X8796563Y-12280436D01*
X8796563Y-12280436D02*
X8787039Y-12270912D01*
D12*
X3806856Y-12707356D02*
X3806856Y-12636644D01*
X3736144Y-12636644D01*
X3736144Y-12707356D01*
X3806856Y-12707356D01*
D11*
X4187039Y-12763484D02*
X4072753Y-12763484D01*
X4129896Y-12763484D02*
X4129896Y-12563484D01*
X4129896Y-12563484D02*
X4110848Y-12592055D01*
X4110848Y-12592055D02*
X4091801Y-12611103D01*
X4091801Y-12611103D02*
X4072753Y-12620627D01*
X4272753Y-12744436D02*
X4282277Y-12753960D01*
X4282277Y-12753960D02*
X4272753Y-12763484D01*
X4272753Y-12763484D02*
X4263229Y-12753960D01*
X4263229Y-12753960D02*
X4272753Y-12744436D01*
X4272753Y-12744436D02*
X4272753Y-12763484D01*
X4406086Y-12563484D02*
X4425134Y-12563484D01*
X4425134Y-12563484D02*
X4444182Y-12573008D01*
X4444182Y-12573008D02*
X4453705Y-12582531D01*
X4453705Y-12582531D02*
X4463229Y-12601579D01*
X4463229Y-12601579D02*
X4472753Y-12639674D01*
X4472753Y-12639674D02*
X4472753Y-12687293D01*
X4472753Y-12687293D02*
X4463229Y-12725388D01*
X4463229Y-12725388D02*
X4453705Y-12744436D01*
X4453705Y-12744436D02*
X4444182Y-12753960D01*
X4444182Y-12753960D02*
X4425134Y-12763484D01*
X4425134Y-12763484D02*
X4406086Y-12763484D01*
X4406086Y-12763484D02*
X4387039Y-12753960D01*
X4387039Y-12753960D02*
X4377515Y-12744436D01*
X4377515Y-12744436D02*
X4367991Y-12725388D01*
X4367991Y-12725388D02*
X4358467Y-12687293D01*
X4358467Y-12687293D02*
X4358467Y-12639674D01*
X4358467Y-12639674D02*
X4367991Y-12601579D01*
X4367991Y-12601579D02*
X4377515Y-12582531D01*
X4377515Y-12582531D02*
X4387039Y-12573008D01*
X4387039Y-12573008D02*
X4406086Y-12563484D01*
X4596563Y-12563484D02*
X4615610Y-12563484D01*
X4615610Y-12563484D02*
X4634658Y-12573008D01*
X4634658Y-12573008D02*
X4644182Y-12582531D01*
X4644182Y-12582531D02*
X4653705Y-12601579D01*
X4653705Y-12601579D02*
X4663229Y-12639674D01*
X4663229Y-12639674D02*
X4663229Y-12687293D01*
X4663229Y-12687293D02*
X4653705Y-12725388D01*
X4653705Y-12725388D02*
X4644182Y-12744436D01*
X4644182Y-12744436D02*
X4634658Y-12753960D01*
X4634658Y-12753960D02*
X4615610Y-12763484D01*
X4615610Y-12763484D02*
X4596563Y-12763484D01*
X4596563Y-12763484D02*
X4577515Y-12753960D01*
X4577515Y-12753960D02*
X4567991Y-12744436D01*
X4567991Y-12744436D02*
X4558467Y-12725388D01*
X4558467Y-12725388D02*
X4548944Y-12687293D01*
X4548944Y-12687293D02*
X4548944Y-12639674D01*
X4548944Y-12639674D02*
X4558467Y-12601579D01*
X4558467Y-12601579D02*
X4567991Y-12582531D01*
X4567991Y-12582531D02*
X4577515Y-12573008D01*
X4577515Y-12573008D02*
X4596563Y-12563484D01*
X4787039Y-12563484D02*
X4806086Y-12563484D01*
X4806086Y-12563484D02*
X4825134Y-12573008D01*
X4825134Y-12573008D02*
X4834658Y-12582531D01*
X4834658Y-12582531D02*
X4844182Y-12601579D01*
X4844182Y-12601579D02*
X4853705Y-12639674D01*
X4853705Y-12639674D02*
X4853705Y-12687293D01*
X4853705Y-12687293D02*
X4844182Y-12725388D01*
X4844182Y-12725388D02*
X4834658Y-12744436D01*
X4834658Y-12744436D02*
X4825134Y-12753960D01*
X4825134Y-12753960D02*
X4806086Y-12763484D01*
X4806086Y-12763484D02*
X4787039Y-12763484D01*
X4787039Y-12763484D02*
X4767991Y-12753960D01*
X4767991Y-12753960D02*
X4758467Y-12744436D01*
X4758467Y-12744436D02*
X4748944Y-12725388D01*
X4748944Y-12725388D02*
X4739420Y-12687293D01*
X4739420Y-12687293D02*
X4739420Y-12639674D01*
X4739420Y-12639674D02*
X4748944Y-12601579D01*
X4748944Y-12601579D02*
X4758467Y-12582531D01*
X4758467Y-12582531D02*
X4767991Y-12573008D01*
X4767991Y-12573008D02*
X4787039Y-12563484D01*
X4939420Y-12763484D02*
X4939420Y-12630150D01*
X4939420Y-12649198D02*
X4948944Y-12639674D01*
X4948944Y-12639674D02*
X4967991Y-12630150D01*
X4967991Y-12630150D02*
X4996563Y-12630150D01*
X4996563Y-12630150D02*
X5015610Y-12639674D01*
X5015610Y-12639674D02*
X5025134Y-12658722D01*
X5025134Y-12658722D02*
X5025134Y-12763484D01*
X5025134Y-12658722D02*
X5034658Y-12639674D01*
X5034658Y-12639674D02*
X5053705Y-12630150D01*
X5053705Y-12630150D02*
X5082277Y-12630150D01*
X5082277Y-12630150D02*
X5101325Y-12639674D01*
X5101325Y-12639674D02*
X5110848Y-12658722D01*
X5110848Y-12658722D02*
X5110848Y-12763484D01*
X5206086Y-12763484D02*
X5206086Y-12630150D01*
X5206086Y-12649198D02*
X5215610Y-12639674D01*
X5215610Y-12639674D02*
X5234658Y-12630150D01*
X5234658Y-12630150D02*
X5263229Y-12630150D01*
X5263229Y-12630150D02*
X5282277Y-12639674D01*
X5282277Y-12639674D02*
X5291801Y-12658722D01*
X5291801Y-12658722D02*
X5291801Y-12763484D01*
X5291801Y-12658722D02*
X5301325Y-12639674D01*
X5301325Y-12639674D02*
X5320372Y-12630150D01*
X5320372Y-12630150D02*
X5348944Y-12630150D01*
X5348944Y-12630150D02*
X5367991Y-12639674D01*
X5367991Y-12639674D02*
X5377515Y-12658722D01*
X5377515Y-12658722D02*
X5377515Y-12763484D01*
X5767991Y-12553960D02*
X5596563Y-12811103D01*
X6025134Y-12563484D02*
X6044182Y-12563484D01*
X6044182Y-12563484D02*
X6063229Y-12573008D01*
X6063229Y-12573008D02*
X6072753Y-12582531D01*
X6072753Y-12582531D02*
X6082277Y-12601579D01*
X6082277Y-12601579D02*
X6091801Y-12639674D01*
X6091801Y-12639674D02*
X6091801Y-12687293D01*
X6091801Y-12687293D02*
X6082277Y-12725388D01*
X6082277Y-12725388D02*
X6072753Y-12744436D01*
X6072753Y-12744436D02*
X6063229Y-12753960D01*
X6063229Y-12753960D02*
X6044182Y-12763484D01*
X6044182Y-12763484D02*
X6025134Y-12763484D01*
X6025134Y-12763484D02*
X6006086Y-12753960D01*
X6006086Y-12753960D02*
X5996563Y-12744436D01*
X5996563Y-12744436D02*
X5987039Y-12725388D01*
X5987039Y-12725388D02*
X5977515Y-12687293D01*
X5977515Y-12687293D02*
X5977515Y-12639674D01*
X5977515Y-12639674D02*
X5987039Y-12601579D01*
X5987039Y-12601579D02*
X5996563Y-12582531D01*
X5996563Y-12582531D02*
X6006086Y-12573008D01*
X6006086Y-12573008D02*
X6025134Y-12563484D01*
X6177515Y-12744436D02*
X6187039Y-12753960D01*
X6187039Y-12753960D02*
X6177515Y-12763484D01*
X6177515Y-12763484D02*
X6167991Y-12753960D01*
X6167991Y-12753960D02*
X6177515Y-12744436D01*
X6177515Y-12744436D02*
X6177515Y-12763484D01*
X6310848Y-12563484D02*
X6329896Y-12563484D01*
X6329896Y-12563484D02*
X6348944Y-12573008D01*
X6348944Y-12573008D02*
X6358467Y-12582531D01*
X6358467Y-12582531D02*
X6367991Y-12601579D01*
X6367991Y-12601579D02*
X6377515Y-12639674D01*
X6377515Y-12639674D02*
X6377515Y-12687293D01*
X6377515Y-12687293D02*
X6367991Y-12725388D01*
X6367991Y-12725388D02*
X6358467Y-12744436D01*
X6358467Y-12744436D02*
X6348944Y-12753960D01*
X6348944Y-12753960D02*
X6329896Y-12763484D01*
X6329896Y-12763484D02*
X6310848Y-12763484D01*
X6310848Y-12763484D02*
X6291801Y-12753960D01*
X6291801Y-12753960D02*
X6282277Y-12744436D01*
X6282277Y-12744436D02*
X6272753Y-12725388D01*
X6272753Y-12725388D02*
X6263229Y-12687293D01*
X6263229Y-12687293D02*
X6263229Y-12639674D01*
X6263229Y-12639674D02*
X6272753Y-12601579D01*
X6272753Y-12601579D02*
X6282277Y-12582531D01*
X6282277Y-12582531D02*
X6291801Y-12573008D01*
X6291801Y-12573008D02*
X6310848Y-12563484D01*
X6444182Y-12563484D02*
X6567991Y-12563484D01*
X6567991Y-12563484D02*
X6501325Y-12639674D01*
X6501325Y-12639674D02*
X6529896Y-12639674D01*
X6529896Y-12639674D02*
X6548944Y-12649198D01*
X6548944Y-12649198D02*
X6558467Y-12658722D01*
X6558467Y-12658722D02*
X6567991Y-12677769D01*
X6567991Y-12677769D02*
X6567991Y-12725388D01*
X6567991Y-12725388D02*
X6558467Y-12744436D01*
X6558467Y-12744436D02*
X6548944Y-12753960D01*
X6548944Y-12753960D02*
X6529896Y-12763484D01*
X6529896Y-12763484D02*
X6472753Y-12763484D01*
X6472753Y-12763484D02*
X6453706Y-12753960D01*
X6453706Y-12753960D02*
X6444182Y-12744436D01*
X6663229Y-12763484D02*
X6701325Y-12763484D01*
X6701325Y-12763484D02*
X6720372Y-12753960D01*
X6720372Y-12753960D02*
X6729896Y-12744436D01*
X6729896Y-12744436D02*
X6748944Y-12715865D01*
X6748944Y-12715865D02*
X6758467Y-12677769D01*
X6758467Y-12677769D02*
X6758467Y-12601579D01*
X6758467Y-12601579D02*
X6748944Y-12582531D01*
X6748944Y-12582531D02*
X6739420Y-12573008D01*
X6739420Y-12573008D02*
X6720372Y-12563484D01*
X6720372Y-12563484D02*
X6682277Y-12563484D01*
X6682277Y-12563484D02*
X6663229Y-12573008D01*
X6663229Y-12573008D02*
X6653706Y-12582531D01*
X6653706Y-12582531D02*
X6644182Y-12601579D01*
X6644182Y-12601579D02*
X6644182Y-12649198D01*
X6644182Y-12649198D02*
X6653706Y-12668246D01*
X6653706Y-12668246D02*
X6663229Y-12677769D01*
X6663229Y-12677769D02*
X6682277Y-12687293D01*
X6682277Y-12687293D02*
X6720372Y-12687293D01*
X6720372Y-12687293D02*
X6739420Y-12677769D01*
X6739420Y-12677769D02*
X6748944Y-12668246D01*
X6748944Y-12668246D02*
X6758467Y-12649198D01*
X6929896Y-12630150D02*
X6929896Y-12763484D01*
X6882277Y-12553960D02*
X6834658Y-12696817D01*
X6834658Y-12696817D02*
X6958467Y-12696817D01*
X7025134Y-12563484D02*
X7025134Y-12601579D01*
X7101325Y-12563484D02*
X7101325Y-12601579D01*
X7396563Y-12839674D02*
X7387039Y-12830150D01*
X7387039Y-12830150D02*
X7367991Y-12801579D01*
X7367991Y-12801579D02*
X7358468Y-12782531D01*
X7358468Y-12782531D02*
X7348944Y-12753960D01*
X7348944Y-12753960D02*
X7339420Y-12706341D01*
X7339420Y-12706341D02*
X7339420Y-12668246D01*
X7339420Y-12668246D02*
X7348944Y-12620627D01*
X7348944Y-12620627D02*
X7358468Y-12592055D01*
X7358468Y-12592055D02*
X7367991Y-12573008D01*
X7367991Y-12573008D02*
X7387039Y-12544436D01*
X7387039Y-12544436D02*
X7396563Y-12534912D01*
X7558468Y-12630150D02*
X7558468Y-12763484D01*
X7510848Y-12553960D02*
X7463229Y-12696817D01*
X7463229Y-12696817D02*
X7587039Y-12696817D01*
X7767991Y-12763484D02*
X7653706Y-12763484D01*
X7710848Y-12763484D02*
X7710848Y-12563484D01*
X7710848Y-12563484D02*
X7691801Y-12592055D01*
X7691801Y-12592055D02*
X7672753Y-12611103D01*
X7672753Y-12611103D02*
X7653706Y-12620627D01*
X8006087Y-12763484D02*
X8006087Y-12563484D01*
X8091801Y-12763484D02*
X8091801Y-12658722D01*
X8091801Y-12658722D02*
X8082277Y-12639674D01*
X8082277Y-12639674D02*
X8063230Y-12630150D01*
X8063230Y-12630150D02*
X8034658Y-12630150D01*
X8034658Y-12630150D02*
X8015610Y-12639674D01*
X8015610Y-12639674D02*
X8006087Y-12649198D01*
X8215610Y-12763484D02*
X8196563Y-12753960D01*
X8196563Y-12753960D02*
X8187039Y-12744436D01*
X8187039Y-12744436D02*
X8177515Y-12725388D01*
X8177515Y-12725388D02*
X8177515Y-12668246D01*
X8177515Y-12668246D02*
X8187039Y-12649198D01*
X8187039Y-12649198D02*
X8196563Y-12639674D01*
X8196563Y-12639674D02*
X8215610Y-12630150D01*
X8215610Y-12630150D02*
X8244182Y-12630150D01*
X8244182Y-12630150D02*
X8263230Y-12639674D01*
X8263230Y-12639674D02*
X8272753Y-12649198D01*
X8272753Y-12649198D02*
X8282277Y-12668246D01*
X8282277Y-12668246D02*
X8282277Y-12725388D01*
X8282277Y-12725388D02*
X8272753Y-12744436D01*
X8272753Y-12744436D02*
X8263230Y-12753960D01*
X8263230Y-12753960D02*
X8244182Y-12763484D01*
X8244182Y-12763484D02*
X8215610Y-12763484D01*
X8396563Y-12763484D02*
X8377515Y-12753960D01*
X8377515Y-12753960D02*
X8367991Y-12734912D01*
X8367991Y-12734912D02*
X8367991Y-12563484D01*
X8548944Y-12753960D02*
X8529896Y-12763484D01*
X8529896Y-12763484D02*
X8491801Y-12763484D01*
X8491801Y-12763484D02*
X8472753Y-12753960D01*
X8472753Y-12753960D02*
X8463230Y-12734912D01*
X8463230Y-12734912D02*
X8463230Y-12658722D01*
X8463230Y-12658722D02*
X8472753Y-12639674D01*
X8472753Y-12639674D02*
X8491801Y-12630150D01*
X8491801Y-12630150D02*
X8529896Y-12630150D01*
X8529896Y-12630150D02*
X8548944Y-12639674D01*
X8548944Y-12639674D02*
X8558468Y-12658722D01*
X8558468Y-12658722D02*
X8558468Y-12677769D01*
X8558468Y-12677769D02*
X8463230Y-12696817D01*
X8634658Y-12753960D02*
X8653706Y-12763484D01*
X8653706Y-12763484D02*
X8691801Y-12763484D01*
X8691801Y-12763484D02*
X8710849Y-12753960D01*
X8710849Y-12753960D02*
X8720373Y-12734912D01*
X8720373Y-12734912D02*
X8720373Y-12725388D01*
X8720373Y-12725388D02*
X8710849Y-12706341D01*
X8710849Y-12706341D02*
X8691801Y-12696817D01*
X8691801Y-12696817D02*
X8663230Y-12696817D01*
X8663230Y-12696817D02*
X8644182Y-12687293D01*
X8644182Y-12687293D02*
X8634658Y-12668246D01*
X8634658Y-12668246D02*
X8634658Y-12658722D01*
X8634658Y-12658722D02*
X8644182Y-12639674D01*
X8644182Y-12639674D02*
X8663230Y-12630150D01*
X8663230Y-12630150D02*
X8691801Y-12630150D01*
X8691801Y-12630150D02*
X8710849Y-12639674D01*
X8787039Y-12839674D02*
X8796563Y-12830150D01*
X8796563Y-12830150D02*
X8815611Y-12801579D01*
X8815611Y-12801579D02*
X8825134Y-12782531D01*
X8825134Y-12782531D02*
X8834658Y-12753960D01*
X8834658Y-12753960D02*
X8844182Y-12706341D01*
X8844182Y-12706341D02*
X8844182Y-12668246D01*
X8844182Y-12668246D02*
X8834658Y-12620627D01*
X8834658Y-12620627D02*
X8825134Y-12592055D01*
X8825134Y-12592055D02*
X8815611Y-12573008D01*
X8815611Y-12573008D02*
X8796563Y-12544436D01*
X8796563Y-12544436D02*
X8787039Y-12534912D01*
D12*
X3771500Y-12986000D02*
X3821500Y-12936000D01*
X3771500Y-12886000D01*
X3721500Y-12936000D01*
X3771500Y-12986000D01*
D11*
X4187039Y-13027484D02*
X4072753Y-13027484D01*
X4129896Y-13027484D02*
X4129896Y-12827484D01*
X4129896Y-12827484D02*
X4110848Y-12856055D01*
X4110848Y-12856055D02*
X4091801Y-12875103D01*
X4091801Y-12875103D02*
X4072753Y-12884627D01*
X4272753Y-13008436D02*
X4282277Y-13017960D01*
X4282277Y-13017960D02*
X4272753Y-13027484D01*
X4272753Y-13027484D02*
X4263229Y-13017960D01*
X4263229Y-13017960D02*
X4272753Y-13008436D01*
X4272753Y-13008436D02*
X4272753Y-13027484D01*
X4406086Y-12827484D02*
X4425134Y-12827484D01*
X4425134Y-12827484D02*
X4444182Y-12837008D01*
X4444182Y-12837008D02*
X4453705Y-12846531D01*
X4453705Y-12846531D02*
X4463229Y-12865579D01*
X4463229Y-12865579D02*
X4472753Y-12903674D01*
X4472753Y-12903674D02*
X4472753Y-12951293D01*
X4472753Y-12951293D02*
X4463229Y-12989388D01*
X4463229Y-12989388D02*
X4453705Y-13008436D01*
X4453705Y-13008436D02*
X4444182Y-13017960D01*
X4444182Y-13017960D02*
X4425134Y-13027484D01*
X4425134Y-13027484D02*
X4406086Y-13027484D01*
X4406086Y-13027484D02*
X4387039Y-13017960D01*
X4387039Y-13017960D02*
X4377515Y-13008436D01*
X4377515Y-13008436D02*
X4367991Y-12989388D01*
X4367991Y-12989388D02*
X4358467Y-12951293D01*
X4358467Y-12951293D02*
X4358467Y-12903674D01*
X4358467Y-12903674D02*
X4367991Y-12865579D01*
X4367991Y-12865579D02*
X4377515Y-12846531D01*
X4377515Y-12846531D02*
X4387039Y-12837008D01*
X4387039Y-12837008D02*
X4406086Y-12827484D01*
X4596563Y-12827484D02*
X4615610Y-12827484D01*
X4615610Y-12827484D02*
X4634658Y-12837008D01*
X4634658Y-12837008D02*
X4644182Y-12846531D01*
X4644182Y-12846531D02*
X4653705Y-12865579D01*
X4653705Y-12865579D02*
X4663229Y-12903674D01*
X4663229Y-12903674D02*
X4663229Y-12951293D01*
X4663229Y-12951293D02*
X4653705Y-12989388D01*
X4653705Y-12989388D02*
X4644182Y-13008436D01*
X4644182Y-13008436D02*
X4634658Y-13017960D01*
X4634658Y-13017960D02*
X4615610Y-13027484D01*
X4615610Y-13027484D02*
X4596563Y-13027484D01*
X4596563Y-13027484D02*
X4577515Y-13017960D01*
X4577515Y-13017960D02*
X4567991Y-13008436D01*
X4567991Y-13008436D02*
X4558467Y-12989388D01*
X4558467Y-12989388D02*
X4548944Y-12951293D01*
X4548944Y-12951293D02*
X4548944Y-12903674D01*
X4548944Y-12903674D02*
X4558467Y-12865579D01*
X4558467Y-12865579D02*
X4567991Y-12846531D01*
X4567991Y-12846531D02*
X4577515Y-12837008D01*
X4577515Y-12837008D02*
X4596563Y-12827484D01*
X4787039Y-12827484D02*
X4806086Y-12827484D01*
X4806086Y-12827484D02*
X4825134Y-12837008D01*
X4825134Y-12837008D02*
X4834658Y-12846531D01*
X4834658Y-12846531D02*
X4844182Y-12865579D01*
X4844182Y-12865579D02*
X4853705Y-12903674D01*
X4853705Y-12903674D02*
X4853705Y-12951293D01*
X4853705Y-12951293D02*
X4844182Y-12989388D01*
X4844182Y-12989388D02*
X4834658Y-13008436D01*
X4834658Y-13008436D02*
X4825134Y-13017960D01*
X4825134Y-13017960D02*
X4806086Y-13027484D01*
X4806086Y-13027484D02*
X4787039Y-13027484D01*
X4787039Y-13027484D02*
X4767991Y-13017960D01*
X4767991Y-13017960D02*
X4758467Y-13008436D01*
X4758467Y-13008436D02*
X4748944Y-12989388D01*
X4748944Y-12989388D02*
X4739420Y-12951293D01*
X4739420Y-12951293D02*
X4739420Y-12903674D01*
X4739420Y-12903674D02*
X4748944Y-12865579D01*
X4748944Y-12865579D02*
X4758467Y-12846531D01*
X4758467Y-12846531D02*
X4767991Y-12837008D01*
X4767991Y-12837008D02*
X4787039Y-12827484D01*
X4939420Y-13027484D02*
X4939420Y-12894150D01*
X4939420Y-12913198D02*
X4948944Y-12903674D01*
X4948944Y-12903674D02*
X4967991Y-12894150D01*
X4967991Y-12894150D02*
X4996563Y-12894150D01*
X4996563Y-12894150D02*
X5015610Y-12903674D01*
X5015610Y-12903674D02*
X5025134Y-12922722D01*
X5025134Y-12922722D02*
X5025134Y-13027484D01*
X5025134Y-12922722D02*
X5034658Y-12903674D01*
X5034658Y-12903674D02*
X5053705Y-12894150D01*
X5053705Y-12894150D02*
X5082277Y-12894150D01*
X5082277Y-12894150D02*
X5101325Y-12903674D01*
X5101325Y-12903674D02*
X5110848Y-12922722D01*
X5110848Y-12922722D02*
X5110848Y-13027484D01*
X5206086Y-13027484D02*
X5206086Y-12894150D01*
X5206086Y-12913198D02*
X5215610Y-12903674D01*
X5215610Y-12903674D02*
X5234658Y-12894150D01*
X5234658Y-12894150D02*
X5263229Y-12894150D01*
X5263229Y-12894150D02*
X5282277Y-12903674D01*
X5282277Y-12903674D02*
X5291801Y-12922722D01*
X5291801Y-12922722D02*
X5291801Y-13027484D01*
X5291801Y-12922722D02*
X5301325Y-12903674D01*
X5301325Y-12903674D02*
X5320372Y-12894150D01*
X5320372Y-12894150D02*
X5348944Y-12894150D01*
X5348944Y-12894150D02*
X5367991Y-12903674D01*
X5367991Y-12903674D02*
X5377515Y-12922722D01*
X5377515Y-12922722D02*
X5377515Y-13027484D01*
X5767991Y-12817960D02*
X5596563Y-13075103D01*
X6025134Y-12827484D02*
X6044182Y-12827484D01*
X6044182Y-12827484D02*
X6063229Y-12837008D01*
X6063229Y-12837008D02*
X6072753Y-12846531D01*
X6072753Y-12846531D02*
X6082277Y-12865579D01*
X6082277Y-12865579D02*
X6091801Y-12903674D01*
X6091801Y-12903674D02*
X6091801Y-12951293D01*
X6091801Y-12951293D02*
X6082277Y-12989388D01*
X6082277Y-12989388D02*
X6072753Y-13008436D01*
X6072753Y-13008436D02*
X6063229Y-13017960D01*
X6063229Y-13017960D02*
X6044182Y-13027484D01*
X6044182Y-13027484D02*
X6025134Y-13027484D01*
X6025134Y-13027484D02*
X6006086Y-13017960D01*
X6006086Y-13017960D02*
X5996563Y-13008436D01*
X5996563Y-13008436D02*
X5987039Y-12989388D01*
X5987039Y-12989388D02*
X5977515Y-12951293D01*
X5977515Y-12951293D02*
X5977515Y-12903674D01*
X5977515Y-12903674D02*
X5987039Y-12865579D01*
X5987039Y-12865579D02*
X5996563Y-12846531D01*
X5996563Y-12846531D02*
X6006086Y-12837008D01*
X6006086Y-12837008D02*
X6025134Y-12827484D01*
X6177515Y-13008436D02*
X6187039Y-13017960D01*
X6187039Y-13017960D02*
X6177515Y-13027484D01*
X6177515Y-13027484D02*
X6167991Y-13017960D01*
X6167991Y-13017960D02*
X6177515Y-13008436D01*
X6177515Y-13008436D02*
X6177515Y-13027484D01*
X6310848Y-12827484D02*
X6329896Y-12827484D01*
X6329896Y-12827484D02*
X6348944Y-12837008D01*
X6348944Y-12837008D02*
X6358467Y-12846531D01*
X6358467Y-12846531D02*
X6367991Y-12865579D01*
X6367991Y-12865579D02*
X6377515Y-12903674D01*
X6377515Y-12903674D02*
X6377515Y-12951293D01*
X6377515Y-12951293D02*
X6367991Y-12989388D01*
X6367991Y-12989388D02*
X6358467Y-13008436D01*
X6358467Y-13008436D02*
X6348944Y-13017960D01*
X6348944Y-13017960D02*
X6329896Y-13027484D01*
X6329896Y-13027484D02*
X6310848Y-13027484D01*
X6310848Y-13027484D02*
X6291801Y-13017960D01*
X6291801Y-13017960D02*
X6282277Y-13008436D01*
X6282277Y-13008436D02*
X6272753Y-12989388D01*
X6272753Y-12989388D02*
X6263229Y-12951293D01*
X6263229Y-12951293D02*
X6263229Y-12903674D01*
X6263229Y-12903674D02*
X6272753Y-12865579D01*
X6272753Y-12865579D02*
X6282277Y-12846531D01*
X6282277Y-12846531D02*
X6291801Y-12837008D01*
X6291801Y-12837008D02*
X6310848Y-12827484D01*
X6444182Y-12827484D02*
X6567991Y-12827484D01*
X6567991Y-12827484D02*
X6501325Y-12903674D01*
X6501325Y-12903674D02*
X6529896Y-12903674D01*
X6529896Y-12903674D02*
X6548944Y-12913198D01*
X6548944Y-12913198D02*
X6558467Y-12922722D01*
X6558467Y-12922722D02*
X6567991Y-12941769D01*
X6567991Y-12941769D02*
X6567991Y-12989388D01*
X6567991Y-12989388D02*
X6558467Y-13008436D01*
X6558467Y-13008436D02*
X6548944Y-13017960D01*
X6548944Y-13017960D02*
X6529896Y-13027484D01*
X6529896Y-13027484D02*
X6472753Y-13027484D01*
X6472753Y-13027484D02*
X6453706Y-13017960D01*
X6453706Y-13017960D02*
X6444182Y-13008436D01*
X6663229Y-13027484D02*
X6701325Y-13027484D01*
X6701325Y-13027484D02*
X6720372Y-13017960D01*
X6720372Y-13017960D02*
X6729896Y-13008436D01*
X6729896Y-13008436D02*
X6748944Y-12979865D01*
X6748944Y-12979865D02*
X6758467Y-12941769D01*
X6758467Y-12941769D02*
X6758467Y-12865579D01*
X6758467Y-12865579D02*
X6748944Y-12846531D01*
X6748944Y-12846531D02*
X6739420Y-12837008D01*
X6739420Y-12837008D02*
X6720372Y-12827484D01*
X6720372Y-12827484D02*
X6682277Y-12827484D01*
X6682277Y-12827484D02*
X6663229Y-12837008D01*
X6663229Y-12837008D02*
X6653706Y-12846531D01*
X6653706Y-12846531D02*
X6644182Y-12865579D01*
X6644182Y-12865579D02*
X6644182Y-12913198D01*
X6644182Y-12913198D02*
X6653706Y-12932246D01*
X6653706Y-12932246D02*
X6663229Y-12941769D01*
X6663229Y-12941769D02*
X6682277Y-12951293D01*
X6682277Y-12951293D02*
X6720372Y-12951293D01*
X6720372Y-12951293D02*
X6739420Y-12941769D01*
X6739420Y-12941769D02*
X6748944Y-12932246D01*
X6748944Y-12932246D02*
X6758467Y-12913198D01*
X6929896Y-12894150D02*
X6929896Y-13027484D01*
X6882277Y-12817960D02*
X6834658Y-12960817D01*
X6834658Y-12960817D02*
X6958467Y-12960817D01*
X7025134Y-12827484D02*
X7025134Y-12865579D01*
X7101325Y-12827484D02*
X7101325Y-12865579D01*
X7396563Y-13103674D02*
X7387039Y-13094150D01*
X7387039Y-13094150D02*
X7367991Y-13065579D01*
X7367991Y-13065579D02*
X7358468Y-13046531D01*
X7358468Y-13046531D02*
X7348944Y-13017960D01*
X7348944Y-13017960D02*
X7339420Y-12970341D01*
X7339420Y-12970341D02*
X7339420Y-12932246D01*
X7339420Y-12932246D02*
X7348944Y-12884627D01*
X7348944Y-12884627D02*
X7358468Y-12856055D01*
X7358468Y-12856055D02*
X7367991Y-12837008D01*
X7367991Y-12837008D02*
X7387039Y-12808436D01*
X7387039Y-12808436D02*
X7396563Y-12798912D01*
X7558468Y-12827484D02*
X7520372Y-12827484D01*
X7520372Y-12827484D02*
X7501325Y-12837008D01*
X7501325Y-12837008D02*
X7491801Y-12846531D01*
X7491801Y-12846531D02*
X7472753Y-12875103D01*
X7472753Y-12875103D02*
X7463229Y-12913198D01*
X7463229Y-12913198D02*
X7463229Y-12989388D01*
X7463229Y-12989388D02*
X7472753Y-13008436D01*
X7472753Y-13008436D02*
X7482277Y-13017960D01*
X7482277Y-13017960D02*
X7501325Y-13027484D01*
X7501325Y-13027484D02*
X7539420Y-13027484D01*
X7539420Y-13027484D02*
X7558468Y-13017960D01*
X7558468Y-13017960D02*
X7567991Y-13008436D01*
X7567991Y-13008436D02*
X7577515Y-12989388D01*
X7577515Y-12989388D02*
X7577515Y-12941769D01*
X7577515Y-12941769D02*
X7567991Y-12922722D01*
X7567991Y-12922722D02*
X7558468Y-12913198D01*
X7558468Y-12913198D02*
X7539420Y-12903674D01*
X7539420Y-12903674D02*
X7501325Y-12903674D01*
X7501325Y-12903674D02*
X7482277Y-12913198D01*
X7482277Y-12913198D02*
X7472753Y-12922722D01*
X7472753Y-12922722D02*
X7463229Y-12941769D01*
X7815610Y-13027484D02*
X7815610Y-12827484D01*
X7901325Y-13027484D02*
X7901325Y-12922722D01*
X7901325Y-12922722D02*
X7891801Y-12903674D01*
X7891801Y-12903674D02*
X7872753Y-12894150D01*
X7872753Y-12894150D02*
X7844182Y-12894150D01*
X7844182Y-12894150D02*
X7825134Y-12903674D01*
X7825134Y-12903674D02*
X7815610Y-12913198D01*
X8025134Y-13027484D02*
X8006087Y-13017960D01*
X8006087Y-13017960D02*
X7996563Y-13008436D01*
X7996563Y-13008436D02*
X7987039Y-12989388D01*
X7987039Y-12989388D02*
X7987039Y-12932246D01*
X7987039Y-12932246D02*
X7996563Y-12913198D01*
X7996563Y-12913198D02*
X8006087Y-12903674D01*
X8006087Y-12903674D02*
X8025134Y-12894150D01*
X8025134Y-12894150D02*
X8053706Y-12894150D01*
X8053706Y-12894150D02*
X8072753Y-12903674D01*
X8072753Y-12903674D02*
X8082277Y-12913198D01*
X8082277Y-12913198D02*
X8091801Y-12932246D01*
X8091801Y-12932246D02*
X8091801Y-12989388D01*
X8091801Y-12989388D02*
X8082277Y-13008436D01*
X8082277Y-13008436D02*
X8072753Y-13017960D01*
X8072753Y-13017960D02*
X8053706Y-13027484D01*
X8053706Y-13027484D02*
X8025134Y-13027484D01*
X8206087Y-13027484D02*
X8187039Y-13017960D01*
X8187039Y-13017960D02*
X8177515Y-12998912D01*
X8177515Y-12998912D02*
X8177515Y-12827484D01*
X8358468Y-13017960D02*
X8339420Y-13027484D01*
X8339420Y-13027484D02*
X8301325Y-13027484D01*
X8301325Y-13027484D02*
X8282277Y-13017960D01*
X8282277Y-13017960D02*
X8272753Y-12998912D01*
X8272753Y-12998912D02*
X8272753Y-12922722D01*
X8272753Y-12922722D02*
X8282277Y-12903674D01*
X8282277Y-12903674D02*
X8301325Y-12894150D01*
X8301325Y-12894150D02*
X8339420Y-12894150D01*
X8339420Y-12894150D02*
X8358468Y-12903674D01*
X8358468Y-12903674D02*
X8367991Y-12922722D01*
X8367991Y-12922722D02*
X8367991Y-12941769D01*
X8367991Y-12941769D02*
X8272753Y-12960817D01*
X8444182Y-13017960D02*
X8463230Y-13027484D01*
X8463230Y-13027484D02*
X8501325Y-13027484D01*
X8501325Y-13027484D02*
X8520373Y-13017960D01*
X8520373Y-13017960D02*
X8529896Y-12998912D01*
X8529896Y-12998912D02*
X8529896Y-12989388D01*
X8529896Y-12989388D02*
X8520373Y-12970341D01*
X8520373Y-12970341D02*
X8501325Y-12960817D01*
X8501325Y-12960817D02*
X8472753Y-12960817D01*
X8472753Y-12960817D02*
X8453706Y-12951293D01*
X8453706Y-12951293D02*
X8444182Y-12932246D01*
X8444182Y-12932246D02*
X8444182Y-12922722D01*
X8444182Y-12922722D02*
X8453706Y-12903674D01*
X8453706Y-12903674D02*
X8472753Y-12894150D01*
X8472753Y-12894150D02*
X8501325Y-12894150D01*
X8501325Y-12894150D02*
X8520373Y-12903674D01*
X8767992Y-12951293D02*
X8920373Y-12951293D01*
X8844182Y-13027484D02*
X8844182Y-12875103D01*
X9148944Y-12827484D02*
X9272754Y-12827484D01*
X9272754Y-12827484D02*
X9206087Y-12903674D01*
X9206087Y-12903674D02*
X9234658Y-12903674D01*
X9234658Y-12903674D02*
X9253706Y-12913198D01*
X9253706Y-12913198D02*
X9263230Y-12922722D01*
X9263230Y-12922722D02*
X9272754Y-12941769D01*
X9272754Y-12941769D02*
X9272754Y-12989388D01*
X9272754Y-12989388D02*
X9263230Y-13008436D01*
X9263230Y-13008436D02*
X9253706Y-13017960D01*
X9253706Y-13017960D02*
X9234658Y-13027484D01*
X9234658Y-13027484D02*
X9177515Y-13027484D01*
X9177515Y-13027484D02*
X9158468Y-13017960D01*
X9158468Y-13017960D02*
X9148944Y-13008436D01*
X9501325Y-13017960D02*
X9520373Y-13027484D01*
X9520373Y-13027484D02*
X9558468Y-13027484D01*
X9558468Y-13027484D02*
X9577516Y-13017960D01*
X9577516Y-13017960D02*
X9587039Y-12998912D01*
X9587039Y-12998912D02*
X9587039Y-12989388D01*
X9587039Y-12989388D02*
X9577516Y-12970341D01*
X9577516Y-12970341D02*
X9558468Y-12960817D01*
X9558468Y-12960817D02*
X9529896Y-12960817D01*
X9529896Y-12960817D02*
X9510849Y-12951293D01*
X9510849Y-12951293D02*
X9501325Y-12932246D01*
X9501325Y-12932246D02*
X9501325Y-12922722D01*
X9501325Y-12922722D02*
X9510849Y-12903674D01*
X9510849Y-12903674D02*
X9529896Y-12894150D01*
X9529896Y-12894150D02*
X9558468Y-12894150D01*
X9558468Y-12894150D02*
X9577516Y-12903674D01*
X9701325Y-13027484D02*
X9682277Y-13017960D01*
X9682277Y-13017960D02*
X9672754Y-12998912D01*
X9672754Y-12998912D02*
X9672754Y-12827484D01*
X9806087Y-13027484D02*
X9787039Y-13017960D01*
X9787039Y-13017960D02*
X9777516Y-13008436D01*
X9777516Y-13008436D02*
X9767992Y-12989388D01*
X9767992Y-12989388D02*
X9767992Y-12932246D01*
X9767992Y-12932246D02*
X9777516Y-12913198D01*
X9777516Y-12913198D02*
X9787039Y-12903674D01*
X9787039Y-12903674D02*
X9806087Y-12894150D01*
X9806087Y-12894150D02*
X9834658Y-12894150D01*
X9834658Y-12894150D02*
X9853706Y-12903674D01*
X9853706Y-12903674D02*
X9863230Y-12913198D01*
X9863230Y-12913198D02*
X9872754Y-12932246D01*
X9872754Y-12932246D02*
X9872754Y-12989388D01*
X9872754Y-12989388D02*
X9863230Y-13008436D01*
X9863230Y-13008436D02*
X9853706Y-13017960D01*
X9853706Y-13017960D02*
X9834658Y-13027484D01*
X9834658Y-13027484D02*
X9806087Y-13027484D01*
X9929897Y-12894150D02*
X10006087Y-12894150D01*
X9958468Y-12827484D02*
X9958468Y-12998912D01*
X9958468Y-12998912D02*
X9967992Y-13017960D01*
X9967992Y-13017960D02*
X9987039Y-13027484D01*
X9987039Y-13027484D02*
X10006087Y-13027484D01*
X10063230Y-13017960D02*
X10082277Y-13027484D01*
X10082277Y-13027484D02*
X10120373Y-13027484D01*
X10120373Y-13027484D02*
X10139420Y-13017960D01*
X10139420Y-13017960D02*
X10148944Y-12998912D01*
X10148944Y-12998912D02*
X10148944Y-12989388D01*
X10148944Y-12989388D02*
X10139420Y-12970341D01*
X10139420Y-12970341D02*
X10120373Y-12960817D01*
X10120373Y-12960817D02*
X10091801Y-12960817D01*
X10091801Y-12960817D02*
X10072754Y-12951293D01*
X10072754Y-12951293D02*
X10063230Y-12932246D01*
X10063230Y-12932246D02*
X10063230Y-12922722D01*
X10063230Y-12922722D02*
X10072754Y-12903674D01*
X10072754Y-12903674D02*
X10091801Y-12894150D01*
X10091801Y-12894150D02*
X10120373Y-12894150D01*
X10120373Y-12894150D02*
X10139420Y-12903674D01*
X10215611Y-13103674D02*
X10225135Y-13094150D01*
X10225135Y-13094150D02*
X10244182Y-13065579D01*
X10244182Y-13065579D02*
X10253706Y-13046531D01*
X10253706Y-13046531D02*
X10263230Y-13017960D01*
X10263230Y-13017960D02*
X10272754Y-12970341D01*
X10272754Y-12970341D02*
X10272754Y-12932246D01*
X10272754Y-12932246D02*
X10263230Y-12884627D01*
X10263230Y-12884627D02*
X10253706Y-12856055D01*
X10253706Y-12856055D02*
X10244182Y-12837008D01*
X10244182Y-12837008D02*
X10225135Y-12808436D01*
X10225135Y-12808436D02*
X10215611Y-12798912D01*
D13*
X3711500Y-13145000D02*
X3821500Y-13255000D01*
X3821500Y-13145000D02*
X3711500Y-13255000D01*
X3821500Y-13200000D02*
G75*
G02*
X3711500Y-13200000I-55000J0D01*
G01*
X3711500Y-13200000D02*
G75*
G02*
X3821500Y-13200000I55000J0D01*
G01*
D11*
X4187039Y-13291484D02*
X4072753Y-13291484D01*
X4129896Y-13291484D02*
X4129896Y-13091484D01*
X4129896Y-13091484D02*
X4110848Y-13120055D01*
X4110848Y-13120055D02*
X4091801Y-13139103D01*
X4091801Y-13139103D02*
X4072753Y-13148627D01*
X4272753Y-13272436D02*
X4282277Y-13281960D01*
X4282277Y-13281960D02*
X4272753Y-13291484D01*
X4272753Y-13291484D02*
X4263229Y-13281960D01*
X4263229Y-13281960D02*
X4272753Y-13272436D01*
X4272753Y-13272436D02*
X4272753Y-13291484D01*
X4472753Y-13291484D02*
X4358467Y-13291484D01*
X4415610Y-13291484D02*
X4415610Y-13091484D01*
X4415610Y-13091484D02*
X4396563Y-13120055D01*
X4396563Y-13120055D02*
X4377515Y-13139103D01*
X4377515Y-13139103D02*
X4358467Y-13148627D01*
X4596563Y-13091484D02*
X4615610Y-13091484D01*
X4615610Y-13091484D02*
X4634658Y-13101008D01*
X4634658Y-13101008D02*
X4644182Y-13110531D01*
X4644182Y-13110531D02*
X4653705Y-13129579D01*
X4653705Y-13129579D02*
X4663229Y-13167674D01*
X4663229Y-13167674D02*
X4663229Y-13215293D01*
X4663229Y-13215293D02*
X4653705Y-13253388D01*
X4653705Y-13253388D02*
X4644182Y-13272436D01*
X4644182Y-13272436D02*
X4634658Y-13281960D01*
X4634658Y-13281960D02*
X4615610Y-13291484D01*
X4615610Y-13291484D02*
X4596563Y-13291484D01*
X4596563Y-13291484D02*
X4577515Y-13281960D01*
X4577515Y-13281960D02*
X4567991Y-13272436D01*
X4567991Y-13272436D02*
X4558467Y-13253388D01*
X4558467Y-13253388D02*
X4548944Y-13215293D01*
X4548944Y-13215293D02*
X4548944Y-13167674D01*
X4548944Y-13167674D02*
X4558467Y-13129579D01*
X4558467Y-13129579D02*
X4567991Y-13110531D01*
X4567991Y-13110531D02*
X4577515Y-13101008D01*
X4577515Y-13101008D02*
X4596563Y-13091484D01*
X4787039Y-13091484D02*
X4806086Y-13091484D01*
X4806086Y-13091484D02*
X4825134Y-13101008D01*
X4825134Y-13101008D02*
X4834658Y-13110531D01*
X4834658Y-13110531D02*
X4844182Y-13129579D01*
X4844182Y-13129579D02*
X4853705Y-13167674D01*
X4853705Y-13167674D02*
X4853705Y-13215293D01*
X4853705Y-13215293D02*
X4844182Y-13253388D01*
X4844182Y-13253388D02*
X4834658Y-13272436D01*
X4834658Y-13272436D02*
X4825134Y-13281960D01*
X4825134Y-13281960D02*
X4806086Y-13291484D01*
X4806086Y-13291484D02*
X4787039Y-13291484D01*
X4787039Y-13291484D02*
X4767991Y-13281960D01*
X4767991Y-13281960D02*
X4758467Y-13272436D01*
X4758467Y-13272436D02*
X4748944Y-13253388D01*
X4748944Y-13253388D02*
X4739420Y-13215293D01*
X4739420Y-13215293D02*
X4739420Y-13167674D01*
X4739420Y-13167674D02*
X4748944Y-13129579D01*
X4748944Y-13129579D02*
X4758467Y-13110531D01*
X4758467Y-13110531D02*
X4767991Y-13101008D01*
X4767991Y-13101008D02*
X4787039Y-13091484D01*
X4939420Y-13291484D02*
X4939420Y-13158150D01*
X4939420Y-13177198D02*
X4948944Y-13167674D01*
X4948944Y-13167674D02*
X4967991Y-13158150D01*
X4967991Y-13158150D02*
X4996563Y-13158150D01*
X4996563Y-13158150D02*
X5015610Y-13167674D01*
X5015610Y-13167674D02*
X5025134Y-13186722D01*
X5025134Y-13186722D02*
X5025134Y-13291484D01*
X5025134Y-13186722D02*
X5034658Y-13167674D01*
X5034658Y-13167674D02*
X5053705Y-13158150D01*
X5053705Y-13158150D02*
X5082277Y-13158150D01*
X5082277Y-13158150D02*
X5101325Y-13167674D01*
X5101325Y-13167674D02*
X5110848Y-13186722D01*
X5110848Y-13186722D02*
X5110848Y-13291484D01*
X5206086Y-13291484D02*
X5206086Y-13158150D01*
X5206086Y-13177198D02*
X5215610Y-13167674D01*
X5215610Y-13167674D02*
X5234658Y-13158150D01*
X5234658Y-13158150D02*
X5263229Y-13158150D01*
X5263229Y-13158150D02*
X5282277Y-13167674D01*
X5282277Y-13167674D02*
X5291801Y-13186722D01*
X5291801Y-13186722D02*
X5291801Y-13291484D01*
X5291801Y-13186722D02*
X5301325Y-13167674D01*
X5301325Y-13167674D02*
X5320372Y-13158150D01*
X5320372Y-13158150D02*
X5348944Y-13158150D01*
X5348944Y-13158150D02*
X5367991Y-13167674D01*
X5367991Y-13167674D02*
X5377515Y-13186722D01*
X5377515Y-13186722D02*
X5377515Y-13291484D01*
X5767991Y-13081960D02*
X5596563Y-13339103D01*
X6025134Y-13091484D02*
X6044182Y-13091484D01*
X6044182Y-13091484D02*
X6063229Y-13101008D01*
X6063229Y-13101008D02*
X6072753Y-13110531D01*
X6072753Y-13110531D02*
X6082277Y-13129579D01*
X6082277Y-13129579D02*
X6091801Y-13167674D01*
X6091801Y-13167674D02*
X6091801Y-13215293D01*
X6091801Y-13215293D02*
X6082277Y-13253388D01*
X6082277Y-13253388D02*
X6072753Y-13272436D01*
X6072753Y-13272436D02*
X6063229Y-13281960D01*
X6063229Y-13281960D02*
X6044182Y-13291484D01*
X6044182Y-13291484D02*
X6025134Y-13291484D01*
X6025134Y-13291484D02*
X6006086Y-13281960D01*
X6006086Y-13281960D02*
X5996563Y-13272436D01*
X5996563Y-13272436D02*
X5987039Y-13253388D01*
X5987039Y-13253388D02*
X5977515Y-13215293D01*
X5977515Y-13215293D02*
X5977515Y-13167674D01*
X5977515Y-13167674D02*
X5987039Y-13129579D01*
X5987039Y-13129579D02*
X5996563Y-13110531D01*
X5996563Y-13110531D02*
X6006086Y-13101008D01*
X6006086Y-13101008D02*
X6025134Y-13091484D01*
X6177515Y-13272436D02*
X6187039Y-13281960D01*
X6187039Y-13281960D02*
X6177515Y-13291484D01*
X6177515Y-13291484D02*
X6167991Y-13281960D01*
X6167991Y-13281960D02*
X6177515Y-13272436D01*
X6177515Y-13272436D02*
X6177515Y-13291484D01*
X6310848Y-13091484D02*
X6329896Y-13091484D01*
X6329896Y-13091484D02*
X6348944Y-13101008D01*
X6348944Y-13101008D02*
X6358467Y-13110531D01*
X6358467Y-13110531D02*
X6367991Y-13129579D01*
X6367991Y-13129579D02*
X6377515Y-13167674D01*
X6377515Y-13167674D02*
X6377515Y-13215293D01*
X6377515Y-13215293D02*
X6367991Y-13253388D01*
X6367991Y-13253388D02*
X6358467Y-13272436D01*
X6358467Y-13272436D02*
X6348944Y-13281960D01*
X6348944Y-13281960D02*
X6329896Y-13291484D01*
X6329896Y-13291484D02*
X6310848Y-13291484D01*
X6310848Y-13291484D02*
X6291801Y-13281960D01*
X6291801Y-13281960D02*
X6282277Y-13272436D01*
X6282277Y-13272436D02*
X6272753Y-13253388D01*
X6272753Y-13253388D02*
X6263229Y-13215293D01*
X6263229Y-13215293D02*
X6263229Y-13167674D01*
X6263229Y-13167674D02*
X6272753Y-13129579D01*
X6272753Y-13129579D02*
X6282277Y-13110531D01*
X6282277Y-13110531D02*
X6291801Y-13101008D01*
X6291801Y-13101008D02*
X6310848Y-13091484D01*
X6548944Y-13158150D02*
X6548944Y-13291484D01*
X6501325Y-13081960D02*
X6453706Y-13224817D01*
X6453706Y-13224817D02*
X6577515Y-13224817D01*
X6634658Y-13091484D02*
X6758467Y-13091484D01*
X6758467Y-13091484D02*
X6691801Y-13167674D01*
X6691801Y-13167674D02*
X6720372Y-13167674D01*
X6720372Y-13167674D02*
X6739420Y-13177198D01*
X6739420Y-13177198D02*
X6748944Y-13186722D01*
X6748944Y-13186722D02*
X6758467Y-13205769D01*
X6758467Y-13205769D02*
X6758467Y-13253388D01*
X6758467Y-13253388D02*
X6748944Y-13272436D01*
X6748944Y-13272436D02*
X6739420Y-13281960D01*
X6739420Y-13281960D02*
X6720372Y-13291484D01*
X6720372Y-13291484D02*
X6663229Y-13291484D01*
X6663229Y-13291484D02*
X6644182Y-13281960D01*
X6644182Y-13281960D02*
X6634658Y-13272436D01*
X6825134Y-13091484D02*
X6948944Y-13091484D01*
X6948944Y-13091484D02*
X6882277Y-13167674D01*
X6882277Y-13167674D02*
X6910848Y-13167674D01*
X6910848Y-13167674D02*
X6929896Y-13177198D01*
X6929896Y-13177198D02*
X6939420Y-13186722D01*
X6939420Y-13186722D02*
X6948944Y-13205769D01*
X6948944Y-13205769D02*
X6948944Y-13253388D01*
X6948944Y-13253388D02*
X6939420Y-13272436D01*
X6939420Y-13272436D02*
X6929896Y-13281960D01*
X6929896Y-13281960D02*
X6910848Y-13291484D01*
X6910848Y-13291484D02*
X6853706Y-13291484D01*
X6853706Y-13291484D02*
X6834658Y-13281960D01*
X6834658Y-13281960D02*
X6825134Y-13272436D01*
X7025134Y-13091484D02*
X7025134Y-13129579D01*
X7101325Y-13091484D02*
X7101325Y-13129579D01*
X7396563Y-13367674D02*
X7387039Y-13358150D01*
X7387039Y-13358150D02*
X7367991Y-13329579D01*
X7367991Y-13329579D02*
X7358468Y-13310531D01*
X7358468Y-13310531D02*
X7348944Y-13281960D01*
X7348944Y-13281960D02*
X7339420Y-13234341D01*
X7339420Y-13234341D02*
X7339420Y-13196246D01*
X7339420Y-13196246D02*
X7348944Y-13148627D01*
X7348944Y-13148627D02*
X7358468Y-13120055D01*
X7358468Y-13120055D02*
X7367991Y-13101008D01*
X7367991Y-13101008D02*
X7387039Y-13072436D01*
X7387039Y-13072436D02*
X7396563Y-13062912D01*
X7482277Y-13291484D02*
X7520372Y-13291484D01*
X7520372Y-13291484D02*
X7539420Y-13281960D01*
X7539420Y-13281960D02*
X7548944Y-13272436D01*
X7548944Y-13272436D02*
X7567991Y-13243865D01*
X7567991Y-13243865D02*
X7577515Y-13205769D01*
X7577515Y-13205769D02*
X7577515Y-13129579D01*
X7577515Y-13129579D02*
X7567991Y-13110531D01*
X7567991Y-13110531D02*
X7558468Y-13101008D01*
X7558468Y-13101008D02*
X7539420Y-13091484D01*
X7539420Y-13091484D02*
X7501325Y-13091484D01*
X7501325Y-13091484D02*
X7482277Y-13101008D01*
X7482277Y-13101008D02*
X7472753Y-13110531D01*
X7472753Y-13110531D02*
X7463229Y-13129579D01*
X7463229Y-13129579D02*
X7463229Y-13177198D01*
X7463229Y-13177198D02*
X7472753Y-13196246D01*
X7472753Y-13196246D02*
X7482277Y-13205769D01*
X7482277Y-13205769D02*
X7501325Y-13215293D01*
X7501325Y-13215293D02*
X7539420Y-13215293D01*
X7539420Y-13215293D02*
X7558468Y-13205769D01*
X7558468Y-13205769D02*
X7567991Y-13196246D01*
X7567991Y-13196246D02*
X7577515Y-13177198D01*
X7815610Y-13291484D02*
X7815610Y-13091484D01*
X7901325Y-13291484D02*
X7901325Y-13186722D01*
X7901325Y-13186722D02*
X7891801Y-13167674D01*
X7891801Y-13167674D02*
X7872753Y-13158150D01*
X7872753Y-13158150D02*
X7844182Y-13158150D01*
X7844182Y-13158150D02*
X7825134Y-13167674D01*
X7825134Y-13167674D02*
X7815610Y-13177198D01*
X8025134Y-13291484D02*
X8006087Y-13281960D01*
X8006087Y-13281960D02*
X7996563Y-13272436D01*
X7996563Y-13272436D02*
X7987039Y-13253388D01*
X7987039Y-13253388D02*
X7987039Y-13196246D01*
X7987039Y-13196246D02*
X7996563Y-13177198D01*
X7996563Y-13177198D02*
X8006087Y-13167674D01*
X8006087Y-13167674D02*
X8025134Y-13158150D01*
X8025134Y-13158150D02*
X8053706Y-13158150D01*
X8053706Y-13158150D02*
X8072753Y-13167674D01*
X8072753Y-13167674D02*
X8082277Y-13177198D01*
X8082277Y-13177198D02*
X8091801Y-13196246D01*
X8091801Y-13196246D02*
X8091801Y-13253388D01*
X8091801Y-13253388D02*
X8082277Y-13272436D01*
X8082277Y-13272436D02*
X8072753Y-13281960D01*
X8072753Y-13281960D02*
X8053706Y-13291484D01*
X8053706Y-13291484D02*
X8025134Y-13291484D01*
X8206087Y-13291484D02*
X8187039Y-13281960D01*
X8187039Y-13281960D02*
X8177515Y-13262912D01*
X8177515Y-13262912D02*
X8177515Y-13091484D01*
X8358468Y-13281960D02*
X8339420Y-13291484D01*
X8339420Y-13291484D02*
X8301325Y-13291484D01*
X8301325Y-13291484D02*
X8282277Y-13281960D01*
X8282277Y-13281960D02*
X8272753Y-13262912D01*
X8272753Y-13262912D02*
X8272753Y-13186722D01*
X8272753Y-13186722D02*
X8282277Y-13167674D01*
X8282277Y-13167674D02*
X8301325Y-13158150D01*
X8301325Y-13158150D02*
X8339420Y-13158150D01*
X8339420Y-13158150D02*
X8358468Y-13167674D01*
X8358468Y-13167674D02*
X8367991Y-13186722D01*
X8367991Y-13186722D02*
X8367991Y-13205769D01*
X8367991Y-13205769D02*
X8272753Y-13224817D01*
X8444182Y-13281960D02*
X8463230Y-13291484D01*
X8463230Y-13291484D02*
X8501325Y-13291484D01*
X8501325Y-13291484D02*
X8520373Y-13281960D01*
X8520373Y-13281960D02*
X8529896Y-13262912D01*
X8529896Y-13262912D02*
X8529896Y-13253388D01*
X8529896Y-13253388D02*
X8520373Y-13234341D01*
X8520373Y-13234341D02*
X8501325Y-13224817D01*
X8501325Y-13224817D02*
X8472753Y-13224817D01*
X8472753Y-13224817D02*
X8453706Y-13215293D01*
X8453706Y-13215293D02*
X8444182Y-13196246D01*
X8444182Y-13196246D02*
X8444182Y-13186722D01*
X8444182Y-13186722D02*
X8453706Y-13167674D01*
X8453706Y-13167674D02*
X8472753Y-13158150D01*
X8472753Y-13158150D02*
X8501325Y-13158150D01*
X8501325Y-13158150D02*
X8520373Y-13167674D01*
X8596563Y-13367674D02*
X8606087Y-13358150D01*
X8606087Y-13358150D02*
X8625134Y-13329579D01*
X8625134Y-13329579D02*
X8634658Y-13310531D01*
X8634658Y-13310531D02*
X8644182Y-13281960D01*
X8644182Y-13281960D02*
X8653706Y-13234341D01*
X8653706Y-13234341D02*
X8653706Y-13196246D01*
X8653706Y-13196246D02*
X8644182Y-13148627D01*
X8644182Y-13148627D02*
X8634658Y-13120055D01*
X8634658Y-13120055D02*
X8625134Y-13101008D01*
X8625134Y-13101008D02*
X8606087Y-13072436D01*
X8606087Y-13072436D02*
X8596563Y-13062912D01*
D14*
X3691500Y-13399000D02*
X3821500Y-13529000D01*
X3821500Y-13399000D02*
X3691500Y-13529000D01*
X3756500Y-13399000D02*
X3756500Y-13529000D01*
X3691500Y-13464000D02*
X3821500Y-13464000D01*
D11*
X4187039Y-13555484D02*
X4072753Y-13555484D01*
X4129896Y-13555484D02*
X4129896Y-13355484D01*
X4129896Y-13355484D02*
X4110848Y-13384055D01*
X4110848Y-13384055D02*
X4091801Y-13403103D01*
X4091801Y-13403103D02*
X4072753Y-13412627D01*
X4272753Y-13536436D02*
X4282277Y-13545960D01*
X4282277Y-13545960D02*
X4272753Y-13555484D01*
X4272753Y-13555484D02*
X4263229Y-13545960D01*
X4263229Y-13545960D02*
X4272753Y-13536436D01*
X4272753Y-13536436D02*
X4272753Y-13555484D01*
X4348944Y-13355484D02*
X4472753Y-13355484D01*
X4472753Y-13355484D02*
X4406086Y-13431674D01*
X4406086Y-13431674D02*
X4434658Y-13431674D01*
X4434658Y-13431674D02*
X4453705Y-13441198D01*
X4453705Y-13441198D02*
X4463229Y-13450722D01*
X4463229Y-13450722D02*
X4472753Y-13469769D01*
X4472753Y-13469769D02*
X4472753Y-13517388D01*
X4472753Y-13517388D02*
X4463229Y-13536436D01*
X4463229Y-13536436D02*
X4453705Y-13545960D01*
X4453705Y-13545960D02*
X4434658Y-13555484D01*
X4434658Y-13555484D02*
X4377515Y-13555484D01*
X4377515Y-13555484D02*
X4358467Y-13545960D01*
X4358467Y-13545960D02*
X4348944Y-13536436D01*
X4596563Y-13355484D02*
X4615610Y-13355484D01*
X4615610Y-13355484D02*
X4634658Y-13365008D01*
X4634658Y-13365008D02*
X4644182Y-13374531D01*
X4644182Y-13374531D02*
X4653705Y-13393579D01*
X4653705Y-13393579D02*
X4663229Y-13431674D01*
X4663229Y-13431674D02*
X4663229Y-13479293D01*
X4663229Y-13479293D02*
X4653705Y-13517388D01*
X4653705Y-13517388D02*
X4644182Y-13536436D01*
X4644182Y-13536436D02*
X4634658Y-13545960D01*
X4634658Y-13545960D02*
X4615610Y-13555484D01*
X4615610Y-13555484D02*
X4596563Y-13555484D01*
X4596563Y-13555484D02*
X4577515Y-13545960D01*
X4577515Y-13545960D02*
X4567991Y-13536436D01*
X4567991Y-13536436D02*
X4558467Y-13517388D01*
X4558467Y-13517388D02*
X4548944Y-13479293D01*
X4548944Y-13479293D02*
X4548944Y-13431674D01*
X4548944Y-13431674D02*
X4558467Y-13393579D01*
X4558467Y-13393579D02*
X4567991Y-13374531D01*
X4567991Y-13374531D02*
X4577515Y-13365008D01*
X4577515Y-13365008D02*
X4596563Y-13355484D01*
X4787039Y-13355484D02*
X4806086Y-13355484D01*
X4806086Y-13355484D02*
X4825134Y-13365008D01*
X4825134Y-13365008D02*
X4834658Y-13374531D01*
X4834658Y-13374531D02*
X4844182Y-13393579D01*
X4844182Y-13393579D02*
X4853705Y-13431674D01*
X4853705Y-13431674D02*
X4853705Y-13479293D01*
X4853705Y-13479293D02*
X4844182Y-13517388D01*
X4844182Y-13517388D02*
X4834658Y-13536436D01*
X4834658Y-13536436D02*
X4825134Y-13545960D01*
X4825134Y-13545960D02*
X4806086Y-13555484D01*
X4806086Y-13555484D02*
X4787039Y-13555484D01*
X4787039Y-13555484D02*
X4767991Y-13545960D01*
X4767991Y-13545960D02*
X4758467Y-13536436D01*
X4758467Y-13536436D02*
X4748944Y-13517388D01*
X4748944Y-13517388D02*
X4739420Y-13479293D01*
X4739420Y-13479293D02*
X4739420Y-13431674D01*
X4739420Y-13431674D02*
X4748944Y-13393579D01*
X4748944Y-13393579D02*
X4758467Y-13374531D01*
X4758467Y-13374531D02*
X4767991Y-13365008D01*
X4767991Y-13365008D02*
X4787039Y-13355484D01*
X4939420Y-13555484D02*
X4939420Y-13422150D01*
X4939420Y-13441198D02*
X4948944Y-13431674D01*
X4948944Y-13431674D02*
X4967991Y-13422150D01*
X4967991Y-13422150D02*
X4996563Y-13422150D01*
X4996563Y-13422150D02*
X5015610Y-13431674D01*
X5015610Y-13431674D02*
X5025134Y-13450722D01*
X5025134Y-13450722D02*
X5025134Y-13555484D01*
X5025134Y-13450722D02*
X5034658Y-13431674D01*
X5034658Y-13431674D02*
X5053705Y-13422150D01*
X5053705Y-13422150D02*
X5082277Y-13422150D01*
X5082277Y-13422150D02*
X5101325Y-13431674D01*
X5101325Y-13431674D02*
X5110848Y-13450722D01*
X5110848Y-13450722D02*
X5110848Y-13555484D01*
X5206086Y-13555484D02*
X5206086Y-13422150D01*
X5206086Y-13441198D02*
X5215610Y-13431674D01*
X5215610Y-13431674D02*
X5234658Y-13422150D01*
X5234658Y-13422150D02*
X5263229Y-13422150D01*
X5263229Y-13422150D02*
X5282277Y-13431674D01*
X5282277Y-13431674D02*
X5291801Y-13450722D01*
X5291801Y-13450722D02*
X5291801Y-13555484D01*
X5291801Y-13450722D02*
X5301325Y-13431674D01*
X5301325Y-13431674D02*
X5320372Y-13422150D01*
X5320372Y-13422150D02*
X5348944Y-13422150D01*
X5348944Y-13422150D02*
X5367991Y-13431674D01*
X5367991Y-13431674D02*
X5377515Y-13450722D01*
X5377515Y-13450722D02*
X5377515Y-13555484D01*
X5767991Y-13345960D02*
X5596563Y-13603103D01*
X6025134Y-13355484D02*
X6044182Y-13355484D01*
X6044182Y-13355484D02*
X6063229Y-13365008D01*
X6063229Y-13365008D02*
X6072753Y-13374531D01*
X6072753Y-13374531D02*
X6082277Y-13393579D01*
X6082277Y-13393579D02*
X6091801Y-13431674D01*
X6091801Y-13431674D02*
X6091801Y-13479293D01*
X6091801Y-13479293D02*
X6082277Y-13517388D01*
X6082277Y-13517388D02*
X6072753Y-13536436D01*
X6072753Y-13536436D02*
X6063229Y-13545960D01*
X6063229Y-13545960D02*
X6044182Y-13555484D01*
X6044182Y-13555484D02*
X6025134Y-13555484D01*
X6025134Y-13555484D02*
X6006086Y-13545960D01*
X6006086Y-13545960D02*
X5996563Y-13536436D01*
X5996563Y-13536436D02*
X5987039Y-13517388D01*
X5987039Y-13517388D02*
X5977515Y-13479293D01*
X5977515Y-13479293D02*
X5977515Y-13431674D01*
X5977515Y-13431674D02*
X5987039Y-13393579D01*
X5987039Y-13393579D02*
X5996563Y-13374531D01*
X5996563Y-13374531D02*
X6006086Y-13365008D01*
X6006086Y-13365008D02*
X6025134Y-13355484D01*
X6177515Y-13536436D02*
X6187039Y-13545960D01*
X6187039Y-13545960D02*
X6177515Y-13555484D01*
X6177515Y-13555484D02*
X6167991Y-13545960D01*
X6167991Y-13545960D02*
X6177515Y-13536436D01*
X6177515Y-13536436D02*
X6177515Y-13555484D01*
X6310848Y-13355484D02*
X6329896Y-13355484D01*
X6329896Y-13355484D02*
X6348944Y-13365008D01*
X6348944Y-13365008D02*
X6358467Y-13374531D01*
X6358467Y-13374531D02*
X6367991Y-13393579D01*
X6367991Y-13393579D02*
X6377515Y-13431674D01*
X6377515Y-13431674D02*
X6377515Y-13479293D01*
X6377515Y-13479293D02*
X6367991Y-13517388D01*
X6367991Y-13517388D02*
X6358467Y-13536436D01*
X6358467Y-13536436D02*
X6348944Y-13545960D01*
X6348944Y-13545960D02*
X6329896Y-13555484D01*
X6329896Y-13555484D02*
X6310848Y-13555484D01*
X6310848Y-13555484D02*
X6291801Y-13545960D01*
X6291801Y-13545960D02*
X6282277Y-13536436D01*
X6282277Y-13536436D02*
X6272753Y-13517388D01*
X6272753Y-13517388D02*
X6263229Y-13479293D01*
X6263229Y-13479293D02*
X6263229Y-13431674D01*
X6263229Y-13431674D02*
X6272753Y-13393579D01*
X6272753Y-13393579D02*
X6282277Y-13374531D01*
X6282277Y-13374531D02*
X6291801Y-13365008D01*
X6291801Y-13365008D02*
X6310848Y-13355484D01*
X6558467Y-13355484D02*
X6463229Y-13355484D01*
X6463229Y-13355484D02*
X6453706Y-13450722D01*
X6453706Y-13450722D02*
X6463229Y-13441198D01*
X6463229Y-13441198D02*
X6482277Y-13431674D01*
X6482277Y-13431674D02*
X6529896Y-13431674D01*
X6529896Y-13431674D02*
X6548944Y-13441198D01*
X6548944Y-13441198D02*
X6558467Y-13450722D01*
X6558467Y-13450722D02*
X6567991Y-13469769D01*
X6567991Y-13469769D02*
X6567991Y-13517388D01*
X6567991Y-13517388D02*
X6558467Y-13536436D01*
X6558467Y-13536436D02*
X6548944Y-13545960D01*
X6548944Y-13545960D02*
X6529896Y-13555484D01*
X6529896Y-13555484D02*
X6482277Y-13555484D01*
X6482277Y-13555484D02*
X6463229Y-13545960D01*
X6463229Y-13545960D02*
X6453706Y-13536436D01*
X6758467Y-13555484D02*
X6644182Y-13555484D01*
X6701325Y-13555484D02*
X6701325Y-13355484D01*
X6701325Y-13355484D02*
X6682277Y-13384055D01*
X6682277Y-13384055D02*
X6663229Y-13403103D01*
X6663229Y-13403103D02*
X6644182Y-13412627D01*
X6834658Y-13374531D02*
X6844182Y-13365008D01*
X6844182Y-13365008D02*
X6863229Y-13355484D01*
X6863229Y-13355484D02*
X6910848Y-13355484D01*
X6910848Y-13355484D02*
X6929896Y-13365008D01*
X6929896Y-13365008D02*
X6939420Y-13374531D01*
X6939420Y-13374531D02*
X6948944Y-13393579D01*
X6948944Y-13393579D02*
X6948944Y-13412627D01*
X6948944Y-13412627D02*
X6939420Y-13441198D01*
X6939420Y-13441198D02*
X6825134Y-13555484D01*
X6825134Y-13555484D02*
X6948944Y-13555484D01*
X7025134Y-13355484D02*
X7025134Y-13393579D01*
X7101325Y-13355484D02*
X7101325Y-13393579D01*
X7396563Y-13631674D02*
X7387039Y-13622150D01*
X7387039Y-13622150D02*
X7367991Y-13593579D01*
X7367991Y-13593579D02*
X7358468Y-13574531D01*
X7358468Y-13574531D02*
X7348944Y-13545960D01*
X7348944Y-13545960D02*
X7339420Y-13498341D01*
X7339420Y-13498341D02*
X7339420Y-13460246D01*
X7339420Y-13460246D02*
X7348944Y-13412627D01*
X7348944Y-13412627D02*
X7358468Y-13384055D01*
X7358468Y-13384055D02*
X7367991Y-13365008D01*
X7367991Y-13365008D02*
X7387039Y-13336436D01*
X7387039Y-13336436D02*
X7396563Y-13326912D01*
X7463229Y-13374531D02*
X7472753Y-13365008D01*
X7472753Y-13365008D02*
X7491801Y-13355484D01*
X7491801Y-13355484D02*
X7539420Y-13355484D01*
X7539420Y-13355484D02*
X7558468Y-13365008D01*
X7558468Y-13365008D02*
X7567991Y-13374531D01*
X7567991Y-13374531D02*
X7577515Y-13393579D01*
X7577515Y-13393579D02*
X7577515Y-13412627D01*
X7577515Y-13412627D02*
X7567991Y-13441198D01*
X7567991Y-13441198D02*
X7453706Y-13555484D01*
X7453706Y-13555484D02*
X7577515Y-13555484D01*
X7815610Y-13555484D02*
X7815610Y-13355484D01*
X7901325Y-13555484D02*
X7901325Y-13450722D01*
X7901325Y-13450722D02*
X7891801Y-13431674D01*
X7891801Y-13431674D02*
X7872753Y-13422150D01*
X7872753Y-13422150D02*
X7844182Y-13422150D01*
X7844182Y-13422150D02*
X7825134Y-13431674D01*
X7825134Y-13431674D02*
X7815610Y-13441198D01*
X8025134Y-13555484D02*
X8006087Y-13545960D01*
X8006087Y-13545960D02*
X7996563Y-13536436D01*
X7996563Y-13536436D02*
X7987039Y-13517388D01*
X7987039Y-13517388D02*
X7987039Y-13460246D01*
X7987039Y-13460246D02*
X7996563Y-13441198D01*
X7996563Y-13441198D02*
X8006087Y-13431674D01*
X8006087Y-13431674D02*
X8025134Y-13422150D01*
X8025134Y-13422150D02*
X8053706Y-13422150D01*
X8053706Y-13422150D02*
X8072753Y-13431674D01*
X8072753Y-13431674D02*
X8082277Y-13441198D01*
X8082277Y-13441198D02*
X8091801Y-13460246D01*
X8091801Y-13460246D02*
X8091801Y-13517388D01*
X8091801Y-13517388D02*
X8082277Y-13536436D01*
X8082277Y-13536436D02*
X8072753Y-13545960D01*
X8072753Y-13545960D02*
X8053706Y-13555484D01*
X8053706Y-13555484D02*
X8025134Y-13555484D01*
X8206087Y-13555484D02*
X8187039Y-13545960D01*
X8187039Y-13545960D02*
X8177515Y-13526912D01*
X8177515Y-13526912D02*
X8177515Y-13355484D01*
X8358468Y-13545960D02*
X8339420Y-13555484D01*
X8339420Y-13555484D02*
X8301325Y-13555484D01*
X8301325Y-13555484D02*
X8282277Y-13545960D01*
X8282277Y-13545960D02*
X8272753Y-13526912D01*
X8272753Y-13526912D02*
X8272753Y-13450722D01*
X8272753Y-13450722D02*
X8282277Y-13431674D01*
X8282277Y-13431674D02*
X8301325Y-13422150D01*
X8301325Y-13422150D02*
X8339420Y-13422150D01*
X8339420Y-13422150D02*
X8358468Y-13431674D01*
X8358468Y-13431674D02*
X8367991Y-13450722D01*
X8367991Y-13450722D02*
X8367991Y-13469769D01*
X8367991Y-13469769D02*
X8272753Y-13488817D01*
X8444182Y-13545960D02*
X8463230Y-13555484D01*
X8463230Y-13555484D02*
X8501325Y-13555484D01*
X8501325Y-13555484D02*
X8520373Y-13545960D01*
X8520373Y-13545960D02*
X8529896Y-13526912D01*
X8529896Y-13526912D02*
X8529896Y-13517388D01*
X8529896Y-13517388D02*
X8520373Y-13498341D01*
X8520373Y-13498341D02*
X8501325Y-13488817D01*
X8501325Y-13488817D02*
X8472753Y-13488817D01*
X8472753Y-13488817D02*
X8453706Y-13479293D01*
X8453706Y-13479293D02*
X8444182Y-13460246D01*
X8444182Y-13460246D02*
X8444182Y-13450722D01*
X8444182Y-13450722D02*
X8453706Y-13431674D01*
X8453706Y-13431674D02*
X8472753Y-13422150D01*
X8472753Y-13422150D02*
X8501325Y-13422150D01*
X8501325Y-13422150D02*
X8520373Y-13431674D01*
X8596563Y-13631674D02*
X8606087Y-13622150D01*
X8606087Y-13622150D02*
X8625134Y-13593579D01*
X8625134Y-13593579D02*
X8634658Y-13574531D01*
X8634658Y-13574531D02*
X8644182Y-13545960D01*
X8644182Y-13545960D02*
X8653706Y-13498341D01*
X8653706Y-13498341D02*
X8653706Y-13460246D01*
X8653706Y-13460246D02*
X8644182Y-13412627D01*
X8644182Y-13412627D02*
X8634658Y-13384055D01*
X8634658Y-13384055D02*
X8625134Y-13365008D01*
X8625134Y-13365008D02*
X8606087Y-13336436D01*
X8606087Y-13336436D02*
X8596563Y-13326912D01*
D15*
X3689420Y-13661960D02*
X3821500Y-13794040D01*
X3821500Y-13661960D02*
X3689420Y-13794040D01*
X3802158Y-13774698D02*
X3802158Y-13681302D01*
X3708762Y-13681302D01*
X3708762Y-13774698D01*
X3802158Y-13774698D01*
D11*
X4187039Y-13819484D02*
X4072753Y-13819484D01*
X4129896Y-13819484D02*
X4129896Y-13619484D01*
X4129896Y-13619484D02*
X4110848Y-13648055D01*
X4110848Y-13648055D02*
X4091801Y-13667103D01*
X4091801Y-13667103D02*
X4072753Y-13676627D01*
X4272753Y-13800436D02*
X4282277Y-13809960D01*
X4282277Y-13809960D02*
X4272753Y-13819484D01*
X4272753Y-13819484D02*
X4263229Y-13809960D01*
X4263229Y-13809960D02*
X4272753Y-13800436D01*
X4272753Y-13800436D02*
X4272753Y-13819484D01*
X4348944Y-13619484D02*
X4472753Y-13619484D01*
X4472753Y-13619484D02*
X4406086Y-13695674D01*
X4406086Y-13695674D02*
X4434658Y-13695674D01*
X4434658Y-13695674D02*
X4453705Y-13705198D01*
X4453705Y-13705198D02*
X4463229Y-13714722D01*
X4463229Y-13714722D02*
X4472753Y-13733769D01*
X4472753Y-13733769D02*
X4472753Y-13781388D01*
X4472753Y-13781388D02*
X4463229Y-13800436D01*
X4463229Y-13800436D02*
X4453705Y-13809960D01*
X4453705Y-13809960D02*
X4434658Y-13819484D01*
X4434658Y-13819484D02*
X4377515Y-13819484D01*
X4377515Y-13819484D02*
X4358467Y-13809960D01*
X4358467Y-13809960D02*
X4348944Y-13800436D01*
X4548944Y-13638531D02*
X4558467Y-13629008D01*
X4558467Y-13629008D02*
X4577515Y-13619484D01*
X4577515Y-13619484D02*
X4625134Y-13619484D01*
X4625134Y-13619484D02*
X4644182Y-13629008D01*
X4644182Y-13629008D02*
X4653705Y-13638531D01*
X4653705Y-13638531D02*
X4663229Y-13657579D01*
X4663229Y-13657579D02*
X4663229Y-13676627D01*
X4663229Y-13676627D02*
X4653705Y-13705198D01*
X4653705Y-13705198D02*
X4539420Y-13819484D01*
X4539420Y-13819484D02*
X4663229Y-13819484D01*
X4853705Y-13819484D02*
X4739420Y-13819484D01*
X4796563Y-13819484D02*
X4796563Y-13619484D01*
X4796563Y-13619484D02*
X4777515Y-13648055D01*
X4777515Y-13648055D02*
X4758467Y-13667103D01*
X4758467Y-13667103D02*
X4739420Y-13676627D01*
X4939420Y-13819484D02*
X4939420Y-13686150D01*
X4939420Y-13705198D02*
X4948944Y-13695674D01*
X4948944Y-13695674D02*
X4967991Y-13686150D01*
X4967991Y-13686150D02*
X4996563Y-13686150D01*
X4996563Y-13686150D02*
X5015610Y-13695674D01*
X5015610Y-13695674D02*
X5025134Y-13714722D01*
X5025134Y-13714722D02*
X5025134Y-13819484D01*
X5025134Y-13714722D02*
X5034658Y-13695674D01*
X5034658Y-13695674D02*
X5053705Y-13686150D01*
X5053705Y-13686150D02*
X5082277Y-13686150D01*
X5082277Y-13686150D02*
X5101325Y-13695674D01*
X5101325Y-13695674D02*
X5110848Y-13714722D01*
X5110848Y-13714722D02*
X5110848Y-13819484D01*
X5206086Y-13819484D02*
X5206086Y-13686150D01*
X5206086Y-13705198D02*
X5215610Y-13695674D01*
X5215610Y-13695674D02*
X5234658Y-13686150D01*
X5234658Y-13686150D02*
X5263229Y-13686150D01*
X5263229Y-13686150D02*
X5282277Y-13695674D01*
X5282277Y-13695674D02*
X5291801Y-13714722D01*
X5291801Y-13714722D02*
X5291801Y-13819484D01*
X5291801Y-13714722D02*
X5301325Y-13695674D01*
X5301325Y-13695674D02*
X5320372Y-13686150D01*
X5320372Y-13686150D02*
X5348944Y-13686150D01*
X5348944Y-13686150D02*
X5367991Y-13695674D01*
X5367991Y-13695674D02*
X5377515Y-13714722D01*
X5377515Y-13714722D02*
X5377515Y-13819484D01*
X5767991Y-13609960D02*
X5596563Y-13867103D01*
X6025134Y-13619484D02*
X6044182Y-13619484D01*
X6044182Y-13619484D02*
X6063229Y-13629008D01*
X6063229Y-13629008D02*
X6072753Y-13638531D01*
X6072753Y-13638531D02*
X6082277Y-13657579D01*
X6082277Y-13657579D02*
X6091801Y-13695674D01*
X6091801Y-13695674D02*
X6091801Y-13743293D01*
X6091801Y-13743293D02*
X6082277Y-13781388D01*
X6082277Y-13781388D02*
X6072753Y-13800436D01*
X6072753Y-13800436D02*
X6063229Y-13809960D01*
X6063229Y-13809960D02*
X6044182Y-13819484D01*
X6044182Y-13819484D02*
X6025134Y-13819484D01*
X6025134Y-13819484D02*
X6006086Y-13809960D01*
X6006086Y-13809960D02*
X5996563Y-13800436D01*
X5996563Y-13800436D02*
X5987039Y-13781388D01*
X5987039Y-13781388D02*
X5977515Y-13743293D01*
X5977515Y-13743293D02*
X5977515Y-13695674D01*
X5977515Y-13695674D02*
X5987039Y-13657579D01*
X5987039Y-13657579D02*
X5996563Y-13638531D01*
X5996563Y-13638531D02*
X6006086Y-13629008D01*
X6006086Y-13629008D02*
X6025134Y-13619484D01*
X6177515Y-13800436D02*
X6187039Y-13809960D01*
X6187039Y-13809960D02*
X6177515Y-13819484D01*
X6177515Y-13819484D02*
X6167991Y-13809960D01*
X6167991Y-13809960D02*
X6177515Y-13800436D01*
X6177515Y-13800436D02*
X6177515Y-13819484D01*
X6310848Y-13619484D02*
X6329896Y-13619484D01*
X6329896Y-13619484D02*
X6348944Y-13629008D01*
X6348944Y-13629008D02*
X6358467Y-13638531D01*
X6358467Y-13638531D02*
X6367991Y-13657579D01*
X6367991Y-13657579D02*
X6377515Y-13695674D01*
X6377515Y-13695674D02*
X6377515Y-13743293D01*
X6377515Y-13743293D02*
X6367991Y-13781388D01*
X6367991Y-13781388D02*
X6358467Y-13800436D01*
X6358467Y-13800436D02*
X6348944Y-13809960D01*
X6348944Y-13809960D02*
X6329896Y-13819484D01*
X6329896Y-13819484D02*
X6310848Y-13819484D01*
X6310848Y-13819484D02*
X6291801Y-13809960D01*
X6291801Y-13809960D02*
X6282277Y-13800436D01*
X6282277Y-13800436D02*
X6272753Y-13781388D01*
X6272753Y-13781388D02*
X6263229Y-13743293D01*
X6263229Y-13743293D02*
X6263229Y-13695674D01*
X6263229Y-13695674D02*
X6272753Y-13657579D01*
X6272753Y-13657579D02*
X6282277Y-13638531D01*
X6282277Y-13638531D02*
X6291801Y-13629008D01*
X6291801Y-13629008D02*
X6310848Y-13619484D01*
X6558467Y-13619484D02*
X6463229Y-13619484D01*
X6463229Y-13619484D02*
X6453706Y-13714722D01*
X6453706Y-13714722D02*
X6463229Y-13705198D01*
X6463229Y-13705198D02*
X6482277Y-13695674D01*
X6482277Y-13695674D02*
X6529896Y-13695674D01*
X6529896Y-13695674D02*
X6548944Y-13705198D01*
X6548944Y-13705198D02*
X6558467Y-13714722D01*
X6558467Y-13714722D02*
X6567991Y-13733769D01*
X6567991Y-13733769D02*
X6567991Y-13781388D01*
X6567991Y-13781388D02*
X6558467Y-13800436D01*
X6558467Y-13800436D02*
X6548944Y-13809960D01*
X6548944Y-13809960D02*
X6529896Y-13819484D01*
X6529896Y-13819484D02*
X6482277Y-13819484D01*
X6482277Y-13819484D02*
X6463229Y-13809960D01*
X6463229Y-13809960D02*
X6453706Y-13800436D01*
X6644182Y-13638531D02*
X6653706Y-13629008D01*
X6653706Y-13629008D02*
X6672753Y-13619484D01*
X6672753Y-13619484D02*
X6720372Y-13619484D01*
X6720372Y-13619484D02*
X6739420Y-13629008D01*
X6739420Y-13629008D02*
X6748944Y-13638531D01*
X6748944Y-13638531D02*
X6758467Y-13657579D01*
X6758467Y-13657579D02*
X6758467Y-13676627D01*
X6758467Y-13676627D02*
X6748944Y-13705198D01*
X6748944Y-13705198D02*
X6634658Y-13819484D01*
X6634658Y-13819484D02*
X6758467Y-13819484D01*
X6882277Y-13619484D02*
X6901325Y-13619484D01*
X6901325Y-13619484D02*
X6920372Y-13629008D01*
X6920372Y-13629008D02*
X6929896Y-13638531D01*
X6929896Y-13638531D02*
X6939420Y-13657579D01*
X6939420Y-13657579D02*
X6948944Y-13695674D01*
X6948944Y-13695674D02*
X6948944Y-13743293D01*
X6948944Y-13743293D02*
X6939420Y-13781388D01*
X6939420Y-13781388D02*
X6929896Y-13800436D01*
X6929896Y-13800436D02*
X6920372Y-13809960D01*
X6920372Y-13809960D02*
X6901325Y-13819484D01*
X6901325Y-13819484D02*
X6882277Y-13819484D01*
X6882277Y-13819484D02*
X6863229Y-13809960D01*
X6863229Y-13809960D02*
X6853706Y-13800436D01*
X6853706Y-13800436D02*
X6844182Y-13781388D01*
X6844182Y-13781388D02*
X6834658Y-13743293D01*
X6834658Y-13743293D02*
X6834658Y-13695674D01*
X6834658Y-13695674D02*
X6844182Y-13657579D01*
X6844182Y-13657579D02*
X6853706Y-13638531D01*
X6853706Y-13638531D02*
X6863229Y-13629008D01*
X6863229Y-13629008D02*
X6882277Y-13619484D01*
X7025134Y-13619484D02*
X7025134Y-13657579D01*
X7101325Y-13619484D02*
X7101325Y-13657579D01*
X7396563Y-13895674D02*
X7387039Y-13886150D01*
X7387039Y-13886150D02*
X7367991Y-13857579D01*
X7367991Y-13857579D02*
X7358468Y-13838531D01*
X7358468Y-13838531D02*
X7348944Y-13809960D01*
X7348944Y-13809960D02*
X7339420Y-13762341D01*
X7339420Y-13762341D02*
X7339420Y-13724246D01*
X7339420Y-13724246D02*
X7348944Y-13676627D01*
X7348944Y-13676627D02*
X7358468Y-13648055D01*
X7358468Y-13648055D02*
X7367991Y-13629008D01*
X7367991Y-13629008D02*
X7387039Y-13600436D01*
X7387039Y-13600436D02*
X7396563Y-13590912D01*
X7558468Y-13686150D02*
X7558468Y-13819484D01*
X7510848Y-13609960D02*
X7463229Y-13752817D01*
X7463229Y-13752817D02*
X7587039Y-13752817D01*
X7815610Y-13819484D02*
X7815610Y-13619484D01*
X7901325Y-13819484D02*
X7901325Y-13714722D01*
X7901325Y-13714722D02*
X7891801Y-13695674D01*
X7891801Y-13695674D02*
X7872753Y-13686150D01*
X7872753Y-13686150D02*
X7844182Y-13686150D01*
X7844182Y-13686150D02*
X7825134Y-13695674D01*
X7825134Y-13695674D02*
X7815610Y-13705198D01*
X8025134Y-13819484D02*
X8006087Y-13809960D01*
X8006087Y-13809960D02*
X7996563Y-13800436D01*
X7996563Y-13800436D02*
X7987039Y-13781388D01*
X7987039Y-13781388D02*
X7987039Y-13724246D01*
X7987039Y-13724246D02*
X7996563Y-13705198D01*
X7996563Y-13705198D02*
X8006087Y-13695674D01*
X8006087Y-13695674D02*
X8025134Y-13686150D01*
X8025134Y-13686150D02*
X8053706Y-13686150D01*
X8053706Y-13686150D02*
X8072753Y-13695674D01*
X8072753Y-13695674D02*
X8082277Y-13705198D01*
X8082277Y-13705198D02*
X8091801Y-13724246D01*
X8091801Y-13724246D02*
X8091801Y-13781388D01*
X8091801Y-13781388D02*
X8082277Y-13800436D01*
X8082277Y-13800436D02*
X8072753Y-13809960D01*
X8072753Y-13809960D02*
X8053706Y-13819484D01*
X8053706Y-13819484D02*
X8025134Y-13819484D01*
X8206087Y-13819484D02*
X8187039Y-13809960D01*
X8187039Y-13809960D02*
X8177515Y-13790912D01*
X8177515Y-13790912D02*
X8177515Y-13619484D01*
X8358468Y-13809960D02*
X8339420Y-13819484D01*
X8339420Y-13819484D02*
X8301325Y-13819484D01*
X8301325Y-13819484D02*
X8282277Y-13809960D01*
X8282277Y-13809960D02*
X8272753Y-13790912D01*
X8272753Y-13790912D02*
X8272753Y-13714722D01*
X8272753Y-13714722D02*
X8282277Y-13695674D01*
X8282277Y-13695674D02*
X8301325Y-13686150D01*
X8301325Y-13686150D02*
X8339420Y-13686150D01*
X8339420Y-13686150D02*
X8358468Y-13695674D01*
X8358468Y-13695674D02*
X8367991Y-13714722D01*
X8367991Y-13714722D02*
X8367991Y-13733769D01*
X8367991Y-13733769D02*
X8272753Y-13752817D01*
X8444182Y-13809960D02*
X8463230Y-13819484D01*
X8463230Y-13819484D02*
X8501325Y-13819484D01*
X8501325Y-13819484D02*
X8520373Y-13809960D01*
X8520373Y-13809960D02*
X8529896Y-13790912D01*
X8529896Y-13790912D02*
X8529896Y-13781388D01*
X8529896Y-13781388D02*
X8520373Y-13762341D01*
X8520373Y-13762341D02*
X8501325Y-13752817D01*
X8501325Y-13752817D02*
X8472753Y-13752817D01*
X8472753Y-13752817D02*
X8453706Y-13743293D01*
X8453706Y-13743293D02*
X8444182Y-13724246D01*
X8444182Y-13724246D02*
X8444182Y-13714722D01*
X8444182Y-13714722D02*
X8453706Y-13695674D01*
X8453706Y-13695674D02*
X8472753Y-13686150D01*
X8472753Y-13686150D02*
X8501325Y-13686150D01*
X8501325Y-13686150D02*
X8520373Y-13695674D01*
X8596563Y-13895674D02*
X8606087Y-13886150D01*
X8606087Y-13886150D02*
X8625134Y-13857579D01*
X8625134Y-13857579D02*
X8634658Y-13838531D01*
X8634658Y-13838531D02*
X8644182Y-13809960D01*
X8644182Y-13809960D02*
X8653706Y-13762341D01*
X8653706Y-13762341D02*
X8653706Y-13724246D01*
X8653706Y-13724246D02*
X8644182Y-13676627D01*
X8644182Y-13676627D02*
X8634658Y-13648055D01*
X8634658Y-13648055D02*
X8625134Y-13629008D01*
X8625134Y-13629008D02*
X8606087Y-13600436D01*
X8606087Y-13600436D02*
X8596563Y-13590912D01*
D16*
X3681500Y-13922000D02*
X3821500Y-14062000D01*
X3821500Y-13922000D02*
X3681500Y-14062000D01*
X3751500Y-14062000D02*
X3821500Y-13992000D01*
X3751500Y-13922000D01*
X3681500Y-13992000D01*
X3751500Y-14062000D01*
D11*
X4187039Y-14083484D02*
X4072753Y-14083484D01*
X4129896Y-14083484D02*
X4129896Y-13883484D01*
X4129896Y-13883484D02*
X4110848Y-13912055D01*
X4110848Y-13912055D02*
X4091801Y-13931103D01*
X4091801Y-13931103D02*
X4072753Y-13940627D01*
X4272753Y-14064436D02*
X4282277Y-14073960D01*
X4282277Y-14073960D02*
X4272753Y-14083484D01*
X4272753Y-14083484D02*
X4263229Y-14073960D01*
X4263229Y-14073960D02*
X4272753Y-14064436D01*
X4272753Y-14064436D02*
X4272753Y-14083484D01*
X4453705Y-13950150D02*
X4453705Y-14083484D01*
X4406086Y-13873960D02*
X4358467Y-14016817D01*
X4358467Y-14016817D02*
X4482277Y-14016817D01*
X4596563Y-13883484D02*
X4615610Y-13883484D01*
X4615610Y-13883484D02*
X4634658Y-13893008D01*
X4634658Y-13893008D02*
X4644182Y-13902531D01*
X4644182Y-13902531D02*
X4653705Y-13921579D01*
X4653705Y-13921579D02*
X4663229Y-13959674D01*
X4663229Y-13959674D02*
X4663229Y-14007293D01*
X4663229Y-14007293D02*
X4653705Y-14045388D01*
X4653705Y-14045388D02*
X4644182Y-14064436D01*
X4644182Y-14064436D02*
X4634658Y-14073960D01*
X4634658Y-14073960D02*
X4615610Y-14083484D01*
X4615610Y-14083484D02*
X4596563Y-14083484D01*
X4596563Y-14083484D02*
X4577515Y-14073960D01*
X4577515Y-14073960D02*
X4567991Y-14064436D01*
X4567991Y-14064436D02*
X4558467Y-14045388D01*
X4558467Y-14045388D02*
X4548944Y-14007293D01*
X4548944Y-14007293D02*
X4548944Y-13959674D01*
X4548944Y-13959674D02*
X4558467Y-13921579D01*
X4558467Y-13921579D02*
X4567991Y-13902531D01*
X4567991Y-13902531D02*
X4577515Y-13893008D01*
X4577515Y-13893008D02*
X4596563Y-13883484D01*
X4787039Y-13883484D02*
X4806086Y-13883484D01*
X4806086Y-13883484D02*
X4825134Y-13893008D01*
X4825134Y-13893008D02*
X4834658Y-13902531D01*
X4834658Y-13902531D02*
X4844182Y-13921579D01*
X4844182Y-13921579D02*
X4853705Y-13959674D01*
X4853705Y-13959674D02*
X4853705Y-14007293D01*
X4853705Y-14007293D02*
X4844182Y-14045388D01*
X4844182Y-14045388D02*
X4834658Y-14064436D01*
X4834658Y-14064436D02*
X4825134Y-14073960D01*
X4825134Y-14073960D02*
X4806086Y-14083484D01*
X4806086Y-14083484D02*
X4787039Y-14083484D01*
X4787039Y-14083484D02*
X4767991Y-14073960D01*
X4767991Y-14073960D02*
X4758467Y-14064436D01*
X4758467Y-14064436D02*
X4748944Y-14045388D01*
X4748944Y-14045388D02*
X4739420Y-14007293D01*
X4739420Y-14007293D02*
X4739420Y-13959674D01*
X4739420Y-13959674D02*
X4748944Y-13921579D01*
X4748944Y-13921579D02*
X4758467Y-13902531D01*
X4758467Y-13902531D02*
X4767991Y-13893008D01*
X4767991Y-13893008D02*
X4787039Y-13883484D01*
X4939420Y-14083484D02*
X4939420Y-13950150D01*
X4939420Y-13969198D02*
X4948944Y-13959674D01*
X4948944Y-13959674D02*
X4967991Y-13950150D01*
X4967991Y-13950150D02*
X4996563Y-13950150D01*
X4996563Y-13950150D02*
X5015610Y-13959674D01*
X5015610Y-13959674D02*
X5025134Y-13978722D01*
X5025134Y-13978722D02*
X5025134Y-14083484D01*
X5025134Y-13978722D02*
X5034658Y-13959674D01*
X5034658Y-13959674D02*
X5053705Y-13950150D01*
X5053705Y-13950150D02*
X5082277Y-13950150D01*
X5082277Y-13950150D02*
X5101325Y-13959674D01*
X5101325Y-13959674D02*
X5110848Y-13978722D01*
X5110848Y-13978722D02*
X5110848Y-14083484D01*
X5206086Y-14083484D02*
X5206086Y-13950150D01*
X5206086Y-13969198D02*
X5215610Y-13959674D01*
X5215610Y-13959674D02*
X5234658Y-13950150D01*
X5234658Y-13950150D02*
X5263229Y-13950150D01*
X5263229Y-13950150D02*
X5282277Y-13959674D01*
X5282277Y-13959674D02*
X5291801Y-13978722D01*
X5291801Y-13978722D02*
X5291801Y-14083484D01*
X5291801Y-13978722D02*
X5301325Y-13959674D01*
X5301325Y-13959674D02*
X5320372Y-13950150D01*
X5320372Y-13950150D02*
X5348944Y-13950150D01*
X5348944Y-13950150D02*
X5367991Y-13959674D01*
X5367991Y-13959674D02*
X5377515Y-13978722D01*
X5377515Y-13978722D02*
X5377515Y-14083484D01*
X5767991Y-13873960D02*
X5596563Y-14131103D01*
X6025134Y-13883484D02*
X6044182Y-13883484D01*
X6044182Y-13883484D02*
X6063229Y-13893008D01*
X6063229Y-13893008D02*
X6072753Y-13902531D01*
X6072753Y-13902531D02*
X6082277Y-13921579D01*
X6082277Y-13921579D02*
X6091801Y-13959674D01*
X6091801Y-13959674D02*
X6091801Y-14007293D01*
X6091801Y-14007293D02*
X6082277Y-14045388D01*
X6082277Y-14045388D02*
X6072753Y-14064436D01*
X6072753Y-14064436D02*
X6063229Y-14073960D01*
X6063229Y-14073960D02*
X6044182Y-14083484D01*
X6044182Y-14083484D02*
X6025134Y-14083484D01*
X6025134Y-14083484D02*
X6006086Y-14073960D01*
X6006086Y-14073960D02*
X5996563Y-14064436D01*
X5996563Y-14064436D02*
X5987039Y-14045388D01*
X5987039Y-14045388D02*
X5977515Y-14007293D01*
X5977515Y-14007293D02*
X5977515Y-13959674D01*
X5977515Y-13959674D02*
X5987039Y-13921579D01*
X5987039Y-13921579D02*
X5996563Y-13902531D01*
X5996563Y-13902531D02*
X6006086Y-13893008D01*
X6006086Y-13893008D02*
X6025134Y-13883484D01*
X6177515Y-14064436D02*
X6187039Y-14073960D01*
X6187039Y-14073960D02*
X6177515Y-14083484D01*
X6177515Y-14083484D02*
X6167991Y-14073960D01*
X6167991Y-14073960D02*
X6177515Y-14064436D01*
X6177515Y-14064436D02*
X6177515Y-14083484D01*
X6310848Y-13883484D02*
X6329896Y-13883484D01*
X6329896Y-13883484D02*
X6348944Y-13893008D01*
X6348944Y-13893008D02*
X6358467Y-13902531D01*
X6358467Y-13902531D02*
X6367991Y-13921579D01*
X6367991Y-13921579D02*
X6377515Y-13959674D01*
X6377515Y-13959674D02*
X6377515Y-14007293D01*
X6377515Y-14007293D02*
X6367991Y-14045388D01*
X6367991Y-14045388D02*
X6358467Y-14064436D01*
X6358467Y-14064436D02*
X6348944Y-14073960D01*
X6348944Y-14073960D02*
X6329896Y-14083484D01*
X6329896Y-14083484D02*
X6310848Y-14083484D01*
X6310848Y-14083484D02*
X6291801Y-14073960D01*
X6291801Y-14073960D02*
X6282277Y-14064436D01*
X6282277Y-14064436D02*
X6272753Y-14045388D01*
X6272753Y-14045388D02*
X6263229Y-14007293D01*
X6263229Y-14007293D02*
X6263229Y-13959674D01*
X6263229Y-13959674D02*
X6272753Y-13921579D01*
X6272753Y-13921579D02*
X6282277Y-13902531D01*
X6282277Y-13902531D02*
X6291801Y-13893008D01*
X6291801Y-13893008D02*
X6310848Y-13883484D01*
X6558467Y-13883484D02*
X6463229Y-13883484D01*
X6463229Y-13883484D02*
X6453706Y-13978722D01*
X6453706Y-13978722D02*
X6463229Y-13969198D01*
X6463229Y-13969198D02*
X6482277Y-13959674D01*
X6482277Y-13959674D02*
X6529896Y-13959674D01*
X6529896Y-13959674D02*
X6548944Y-13969198D01*
X6548944Y-13969198D02*
X6558467Y-13978722D01*
X6558467Y-13978722D02*
X6567991Y-13997769D01*
X6567991Y-13997769D02*
X6567991Y-14045388D01*
X6567991Y-14045388D02*
X6558467Y-14064436D01*
X6558467Y-14064436D02*
X6548944Y-14073960D01*
X6548944Y-14073960D02*
X6529896Y-14083484D01*
X6529896Y-14083484D02*
X6482277Y-14083484D01*
X6482277Y-14083484D02*
X6463229Y-14073960D01*
X6463229Y-14073960D02*
X6453706Y-14064436D01*
X6748944Y-13883484D02*
X6653706Y-13883484D01*
X6653706Y-13883484D02*
X6644182Y-13978722D01*
X6644182Y-13978722D02*
X6653706Y-13969198D01*
X6653706Y-13969198D02*
X6672753Y-13959674D01*
X6672753Y-13959674D02*
X6720372Y-13959674D01*
X6720372Y-13959674D02*
X6739420Y-13969198D01*
X6739420Y-13969198D02*
X6748944Y-13978722D01*
X6748944Y-13978722D02*
X6758467Y-13997769D01*
X6758467Y-13997769D02*
X6758467Y-14045388D01*
X6758467Y-14045388D02*
X6748944Y-14064436D01*
X6748944Y-14064436D02*
X6739420Y-14073960D01*
X6739420Y-14073960D02*
X6720372Y-14083484D01*
X6720372Y-14083484D02*
X6672753Y-14083484D01*
X6672753Y-14083484D02*
X6653706Y-14073960D01*
X6653706Y-14073960D02*
X6644182Y-14064436D01*
X6948944Y-14083484D02*
X6834658Y-14083484D01*
X6891801Y-14083484D02*
X6891801Y-13883484D01*
X6891801Y-13883484D02*
X6872753Y-13912055D01*
X6872753Y-13912055D02*
X6853706Y-13931103D01*
X6853706Y-13931103D02*
X6834658Y-13940627D01*
X7025134Y-13883484D02*
X7025134Y-13921579D01*
X7101325Y-13883484D02*
X7101325Y-13921579D01*
X7396563Y-14159674D02*
X7387039Y-14150150D01*
X7387039Y-14150150D02*
X7367991Y-14121579D01*
X7367991Y-14121579D02*
X7358468Y-14102531D01*
X7358468Y-14102531D02*
X7348944Y-14073960D01*
X7348944Y-14073960D02*
X7339420Y-14026341D01*
X7339420Y-14026341D02*
X7339420Y-13988246D01*
X7339420Y-13988246D02*
X7348944Y-13940627D01*
X7348944Y-13940627D02*
X7358468Y-13912055D01*
X7358468Y-13912055D02*
X7367991Y-13893008D01*
X7367991Y-13893008D02*
X7387039Y-13864436D01*
X7387039Y-13864436D02*
X7396563Y-13854912D01*
X7558468Y-13950150D02*
X7558468Y-14083484D01*
X7510848Y-13873960D02*
X7463229Y-14016817D01*
X7463229Y-14016817D02*
X7587039Y-14016817D01*
X7815610Y-14083484D02*
X7815610Y-13883484D01*
X7901325Y-14083484D02*
X7901325Y-13978722D01*
X7901325Y-13978722D02*
X7891801Y-13959674D01*
X7891801Y-13959674D02*
X7872753Y-13950150D01*
X7872753Y-13950150D02*
X7844182Y-13950150D01*
X7844182Y-13950150D02*
X7825134Y-13959674D01*
X7825134Y-13959674D02*
X7815610Y-13969198D01*
X8025134Y-14083484D02*
X8006087Y-14073960D01*
X8006087Y-14073960D02*
X7996563Y-14064436D01*
X7996563Y-14064436D02*
X7987039Y-14045388D01*
X7987039Y-14045388D02*
X7987039Y-13988246D01*
X7987039Y-13988246D02*
X7996563Y-13969198D01*
X7996563Y-13969198D02*
X8006087Y-13959674D01*
X8006087Y-13959674D02*
X8025134Y-13950150D01*
X8025134Y-13950150D02*
X8053706Y-13950150D01*
X8053706Y-13950150D02*
X8072753Y-13959674D01*
X8072753Y-13959674D02*
X8082277Y-13969198D01*
X8082277Y-13969198D02*
X8091801Y-13988246D01*
X8091801Y-13988246D02*
X8091801Y-14045388D01*
X8091801Y-14045388D02*
X8082277Y-14064436D01*
X8082277Y-14064436D02*
X8072753Y-14073960D01*
X8072753Y-14073960D02*
X8053706Y-14083484D01*
X8053706Y-14083484D02*
X8025134Y-14083484D01*
X8206087Y-14083484D02*
X8187039Y-14073960D01*
X8187039Y-14073960D02*
X8177515Y-14054912D01*
X8177515Y-14054912D02*
X8177515Y-13883484D01*
X8358468Y-14073960D02*
X8339420Y-14083484D01*
X8339420Y-14083484D02*
X8301325Y-14083484D01*
X8301325Y-14083484D02*
X8282277Y-14073960D01*
X8282277Y-14073960D02*
X8272753Y-14054912D01*
X8272753Y-14054912D02*
X8272753Y-13978722D01*
X8272753Y-13978722D02*
X8282277Y-13959674D01*
X8282277Y-13959674D02*
X8301325Y-13950150D01*
X8301325Y-13950150D02*
X8339420Y-13950150D01*
X8339420Y-13950150D02*
X8358468Y-13959674D01*
X8358468Y-13959674D02*
X8367991Y-13978722D01*
X8367991Y-13978722D02*
X8367991Y-13997769D01*
X8367991Y-13997769D02*
X8272753Y-14016817D01*
X8444182Y-14073960D02*
X8463230Y-14083484D01*
X8463230Y-14083484D02*
X8501325Y-14083484D01*
X8501325Y-14083484D02*
X8520373Y-14073960D01*
X8520373Y-14073960D02*
X8529896Y-14054912D01*
X8529896Y-14054912D02*
X8529896Y-14045388D01*
X8529896Y-14045388D02*
X8520373Y-14026341D01*
X8520373Y-14026341D02*
X8501325Y-14016817D01*
X8501325Y-14016817D02*
X8472753Y-14016817D01*
X8472753Y-14016817D02*
X8453706Y-14007293D01*
X8453706Y-14007293D02*
X8444182Y-13988246D01*
X8444182Y-13988246D02*
X8444182Y-13978722D01*
X8444182Y-13978722D02*
X8453706Y-13959674D01*
X8453706Y-13959674D02*
X8472753Y-13950150D01*
X8472753Y-13950150D02*
X8501325Y-13950150D01*
X8501325Y-13950150D02*
X8520373Y-13959674D01*
X8596563Y-14159674D02*
X8606087Y-14150150D01*
X8606087Y-14150150D02*
X8625134Y-14121579D01*
X8625134Y-14121579D02*
X8634658Y-14102531D01*
X8634658Y-14102531D02*
X8644182Y-14073960D01*
X8644182Y-14073960D02*
X8653706Y-14026341D01*
X8653706Y-14026341D02*
X8653706Y-13988246D01*
X8653706Y-13988246D02*
X8644182Y-13940627D01*
X8644182Y-13940627D02*
X8634658Y-13912055D01*
X8634658Y-13912055D02*
X8625134Y-13893008D01*
X8625134Y-13893008D02*
X8606087Y-13864436D01*
X8606087Y-13864436D02*
X8596563Y-13854912D01*
D17*
X3731500Y-14166000D02*
X3731500Y-14346000D01*
X3641500Y-14256000D02*
X3821500Y-14256000D01*
X3821500Y-14256000D02*
G75*
G02*
X3641500Y-14256000I-90000J0D01*
G01*
X3641500Y-14256000D02*
G75*
G02*
X3821500Y-14256000I90000J0D01*
G01*
D11*
X4187039Y-14347484D02*
X4072753Y-14347484D01*
X4129896Y-14347484D02*
X4129896Y-14147484D01*
X4129896Y-14147484D02*
X4110848Y-14176055D01*
X4110848Y-14176055D02*
X4091801Y-14195103D01*
X4091801Y-14195103D02*
X4072753Y-14204627D01*
X4272753Y-14328436D02*
X4282277Y-14337960D01*
X4282277Y-14337960D02*
X4272753Y-14347484D01*
X4272753Y-14347484D02*
X4263229Y-14337960D01*
X4263229Y-14337960D02*
X4272753Y-14328436D01*
X4272753Y-14328436D02*
X4272753Y-14347484D01*
X4396563Y-14233198D02*
X4377515Y-14223674D01*
X4377515Y-14223674D02*
X4367991Y-14214150D01*
X4367991Y-14214150D02*
X4358467Y-14195103D01*
X4358467Y-14195103D02*
X4358467Y-14185579D01*
X4358467Y-14185579D02*
X4367991Y-14166531D01*
X4367991Y-14166531D02*
X4377515Y-14157008D01*
X4377515Y-14157008D02*
X4396563Y-14147484D01*
X4396563Y-14147484D02*
X4434658Y-14147484D01*
X4434658Y-14147484D02*
X4453705Y-14157008D01*
X4453705Y-14157008D02*
X4463229Y-14166531D01*
X4463229Y-14166531D02*
X4472753Y-14185579D01*
X4472753Y-14185579D02*
X4472753Y-14195103D01*
X4472753Y-14195103D02*
X4463229Y-14214150D01*
X4463229Y-14214150D02*
X4453705Y-14223674D01*
X4453705Y-14223674D02*
X4434658Y-14233198D01*
X4434658Y-14233198D02*
X4396563Y-14233198D01*
X4396563Y-14233198D02*
X4377515Y-14242722D01*
X4377515Y-14242722D02*
X4367991Y-14252246D01*
X4367991Y-14252246D02*
X4358467Y-14271293D01*
X4358467Y-14271293D02*
X4358467Y-14309388D01*
X4358467Y-14309388D02*
X4367991Y-14328436D01*
X4367991Y-14328436D02*
X4377515Y-14337960D01*
X4377515Y-14337960D02*
X4396563Y-14347484D01*
X4396563Y-14347484D02*
X4434658Y-14347484D01*
X4434658Y-14347484D02*
X4453705Y-14337960D01*
X4453705Y-14337960D02*
X4463229Y-14328436D01*
X4463229Y-14328436D02*
X4472753Y-14309388D01*
X4472753Y-14309388D02*
X4472753Y-14271293D01*
X4472753Y-14271293D02*
X4463229Y-14252246D01*
X4463229Y-14252246D02*
X4453705Y-14242722D01*
X4453705Y-14242722D02*
X4434658Y-14233198D01*
X4596563Y-14147484D02*
X4615610Y-14147484D01*
X4615610Y-14147484D02*
X4634658Y-14157008D01*
X4634658Y-14157008D02*
X4644182Y-14166531D01*
X4644182Y-14166531D02*
X4653705Y-14185579D01*
X4653705Y-14185579D02*
X4663229Y-14223674D01*
X4663229Y-14223674D02*
X4663229Y-14271293D01*
X4663229Y-14271293D02*
X4653705Y-14309388D01*
X4653705Y-14309388D02*
X4644182Y-14328436D01*
X4644182Y-14328436D02*
X4634658Y-14337960D01*
X4634658Y-14337960D02*
X4615610Y-14347484D01*
X4615610Y-14347484D02*
X4596563Y-14347484D01*
X4596563Y-14347484D02*
X4577515Y-14337960D01*
X4577515Y-14337960D02*
X4567991Y-14328436D01*
X4567991Y-14328436D02*
X4558467Y-14309388D01*
X4558467Y-14309388D02*
X4548944Y-14271293D01*
X4548944Y-14271293D02*
X4548944Y-14223674D01*
X4548944Y-14223674D02*
X4558467Y-14185579D01*
X4558467Y-14185579D02*
X4567991Y-14166531D01*
X4567991Y-14166531D02*
X4577515Y-14157008D01*
X4577515Y-14157008D02*
X4596563Y-14147484D01*
X4787039Y-14147484D02*
X4806086Y-14147484D01*
X4806086Y-14147484D02*
X4825134Y-14157008D01*
X4825134Y-14157008D02*
X4834658Y-14166531D01*
X4834658Y-14166531D02*
X4844182Y-14185579D01*
X4844182Y-14185579D02*
X4853705Y-14223674D01*
X4853705Y-14223674D02*
X4853705Y-14271293D01*
X4853705Y-14271293D02*
X4844182Y-14309388D01*
X4844182Y-14309388D02*
X4834658Y-14328436D01*
X4834658Y-14328436D02*
X4825134Y-14337960D01*
X4825134Y-14337960D02*
X4806086Y-14347484D01*
X4806086Y-14347484D02*
X4787039Y-14347484D01*
X4787039Y-14347484D02*
X4767991Y-14337960D01*
X4767991Y-14337960D02*
X4758467Y-14328436D01*
X4758467Y-14328436D02*
X4748944Y-14309388D01*
X4748944Y-14309388D02*
X4739420Y-14271293D01*
X4739420Y-14271293D02*
X4739420Y-14223674D01*
X4739420Y-14223674D02*
X4748944Y-14185579D01*
X4748944Y-14185579D02*
X4758467Y-14166531D01*
X4758467Y-14166531D02*
X4767991Y-14157008D01*
X4767991Y-14157008D02*
X4787039Y-14147484D01*
X4939420Y-14347484D02*
X4939420Y-14214150D01*
X4939420Y-14233198D02*
X4948944Y-14223674D01*
X4948944Y-14223674D02*
X4967991Y-14214150D01*
X4967991Y-14214150D02*
X4996563Y-14214150D01*
X4996563Y-14214150D02*
X5015610Y-14223674D01*
X5015610Y-14223674D02*
X5025134Y-14242722D01*
X5025134Y-14242722D02*
X5025134Y-14347484D01*
X5025134Y-14242722D02*
X5034658Y-14223674D01*
X5034658Y-14223674D02*
X5053705Y-14214150D01*
X5053705Y-14214150D02*
X5082277Y-14214150D01*
X5082277Y-14214150D02*
X5101325Y-14223674D01*
X5101325Y-14223674D02*
X5110848Y-14242722D01*
X5110848Y-14242722D02*
X5110848Y-14347484D01*
X5206086Y-14347484D02*
X5206086Y-14214150D01*
X5206086Y-14233198D02*
X5215610Y-14223674D01*
X5215610Y-14223674D02*
X5234658Y-14214150D01*
X5234658Y-14214150D02*
X5263229Y-14214150D01*
X5263229Y-14214150D02*
X5282277Y-14223674D01*
X5282277Y-14223674D02*
X5291801Y-14242722D01*
X5291801Y-14242722D02*
X5291801Y-14347484D01*
X5291801Y-14242722D02*
X5301325Y-14223674D01*
X5301325Y-14223674D02*
X5320372Y-14214150D01*
X5320372Y-14214150D02*
X5348944Y-14214150D01*
X5348944Y-14214150D02*
X5367991Y-14223674D01*
X5367991Y-14223674D02*
X5377515Y-14242722D01*
X5377515Y-14242722D02*
X5377515Y-14347484D01*
X5767991Y-14137960D02*
X5596563Y-14395103D01*
X6025134Y-14147484D02*
X6044182Y-14147484D01*
X6044182Y-14147484D02*
X6063229Y-14157008D01*
X6063229Y-14157008D02*
X6072753Y-14166531D01*
X6072753Y-14166531D02*
X6082277Y-14185579D01*
X6082277Y-14185579D02*
X6091801Y-14223674D01*
X6091801Y-14223674D02*
X6091801Y-14271293D01*
X6091801Y-14271293D02*
X6082277Y-14309388D01*
X6082277Y-14309388D02*
X6072753Y-14328436D01*
X6072753Y-14328436D02*
X6063229Y-14337960D01*
X6063229Y-14337960D02*
X6044182Y-14347484D01*
X6044182Y-14347484D02*
X6025134Y-14347484D01*
X6025134Y-14347484D02*
X6006086Y-14337960D01*
X6006086Y-14337960D02*
X5996563Y-14328436D01*
X5996563Y-14328436D02*
X5987039Y-14309388D01*
X5987039Y-14309388D02*
X5977515Y-14271293D01*
X5977515Y-14271293D02*
X5977515Y-14223674D01*
X5977515Y-14223674D02*
X5987039Y-14185579D01*
X5987039Y-14185579D02*
X5996563Y-14166531D01*
X5996563Y-14166531D02*
X6006086Y-14157008D01*
X6006086Y-14157008D02*
X6025134Y-14147484D01*
X6177515Y-14328436D02*
X6187039Y-14337960D01*
X6187039Y-14337960D02*
X6177515Y-14347484D01*
X6177515Y-14347484D02*
X6167991Y-14337960D01*
X6167991Y-14337960D02*
X6177515Y-14328436D01*
X6177515Y-14328436D02*
X6177515Y-14347484D01*
X6310848Y-14147484D02*
X6329896Y-14147484D01*
X6329896Y-14147484D02*
X6348944Y-14157008D01*
X6348944Y-14157008D02*
X6358467Y-14166531D01*
X6358467Y-14166531D02*
X6367991Y-14185579D01*
X6367991Y-14185579D02*
X6377515Y-14223674D01*
X6377515Y-14223674D02*
X6377515Y-14271293D01*
X6377515Y-14271293D02*
X6367991Y-14309388D01*
X6367991Y-14309388D02*
X6358467Y-14328436D01*
X6358467Y-14328436D02*
X6348944Y-14337960D01*
X6348944Y-14337960D02*
X6329896Y-14347484D01*
X6329896Y-14347484D02*
X6310848Y-14347484D01*
X6310848Y-14347484D02*
X6291801Y-14337960D01*
X6291801Y-14337960D02*
X6282277Y-14328436D01*
X6282277Y-14328436D02*
X6272753Y-14309388D01*
X6272753Y-14309388D02*
X6263229Y-14271293D01*
X6263229Y-14271293D02*
X6263229Y-14223674D01*
X6263229Y-14223674D02*
X6272753Y-14185579D01*
X6272753Y-14185579D02*
X6282277Y-14166531D01*
X6282277Y-14166531D02*
X6291801Y-14157008D01*
X6291801Y-14157008D02*
X6310848Y-14147484D01*
X6444182Y-14147484D02*
X6577515Y-14147484D01*
X6577515Y-14147484D02*
X6491801Y-14347484D01*
X6691801Y-14147484D02*
X6710848Y-14147484D01*
X6710848Y-14147484D02*
X6729896Y-14157008D01*
X6729896Y-14157008D02*
X6739420Y-14166531D01*
X6739420Y-14166531D02*
X6748944Y-14185579D01*
X6748944Y-14185579D02*
X6758467Y-14223674D01*
X6758467Y-14223674D02*
X6758467Y-14271293D01*
X6758467Y-14271293D02*
X6748944Y-14309388D01*
X6748944Y-14309388D02*
X6739420Y-14328436D01*
X6739420Y-14328436D02*
X6729896Y-14337960D01*
X6729896Y-14337960D02*
X6710848Y-14347484D01*
X6710848Y-14347484D02*
X6691801Y-14347484D01*
X6691801Y-14347484D02*
X6672753Y-14337960D01*
X6672753Y-14337960D02*
X6663229Y-14328436D01*
X6663229Y-14328436D02*
X6653706Y-14309388D01*
X6653706Y-14309388D02*
X6644182Y-14271293D01*
X6644182Y-14271293D02*
X6644182Y-14223674D01*
X6644182Y-14223674D02*
X6653706Y-14185579D01*
X6653706Y-14185579D02*
X6663229Y-14166531D01*
X6663229Y-14166531D02*
X6672753Y-14157008D01*
X6672753Y-14157008D02*
X6691801Y-14147484D01*
X6853706Y-14347484D02*
X6891801Y-14347484D01*
X6891801Y-14347484D02*
X6910848Y-14337960D01*
X6910848Y-14337960D02*
X6920372Y-14328436D01*
X6920372Y-14328436D02*
X6939420Y-14299865D01*
X6939420Y-14299865D02*
X6948944Y-14261769D01*
X6948944Y-14261769D02*
X6948944Y-14185579D01*
X6948944Y-14185579D02*
X6939420Y-14166531D01*
X6939420Y-14166531D02*
X6929896Y-14157008D01*
X6929896Y-14157008D02*
X6910848Y-14147484D01*
X6910848Y-14147484D02*
X6872753Y-14147484D01*
X6872753Y-14147484D02*
X6853706Y-14157008D01*
X6853706Y-14157008D02*
X6844182Y-14166531D01*
X6844182Y-14166531D02*
X6834658Y-14185579D01*
X6834658Y-14185579D02*
X6834658Y-14233198D01*
X6834658Y-14233198D02*
X6844182Y-14252246D01*
X6844182Y-14252246D02*
X6853706Y-14261769D01*
X6853706Y-14261769D02*
X6872753Y-14271293D01*
X6872753Y-14271293D02*
X6910848Y-14271293D01*
X6910848Y-14271293D02*
X6929896Y-14261769D01*
X6929896Y-14261769D02*
X6939420Y-14252246D01*
X6939420Y-14252246D02*
X6948944Y-14233198D01*
X7025134Y-14147484D02*
X7025134Y-14185579D01*
X7101325Y-14147484D02*
X7101325Y-14185579D01*
X7396563Y-14423674D02*
X7387039Y-14414150D01*
X7387039Y-14414150D02*
X7367991Y-14385579D01*
X7367991Y-14385579D02*
X7358468Y-14366531D01*
X7358468Y-14366531D02*
X7348944Y-14337960D01*
X7348944Y-14337960D02*
X7339420Y-14290341D01*
X7339420Y-14290341D02*
X7339420Y-14252246D01*
X7339420Y-14252246D02*
X7348944Y-14204627D01*
X7348944Y-14204627D02*
X7358468Y-14176055D01*
X7358468Y-14176055D02*
X7367991Y-14157008D01*
X7367991Y-14157008D02*
X7387039Y-14128436D01*
X7387039Y-14128436D02*
X7396563Y-14118912D01*
X7510848Y-14147484D02*
X7529896Y-14147484D01*
X7529896Y-14147484D02*
X7548944Y-14157008D01*
X7548944Y-14157008D02*
X7558468Y-14166531D01*
X7558468Y-14166531D02*
X7567991Y-14185579D01*
X7567991Y-14185579D02*
X7577515Y-14223674D01*
X7577515Y-14223674D02*
X7577515Y-14271293D01*
X7577515Y-14271293D02*
X7567991Y-14309388D01*
X7567991Y-14309388D02*
X7558468Y-14328436D01*
X7558468Y-14328436D02*
X7548944Y-14337960D01*
X7548944Y-14337960D02*
X7529896Y-14347484D01*
X7529896Y-14347484D02*
X7510848Y-14347484D01*
X7510848Y-14347484D02*
X7491801Y-14337960D01*
X7491801Y-14337960D02*
X7482277Y-14328436D01*
X7482277Y-14328436D02*
X7472753Y-14309388D01*
X7472753Y-14309388D02*
X7463229Y-14271293D01*
X7463229Y-14271293D02*
X7463229Y-14223674D01*
X7463229Y-14223674D02*
X7472753Y-14185579D01*
X7472753Y-14185579D02*
X7482277Y-14166531D01*
X7482277Y-14166531D02*
X7491801Y-14157008D01*
X7491801Y-14157008D02*
X7510848Y-14147484D01*
X7815610Y-14347484D02*
X7815610Y-14147484D01*
X7901325Y-14347484D02*
X7901325Y-14242722D01*
X7901325Y-14242722D02*
X7891801Y-14223674D01*
X7891801Y-14223674D02*
X7872753Y-14214150D01*
X7872753Y-14214150D02*
X7844182Y-14214150D01*
X7844182Y-14214150D02*
X7825134Y-14223674D01*
X7825134Y-14223674D02*
X7815610Y-14233198D01*
X8025134Y-14347484D02*
X8006087Y-14337960D01*
X8006087Y-14337960D02*
X7996563Y-14328436D01*
X7996563Y-14328436D02*
X7987039Y-14309388D01*
X7987039Y-14309388D02*
X7987039Y-14252246D01*
X7987039Y-14252246D02*
X7996563Y-14233198D01*
X7996563Y-14233198D02*
X8006087Y-14223674D01*
X8006087Y-14223674D02*
X8025134Y-14214150D01*
X8025134Y-14214150D02*
X8053706Y-14214150D01*
X8053706Y-14214150D02*
X8072753Y-14223674D01*
X8072753Y-14223674D02*
X8082277Y-14233198D01*
X8082277Y-14233198D02*
X8091801Y-14252246D01*
X8091801Y-14252246D02*
X8091801Y-14309388D01*
X8091801Y-14309388D02*
X8082277Y-14328436D01*
X8082277Y-14328436D02*
X8072753Y-14337960D01*
X8072753Y-14337960D02*
X8053706Y-14347484D01*
X8053706Y-14347484D02*
X8025134Y-14347484D01*
X8206087Y-14347484D02*
X8187039Y-14337960D01*
X8187039Y-14337960D02*
X8177515Y-14318912D01*
X8177515Y-14318912D02*
X8177515Y-14147484D01*
X8358468Y-14337960D02*
X8339420Y-14347484D01*
X8339420Y-14347484D02*
X8301325Y-14347484D01*
X8301325Y-14347484D02*
X8282277Y-14337960D01*
X8282277Y-14337960D02*
X8272753Y-14318912D01*
X8272753Y-14318912D02*
X8272753Y-14242722D01*
X8272753Y-14242722D02*
X8282277Y-14223674D01*
X8282277Y-14223674D02*
X8301325Y-14214150D01*
X8301325Y-14214150D02*
X8339420Y-14214150D01*
X8339420Y-14214150D02*
X8358468Y-14223674D01*
X8358468Y-14223674D02*
X8367991Y-14242722D01*
X8367991Y-14242722D02*
X8367991Y-14261769D01*
X8367991Y-14261769D02*
X8272753Y-14280817D01*
X8444182Y-14337960D02*
X8463230Y-14347484D01*
X8463230Y-14347484D02*
X8501325Y-14347484D01*
X8501325Y-14347484D02*
X8520373Y-14337960D01*
X8520373Y-14337960D02*
X8529896Y-14318912D01*
X8529896Y-14318912D02*
X8529896Y-14309388D01*
X8529896Y-14309388D02*
X8520373Y-14290341D01*
X8520373Y-14290341D02*
X8501325Y-14280817D01*
X8501325Y-14280817D02*
X8472753Y-14280817D01*
X8472753Y-14280817D02*
X8453706Y-14271293D01*
X8453706Y-14271293D02*
X8444182Y-14252246D01*
X8444182Y-14252246D02*
X8444182Y-14242722D01*
X8444182Y-14242722D02*
X8453706Y-14223674D01*
X8453706Y-14223674D02*
X8472753Y-14214150D01*
X8472753Y-14214150D02*
X8501325Y-14214150D01*
X8501325Y-14214150D02*
X8520373Y-14223674D01*
X8767992Y-14271293D02*
X8920373Y-14271293D01*
X8844182Y-14347484D02*
X8844182Y-14195103D01*
X9158468Y-14166531D02*
X9167992Y-14157008D01*
X9167992Y-14157008D02*
X9187039Y-14147484D01*
X9187039Y-14147484D02*
X9234658Y-14147484D01*
X9234658Y-14147484D02*
X9253706Y-14157008D01*
X9253706Y-14157008D02*
X9263230Y-14166531D01*
X9263230Y-14166531D02*
X9272754Y-14185579D01*
X9272754Y-14185579D02*
X9272754Y-14204627D01*
X9272754Y-14204627D02*
X9263230Y-14233198D01*
X9263230Y-14233198D02*
X9148944Y-14347484D01*
X9148944Y-14347484D02*
X9272754Y-14347484D01*
X9501325Y-14337960D02*
X9520373Y-14347484D01*
X9520373Y-14347484D02*
X9558468Y-14347484D01*
X9558468Y-14347484D02*
X9577516Y-14337960D01*
X9577516Y-14337960D02*
X9587039Y-14318912D01*
X9587039Y-14318912D02*
X9587039Y-14309388D01*
X9587039Y-14309388D02*
X9577516Y-14290341D01*
X9577516Y-14290341D02*
X9558468Y-14280817D01*
X9558468Y-14280817D02*
X9529896Y-14280817D01*
X9529896Y-14280817D02*
X9510849Y-14271293D01*
X9510849Y-14271293D02*
X9501325Y-14252246D01*
X9501325Y-14252246D02*
X9501325Y-14242722D01*
X9501325Y-14242722D02*
X9510849Y-14223674D01*
X9510849Y-14223674D02*
X9529896Y-14214150D01*
X9529896Y-14214150D02*
X9558468Y-14214150D01*
X9558468Y-14214150D02*
X9577516Y-14223674D01*
X9701325Y-14347484D02*
X9682277Y-14337960D01*
X9682277Y-14337960D02*
X9672754Y-14318912D01*
X9672754Y-14318912D02*
X9672754Y-14147484D01*
X9806087Y-14347484D02*
X9787039Y-14337960D01*
X9787039Y-14337960D02*
X9777516Y-14328436D01*
X9777516Y-14328436D02*
X9767992Y-14309388D01*
X9767992Y-14309388D02*
X9767992Y-14252246D01*
X9767992Y-14252246D02*
X9777516Y-14233198D01*
X9777516Y-14233198D02*
X9787039Y-14223674D01*
X9787039Y-14223674D02*
X9806087Y-14214150D01*
X9806087Y-14214150D02*
X9834658Y-14214150D01*
X9834658Y-14214150D02*
X9853706Y-14223674D01*
X9853706Y-14223674D02*
X9863230Y-14233198D01*
X9863230Y-14233198D02*
X9872754Y-14252246D01*
X9872754Y-14252246D02*
X9872754Y-14309388D01*
X9872754Y-14309388D02*
X9863230Y-14328436D01*
X9863230Y-14328436D02*
X9853706Y-14337960D01*
X9853706Y-14337960D02*
X9834658Y-14347484D01*
X9834658Y-14347484D02*
X9806087Y-14347484D01*
X9929897Y-14214150D02*
X10006087Y-14214150D01*
X9958468Y-14147484D02*
X9958468Y-14318912D01*
X9958468Y-14318912D02*
X9967992Y-14337960D01*
X9967992Y-14337960D02*
X9987039Y-14347484D01*
X9987039Y-14347484D02*
X10006087Y-14347484D01*
X10063230Y-14337960D02*
X10082277Y-14347484D01*
X10082277Y-14347484D02*
X10120373Y-14347484D01*
X10120373Y-14347484D02*
X10139420Y-14337960D01*
X10139420Y-14337960D02*
X10148944Y-14318912D01*
X10148944Y-14318912D02*
X10148944Y-14309388D01*
X10148944Y-14309388D02*
X10139420Y-14290341D01*
X10139420Y-14290341D02*
X10120373Y-14280817D01*
X10120373Y-14280817D02*
X10091801Y-14280817D01*
X10091801Y-14280817D02*
X10072754Y-14271293D01*
X10072754Y-14271293D02*
X10063230Y-14252246D01*
X10063230Y-14252246D02*
X10063230Y-14242722D01*
X10063230Y-14242722D02*
X10072754Y-14223674D01*
X10072754Y-14223674D02*
X10091801Y-14214150D01*
X10091801Y-14214150D02*
X10120373Y-14214150D01*
X10120373Y-14214150D02*
X10139420Y-14223674D01*
X10215611Y-14423674D02*
X10225135Y-14414150D01*
X10225135Y-14414150D02*
X10244182Y-14385579D01*
X10244182Y-14385579D02*
X10253706Y-14366531D01*
X10253706Y-14366531D02*
X10263230Y-14337960D01*
X10263230Y-14337960D02*
X10272754Y-14290341D01*
X10272754Y-14290341D02*
X10272754Y-14252246D01*
X10272754Y-14252246D02*
X10263230Y-14204627D01*
X10263230Y-14204627D02*
X10253706Y-14176055D01*
X10253706Y-14176055D02*
X10244182Y-14157008D01*
X10244182Y-14157008D02*
X10225135Y-14128436D01*
X10225135Y-14128436D02*
X10215611Y-14118912D01*
M02*
