G04 #@! TF.GenerationSoftware,KiCad,Pcbnew,8.0.8*
G04 #@! TF.CreationDate,2025-06-27T16:28:27-04:00*
G04 #@! TF.ProjectId,multimeter,6d756c74-696d-4657-9465-722e6b696361,rev?*
G04 #@! TF.SameCoordinates,Original*
G04 #@! TF.FileFunction,Copper,L1,Top*
G04 #@! TF.FilePolarity,Positive*
%FSLAX46Y46*%
G04 Gerber Fmt 4.6, Leading zero omitted, Abs format (unit mm)*
G04 Created by KiCad (PCBNEW 8.0.8) date 2025-06-27 16:28:27*
%MOMM*%
%LPD*%
G01*
G04 APERTURE LIST*
G04 Aperture macros list*
%AMRoundRect*
0 Rectangle with rounded corners*
0 $1 Rounding radius*
0 $2 $3 $4 $5 $6 $7 $8 $9 X,Y pos of 4 corners*
0 Add a 4 corners polygon primitive as box body*
4,1,4,$2,$3,$4,$5,$6,$7,$8,$9,$2,$3,0*
0 Add four circle primitives for the rounded corners*
1,1,$1+$1,$2,$3*
1,1,$1+$1,$4,$5*
1,1,$1+$1,$6,$7*
1,1,$1+$1,$8,$9*
0 Add four rect primitives between the rounded corners*
20,1,$1+$1,$2,$3,$4,$5,0*
20,1,$1+$1,$4,$5,$6,$7,0*
20,1,$1+$1,$6,$7,$8,$9,0*
20,1,$1+$1,$8,$9,$2,$3,0*%
G04 Aperture macros list end*
G04 #@! TA.AperFunction,ComponentPad*
%ADD10R,1.500000X1.500000*%
G04 #@! TD*
G04 #@! TA.AperFunction,ComponentPad*
%ADD11C,1.500000*%
G04 #@! TD*
G04 #@! TA.AperFunction,ComponentPad*
%ADD12C,1.600000*%
G04 #@! TD*
G04 #@! TA.AperFunction,ComponentPad*
%ADD13O,1.600000X1.600000*%
G04 #@! TD*
G04 #@! TA.AperFunction,ComponentPad*
%ADD14R,1.905000X2.000000*%
G04 #@! TD*
G04 #@! TA.AperFunction,ComponentPad*
%ADD15O,1.905000X2.000000*%
G04 #@! TD*
G04 #@! TA.AperFunction,ComponentPad*
%ADD16RoundRect,0.250001X-1.149999X1.149999X-1.149999X-1.149999X1.149999X-1.149999X1.149999X1.149999X0*%
G04 #@! TD*
G04 #@! TA.AperFunction,ComponentPad*
%ADD17C,2.800000*%
G04 #@! TD*
G04 #@! TA.AperFunction,ComponentPad*
%ADD18R,2.000000X1.905000*%
G04 #@! TD*
G04 #@! TA.AperFunction,ComponentPad*
%ADD19O,2.000000X1.905000*%
G04 #@! TD*
G04 #@! TA.AperFunction,ComponentPad*
%ADD20RoundRect,0.250001X-1.149999X-1.149999X1.149999X-1.149999X1.149999X1.149999X-1.149999X1.149999X0*%
G04 #@! TD*
G04 #@! TA.AperFunction,ComponentPad*
%ADD21R,2.800000X2.800000*%
G04 #@! TD*
G04 #@! TA.AperFunction,ComponentPad*
%ADD22O,2.800000X2.800000*%
G04 #@! TD*
G04 #@! TA.AperFunction,ComponentPad*
%ADD23R,1.600000X1.600000*%
G04 #@! TD*
G04 #@! TA.AperFunction,ComponentPad*
%ADD24R,1.800000X1.800000*%
G04 #@! TD*
G04 #@! TA.AperFunction,ComponentPad*
%ADD25C,1.800000*%
G04 #@! TD*
G04 #@! TA.AperFunction,ComponentPad*
%ADD26RoundRect,0.250001X1.149999X-1.149999X1.149999X1.149999X-1.149999X1.149999X-1.149999X-1.149999X0*%
G04 #@! TD*
G04 #@! TA.AperFunction,ViaPad*
%ADD27C,2.500000*%
G04 #@! TD*
G04 #@! TA.AperFunction,Conductor*
%ADD28C,1.000000*%
G04 #@! TD*
G04 #@! TA.AperFunction,Conductor*
%ADD29C,0.500000*%
G04 #@! TD*
G04 APERTURE END LIST*
D10*
X51911163Y59057288D03*
D11*
X51911163Y56517288D03*
X51911163Y53977288D03*
D10*
X46056163Y44142288D03*
D11*
X46056163Y41602288D03*
X46056163Y39062288D03*
D10*
X45916163Y52807288D03*
D11*
X45916163Y50267288D03*
X45916163Y47727288D03*
D10*
X43806163Y15947288D03*
D11*
X43806163Y13407288D03*
X43806163Y10867288D03*
D10*
X38556163Y807288D03*
D11*
X38556163Y-1732712D03*
X38556163Y-4272712D03*
D10*
X38556163Y9447288D03*
D11*
X38556163Y6907288D03*
X38556163Y4367288D03*
D10*
X66076163Y16177288D03*
D11*
X66076163Y13637288D03*
X66076163Y11097288D03*
D10*
X60911163Y307288D03*
D11*
X60911163Y-2232712D03*
X60911163Y-4772712D03*
D10*
X60936163Y9447288D03*
D11*
X60936163Y6907288D03*
X60936163Y4367288D03*
D10*
X25911163Y51557288D03*
D11*
X25911163Y49017288D03*
X25911163Y46477288D03*
D10*
X20686163Y36447288D03*
D11*
X20686163Y33907288D03*
X20686163Y31367288D03*
D10*
X20611163Y45007288D03*
D11*
X20611163Y42467288D03*
X20611163Y39927288D03*
D10*
X21246163Y17177288D03*
D11*
X21246163Y14637288D03*
X21246163Y12097288D03*
D10*
X16661163Y1307288D03*
D11*
X16661163Y-1232712D03*
X16661163Y-3772712D03*
D10*
X16496163Y9927288D03*
D11*
X16496163Y7387288D03*
X16496163Y4847288D03*
D12*
X71696163Y27157288D03*
D13*
X74236163Y27157288D03*
D14*
X61856163Y55657288D03*
D15*
X64396163Y55657288D03*
X66936163Y55657288D03*
D12*
X10316163Y20407288D03*
D13*
X12856163Y20407288D03*
D12*
X61396163Y51602288D03*
D13*
X61396163Y49062288D03*
D12*
X30036163Y2157288D03*
D13*
X32576163Y2157288D03*
D16*
X89396163Y47907288D03*
D17*
X89396163Y42907288D03*
D12*
X36066163Y42907288D03*
D13*
X38606163Y42907288D03*
D12*
X51816163Y14907288D03*
D13*
X54356163Y14907288D03*
D18*
X88936163Y28657288D03*
D19*
X88936163Y26117288D03*
X88936163Y23577288D03*
D12*
X13896163Y52907288D03*
D13*
X16436163Y52907288D03*
D12*
X23436163Y65657288D03*
D13*
X20896163Y65657288D03*
D20*
X74686163Y4939788D03*
D17*
X79686163Y4939788D03*
D14*
X74776163Y56352288D03*
D15*
X77316163Y56352288D03*
X79856163Y56352288D03*
D21*
X50086163Y65407288D03*
D22*
X62786163Y65407288D03*
D12*
X31436163Y18657288D03*
D13*
X33976163Y18657288D03*
D12*
X12486163Y35157288D03*
D13*
X15026163Y35157288D03*
D12*
X20396163Y54907288D03*
D13*
X22936163Y54907288D03*
D12*
X37766163Y20407288D03*
D13*
X40306163Y20407288D03*
D12*
X12486163Y47157288D03*
D13*
X15026163Y47157288D03*
D12*
X51816163Y8407288D03*
D13*
X54356163Y8407288D03*
D12*
X36066163Y55407288D03*
D13*
X38606163Y55407288D03*
D12*
X12636163Y41157288D03*
D13*
X15176163Y41157288D03*
D12*
X74856163Y49552288D03*
D13*
X74856163Y47012288D03*
D12*
X53896163Y20407288D03*
D13*
X56436163Y20407288D03*
D12*
X36066163Y48907288D03*
D13*
X38606163Y48907288D03*
D12*
X8166163Y2697288D03*
D13*
X10706163Y2697288D03*
D23*
X-2433837Y38907288D03*
D13*
X5186163Y38907288D03*
D12*
X29686163Y13157288D03*
D13*
X32226163Y13157288D03*
D24*
X14411163Y60407288D03*
D25*
X16951163Y60407288D03*
D23*
X-2433837Y31657288D03*
D13*
X5186163Y31657288D03*
D21*
X40861163Y38507288D03*
D22*
X40861163Y25807288D03*
D12*
X62896163Y39402288D03*
D13*
X62896163Y41942288D03*
D12*
X43146163Y61907288D03*
D13*
X45686163Y61907288D03*
D26*
X936163Y50407288D03*
D17*
X936163Y55407288D03*
D12*
X51816163Y2407288D03*
D13*
X54356163Y2407288D03*
D12*
X84786163Y29157288D03*
D13*
X82246163Y29157288D03*
D12*
X36646163Y60157288D03*
D13*
X39186163Y60157288D03*
D12*
X29686163Y8157288D03*
D13*
X32226163Y8157288D03*
D12*
X8166163Y8197288D03*
D13*
X10706163Y8197288D03*
D24*
X21411163Y60407288D03*
D25*
X23951163Y60407288D03*
D12*
X16316163Y22407288D03*
D13*
X18856163Y22407288D03*
D23*
X-2433837Y24907288D03*
D13*
X5186163Y24907288D03*
D12*
X14896163Y65657288D03*
D13*
X17436163Y65657288D03*
D12*
X8016163Y14697288D03*
D13*
X10556163Y14697288D03*
D12*
X60146163Y21157288D03*
D13*
X62686163Y21157288D03*
D24*
X10686163Y60657288D03*
D25*
X8146163Y60657288D03*
D12*
X8396163Y65657288D03*
D13*
X10936163Y65657288D03*
D27*
X25611163Y-742712D03*
X49686163Y23907288D03*
X26686163Y21407288D03*
X10686163Y55907288D03*
X66186163Y26157288D03*
X69936163Y33157288D03*
X29861163Y61257288D03*
D28*
X49061163Y61907288D02*
X51911163Y59057288D01*
X45686163Y61907288D02*
X49061163Y61907288D01*
X43371163Y56517288D02*
X51911163Y56517288D01*
X43361163Y56507288D02*
X43371163Y56517288D01*
X40211163Y13407288D02*
X43806163Y13407288D01*
X40111163Y13507288D02*
X40211163Y13407288D01*
X33976163Y18657288D02*
X39126163Y13507288D01*
X39126163Y13507288D02*
X40111163Y13507288D01*
X35511163Y6907288D02*
X38556163Y6907288D01*
X35361163Y6757288D02*
X35511163Y6907288D01*
X33626163Y6757288D02*
X35361163Y6757288D01*
X32226163Y8157288D02*
X33626163Y6757288D01*
X42186163Y25807288D02*
X43436163Y24557288D01*
X40861163Y25807288D02*
X42186163Y25807288D01*
X38111163Y38507288D02*
X40861163Y38507288D01*
X36066163Y40552288D02*
X38111163Y38507288D01*
X20611163Y-6742712D02*
X25611163Y-1742712D01*
X11611163Y-6742712D02*
X20611163Y-6742712D01*
X11111163Y-6242712D02*
X11611163Y-6742712D01*
X25611163Y-1742712D02*
X25611163Y-742712D01*
X8166163Y-3297712D02*
X11111163Y-6242712D01*
X8166163Y2697288D02*
X8166163Y-3297712D01*
X42956163Y41602288D02*
X46056163Y41602288D01*
X42861163Y41507288D02*
X42956163Y41602288D01*
X40711163Y42907288D02*
X42111163Y41507288D01*
X38606163Y42907288D02*
X40711163Y42907288D01*
X42111163Y41507288D02*
X42861163Y41507288D01*
X42621163Y50267288D02*
X45916163Y50267288D01*
X41861163Y50257288D02*
X42611163Y50257288D01*
X40706163Y49102288D02*
X41861163Y50257288D01*
X42611163Y50257288D02*
X42621163Y50267288D01*
X38801163Y49102288D02*
X40706163Y49102288D01*
X40881163Y55407288D02*
X43481163Y52807288D01*
X43481163Y52807288D02*
X45916163Y52807288D01*
X62991163Y13637288D02*
X66076163Y13637288D01*
X62861163Y13507288D02*
X62991163Y13637288D01*
X56436163Y18932288D02*
X61861163Y13507288D01*
X56436163Y20407288D02*
X56436163Y18932288D01*
X61861163Y13507288D02*
X62861163Y13507288D01*
X58011163Y6907288D02*
X60936163Y6907288D01*
X57861163Y6757288D02*
X58011163Y6907288D01*
X56006163Y6757288D02*
X57861163Y6757288D01*
X54356163Y8407288D02*
X56006163Y6757288D01*
X60936163Y332288D02*
X60911163Y307288D01*
X60936163Y4367288D02*
X60936163Y332288D01*
X56621163Y-2232712D02*
X60911163Y-2232712D01*
X56611163Y-2242712D02*
X56621163Y-2232712D01*
X55611163Y-2242712D02*
X56611163Y-2242712D01*
X54356163Y-987712D02*
X55611163Y-2242712D01*
X54356163Y2407288D02*
X54356163Y-987712D01*
X47861163Y7288D02*
X50261163Y2407288D01*
X47861163Y-1992712D02*
X47861163Y7288D01*
X31611163Y-6742712D02*
X43111163Y-6742712D01*
X43111163Y-6742712D02*
X47861163Y-1992712D01*
X30036163Y-5167712D02*
X31611163Y-6742712D01*
X30036163Y2157288D02*
X30036163Y-5167712D01*
X50261163Y2407288D02*
X51816163Y2407288D01*
X34871163Y-1732712D02*
X38556163Y-1732712D01*
X34861163Y-1742712D02*
X34871163Y-1732712D01*
X32576163Y-207712D02*
X34111163Y-1742712D01*
X32576163Y2157288D02*
X32576163Y-207712D01*
X34111163Y-1742712D02*
X34861163Y-1742712D01*
X38556163Y4367288D02*
X38556163Y807288D01*
X12121163Y-1232712D02*
X16661163Y-1232712D01*
X12111163Y-1242712D02*
X12121163Y-1232712D01*
X10706163Y162288D02*
X12111163Y-1242712D01*
X10706163Y2697288D02*
X10706163Y162288D01*
X16496163Y1472288D02*
X16661163Y1307288D01*
X16496163Y4847288D02*
X16496163Y1472288D01*
X13481163Y7387288D02*
X16496163Y7387288D01*
X12671163Y8197288D02*
X13481163Y7387288D01*
X10706163Y8197288D02*
X12671163Y8197288D01*
X18111163Y33757288D02*
X18261163Y33907288D01*
X18261163Y33907288D02*
X20686163Y33907288D01*
X16426163Y33757288D02*
X18111163Y33757288D01*
X15026163Y35157288D02*
X16426163Y33757288D01*
X18821163Y42467288D02*
X20611163Y42467288D01*
X17511163Y41157288D02*
X18821163Y42467288D01*
X15176163Y41157288D02*
X17511163Y41157288D01*
X20611163Y46007288D02*
X20611163Y45007288D01*
X15026163Y47157288D02*
X19461163Y47157288D01*
X19461163Y47157288D02*
X20611163Y46007288D01*
X25911163Y53207288D02*
X25911163Y51557288D01*
X24211163Y54907288D02*
X25911163Y53207288D01*
X22936163Y54907288D02*
X24211163Y54907288D01*
X22101163Y49017288D02*
X25911163Y49017288D01*
X16436163Y52907288D02*
X20086163Y49257288D01*
X20086163Y49257288D02*
X21861163Y49257288D01*
X21861163Y49257288D02*
X22101163Y49017288D01*
X12856163Y19012288D02*
X12856163Y20407288D01*
X17231163Y14637288D02*
X12856163Y19012288D01*
X21246163Y14637288D02*
X17231163Y14637288D01*
X35686163Y63407288D02*
X32436163Y60157288D01*
X49686163Y23907288D02*
X57396163Y23907288D01*
X936163Y50407288D02*
X936163Y42277288D01*
X40436163Y63407288D02*
X35686163Y63407288D01*
X936163Y42277288D02*
X-2433837Y38907288D01*
X10686163Y48957288D02*
X12486163Y47157288D01*
X7066163Y42277288D02*
X936163Y42277288D01*
X49686163Y17037288D02*
X49686163Y23907288D01*
X8016163Y20987288D02*
X9936163Y22907288D01*
X8436163Y40907288D02*
X7066163Y42277288D01*
X13436163Y22407288D02*
X16316163Y22407288D01*
X36766163Y21407288D02*
X37766163Y20407288D01*
X16316163Y22407288D02*
X16316163Y24027288D01*
X41936163Y61907288D02*
X40436163Y63407288D01*
X10686163Y55907288D02*
X10686163Y48957288D01*
X29686163Y13157288D02*
X26686163Y16157288D01*
X16316163Y24027288D02*
X8436163Y31907288D01*
X26686163Y16157288D02*
X26686163Y21407288D01*
X57396163Y23907288D02*
X60146163Y21157288D01*
X8016163Y14697288D02*
X8016163Y20987288D01*
X51816163Y14907288D02*
X49686163Y17037288D01*
X9936163Y22907288D02*
X12936163Y22907288D01*
X11186163Y56407288D02*
X10686163Y55907288D01*
X8436163Y31907288D02*
X8436163Y40907288D01*
X32436163Y57407288D02*
X34436163Y55407288D01*
X32436163Y60157288D02*
X32436163Y57407288D01*
X17936163Y54907288D02*
X16436163Y56407288D01*
X26686163Y21407288D02*
X36766163Y21407288D01*
X43146163Y61907288D02*
X41936163Y61907288D01*
X20396163Y54907288D02*
X17936163Y54907288D01*
X12936163Y22907288D02*
X13436163Y22407288D01*
X34436163Y55407288D02*
X36066163Y55407288D01*
X16436163Y56407288D02*
X11186163Y56407288D01*
X20101163Y57257288D02*
X21861163Y57257288D01*
X21861163Y57257288D02*
X22936163Y56182288D01*
X22936163Y56182288D02*
X22936163Y54907288D01*
X26111163Y51732288D02*
X26111163Y51257288D01*
X16951163Y60407288D02*
X20101163Y57257288D01*
X14411163Y65172288D02*
X14896163Y65657288D01*
X14411163Y60407288D02*
X14411163Y65172288D01*
X9111163Y44682288D02*
X12636163Y41157288D01*
D29*
X-2063837Y31657288D02*
X-2433837Y31657288D01*
D28*
X-2433837Y30007288D02*
X-1638837Y30007288D01*
X8146163Y60657288D02*
X6861163Y59372288D01*
X5186163Y36832288D02*
X5186163Y38907288D01*
X6861163Y47007288D02*
X9111163Y44757288D01*
X-2433837Y30007288D02*
X-2433837Y31657288D01*
X-2433837Y24907288D02*
X-2433837Y30007288D01*
X9111163Y44757288D02*
X9111163Y44682288D01*
X6861163Y59372288D02*
X6861163Y47007288D01*
X-1638837Y30007288D02*
X5186163Y36832288D01*
X8396163Y64222288D02*
X8396163Y65657288D01*
X10686163Y61932288D02*
X8396163Y64222288D01*
X10686163Y60657288D02*
X10686163Y61932288D01*
X45686163Y63682288D02*
X45686163Y61907288D01*
X23951163Y60407288D02*
X25511163Y60407288D01*
X43861163Y65507288D02*
X45686163Y63682288D01*
X30611163Y65507288D02*
X43861163Y65507288D01*
X25511163Y60407288D02*
X30611163Y65507288D01*
X21411163Y62307288D02*
X23436163Y64332288D01*
X21411163Y60407288D02*
X21411163Y62307288D01*
X23436163Y64332288D02*
X23436163Y65657288D01*
X78861163Y49507288D02*
X78816163Y49552288D01*
X84786163Y32332288D02*
X84786163Y29157288D01*
X78816163Y49552288D02*
X74856163Y49552288D01*
X84786163Y29157288D02*
X88436163Y29157288D01*
X84786163Y32332288D02*
X81111163Y36007288D01*
X79861163Y49507288D02*
X78861163Y49507288D01*
X69936163Y33157288D02*
X78261163Y33157288D01*
X62686163Y21157288D02*
X62686163Y22657288D01*
X74776163Y56352288D02*
X74776163Y49632288D01*
X62686163Y19567288D02*
X66076163Y16177288D01*
D29*
X66076163Y26047288D02*
X66186163Y26157288D01*
D28*
X78261163Y33157288D02*
X81111163Y36007288D01*
X62686163Y21157288D02*
X62686163Y19567288D01*
X74776163Y49632288D02*
X74856163Y49552288D01*
X88436163Y29157288D02*
X88936163Y28657288D01*
X62686163Y22657288D02*
X66186163Y26157288D01*
X81111163Y36007288D02*
X81111163Y48257288D01*
X81111163Y48257288D02*
X79861163Y49507288D01*
X36066163Y42907288D02*
X34461163Y42907288D01*
X29861163Y48257288D02*
X29861163Y61257288D01*
X34461163Y42907288D02*
X31861163Y45507288D01*
X31861163Y46257288D02*
X29861163Y48257288D01*
D29*
X50086163Y64757288D02*
X50086163Y65407288D01*
D28*
X31861163Y45507288D02*
X31861163Y46257288D01*
X36066163Y42907288D02*
X36066163Y40552288D01*
X61396163Y55197288D02*
X61856163Y55657288D01*
X61396163Y51602288D02*
X57706163Y51602288D01*
X61396163Y51602288D02*
X61396163Y55197288D01*
X43806163Y16907288D02*
X40306163Y20407288D01*
X51611163Y45507288D02*
X51611163Y32507288D01*
X51611163Y32507288D02*
X51386163Y32507288D01*
X57706163Y51602288D02*
X51611163Y45507288D01*
X43806163Y15947288D02*
X43806163Y16907288D01*
X51386163Y32507288D02*
X43436163Y24557288D01*
X40306163Y21427288D02*
X43436163Y24557288D01*
X40306163Y20407288D02*
X40306163Y21427288D01*
X10316163Y14937288D02*
X10556163Y14697288D01*
X24011163Y2157288D02*
X30036163Y2157288D01*
X23861163Y2007288D02*
X24011163Y2157288D01*
X20361163Y5507288D02*
X23861163Y2007288D01*
X16496163Y9927288D02*
X19191163Y9927288D01*
X20361163Y8757288D02*
X20361163Y5507288D01*
X10316163Y20407288D02*
X10316163Y14937288D01*
X10556163Y14697288D02*
X11726163Y14697288D01*
X11726163Y14697288D02*
X16496163Y9927288D01*
X19191163Y9927288D02*
X20361163Y8757288D01*
X18856163Y19567288D02*
X21246163Y17177288D01*
X12486163Y35157288D02*
X12486163Y33132288D01*
X12486163Y33132288D02*
X18856163Y26762288D01*
X18856163Y22407288D02*
X18856163Y19567288D01*
X18856163Y26762288D02*
X18856163Y22407288D01*
X13896163Y52907288D02*
X13896163Y51472288D01*
X15111163Y50257288D02*
X15026163Y50172288D01*
X13896163Y51472288D02*
X15111163Y50257288D01*
X15026163Y50172288D02*
X15026163Y47157288D01*
X20686163Y39907288D02*
X20686163Y36447288D01*
X53896163Y20407288D02*
X53896163Y15367288D01*
X55476163Y14907288D02*
X60936163Y9447288D01*
X53896163Y15367288D02*
X54356163Y14907288D01*
X54356163Y14907288D02*
X55476163Y14907288D01*
X32226163Y15892288D02*
X32226163Y13157288D01*
X31436163Y16682288D02*
X32226163Y15892288D01*
X34846163Y13157288D02*
X38556163Y9447288D01*
X31436163Y18657288D02*
X31436163Y16682288D01*
X32226163Y13157288D02*
X34846163Y13157288D01*
X46056163Y47692288D02*
X45916163Y47832288D01*
X46056163Y44142288D02*
X46056163Y47692288D01*
X38606163Y48907288D02*
X38801163Y49102288D01*
X36646163Y58972288D02*
X38606163Y57012288D01*
X38606163Y55407288D02*
X40881163Y55407288D01*
X36646163Y60157288D02*
X36646163Y58972288D01*
D29*
X45471163Y50372288D02*
X45916163Y50372288D01*
D28*
X38606163Y57012288D02*
X38606163Y55407288D01*
X64396163Y44697288D02*
X64436163Y44657288D01*
X62896163Y43117288D02*
X62896163Y41942288D01*
X64396163Y55657288D02*
X64396163Y44697288D01*
X64436163Y44657288D02*
X62896163Y43117288D01*
X74236163Y27157288D02*
X76186163Y27157288D01*
X77226163Y26117288D02*
X88936163Y26117288D01*
X76186163Y27157288D02*
X77226163Y26117288D01*
X5186163Y29932288D02*
X7361163Y27757288D01*
X5111163Y11252288D02*
X8166163Y8197288D01*
X5111163Y21757288D02*
X5111163Y11252288D01*
X5186163Y31657288D02*
X5186163Y29932288D01*
X7361163Y27757288D02*
X7361163Y24007288D01*
X7361163Y24007288D02*
X5111163Y21757288D01*
X3856163Y7007288D02*
X8166163Y2697288D01*
X2361163Y22082288D02*
X2361163Y8257288D01*
X3611163Y7007288D02*
X3856163Y7007288D01*
X5186163Y24907288D02*
X2361163Y22082288D01*
X2361163Y8257288D02*
X3611163Y7007288D01*
X70686163Y47192288D02*
X62896163Y39402288D01*
X72186163Y59907288D02*
X70686163Y58407288D01*
X75686163Y59907288D02*
X72186163Y59907288D01*
X62896163Y34447288D02*
X62896163Y39402288D01*
X70186163Y27157288D02*
X62896163Y34447288D01*
X74686163Y15407288D02*
X71696163Y18397288D01*
X71696163Y27157288D02*
X70186163Y27157288D01*
X77316163Y58277288D02*
X75686163Y59907288D01*
X77316163Y56352288D02*
X77316163Y58277288D01*
X71696163Y18397288D02*
X71696163Y27157288D01*
X74686163Y4939788D02*
X74686163Y15407288D01*
X70686163Y58407288D02*
X70686163Y47192288D01*
X83491163Y56352288D02*
X89396163Y50447288D01*
X89396163Y50447288D02*
X89396163Y47907288D01*
X69186163Y62907288D02*
X66936163Y60657288D01*
X76436163Y62907288D02*
X69186163Y62907288D01*
X66936163Y60657288D02*
X66936163Y55657288D01*
X79856163Y59487288D02*
X76436163Y62907288D01*
X79856163Y56352288D02*
X79856163Y59487288D01*
X79856163Y56352288D02*
X83491163Y56352288D01*
X42836163Y56507288D02*
X43361163Y56507288D01*
X39186163Y60157288D02*
X42836163Y56507288D01*
M02*
