G04 #@! TF.GenerationSoftware,KiCad,Pcbnew,8.0.8*
G04 #@! TF.CreationDate,2025-06-19T10:33:32-04:00*
G04 #@! TF.ProjectId,multimeter,6d756c74-696d-4657-9465-722e6b696361,rev?*
G04 #@! TF.SameCoordinates,Original*
G04 #@! TF.FileFunction,Legend,Top*
G04 #@! TF.FilePolarity,Positive*
%FSLAX46Y46*%
G04 Gerber Fmt 4.6, Leading zero omitted, Abs format (unit mm)*
G04 Created by KiCad (PCBNEW 8.0.8) date 2025-06-19 10:33:32*
%MOMM*%
%LPD*%
G01*
G04 APERTURE LIST*
%ADD10C,0.150000*%
%ADD11C,0.120000*%
%ADD12C,1.600000*%
%ADD13O,1.600000X1.600000*%
%ADD14R,1.905000X2.000000*%
%ADD15O,1.905000X2.000000*%
%ADD16R,1.500000X1.050000*%
%ADD17O,1.500000X1.050000*%
%ADD18R,2.000000X2.000000*%
%ADD19C,2.000000*%
%ADD20R,2.000000X1.905000*%
%ADD21O,2.000000X1.905000*%
%ADD22R,1.700000X1.700000*%
%ADD23O,1.700000X1.700000*%
%ADD24R,2.800000X2.800000*%
%ADD25O,2.800000X2.800000*%
%ADD26R,1.600000X1.600000*%
%ADD27R,1.800000X1.800000*%
%ADD28C,1.800000*%
G04 APERTURE END LIST*
D10*
X169007142Y-86234819D02*
X168673809Y-85758628D01*
X168435714Y-86234819D02*
X168435714Y-85234819D01*
X168435714Y-85234819D02*
X168816666Y-85234819D01*
X168816666Y-85234819D02*
X168911904Y-85282438D01*
X168911904Y-85282438D02*
X168959523Y-85330057D01*
X168959523Y-85330057D02*
X169007142Y-85425295D01*
X169007142Y-85425295D02*
X169007142Y-85568152D01*
X169007142Y-85568152D02*
X168959523Y-85663390D01*
X168959523Y-85663390D02*
X168911904Y-85711009D01*
X168911904Y-85711009D02*
X168816666Y-85758628D01*
X168816666Y-85758628D02*
X168435714Y-85758628D01*
X169340476Y-85234819D02*
X169959523Y-85234819D01*
X169959523Y-85234819D02*
X169626190Y-85615771D01*
X169626190Y-85615771D02*
X169769047Y-85615771D01*
X169769047Y-85615771D02*
X169864285Y-85663390D01*
X169864285Y-85663390D02*
X169911904Y-85711009D01*
X169911904Y-85711009D02*
X169959523Y-85806247D01*
X169959523Y-85806247D02*
X169959523Y-86044342D01*
X169959523Y-86044342D02*
X169911904Y-86139580D01*
X169911904Y-86139580D02*
X169864285Y-86187200D01*
X169864285Y-86187200D02*
X169769047Y-86234819D01*
X169769047Y-86234819D02*
X169483333Y-86234819D01*
X169483333Y-86234819D02*
X169388095Y-86187200D01*
X169388095Y-86187200D02*
X169340476Y-86139580D01*
X170578571Y-85234819D02*
X170673809Y-85234819D01*
X170673809Y-85234819D02*
X170769047Y-85282438D01*
X170769047Y-85282438D02*
X170816666Y-85330057D01*
X170816666Y-85330057D02*
X170864285Y-85425295D01*
X170864285Y-85425295D02*
X170911904Y-85615771D01*
X170911904Y-85615771D02*
X170911904Y-85853866D01*
X170911904Y-85853866D02*
X170864285Y-86044342D01*
X170864285Y-86044342D02*
X170816666Y-86139580D01*
X170816666Y-86139580D02*
X170769047Y-86187200D01*
X170769047Y-86187200D02*
X170673809Y-86234819D01*
X170673809Y-86234819D02*
X170578571Y-86234819D01*
X170578571Y-86234819D02*
X170483333Y-86187200D01*
X170483333Y-86187200D02*
X170435714Y-86139580D01*
X170435714Y-86139580D02*
X170388095Y-86044342D01*
X170388095Y-86044342D02*
X170340476Y-85853866D01*
X170340476Y-85853866D02*
X170340476Y-85615771D01*
X170340476Y-85615771D02*
X170388095Y-85425295D01*
X170388095Y-85425295D02*
X170435714Y-85330057D01*
X170435714Y-85330057D02*
X170483333Y-85282438D01*
X170483333Y-85282438D02*
X170578571Y-85234819D01*
X148928571Y-55280057D02*
X148833333Y-55232438D01*
X148833333Y-55232438D02*
X148738095Y-55137200D01*
X148738095Y-55137200D02*
X148595238Y-54994342D01*
X148595238Y-54994342D02*
X148500000Y-54946723D01*
X148500000Y-54946723D02*
X148404762Y-54946723D01*
X148452381Y-55184819D02*
X148357143Y-55137200D01*
X148357143Y-55137200D02*
X148261905Y-55041961D01*
X148261905Y-55041961D02*
X148214286Y-54851485D01*
X148214286Y-54851485D02*
X148214286Y-54518152D01*
X148214286Y-54518152D02*
X148261905Y-54327676D01*
X148261905Y-54327676D02*
X148357143Y-54232438D01*
X148357143Y-54232438D02*
X148452381Y-54184819D01*
X148452381Y-54184819D02*
X148642857Y-54184819D01*
X148642857Y-54184819D02*
X148738095Y-54232438D01*
X148738095Y-54232438D02*
X148833333Y-54327676D01*
X148833333Y-54327676D02*
X148880952Y-54518152D01*
X148880952Y-54518152D02*
X148880952Y-54851485D01*
X148880952Y-54851485D02*
X148833333Y-55041961D01*
X148833333Y-55041961D02*
X148738095Y-55137200D01*
X148738095Y-55137200D02*
X148642857Y-55184819D01*
X148642857Y-55184819D02*
X148452381Y-55184819D01*
X149214286Y-54184819D02*
X149833333Y-54184819D01*
X149833333Y-54184819D02*
X149500000Y-54565771D01*
X149500000Y-54565771D02*
X149642857Y-54565771D01*
X149642857Y-54565771D02*
X149738095Y-54613390D01*
X149738095Y-54613390D02*
X149785714Y-54661009D01*
X149785714Y-54661009D02*
X149833333Y-54756247D01*
X149833333Y-54756247D02*
X149833333Y-54994342D01*
X149833333Y-54994342D02*
X149785714Y-55089580D01*
X149785714Y-55089580D02*
X149738095Y-55137200D01*
X149738095Y-55137200D02*
X149642857Y-55184819D01*
X149642857Y-55184819D02*
X149357143Y-55184819D01*
X149357143Y-55184819D02*
X149261905Y-55137200D01*
X149261905Y-55137200D02*
X149214286Y-55089580D01*
X150166667Y-54184819D02*
X150785714Y-54184819D01*
X150785714Y-54184819D02*
X150452381Y-54565771D01*
X150452381Y-54565771D02*
X150595238Y-54565771D01*
X150595238Y-54565771D02*
X150690476Y-54613390D01*
X150690476Y-54613390D02*
X150738095Y-54661009D01*
X150738095Y-54661009D02*
X150785714Y-54756247D01*
X150785714Y-54756247D02*
X150785714Y-54994342D01*
X150785714Y-54994342D02*
X150738095Y-55089580D01*
X150738095Y-55089580D02*
X150690476Y-55137200D01*
X150690476Y-55137200D02*
X150595238Y-55184819D01*
X150595238Y-55184819D02*
X150309524Y-55184819D01*
X150309524Y-55184819D02*
X150214286Y-55137200D01*
X150214286Y-55137200D02*
X150166667Y-55089580D01*
X120600057Y-106571428D02*
X120552438Y-106666666D01*
X120552438Y-106666666D02*
X120457200Y-106761904D01*
X120457200Y-106761904D02*
X120314342Y-106904761D01*
X120314342Y-106904761D02*
X120266723Y-106999999D01*
X120266723Y-106999999D02*
X120266723Y-107095237D01*
X120504819Y-107047618D02*
X120457200Y-107142856D01*
X120457200Y-107142856D02*
X120361961Y-107238094D01*
X120361961Y-107238094D02*
X120171485Y-107285713D01*
X120171485Y-107285713D02*
X119838152Y-107285713D01*
X119838152Y-107285713D02*
X119647676Y-107238094D01*
X119647676Y-107238094D02*
X119552438Y-107142856D01*
X119552438Y-107142856D02*
X119504819Y-107047618D01*
X119504819Y-107047618D02*
X119504819Y-106857142D01*
X119504819Y-106857142D02*
X119552438Y-106761904D01*
X119552438Y-106761904D02*
X119647676Y-106666666D01*
X119647676Y-106666666D02*
X119838152Y-106619047D01*
X119838152Y-106619047D02*
X120171485Y-106619047D01*
X120171485Y-106619047D02*
X120361961Y-106666666D01*
X120361961Y-106666666D02*
X120457200Y-106761904D01*
X120457200Y-106761904D02*
X120504819Y-106857142D01*
X120504819Y-106857142D02*
X120504819Y-107047618D01*
X119600057Y-106238094D02*
X119552438Y-106190475D01*
X119552438Y-106190475D02*
X119504819Y-106095237D01*
X119504819Y-106095237D02*
X119504819Y-105857142D01*
X119504819Y-105857142D02*
X119552438Y-105761904D01*
X119552438Y-105761904D02*
X119600057Y-105714285D01*
X119600057Y-105714285D02*
X119695295Y-105666666D01*
X119695295Y-105666666D02*
X119790533Y-105666666D01*
X119790533Y-105666666D02*
X119933390Y-105714285D01*
X119933390Y-105714285D02*
X120504819Y-106285713D01*
X120504819Y-106285713D02*
X120504819Y-105666666D01*
X119504819Y-105333332D02*
X119504819Y-104666666D01*
X119504819Y-104666666D02*
X120504819Y-105095237D01*
X149674819Y-70047857D02*
X149198628Y-70381190D01*
X149674819Y-70619285D02*
X148674819Y-70619285D01*
X148674819Y-70619285D02*
X148674819Y-70238333D01*
X148674819Y-70238333D02*
X148722438Y-70143095D01*
X148722438Y-70143095D02*
X148770057Y-70095476D01*
X148770057Y-70095476D02*
X148865295Y-70047857D01*
X148865295Y-70047857D02*
X149008152Y-70047857D01*
X149008152Y-70047857D02*
X149103390Y-70095476D01*
X149103390Y-70095476D02*
X149151009Y-70143095D01*
X149151009Y-70143095D02*
X149198628Y-70238333D01*
X149198628Y-70238333D02*
X149198628Y-70619285D01*
X148674819Y-69714523D02*
X148674819Y-69095476D01*
X148674819Y-69095476D02*
X149055771Y-69428809D01*
X149055771Y-69428809D02*
X149055771Y-69285952D01*
X149055771Y-69285952D02*
X149103390Y-69190714D01*
X149103390Y-69190714D02*
X149151009Y-69143095D01*
X149151009Y-69143095D02*
X149246247Y-69095476D01*
X149246247Y-69095476D02*
X149484342Y-69095476D01*
X149484342Y-69095476D02*
X149579580Y-69143095D01*
X149579580Y-69143095D02*
X149627200Y-69190714D01*
X149627200Y-69190714D02*
X149674819Y-69285952D01*
X149674819Y-69285952D02*
X149674819Y-69571666D01*
X149674819Y-69571666D02*
X149627200Y-69666904D01*
X149627200Y-69666904D02*
X149579580Y-69714523D01*
X149674819Y-68143095D02*
X149674819Y-68714523D01*
X149674819Y-68428809D02*
X148674819Y-68428809D01*
X148674819Y-68428809D02*
X148817676Y-68524047D01*
X148817676Y-68524047D02*
X148912914Y-68619285D01*
X148912914Y-68619285D02*
X148960533Y-68714523D01*
X102207142Y-109734819D02*
X101873809Y-109258628D01*
X101635714Y-109734819D02*
X101635714Y-108734819D01*
X101635714Y-108734819D02*
X102016666Y-108734819D01*
X102016666Y-108734819D02*
X102111904Y-108782438D01*
X102111904Y-108782438D02*
X102159523Y-108830057D01*
X102159523Y-108830057D02*
X102207142Y-108925295D01*
X102207142Y-108925295D02*
X102207142Y-109068152D01*
X102207142Y-109068152D02*
X102159523Y-109163390D01*
X102159523Y-109163390D02*
X102111904Y-109211009D01*
X102111904Y-109211009D02*
X102016666Y-109258628D01*
X102016666Y-109258628D02*
X101635714Y-109258628D01*
X102588095Y-108830057D02*
X102635714Y-108782438D01*
X102635714Y-108782438D02*
X102730952Y-108734819D01*
X102730952Y-108734819D02*
X102969047Y-108734819D01*
X102969047Y-108734819D02*
X103064285Y-108782438D01*
X103064285Y-108782438D02*
X103111904Y-108830057D01*
X103111904Y-108830057D02*
X103159523Y-108925295D01*
X103159523Y-108925295D02*
X103159523Y-109020533D01*
X103159523Y-109020533D02*
X103111904Y-109163390D01*
X103111904Y-109163390D02*
X102540476Y-109734819D01*
X102540476Y-109734819D02*
X103159523Y-109734819D01*
X104111904Y-109734819D02*
X103540476Y-109734819D01*
X103826190Y-109734819D02*
X103826190Y-108734819D01*
X103826190Y-108734819D02*
X103730952Y-108877676D01*
X103730952Y-108877676D02*
X103635714Y-108972914D01*
X103635714Y-108972914D02*
X103540476Y-109020533D01*
X186074819Y-73078333D02*
X186789104Y-73078333D01*
X186789104Y-73078333D02*
X186931961Y-73125952D01*
X186931961Y-73125952D02*
X187027200Y-73221190D01*
X187027200Y-73221190D02*
X187074819Y-73364047D01*
X187074819Y-73364047D02*
X187074819Y-73459285D01*
X187074819Y-72078333D02*
X187074819Y-72649761D01*
X187074819Y-72364047D02*
X186074819Y-72364047D01*
X186074819Y-72364047D02*
X186217676Y-72459285D01*
X186217676Y-72459285D02*
X186312914Y-72554523D01*
X186312914Y-72554523D02*
X186360533Y-72649761D01*
X140357142Y-110734819D02*
X140023809Y-110258628D01*
X139785714Y-110734819D02*
X139785714Y-109734819D01*
X139785714Y-109734819D02*
X140166666Y-109734819D01*
X140166666Y-109734819D02*
X140261904Y-109782438D01*
X140261904Y-109782438D02*
X140309523Y-109830057D01*
X140309523Y-109830057D02*
X140357142Y-109925295D01*
X140357142Y-109925295D02*
X140357142Y-110068152D01*
X140357142Y-110068152D02*
X140309523Y-110163390D01*
X140309523Y-110163390D02*
X140261904Y-110211009D01*
X140261904Y-110211009D02*
X140166666Y-110258628D01*
X140166666Y-110258628D02*
X139785714Y-110258628D01*
X140738095Y-109830057D02*
X140785714Y-109782438D01*
X140785714Y-109782438D02*
X140880952Y-109734819D01*
X140880952Y-109734819D02*
X141119047Y-109734819D01*
X141119047Y-109734819D02*
X141214285Y-109782438D01*
X141214285Y-109782438D02*
X141261904Y-109830057D01*
X141261904Y-109830057D02*
X141309523Y-109925295D01*
X141309523Y-109925295D02*
X141309523Y-110020533D01*
X141309523Y-110020533D02*
X141261904Y-110163390D01*
X141261904Y-110163390D02*
X140690476Y-110734819D01*
X140690476Y-110734819D02*
X141309523Y-110734819D01*
X142214285Y-109734819D02*
X141738095Y-109734819D01*
X141738095Y-109734819D02*
X141690476Y-110211009D01*
X141690476Y-110211009D02*
X141738095Y-110163390D01*
X141738095Y-110163390D02*
X141833333Y-110115771D01*
X141833333Y-110115771D02*
X142071428Y-110115771D01*
X142071428Y-110115771D02*
X142166666Y-110163390D01*
X142166666Y-110163390D02*
X142214285Y-110211009D01*
X142214285Y-110211009D02*
X142261904Y-110306247D01*
X142261904Y-110306247D02*
X142261904Y-110544342D01*
X142261904Y-110544342D02*
X142214285Y-110639580D01*
X142214285Y-110639580D02*
X142166666Y-110687200D01*
X142166666Y-110687200D02*
X142071428Y-110734819D01*
X142071428Y-110734819D02*
X141833333Y-110734819D01*
X141833333Y-110734819D02*
X141738095Y-110687200D01*
X141738095Y-110687200D02*
X141690476Y-110639580D01*
X126460057Y-98801428D02*
X126412438Y-98896666D01*
X126412438Y-98896666D02*
X126317200Y-98991904D01*
X126317200Y-98991904D02*
X126174342Y-99134761D01*
X126174342Y-99134761D02*
X126126723Y-99229999D01*
X126126723Y-99229999D02*
X126126723Y-99325237D01*
X126364819Y-99277618D02*
X126317200Y-99372856D01*
X126317200Y-99372856D02*
X126221961Y-99468094D01*
X126221961Y-99468094D02*
X126031485Y-99515713D01*
X126031485Y-99515713D02*
X125698152Y-99515713D01*
X125698152Y-99515713D02*
X125507676Y-99468094D01*
X125507676Y-99468094D02*
X125412438Y-99372856D01*
X125412438Y-99372856D02*
X125364819Y-99277618D01*
X125364819Y-99277618D02*
X125364819Y-99087142D01*
X125364819Y-99087142D02*
X125412438Y-98991904D01*
X125412438Y-98991904D02*
X125507676Y-98896666D01*
X125507676Y-98896666D02*
X125698152Y-98849047D01*
X125698152Y-98849047D02*
X126031485Y-98849047D01*
X126031485Y-98849047D02*
X126221961Y-98896666D01*
X126221961Y-98896666D02*
X126317200Y-98991904D01*
X126317200Y-98991904D02*
X126364819Y-99087142D01*
X126364819Y-99087142D02*
X126364819Y-99277618D01*
X125460057Y-98468094D02*
X125412438Y-98420475D01*
X125412438Y-98420475D02*
X125364819Y-98325237D01*
X125364819Y-98325237D02*
X125364819Y-98087142D01*
X125364819Y-98087142D02*
X125412438Y-97991904D01*
X125412438Y-97991904D02*
X125460057Y-97944285D01*
X125460057Y-97944285D02*
X125555295Y-97896666D01*
X125555295Y-97896666D02*
X125650533Y-97896666D01*
X125650533Y-97896666D02*
X125793390Y-97944285D01*
X125793390Y-97944285D02*
X126364819Y-98515713D01*
X126364819Y-98515713D02*
X126364819Y-97896666D01*
X126364819Y-97420475D02*
X126364819Y-97229999D01*
X126364819Y-97229999D02*
X126317200Y-97134761D01*
X126317200Y-97134761D02*
X126269580Y-97087142D01*
X126269580Y-97087142D02*
X126126723Y-96991904D01*
X126126723Y-96991904D02*
X125936247Y-96944285D01*
X125936247Y-96944285D02*
X125555295Y-96944285D01*
X125555295Y-96944285D02*
X125460057Y-96991904D01*
X125460057Y-96991904D02*
X125412438Y-97039523D01*
X125412438Y-97039523D02*
X125364819Y-97134761D01*
X125364819Y-97134761D02*
X125364819Y-97325237D01*
X125364819Y-97325237D02*
X125412438Y-97420475D01*
X125412438Y-97420475D02*
X125460057Y-97468094D01*
X125460057Y-97468094D02*
X125555295Y-97515713D01*
X125555295Y-97515713D02*
X125793390Y-97515713D01*
X125793390Y-97515713D02*
X125888628Y-97468094D01*
X125888628Y-97468094D02*
X125936247Y-97420475D01*
X125936247Y-97420475D02*
X125983866Y-97325237D01*
X125983866Y-97325237D02*
X125983866Y-97134761D01*
X125983866Y-97134761D02*
X125936247Y-97039523D01*
X125936247Y-97039523D02*
X125888628Y-96991904D01*
X125888628Y-96991904D02*
X125793390Y-96944285D01*
X108857142Y-55234819D02*
X108523809Y-54758628D01*
X108285714Y-55234819D02*
X108285714Y-54234819D01*
X108285714Y-54234819D02*
X108666666Y-54234819D01*
X108666666Y-54234819D02*
X108761904Y-54282438D01*
X108761904Y-54282438D02*
X108809523Y-54330057D01*
X108809523Y-54330057D02*
X108857142Y-54425295D01*
X108857142Y-54425295D02*
X108857142Y-54568152D01*
X108857142Y-54568152D02*
X108809523Y-54663390D01*
X108809523Y-54663390D02*
X108761904Y-54711009D01*
X108761904Y-54711009D02*
X108666666Y-54758628D01*
X108666666Y-54758628D02*
X108285714Y-54758628D01*
X109809523Y-55234819D02*
X109238095Y-55234819D01*
X109523809Y-55234819D02*
X109523809Y-54234819D01*
X109523809Y-54234819D02*
X109428571Y-54377676D01*
X109428571Y-54377676D02*
X109333333Y-54472914D01*
X109333333Y-54472914D02*
X109238095Y-54520533D01*
X110380952Y-54663390D02*
X110285714Y-54615771D01*
X110285714Y-54615771D02*
X110238095Y-54568152D01*
X110238095Y-54568152D02*
X110190476Y-54472914D01*
X110190476Y-54472914D02*
X110190476Y-54425295D01*
X110190476Y-54425295D02*
X110238095Y-54330057D01*
X110238095Y-54330057D02*
X110285714Y-54282438D01*
X110285714Y-54282438D02*
X110380952Y-54234819D01*
X110380952Y-54234819D02*
X110571428Y-54234819D01*
X110571428Y-54234819D02*
X110666666Y-54282438D01*
X110666666Y-54282438D02*
X110714285Y-54330057D01*
X110714285Y-54330057D02*
X110761904Y-54425295D01*
X110761904Y-54425295D02*
X110761904Y-54472914D01*
X110761904Y-54472914D02*
X110714285Y-54568152D01*
X110714285Y-54568152D02*
X110666666Y-54615771D01*
X110666666Y-54615771D02*
X110571428Y-54663390D01*
X110571428Y-54663390D02*
X110380952Y-54663390D01*
X110380952Y-54663390D02*
X110285714Y-54711009D01*
X110285714Y-54711009D02*
X110238095Y-54758628D01*
X110238095Y-54758628D02*
X110190476Y-54853866D01*
X110190476Y-54853866D02*
X110190476Y-55044342D01*
X110190476Y-55044342D02*
X110238095Y-55139580D01*
X110238095Y-55139580D02*
X110285714Y-55187200D01*
X110285714Y-55187200D02*
X110380952Y-55234819D01*
X110380952Y-55234819D02*
X110571428Y-55234819D01*
X110571428Y-55234819D02*
X110666666Y-55187200D01*
X110666666Y-55187200D02*
X110714285Y-55139580D01*
X110714285Y-55139580D02*
X110761904Y-55044342D01*
X110761904Y-55044342D02*
X110761904Y-54853866D01*
X110761904Y-54853866D02*
X110714285Y-54758628D01*
X110714285Y-54758628D02*
X110666666Y-54711009D01*
X110666666Y-54711009D02*
X110571428Y-54663390D01*
X184820057Y-86611428D02*
X184772438Y-86706666D01*
X184772438Y-86706666D02*
X184677200Y-86801904D01*
X184677200Y-86801904D02*
X184534342Y-86944761D01*
X184534342Y-86944761D02*
X184486723Y-87039999D01*
X184486723Y-87039999D02*
X184486723Y-87135237D01*
X184724819Y-87087618D02*
X184677200Y-87182856D01*
X184677200Y-87182856D02*
X184581961Y-87278094D01*
X184581961Y-87278094D02*
X184391485Y-87325713D01*
X184391485Y-87325713D02*
X184058152Y-87325713D01*
X184058152Y-87325713D02*
X183867676Y-87278094D01*
X183867676Y-87278094D02*
X183772438Y-87182856D01*
X183772438Y-87182856D02*
X183724819Y-87087618D01*
X183724819Y-87087618D02*
X183724819Y-86897142D01*
X183724819Y-86897142D02*
X183772438Y-86801904D01*
X183772438Y-86801904D02*
X183867676Y-86706666D01*
X183867676Y-86706666D02*
X184058152Y-86659047D01*
X184058152Y-86659047D02*
X184391485Y-86659047D01*
X184391485Y-86659047D02*
X184581961Y-86706666D01*
X184581961Y-86706666D02*
X184677200Y-86801904D01*
X184677200Y-86801904D02*
X184724819Y-86897142D01*
X184724819Y-86897142D02*
X184724819Y-87087618D01*
X183724819Y-86325713D02*
X183724819Y-85706666D01*
X183724819Y-85706666D02*
X184105771Y-86039999D01*
X184105771Y-86039999D02*
X184105771Y-85897142D01*
X184105771Y-85897142D02*
X184153390Y-85801904D01*
X184153390Y-85801904D02*
X184201009Y-85754285D01*
X184201009Y-85754285D02*
X184296247Y-85706666D01*
X184296247Y-85706666D02*
X184534342Y-85706666D01*
X184534342Y-85706666D02*
X184629580Y-85754285D01*
X184629580Y-85754285D02*
X184677200Y-85801904D01*
X184677200Y-85801904D02*
X184724819Y-85897142D01*
X184724819Y-85897142D02*
X184724819Y-86182856D01*
X184724819Y-86182856D02*
X184677200Y-86278094D01*
X184677200Y-86278094D02*
X184629580Y-86325713D01*
X184058152Y-84849523D02*
X184724819Y-84849523D01*
X183677200Y-85087618D02*
X184391485Y-85325713D01*
X184391485Y-85325713D02*
X184391485Y-84706666D01*
X87400057Y-98841428D02*
X87352438Y-98936666D01*
X87352438Y-98936666D02*
X87257200Y-99031904D01*
X87257200Y-99031904D02*
X87114342Y-99174761D01*
X87114342Y-99174761D02*
X87066723Y-99269999D01*
X87066723Y-99269999D02*
X87066723Y-99365237D01*
X87304819Y-99317618D02*
X87257200Y-99412856D01*
X87257200Y-99412856D02*
X87161961Y-99508094D01*
X87161961Y-99508094D02*
X86971485Y-99555713D01*
X86971485Y-99555713D02*
X86638152Y-99555713D01*
X86638152Y-99555713D02*
X86447676Y-99508094D01*
X86447676Y-99508094D02*
X86352438Y-99412856D01*
X86352438Y-99412856D02*
X86304819Y-99317618D01*
X86304819Y-99317618D02*
X86304819Y-99127142D01*
X86304819Y-99127142D02*
X86352438Y-99031904D01*
X86352438Y-99031904D02*
X86447676Y-98936666D01*
X86447676Y-98936666D02*
X86638152Y-98889047D01*
X86638152Y-98889047D02*
X86971485Y-98889047D01*
X86971485Y-98889047D02*
X87161961Y-98936666D01*
X87161961Y-98936666D02*
X87257200Y-99031904D01*
X87257200Y-99031904D02*
X87304819Y-99127142D01*
X87304819Y-99127142D02*
X87304819Y-99317618D01*
X87304819Y-97936666D02*
X87304819Y-98508094D01*
X87304819Y-98222380D02*
X86304819Y-98222380D01*
X86304819Y-98222380D02*
X86447676Y-98317618D01*
X86447676Y-98317618D02*
X86542914Y-98412856D01*
X86542914Y-98412856D02*
X86590533Y-98508094D01*
X86304819Y-97603332D02*
X86304819Y-96936666D01*
X86304819Y-96936666D02*
X87304819Y-97365237D01*
X161507142Y-40424819D02*
X161173809Y-39948628D01*
X160935714Y-40424819D02*
X160935714Y-39424819D01*
X160935714Y-39424819D02*
X161316666Y-39424819D01*
X161316666Y-39424819D02*
X161411904Y-39472438D01*
X161411904Y-39472438D02*
X161459523Y-39520057D01*
X161459523Y-39520057D02*
X161507142Y-39615295D01*
X161507142Y-39615295D02*
X161507142Y-39758152D01*
X161507142Y-39758152D02*
X161459523Y-39853390D01*
X161459523Y-39853390D02*
X161411904Y-39901009D01*
X161411904Y-39901009D02*
X161316666Y-39948628D01*
X161316666Y-39948628D02*
X160935714Y-39948628D01*
X161888095Y-39520057D02*
X161935714Y-39472438D01*
X161935714Y-39472438D02*
X162030952Y-39424819D01*
X162030952Y-39424819D02*
X162269047Y-39424819D01*
X162269047Y-39424819D02*
X162364285Y-39472438D01*
X162364285Y-39472438D02*
X162411904Y-39520057D01*
X162411904Y-39520057D02*
X162459523Y-39615295D01*
X162459523Y-39615295D02*
X162459523Y-39710533D01*
X162459523Y-39710533D02*
X162411904Y-39853390D01*
X162411904Y-39853390D02*
X161840476Y-40424819D01*
X161840476Y-40424819D02*
X162459523Y-40424819D01*
X163030952Y-39853390D02*
X162935714Y-39805771D01*
X162935714Y-39805771D02*
X162888095Y-39758152D01*
X162888095Y-39758152D02*
X162840476Y-39662914D01*
X162840476Y-39662914D02*
X162840476Y-39615295D01*
X162840476Y-39615295D02*
X162888095Y-39520057D01*
X162888095Y-39520057D02*
X162935714Y-39472438D01*
X162935714Y-39472438D02*
X163030952Y-39424819D01*
X163030952Y-39424819D02*
X163221428Y-39424819D01*
X163221428Y-39424819D02*
X163316666Y-39472438D01*
X163316666Y-39472438D02*
X163364285Y-39520057D01*
X163364285Y-39520057D02*
X163411904Y-39615295D01*
X163411904Y-39615295D02*
X163411904Y-39662914D01*
X163411904Y-39662914D02*
X163364285Y-39758152D01*
X163364285Y-39758152D02*
X163316666Y-39805771D01*
X163316666Y-39805771D02*
X163221428Y-39853390D01*
X163221428Y-39853390D02*
X163030952Y-39853390D01*
X163030952Y-39853390D02*
X162935714Y-39901009D01*
X162935714Y-39901009D02*
X162888095Y-39948628D01*
X162888095Y-39948628D02*
X162840476Y-40043866D01*
X162840476Y-40043866D02*
X162840476Y-40234342D01*
X162840476Y-40234342D02*
X162888095Y-40329580D01*
X162888095Y-40329580D02*
X162935714Y-40377200D01*
X162935714Y-40377200D02*
X163030952Y-40424819D01*
X163030952Y-40424819D02*
X163221428Y-40424819D01*
X163221428Y-40424819D02*
X163316666Y-40377200D01*
X163316666Y-40377200D02*
X163364285Y-40329580D01*
X163364285Y-40329580D02*
X163411904Y-40234342D01*
X163411904Y-40234342D02*
X163411904Y-40043866D01*
X163411904Y-40043866D02*
X163364285Y-39948628D01*
X163364285Y-39948628D02*
X163316666Y-39901009D01*
X163316666Y-39901009D02*
X163221428Y-39853390D01*
X131860057Y-56341428D02*
X131812438Y-56436666D01*
X131812438Y-56436666D02*
X131717200Y-56531904D01*
X131717200Y-56531904D02*
X131574342Y-56674761D01*
X131574342Y-56674761D02*
X131526723Y-56769999D01*
X131526723Y-56769999D02*
X131526723Y-56865237D01*
X131764819Y-56817618D02*
X131717200Y-56912856D01*
X131717200Y-56912856D02*
X131621961Y-57008094D01*
X131621961Y-57008094D02*
X131431485Y-57055713D01*
X131431485Y-57055713D02*
X131098152Y-57055713D01*
X131098152Y-57055713D02*
X130907676Y-57008094D01*
X130907676Y-57008094D02*
X130812438Y-56912856D01*
X130812438Y-56912856D02*
X130764819Y-56817618D01*
X130764819Y-56817618D02*
X130764819Y-56627142D01*
X130764819Y-56627142D02*
X130812438Y-56531904D01*
X130812438Y-56531904D02*
X130907676Y-56436666D01*
X130907676Y-56436666D02*
X131098152Y-56389047D01*
X131098152Y-56389047D02*
X131431485Y-56389047D01*
X131431485Y-56389047D02*
X131621961Y-56436666D01*
X131621961Y-56436666D02*
X131717200Y-56531904D01*
X131717200Y-56531904D02*
X131764819Y-56627142D01*
X131764819Y-56627142D02*
X131764819Y-56817618D01*
X130860057Y-56008094D02*
X130812438Y-55960475D01*
X130812438Y-55960475D02*
X130764819Y-55865237D01*
X130764819Y-55865237D02*
X130764819Y-55627142D01*
X130764819Y-55627142D02*
X130812438Y-55531904D01*
X130812438Y-55531904D02*
X130860057Y-55484285D01*
X130860057Y-55484285D02*
X130955295Y-55436666D01*
X130955295Y-55436666D02*
X131050533Y-55436666D01*
X131050533Y-55436666D02*
X131193390Y-55484285D01*
X131193390Y-55484285D02*
X131764819Y-56055713D01*
X131764819Y-56055713D02*
X131764819Y-55436666D01*
X130764819Y-54579523D02*
X130764819Y-54769999D01*
X130764819Y-54769999D02*
X130812438Y-54865237D01*
X130812438Y-54865237D02*
X130860057Y-54912856D01*
X130860057Y-54912856D02*
X131002914Y-55008094D01*
X131002914Y-55008094D02*
X131193390Y-55055713D01*
X131193390Y-55055713D02*
X131574342Y-55055713D01*
X131574342Y-55055713D02*
X131669580Y-55008094D01*
X131669580Y-55008094D02*
X131717200Y-54960475D01*
X131717200Y-54960475D02*
X131764819Y-54865237D01*
X131764819Y-54865237D02*
X131764819Y-54674761D01*
X131764819Y-54674761D02*
X131717200Y-54579523D01*
X131717200Y-54579523D02*
X131669580Y-54531904D01*
X131669580Y-54531904D02*
X131574342Y-54484285D01*
X131574342Y-54484285D02*
X131336247Y-54484285D01*
X131336247Y-54484285D02*
X131241009Y-54531904D01*
X131241009Y-54531904D02*
X131193390Y-54579523D01*
X131193390Y-54579523D02*
X131145771Y-54674761D01*
X131145771Y-54674761D02*
X131145771Y-54865237D01*
X131145771Y-54865237D02*
X131193390Y-54960475D01*
X131193390Y-54960475D02*
X131241009Y-55008094D01*
X131241009Y-55008094D02*
X131336247Y-55055713D01*
X168434819Y-113083333D02*
X169149104Y-113083333D01*
X169149104Y-113083333D02*
X169291961Y-113130952D01*
X169291961Y-113130952D02*
X169387200Y-113226190D01*
X169387200Y-113226190D02*
X169434819Y-113369047D01*
X169434819Y-113369047D02*
X169434819Y-113464285D01*
X168530057Y-112654761D02*
X168482438Y-112607142D01*
X168482438Y-112607142D02*
X168434819Y-112511904D01*
X168434819Y-112511904D02*
X168434819Y-112273809D01*
X168434819Y-112273809D02*
X168482438Y-112178571D01*
X168482438Y-112178571D02*
X168530057Y-112130952D01*
X168530057Y-112130952D02*
X168625295Y-112083333D01*
X168625295Y-112083333D02*
X168720533Y-112083333D01*
X168720533Y-112083333D02*
X168863390Y-112130952D01*
X168863390Y-112130952D02*
X169434819Y-112702380D01*
X169434819Y-112702380D02*
X169434819Y-112083333D01*
X169114761Y-52530057D02*
X169019523Y-52482438D01*
X169019523Y-52482438D02*
X168924285Y-52387200D01*
X168924285Y-52387200D02*
X168781428Y-52244342D01*
X168781428Y-52244342D02*
X168686190Y-52196723D01*
X168686190Y-52196723D02*
X168590952Y-52196723D01*
X168638571Y-52434819D02*
X168543333Y-52387200D01*
X168543333Y-52387200D02*
X168448095Y-52291961D01*
X168448095Y-52291961D02*
X168400476Y-52101485D01*
X168400476Y-52101485D02*
X168400476Y-51768152D01*
X168400476Y-51768152D02*
X168448095Y-51577676D01*
X168448095Y-51577676D02*
X168543333Y-51482438D01*
X168543333Y-51482438D02*
X168638571Y-51434819D01*
X168638571Y-51434819D02*
X168829047Y-51434819D01*
X168829047Y-51434819D02*
X168924285Y-51482438D01*
X168924285Y-51482438D02*
X169019523Y-51577676D01*
X169019523Y-51577676D02*
X169067142Y-51768152D01*
X169067142Y-51768152D02*
X169067142Y-52101485D01*
X169067142Y-52101485D02*
X169019523Y-52291961D01*
X169019523Y-52291961D02*
X168924285Y-52387200D01*
X168924285Y-52387200D02*
X168829047Y-52434819D01*
X168829047Y-52434819D02*
X168638571Y-52434819D01*
X170019523Y-52434819D02*
X169448095Y-52434819D01*
X169733809Y-52434819D02*
X169733809Y-51434819D01*
X169733809Y-51434819D02*
X169638571Y-51577676D01*
X169638571Y-51577676D02*
X169543333Y-51672914D01*
X169543333Y-51672914D02*
X169448095Y-51720533D01*
X136511905Y-52424819D02*
X136511905Y-51424819D01*
X136511905Y-51424819D02*
X136750000Y-51424819D01*
X136750000Y-51424819D02*
X136892857Y-51472438D01*
X136892857Y-51472438D02*
X136988095Y-51567676D01*
X136988095Y-51567676D02*
X137035714Y-51662914D01*
X137035714Y-51662914D02*
X137083333Y-51853390D01*
X137083333Y-51853390D02*
X137083333Y-51996247D01*
X137083333Y-51996247D02*
X137035714Y-52186723D01*
X137035714Y-52186723D02*
X136988095Y-52281961D01*
X136988095Y-52281961D02*
X136892857Y-52377200D01*
X136892857Y-52377200D02*
X136750000Y-52424819D01*
X136750000Y-52424819D02*
X136511905Y-52424819D01*
X137940476Y-51424819D02*
X137750000Y-51424819D01*
X137750000Y-51424819D02*
X137654762Y-51472438D01*
X137654762Y-51472438D02*
X137607143Y-51520057D01*
X137607143Y-51520057D02*
X137511905Y-51662914D01*
X137511905Y-51662914D02*
X137464286Y-51853390D01*
X137464286Y-51853390D02*
X137464286Y-52234342D01*
X137464286Y-52234342D02*
X137511905Y-52329580D01*
X137511905Y-52329580D02*
X137559524Y-52377200D01*
X137559524Y-52377200D02*
X137654762Y-52424819D01*
X137654762Y-52424819D02*
X137845238Y-52424819D01*
X137845238Y-52424819D02*
X137940476Y-52377200D01*
X137940476Y-52377200D02*
X137988095Y-52329580D01*
X137988095Y-52329580D02*
X138035714Y-52234342D01*
X138035714Y-52234342D02*
X138035714Y-51996247D01*
X138035714Y-51996247D02*
X137988095Y-51901009D01*
X137988095Y-51901009D02*
X137940476Y-51853390D01*
X137940476Y-51853390D02*
X137845238Y-51805771D01*
X137845238Y-51805771D02*
X137654762Y-51805771D01*
X137654762Y-51805771D02*
X137559524Y-51853390D01*
X137559524Y-51853390D02*
X137511905Y-51901009D01*
X137511905Y-51901009D02*
X137464286Y-51996247D01*
X143338095Y-51854819D02*
X143338095Y-50854819D01*
X143909523Y-51854819D02*
X143480952Y-51283390D01*
X143909523Y-50854819D02*
X143338095Y-51426247D01*
X125100057Y-64841428D02*
X125052438Y-64936666D01*
X125052438Y-64936666D02*
X124957200Y-65031904D01*
X124957200Y-65031904D02*
X124814342Y-65174761D01*
X124814342Y-65174761D02*
X124766723Y-65269999D01*
X124766723Y-65269999D02*
X124766723Y-65365237D01*
X125004819Y-65317618D02*
X124957200Y-65412856D01*
X124957200Y-65412856D02*
X124861961Y-65508094D01*
X124861961Y-65508094D02*
X124671485Y-65555713D01*
X124671485Y-65555713D02*
X124338152Y-65555713D01*
X124338152Y-65555713D02*
X124147676Y-65508094D01*
X124147676Y-65508094D02*
X124052438Y-65412856D01*
X124052438Y-65412856D02*
X124004819Y-65317618D01*
X124004819Y-65317618D02*
X124004819Y-65127142D01*
X124004819Y-65127142D02*
X124052438Y-65031904D01*
X124052438Y-65031904D02*
X124147676Y-64936666D01*
X124147676Y-64936666D02*
X124338152Y-64889047D01*
X124338152Y-64889047D02*
X124671485Y-64889047D01*
X124671485Y-64889047D02*
X124861961Y-64936666D01*
X124861961Y-64936666D02*
X124957200Y-65031904D01*
X124957200Y-65031904D02*
X125004819Y-65127142D01*
X125004819Y-65127142D02*
X125004819Y-65317618D01*
X124100057Y-64508094D02*
X124052438Y-64460475D01*
X124052438Y-64460475D02*
X124004819Y-64365237D01*
X124004819Y-64365237D02*
X124004819Y-64127142D01*
X124004819Y-64127142D02*
X124052438Y-64031904D01*
X124052438Y-64031904D02*
X124100057Y-63984285D01*
X124100057Y-63984285D02*
X124195295Y-63936666D01*
X124195295Y-63936666D02*
X124290533Y-63936666D01*
X124290533Y-63936666D02*
X124433390Y-63984285D01*
X124433390Y-63984285D02*
X125004819Y-64555713D01*
X125004819Y-64555713D02*
X125004819Y-63936666D01*
X124338152Y-63079523D02*
X125004819Y-63079523D01*
X123957200Y-63317618D02*
X124671485Y-63555713D01*
X124671485Y-63555713D02*
X124671485Y-62936666D01*
X156600057Y-113571428D02*
X156552438Y-113666666D01*
X156552438Y-113666666D02*
X156457200Y-113761904D01*
X156457200Y-113761904D02*
X156314342Y-113904761D01*
X156314342Y-113904761D02*
X156266723Y-113999999D01*
X156266723Y-113999999D02*
X156266723Y-114095237D01*
X156504819Y-114047618D02*
X156457200Y-114142856D01*
X156457200Y-114142856D02*
X156361961Y-114238094D01*
X156361961Y-114238094D02*
X156171485Y-114285713D01*
X156171485Y-114285713D02*
X155838152Y-114285713D01*
X155838152Y-114285713D02*
X155647676Y-114238094D01*
X155647676Y-114238094D02*
X155552438Y-114142856D01*
X155552438Y-114142856D02*
X155504819Y-114047618D01*
X155504819Y-114047618D02*
X155504819Y-113857142D01*
X155504819Y-113857142D02*
X155552438Y-113761904D01*
X155552438Y-113761904D02*
X155647676Y-113666666D01*
X155647676Y-113666666D02*
X155838152Y-113619047D01*
X155838152Y-113619047D02*
X156171485Y-113619047D01*
X156171485Y-113619047D02*
X156361961Y-113666666D01*
X156361961Y-113666666D02*
X156457200Y-113761904D01*
X156457200Y-113761904D02*
X156504819Y-113857142D01*
X156504819Y-113857142D02*
X156504819Y-114047618D01*
X155504819Y-113285713D02*
X155504819Y-112666666D01*
X155504819Y-112666666D02*
X155885771Y-112999999D01*
X155885771Y-112999999D02*
X155885771Y-112857142D01*
X155885771Y-112857142D02*
X155933390Y-112761904D01*
X155933390Y-112761904D02*
X155981009Y-112714285D01*
X155981009Y-112714285D02*
X156076247Y-112666666D01*
X156076247Y-112666666D02*
X156314342Y-112666666D01*
X156314342Y-112666666D02*
X156409580Y-112714285D01*
X156409580Y-112714285D02*
X156457200Y-112761904D01*
X156457200Y-112761904D02*
X156504819Y-112857142D01*
X156504819Y-112857142D02*
X156504819Y-113142856D01*
X156504819Y-113142856D02*
X156457200Y-113238094D01*
X156457200Y-113238094D02*
X156409580Y-113285713D01*
X156504819Y-111714285D02*
X156504819Y-112285713D01*
X156504819Y-111999999D02*
X155504819Y-111999999D01*
X155504819Y-111999999D02*
X155647676Y-112095237D01*
X155647676Y-112095237D02*
X155742914Y-112190475D01*
X155742914Y-112190475D02*
X155790533Y-112285713D01*
X125100057Y-70841428D02*
X125052438Y-70936666D01*
X125052438Y-70936666D02*
X124957200Y-71031904D01*
X124957200Y-71031904D02*
X124814342Y-71174761D01*
X124814342Y-71174761D02*
X124766723Y-71269999D01*
X124766723Y-71269999D02*
X124766723Y-71365237D01*
X125004819Y-71317618D02*
X124957200Y-71412856D01*
X124957200Y-71412856D02*
X124861961Y-71508094D01*
X124861961Y-71508094D02*
X124671485Y-71555713D01*
X124671485Y-71555713D02*
X124338152Y-71555713D01*
X124338152Y-71555713D02*
X124147676Y-71508094D01*
X124147676Y-71508094D02*
X124052438Y-71412856D01*
X124052438Y-71412856D02*
X124004819Y-71317618D01*
X124004819Y-71317618D02*
X124004819Y-71127142D01*
X124004819Y-71127142D02*
X124052438Y-71031904D01*
X124052438Y-71031904D02*
X124147676Y-70936666D01*
X124147676Y-70936666D02*
X124338152Y-70889047D01*
X124338152Y-70889047D02*
X124671485Y-70889047D01*
X124671485Y-70889047D02*
X124861961Y-70936666D01*
X124861961Y-70936666D02*
X124957200Y-71031904D01*
X124957200Y-71031904D02*
X125004819Y-71127142D01*
X125004819Y-71127142D02*
X125004819Y-71317618D01*
X124100057Y-70508094D02*
X124052438Y-70460475D01*
X124052438Y-70460475D02*
X124004819Y-70365237D01*
X124004819Y-70365237D02*
X124004819Y-70127142D01*
X124004819Y-70127142D02*
X124052438Y-70031904D01*
X124052438Y-70031904D02*
X124100057Y-69984285D01*
X124100057Y-69984285D02*
X124195295Y-69936666D01*
X124195295Y-69936666D02*
X124290533Y-69936666D01*
X124290533Y-69936666D02*
X124433390Y-69984285D01*
X124433390Y-69984285D02*
X125004819Y-70555713D01*
X125004819Y-70555713D02*
X125004819Y-69936666D01*
X124004819Y-69031904D02*
X124004819Y-69508094D01*
X124004819Y-69508094D02*
X124481009Y-69555713D01*
X124481009Y-69555713D02*
X124433390Y-69508094D01*
X124433390Y-69508094D02*
X124385771Y-69412856D01*
X124385771Y-69412856D02*
X124385771Y-69174761D01*
X124385771Y-69174761D02*
X124433390Y-69079523D01*
X124433390Y-69079523D02*
X124481009Y-69031904D01*
X124481009Y-69031904D02*
X124576247Y-68984285D01*
X124576247Y-68984285D02*
X124814342Y-68984285D01*
X124814342Y-68984285D02*
X124909580Y-69031904D01*
X124909580Y-69031904D02*
X124957200Y-69079523D01*
X124957200Y-69079523D02*
X125004819Y-69174761D01*
X125004819Y-69174761D02*
X125004819Y-69412856D01*
X125004819Y-69412856D02*
X124957200Y-69508094D01*
X124957200Y-69508094D02*
X124909580Y-69555713D01*
X86250057Y-72071428D02*
X86202438Y-72166666D01*
X86202438Y-72166666D02*
X86107200Y-72261904D01*
X86107200Y-72261904D02*
X85964342Y-72404761D01*
X85964342Y-72404761D02*
X85916723Y-72499999D01*
X85916723Y-72499999D02*
X85916723Y-72595237D01*
X86154819Y-72547618D02*
X86107200Y-72642856D01*
X86107200Y-72642856D02*
X86011961Y-72738094D01*
X86011961Y-72738094D02*
X85821485Y-72785713D01*
X85821485Y-72785713D02*
X85488152Y-72785713D01*
X85488152Y-72785713D02*
X85297676Y-72738094D01*
X85297676Y-72738094D02*
X85202438Y-72642856D01*
X85202438Y-72642856D02*
X85154819Y-72547618D01*
X85154819Y-72547618D02*
X85154819Y-72357142D01*
X85154819Y-72357142D02*
X85202438Y-72261904D01*
X85202438Y-72261904D02*
X85297676Y-72166666D01*
X85297676Y-72166666D02*
X85488152Y-72119047D01*
X85488152Y-72119047D02*
X85821485Y-72119047D01*
X85821485Y-72119047D02*
X86011961Y-72166666D01*
X86011961Y-72166666D02*
X86107200Y-72261904D01*
X86107200Y-72261904D02*
X86154819Y-72357142D01*
X86154819Y-72357142D02*
X86154819Y-72547618D01*
X85250057Y-71738094D02*
X85202438Y-71690475D01*
X85202438Y-71690475D02*
X85154819Y-71595237D01*
X85154819Y-71595237D02*
X85154819Y-71357142D01*
X85154819Y-71357142D02*
X85202438Y-71261904D01*
X85202438Y-71261904D02*
X85250057Y-71214285D01*
X85250057Y-71214285D02*
X85345295Y-71166666D01*
X85345295Y-71166666D02*
X85440533Y-71166666D01*
X85440533Y-71166666D02*
X85583390Y-71214285D01*
X85583390Y-71214285D02*
X86154819Y-71785713D01*
X86154819Y-71785713D02*
X86154819Y-71166666D01*
X85154819Y-70547618D02*
X85154819Y-70452380D01*
X85154819Y-70452380D02*
X85202438Y-70357142D01*
X85202438Y-70357142D02*
X85250057Y-70309523D01*
X85250057Y-70309523D02*
X85345295Y-70261904D01*
X85345295Y-70261904D02*
X85535771Y-70214285D01*
X85535771Y-70214285D02*
X85773866Y-70214285D01*
X85773866Y-70214285D02*
X85964342Y-70261904D01*
X85964342Y-70261904D02*
X86059580Y-70309523D01*
X86059580Y-70309523D02*
X86107200Y-70357142D01*
X86107200Y-70357142D02*
X86154819Y-70452380D01*
X86154819Y-70452380D02*
X86154819Y-70547618D01*
X86154819Y-70547618D02*
X86107200Y-70642856D01*
X86107200Y-70642856D02*
X86059580Y-70690475D01*
X86059580Y-70690475D02*
X85964342Y-70738094D01*
X85964342Y-70738094D02*
X85773866Y-70785713D01*
X85773866Y-70785713D02*
X85535771Y-70785713D01*
X85535771Y-70785713D02*
X85345295Y-70738094D01*
X85345295Y-70738094D02*
X85250057Y-70690475D01*
X85250057Y-70690475D02*
X85202438Y-70642856D01*
X85202438Y-70642856D02*
X85154819Y-70547618D01*
X68857142Y-75234819D02*
X68523809Y-74758628D01*
X68285714Y-75234819D02*
X68285714Y-74234819D01*
X68285714Y-74234819D02*
X68666666Y-74234819D01*
X68666666Y-74234819D02*
X68761904Y-74282438D01*
X68761904Y-74282438D02*
X68809523Y-74330057D01*
X68809523Y-74330057D02*
X68857142Y-74425295D01*
X68857142Y-74425295D02*
X68857142Y-74568152D01*
X68857142Y-74568152D02*
X68809523Y-74663390D01*
X68809523Y-74663390D02*
X68761904Y-74711009D01*
X68761904Y-74711009D02*
X68666666Y-74758628D01*
X68666666Y-74758628D02*
X68285714Y-74758628D01*
X69809523Y-75234819D02*
X69238095Y-75234819D01*
X69523809Y-75234819D02*
X69523809Y-74234819D01*
X69523809Y-74234819D02*
X69428571Y-74377676D01*
X69428571Y-74377676D02*
X69333333Y-74472914D01*
X69333333Y-74472914D02*
X69238095Y-74520533D01*
X70761904Y-75234819D02*
X70190476Y-75234819D01*
X70476190Y-75234819D02*
X70476190Y-74234819D01*
X70476190Y-74234819D02*
X70380952Y-74377676D01*
X70380952Y-74377676D02*
X70285714Y-74472914D01*
X70285714Y-74472914D02*
X70190476Y-74520533D01*
X95400057Y-92071428D02*
X95352438Y-92166666D01*
X95352438Y-92166666D02*
X95257200Y-92261904D01*
X95257200Y-92261904D02*
X95114342Y-92404761D01*
X95114342Y-92404761D02*
X95066723Y-92499999D01*
X95066723Y-92499999D02*
X95066723Y-92595237D01*
X95304819Y-92547618D02*
X95257200Y-92642856D01*
X95257200Y-92642856D02*
X95161961Y-92738094D01*
X95161961Y-92738094D02*
X94971485Y-92785713D01*
X94971485Y-92785713D02*
X94638152Y-92785713D01*
X94638152Y-92785713D02*
X94447676Y-92738094D01*
X94447676Y-92738094D02*
X94352438Y-92642856D01*
X94352438Y-92642856D02*
X94304819Y-92547618D01*
X94304819Y-92547618D02*
X94304819Y-92357142D01*
X94304819Y-92357142D02*
X94352438Y-92261904D01*
X94352438Y-92261904D02*
X94447676Y-92166666D01*
X94447676Y-92166666D02*
X94638152Y-92119047D01*
X94638152Y-92119047D02*
X94971485Y-92119047D01*
X94971485Y-92119047D02*
X95161961Y-92166666D01*
X95161961Y-92166666D02*
X95257200Y-92261904D01*
X95257200Y-92261904D02*
X95304819Y-92357142D01*
X95304819Y-92357142D02*
X95304819Y-92547618D01*
X95304819Y-91166666D02*
X95304819Y-91738094D01*
X95304819Y-91452380D02*
X94304819Y-91452380D01*
X94304819Y-91452380D02*
X94447676Y-91547618D01*
X94447676Y-91547618D02*
X94542914Y-91642856D01*
X94542914Y-91642856D02*
X94590533Y-91738094D01*
X95304819Y-90690475D02*
X95304819Y-90499999D01*
X95304819Y-90499999D02*
X95257200Y-90404761D01*
X95257200Y-90404761D02*
X95209580Y-90357142D01*
X95209580Y-90357142D02*
X95066723Y-90261904D01*
X95066723Y-90261904D02*
X94876247Y-90214285D01*
X94876247Y-90214285D02*
X94495295Y-90214285D01*
X94495295Y-90214285D02*
X94400057Y-90261904D01*
X94400057Y-90261904D02*
X94352438Y-90309523D01*
X94352438Y-90309523D02*
X94304819Y-90404761D01*
X94304819Y-90404761D02*
X94304819Y-90595237D01*
X94304819Y-90595237D02*
X94352438Y-90690475D01*
X94352438Y-90690475D02*
X94400057Y-90738094D01*
X94400057Y-90738094D02*
X94495295Y-90785713D01*
X94495295Y-90785713D02*
X94733390Y-90785713D01*
X94733390Y-90785713D02*
X94828628Y-90738094D01*
X94828628Y-90738094D02*
X94876247Y-90690475D01*
X94876247Y-90690475D02*
X94923866Y-90595237D01*
X94923866Y-90595237D02*
X94923866Y-90404761D01*
X94923866Y-90404761D02*
X94876247Y-90309523D01*
X94876247Y-90309523D02*
X94828628Y-90261904D01*
X94828628Y-90261904D02*
X94733390Y-90214285D01*
X81357142Y-56234819D02*
X81023809Y-55758628D01*
X80785714Y-56234819D02*
X80785714Y-55234819D01*
X80785714Y-55234819D02*
X81166666Y-55234819D01*
X81166666Y-55234819D02*
X81261904Y-55282438D01*
X81261904Y-55282438D02*
X81309523Y-55330057D01*
X81309523Y-55330057D02*
X81357142Y-55425295D01*
X81357142Y-55425295D02*
X81357142Y-55568152D01*
X81357142Y-55568152D02*
X81309523Y-55663390D01*
X81309523Y-55663390D02*
X81261904Y-55711009D01*
X81261904Y-55711009D02*
X81166666Y-55758628D01*
X81166666Y-55758628D02*
X80785714Y-55758628D01*
X82309523Y-56234819D02*
X81738095Y-56234819D01*
X82023809Y-56234819D02*
X82023809Y-55234819D01*
X82023809Y-55234819D02*
X81928571Y-55377676D01*
X81928571Y-55377676D02*
X81833333Y-55472914D01*
X81833333Y-55472914D02*
X81738095Y-55520533D01*
X82642857Y-55234819D02*
X83261904Y-55234819D01*
X83261904Y-55234819D02*
X82928571Y-55615771D01*
X82928571Y-55615771D02*
X83071428Y-55615771D01*
X83071428Y-55615771D02*
X83166666Y-55663390D01*
X83166666Y-55663390D02*
X83214285Y-55711009D01*
X83214285Y-55711009D02*
X83261904Y-55806247D01*
X83261904Y-55806247D02*
X83261904Y-56044342D01*
X83261904Y-56044342D02*
X83214285Y-56139580D01*
X83214285Y-56139580D02*
X83166666Y-56187200D01*
X83166666Y-56187200D02*
X83071428Y-56234819D01*
X83071428Y-56234819D02*
X82785714Y-56234819D01*
X82785714Y-56234819D02*
X82690476Y-56187200D01*
X82690476Y-56187200D02*
X82642857Y-56139580D01*
X110357142Y-90234819D02*
X110023809Y-89758628D01*
X109785714Y-90234819D02*
X109785714Y-89234819D01*
X109785714Y-89234819D02*
X110166666Y-89234819D01*
X110166666Y-89234819D02*
X110261904Y-89282438D01*
X110261904Y-89282438D02*
X110309523Y-89330057D01*
X110309523Y-89330057D02*
X110357142Y-89425295D01*
X110357142Y-89425295D02*
X110357142Y-89568152D01*
X110357142Y-89568152D02*
X110309523Y-89663390D01*
X110309523Y-89663390D02*
X110261904Y-89711009D01*
X110261904Y-89711009D02*
X110166666Y-89758628D01*
X110166666Y-89758628D02*
X109785714Y-89758628D01*
X110738095Y-89330057D02*
X110785714Y-89282438D01*
X110785714Y-89282438D02*
X110880952Y-89234819D01*
X110880952Y-89234819D02*
X111119047Y-89234819D01*
X111119047Y-89234819D02*
X111214285Y-89282438D01*
X111214285Y-89282438D02*
X111261904Y-89330057D01*
X111261904Y-89330057D02*
X111309523Y-89425295D01*
X111309523Y-89425295D02*
X111309523Y-89520533D01*
X111309523Y-89520533D02*
X111261904Y-89663390D01*
X111261904Y-89663390D02*
X110690476Y-90234819D01*
X110690476Y-90234819D02*
X111309523Y-90234819D01*
X111642857Y-89234819D02*
X112261904Y-89234819D01*
X112261904Y-89234819D02*
X111928571Y-89615771D01*
X111928571Y-89615771D02*
X112071428Y-89615771D01*
X112071428Y-89615771D02*
X112166666Y-89663390D01*
X112166666Y-89663390D02*
X112214285Y-89711009D01*
X112214285Y-89711009D02*
X112261904Y-89806247D01*
X112261904Y-89806247D02*
X112261904Y-90044342D01*
X112261904Y-90044342D02*
X112214285Y-90139580D01*
X112214285Y-90139580D02*
X112166666Y-90187200D01*
X112166666Y-90187200D02*
X112071428Y-90234819D01*
X112071428Y-90234819D02*
X111785714Y-90234819D01*
X111785714Y-90234819D02*
X111690476Y-90187200D01*
X111690476Y-90187200D02*
X111642857Y-90139580D01*
X68857142Y-63234819D02*
X68523809Y-62758628D01*
X68285714Y-63234819D02*
X68285714Y-62234819D01*
X68285714Y-62234819D02*
X68666666Y-62234819D01*
X68666666Y-62234819D02*
X68761904Y-62282438D01*
X68761904Y-62282438D02*
X68809523Y-62330057D01*
X68809523Y-62330057D02*
X68857142Y-62425295D01*
X68857142Y-62425295D02*
X68857142Y-62568152D01*
X68857142Y-62568152D02*
X68809523Y-62663390D01*
X68809523Y-62663390D02*
X68761904Y-62711009D01*
X68761904Y-62711009D02*
X68666666Y-62758628D01*
X68666666Y-62758628D02*
X68285714Y-62758628D01*
X69809523Y-63234819D02*
X69238095Y-63234819D01*
X69523809Y-63234819D02*
X69523809Y-62234819D01*
X69523809Y-62234819D02*
X69428571Y-62377676D01*
X69428571Y-62377676D02*
X69333333Y-62472914D01*
X69333333Y-62472914D02*
X69238095Y-62520533D01*
X70190476Y-62330057D02*
X70238095Y-62282438D01*
X70238095Y-62282438D02*
X70333333Y-62234819D01*
X70333333Y-62234819D02*
X70571428Y-62234819D01*
X70571428Y-62234819D02*
X70666666Y-62282438D01*
X70666666Y-62282438D02*
X70714285Y-62330057D01*
X70714285Y-62330057D02*
X70761904Y-62425295D01*
X70761904Y-62425295D02*
X70761904Y-62520533D01*
X70761904Y-62520533D02*
X70714285Y-62663390D01*
X70714285Y-62663390D02*
X70142857Y-63234819D01*
X70142857Y-63234819D02*
X70761904Y-63234819D01*
X156460057Y-107341428D02*
X156412438Y-107436666D01*
X156412438Y-107436666D02*
X156317200Y-107531904D01*
X156317200Y-107531904D02*
X156174342Y-107674761D01*
X156174342Y-107674761D02*
X156126723Y-107769999D01*
X156126723Y-107769999D02*
X156126723Y-107865237D01*
X156364819Y-107817618D02*
X156317200Y-107912856D01*
X156317200Y-107912856D02*
X156221961Y-108008094D01*
X156221961Y-108008094D02*
X156031485Y-108055713D01*
X156031485Y-108055713D02*
X155698152Y-108055713D01*
X155698152Y-108055713D02*
X155507676Y-108008094D01*
X155507676Y-108008094D02*
X155412438Y-107912856D01*
X155412438Y-107912856D02*
X155364819Y-107817618D01*
X155364819Y-107817618D02*
X155364819Y-107627142D01*
X155364819Y-107627142D02*
X155412438Y-107531904D01*
X155412438Y-107531904D02*
X155507676Y-107436666D01*
X155507676Y-107436666D02*
X155698152Y-107389047D01*
X155698152Y-107389047D02*
X156031485Y-107389047D01*
X156031485Y-107389047D02*
X156221961Y-107436666D01*
X156221961Y-107436666D02*
X156317200Y-107531904D01*
X156317200Y-107531904D02*
X156364819Y-107627142D01*
X156364819Y-107627142D02*
X156364819Y-107817618D01*
X155364819Y-107055713D02*
X155364819Y-106436666D01*
X155364819Y-106436666D02*
X155745771Y-106769999D01*
X155745771Y-106769999D02*
X155745771Y-106627142D01*
X155745771Y-106627142D02*
X155793390Y-106531904D01*
X155793390Y-106531904D02*
X155841009Y-106484285D01*
X155841009Y-106484285D02*
X155936247Y-106436666D01*
X155936247Y-106436666D02*
X156174342Y-106436666D01*
X156174342Y-106436666D02*
X156269580Y-106484285D01*
X156269580Y-106484285D02*
X156317200Y-106531904D01*
X156317200Y-106531904D02*
X156364819Y-106627142D01*
X156364819Y-106627142D02*
X156364819Y-106912856D01*
X156364819Y-106912856D02*
X156317200Y-107008094D01*
X156317200Y-107008094D02*
X156269580Y-107055713D01*
X155364819Y-105817618D02*
X155364819Y-105722380D01*
X155364819Y-105722380D02*
X155412438Y-105627142D01*
X155412438Y-105627142D02*
X155460057Y-105579523D01*
X155460057Y-105579523D02*
X155555295Y-105531904D01*
X155555295Y-105531904D02*
X155745771Y-105484285D01*
X155745771Y-105484285D02*
X155983866Y-105484285D01*
X155983866Y-105484285D02*
X156174342Y-105531904D01*
X156174342Y-105531904D02*
X156269580Y-105579523D01*
X156269580Y-105579523D02*
X156317200Y-105627142D01*
X156317200Y-105627142D02*
X156364819Y-105722380D01*
X156364819Y-105722380D02*
X156364819Y-105817618D01*
X156364819Y-105817618D02*
X156317200Y-105912856D01*
X156317200Y-105912856D02*
X156269580Y-105960475D01*
X156269580Y-105960475D02*
X156174342Y-106008094D01*
X156174342Y-106008094D02*
X155983866Y-106055713D01*
X155983866Y-106055713D02*
X155745771Y-106055713D01*
X155745771Y-106055713D02*
X155555295Y-106008094D01*
X155555295Y-106008094D02*
X155460057Y-105960475D01*
X155460057Y-105960475D02*
X155412438Y-105912856D01*
X155412438Y-105912856D02*
X155364819Y-105817618D01*
X87260057Y-104841428D02*
X87212438Y-104936666D01*
X87212438Y-104936666D02*
X87117200Y-105031904D01*
X87117200Y-105031904D02*
X86974342Y-105174761D01*
X86974342Y-105174761D02*
X86926723Y-105269999D01*
X86926723Y-105269999D02*
X86926723Y-105365237D01*
X87164819Y-105317618D02*
X87117200Y-105412856D01*
X87117200Y-105412856D02*
X87021961Y-105508094D01*
X87021961Y-105508094D02*
X86831485Y-105555713D01*
X86831485Y-105555713D02*
X86498152Y-105555713D01*
X86498152Y-105555713D02*
X86307676Y-105508094D01*
X86307676Y-105508094D02*
X86212438Y-105412856D01*
X86212438Y-105412856D02*
X86164819Y-105317618D01*
X86164819Y-105317618D02*
X86164819Y-105127142D01*
X86164819Y-105127142D02*
X86212438Y-105031904D01*
X86212438Y-105031904D02*
X86307676Y-104936666D01*
X86307676Y-104936666D02*
X86498152Y-104889047D01*
X86498152Y-104889047D02*
X86831485Y-104889047D01*
X86831485Y-104889047D02*
X87021961Y-104936666D01*
X87021961Y-104936666D02*
X87117200Y-105031904D01*
X87117200Y-105031904D02*
X87164819Y-105127142D01*
X87164819Y-105127142D02*
X87164819Y-105317618D01*
X87164819Y-103936666D02*
X87164819Y-104508094D01*
X87164819Y-104222380D02*
X86164819Y-104222380D01*
X86164819Y-104222380D02*
X86307676Y-104317618D01*
X86307676Y-104317618D02*
X86402914Y-104412856D01*
X86402914Y-104412856D02*
X86450533Y-104508094D01*
X86593390Y-103365237D02*
X86545771Y-103460475D01*
X86545771Y-103460475D02*
X86498152Y-103508094D01*
X86498152Y-103508094D02*
X86402914Y-103555713D01*
X86402914Y-103555713D02*
X86355295Y-103555713D01*
X86355295Y-103555713D02*
X86260057Y-103508094D01*
X86260057Y-103508094D02*
X86212438Y-103460475D01*
X86212438Y-103460475D02*
X86164819Y-103365237D01*
X86164819Y-103365237D02*
X86164819Y-103174761D01*
X86164819Y-103174761D02*
X86212438Y-103079523D01*
X86212438Y-103079523D02*
X86260057Y-103031904D01*
X86260057Y-103031904D02*
X86355295Y-102984285D01*
X86355295Y-102984285D02*
X86402914Y-102984285D01*
X86402914Y-102984285D02*
X86498152Y-103031904D01*
X86498152Y-103031904D02*
X86545771Y-103079523D01*
X86545771Y-103079523D02*
X86593390Y-103174761D01*
X86593390Y-103174761D02*
X86593390Y-103365237D01*
X86593390Y-103365237D02*
X86641009Y-103460475D01*
X86641009Y-103460475D02*
X86688628Y-103508094D01*
X86688628Y-103508094D02*
X86783866Y-103555713D01*
X86783866Y-103555713D02*
X86974342Y-103555713D01*
X86974342Y-103555713D02*
X87069580Y-103508094D01*
X87069580Y-103508094D02*
X87117200Y-103460475D01*
X87117200Y-103460475D02*
X87164819Y-103365237D01*
X87164819Y-103365237D02*
X87164819Y-103174761D01*
X87164819Y-103174761D02*
X87117200Y-103079523D01*
X87117200Y-103079523D02*
X87069580Y-103031904D01*
X87069580Y-103031904D02*
X86974342Y-102984285D01*
X86974342Y-102984285D02*
X86783866Y-102984285D01*
X86783866Y-102984285D02*
X86688628Y-103031904D01*
X86688628Y-103031904D02*
X86641009Y-103079523D01*
X86641009Y-103079523D02*
X86593390Y-103174761D01*
X108857142Y-61734819D02*
X108523809Y-61258628D01*
X108285714Y-61734819D02*
X108285714Y-60734819D01*
X108285714Y-60734819D02*
X108666666Y-60734819D01*
X108666666Y-60734819D02*
X108761904Y-60782438D01*
X108761904Y-60782438D02*
X108809523Y-60830057D01*
X108809523Y-60830057D02*
X108857142Y-60925295D01*
X108857142Y-60925295D02*
X108857142Y-61068152D01*
X108857142Y-61068152D02*
X108809523Y-61163390D01*
X108809523Y-61163390D02*
X108761904Y-61211009D01*
X108761904Y-61211009D02*
X108666666Y-61258628D01*
X108666666Y-61258628D02*
X108285714Y-61258628D01*
X109809523Y-61734819D02*
X109238095Y-61734819D01*
X109523809Y-61734819D02*
X109523809Y-60734819D01*
X109523809Y-60734819D02*
X109428571Y-60877676D01*
X109428571Y-60877676D02*
X109333333Y-60972914D01*
X109333333Y-60972914D02*
X109238095Y-61020533D01*
X110666666Y-60734819D02*
X110476190Y-60734819D01*
X110476190Y-60734819D02*
X110380952Y-60782438D01*
X110380952Y-60782438D02*
X110333333Y-60830057D01*
X110333333Y-60830057D02*
X110238095Y-60972914D01*
X110238095Y-60972914D02*
X110190476Y-61163390D01*
X110190476Y-61163390D02*
X110190476Y-61544342D01*
X110190476Y-61544342D02*
X110238095Y-61639580D01*
X110238095Y-61639580D02*
X110285714Y-61687200D01*
X110285714Y-61687200D02*
X110380952Y-61734819D01*
X110380952Y-61734819D02*
X110571428Y-61734819D01*
X110571428Y-61734819D02*
X110666666Y-61687200D01*
X110666666Y-61687200D02*
X110714285Y-61639580D01*
X110714285Y-61639580D02*
X110761904Y-61544342D01*
X110761904Y-61544342D02*
X110761904Y-61306247D01*
X110761904Y-61306247D02*
X110714285Y-61211009D01*
X110714285Y-61211009D02*
X110666666Y-61163390D01*
X110666666Y-61163390D02*
X110571428Y-61115771D01*
X110571428Y-61115771D02*
X110380952Y-61115771D01*
X110380952Y-61115771D02*
X110285714Y-61163390D01*
X110285714Y-61163390D02*
X110238095Y-61211009D01*
X110238095Y-61211009D02*
X110190476Y-61306247D01*
X140357142Y-98234819D02*
X140023809Y-97758628D01*
X139785714Y-98234819D02*
X139785714Y-97234819D01*
X139785714Y-97234819D02*
X140166666Y-97234819D01*
X140166666Y-97234819D02*
X140261904Y-97282438D01*
X140261904Y-97282438D02*
X140309523Y-97330057D01*
X140309523Y-97330057D02*
X140357142Y-97425295D01*
X140357142Y-97425295D02*
X140357142Y-97568152D01*
X140357142Y-97568152D02*
X140309523Y-97663390D01*
X140309523Y-97663390D02*
X140261904Y-97711009D01*
X140261904Y-97711009D02*
X140166666Y-97758628D01*
X140166666Y-97758628D02*
X139785714Y-97758628D01*
X140738095Y-97330057D02*
X140785714Y-97282438D01*
X140785714Y-97282438D02*
X140880952Y-97234819D01*
X140880952Y-97234819D02*
X141119047Y-97234819D01*
X141119047Y-97234819D02*
X141214285Y-97282438D01*
X141214285Y-97282438D02*
X141261904Y-97330057D01*
X141261904Y-97330057D02*
X141309523Y-97425295D01*
X141309523Y-97425295D02*
X141309523Y-97520533D01*
X141309523Y-97520533D02*
X141261904Y-97663390D01*
X141261904Y-97663390D02*
X140690476Y-98234819D01*
X140690476Y-98234819D02*
X141309523Y-98234819D01*
X142166666Y-97234819D02*
X141976190Y-97234819D01*
X141976190Y-97234819D02*
X141880952Y-97282438D01*
X141880952Y-97282438D02*
X141833333Y-97330057D01*
X141833333Y-97330057D02*
X141738095Y-97472914D01*
X141738095Y-97472914D02*
X141690476Y-97663390D01*
X141690476Y-97663390D02*
X141690476Y-98044342D01*
X141690476Y-98044342D02*
X141738095Y-98139580D01*
X141738095Y-98139580D02*
X141785714Y-98187200D01*
X141785714Y-98187200D02*
X141880952Y-98234819D01*
X141880952Y-98234819D02*
X142071428Y-98234819D01*
X142071428Y-98234819D02*
X142166666Y-98187200D01*
X142166666Y-98187200D02*
X142214285Y-98139580D01*
X142214285Y-98139580D02*
X142261904Y-98044342D01*
X142261904Y-98044342D02*
X142261904Y-97806247D01*
X142261904Y-97806247D02*
X142214285Y-97711009D01*
X142214285Y-97711009D02*
X142166666Y-97663390D01*
X142166666Y-97663390D02*
X142071428Y-97615771D01*
X142071428Y-97615771D02*
X141880952Y-97615771D01*
X141880952Y-97615771D02*
X141785714Y-97663390D01*
X141785714Y-97663390D02*
X141738095Y-97711009D01*
X141738095Y-97711009D02*
X141690476Y-97806247D01*
X86250057Y-78071428D02*
X86202438Y-78166666D01*
X86202438Y-78166666D02*
X86107200Y-78261904D01*
X86107200Y-78261904D02*
X85964342Y-78404761D01*
X85964342Y-78404761D02*
X85916723Y-78499999D01*
X85916723Y-78499999D02*
X85916723Y-78595237D01*
X86154819Y-78547618D02*
X86107200Y-78642856D01*
X86107200Y-78642856D02*
X86011961Y-78738094D01*
X86011961Y-78738094D02*
X85821485Y-78785713D01*
X85821485Y-78785713D02*
X85488152Y-78785713D01*
X85488152Y-78785713D02*
X85297676Y-78738094D01*
X85297676Y-78738094D02*
X85202438Y-78642856D01*
X85202438Y-78642856D02*
X85154819Y-78547618D01*
X85154819Y-78547618D02*
X85154819Y-78357142D01*
X85154819Y-78357142D02*
X85202438Y-78261904D01*
X85202438Y-78261904D02*
X85297676Y-78166666D01*
X85297676Y-78166666D02*
X85488152Y-78119047D01*
X85488152Y-78119047D02*
X85821485Y-78119047D01*
X85821485Y-78119047D02*
X86011961Y-78166666D01*
X86011961Y-78166666D02*
X86107200Y-78261904D01*
X86107200Y-78261904D02*
X86154819Y-78357142D01*
X86154819Y-78357142D02*
X86154819Y-78547618D01*
X85250057Y-77738094D02*
X85202438Y-77690475D01*
X85202438Y-77690475D02*
X85154819Y-77595237D01*
X85154819Y-77595237D02*
X85154819Y-77357142D01*
X85154819Y-77357142D02*
X85202438Y-77261904D01*
X85202438Y-77261904D02*
X85250057Y-77214285D01*
X85250057Y-77214285D02*
X85345295Y-77166666D01*
X85345295Y-77166666D02*
X85440533Y-77166666D01*
X85440533Y-77166666D02*
X85583390Y-77214285D01*
X85583390Y-77214285D02*
X86154819Y-77785713D01*
X86154819Y-77785713D02*
X86154819Y-77166666D01*
X85250057Y-76785713D02*
X85202438Y-76738094D01*
X85202438Y-76738094D02*
X85154819Y-76642856D01*
X85154819Y-76642856D02*
X85154819Y-76404761D01*
X85154819Y-76404761D02*
X85202438Y-76309523D01*
X85202438Y-76309523D02*
X85250057Y-76261904D01*
X85250057Y-76261904D02*
X85345295Y-76214285D01*
X85345295Y-76214285D02*
X85440533Y-76214285D01*
X85440533Y-76214285D02*
X85583390Y-76261904D01*
X85583390Y-76261904D02*
X86154819Y-76833332D01*
X86154819Y-76833332D02*
X86154819Y-76214285D01*
X69007142Y-69234819D02*
X68673809Y-68758628D01*
X68435714Y-69234819D02*
X68435714Y-68234819D01*
X68435714Y-68234819D02*
X68816666Y-68234819D01*
X68816666Y-68234819D02*
X68911904Y-68282438D01*
X68911904Y-68282438D02*
X68959523Y-68330057D01*
X68959523Y-68330057D02*
X69007142Y-68425295D01*
X69007142Y-68425295D02*
X69007142Y-68568152D01*
X69007142Y-68568152D02*
X68959523Y-68663390D01*
X68959523Y-68663390D02*
X68911904Y-68711009D01*
X68911904Y-68711009D02*
X68816666Y-68758628D01*
X68816666Y-68758628D02*
X68435714Y-68758628D01*
X69959523Y-69234819D02*
X69388095Y-69234819D01*
X69673809Y-69234819D02*
X69673809Y-68234819D01*
X69673809Y-68234819D02*
X69578571Y-68377676D01*
X69578571Y-68377676D02*
X69483333Y-68472914D01*
X69483333Y-68472914D02*
X69388095Y-68520533D01*
X70578571Y-68234819D02*
X70673809Y-68234819D01*
X70673809Y-68234819D02*
X70769047Y-68282438D01*
X70769047Y-68282438D02*
X70816666Y-68330057D01*
X70816666Y-68330057D02*
X70864285Y-68425295D01*
X70864285Y-68425295D02*
X70911904Y-68615771D01*
X70911904Y-68615771D02*
X70911904Y-68853866D01*
X70911904Y-68853866D02*
X70864285Y-69044342D01*
X70864285Y-69044342D02*
X70816666Y-69139580D01*
X70816666Y-69139580D02*
X70769047Y-69187200D01*
X70769047Y-69187200D02*
X70673809Y-69234819D01*
X70673809Y-69234819D02*
X70578571Y-69234819D01*
X70578571Y-69234819D02*
X70483333Y-69187200D01*
X70483333Y-69187200D02*
X70435714Y-69139580D01*
X70435714Y-69139580D02*
X70388095Y-69044342D01*
X70388095Y-69044342D02*
X70340476Y-68853866D01*
X70340476Y-68853866D02*
X70340476Y-68615771D01*
X70340476Y-68615771D02*
X70388095Y-68425295D01*
X70388095Y-68425295D02*
X70435714Y-68330057D01*
X70435714Y-68330057D02*
X70483333Y-68282438D01*
X70483333Y-68282438D02*
X70578571Y-68234819D01*
X175583333Y-59734819D02*
X175250000Y-59258628D01*
X175011905Y-59734819D02*
X175011905Y-58734819D01*
X175011905Y-58734819D02*
X175392857Y-58734819D01*
X175392857Y-58734819D02*
X175488095Y-58782438D01*
X175488095Y-58782438D02*
X175535714Y-58830057D01*
X175535714Y-58830057D02*
X175583333Y-58925295D01*
X175583333Y-58925295D02*
X175583333Y-59068152D01*
X175583333Y-59068152D02*
X175535714Y-59163390D01*
X175535714Y-59163390D02*
X175488095Y-59211009D01*
X175488095Y-59211009D02*
X175392857Y-59258628D01*
X175392857Y-59258628D02*
X175011905Y-59258628D01*
X175964286Y-58830057D02*
X176011905Y-58782438D01*
X176011905Y-58782438D02*
X176107143Y-58734819D01*
X176107143Y-58734819D02*
X176345238Y-58734819D01*
X176345238Y-58734819D02*
X176440476Y-58782438D01*
X176440476Y-58782438D02*
X176488095Y-58830057D01*
X176488095Y-58830057D02*
X176535714Y-58925295D01*
X176535714Y-58925295D02*
X176535714Y-59020533D01*
X176535714Y-59020533D02*
X176488095Y-59163390D01*
X176488095Y-59163390D02*
X175916667Y-59734819D01*
X175916667Y-59734819D02*
X176535714Y-59734819D01*
X140357142Y-104734819D02*
X140023809Y-104258628D01*
X139785714Y-104734819D02*
X139785714Y-103734819D01*
X139785714Y-103734819D02*
X140166666Y-103734819D01*
X140166666Y-103734819D02*
X140261904Y-103782438D01*
X140261904Y-103782438D02*
X140309523Y-103830057D01*
X140309523Y-103830057D02*
X140357142Y-103925295D01*
X140357142Y-103925295D02*
X140357142Y-104068152D01*
X140357142Y-104068152D02*
X140309523Y-104163390D01*
X140309523Y-104163390D02*
X140261904Y-104211009D01*
X140261904Y-104211009D02*
X140166666Y-104258628D01*
X140166666Y-104258628D02*
X139785714Y-104258628D01*
X140738095Y-103830057D02*
X140785714Y-103782438D01*
X140785714Y-103782438D02*
X140880952Y-103734819D01*
X140880952Y-103734819D02*
X141119047Y-103734819D01*
X141119047Y-103734819D02*
X141214285Y-103782438D01*
X141214285Y-103782438D02*
X141261904Y-103830057D01*
X141261904Y-103830057D02*
X141309523Y-103925295D01*
X141309523Y-103925295D02*
X141309523Y-104020533D01*
X141309523Y-104020533D02*
X141261904Y-104163390D01*
X141261904Y-104163390D02*
X140690476Y-104734819D01*
X140690476Y-104734819D02*
X141309523Y-104734819D01*
X142166666Y-104068152D02*
X142166666Y-104734819D01*
X141928571Y-103687200D02*
X141690476Y-104401485D01*
X141690476Y-104401485D02*
X142309523Y-104401485D01*
X69633333Y-101234819D02*
X69300000Y-100758628D01*
X69061905Y-101234819D02*
X69061905Y-100234819D01*
X69061905Y-100234819D02*
X69442857Y-100234819D01*
X69442857Y-100234819D02*
X69538095Y-100282438D01*
X69538095Y-100282438D02*
X69585714Y-100330057D01*
X69585714Y-100330057D02*
X69633333Y-100425295D01*
X69633333Y-100425295D02*
X69633333Y-100568152D01*
X69633333Y-100568152D02*
X69585714Y-100663390D01*
X69585714Y-100663390D02*
X69538095Y-100711009D01*
X69538095Y-100711009D02*
X69442857Y-100758628D01*
X69442857Y-100758628D02*
X69061905Y-100758628D01*
X70204762Y-100663390D02*
X70109524Y-100615771D01*
X70109524Y-100615771D02*
X70061905Y-100568152D01*
X70061905Y-100568152D02*
X70014286Y-100472914D01*
X70014286Y-100472914D02*
X70014286Y-100425295D01*
X70014286Y-100425295D02*
X70061905Y-100330057D01*
X70061905Y-100330057D02*
X70109524Y-100282438D01*
X70109524Y-100282438D02*
X70204762Y-100234819D01*
X70204762Y-100234819D02*
X70395238Y-100234819D01*
X70395238Y-100234819D02*
X70490476Y-100282438D01*
X70490476Y-100282438D02*
X70538095Y-100330057D01*
X70538095Y-100330057D02*
X70585714Y-100425295D01*
X70585714Y-100425295D02*
X70585714Y-100472914D01*
X70585714Y-100472914D02*
X70538095Y-100568152D01*
X70538095Y-100568152D02*
X70490476Y-100615771D01*
X70490476Y-100615771D02*
X70395238Y-100663390D01*
X70395238Y-100663390D02*
X70204762Y-100663390D01*
X70204762Y-100663390D02*
X70109524Y-100711009D01*
X70109524Y-100711009D02*
X70061905Y-100758628D01*
X70061905Y-100758628D02*
X70014286Y-100853866D01*
X70014286Y-100853866D02*
X70014286Y-101044342D01*
X70014286Y-101044342D02*
X70061905Y-101139580D01*
X70061905Y-101139580D02*
X70109524Y-101187200D01*
X70109524Y-101187200D02*
X70204762Y-101234819D01*
X70204762Y-101234819D02*
X70395238Y-101234819D01*
X70395238Y-101234819D02*
X70490476Y-101187200D01*
X70490476Y-101187200D02*
X70538095Y-101139580D01*
X70538095Y-101139580D02*
X70585714Y-101044342D01*
X70585714Y-101044342D02*
X70585714Y-100853866D01*
X70585714Y-100853866D02*
X70538095Y-100758628D01*
X70538095Y-100758628D02*
X70490476Y-100711009D01*
X70490476Y-100711009D02*
X70395238Y-100663390D01*
X120600057Y-112841428D02*
X120552438Y-112936666D01*
X120552438Y-112936666D02*
X120457200Y-113031904D01*
X120457200Y-113031904D02*
X120314342Y-113174761D01*
X120314342Y-113174761D02*
X120266723Y-113269999D01*
X120266723Y-113269999D02*
X120266723Y-113365237D01*
X120504819Y-113317618D02*
X120457200Y-113412856D01*
X120457200Y-113412856D02*
X120361961Y-113508094D01*
X120361961Y-113508094D02*
X120171485Y-113555713D01*
X120171485Y-113555713D02*
X119838152Y-113555713D01*
X119838152Y-113555713D02*
X119647676Y-113508094D01*
X119647676Y-113508094D02*
X119552438Y-113412856D01*
X119552438Y-113412856D02*
X119504819Y-113317618D01*
X119504819Y-113317618D02*
X119504819Y-113127142D01*
X119504819Y-113127142D02*
X119552438Y-113031904D01*
X119552438Y-113031904D02*
X119647676Y-112936666D01*
X119647676Y-112936666D02*
X119838152Y-112889047D01*
X119838152Y-112889047D02*
X120171485Y-112889047D01*
X120171485Y-112889047D02*
X120361961Y-112936666D01*
X120361961Y-112936666D02*
X120457200Y-113031904D01*
X120457200Y-113031904D02*
X120504819Y-113127142D01*
X120504819Y-113127142D02*
X120504819Y-113317618D01*
X119600057Y-112508094D02*
X119552438Y-112460475D01*
X119552438Y-112460475D02*
X119504819Y-112365237D01*
X119504819Y-112365237D02*
X119504819Y-112127142D01*
X119504819Y-112127142D02*
X119552438Y-112031904D01*
X119552438Y-112031904D02*
X119600057Y-111984285D01*
X119600057Y-111984285D02*
X119695295Y-111936666D01*
X119695295Y-111936666D02*
X119790533Y-111936666D01*
X119790533Y-111936666D02*
X119933390Y-111984285D01*
X119933390Y-111984285D02*
X120504819Y-112555713D01*
X120504819Y-112555713D02*
X120504819Y-111936666D01*
X119933390Y-111365237D02*
X119885771Y-111460475D01*
X119885771Y-111460475D02*
X119838152Y-111508094D01*
X119838152Y-111508094D02*
X119742914Y-111555713D01*
X119742914Y-111555713D02*
X119695295Y-111555713D01*
X119695295Y-111555713D02*
X119600057Y-111508094D01*
X119600057Y-111508094D02*
X119552438Y-111460475D01*
X119552438Y-111460475D02*
X119504819Y-111365237D01*
X119504819Y-111365237D02*
X119504819Y-111174761D01*
X119504819Y-111174761D02*
X119552438Y-111079523D01*
X119552438Y-111079523D02*
X119600057Y-111031904D01*
X119600057Y-111031904D02*
X119695295Y-110984285D01*
X119695295Y-110984285D02*
X119742914Y-110984285D01*
X119742914Y-110984285D02*
X119838152Y-111031904D01*
X119838152Y-111031904D02*
X119885771Y-111079523D01*
X119885771Y-111079523D02*
X119933390Y-111174761D01*
X119933390Y-111174761D02*
X119933390Y-111365237D01*
X119933390Y-111365237D02*
X119981009Y-111460475D01*
X119981009Y-111460475D02*
X120028628Y-111508094D01*
X120028628Y-111508094D02*
X120123866Y-111555713D01*
X120123866Y-111555713D02*
X120314342Y-111555713D01*
X120314342Y-111555713D02*
X120409580Y-111508094D01*
X120409580Y-111508094D02*
X120457200Y-111460475D01*
X120457200Y-111460475D02*
X120504819Y-111365237D01*
X120504819Y-111365237D02*
X120504819Y-111174761D01*
X120504819Y-111174761D02*
X120457200Y-111079523D01*
X120457200Y-111079523D02*
X120409580Y-111031904D01*
X120409580Y-111031904D02*
X120314342Y-110984285D01*
X120314342Y-110984285D02*
X120123866Y-110984285D01*
X120123866Y-110984285D02*
X120028628Y-111031904D01*
X120028628Y-111031904D02*
X119981009Y-111079523D01*
X119981009Y-111079523D02*
X119933390Y-111174761D01*
X48801667Y-68547200D02*
X48944524Y-68594819D01*
X48944524Y-68594819D02*
X49182619Y-68594819D01*
X49182619Y-68594819D02*
X49277857Y-68547200D01*
X49277857Y-68547200D02*
X49325476Y-68499580D01*
X49325476Y-68499580D02*
X49373095Y-68404342D01*
X49373095Y-68404342D02*
X49373095Y-68309104D01*
X49373095Y-68309104D02*
X49325476Y-68213866D01*
X49325476Y-68213866D02*
X49277857Y-68166247D01*
X49277857Y-68166247D02*
X49182619Y-68118628D01*
X49182619Y-68118628D02*
X48992143Y-68071009D01*
X48992143Y-68071009D02*
X48896905Y-68023390D01*
X48896905Y-68023390D02*
X48849286Y-67975771D01*
X48849286Y-67975771D02*
X48801667Y-67880533D01*
X48801667Y-67880533D02*
X48801667Y-67785295D01*
X48801667Y-67785295D02*
X48849286Y-67690057D01*
X48849286Y-67690057D02*
X48896905Y-67642438D01*
X48896905Y-67642438D02*
X48992143Y-67594819D01*
X48992143Y-67594819D02*
X49230238Y-67594819D01*
X49230238Y-67594819D02*
X49373095Y-67642438D01*
X49706429Y-67594819D02*
X49944524Y-68594819D01*
X49944524Y-68594819D02*
X50135000Y-67880533D01*
X50135000Y-67880533D02*
X50325476Y-68594819D01*
X50325476Y-68594819D02*
X50563572Y-67594819D01*
X50849286Y-67594819D02*
X51468333Y-67594819D01*
X51468333Y-67594819D02*
X51135000Y-67975771D01*
X51135000Y-67975771D02*
X51277857Y-67975771D01*
X51277857Y-67975771D02*
X51373095Y-68023390D01*
X51373095Y-68023390D02*
X51420714Y-68071009D01*
X51420714Y-68071009D02*
X51468333Y-68166247D01*
X51468333Y-68166247D02*
X51468333Y-68404342D01*
X51468333Y-68404342D02*
X51420714Y-68499580D01*
X51420714Y-68499580D02*
X51373095Y-68547200D01*
X51373095Y-68547200D02*
X51277857Y-68594819D01*
X51277857Y-68594819D02*
X50992143Y-68594819D01*
X50992143Y-68594819D02*
X50896905Y-68547200D01*
X50896905Y-68547200D02*
X50849286Y-68499580D01*
X101857142Y-98734819D02*
X101523809Y-98258628D01*
X101285714Y-98734819D02*
X101285714Y-97734819D01*
X101285714Y-97734819D02*
X101666666Y-97734819D01*
X101666666Y-97734819D02*
X101761904Y-97782438D01*
X101761904Y-97782438D02*
X101809523Y-97830057D01*
X101809523Y-97830057D02*
X101857142Y-97925295D01*
X101857142Y-97925295D02*
X101857142Y-98068152D01*
X101857142Y-98068152D02*
X101809523Y-98163390D01*
X101809523Y-98163390D02*
X101761904Y-98211009D01*
X101761904Y-98211009D02*
X101666666Y-98258628D01*
X101666666Y-98258628D02*
X101285714Y-98258628D01*
X102238095Y-97830057D02*
X102285714Y-97782438D01*
X102285714Y-97782438D02*
X102380952Y-97734819D01*
X102380952Y-97734819D02*
X102619047Y-97734819D01*
X102619047Y-97734819D02*
X102714285Y-97782438D01*
X102714285Y-97782438D02*
X102761904Y-97830057D01*
X102761904Y-97830057D02*
X102809523Y-97925295D01*
X102809523Y-97925295D02*
X102809523Y-98020533D01*
X102809523Y-98020533D02*
X102761904Y-98163390D01*
X102761904Y-98163390D02*
X102190476Y-98734819D01*
X102190476Y-98734819D02*
X102809523Y-98734819D01*
X103190476Y-97830057D02*
X103238095Y-97782438D01*
X103238095Y-97782438D02*
X103333333Y-97734819D01*
X103333333Y-97734819D02*
X103571428Y-97734819D01*
X103571428Y-97734819D02*
X103666666Y-97782438D01*
X103666666Y-97782438D02*
X103714285Y-97830057D01*
X103714285Y-97830057D02*
X103761904Y-97925295D01*
X103761904Y-97925295D02*
X103761904Y-98020533D01*
X103761904Y-98020533D02*
X103714285Y-98163390D01*
X103714285Y-98163390D02*
X103142857Y-98734819D01*
X103142857Y-98734819D02*
X103761904Y-98734819D01*
X149944819Y-39243094D02*
X148944819Y-39243094D01*
X148944819Y-39243094D02*
X148944819Y-39004999D01*
X148944819Y-39004999D02*
X148992438Y-38862142D01*
X148992438Y-38862142D02*
X149087676Y-38766904D01*
X149087676Y-38766904D02*
X149182914Y-38719285D01*
X149182914Y-38719285D02*
X149373390Y-38671666D01*
X149373390Y-38671666D02*
X149516247Y-38671666D01*
X149516247Y-38671666D02*
X149706723Y-38719285D01*
X149706723Y-38719285D02*
X149801961Y-38766904D01*
X149801961Y-38766904D02*
X149897200Y-38862142D01*
X149897200Y-38862142D02*
X149944819Y-39004999D01*
X149944819Y-39004999D02*
X149944819Y-39243094D01*
X148944819Y-38338332D02*
X148944819Y-37719285D01*
X148944819Y-37719285D02*
X149325771Y-38052618D01*
X149325771Y-38052618D02*
X149325771Y-37909761D01*
X149325771Y-37909761D02*
X149373390Y-37814523D01*
X149373390Y-37814523D02*
X149421009Y-37766904D01*
X149421009Y-37766904D02*
X149516247Y-37719285D01*
X149516247Y-37719285D02*
X149754342Y-37719285D01*
X149754342Y-37719285D02*
X149849580Y-37766904D01*
X149849580Y-37766904D02*
X149897200Y-37814523D01*
X149897200Y-37814523D02*
X149944819Y-37909761D01*
X149944819Y-37909761D02*
X149944819Y-38195475D01*
X149944819Y-38195475D02*
X149897200Y-38290713D01*
X149897200Y-38290713D02*
X149849580Y-38338332D01*
X48551667Y-92297200D02*
X48694524Y-92344819D01*
X48694524Y-92344819D02*
X48932619Y-92344819D01*
X48932619Y-92344819D02*
X49027857Y-92297200D01*
X49027857Y-92297200D02*
X49075476Y-92249580D01*
X49075476Y-92249580D02*
X49123095Y-92154342D01*
X49123095Y-92154342D02*
X49123095Y-92059104D01*
X49123095Y-92059104D02*
X49075476Y-91963866D01*
X49075476Y-91963866D02*
X49027857Y-91916247D01*
X49027857Y-91916247D02*
X48932619Y-91868628D01*
X48932619Y-91868628D02*
X48742143Y-91821009D01*
X48742143Y-91821009D02*
X48646905Y-91773390D01*
X48646905Y-91773390D02*
X48599286Y-91725771D01*
X48599286Y-91725771D02*
X48551667Y-91630533D01*
X48551667Y-91630533D02*
X48551667Y-91535295D01*
X48551667Y-91535295D02*
X48599286Y-91440057D01*
X48599286Y-91440057D02*
X48646905Y-91392438D01*
X48646905Y-91392438D02*
X48742143Y-91344819D01*
X48742143Y-91344819D02*
X48980238Y-91344819D01*
X48980238Y-91344819D02*
X49123095Y-91392438D01*
X49456429Y-91344819D02*
X49694524Y-92344819D01*
X49694524Y-92344819D02*
X49885000Y-91630533D01*
X49885000Y-91630533D02*
X50075476Y-92344819D01*
X50075476Y-92344819D02*
X50313572Y-91344819D01*
X51218333Y-92344819D02*
X50646905Y-92344819D01*
X50932619Y-92344819D02*
X50932619Y-91344819D01*
X50932619Y-91344819D02*
X50837381Y-91487676D01*
X50837381Y-91487676D02*
X50742143Y-91582914D01*
X50742143Y-91582914D02*
X50646905Y-91630533D01*
X125774819Y-86388094D02*
X124774819Y-86388094D01*
X124774819Y-86388094D02*
X124774819Y-86149999D01*
X124774819Y-86149999D02*
X124822438Y-86007142D01*
X124822438Y-86007142D02*
X124917676Y-85911904D01*
X124917676Y-85911904D02*
X125012914Y-85864285D01*
X125012914Y-85864285D02*
X125203390Y-85816666D01*
X125203390Y-85816666D02*
X125346247Y-85816666D01*
X125346247Y-85816666D02*
X125536723Y-85864285D01*
X125536723Y-85864285D02*
X125631961Y-85911904D01*
X125631961Y-85911904D02*
X125727200Y-86007142D01*
X125727200Y-86007142D02*
X125774819Y-86149999D01*
X125774819Y-86149999D02*
X125774819Y-86388094D01*
X124774819Y-85483332D02*
X124774819Y-84816666D01*
X124774819Y-84816666D02*
X125774819Y-85245237D01*
X125204819Y-79561904D02*
X124204819Y-79561904D01*
X125204819Y-78990476D02*
X124633390Y-79419047D01*
X124204819Y-78990476D02*
X124776247Y-79561904D01*
X152234819Y-70547857D02*
X151758628Y-70881190D01*
X152234819Y-71119285D02*
X151234819Y-71119285D01*
X151234819Y-71119285D02*
X151234819Y-70738333D01*
X151234819Y-70738333D02*
X151282438Y-70643095D01*
X151282438Y-70643095D02*
X151330057Y-70595476D01*
X151330057Y-70595476D02*
X151425295Y-70547857D01*
X151425295Y-70547857D02*
X151568152Y-70547857D01*
X151568152Y-70547857D02*
X151663390Y-70595476D01*
X151663390Y-70595476D02*
X151711009Y-70643095D01*
X151711009Y-70643095D02*
X151758628Y-70738333D01*
X151758628Y-70738333D02*
X151758628Y-71119285D01*
X151330057Y-70166904D02*
X151282438Y-70119285D01*
X151282438Y-70119285D02*
X151234819Y-70024047D01*
X151234819Y-70024047D02*
X151234819Y-69785952D01*
X151234819Y-69785952D02*
X151282438Y-69690714D01*
X151282438Y-69690714D02*
X151330057Y-69643095D01*
X151330057Y-69643095D02*
X151425295Y-69595476D01*
X151425295Y-69595476D02*
X151520533Y-69595476D01*
X151520533Y-69595476D02*
X151663390Y-69643095D01*
X151663390Y-69643095D02*
X152234819Y-70214523D01*
X152234819Y-70214523D02*
X152234819Y-69595476D01*
X152234819Y-69119285D02*
X152234819Y-68928809D01*
X152234819Y-68928809D02*
X152187200Y-68833571D01*
X152187200Y-68833571D02*
X152139580Y-68785952D01*
X152139580Y-68785952D02*
X151996723Y-68690714D01*
X151996723Y-68690714D02*
X151806247Y-68643095D01*
X151806247Y-68643095D02*
X151425295Y-68643095D01*
X151425295Y-68643095D02*
X151330057Y-68690714D01*
X151330057Y-68690714D02*
X151282438Y-68738333D01*
X151282438Y-68738333D02*
X151234819Y-68833571D01*
X151234819Y-68833571D02*
X151234819Y-69024047D01*
X151234819Y-69024047D02*
X151282438Y-69119285D01*
X151282438Y-69119285D02*
X151330057Y-69166904D01*
X151330057Y-69166904D02*
X151425295Y-69214523D01*
X151425295Y-69214523D02*
X151663390Y-69214523D01*
X151663390Y-69214523D02*
X151758628Y-69166904D01*
X151758628Y-69166904D02*
X151806247Y-69119285D01*
X151806247Y-69119285D02*
X151853866Y-69024047D01*
X151853866Y-69024047D02*
X151853866Y-68833571D01*
X151853866Y-68833571D02*
X151806247Y-68738333D01*
X151806247Y-68738333D02*
X151758628Y-68690714D01*
X151758628Y-68690714D02*
X151663390Y-68643095D01*
X148857142Y-91734819D02*
X148523809Y-91258628D01*
X148285714Y-91734819D02*
X148285714Y-90734819D01*
X148285714Y-90734819D02*
X148666666Y-90734819D01*
X148666666Y-90734819D02*
X148761904Y-90782438D01*
X148761904Y-90782438D02*
X148809523Y-90830057D01*
X148809523Y-90830057D02*
X148857142Y-90925295D01*
X148857142Y-90925295D02*
X148857142Y-91068152D01*
X148857142Y-91068152D02*
X148809523Y-91163390D01*
X148809523Y-91163390D02*
X148761904Y-91211009D01*
X148761904Y-91211009D02*
X148666666Y-91258628D01*
X148666666Y-91258628D02*
X148285714Y-91258628D01*
X149238095Y-90830057D02*
X149285714Y-90782438D01*
X149285714Y-90782438D02*
X149380952Y-90734819D01*
X149380952Y-90734819D02*
X149619047Y-90734819D01*
X149619047Y-90734819D02*
X149714285Y-90782438D01*
X149714285Y-90782438D02*
X149761904Y-90830057D01*
X149761904Y-90830057D02*
X149809523Y-90925295D01*
X149809523Y-90925295D02*
X149809523Y-91020533D01*
X149809523Y-91020533D02*
X149761904Y-91163390D01*
X149761904Y-91163390D02*
X149190476Y-91734819D01*
X149190476Y-91734819D02*
X149809523Y-91734819D01*
X150142857Y-90734819D02*
X150809523Y-90734819D01*
X150809523Y-90734819D02*
X150380952Y-91734819D01*
X108857142Y-67734819D02*
X108523809Y-67258628D01*
X108285714Y-67734819D02*
X108285714Y-66734819D01*
X108285714Y-66734819D02*
X108666666Y-66734819D01*
X108666666Y-66734819D02*
X108761904Y-66782438D01*
X108761904Y-66782438D02*
X108809523Y-66830057D01*
X108809523Y-66830057D02*
X108857142Y-66925295D01*
X108857142Y-66925295D02*
X108857142Y-67068152D01*
X108857142Y-67068152D02*
X108809523Y-67163390D01*
X108809523Y-67163390D02*
X108761904Y-67211009D01*
X108761904Y-67211009D02*
X108666666Y-67258628D01*
X108666666Y-67258628D02*
X108285714Y-67258628D01*
X109809523Y-67734819D02*
X109238095Y-67734819D01*
X109523809Y-67734819D02*
X109523809Y-66734819D01*
X109523809Y-66734819D02*
X109428571Y-66877676D01*
X109428571Y-66877676D02*
X109333333Y-66972914D01*
X109333333Y-66972914D02*
X109238095Y-67020533D01*
X110142857Y-66734819D02*
X110809523Y-66734819D01*
X110809523Y-66734819D02*
X110380952Y-67734819D01*
X168857142Y-86174819D02*
X168523809Y-85698628D01*
X168285714Y-86174819D02*
X168285714Y-85174819D01*
X168285714Y-85174819D02*
X168666666Y-85174819D01*
X168666666Y-85174819D02*
X168761904Y-85222438D01*
X168761904Y-85222438D02*
X168809523Y-85270057D01*
X168809523Y-85270057D02*
X168857142Y-85365295D01*
X168857142Y-85365295D02*
X168857142Y-85508152D01*
X168857142Y-85508152D02*
X168809523Y-85603390D01*
X168809523Y-85603390D02*
X168761904Y-85651009D01*
X168761904Y-85651009D02*
X168666666Y-85698628D01*
X168666666Y-85698628D02*
X168285714Y-85698628D01*
X169190476Y-85174819D02*
X169809523Y-85174819D01*
X169809523Y-85174819D02*
X169476190Y-85555771D01*
X169476190Y-85555771D02*
X169619047Y-85555771D01*
X169619047Y-85555771D02*
X169714285Y-85603390D01*
X169714285Y-85603390D02*
X169761904Y-85651009D01*
X169761904Y-85651009D02*
X169809523Y-85746247D01*
X169809523Y-85746247D02*
X169809523Y-85984342D01*
X169809523Y-85984342D02*
X169761904Y-86079580D01*
X169761904Y-86079580D02*
X169714285Y-86127200D01*
X169714285Y-86127200D02*
X169619047Y-86174819D01*
X169619047Y-86174819D02*
X169333333Y-86174819D01*
X169333333Y-86174819D02*
X169238095Y-86127200D01*
X169238095Y-86127200D02*
X169190476Y-86079580D01*
X170190476Y-85270057D02*
X170238095Y-85222438D01*
X170238095Y-85222438D02*
X170333333Y-85174819D01*
X170333333Y-85174819D02*
X170571428Y-85174819D01*
X170571428Y-85174819D02*
X170666666Y-85222438D01*
X170666666Y-85222438D02*
X170714285Y-85270057D01*
X170714285Y-85270057D02*
X170761904Y-85365295D01*
X170761904Y-85365295D02*
X170761904Y-85460533D01*
X170761904Y-85460533D02*
X170714285Y-85603390D01*
X170714285Y-85603390D02*
X170142857Y-86174819D01*
X170142857Y-86174819D02*
X170761904Y-86174819D01*
X163600057Y-100071428D02*
X163552438Y-100166666D01*
X163552438Y-100166666D02*
X163457200Y-100261904D01*
X163457200Y-100261904D02*
X163314342Y-100404761D01*
X163314342Y-100404761D02*
X163266723Y-100499999D01*
X163266723Y-100499999D02*
X163266723Y-100595237D01*
X163504819Y-100547618D02*
X163457200Y-100642856D01*
X163457200Y-100642856D02*
X163361961Y-100738094D01*
X163361961Y-100738094D02*
X163171485Y-100785713D01*
X163171485Y-100785713D02*
X162838152Y-100785713D01*
X162838152Y-100785713D02*
X162647676Y-100738094D01*
X162647676Y-100738094D02*
X162552438Y-100642856D01*
X162552438Y-100642856D02*
X162504819Y-100547618D01*
X162504819Y-100547618D02*
X162504819Y-100357142D01*
X162504819Y-100357142D02*
X162552438Y-100261904D01*
X162552438Y-100261904D02*
X162647676Y-100166666D01*
X162647676Y-100166666D02*
X162838152Y-100119047D01*
X162838152Y-100119047D02*
X163171485Y-100119047D01*
X163171485Y-100119047D02*
X163361961Y-100166666D01*
X163361961Y-100166666D02*
X163457200Y-100261904D01*
X163457200Y-100261904D02*
X163504819Y-100357142D01*
X163504819Y-100357142D02*
X163504819Y-100547618D01*
X162504819Y-99785713D02*
X162504819Y-99166666D01*
X162504819Y-99166666D02*
X162885771Y-99499999D01*
X162885771Y-99499999D02*
X162885771Y-99357142D01*
X162885771Y-99357142D02*
X162933390Y-99261904D01*
X162933390Y-99261904D02*
X162981009Y-99214285D01*
X162981009Y-99214285D02*
X163076247Y-99166666D01*
X163076247Y-99166666D02*
X163314342Y-99166666D01*
X163314342Y-99166666D02*
X163409580Y-99214285D01*
X163409580Y-99214285D02*
X163457200Y-99261904D01*
X163457200Y-99261904D02*
X163504819Y-99357142D01*
X163504819Y-99357142D02*
X163504819Y-99642856D01*
X163504819Y-99642856D02*
X163457200Y-99738094D01*
X163457200Y-99738094D02*
X163409580Y-99785713D01*
X162600057Y-98785713D02*
X162552438Y-98738094D01*
X162552438Y-98738094D02*
X162504819Y-98642856D01*
X162504819Y-98642856D02*
X162504819Y-98404761D01*
X162504819Y-98404761D02*
X162552438Y-98309523D01*
X162552438Y-98309523D02*
X162600057Y-98261904D01*
X162600057Y-98261904D02*
X162695295Y-98214285D01*
X162695295Y-98214285D02*
X162790533Y-98214285D01*
X162790533Y-98214285D02*
X162933390Y-98261904D01*
X162933390Y-98261904D02*
X163504819Y-98833332D01*
X163504819Y-98833332D02*
X163504819Y-98214285D01*
X101857142Y-103734819D02*
X101523809Y-103258628D01*
X101285714Y-103734819D02*
X101285714Y-102734819D01*
X101285714Y-102734819D02*
X101666666Y-102734819D01*
X101666666Y-102734819D02*
X101761904Y-102782438D01*
X101761904Y-102782438D02*
X101809523Y-102830057D01*
X101809523Y-102830057D02*
X101857142Y-102925295D01*
X101857142Y-102925295D02*
X101857142Y-103068152D01*
X101857142Y-103068152D02*
X101809523Y-103163390D01*
X101809523Y-103163390D02*
X101761904Y-103211009D01*
X101761904Y-103211009D02*
X101666666Y-103258628D01*
X101666666Y-103258628D02*
X101285714Y-103258628D01*
X102238095Y-102830057D02*
X102285714Y-102782438D01*
X102285714Y-102782438D02*
X102380952Y-102734819D01*
X102380952Y-102734819D02*
X102619047Y-102734819D01*
X102619047Y-102734819D02*
X102714285Y-102782438D01*
X102714285Y-102782438D02*
X102761904Y-102830057D01*
X102761904Y-102830057D02*
X102809523Y-102925295D01*
X102809523Y-102925295D02*
X102809523Y-103020533D01*
X102809523Y-103020533D02*
X102761904Y-103163390D01*
X102761904Y-103163390D02*
X102190476Y-103734819D01*
X102190476Y-103734819D02*
X102809523Y-103734819D01*
X103428571Y-102734819D02*
X103523809Y-102734819D01*
X103523809Y-102734819D02*
X103619047Y-102782438D01*
X103619047Y-102782438D02*
X103666666Y-102830057D01*
X103666666Y-102830057D02*
X103714285Y-102925295D01*
X103714285Y-102925295D02*
X103761904Y-103115771D01*
X103761904Y-103115771D02*
X103761904Y-103353866D01*
X103761904Y-103353866D02*
X103714285Y-103544342D01*
X103714285Y-103544342D02*
X103666666Y-103639580D01*
X103666666Y-103639580D02*
X103619047Y-103687200D01*
X103619047Y-103687200D02*
X103523809Y-103734819D01*
X103523809Y-103734819D02*
X103428571Y-103734819D01*
X103428571Y-103734819D02*
X103333333Y-103687200D01*
X103333333Y-103687200D02*
X103285714Y-103639580D01*
X103285714Y-103639580D02*
X103238095Y-103544342D01*
X103238095Y-103544342D02*
X103190476Y-103353866D01*
X103190476Y-103353866D02*
X103190476Y-103115771D01*
X103190476Y-103115771D02*
X103238095Y-102925295D01*
X103238095Y-102925295D02*
X103285714Y-102830057D01*
X103285714Y-102830057D02*
X103333333Y-102782438D01*
X103333333Y-102782438D02*
X103428571Y-102734819D01*
X69633333Y-95734819D02*
X69300000Y-95258628D01*
X69061905Y-95734819D02*
X69061905Y-94734819D01*
X69061905Y-94734819D02*
X69442857Y-94734819D01*
X69442857Y-94734819D02*
X69538095Y-94782438D01*
X69538095Y-94782438D02*
X69585714Y-94830057D01*
X69585714Y-94830057D02*
X69633333Y-94925295D01*
X69633333Y-94925295D02*
X69633333Y-95068152D01*
X69633333Y-95068152D02*
X69585714Y-95163390D01*
X69585714Y-95163390D02*
X69538095Y-95211009D01*
X69538095Y-95211009D02*
X69442857Y-95258628D01*
X69442857Y-95258628D02*
X69061905Y-95258628D01*
X70585714Y-95734819D02*
X70014286Y-95734819D01*
X70300000Y-95734819D02*
X70300000Y-94734819D01*
X70300000Y-94734819D02*
X70204762Y-94877676D01*
X70204762Y-94877676D02*
X70109524Y-94972914D01*
X70109524Y-94972914D02*
X70014286Y-95020533D01*
X175714819Y-39483094D02*
X174714819Y-39483094D01*
X174714819Y-39483094D02*
X174714819Y-39244999D01*
X174714819Y-39244999D02*
X174762438Y-39102142D01*
X174762438Y-39102142D02*
X174857676Y-39006904D01*
X174857676Y-39006904D02*
X174952914Y-38959285D01*
X174952914Y-38959285D02*
X175143390Y-38911666D01*
X175143390Y-38911666D02*
X175286247Y-38911666D01*
X175286247Y-38911666D02*
X175476723Y-38959285D01*
X175476723Y-38959285D02*
X175571961Y-39006904D01*
X175571961Y-39006904D02*
X175667200Y-39102142D01*
X175667200Y-39102142D02*
X175714819Y-39244999D01*
X175714819Y-39244999D02*
X175714819Y-39483094D01*
X174714819Y-38006904D02*
X174714819Y-38483094D01*
X174714819Y-38483094D02*
X175191009Y-38530713D01*
X175191009Y-38530713D02*
X175143390Y-38483094D01*
X175143390Y-38483094D02*
X175095771Y-38387856D01*
X175095771Y-38387856D02*
X175095771Y-38149761D01*
X175095771Y-38149761D02*
X175143390Y-38054523D01*
X175143390Y-38054523D02*
X175191009Y-38006904D01*
X175191009Y-38006904D02*
X175286247Y-37959285D01*
X175286247Y-37959285D02*
X175524342Y-37959285D01*
X175524342Y-37959285D02*
X175619580Y-38006904D01*
X175619580Y-38006904D02*
X175667200Y-38054523D01*
X175667200Y-38054523D02*
X175714819Y-38149761D01*
X175714819Y-38149761D02*
X175714819Y-38387856D01*
X175714819Y-38387856D02*
X175667200Y-38483094D01*
X175667200Y-38483094D02*
X175619580Y-38530713D01*
X80983333Y-84234819D02*
X80650000Y-83758628D01*
X80411905Y-84234819D02*
X80411905Y-83234819D01*
X80411905Y-83234819D02*
X80792857Y-83234819D01*
X80792857Y-83234819D02*
X80888095Y-83282438D01*
X80888095Y-83282438D02*
X80935714Y-83330057D01*
X80935714Y-83330057D02*
X80983333Y-83425295D01*
X80983333Y-83425295D02*
X80983333Y-83568152D01*
X80983333Y-83568152D02*
X80935714Y-83663390D01*
X80935714Y-83663390D02*
X80888095Y-83711009D01*
X80888095Y-83711009D02*
X80792857Y-83758628D01*
X80792857Y-83758628D02*
X80411905Y-83758628D01*
X81459524Y-84234819D02*
X81650000Y-84234819D01*
X81650000Y-84234819D02*
X81745238Y-84187200D01*
X81745238Y-84187200D02*
X81792857Y-84139580D01*
X81792857Y-84139580D02*
X81888095Y-83996723D01*
X81888095Y-83996723D02*
X81935714Y-83806247D01*
X81935714Y-83806247D02*
X81935714Y-83425295D01*
X81935714Y-83425295D02*
X81888095Y-83330057D01*
X81888095Y-83330057D02*
X81840476Y-83282438D01*
X81840476Y-83282438D02*
X81745238Y-83234819D01*
X81745238Y-83234819D02*
X81554762Y-83234819D01*
X81554762Y-83234819D02*
X81459524Y-83282438D01*
X81459524Y-83282438D02*
X81411905Y-83330057D01*
X81411905Y-83330057D02*
X81364286Y-83425295D01*
X81364286Y-83425295D02*
X81364286Y-83663390D01*
X81364286Y-83663390D02*
X81411905Y-83758628D01*
X81411905Y-83758628D02*
X81459524Y-83806247D01*
X81459524Y-83806247D02*
X81554762Y-83853866D01*
X81554762Y-83853866D02*
X81745238Y-83853866D01*
X81745238Y-83853866D02*
X81840476Y-83806247D01*
X81840476Y-83806247D02*
X81888095Y-83758628D01*
X81888095Y-83758628D02*
X81935714Y-83663390D01*
X48606667Y-100547200D02*
X48749524Y-100594819D01*
X48749524Y-100594819D02*
X48987619Y-100594819D01*
X48987619Y-100594819D02*
X49082857Y-100547200D01*
X49082857Y-100547200D02*
X49130476Y-100499580D01*
X49130476Y-100499580D02*
X49178095Y-100404342D01*
X49178095Y-100404342D02*
X49178095Y-100309104D01*
X49178095Y-100309104D02*
X49130476Y-100213866D01*
X49130476Y-100213866D02*
X49082857Y-100166247D01*
X49082857Y-100166247D02*
X48987619Y-100118628D01*
X48987619Y-100118628D02*
X48797143Y-100071009D01*
X48797143Y-100071009D02*
X48701905Y-100023390D01*
X48701905Y-100023390D02*
X48654286Y-99975771D01*
X48654286Y-99975771D02*
X48606667Y-99880533D01*
X48606667Y-99880533D02*
X48606667Y-99785295D01*
X48606667Y-99785295D02*
X48654286Y-99690057D01*
X48654286Y-99690057D02*
X48701905Y-99642438D01*
X48701905Y-99642438D02*
X48797143Y-99594819D01*
X48797143Y-99594819D02*
X49035238Y-99594819D01*
X49035238Y-99594819D02*
X49178095Y-99642438D01*
X49511429Y-99594819D02*
X49749524Y-100594819D01*
X49749524Y-100594819D02*
X49940000Y-99880533D01*
X49940000Y-99880533D02*
X50130476Y-100594819D01*
X50130476Y-100594819D02*
X50368572Y-99594819D01*
X50701905Y-99690057D02*
X50749524Y-99642438D01*
X50749524Y-99642438D02*
X50844762Y-99594819D01*
X50844762Y-99594819D02*
X51082857Y-99594819D01*
X51082857Y-99594819D02*
X51178095Y-99642438D01*
X51178095Y-99642438D02*
X51225714Y-99690057D01*
X51225714Y-99690057D02*
X51273333Y-99785295D01*
X51273333Y-99785295D02*
X51273333Y-99880533D01*
X51273333Y-99880533D02*
X51225714Y-100023390D01*
X51225714Y-100023390D02*
X50654286Y-100594819D01*
X50654286Y-100594819D02*
X51273333Y-100594819D01*
X161507142Y-40234819D02*
X161173809Y-39758628D01*
X160935714Y-40234819D02*
X160935714Y-39234819D01*
X160935714Y-39234819D02*
X161316666Y-39234819D01*
X161316666Y-39234819D02*
X161411904Y-39282438D01*
X161411904Y-39282438D02*
X161459523Y-39330057D01*
X161459523Y-39330057D02*
X161507142Y-39425295D01*
X161507142Y-39425295D02*
X161507142Y-39568152D01*
X161507142Y-39568152D02*
X161459523Y-39663390D01*
X161459523Y-39663390D02*
X161411904Y-39711009D01*
X161411904Y-39711009D02*
X161316666Y-39758628D01*
X161316666Y-39758628D02*
X160935714Y-39758628D01*
X162459523Y-40234819D02*
X161888095Y-40234819D01*
X162173809Y-40234819D02*
X162173809Y-39234819D01*
X162173809Y-39234819D02*
X162078571Y-39377676D01*
X162078571Y-39377676D02*
X161983333Y-39472914D01*
X161983333Y-39472914D02*
X161888095Y-39520533D01*
X163316666Y-39568152D02*
X163316666Y-40234819D01*
X163078571Y-39187200D02*
X162840476Y-39901485D01*
X162840476Y-39901485D02*
X163459523Y-39901485D01*
X69483333Y-89234819D02*
X69150000Y-88758628D01*
X68911905Y-89234819D02*
X68911905Y-88234819D01*
X68911905Y-88234819D02*
X69292857Y-88234819D01*
X69292857Y-88234819D02*
X69388095Y-88282438D01*
X69388095Y-88282438D02*
X69435714Y-88330057D01*
X69435714Y-88330057D02*
X69483333Y-88425295D01*
X69483333Y-88425295D02*
X69483333Y-88568152D01*
X69483333Y-88568152D02*
X69435714Y-88663390D01*
X69435714Y-88663390D02*
X69388095Y-88711009D01*
X69388095Y-88711009D02*
X69292857Y-88758628D01*
X69292857Y-88758628D02*
X68911905Y-88758628D01*
X69816667Y-88234819D02*
X70483333Y-88234819D01*
X70483333Y-88234819D02*
X70054762Y-89234819D01*
X113757142Y-48734819D02*
X113423809Y-48258628D01*
X113185714Y-48734819D02*
X113185714Y-47734819D01*
X113185714Y-47734819D02*
X113566666Y-47734819D01*
X113566666Y-47734819D02*
X113661904Y-47782438D01*
X113661904Y-47782438D02*
X113709523Y-47830057D01*
X113709523Y-47830057D02*
X113757142Y-47925295D01*
X113757142Y-47925295D02*
X113757142Y-48068152D01*
X113757142Y-48068152D02*
X113709523Y-48163390D01*
X113709523Y-48163390D02*
X113661904Y-48211009D01*
X113661904Y-48211009D02*
X113566666Y-48258628D01*
X113566666Y-48258628D02*
X113185714Y-48258628D01*
X114709523Y-48734819D02*
X114138095Y-48734819D01*
X114423809Y-48734819D02*
X114423809Y-47734819D01*
X114423809Y-47734819D02*
X114328571Y-47877676D01*
X114328571Y-47877676D02*
X114233333Y-47972914D01*
X114233333Y-47972914D02*
X114138095Y-48020533D01*
X115185714Y-48734819D02*
X115376190Y-48734819D01*
X115376190Y-48734819D02*
X115471428Y-48687200D01*
X115471428Y-48687200D02*
X115519047Y-48639580D01*
X115519047Y-48639580D02*
X115614285Y-48496723D01*
X115614285Y-48496723D02*
X115661904Y-48306247D01*
X115661904Y-48306247D02*
X115661904Y-47925295D01*
X115661904Y-47925295D02*
X115614285Y-47830057D01*
X115614285Y-47830057D02*
X115566666Y-47782438D01*
X115566666Y-47782438D02*
X115471428Y-47734819D01*
X115471428Y-47734819D02*
X115280952Y-47734819D01*
X115280952Y-47734819D02*
X115185714Y-47782438D01*
X115185714Y-47782438D02*
X115138095Y-47830057D01*
X115138095Y-47830057D02*
X115090476Y-47925295D01*
X115090476Y-47925295D02*
X115090476Y-48163390D01*
X115090476Y-48163390D02*
X115138095Y-48258628D01*
X115138095Y-48258628D02*
X115185714Y-48306247D01*
X115185714Y-48306247D02*
X115280952Y-48353866D01*
X115280952Y-48353866D02*
X115471428Y-48353866D01*
X115471428Y-48353866D02*
X115566666Y-48306247D01*
X115566666Y-48306247D02*
X115614285Y-48258628D01*
X115614285Y-48258628D02*
X115661904Y-48163390D01*
X66991905Y-41714819D02*
X66991905Y-40714819D01*
X66991905Y-40714819D02*
X67230000Y-40714819D01*
X67230000Y-40714819D02*
X67372857Y-40762438D01*
X67372857Y-40762438D02*
X67468095Y-40857676D01*
X67468095Y-40857676D02*
X67515714Y-40952914D01*
X67515714Y-40952914D02*
X67563333Y-41143390D01*
X67563333Y-41143390D02*
X67563333Y-41286247D01*
X67563333Y-41286247D02*
X67515714Y-41476723D01*
X67515714Y-41476723D02*
X67468095Y-41571961D01*
X67468095Y-41571961D02*
X67372857Y-41667200D01*
X67372857Y-41667200D02*
X67230000Y-41714819D01*
X67230000Y-41714819D02*
X66991905Y-41714819D01*
X68420476Y-41048152D02*
X68420476Y-41714819D01*
X68182381Y-40667200D02*
X67944286Y-41381485D01*
X67944286Y-41381485D02*
X68563333Y-41381485D01*
X95610057Y-65841428D02*
X95562438Y-65936666D01*
X95562438Y-65936666D02*
X95467200Y-66031904D01*
X95467200Y-66031904D02*
X95324342Y-66174761D01*
X95324342Y-66174761D02*
X95276723Y-66269999D01*
X95276723Y-66269999D02*
X95276723Y-66365237D01*
X95514819Y-66317618D02*
X95467200Y-66412856D01*
X95467200Y-66412856D02*
X95371961Y-66508094D01*
X95371961Y-66508094D02*
X95181485Y-66555713D01*
X95181485Y-66555713D02*
X94848152Y-66555713D01*
X94848152Y-66555713D02*
X94657676Y-66508094D01*
X94657676Y-66508094D02*
X94562438Y-66412856D01*
X94562438Y-66412856D02*
X94514819Y-66317618D01*
X94514819Y-66317618D02*
X94514819Y-66127142D01*
X94514819Y-66127142D02*
X94562438Y-66031904D01*
X94562438Y-66031904D02*
X94657676Y-65936666D01*
X94657676Y-65936666D02*
X94848152Y-65889047D01*
X94848152Y-65889047D02*
X95181485Y-65889047D01*
X95181485Y-65889047D02*
X95371961Y-65936666D01*
X95371961Y-65936666D02*
X95467200Y-66031904D01*
X95467200Y-66031904D02*
X95514819Y-66127142D01*
X95514819Y-66127142D02*
X95514819Y-66317618D01*
X94610057Y-65508094D02*
X94562438Y-65460475D01*
X94562438Y-65460475D02*
X94514819Y-65365237D01*
X94514819Y-65365237D02*
X94514819Y-65127142D01*
X94514819Y-65127142D02*
X94562438Y-65031904D01*
X94562438Y-65031904D02*
X94610057Y-64984285D01*
X94610057Y-64984285D02*
X94705295Y-64936666D01*
X94705295Y-64936666D02*
X94800533Y-64936666D01*
X94800533Y-64936666D02*
X94943390Y-64984285D01*
X94943390Y-64984285D02*
X95514819Y-65555713D01*
X95514819Y-65555713D02*
X95514819Y-64936666D01*
X94514819Y-64603332D02*
X94514819Y-63984285D01*
X94514819Y-63984285D02*
X94895771Y-64317618D01*
X94895771Y-64317618D02*
X94895771Y-64174761D01*
X94895771Y-64174761D02*
X94943390Y-64079523D01*
X94943390Y-64079523D02*
X94991009Y-64031904D01*
X94991009Y-64031904D02*
X95086247Y-63984285D01*
X95086247Y-63984285D02*
X95324342Y-63984285D01*
X95324342Y-63984285D02*
X95419580Y-64031904D01*
X95419580Y-64031904D02*
X95467200Y-64079523D01*
X95467200Y-64079523D02*
X95514819Y-64174761D01*
X95514819Y-64174761D02*
X95514819Y-64460475D01*
X95514819Y-64460475D02*
X95467200Y-64555713D01*
X95467200Y-64555713D02*
X95419580Y-64603332D01*
X79007142Y-36734819D02*
X78673809Y-36258628D01*
X78435714Y-36734819D02*
X78435714Y-35734819D01*
X78435714Y-35734819D02*
X78816666Y-35734819D01*
X78816666Y-35734819D02*
X78911904Y-35782438D01*
X78911904Y-35782438D02*
X78959523Y-35830057D01*
X78959523Y-35830057D02*
X79007142Y-35925295D01*
X79007142Y-35925295D02*
X79007142Y-36068152D01*
X79007142Y-36068152D02*
X78959523Y-36163390D01*
X78959523Y-36163390D02*
X78911904Y-36211009D01*
X78911904Y-36211009D02*
X78816666Y-36258628D01*
X78816666Y-36258628D02*
X78435714Y-36258628D01*
X79959523Y-36734819D02*
X79388095Y-36734819D01*
X79673809Y-36734819D02*
X79673809Y-35734819D01*
X79673809Y-35734819D02*
X79578571Y-35877676D01*
X79578571Y-35877676D02*
X79483333Y-35972914D01*
X79483333Y-35972914D02*
X79388095Y-36020533D01*
X80864285Y-35734819D02*
X80388095Y-35734819D01*
X80388095Y-35734819D02*
X80340476Y-36211009D01*
X80340476Y-36211009D02*
X80388095Y-36163390D01*
X80388095Y-36163390D02*
X80483333Y-36115771D01*
X80483333Y-36115771D02*
X80721428Y-36115771D01*
X80721428Y-36115771D02*
X80816666Y-36163390D01*
X80816666Y-36163390D02*
X80864285Y-36211009D01*
X80864285Y-36211009D02*
X80911904Y-36306247D01*
X80911904Y-36306247D02*
X80911904Y-36544342D01*
X80911904Y-36544342D02*
X80864285Y-36639580D01*
X80864285Y-36639580D02*
X80816666Y-36687200D01*
X80816666Y-36687200D02*
X80721428Y-36734819D01*
X80721428Y-36734819D02*
X80483333Y-36734819D01*
X80483333Y-36734819D02*
X80388095Y-36687200D01*
X80388095Y-36687200D02*
X80340476Y-36639580D01*
D11*
X164340000Y-88500000D02*
X165030000Y-88500000D01*
X165030000Y-86780000D02*
X165030000Y-90220000D01*
X165030000Y-90220000D02*
X174270000Y-90220000D01*
X174270000Y-86780000D02*
X165030000Y-86780000D01*
X174270000Y-90220000D02*
X174270000Y-86780000D01*
X174960000Y-88500000D02*
X174270000Y-88500000D01*
X144380000Y-55730000D02*
X144380000Y-60371000D01*
X144380000Y-55730000D02*
X154620000Y-55730000D01*
X144380000Y-57240000D02*
X154620000Y-57240000D01*
X144380000Y-60371000D02*
X154620000Y-60371000D01*
X147650000Y-55730000D02*
X147650000Y-57240000D01*
X151351000Y-55730000D02*
X151351000Y-57240000D01*
X154620000Y-55730000D02*
X154620000Y-60371000D01*
X114640000Y-104200000D02*
X114640000Y-107800000D01*
X114651522Y-104161522D02*
G75*
G02*
X119090001Y-106000000I1838478J-1838478D01*
G01*
X119090000Y-106000000D02*
G75*
G02*
X114651522Y-107838478I-2600000J0D01*
G01*
X144780000Y-64785000D02*
X144780000Y-74025000D01*
X144780000Y-74025000D02*
X148220000Y-74025000D01*
X146500000Y-64095000D02*
X146500000Y-64785000D01*
X146500000Y-74715000D02*
X146500000Y-74025000D01*
X148220000Y-64785000D02*
X144780000Y-64785000D01*
X148220000Y-74025000D02*
X148220000Y-64785000D01*
X97540000Y-112000000D02*
X98230000Y-112000000D01*
X98230000Y-110280000D02*
X98230000Y-113720000D01*
X98230000Y-113720000D02*
X107470000Y-113720000D01*
X107470000Y-110280000D02*
X98230000Y-110280000D01*
X107470000Y-113720000D02*
X107470000Y-110280000D01*
X108160000Y-112000000D02*
X107470000Y-112000000D01*
X178640000Y-69595000D02*
X178640000Y-70395000D01*
X178880000Y-69835000D02*
X178880000Y-75655000D01*
X179680000Y-69595000D02*
X178640000Y-69595000D01*
X179800000Y-69835000D02*
X179800000Y-75655000D01*
X180800000Y-69835000D02*
X180800000Y-75655000D01*
X183901000Y-69835000D02*
X183901000Y-75655000D01*
X185620000Y-69835000D02*
X178880000Y-69835000D01*
X185620000Y-69835000D02*
X185620000Y-75655000D01*
X185620000Y-75655000D02*
X178880000Y-75655000D01*
X135690000Y-113000000D02*
X136380000Y-113000000D01*
X136380000Y-111280000D02*
X136380000Y-114720000D01*
X136380000Y-114720000D02*
X145620000Y-114720000D01*
X145620000Y-111280000D02*
X136380000Y-111280000D01*
X145620000Y-114720000D02*
X145620000Y-111280000D01*
X146310000Y-113000000D02*
X145620000Y-113000000D01*
X120500000Y-96430000D02*
X120500000Y-100030000D01*
X120511522Y-96391522D02*
G75*
G02*
X124950001Y-98230000I1838478J-1838478D01*
G01*
X124950000Y-98230000D02*
G75*
G02*
X120511522Y-100068478I-2600000J0D01*
G01*
X104190000Y-57500000D02*
X104880000Y-57500000D01*
X104880000Y-55780000D02*
X104880000Y-59220000D01*
X104880000Y-59220000D02*
X114120000Y-59220000D01*
X114120000Y-55780000D02*
X104880000Y-55780000D01*
X114120000Y-59220000D02*
X114120000Y-55780000D01*
X114810000Y-57500000D02*
X114120000Y-57500000D01*
X178629000Y-80920000D02*
X178629000Y-91160000D01*
X181760000Y-80920000D02*
X181760000Y-91160000D01*
X183270000Y-80920000D02*
X178629000Y-80920000D01*
X183270000Y-80920000D02*
X183270000Y-91160000D01*
X183270000Y-84190000D02*
X181760000Y-84190000D01*
X183270000Y-87891000D02*
X181760000Y-87891000D01*
X183270000Y-91160000D02*
X178629000Y-91160000D01*
X81440000Y-96470000D02*
X81440000Y-100070000D01*
X81451522Y-96431522D02*
G75*
G02*
X85890001Y-98270000I1838478J-1838478D01*
G01*
X85890000Y-98270000D02*
G75*
G02*
X81451522Y-100108478I-2600000J0D01*
G01*
X156840000Y-37250000D02*
X157530000Y-37250000D01*
X157530000Y-35530000D02*
X157530000Y-38970000D01*
X157530000Y-38970000D02*
X166770000Y-38970000D01*
X166770000Y-35530000D02*
X157530000Y-35530000D01*
X166770000Y-38970000D02*
X166770000Y-35530000D01*
X167460000Y-37250000D02*
X166770000Y-37250000D01*
X125900000Y-53970000D02*
X125900000Y-57570000D01*
X125911522Y-53931522D02*
G75*
G02*
X130350001Y-55770000I1838478J-1838478D01*
G01*
X130350000Y-55770000D02*
G75*
G02*
X125911522Y-57608478I-2600000J0D01*
G01*
X170420000Y-111420000D02*
X171750000Y-111420000D01*
X170420000Y-112750000D02*
X170420000Y-111420000D01*
X173020000Y-111420000D02*
X175620000Y-111420000D01*
X173020000Y-114080000D02*
X173020000Y-111420000D01*
X173020000Y-114080000D02*
X175620000Y-114080000D01*
X175620000Y-114080000D02*
X175620000Y-111420000D01*
X164090000Y-52980000D02*
X164090000Y-57621000D01*
X164090000Y-52980000D02*
X174330000Y-52980000D01*
X164090000Y-54490000D02*
X174330000Y-54490000D01*
X164090000Y-57621000D02*
X174330000Y-57621000D01*
X167360000Y-52980000D02*
X167360000Y-54490000D01*
X171061000Y-52980000D02*
X171061000Y-54490000D01*
X174330000Y-52980000D02*
X174330000Y-57621000D01*
X132540000Y-49000000D02*
X132680000Y-49000000D01*
X132680000Y-47030000D02*
X132680000Y-50970000D01*
X132680000Y-50970000D02*
X141820000Y-50970000D01*
X140245000Y-50970000D02*
X140245000Y-47030000D01*
X140365000Y-50970000D02*
X140365000Y-47030000D01*
X140485000Y-50970000D02*
X140485000Y-47030000D01*
X141820000Y-47030000D02*
X132680000Y-47030000D01*
X141820000Y-50970000D02*
X141820000Y-47030000D01*
X141960000Y-49000000D02*
X141820000Y-49000000D01*
X119140000Y-62470000D02*
X119140000Y-66070000D01*
X119151522Y-62431522D02*
G75*
G02*
X123590001Y-64270000I1838478J-1838478D01*
G01*
X123590000Y-64270000D02*
G75*
G02*
X119151522Y-66108478I-2600000J0D01*
G01*
X150640000Y-111200000D02*
X150640000Y-114800000D01*
X150651522Y-111161522D02*
G75*
G02*
X155090001Y-113000000I1838478J-1838478D01*
G01*
X155090000Y-113000000D02*
G75*
G02*
X150651522Y-114838478I-2600000J0D01*
G01*
X119140000Y-68470000D02*
X119140000Y-72070000D01*
X119151522Y-68431522D02*
G75*
G02*
X123590001Y-70270000I1838478J-1838478D01*
G01*
X123590000Y-70270000D02*
G75*
G02*
X119151522Y-72108478I-2600000J0D01*
G01*
X80290000Y-69700000D02*
X80290000Y-73300000D01*
X80301522Y-69661522D02*
G75*
G02*
X84740001Y-71500000I1838478J-1838478D01*
G01*
X84740000Y-71500000D02*
G75*
G02*
X80301522Y-73338478I-2600000J0D01*
G01*
X64190000Y-77500000D02*
X64880000Y-77500000D01*
X64880000Y-75780000D02*
X64880000Y-79220000D01*
X64880000Y-79220000D02*
X74120000Y-79220000D01*
X74120000Y-75780000D02*
X64880000Y-75780000D01*
X74120000Y-79220000D02*
X74120000Y-75780000D01*
X74810000Y-77500000D02*
X74120000Y-77500000D01*
X89440000Y-89700000D02*
X89440000Y-93300000D01*
X89451522Y-89661522D02*
G75*
G02*
X93890001Y-91500000I1838478J-1838478D01*
G01*
X93890000Y-91500000D02*
G75*
G02*
X89451522Y-93338478I-2600000J0D01*
G01*
X76690000Y-58500000D02*
X77380000Y-58500000D01*
X77380000Y-56780000D02*
X77380000Y-60220000D01*
X77380000Y-60220000D02*
X86620000Y-60220000D01*
X86620000Y-56780000D02*
X77380000Y-56780000D01*
X86620000Y-60220000D02*
X86620000Y-56780000D01*
X87310000Y-58500000D02*
X86620000Y-58500000D01*
X105690000Y-92500000D02*
X106380000Y-92500000D01*
X106380000Y-90780000D02*
X106380000Y-94220000D01*
X106380000Y-94220000D02*
X115620000Y-94220000D01*
X115620000Y-90780000D02*
X106380000Y-90780000D01*
X115620000Y-94220000D02*
X115620000Y-90780000D01*
X116310000Y-92500000D02*
X115620000Y-92500000D01*
X64190000Y-65500000D02*
X64880000Y-65500000D01*
X64880000Y-63780000D02*
X64880000Y-67220000D01*
X64880000Y-67220000D02*
X74120000Y-67220000D01*
X74120000Y-63780000D02*
X64880000Y-63780000D01*
X74120000Y-67220000D02*
X74120000Y-63780000D01*
X74810000Y-65500000D02*
X74120000Y-65500000D01*
X150500000Y-104970000D02*
X150500000Y-108570000D01*
X150511522Y-104931522D02*
G75*
G02*
X154950001Y-106770000I1838478J-1838478D01*
G01*
X154950000Y-106770000D02*
G75*
G02*
X150511522Y-108608478I-2600000J0D01*
G01*
X81300000Y-102470000D02*
X81300000Y-106070000D01*
X81311522Y-102431522D02*
G75*
G02*
X85750001Y-104270000I1838478J-1838478D01*
G01*
X85750000Y-104270000D02*
G75*
G02*
X81311522Y-106108478I-2600000J0D01*
G01*
X104190000Y-64000000D02*
X104880000Y-64000000D01*
X104880000Y-62280000D02*
X104880000Y-65720000D01*
X104880000Y-65720000D02*
X114120000Y-65720000D01*
X114120000Y-62280000D02*
X104880000Y-62280000D01*
X114120000Y-65720000D02*
X114120000Y-62280000D01*
X114810000Y-64000000D02*
X114120000Y-64000000D01*
X135690000Y-100500000D02*
X136380000Y-100500000D01*
X136380000Y-98780000D02*
X136380000Y-102220000D01*
X136380000Y-102220000D02*
X145620000Y-102220000D01*
X145620000Y-98780000D02*
X136380000Y-98780000D01*
X145620000Y-102220000D02*
X145620000Y-98780000D01*
X146310000Y-100500000D02*
X145620000Y-100500000D01*
X80290000Y-75700000D02*
X80290000Y-79300000D01*
X80301522Y-75661522D02*
G75*
G02*
X84740001Y-77500000I1838478J-1838478D01*
G01*
X84740000Y-77500000D02*
G75*
G02*
X80301522Y-79338478I-2600000J0D01*
G01*
X64340000Y-71500000D02*
X65030000Y-71500000D01*
X65030000Y-69780000D02*
X65030000Y-73220000D01*
X65030000Y-73220000D02*
X74270000Y-73220000D01*
X74270000Y-69780000D02*
X65030000Y-69780000D01*
X74270000Y-73220000D02*
X74270000Y-69780000D01*
X74960000Y-71500000D02*
X74270000Y-71500000D01*
X170440000Y-62000000D02*
X171130000Y-62000000D01*
X171130000Y-60280000D02*
X171130000Y-63720000D01*
X171130000Y-63720000D02*
X180370000Y-63720000D01*
X180370000Y-60280000D02*
X171130000Y-60280000D01*
X180370000Y-63720000D02*
X180370000Y-60280000D01*
X181060000Y-62000000D02*
X180370000Y-62000000D01*
X135690000Y-107000000D02*
X136380000Y-107000000D01*
X136380000Y-105280000D02*
X136380000Y-108720000D01*
X136380000Y-108720000D02*
X145620000Y-108720000D01*
X145620000Y-105280000D02*
X136380000Y-105280000D01*
X145620000Y-108720000D02*
X145620000Y-105280000D01*
X146310000Y-107000000D02*
X145620000Y-107000000D01*
X64490000Y-103500000D02*
X65180000Y-103500000D01*
X65180000Y-101780000D02*
X65180000Y-105220000D01*
X65180000Y-105220000D02*
X74420000Y-105220000D01*
X74420000Y-101780000D02*
X65180000Y-101780000D01*
X74420000Y-105220000D02*
X74420000Y-101780000D01*
X75110000Y-103500000D02*
X74420000Y-103500000D01*
X114640000Y-110470000D02*
X114640000Y-114070000D01*
X114651522Y-110431522D02*
G75*
G02*
X119090001Y-112270000I1838478J-1838478D01*
G01*
X119090000Y-112270000D02*
G75*
G02*
X114651522Y-114108478I-2600000J0D01*
G01*
X42815000Y-70440000D02*
X42815000Y-72060000D01*
X42815000Y-70440000D02*
X44675000Y-70440000D01*
X42815000Y-72060000D02*
X44675000Y-72060000D01*
X44435000Y-68900000D02*
X44435000Y-70283000D01*
X44435000Y-68900000D02*
X45818000Y-68900000D01*
X44675000Y-69140000D02*
X44675000Y-73360000D01*
X44675000Y-69140000D02*
X55595000Y-69140000D01*
X44675000Y-70440000D02*
X44675000Y-72060000D01*
X44675000Y-73360000D02*
X55595000Y-73360000D01*
X55595000Y-69140000D02*
X55595000Y-73360000D01*
X97190000Y-101000000D02*
X97880000Y-101000000D01*
X97880000Y-99280000D02*
X97880000Y-102720000D01*
X97880000Y-102720000D02*
X107120000Y-102720000D01*
X107120000Y-99280000D02*
X97880000Y-99280000D01*
X107120000Y-102720000D02*
X107120000Y-99280000D01*
X107810000Y-101000000D02*
X107120000Y-101000000D01*
X150490000Y-36795000D02*
X150655000Y-36795000D01*
X150490000Y-39975000D02*
X150670000Y-39975000D01*
X150490000Y-40095000D02*
X150670000Y-40095000D01*
X150490000Y-40215000D02*
X150490000Y-36795000D01*
X150490000Y-40215000D02*
X150670000Y-40215000D01*
X152830000Y-39975000D02*
X153010000Y-39975000D01*
X152830000Y-40095000D02*
X153010000Y-40095000D01*
X152830000Y-40215000D02*
X153010000Y-40215000D01*
X152845000Y-36795000D02*
X153010000Y-36795000D01*
X153010000Y-40215000D02*
X153010000Y-36795000D01*
X42565000Y-94190000D02*
X42565000Y-95810000D01*
X42565000Y-94190000D02*
X44425000Y-94190000D01*
X42565000Y-95810000D02*
X44425000Y-95810000D01*
X44185000Y-92650000D02*
X44185000Y-94033000D01*
X44185000Y-92650000D02*
X45568000Y-92650000D01*
X44425000Y-92890000D02*
X44425000Y-97110000D01*
X44425000Y-92890000D02*
X55345000Y-92890000D01*
X44425000Y-94190000D02*
X44425000Y-95810000D01*
X44425000Y-97110000D02*
X55345000Y-97110000D01*
X55345000Y-92890000D02*
X55345000Y-97110000D01*
X120380000Y-81080000D02*
X120380000Y-90220000D01*
X120380000Y-90220000D02*
X124320000Y-90220000D01*
X122350000Y-80940000D02*
X122350000Y-81080000D01*
X122350000Y-90360000D02*
X122350000Y-90220000D01*
X124320000Y-81080000D02*
X120380000Y-81080000D01*
X124320000Y-82415000D02*
X120380000Y-82415000D01*
X124320000Y-82535000D02*
X120380000Y-82535000D01*
X124320000Y-82655000D02*
X120380000Y-82655000D01*
X124320000Y-90220000D02*
X124320000Y-81080000D01*
X152780000Y-65285000D02*
X152780000Y-74525000D01*
X152780000Y-74525000D02*
X156220000Y-74525000D01*
X154500000Y-64595000D02*
X154500000Y-65285000D01*
X154500000Y-75215000D02*
X154500000Y-74525000D01*
X156220000Y-65285000D02*
X152780000Y-65285000D01*
X156220000Y-74525000D02*
X156220000Y-65285000D01*
X144190000Y-94000000D02*
X144880000Y-94000000D01*
X144880000Y-92280000D02*
X144880000Y-95720000D01*
X144880000Y-95720000D02*
X154120000Y-95720000D01*
X154120000Y-92280000D02*
X144880000Y-92280000D01*
X154120000Y-95720000D02*
X154120000Y-92280000D01*
X154810000Y-94000000D02*
X154120000Y-94000000D01*
X104190000Y-70000000D02*
X104880000Y-70000000D01*
X104880000Y-68280000D02*
X104880000Y-71720000D01*
X104880000Y-71720000D02*
X114120000Y-71720000D01*
X114120000Y-68280000D02*
X104880000Y-68280000D01*
X114120000Y-71720000D02*
X114120000Y-68280000D01*
X114810000Y-70000000D02*
X114120000Y-70000000D01*
X164190000Y-83000000D02*
X164880000Y-83000000D01*
X164880000Y-81280000D02*
X164880000Y-84720000D01*
X164880000Y-84720000D02*
X174120000Y-84720000D01*
X174120000Y-81280000D02*
X164880000Y-81280000D01*
X174120000Y-84720000D02*
X174120000Y-81280000D01*
X174810000Y-83000000D02*
X174120000Y-83000000D01*
X157640000Y-97700000D02*
X157640000Y-101300000D01*
X157651522Y-97661522D02*
G75*
G02*
X162090001Y-99500000I1838478J-1838478D01*
G01*
X162090000Y-99500000D02*
G75*
G02*
X157651522Y-101338478I-2600000J0D01*
G01*
X97190000Y-106000000D02*
X97880000Y-106000000D01*
X97880000Y-104280000D02*
X97880000Y-107720000D01*
X97880000Y-107720000D02*
X107120000Y-107720000D01*
X107120000Y-104280000D02*
X97880000Y-104280000D01*
X107120000Y-107720000D02*
X107120000Y-104280000D01*
X107810000Y-106000000D02*
X107120000Y-106000000D01*
X64490000Y-98000000D02*
X65180000Y-98000000D01*
X65180000Y-96280000D02*
X65180000Y-99720000D01*
X65180000Y-99720000D02*
X74420000Y-99720000D01*
X74420000Y-96280000D02*
X65180000Y-96280000D01*
X74420000Y-99720000D02*
X74420000Y-96280000D01*
X75110000Y-98000000D02*
X74420000Y-98000000D01*
X171740000Y-37035000D02*
X171740000Y-40455000D01*
X171905000Y-40455000D02*
X171740000Y-40455000D01*
X171920000Y-37035000D02*
X171740000Y-37035000D01*
X171920000Y-37155000D02*
X171740000Y-37155000D01*
X171920000Y-37275000D02*
X171740000Y-37275000D01*
X174260000Y-37035000D02*
X174080000Y-37035000D01*
X174260000Y-37035000D02*
X174260000Y-40455000D01*
X174260000Y-37155000D02*
X174080000Y-37155000D01*
X174260000Y-37275000D02*
X174080000Y-37275000D01*
X174260000Y-40455000D02*
X174095000Y-40455000D01*
X75840000Y-86500000D02*
X76530000Y-86500000D01*
X76530000Y-84780000D02*
X76530000Y-88220000D01*
X76530000Y-88220000D02*
X85770000Y-88220000D01*
X85770000Y-84780000D02*
X76530000Y-84780000D01*
X85770000Y-88220000D02*
X85770000Y-84780000D01*
X86460000Y-86500000D02*
X85770000Y-86500000D01*
X42620000Y-102440000D02*
X42620000Y-104060000D01*
X42620000Y-102440000D02*
X44480000Y-102440000D01*
X42620000Y-104060000D02*
X44480000Y-104060000D01*
X44240000Y-100900000D02*
X44240000Y-102283000D01*
X44240000Y-100900000D02*
X45623000Y-100900000D01*
X44480000Y-101140000D02*
X44480000Y-105360000D01*
X44480000Y-101140000D02*
X55400000Y-101140000D01*
X44480000Y-102440000D02*
X44480000Y-104060000D01*
X44480000Y-105360000D02*
X55400000Y-105360000D01*
X55400000Y-101140000D02*
X55400000Y-105360000D01*
X156840000Y-42500000D02*
X157530000Y-42500000D01*
X157530000Y-40780000D02*
X157530000Y-44220000D01*
X157530000Y-44220000D02*
X166770000Y-44220000D01*
X166770000Y-40780000D02*
X157530000Y-40780000D01*
X166770000Y-44220000D02*
X166770000Y-40780000D01*
X167460000Y-42500000D02*
X166770000Y-42500000D01*
X64340000Y-91500000D02*
X65030000Y-91500000D01*
X65030000Y-89780000D02*
X65030000Y-93220000D01*
X65030000Y-93220000D02*
X74270000Y-93220000D01*
X74270000Y-89780000D02*
X65030000Y-89780000D01*
X74270000Y-93220000D02*
X74270000Y-89780000D01*
X74960000Y-91500000D02*
X74270000Y-91500000D01*
X109090000Y-51000000D02*
X109780000Y-51000000D01*
X109780000Y-49280000D02*
X109780000Y-52720000D01*
X109780000Y-52720000D02*
X119020000Y-52720000D01*
X119020000Y-49280000D02*
X109780000Y-49280000D01*
X119020000Y-52720000D02*
X119020000Y-49280000D01*
X119710000Y-51000000D02*
X119020000Y-51000000D01*
X66020000Y-37905000D02*
X66020000Y-37740000D01*
X66020000Y-40260000D02*
X66020000Y-40095000D01*
X69200000Y-37920000D02*
X69200000Y-37740000D01*
X69200000Y-40260000D02*
X69200000Y-40080000D01*
X69320000Y-37920000D02*
X69320000Y-37740000D01*
X69320000Y-40260000D02*
X69320000Y-40080000D01*
X69440000Y-37740000D02*
X66020000Y-37740000D01*
X69440000Y-37920000D02*
X69440000Y-37740000D01*
X69440000Y-40260000D02*
X66020000Y-40260000D01*
X69440000Y-40260000D02*
X69440000Y-40080000D01*
X89650000Y-63470000D02*
X89650000Y-67070000D01*
X89661522Y-63431522D02*
G75*
G02*
X94100001Y-65270000I1838478J-1838478D01*
G01*
X94100000Y-65270000D02*
G75*
G02*
X89661522Y-67108478I-2600000J0D01*
G01*
X74340000Y-39000000D02*
X75030000Y-39000000D01*
X75030000Y-37280000D02*
X75030000Y-40720000D01*
X75030000Y-40720000D02*
X84270000Y-40720000D01*
X84270000Y-37280000D02*
X75030000Y-37280000D01*
X84270000Y-40720000D02*
X84270000Y-37280000D01*
X84960000Y-39000000D02*
X84270000Y-39000000D01*
%LPC*%
D12*
X163300000Y-88500000D03*
D13*
X176000000Y-88500000D03*
D14*
X146960000Y-59000000D03*
D15*
X149500000Y-59000000D03*
X152040000Y-59000000D03*
D16*
X116490000Y-104730000D03*
D17*
X116490000Y-106000000D03*
X116490000Y-107270000D03*
D12*
X146500000Y-63055000D03*
D13*
X146500000Y-75755000D03*
D12*
X96500000Y-112000000D03*
D13*
X109200000Y-112000000D03*
D18*
X182400000Y-71475000D03*
D19*
X182400000Y-74015000D03*
D12*
X134650000Y-113000000D03*
D13*
X147350000Y-113000000D03*
D16*
X122350000Y-96960000D03*
D17*
X122350000Y-98230000D03*
X122350000Y-99500000D03*
D12*
X103150000Y-57500000D03*
D13*
X115850000Y-57500000D03*
D20*
X180000000Y-83500000D03*
D21*
X180000000Y-86040000D03*
X180000000Y-88580000D03*
D16*
X83290000Y-97000000D03*
D17*
X83290000Y-98270000D03*
X83290000Y-99540000D03*
D12*
X168500000Y-37250000D03*
D13*
X155800000Y-37250000D03*
D16*
X127750000Y-54500000D03*
D17*
X127750000Y-55770000D03*
X127750000Y-57040000D03*
D22*
X171750000Y-112750000D03*
D23*
X174290000Y-112750000D03*
D14*
X166670000Y-56250000D03*
D15*
X169210000Y-56250000D03*
X171750000Y-56250000D03*
D24*
X143600000Y-49000000D03*
D25*
X130900000Y-49000000D03*
D16*
X120990000Y-63000000D03*
D17*
X120990000Y-64270000D03*
X120990000Y-65540000D03*
D16*
X152490000Y-111730000D03*
D17*
X152490000Y-113000000D03*
X152490000Y-114270000D03*
D16*
X120990000Y-69000000D03*
D17*
X120990000Y-70270000D03*
X120990000Y-71540000D03*
D16*
X82140000Y-70230000D03*
D17*
X82140000Y-71500000D03*
X82140000Y-72770000D03*
D12*
X63150000Y-77500000D03*
D13*
X75850000Y-77500000D03*
D16*
X91290000Y-90230000D03*
D17*
X91290000Y-91500000D03*
X91290000Y-92770000D03*
D12*
X75650000Y-58500000D03*
D13*
X88350000Y-58500000D03*
D12*
X104650000Y-92500000D03*
D13*
X117350000Y-92500000D03*
D12*
X63150000Y-65500000D03*
D13*
X75850000Y-65500000D03*
D16*
X152350000Y-105500000D03*
D17*
X152350000Y-106770000D03*
X152350000Y-108040000D03*
D16*
X83150000Y-103000000D03*
D17*
X83150000Y-104270000D03*
X83150000Y-105540000D03*
D12*
X103150000Y-64000000D03*
D13*
X115850000Y-64000000D03*
D12*
X134650000Y-100500000D03*
D13*
X147350000Y-100500000D03*
D16*
X82140000Y-76230000D03*
D17*
X82140000Y-77500000D03*
X82140000Y-78770000D03*
D12*
X63300000Y-71500000D03*
D13*
X76000000Y-71500000D03*
D12*
X169400000Y-62000000D03*
D13*
X182100000Y-62000000D03*
D12*
X134650000Y-107000000D03*
D13*
X147350000Y-107000000D03*
D12*
X63450000Y-103500000D03*
D13*
X76150000Y-103500000D03*
D16*
X116490000Y-111000000D03*
D17*
X116490000Y-112270000D03*
X116490000Y-113540000D03*
D26*
X46325000Y-71250000D03*
D13*
X53945000Y-71250000D03*
D12*
X96150000Y-101000000D03*
D13*
X108850000Y-101000000D03*
D27*
X151750000Y-39775000D03*
D28*
X151750000Y-37235000D03*
D26*
X46075000Y-95000000D03*
D13*
X53695000Y-95000000D03*
D24*
X122350000Y-79300000D03*
D25*
X122350000Y-92000000D03*
D12*
X154500000Y-76255000D03*
D13*
X154500000Y-63555000D03*
D12*
X143150000Y-94000000D03*
D13*
X155850000Y-94000000D03*
D12*
X103150000Y-70000000D03*
D13*
X115850000Y-70000000D03*
D12*
X175850000Y-83000000D03*
D13*
X163150000Y-83000000D03*
D16*
X159490000Y-98230000D03*
D17*
X159490000Y-99500000D03*
X159490000Y-100770000D03*
D12*
X96150000Y-106000000D03*
D13*
X108850000Y-106000000D03*
D12*
X63450000Y-98000000D03*
D13*
X76150000Y-98000000D03*
D27*
X173000000Y-37475000D03*
D28*
X173000000Y-40015000D03*
D12*
X74800000Y-86500000D03*
D13*
X87500000Y-86500000D03*
D26*
X46130000Y-103250000D03*
D13*
X53750000Y-103250000D03*
D12*
X155800000Y-42500000D03*
D13*
X168500000Y-42500000D03*
D12*
X63300000Y-91500000D03*
D13*
X76000000Y-91500000D03*
D12*
X108050000Y-51000000D03*
D13*
X120750000Y-51000000D03*
D27*
X69000000Y-39000000D03*
D28*
X66460000Y-39000000D03*
D16*
X91500000Y-64000000D03*
D17*
X91500000Y-65270000D03*
X91500000Y-66540000D03*
D12*
X73300000Y-39000000D03*
D13*
X86000000Y-39000000D03*
%LPD*%
M02*
