M48
; DRILL file {KiCad 8.0.8} date 2025-06-19T10:33:46-0400
; FORMAT={-:-/ absolute / metric / decimal}
; #@! TF.CreationDate,2025-06-19T10:33:46-04:00
; #@! TF.GenerationSoftware,Kicad,Pcbnew,8.0.8
; #@! TF.FileFunction,Plated,1,2,PTH
FMAT,2
METRIC
; #@! TA.AperFunction,Plated,PTH,ViaDrill
T1C0.300
; #@! TA.AperFunction,Plated,PTH,ComponentDrill
T2C0.750
; #@! TA.AperFunction,Plated,PTH,ComponentDrill
T3C0.800
; #@! TA.AperFunction,Plated,PTH,ComponentDrill
T4C0.900
; #@! TA.AperFunction,Plated,PTH,ComponentDrill
T5C1.000
; #@! TA.AperFunction,Plated,PTH,ComponentDrill
T6C1.100
; #@! TA.AperFunction,Plated,PTH,ComponentDrill
T7C1.200
; #@! TA.AperFunction,Plated,PTH,ComponentDrill
T8C1.400
%
G90
G05
T1
X48.75Y-90.25
X54.25Y-91.5
X56.5Y-65.75
X69.75Y-84.75
X73.75Y-82.0
X85.25Y-92.5
X87.5Y-94.75
X92.75Y-54.0
X98.75Y-55.75
X126.75Y-94.75
X156.0Y-57.25
X158.25Y-55.5
X159.5Y-69.0
X162.75Y-66.0
X168.0Y-69.25
X169.75Y-72.25
T2
X82.14Y-70.23
X82.14Y-71.5
X82.14Y-72.77
X82.14Y-76.23
X82.14Y-77.5
X82.14Y-78.77
X83.15Y-103.0
X83.15Y-104.27
X83.15Y-105.54
X83.29Y-97.0
X83.29Y-98.27
X83.29Y-99.54
X91.29Y-90.23
X91.29Y-91.5
X91.29Y-92.77
X91.5Y-64.0
X91.5Y-65.27
X91.5Y-66.54
X116.49Y-104.73
X116.49Y-106.0
X116.49Y-107.27
X116.49Y-111.0
X116.49Y-112.27
X116.49Y-113.54
X120.99Y-63.0
X120.99Y-64.27
X120.99Y-65.54
X120.99Y-69.0
X120.99Y-70.27
X120.99Y-71.54
X122.35Y-96.96
X122.35Y-98.23
X122.35Y-99.5
X127.75Y-54.5
X127.75Y-55.77
X127.75Y-57.04
X152.35Y-105.5
X152.35Y-106.77
X152.35Y-108.04
X152.49Y-111.73
X152.49Y-113.0
X152.49Y-114.27
X159.49Y-98.23
X159.49Y-99.5
X159.49Y-100.77
T3
X46.075Y-95.0
X46.13Y-103.25
X46.325Y-71.25
X53.695Y-95.0
X53.75Y-103.25
X53.945Y-71.25
X63.15Y-65.5
X63.15Y-77.5
X63.3Y-71.5
X63.3Y-91.5
X63.45Y-98.0
X63.45Y-103.5
X73.3Y-39.0
X74.8Y-86.5
X75.65Y-58.5
X75.85Y-65.5
X75.85Y-77.5
X76.0Y-71.5
X76.0Y-91.5
X76.15Y-98.0
X76.15Y-103.5
X86.0Y-39.0
X87.5Y-86.5
X88.35Y-58.5
X96.15Y-101.0
X96.15Y-106.0
X96.5Y-112.0
X103.15Y-57.5
X103.15Y-64.0
X103.15Y-70.0
X104.65Y-92.5
X108.05Y-51.0
X108.85Y-101.0
X108.85Y-106.0
X109.2Y-112.0
X115.85Y-57.5
X115.85Y-64.0
X115.85Y-70.0
X117.35Y-92.5
X120.75Y-51.0
X134.65Y-100.5
X134.65Y-107.0
X134.65Y-113.0
X143.15Y-94.0
X146.5Y-63.055
X146.5Y-75.755
X147.35Y-100.5
X147.35Y-107.0
X147.35Y-113.0
X154.5Y-63.555
X154.5Y-76.255
X155.8Y-37.25
X155.8Y-42.5
X155.85Y-94.0
X163.15Y-83.0
X163.3Y-88.5
X168.5Y-37.25
X168.5Y-42.5
X169.4Y-62.0
X175.85Y-83.0
X176.0Y-88.5
X182.1Y-62.0
T4
X66.46Y-39.0
X69.0Y-39.0
X151.75Y-37.235
X151.75Y-39.775
X173.0Y-37.475
X173.0Y-40.015
T5
X171.75Y-112.75
X174.29Y-112.75
T6
X146.96Y-59.0
X149.5Y-59.0
X152.04Y-59.0
X166.67Y-56.25
X169.21Y-56.25
X171.75Y-56.25
X180.0Y-83.5
X180.0Y-86.04
X180.0Y-88.58
T7
X182.4Y-71.475
X182.4Y-74.015
T8
X122.35Y-79.3
X122.35Y-92.0
X130.9Y-49.0
X143.6Y-49.0
M30
