G04 #@! TF.GenerationSoftware,KiCad,Pcbnew,8.0.8*
G04 #@! TF.CreationDate,2025-08-18T09:18:49-04:00*
G04 #@! TF.ProjectId,multimeter,6d756c74-696d-4657-9465-722e6b696361,rev?*
G04 #@! TF.SameCoordinates,Original*
G04 #@! TF.FileFunction,Copper,L2,Bot*
G04 #@! TF.FilePolarity,Positive*
%FSLAX46Y46*%
G04 Gerber Fmt 4.6, Leading zero omitted, Abs format (unit mm)*
G04 Created by KiCad (PCBNEW 8.0.8) date 2025-08-18 09:18:49*
%MOMM*%
%LPD*%
G01*
G04 APERTURE LIST*
G04 Aperture macros list*
%AMRoundRect*
0 Rectangle with rounded corners*
0 $1 Rounding radius*
0 $2 $3 $4 $5 $6 $7 $8 $9 X,Y pos of 4 corners*
0 Add a 4 corners polygon primitive as box body*
4,1,4,$2,$3,$4,$5,$6,$7,$8,$9,$2,$3,0*
0 Add four circle primitives for the rounded corners*
1,1,$1+$1,$2,$3*
1,1,$1+$1,$4,$5*
1,1,$1+$1,$6,$7*
1,1,$1+$1,$8,$9*
0 Add four rect primitives between the rounded corners*
20,1,$1+$1,$2,$3,$4,$5,0*
20,1,$1+$1,$4,$5,$6,$7,0*
20,1,$1+$1,$6,$7,$8,$9,0*
20,1,$1+$1,$8,$9,$2,$3,0*%
G04 Aperture macros list end*
G04 #@! TA.AperFunction,ComponentPad*
%ADD10R,2.000000X2.000000*%
G04 #@! TD*
G04 #@! TA.AperFunction,ComponentPad*
%ADD11C,2.000000*%
G04 #@! TD*
G04 #@! TA.AperFunction,ComponentPad*
%ADD12C,1.600000*%
G04 #@! TD*
G04 #@! TA.AperFunction,ComponentPad*
%ADD13O,1.600000X1.600000*%
G04 #@! TD*
G04 #@! TA.AperFunction,ComponentPad*
%ADD14R,1.800000X1.100000*%
G04 #@! TD*
G04 #@! TA.AperFunction,ComponentPad*
%ADD15RoundRect,0.275000X0.625000X-0.275000X0.625000X0.275000X-0.625000X0.275000X-0.625000X-0.275000X0*%
G04 #@! TD*
G04 #@! TA.AperFunction,ComponentPad*
%ADD16R,1.905000X2.000000*%
G04 #@! TD*
G04 #@! TA.AperFunction,ComponentPad*
%ADD17O,1.905000X2.000000*%
G04 #@! TD*
G04 #@! TA.AperFunction,ComponentPad*
%ADD18R,1.800000X1.800000*%
G04 #@! TD*
G04 #@! TA.AperFunction,ComponentPad*
%ADD19C,1.800000*%
G04 #@! TD*
G04 #@! TA.AperFunction,ComponentPad*
%ADD20C,2.082800*%
G04 #@! TD*
G04 #@! TA.AperFunction,ComponentPad*
%ADD21RoundRect,0.250001X-1.149999X-1.149999X1.149999X-1.149999X1.149999X1.149999X-1.149999X1.149999X0*%
G04 #@! TD*
G04 #@! TA.AperFunction,ComponentPad*
%ADD22C,2.800000*%
G04 #@! TD*
G04 #@! TA.AperFunction,ComponentPad*
%ADD23R,2.800000X2.800000*%
G04 #@! TD*
G04 #@! TA.AperFunction,ComponentPad*
%ADD24O,2.800000X2.800000*%
G04 #@! TD*
G04 #@! TA.AperFunction,ComponentPad*
%ADD25R,2.800000X3.800000*%
G04 #@! TD*
G04 #@! TA.AperFunction,ComponentPad*
%ADD26R,2.000000X1.905000*%
G04 #@! TD*
G04 #@! TA.AperFunction,ComponentPad*
%ADD27O,2.000000X1.905000*%
G04 #@! TD*
G04 #@! TA.AperFunction,ComponentPad*
%ADD28R,1.600000X1.600000*%
G04 #@! TD*
G04 #@! TA.AperFunction,ComponentPad*
%ADD29R,2.000000X2.600000*%
G04 #@! TD*
G04 #@! TA.AperFunction,ComponentPad*
%ADD30R,2.600000X2.000000*%
G04 #@! TD*
G04 #@! TA.AperFunction,ViaPad*
%ADD31C,2.500000*%
G04 #@! TD*
G04 #@! TA.AperFunction,Conductor*
%ADD32C,1.500000*%
G04 #@! TD*
G04 #@! TA.AperFunction,Conductor*
%ADD33C,2.000000*%
G04 #@! TD*
G04 #@! TA.AperFunction,Conductor*
%ADD34C,3.500000*%
G04 #@! TD*
G04 APERTURE END LIST*
D10*
X27110000Y80845000D03*
D11*
X24570000Y80845000D03*
X22030000Y80845000D03*
D12*
X117450000Y48275000D03*
D13*
X107290000Y48275000D03*
D12*
X60370000Y65375000D03*
D13*
X70530000Y65375000D03*
D14*
X82750000Y30275000D03*
D15*
X80680000Y31545000D03*
X82750000Y32815000D03*
D16*
X98890000Y30750000D03*
D17*
X101430000Y30750000D03*
X103970000Y30750000D03*
D18*
X42050000Y12605000D03*
D19*
X42050000Y15145000D03*
D12*
X33510000Y45175000D03*
D13*
X43670000Y45175000D03*
D14*
X82750000Y36335000D03*
D15*
X80680000Y37605000D03*
X82750000Y38875000D03*
D14*
X79220000Y76505000D03*
D15*
X77150000Y77775000D03*
X79220000Y79045000D03*
D12*
X88870000Y66775000D03*
D13*
X99030000Y66775000D03*
D12*
X111410000Y87445000D03*
D13*
X101250000Y87445000D03*
D20*
X126390000Y73045000D03*
X131470000Y73045000D03*
D21*
X111630000Y15845000D03*
D22*
X116630000Y15845000D03*
D12*
X127310000Y44415000D03*
D13*
X127310000Y34255000D03*
D14*
X106820000Y64505000D03*
D15*
X104750000Y65775000D03*
X106820000Y67045000D03*
D14*
X51580000Y39805000D03*
D15*
X49510000Y41075000D03*
X51580000Y42345000D03*
D14*
X106850000Y78575000D03*
D15*
X104780000Y79845000D03*
X106850000Y81115000D03*
D12*
X64650000Y39975000D03*
D13*
X74810000Y39975000D03*
D12*
X47150000Y12395000D03*
D13*
X47150000Y22555000D03*
D18*
X55360000Y12645000D03*
D19*
X57900000Y12645000D03*
D23*
X80600000Y54875000D03*
D24*
X67900000Y54875000D03*
D16*
X116250000Y27435000D03*
D17*
X113710000Y27435000D03*
X111170000Y27435000D03*
D10*
X97530000Y23845000D03*
D11*
X93780000Y23845000D03*
X90030000Y23845000D03*
D25*
X98980000Y15520000D03*
X88580000Y15520000D03*
D12*
X60470000Y74575000D03*
D13*
X70630000Y74575000D03*
D14*
X79150000Y62375000D03*
D15*
X77080000Y63645000D03*
X79150000Y64915000D03*
D12*
X60450000Y79375000D03*
D13*
X70610000Y79375000D03*
D14*
X51490000Y57835000D03*
D15*
X49420000Y59105000D03*
X51490000Y60375000D03*
D12*
X33710000Y40075000D03*
D13*
X43870000Y40075000D03*
D20*
X126390000Y65245000D03*
X131470000Y65245000D03*
D23*
X86600000Y55075000D03*
D24*
X99300000Y55075000D03*
D12*
X64670000Y26975000D03*
D13*
X74830000Y26975000D03*
D12*
X33710000Y61675000D03*
D13*
X43870000Y61675000D03*
D12*
X60470000Y60875000D03*
D13*
X70630000Y60875000D03*
D12*
X88950000Y76575000D03*
D13*
X99110000Y76575000D03*
D26*
X123970000Y48235000D03*
D27*
X123970000Y50775000D03*
X123970000Y53315000D03*
D12*
X121070000Y27395000D03*
D13*
X121070000Y37555000D03*
D12*
X33530000Y34875000D03*
D13*
X43690000Y34875000D03*
D12*
X88850000Y81775000D03*
D13*
X99010000Y81775000D03*
D12*
X64670000Y35875000D03*
D13*
X74830000Y35875000D03*
D14*
X51580000Y46405000D03*
D15*
X49510000Y47675000D03*
X51580000Y48945000D03*
D18*
X115830000Y85885000D03*
D19*
X115830000Y83345000D03*
D14*
X106850000Y71575000D03*
D15*
X104780000Y72845000D03*
X106850000Y74115000D03*
D12*
X64670000Y22875000D03*
D13*
X74830000Y22875000D03*
D12*
X121350000Y87345000D03*
D13*
X131510000Y87345000D03*
D12*
X113770000Y41655000D03*
D13*
X113770000Y31495000D03*
D28*
X18585000Y42275000D03*
D13*
X26205000Y42275000D03*
D18*
X115730000Y79215000D03*
D19*
X115730000Y76675000D03*
D12*
X51710000Y12415000D03*
D13*
X51710000Y22575000D03*
D12*
X88970000Y71675000D03*
D13*
X99130000Y71675000D03*
D18*
X32850000Y12675000D03*
D19*
X30310000Y12675000D03*
D12*
X88870000Y62375000D03*
D13*
X99030000Y62375000D03*
D14*
X51860000Y73665000D03*
D15*
X49790000Y74935000D03*
X51860000Y76205000D03*
D29*
X20180000Y29595000D03*
X14180000Y29595000D03*
D30*
X17180000Y24895000D03*
D12*
X60470000Y70175000D03*
D13*
X70630000Y70175000D03*
D14*
X51690000Y65635000D03*
D15*
X49620000Y66905000D03*
X51690000Y68175000D03*
D12*
X33710000Y71375000D03*
D13*
X43870000Y71375000D03*
D12*
X33530000Y30175000D03*
D13*
X43690000Y30175000D03*
D14*
X82850000Y24275000D03*
D15*
X80780000Y25545000D03*
X82850000Y26815000D03*
D12*
X33510000Y50075000D03*
D13*
X43670000Y50075000D03*
D12*
X33710000Y66575000D03*
D13*
X43870000Y66575000D03*
D12*
X37050000Y12395000D03*
D13*
X37050000Y22555000D03*
D12*
X33610000Y57175000D03*
D13*
X43770000Y57175000D03*
D12*
X33790000Y76475000D03*
D13*
X43950000Y76475000D03*
D12*
X64650000Y31375000D03*
D13*
X74810000Y31375000D03*
D14*
X79150000Y69275000D03*
D15*
X77080000Y70545000D03*
X79150000Y71815000D03*
D14*
X51480000Y32305000D03*
D15*
X49410000Y33575000D03*
X51480000Y34845000D03*
D31*
X58950000Y28275000D03*
X62050000Y48575000D03*
X84350000Y64675000D03*
X29350000Y53175000D03*
X29350000Y25675000D03*
X87250000Y43775000D03*
X125850000Y30675000D03*
X87550000Y28875000D03*
X17850000Y18575000D03*
X54950000Y62775000D03*
X21150000Y15775000D03*
X83150000Y70775000D03*
X123030000Y68145000D03*
X124450000Y13475000D03*
X48350000Y79975000D03*
X58050000Y21275000D03*
X55050000Y47775000D03*
X121130000Y72245000D03*
X110850000Y69575000D03*
X32950000Y21575000D03*
X83950000Y75675000D03*
X22350000Y18775000D03*
X53950000Y36875000D03*
X124080000Y59695000D03*
X110250000Y84075000D03*
X126350000Y19675000D03*
X129450000Y17875000D03*
X26250000Y18075000D03*
X58950000Y41275000D03*
X25050000Y58875000D03*
X26150000Y33575000D03*
X113530000Y61045000D03*
X99230000Y37645000D03*
X89130000Y58875000D03*
X111530000Y78345000D03*
X51050000Y82575000D03*
X57750000Y76275000D03*
X79950000Y85875000D03*
X84450000Y79175000D03*
X105230000Y42145000D03*
X117330000Y54245000D03*
D32*
X62050000Y48575000D02*
X57350000Y53275000D01*
X58950000Y59675000D02*
X59270000Y59675000D01*
X30450000Y36815000D02*
X33710000Y40075000D01*
X64650000Y31375000D02*
X62050000Y31375000D01*
X29350000Y25675000D02*
X29350000Y25995000D01*
X29610000Y53175000D02*
X33610000Y57175000D01*
X20042500Y29125000D02*
X20042500Y40817500D01*
X20042500Y29125000D02*
X25900000Y29125000D01*
X20042500Y40817500D02*
X18585000Y42275000D01*
X30450000Y33255000D02*
X30450000Y36815000D01*
X56350000Y44775000D02*
X56350000Y30875000D01*
X57750000Y58475000D02*
X57350000Y58075000D01*
X33710000Y66575000D02*
X29950000Y62815000D01*
X57350000Y53275000D02*
X57350000Y58075000D01*
X60150000Y48575000D02*
X56350000Y44775000D01*
X88870000Y62375000D02*
X86650000Y62375000D01*
X58950000Y28275000D02*
X59270000Y28275000D01*
X59270000Y59675000D02*
X60470000Y60875000D01*
X33530000Y30175000D02*
X30450000Y33255000D01*
X60470000Y70175000D02*
X57750000Y67455000D01*
X29950000Y62815000D02*
X29950000Y53775000D01*
X57750000Y67455000D02*
X57750000Y58475000D01*
X29350000Y25995000D02*
X33530000Y30175000D01*
X84350000Y67055000D02*
X88970000Y71675000D01*
X84350000Y64675000D02*
X84350000Y67055000D01*
X29350000Y53175000D02*
X29610000Y53175000D01*
X57350000Y58075000D02*
X58950000Y59675000D01*
X62050000Y31375000D02*
X58950000Y28275000D01*
X59270000Y28275000D02*
X64670000Y22875000D01*
X62050000Y48575000D02*
X60150000Y48575000D01*
X56350000Y30875000D02*
X58950000Y28275000D01*
X25900000Y29125000D02*
X29350000Y25675000D01*
X86650000Y62375000D02*
X84350000Y64675000D01*
X29950000Y53775000D02*
X29350000Y53175000D01*
X106450000Y81115000D02*
X107290000Y81115000D01*
X122450000Y15775000D02*
X126350000Y19675000D01*
X82450000Y26815000D02*
X85490000Y26815000D01*
X51090000Y60375000D02*
X52550000Y60375000D01*
X56750000Y22575000D02*
X58050000Y21275000D01*
X122150000Y15775000D02*
X124450000Y13475000D01*
X123030000Y69695000D02*
X126710000Y73375000D01*
X127310000Y34255000D02*
X127310000Y32135000D01*
X78750000Y64915000D02*
X79490000Y64915000D01*
X127350000Y15775000D02*
X129450000Y17875000D01*
X51710000Y22575000D02*
X56750000Y22575000D01*
X53880000Y48945000D02*
X55050000Y47775000D01*
X118890000Y15845000D02*
X116630000Y15845000D01*
X47150000Y22555000D02*
X47150000Y23775000D01*
X51080000Y34845000D02*
X51920000Y34845000D01*
X123980000Y59795000D02*
X124080000Y59695000D01*
X51460000Y76865000D02*
X48350000Y79975000D01*
X33930000Y22555000D02*
X32950000Y21575000D01*
X20042500Y16882500D02*
X20042500Y21082500D01*
X49350000Y25975000D02*
X54350000Y25975000D01*
X20042500Y21082500D02*
X20042500Y22032500D01*
X78820000Y79045000D02*
X80580000Y79045000D01*
X58050000Y22275000D02*
X58050000Y21275000D01*
X106420000Y67045000D02*
X108320000Y67045000D01*
X108320000Y67045000D02*
X110850000Y69575000D01*
X54350000Y25975000D02*
X58050000Y22275000D01*
X123970000Y59795000D02*
X123980000Y59795000D01*
X85490000Y26815000D02*
X87550000Y28875000D01*
X47150000Y23775000D02*
X49350000Y25975000D01*
X83150000Y68575000D02*
X83150000Y70775000D01*
X79490000Y64915000D02*
X83150000Y68575000D01*
X82350000Y38875000D02*
X87250000Y43775000D01*
X51920000Y34845000D02*
X53950000Y36875000D01*
X20042500Y20767500D02*
X17850000Y18575000D01*
X122260000Y73375000D02*
X121130000Y72245000D01*
X52550000Y60375000D02*
X54950000Y62775000D01*
X119710000Y15775000D02*
X122450000Y15775000D01*
X107290000Y81115000D02*
X110250000Y84075000D01*
X20042500Y22032500D02*
X17180000Y24895000D01*
X118960000Y15775000D02*
X118890000Y15845000D01*
X20042500Y16882500D02*
X21150000Y15775000D01*
X80580000Y79045000D02*
X83950000Y75675000D01*
X51180000Y48945000D02*
X53880000Y48945000D01*
X119710000Y15775000D02*
X118960000Y15775000D01*
X119710000Y15775000D02*
X122150000Y15775000D01*
X127310000Y32135000D02*
X125850000Y30675000D01*
X37050000Y22555000D02*
X33930000Y22555000D01*
X119710000Y15775000D02*
X127350000Y15775000D01*
X51460000Y76205000D02*
X51460000Y76865000D01*
X123030000Y68145000D02*
X123030000Y69695000D01*
X20042500Y21082500D02*
X22350000Y18775000D01*
X123970000Y53315000D02*
X123970000Y59795000D01*
X126710000Y73375000D02*
X122260000Y73375000D01*
X43690000Y16785000D02*
X42050000Y15145000D01*
X48950000Y30175000D02*
X51080000Y32305000D01*
X43690000Y30175000D02*
X43690000Y16785000D01*
X43690000Y30175000D02*
X48950000Y30175000D01*
X42260000Y12395000D02*
X42050000Y12605000D01*
X47150000Y12395000D02*
X42260000Y12395000D01*
X26205000Y33630000D02*
X26150000Y33575000D01*
X24570000Y83205000D02*
X24570000Y80845000D01*
X58950000Y41275000D02*
X58950000Y37775000D01*
X26250000Y16735000D02*
X30310000Y12675000D01*
X32250000Y45175000D02*
X19285000Y58140000D01*
X19285000Y78290000D02*
X18230000Y79345000D01*
X58950000Y37775000D02*
X60850000Y35875000D01*
X26205000Y42275000D02*
X30610000Y42275000D01*
X19285000Y65075000D02*
X19285000Y78290000D01*
X60850000Y35875000D02*
X64670000Y35875000D01*
X18230000Y84545000D02*
X19330000Y85645000D01*
X19285000Y64640000D02*
X25050000Y58875000D01*
X26250000Y18075000D02*
X26250000Y16735000D01*
X19330000Y85645000D02*
X22130000Y85645000D01*
X26205000Y42275000D02*
X26205000Y33630000D01*
X33510000Y45175000D02*
X32250000Y45175000D01*
X30610000Y42275000D02*
X33510000Y45175000D01*
X22130000Y85645000D02*
X24570000Y83205000D01*
X19285000Y65075000D02*
X19285000Y64640000D01*
X18230000Y79345000D02*
X18230000Y84545000D01*
X19285000Y58140000D02*
X19285000Y65075000D01*
X36770000Y12675000D02*
X37050000Y12395000D01*
X32850000Y12675000D02*
X36770000Y12675000D01*
X74830000Y22875000D02*
X75830000Y21875000D01*
X75830000Y21875000D02*
X80050000Y21875000D01*
X80050000Y21875000D02*
X82450000Y24275000D01*
X74830000Y20055000D02*
X67420000Y12645000D01*
X67420000Y12645000D02*
X57900000Y12645000D01*
X74830000Y22875000D02*
X74830000Y20055000D01*
X55130000Y12415000D02*
X55360000Y12645000D01*
X51710000Y12415000D02*
X55130000Y12415000D01*
X96980000Y37645000D02*
X94650000Y39975000D01*
D33*
X98890000Y37305000D02*
X99230000Y37645000D01*
D32*
X77250000Y60875000D02*
X78750000Y62375000D01*
X70630000Y60875000D02*
X77250000Y60875000D01*
X94650000Y55475000D02*
X91250000Y58875000D01*
X94650000Y39975000D02*
X94650000Y55475000D01*
X99230000Y37645000D02*
X96980000Y37645000D01*
X123970000Y48235000D02*
X117490000Y48235000D01*
X113680000Y60895000D02*
X113530000Y61045000D01*
X91250000Y58875000D02*
X85750000Y58875000D01*
X82250000Y62375000D02*
X78750000Y62375000D01*
D33*
X98890000Y30750000D02*
X98890000Y37305000D01*
D32*
X124860000Y47345000D02*
X123970000Y48235000D01*
X117450000Y48275000D02*
X113680000Y52045000D01*
X67900000Y58145000D02*
X70630000Y60875000D01*
X67900000Y54875000D02*
X67900000Y58145000D01*
D33*
X111530000Y79045000D02*
X115830000Y83345000D01*
D32*
X127330000Y44915000D02*
X127330000Y46745000D01*
D33*
X111530000Y78345000D02*
X111530000Y79045000D01*
D32*
X127330000Y46745000D02*
X126730000Y47345000D01*
X113680000Y52045000D02*
X113680000Y60895000D01*
X126730000Y47345000D02*
X124860000Y47345000D01*
X117490000Y48235000D02*
X117450000Y48275000D01*
X127310000Y44895000D02*
X127330000Y44915000D01*
X127310000Y44415000D02*
X127310000Y44895000D01*
X123930000Y48275000D02*
X123970000Y48235000D01*
X85750000Y58875000D02*
X82250000Y62375000D01*
X80800000Y55075000D02*
X80600000Y54875000D01*
X79550000Y54875000D02*
X80600000Y54875000D01*
X86600000Y55075000D02*
X80800000Y55075000D01*
X64650000Y39975000D02*
X79550000Y54875000D01*
X99300000Y55075000D02*
X106600000Y55075000D01*
X117250000Y44275000D02*
X117250000Y34875000D01*
X110730000Y50945000D02*
X110730000Y50795000D01*
X121030000Y27435000D02*
X121070000Y27395000D01*
X106600000Y55075000D02*
X110730000Y50945000D01*
X115730000Y68245000D02*
X115730000Y76675000D01*
X111990000Y64505000D02*
X115730000Y68245000D01*
X110730000Y50795000D02*
X117250000Y44275000D01*
X106420000Y64505000D02*
X111990000Y64505000D01*
X99300000Y62105000D02*
X99030000Y62375000D01*
X99030000Y62375000D02*
X104290000Y62375000D01*
X117250000Y34875000D02*
X116250000Y33875000D01*
X116250000Y27435000D02*
X121030000Y27435000D01*
X104290000Y62375000D02*
X106420000Y64505000D01*
X116250000Y33875000D02*
X116250000Y27435000D01*
X99300000Y55075000D02*
X99300000Y62105000D01*
X63650000Y82575000D02*
X84950000Y82575000D01*
X43870000Y66575000D02*
X45970000Y64475000D01*
X38970000Y61675000D02*
X43870000Y66575000D01*
X33710000Y61675000D02*
X38970000Y61675000D01*
X50130000Y64475000D02*
X51290000Y65635000D01*
X84950000Y82575000D02*
X85750000Y81775000D01*
X60450000Y79375000D02*
X63650000Y82575000D01*
X53610000Y65635000D02*
X55250000Y67275000D01*
X55250000Y77275000D02*
X57350000Y79375000D01*
X51290000Y65635000D02*
X53610000Y65635000D01*
X45970000Y64475000D02*
X50130000Y64475000D01*
X85750000Y81775000D02*
X88850000Y81775000D01*
X57350000Y79375000D02*
X60450000Y79375000D01*
X55250000Y67275000D02*
X55250000Y77275000D01*
X51290000Y73495000D02*
X51460000Y73665000D01*
X51290000Y68175000D02*
X51290000Y73495000D01*
X43870000Y71375000D02*
X45550000Y71375000D01*
X45550000Y71375000D02*
X50020000Y66905000D01*
X43950000Y76475000D02*
X48650000Y76475000D01*
X48650000Y76475000D02*
X50190000Y74935000D01*
X51090000Y56315000D02*
X51090000Y57835000D01*
X45550000Y57175000D02*
X47750000Y54975000D01*
X33510000Y50075000D02*
X36670000Y50075000D01*
X43770000Y57175000D02*
X45550000Y57175000D01*
X36670000Y50075000D02*
X43770000Y57175000D01*
X47750000Y54975000D02*
X49750000Y54975000D01*
X49750000Y54975000D02*
X51090000Y56315000D01*
X45810000Y45175000D02*
X49910000Y41075000D01*
X43670000Y45175000D02*
X45810000Y45175000D01*
X49450000Y38075000D02*
X51180000Y39805000D01*
X43870000Y40075000D02*
X45870000Y38075000D01*
X45870000Y38075000D02*
X49450000Y38075000D01*
X38670000Y34875000D02*
X43870000Y40075000D01*
X33530000Y34875000D02*
X38670000Y34875000D01*
X51180000Y42345000D02*
X51180000Y46405000D01*
X47510000Y50075000D02*
X49910000Y47675000D01*
X43670000Y50075000D02*
X47510000Y50075000D01*
X78750000Y76435000D02*
X78820000Y76505000D01*
X78750000Y71815000D02*
X78750000Y76435000D01*
X73450000Y74575000D02*
X77480000Y70545000D01*
X70630000Y74575000D02*
X73450000Y74575000D01*
X65830000Y65375000D02*
X70630000Y70175000D01*
X78050000Y67575000D02*
X78750000Y68275000D01*
X60370000Y65375000D02*
X65830000Y65375000D01*
X78750000Y68275000D02*
X78750000Y69275000D01*
X74750000Y67575000D02*
X78050000Y67575000D01*
X70630000Y70175000D02*
X72150000Y70175000D01*
X72150000Y70175000D02*
X74750000Y67575000D01*
X75950000Y79375000D02*
X77550000Y77775000D01*
X70610000Y79375000D02*
X75950000Y79375000D01*
X99130000Y71675000D02*
X100630000Y70175000D01*
X88870000Y66775000D02*
X94230000Y66775000D01*
X100630000Y70175000D02*
X105050000Y70175000D01*
X94230000Y66775000D02*
X99130000Y71675000D01*
X105050000Y70175000D02*
X106450000Y71575000D01*
X106450000Y74115000D02*
X106450000Y78575000D01*
X101450000Y76575000D02*
X105180000Y72845000D01*
X99110000Y76575000D02*
X101450000Y76575000D01*
X99010000Y81775000D02*
X103250000Y81775000D01*
X103250000Y81775000D02*
X105180000Y79845000D01*
X82350000Y32815000D02*
X82350000Y36335000D01*
X76750000Y35875000D02*
X81080000Y31545000D01*
X74830000Y35875000D02*
X76750000Y35875000D01*
X76610000Y29575000D02*
X81650000Y29575000D01*
X64670000Y26975000D02*
X70410000Y26975000D01*
X74810000Y31375000D02*
X76610000Y29575000D01*
X81650000Y29575000D02*
X82350000Y30275000D01*
X70410000Y26975000D02*
X74810000Y31375000D01*
X74810000Y39975000D02*
X78710000Y39975000D01*
X78710000Y39975000D02*
X81080000Y37605000D01*
X113770000Y31495000D02*
X113770000Y27495000D01*
X113710000Y31435000D02*
X113770000Y31495000D01*
X113770000Y27495000D02*
X113710000Y27435000D01*
X43870000Y61675000D02*
X47250000Y61675000D01*
X47250000Y61675000D02*
X49820000Y59105000D01*
X26905000Y65075000D02*
X27410000Y65075000D01*
X50950000Y82675000D02*
X51050000Y82575000D01*
X43050000Y82675000D02*
X50950000Y82675000D01*
X33710000Y71375000D02*
X36450000Y71375000D01*
X33710000Y71375000D02*
X33355000Y71020000D01*
X22030000Y75945000D02*
X22030000Y80845000D01*
X27410000Y65075000D02*
X33710000Y71375000D01*
X39850000Y79475000D02*
X43050000Y82675000D01*
X39850000Y74775000D02*
X39850000Y79475000D01*
X26955000Y71020000D02*
X22030000Y75945000D01*
X60470000Y74575000D02*
X58770000Y76275000D01*
X58770000Y76275000D02*
X57750000Y76275000D01*
X36450000Y71375000D02*
X39850000Y74775000D01*
X33355000Y71020000D02*
X26955000Y71020000D01*
X86350000Y79175000D02*
X88950000Y76575000D01*
X33690000Y76575000D02*
X33790000Y76475000D01*
X33790000Y80415000D02*
X39250000Y85875000D01*
X31480000Y76475000D02*
X27110000Y80845000D01*
X33790000Y76475000D02*
X33790000Y80415000D01*
X33790000Y76475000D02*
X31480000Y76475000D01*
X39250000Y85875000D02*
X79950000Y85875000D01*
X84450000Y79175000D02*
X86350000Y79175000D01*
D33*
X105230000Y42145000D02*
X105230000Y40180176D01*
X123970000Y50775000D02*
X120800000Y50775000D01*
X113770000Y41655000D02*
X112140000Y41655000D01*
D34*
X131470000Y54645000D02*
X128450000Y51625000D01*
D33*
X127600000Y50775000D02*
X123970000Y50775000D01*
X101430000Y36380176D02*
X101430000Y30750000D01*
X105230000Y40180176D02*
X101430000Y36380176D01*
D34*
X131470000Y65245000D02*
X131470000Y54645000D01*
D33*
X128450000Y51625000D02*
X127600000Y50775000D01*
X113770000Y41655000D02*
X105720000Y41655000D01*
X120800000Y50775000D02*
X117330000Y54245000D01*
D34*
X131470000Y65245000D02*
X126390000Y65245000D01*
D33*
X105720000Y41655000D02*
X105230000Y42145000D01*
D32*
X43690000Y34875000D02*
X48510000Y34875000D01*
X48510000Y34875000D02*
X49810000Y33575000D01*
X75750000Y65375000D02*
X77480000Y63645000D01*
X70530000Y65375000D02*
X75750000Y65375000D01*
X99030000Y66775000D02*
X104150000Y66775000D01*
X104150000Y66775000D02*
X105150000Y65775000D01*
X79750000Y26975000D02*
X81180000Y25545000D01*
X74830000Y26975000D02*
X79750000Y26975000D01*
D33*
X103970000Y30750000D02*
X103970000Y27750000D01*
X96730000Y26795000D02*
X93780000Y23845000D01*
X103015000Y26795000D02*
X96730000Y26795000D01*
X103970000Y27750000D02*
X103015000Y26795000D01*
D32*
X115830000Y85885000D02*
X112970000Y85885000D01*
X112970000Y85885000D02*
X111410000Y87445000D01*
X115830000Y85885000D02*
X115830000Y86045000D01*
X121350000Y80965000D02*
X119600000Y79215000D01*
X119600000Y79215000D02*
X115730000Y79215000D01*
X121350000Y87345000D02*
X121350000Y80965000D01*
D33*
X111630000Y19795000D02*
X111630000Y15845000D01*
X107580000Y23845000D02*
X111630000Y19795000D01*
X97530000Y23845000D02*
X107580000Y23845000D01*
X107580000Y23845000D02*
X111170000Y27435000D01*
X111170000Y16305000D02*
X111630000Y15845000D01*
M02*
